            <svg
              width="20"
              height="21"
              viewBox="0 0 20 21"
              fill="none"
              xmlns="http://www.w3.org/2000/svg"
            >
              <path
                d="M4.58301 8.4165H2.91634C2.22599 8.4165 1.66634 8.97615 1.66634 9.6665V17.1665C1.66634 17.8569 2.22599 18.4165 2.91634 18.4165H4.58301V8.4165Z"
                fill="#14B6B8"
              />
              <path
                d="M11.25 10.0833C11.25 8.93274 12.1827 8 13.3333 8H16.25C17.4006 8 18.3333 8.93274 18.3333 10.0833C18.3333 11.2339 17.4006 12.1667 16.25 12.1667H13.3333C12.1827 12.1667 11.25 11.2339 11.25 10.0833Z"
                fill="#14B6B8"
              />
              <path
                d="M10.833 13.4168C10.833 12.2662 11.7657 11.3335 12.9163 11.3335H15.833C16.9836 11.3335 17.9163 12.2662 17.9163 13.4168C17.9163 14.5674 16.9836 15.5002 15.833 15.5002H12.9163C11.7657 15.5002 10.833 14.5674 10.833 13.4168Z"
                fill="#14B6B8"
              />
              <path
                d="M5.83303 8.51196C5.83303 8.17827 5.9332 7.85225 6.12057 7.57613L9.50836 2.5836C9.65521 2.36718 9.96283 2.338 10.1478 2.52294L10.8188 3.19399C11.4692 3.84433 11.7099 4.79921 11.4456 5.68013L10.7497 7.99987H14.1663C15.3169 7.99987 16.2497 8.93261 16.2497 10.0832V17.5832C16.2497 18.0434 15.8766 18.4165 15.4163 18.4165H6.66634C6.2061 18.4165 5.83301 18.0434 5.83301 17.5832L5.83303 8.51196Z"
                fill="#14B6B8"
              />
            </svg>