<svg width="18" height="20" viewBox="0 0 18 20" fill="none" xmlns="http://www.w3.org/2000/svg">
<g clip-path="url(#clip0_6037_660)">
<path d="M13.0841 7.20233C14.3723 8.12266 15.9503 8.66416 17.6546 8.66416V5.38618C17.3321 5.38624 17.0104 5.35263 16.6948 5.2858V7.86604C14.9906 7.86604 13.4128 7.32454 12.1243 6.40428V13.0937C12.1243 16.4401 9.41012 19.1527 6.06223 19.1527C4.81305 19.1527 3.65199 18.7752 2.6875 18.1279C3.78831 19.2528 5.32347 19.9507 7.02186 19.9507C10.37 19.9507 13.0843 17.2381 13.0843 13.8916V7.20233H13.0841ZM14.2682 3.89524C13.6099 3.17641 13.1777 2.24745 13.0841 1.22045V0.798828H12.1745C12.4035 2.10415 13.1844 3.21934 14.2682 3.89524ZM4.80504 15.5599C4.43724 15.0779 4.23848 14.4883 4.23937 13.882C4.23937 12.3515 5.48081 11.1106 7.01241 11.1106C7.29785 11.1105 7.58158 11.1542 7.8536 11.2404V7.88919C7.53571 7.84564 7.21487 7.82716 6.89417 7.83393V10.4424C6.62195 10.3561 6.33808 10.3123 6.05258 10.3126C4.52097 10.3126 3.2796 11.5534 3.2796 13.0841C3.2796 14.1664 3.90012 15.1035 4.80504 15.5599Z" fill="#EE1D52"/>
<path d="M12.1245 6.40421C13.413 7.32447 14.9908 7.86598 16.695 7.86598V5.28574C15.7437 5.08321 14.9016 4.58635 14.2684 3.89524C13.1846 3.21927 12.4037 2.10408 12.1748 0.798828H9.78554V13.8915C9.78014 15.4178 8.54082 16.6537 7.0125 16.6537C6.11189 16.6537 5.31178 16.2246 4.80506 15.5599C3.9002 15.1035 3.27969 14.1664 3.27969 13.0842C3.27969 11.5536 4.52106 10.3126 6.05266 10.3126C6.34611 10.3126 6.62895 10.3583 6.89426 10.4425V7.834C3.60518 7.90192 0.959961 10.588 0.959961 13.8915C0.959961 15.5406 1.61868 17.0356 2.68779 18.1279C3.65228 18.7752 4.81334 19.1527 6.06252 19.1527C9.41048 19.1527 12.1246 16.44 12.1246 13.0937V6.40421H12.1245Z" fill="#010101"/>
<path d="M16.6948 5.28489V4.58721C15.837 4.58851 14.996 4.3484 14.2682 3.89433C14.9125 4.59933 15.7609 5.08544 16.6948 5.28489ZM12.1746 0.797981C12.1527 0.673235 12.136 0.547666 12.1243 0.421619V0H8.82545V13.0928C8.82017 14.6189 7.58092 15.8548 6.05247 15.8548C5.60374 15.8548 5.18007 15.7483 4.80487 15.5592C5.31159 16.2238 6.11169 16.6528 7.01231 16.6528C8.54049 16.6528 9.78001 15.417 9.78535 13.8907V0.797981H12.1746ZM6.8942 7.83316V7.09043C6.61855 7.05277 6.34065 7.03387 6.0624 7.03401C2.71416 7.03401 0 9.74667 0 13.0928C0 15.1906 1.06671 17.0394 2.68767 18.1269C1.61856 17.0347 0.959837 15.5397 0.959837 13.8906C0.959837 10.5872 3.60499 7.90108 6.8942 7.83316Z" fill="#69C9D0"/>
</g>
<defs>
<clipPath id="clip0_6037_660">
<rect width="17.6552" height="20" fill="white"/>
</clipPath>
</defs>
</svg>
