<svg width="20" height="20" viewBox="0 0 20 20" fill="none" xmlns="http://www.w3.org/2000/svg">
<path d="M0 6.70833C0 4.33546 0 3.14902 0.469111 2.24594C0.864425 1.48493 1.48493 0.864425 2.24594 0.469111C3.14902 0 4.33546 0 6.70833 0H13.2917C15.6645 0 16.851 0 17.7541 0.469111C18.5151 0.864425 19.1356 1.48493 19.5309 2.24594C20 3.14902 20 4.33546 20 6.70833V13.2917C20 15.6645 20 16.851 19.5309 17.7541C19.1356 18.5151 18.5151 19.1356 17.7541 19.5309C16.851 20 15.6645 20 13.2917 20H6.70833C4.33546 20 3.14902 20 2.24594 19.5309C1.48493 19.1356 0.864425 18.5151 0.469111 17.7541C0 16.851 0 15.6645 0 13.2917V6.70833Z" fill="url(#paint0_linear_6037_665)"/>
<path fill-rule="evenodd" clip-rule="evenodd" d="M10.581 2.74708C12.3513 2.83408 14.0009 3.5641 15.2608 4.82488C16.6047 6.16965 17.3444 7.9572 17.3437 9.85819C17.3421 13.781 14.1486 16.9729 10.2255 16.9729H10.2225C9.03118 16.9724 7.86059 16.6737 6.82088 16.1069L3.04736 17.0962L4.05724 13.4094C3.43432 12.3305 3.10654 11.1065 3.10705 9.85254C3.10862 5.92979 6.30188 2.73828 10.2254 2.73828L10.581 2.74708ZM6.9957 14.8189L7.21177 14.947C8.12016 15.4858 9.1614 15.7709 10.2231 15.7713H10.2255C13.4865 15.7713 16.1405 13.1185 16.1418 9.85778C16.1425 8.2777 15.5276 6.79196 14.4106 5.67421C13.2936 4.5564 11.8081 3.94046 10.2278 3.93995C6.96433 3.93995 4.3102 6.59252 4.3089 9.85295C4.30846 10.9704 4.62124 12.0586 5.21348 13L5.35416 13.2238L4.75647 15.406L6.9957 14.8189ZM13.8116 11.55C13.7671 11.4758 13.6486 11.4314 13.4707 11.3424C13.2929 11.2534 12.4184 10.8233 12.2554 10.764C12.0924 10.7047 11.9738 10.6751 11.8552 10.853C11.7367 11.0309 11.3958 11.4314 11.292 11.55C11.1883 11.6687 11.0845 11.6835 10.9067 11.5945C10.7288 11.5056 10.1557 11.3178 9.47638 10.7122C8.94762 10.2408 8.59066 9.65865 8.48691 9.48067C8.38318 9.30272 8.47584 9.20648 8.56488 9.11786C8.64491 9.03819 8.74277 8.91021 8.83171 8.8064C8.92064 8.70263 8.95026 8.62842 9.00957 8.50983C9.06884 8.39116 9.03919 8.28739 8.99474 8.1984C8.95026 8.10938 8.59457 7.23433 8.44636 6.87838C8.30196 6.53176 8.15532 6.57869 8.04615 6.57321C7.94253 6.56808 7.82384 6.56695 7.70529 6.56695C7.58671 6.56695 7.39402 6.61141 7.23098 6.78942C7.06795 6.96737 6.60847 7.39749 6.60847 8.27247C6.60847 9.14754 7.24581 9.9928 7.33474 10.1115C7.42367 10.2302 8.58892 12.0257 10.3731 12.7958C10.7975 12.979 11.1288 13.0883 11.3871 13.1703C11.8132 13.3056 12.2009 13.2865 12.5074 13.2407C12.8491 13.1897 13.5597 12.8107 13.7079 12.3954C13.8561 11.9801 13.8561 11.6242 13.8116 11.55Z" fill="white"/>
<defs>
<linearGradient id="paint0_linear_6037_665" x1="10" y1="20" x2="10" y2="0" gradientUnits="userSpaceOnUse">
<stop stop-color="#25CF43"/>
<stop offset="1" stop-color="#61FD7D"/>
</linearGradient>
</defs>
</svg>
