<svg width="250" height="80" viewBox="0 0 250 80" fill="none" xmlns="http://www.w3.org/2000/svg">
<rect width="250" height="80" rx="10" fill="#171717"/>
<path d="M44.3451 21.4938C46.1731 19.2073 47.4136 16.1372 47.0865 13C44.4105 13.1331 41.145 14.7654 39.2544 17.0537C37.5568 19.0133 36.0544 22.2119 36.4461 25.2176C39.45 25.4781 42.4512 23.7161 44.3451 21.4938Z" fill="white"/>
<path d="M47.0524 25.8045C42.69 25.5447 38.9809 28.2804 36.8976 28.2804C34.8131 28.2804 31.623 25.9355 28.1725 25.9987C23.6815 26.0646 19.5144 28.6039 17.2354 32.6424C12.548 40.7216 15.9984 52.7057 20.5567 59.2857C22.7704 62.5411 25.4382 66.1254 28.9534 65.9967C32.2747 65.8664 33.5765 63.8461 37.6137 63.8461C41.6479 63.8461 42.8206 65.9967 46.3363 65.9315C49.9823 65.8663 52.2617 62.6746 54.4753 59.4161C57.0147 55.7052 58.0543 52.122 58.1197 51.9253C58.0543 51.8601 51.0892 49.1881 51.0246 41.1762C50.9589 34.4676 56.493 31.2767 56.7534 31.0788C53.6283 26.4566 48.7453 25.9355 47.0524 25.8045Z" fill="white"/>
<path d="M90.005 27.705C90.005 28.775 89.79 29.71 89.36 30.51C88.93 31.3 88.295 31.915 87.455 32.355C86.625 32.785 85.625 33 84.455 33H81.095V22.425H84.455C85.625 22.425 86.625 22.64 87.455 23.07C88.295 23.49 88.93 24.1 89.36 24.9C89.79 25.69 90.005 26.625 90.005 27.705ZM84.35 31.77C85.73 31.77 86.785 31.415 87.515 30.705C88.245 29.995 88.61 28.995 88.61 27.705C88.61 26.415 88.245 25.415 87.515 24.705C86.795 23.985 85.74 23.625 84.35 23.625H82.46V31.77H84.35ZM95.582 24.66C96.372 24.66 97.077 24.83 97.697 25.17C98.327 25.51 98.817 26 99.167 26.64C99.527 27.28 99.707 28.03 99.707 28.89C99.707 29.75 99.527 30.5 99.167 31.14C98.817 31.77 98.327 32.255 97.697 32.595C97.077 32.935 96.372 33.105 95.582 33.105C94.792 33.105 94.082 32.935 93.452 32.595C92.832 32.255 92.342 31.77 91.982 31.14C91.622 30.5 91.442 29.75 91.442 28.89C91.442 28.03 91.622 27.28 91.982 26.64C92.342 26 92.832 25.51 93.452 25.17C94.082 24.83 94.792 24.66 95.582 24.66ZM95.582 25.86C95.092 25.86 94.637 25.97 94.217 26.19C93.807 26.41 93.472 26.75 93.212 27.21C92.962 27.66 92.837 28.22 92.837 28.89C92.837 29.55 92.962 30.11 93.212 30.57C93.472 31.02 93.807 31.355 94.217 31.575C94.637 31.795 95.092 31.905 95.582 31.905C96.072 31.905 96.522 31.795 96.932 31.575C97.352 31.355 97.687 31.02 97.937 30.57C98.197 30.11 98.327 29.55 98.327 28.89C98.327 28.22 98.197 27.66 97.937 27.21C97.687 26.75 97.352 26.41 96.932 26.19C96.522 25.97 96.072 25.86 95.582 25.86ZM112.796 24.765L110.426 33H108.956L106.691 26.295L104.411 33H102.926L100.586 24.765H101.966L103.721 31.695L106.001 24.765H107.426L109.721 31.68L111.491 24.765H112.796ZM118.404 24.63C119.364 24.63 120.139 24.94 120.729 25.56C121.319 26.17 121.614 27.055 121.614 28.215V33H120.249V28.335C120.249 27.515 120.039 26.885 119.619 26.445C119.199 26.005 118.629 25.785 117.909 25.785C117.159 25.785 116.559 26.03 116.109 26.52C115.659 27 115.434 27.705 115.434 28.635V33H114.069V24.765H115.434V26.715C115.644 26.045 116.014 25.53 116.544 25.17C117.084 24.81 117.704 24.63 118.404 24.63ZM125.072 21.9V33H123.707V21.9H125.072ZM131.002 24.66C131.792 24.66 132.497 24.83 133.117 25.17C133.747 25.51 134.237 26 134.587 26.64C134.947 27.28 135.127 28.03 135.127 28.89C135.127 29.75 134.947 30.5 134.587 31.14C134.237 31.77 133.747 32.255 133.117 32.595C132.497 32.935 131.792 33.105 131.002 33.105C130.212 33.105 129.502 32.935 128.872 32.595C128.252 32.255 127.762 31.77 127.402 31.14C127.042 30.5 126.862 29.75 126.862 28.89C126.862 28.03 127.042 27.28 127.402 26.64C127.762 26 128.252 25.51 128.872 25.17C129.502 24.83 130.212 24.66 131.002 24.66ZM131.002 25.86C130.512 25.86 130.057 25.97 129.637 26.19C129.227 26.41 128.892 26.75 128.632 27.21C128.382 27.66 128.257 28.22 128.257 28.89C128.257 29.55 128.382 30.11 128.632 30.57C128.892 31.02 129.227 31.355 129.637 31.575C130.057 31.795 130.512 31.905 131.002 31.905C131.492 31.905 131.942 31.795 132.352 31.575C132.772 31.355 133.107 31.02 133.357 30.57C133.617 30.11 133.747 29.55 133.747 28.89C133.747 28.22 133.617 27.66 133.357 27.21C133.107 26.75 132.772 26.41 132.352 26.19C131.942 25.97 131.492 25.86 131.002 25.86ZM140.281 24.66C141.081 24.66 141.756 24.86 142.306 25.26C142.866 25.66 143.256 26.195 143.476 26.865V24.765H144.841V33H143.476V30.9C143.256 31.57 142.866 32.105 142.306 32.505C141.756 32.905 141.081 33.105 140.281 33.105C139.551 33.105 138.901 32.935 138.331 32.595C137.761 32.255 137.311 31.77 136.981 31.14C136.661 30.5 136.501 29.75 136.501 28.89C136.501 28.03 136.661 27.28 136.981 26.64C137.311 26 137.761 25.51 138.331 25.17C138.901 24.83 139.551 24.66 140.281 24.66ZM140.671 25.875C139.831 25.875 139.156 26.145 138.646 26.685C138.146 27.215 137.896 27.95 137.896 28.89C137.896 29.83 138.146 30.57 138.646 31.11C139.156 31.64 139.831 31.905 140.671 31.905C141.211 31.905 141.691 31.78 142.111 31.53C142.541 31.28 142.876 30.93 143.116 30.48C143.356 30.02 143.476 29.49 143.476 28.89C143.476 28.29 143.356 27.76 143.116 27.3C142.876 26.84 142.541 26.49 142.111 26.25C141.691 26 141.211 25.875 140.671 25.875ZM150.388 24.66C151.188 24.66 151.863 24.86 152.413 25.26C152.973 25.66 153.363 26.195 153.583 26.865V21.9H154.948V33H153.583V30.9C153.363 31.57 152.973 32.105 152.413 32.505C151.863 32.905 151.188 33.105 150.388 33.105C149.658 33.105 149.008 32.935 148.438 32.595C147.868 32.255 147.418 31.77 147.088 31.14C146.768 30.5 146.608 29.75 146.608 28.89C146.608 28.03 146.768 27.28 147.088 26.64C147.418 26 147.868 25.51 148.438 25.17C149.008 24.83 149.658 24.66 150.388 24.66ZM150.778 25.875C149.938 25.875 149.263 26.145 148.753 26.685C148.253 27.215 148.003 27.95 148.003 28.89C148.003 29.83 148.253 30.57 148.753 31.11C149.263 31.64 149.938 31.905 150.778 31.905C151.318 31.905 151.798 31.78 152.218 31.53C152.648 31.28 152.983 30.93 153.223 30.48C153.463 30.02 153.583 29.49 153.583 28.89C153.583 28.29 153.463 27.76 153.223 27.3C152.983 26.84 152.648 26.49 152.218 26.25C151.798 26 151.318 25.875 150.778 25.875ZM164.561 24.66C165.351 24.66 166.056 24.83 166.676 25.17C167.306 25.51 167.796 26 168.146 26.64C168.506 27.28 168.686 28.03 168.686 28.89C168.686 29.75 168.506 30.5 168.146 31.14C167.796 31.77 167.306 32.255 166.676 32.595C166.056 32.935 165.351 33.105 164.561 33.105C163.771 33.105 163.061 32.935 162.431 32.595C161.811 32.255 161.321 31.77 160.961 31.14C160.601 30.5 160.421 29.75 160.421 28.89C160.421 28.03 160.601 27.28 160.961 26.64C161.321 26 161.811 25.51 162.431 25.17C163.061 24.83 163.771 24.66 164.561 24.66ZM164.561 25.86C164.071 25.86 163.616 25.97 163.196 26.19C162.786 26.41 162.451 26.75 162.191 27.21C161.941 27.66 161.816 28.22 161.816 28.89C161.816 29.55 161.941 30.11 162.191 30.57C162.451 31.02 162.786 31.355 163.196 31.575C163.616 31.795 164.071 31.905 164.561 31.905C165.051 31.905 165.501 31.795 165.911 31.575C166.331 31.355 166.666 31.02 166.916 30.57C167.176 30.11 167.306 29.55 167.306 28.89C167.306 28.22 167.176 27.66 166.916 27.21C166.666 26.75 166.331 26.41 165.911 26.19C165.501 25.97 165.051 25.86 164.561 25.86ZM174.8 24.63C175.76 24.63 176.535 24.94 177.125 25.56C177.715 26.17 178.01 27.055 178.01 28.215V33H176.645V28.335C176.645 27.515 176.435 26.885 176.015 26.445C175.595 26.005 175.025 25.785 174.305 25.785C173.555 25.785 172.955 26.03 172.505 26.52C172.055 27 171.83 27.705 171.83 28.635V33H170.465V24.765H171.83V26.715C172.04 26.045 172.41 25.53 172.94 25.17C173.48 24.81 174.1 24.63 174.8 24.63ZM187.74 31.8V33H186.72C185.88 33 185.25 32.8 184.83 32.4C184.42 32 184.215 31.33 184.215 30.39V25.95H182.985V24.765H184.215V22.71H185.595V24.765H187.725V25.95H185.595V30.42C185.595 30.95 185.69 31.315 185.88 31.515C186.08 31.705 186.42 31.8 186.9 31.8H187.74ZM193.741 24.63C194.701 24.63 195.476 24.94 196.066 25.56C196.656 26.17 196.951 27.055 196.951 28.215V33H195.586V28.335C195.586 27.515 195.376 26.885 194.956 26.445C194.536 26.005 193.966 25.785 193.246 25.785C192.496 25.785 191.896 26.03 191.446 26.52C190.996 27 190.771 27.705 190.771 28.635V33H189.406V21.9H190.771V26.715C190.981 26.045 191.351 25.53 191.881 25.17C192.421 24.81 193.041 24.63 193.741 24.63ZM206.619 28.425C206.619 28.715 206.599 28.965 206.559 29.175H199.974C200.004 30.115 200.269 30.82 200.769 31.29C201.279 31.76 201.899 31.995 202.629 31.995C203.289 31.995 203.839 31.83 204.279 31.5C204.729 31.16 205.004 30.71 205.104 30.15H206.559C206.459 30.72 206.234 31.23 205.884 31.68C205.544 32.13 205.099 32.48 204.549 32.73C203.999 32.98 203.379 33.105 202.689 33.105C201.899 33.105 201.199 32.935 200.589 32.595C199.979 32.255 199.499 31.77 199.149 31.14C198.809 30.5 198.639 29.75 198.639 28.89C198.639 28.03 198.809 27.28 199.149 26.64C199.499 26 199.979 25.51 200.589 25.17C201.199 24.83 201.899 24.66 202.689 24.66C203.489 24.66 204.184 24.83 204.774 25.17C205.374 25.51 205.829 25.965 206.139 26.535C206.459 27.105 206.619 27.735 206.619 28.425ZM205.239 28.515C205.269 27.905 205.169 27.395 204.939 26.985C204.709 26.575 204.394 26.27 203.994 26.07C203.594 25.87 203.159 25.77 202.689 25.77C201.939 25.77 201.309 26.005 200.799 26.475C200.289 26.935 200.014 27.615 199.974 28.515H205.239Z" fill="white"/>
<path d="M92.74 57.022H84.992L83.588 61H80.416L87.176 42.93H90.582L97.316 61H94.144L92.74 57.022ZM91.908 54.734L88.866 46.154L85.824 54.734H91.908ZM107.733 46.492C108.981 46.492 110.09 46.7867 111.061 47.376C112.049 47.9653 112.82 48.8147 113.375 49.924C113.929 51.0333 114.207 52.3333 114.207 53.824C114.207 55.332 113.929 56.6407 113.375 57.75C112.82 58.8593 112.049 59.7087 111.061 60.298C110.09 60.8873 108.981 61.182 107.733 61.182C106.433 61.182 105.323 60.8613 104.405 60.22C103.486 59.5787 102.845 58.7293 102.481 57.672V67.812H99.5167V46.674H102.481V50.002C102.845 48.9447 103.486 48.0953 104.405 47.454C105.323 46.8127 106.433 46.492 107.733 46.492ZM106.823 49.092C105.991 49.092 105.245 49.2913 104.587 49.69C103.928 50.0713 103.408 50.626 103.027 51.354C102.645 52.0647 102.455 52.888 102.455 53.824C102.455 54.7773 102.645 55.6093 103.027 56.32C103.408 57.0307 103.928 57.5853 104.587 57.984C105.245 58.3653 105.991 58.556 106.823 58.556C108.14 58.556 109.197 58.14 109.995 57.308C110.792 56.4587 111.191 55.2973 111.191 53.824C111.191 52.368 110.792 51.2153 109.995 50.366C109.197 49.5167 108.14 49.092 106.823 49.092ZM125.278 46.492C126.526 46.492 127.635 46.7867 128.606 47.376C129.594 47.9653 130.365 48.8147 130.92 49.924C131.474 51.0333 131.752 52.3333 131.752 53.824C131.752 55.332 131.474 56.6407 130.92 57.75C130.365 58.8593 129.594 59.7087 128.606 60.298C127.635 60.8873 126.526 61.182 125.278 61.182C123.978 61.182 122.868 60.8613 121.95 60.22C121.031 59.5787 120.39 58.7293 120.026 57.672V67.812H117.062V46.674H120.026V50.002C120.39 48.9447 121.031 48.0953 121.95 47.454C122.868 46.8127 123.978 46.492 125.278 46.492ZM124.368 49.092C123.536 49.092 122.79 49.2913 122.132 49.69C121.473 50.0713 120.953 50.626 120.572 51.354C120.19 52.0647 120 52.888 120 53.824C120 54.7773 120.19 55.6093 120.572 56.32C120.953 57.0307 121.473 57.5853 122.132 57.984C122.79 58.3653 123.536 58.556 124.368 58.556C125.685 58.556 126.742 58.14 127.54 57.308C128.337 56.4587 128.736 55.2973 128.736 53.824C128.736 52.368 128.337 51.2153 127.54 50.366C126.742 49.5167 125.685 49.092 124.368 49.092ZM152.764 56.112C152.764 57.0133 152.548 57.854 152.114 58.634C151.681 59.3967 151.022 60.012 150.138 60.48C149.254 60.948 148.171 61.182 146.888 61.182C145.64 61.182 144.522 60.9653 143.534 60.532C142.546 60.0813 141.758 59.4573 141.168 58.66C140.579 57.8627 140.241 56.944 140.154 55.904H143.326C143.413 56.7013 143.751 57.386 144.34 57.958C144.947 58.53 145.753 58.816 146.758 58.816C147.66 58.816 148.353 58.5733 148.838 58.088C149.341 57.6027 149.592 56.9787 149.592 56.216C149.592 55.5573 149.41 55.02 149.046 54.604C148.682 54.1707 148.232 53.8327 147.694 53.59C147.157 53.3473 146.42 53.07 145.484 52.758C144.34 52.394 143.404 52.03 142.676 51.666C141.966 51.302 141.359 50.7733 140.856 50.08C140.354 49.3867 140.102 48.4767 140.102 47.35C140.102 46.362 140.345 45.4953 140.83 44.75C141.316 44.0047 142.009 43.4327 142.91 43.034C143.812 42.618 144.852 42.41 146.03 42.41C147.902 42.41 149.384 42.8607 150.476 43.762C151.586 44.6633 152.218 45.842 152.374 47.298H149.176C149.055 46.6047 148.726 46.0153 148.188 45.53C147.668 45.0273 146.949 44.776 146.03 44.776C145.198 44.776 144.531 44.9927 144.028 45.426C143.526 45.842 143.274 46.4487 143.274 47.246C143.274 47.87 143.448 48.39 143.794 48.806C144.141 49.2047 144.574 49.5253 145.094 49.768C145.632 49.9933 146.36 50.262 147.278 50.574C148.44 50.938 149.384 51.3107 150.112 51.692C150.858 52.056 151.482 52.5933 151.984 53.304C152.504 54.0147 152.764 54.9507 152.764 56.112ZM162.934 58.426V61H161.114C159.588 61 158.427 60.636 157.63 59.908C156.85 59.1627 156.46 57.932 156.46 56.216V49.196H154.406V46.674H156.46V43.112H159.45V46.674H162.908V49.196H159.45V56.268C159.45 57.0827 159.597 57.646 159.892 57.958C160.204 58.27 160.741 58.426 161.504 58.426H162.934ZM172.262 46.492C173.649 46.492 174.897 46.7867 176.006 47.376C177.115 47.9653 177.982 48.8147 178.606 49.924C179.23 51.0333 179.542 52.3333 179.542 53.824C179.542 55.332 179.23 56.6407 178.606 57.75C177.982 58.8593 177.115 59.7087 176.006 60.298C174.897 60.8873 173.649 61.182 172.262 61.182C170.875 61.182 169.627 60.8873 168.518 60.298C167.426 59.7087 166.559 58.8593 165.918 57.75C165.294 56.6233 164.982 55.3147 164.982 53.824C164.982 52.3333 165.294 51.0333 165.918 49.924C166.559 48.8147 167.426 47.9653 168.518 47.376C169.627 46.7867 170.875 46.492 172.262 46.492ZM172.262 49.066C171.499 49.066 170.797 49.2393 170.156 49.586C169.515 49.9327 168.995 50.47 168.596 51.198C168.215 51.9087 168.024 52.784 168.024 53.824C168.024 54.8813 168.215 55.7653 168.596 56.476C168.995 57.1867 169.515 57.7153 170.156 58.062C170.797 58.4087 171.499 58.582 172.262 58.582C173.025 58.582 173.727 58.4087 174.368 58.062C175.009 57.7153 175.521 57.1867 175.902 56.476C176.301 55.7653 176.5 54.8813 176.5 53.824C176.5 52.784 176.301 51.9087 175.902 51.198C175.521 50.47 175.009 49.9327 174.368 49.586C173.727 49.2393 173.025 49.066 172.262 49.066ZM185.356 49.482C185.841 48.546 186.534 47.8093 187.436 47.272C188.337 46.7173 189.377 46.44 190.556 46.44V49.664H189.672C188.372 49.664 187.323 49.9847 186.526 50.626C185.746 51.25 185.356 52.29 185.356 53.746V61H182.392V46.674H185.356V49.482ZM206.088 53.148C206.088 53.6333 206.054 54.058 205.984 54.422H194.96C195.012 55.8953 195.42 56.9873 196.182 57.698C196.945 58.4087 197.89 58.764 199.016 58.764C200.004 58.764 200.836 58.5127 201.512 58.01C202.206 57.5073 202.63 56.84 202.786 56.008H205.958C205.768 57.0133 205.369 57.906 204.762 58.686C204.156 59.466 203.367 60.0813 202.396 60.532C201.426 60.9653 200.342 61.182 199.146 61.182C197.76 61.182 196.529 60.8873 195.454 60.298C194.397 59.7087 193.565 58.8593 192.958 57.75C192.352 56.6407 192.048 55.332 192.048 53.824C192.048 52.3333 192.352 51.0333 192.958 49.924C193.565 48.8147 194.397 47.9653 195.454 47.376C196.529 46.7867 197.76 46.492 199.146 46.492C200.55 46.492 201.772 46.7867 202.812 47.376C203.87 47.948 204.676 48.7453 205.23 49.768C205.802 50.7733 206.088 51.9 206.088 53.148ZM203.098 53.07C203.133 52.134 202.968 51.354 202.604 50.73C202.258 50.0887 201.772 49.6207 201.148 49.326C200.542 49.014 199.874 48.858 199.146 48.858C197.985 48.858 197.014 49.2133 196.234 49.924C195.454 50.6347 195.03 51.6833 194.96 53.07H203.098Z" fill="white"/>
</svg>
