<svg width="50" height="50" viewBox="0 0 50 50" fill="none" xmlns="http://www.w3.org/2000/svg">
<circle cx="25" cy="25" r="25" fill="#14B6B8" fill-opacity="0.17"/>
<path d="M30.041 29.5197C30.5649 29.6943 31.1312 29.4112 31.3059 28.8872C31.4805 28.3633 31.1974 27.797 30.6734 27.6223L30.041 29.5197ZM25.0001 26.7853H24.0001C24.0001 27.2157 24.2755 27.5979 24.6838 27.734L25.0001 26.7853ZM26.0001 19.3184C26.0001 18.7661 25.5524 18.3184 25.0001 18.3184C24.4478 18.3184 24.0001 18.7661 24.0001 19.3184H26.0001ZM30.6734 27.6223L25.3163 25.8366L24.6838 27.734L30.041 29.5197L30.6734 27.6223ZM26.0001 26.7853V19.3184H24.0001V26.7853H26.0001ZM38.2858 24.9996C38.2858 32.3371 32.3376 38.2853 25.0001 38.2853V40.2853C33.4421 40.2853 40.2858 33.4416 40.2858 24.9996H38.2858ZM25.0001 38.2853C17.6626 38.2853 11.7144 32.3371 11.7144 24.9996H9.71436C9.71436 33.4416 16.558 40.2853 25.0001 40.2853V38.2853ZM11.7144 24.9996C11.7144 17.6621 17.6626 11.7139 25.0001 11.7139V9.71387C16.558 9.71387 9.71436 16.5575 9.71436 24.9996H11.7144ZM25.0001 11.7139C32.3376 11.7139 38.2858 17.6621 38.2858 24.9996H40.2858C40.2858 16.5575 33.4421 9.71387 25.0001 9.71387V11.7139Z" fill="#093D77"/>
</svg>
