<svg width="50" height="50" viewBox="0 0 50 50" fill="none" xmlns="http://www.w3.org/2000/svg">
<circle cx="25" cy="25" r="25" fill="#14B6B8" fill-opacity="0.17"/>
<path d="M35.1998 18.4722H35.9614H35.9629H36.1998C36.1998 18.4868 36.1994 18.4983 36.199 18.5055L36.1984 18.5139L36.1983 18.5162L36.1985 18.5142L36.1992 18.5058L36.2006 18.4912L36.2023 18.4698L36.2024 18.4698L36.2031 18.4588C36.204 18.4455 36.2049 18.4315 36.2059 18.4168C36.2094 18.3638 36.2135 18.3025 36.2168 18.2341C36.1328 18.2163 36.0472 18.2076 35.9612 18.2081C35.7287 18.2084 35.5013 18.2752 35.3021 18.4006C35.3016 18.4009 35.3011 18.4013 35.3006 18.4016C35.2661 18.4234 35.2325 18.4469 35.1998 18.4722ZM35.1998 18.4722L35.1362 18.3899M35.1998 18.4722C35.1998 18.4527 35.2016 18.4336 35.2033 18.4157C35.204 18.4083 35.2047 18.4012 35.2052 18.3944M35.1362 18.3899L34.5881 17.6811C34.7602 17.548 34.9493 17.4407 35.1496 17.3621C35.2471 17.7453 35.2233 18.1146 35.2054 18.3908L35.2052 18.3944M35.1362 18.3899L35.2052 18.3944M35.1362 18.3899L35.2052 18.3944M34.2079 18.3198C34.2352 17.8921 34.2313 17.5972 34.0674 17.3465C33.647 16.7402 33.1861 16.1684 32.6885 15.6355L32.6863 15.6331C31.9549 14.8617 30.3363 13.382 27.8524 12.2967L27.8502 12.2957C26.9734 11.9102 26.0372 11.7132 25.0939 11.7139L25.0932 11.7139C23.5279 11.7139 22.3457 12.4784 21.9467 12.8668C21.6818 13.1388 21.4394 13.4363 21.2225 13.7561L34.2079 18.3198ZM34.2079 18.3198L34.2055 18.3468C34.2034 18.3713 34.1998 18.4171 34.1998 18.4722V20.5095L35.8115 19.2632C35.863 19.2234 35.9158 19.2082 35.9622 19.2081L35.9677 19.2081C35.9943 19.2079 36.0225 19.2133 36.0513 19.2259C36.0803 19.2387 36.1114 19.2595 36.1408 19.2909L36.1431 19.2934L38.1796 21.453L38.183 21.4567L38.1859 21.4597C38.2438 21.5287 38.2847 21.6295 38.2858 21.7453C38.2868 21.8651 38.2448 21.9703 38.1843 22.0413L38.1843 22.0413L38.181 22.0453L34.8847 25.5337C34.8844 25.534 34.8841 25.5343 34.8838 25.5346C34.8237 25.5973 34.7579 25.6189 34.7044 25.6188V25.6188L34.6956 25.6189C34.669 25.6191 34.6409 25.6137 34.6122 25.6011C34.5832 25.5885 34.5522 25.5677 34.5229 25.5364L34.5208 25.5342L32.4815 23.3716C32.4516 23.3399 32.4245 23.2985 32.4048 23.2481C32.3851 23.1976 32.3742 23.1413 32.3741 23.0829C32.374 23.0245 32.3848 22.9681 32.4044 22.9175C32.4223 22.8711 32.4465 22.8323 32.4735 22.8016L32.476 22.7991L32.476 22.7992L32.4824 22.7927L32.5907 22.6823L32.6188 22.6537L32.6446 22.6229C32.7392 22.5096 32.8077 22.3804 32.8489 22.2449C32.849 22.2449 32.849 22.2448 32.849 22.2448L31.8923 21.9535M34.2079 18.3198L28.5789 23.7336C29.1581 23.1794 30.0402 22.344 30.3486 22.1392C30.4533 22.0702 30.5512 22.014 30.641 21.9681C30.7415 21.7715 30.869 21.5887 31.0212 21.4262L31.0323 21.4143L31.0439 21.4028L31.0584 21.3882L31.1636 21.2811L31.1687 21.2861L31.1733 21.2906L31.7331 21.8403C31.7889 21.8625 31.8433 21.8895 31.8956 21.9211C31.8966 21.9321 31.8955 21.9431 31.8923 21.9535M31.8923 21.9535C31.8892 21.9639 31.884 21.9735 31.8772 21.9817L31.8923 21.9535ZM38.9124 22.7273C38.9237 22.7151 38.935 22.7024 38.9457 22.6896M38.9124 22.7273L38.2874 22.1367L38.2062 22.0599L38.1855 22.0405L38.1845 22.0415L38.1813 22.045L38.2093 22.0711L38.9124 22.7273ZM38.9124 22.7273L35.6088 26.2234C35.3668 26.4774 35.0415 26.6194 34.7028 26.6188L38.9457 22.6896M38.9457 22.6896C39.1673 22.4293 39.2888 22.0888 39.2857 21.7365C39.2826 21.3842 39.1552 21.0462 38.929 20.7904L38.9457 22.6896ZM23.2028 13.5099C22.7314 13.4675 22.2568 13.4993 21.7947 13.604L21.7798 13.6074L21.7651 13.6112C21.5784 13.6596 21.3944 13.7183 21.2139 13.7872L23.2028 13.5099ZM24.4903 22.1822C24.4906 22.1824 24.4908 22.1827 24.4911 22.183L24.8279 22.5438L24.153 23.1735C23.9778 22.9857 23.7555 22.894 23.5394 22.8934C23.3232 22.8928 23.1007 22.9832 22.9248 23.1697L22.9128 23.1824L22.9004 23.1947L12.0991 33.8749C11.8518 34.1259 11.7271 34.4045 11.7153 34.68C11.7092 34.8333 11.7326 34.9851 11.783 35.1253C11.8332 35.2652 11.9082 35.388 11.9997 35.4877C11.9999 35.4879 12.0001 35.4881 12.0004 35.4884L14.3191 38.0001L14.32 38.001C14.4978 38.1909 14.7232 38.2842 14.9428 38.2853H14.9865C15.1807 38.2731 15.4072 38.1737 15.6388 37.9129C15.6395 37.9121 15.6402 37.9113 15.641 37.9105L25.6779 26.3917L25.6906 26.3772L25.7038 26.3632C25.7919 26.2696 25.8652 26.1546 25.9166 26.0232C25.9679 25.8916 25.9952 25.7483 25.9956 25.6021C25.9959 25.4558 25.9692 25.3124 25.9184 25.1805C25.8677 25.0488 25.7949 24.9334 25.7072 24.8393L24.4903 22.1822ZM24.1531 23.1735L25.707 24.839L24.1531 23.1735Z" stroke="#093D77" stroke-width="2"/>
</svg>
