<svg width="50" height="50" viewBox="0 0 50 50" fill="none" xmlns="http://www.w3.org/2000/svg">
<circle cx="25" cy="25" r="25" fill="#14B6B8" fill-opacity="0.17"/>
<path d="M14.2856 37.1433L14.2861 32.8571C14.2864 30.4903 16.2051 28.5718 18.5718 28.5718H27.1426M30.7142 32.1433L32.1428 33.5718L37.1428 28.5718M32.1428 14.2861C33.8764 15.2579 34.9999 16.8157 34.9999 18.5718C34.9999 20.3279 33.8764 21.8858 32.1428 22.8576M28.5714 18.5718C28.5714 20.9388 26.6526 22.8576 24.2856 22.8576C21.9187 22.8576 19.9999 20.9388 19.9999 18.5718C19.9999 16.2049 21.9187 14.2861 24.2856 14.2861C26.6526 14.2861 28.5714 16.2049 28.5714 18.5718Z" stroke="#093D77" stroke-width="2" stroke-linecap="round" stroke-linejoin="round"/>
</svg>
