<svg width="784" height="892" viewBox="0 0 784 892" fill="none" xmlns="http://www.w3.org/2000/svg">
<g clip-path="url(#clip0_6669_836)">
<path d="M235.2 84.2L156.8 129.5L22.5 207C8.6 215 0 229.9 0 245.9V401V491.5V646.6C0 662.7 8.6 677.5 22.5 685.6L369.4 885.9C383.3 894 400.5 894 414.4 885.9L705.4 717.9L761.3 685.6C775.2 677.5 783.8 662.7 783.8 646.6V582V245.9C783.8 229.8 775.2 215 761.3 206.9L414.4 6.7C400.5 -1.4 383.3 -1.4 369.4 6.7L235.2 84.2ZM313.5 491.5L235.1 536.8L224.2 543.1C194.2 560.4 156.7 538.8 156.7 504.1V491.6V401V336.5C156.7 320.4 165.3 305.6 179.2 297.5L235.1 265.2L313.5 219.9L369.3 187.6C383.2 179.5 400.4 179.5 414.3 187.6L604.5 297.4C618.4 305.5 627 320.3 627 336.4V401V491.5V504C627 538.6 589.5 560.3 559.5 543L414.3 459.2C400.4 451.1 383.2 451.1 369.3 459.2L313.5 491.5Z" fill="#14B6B8"/>
</g>
<defs>
<clipPath id="clip0_6669_836">
<rect width="784" height="892" fill="white"/>
</clipPath>
</defs>
</svg>
