<svg width="85" height="85" viewBox="0 0 85 85" fill="none" xmlns="http://www.w3.org/2000/svg">
<rect width="85" height="85" rx="29" fill="#EDFCFF"/>
<g clip-path="url(#clip0_5604_21345)">
<path d="M28 58V33C28 31.6111 28.4861 30.4306 29.4583 29.4583C30.4306 28.4861 31.6111 28 33 28H39.6667C41.0556 28 42.2361 28.4861 43.2083 29.4583C44.1806 30.4306 44.6667 31.6111 44.6667 33V36.3333H39.6667C38.75 36.3333 37.965 36.66 37.3117 37.3133C36.6583 37.9667 36.3322 38.7511 36.3333 39.6667V48C36.3333 48.9167 36.66 49.7017 37.3133 50.355C37.9667 51.0083 38.7511 51.3344 39.6667 51.3333H44.6667V58H28ZM51.7083 52.125C50.9861 52.125 50.2706 52.0278 49.5617 51.8333C48.8528 51.6389 48.1656 51.3889 47.5 51.0833L48.5417 47.9167C49.1528 48.1944 49.7222 48.41 50.25 48.5633C50.7778 48.7167 51.2639 48.7928 51.7083 48.7917C52.0417 48.7917 52.375 48.7428 52.7083 48.645C53.0417 48.5472 53.3889 48.3739 53.75 48.125C54.3889 47.6806 55.0694 47.3678 55.7917 47.1867C56.5139 47.0056 57.1528 46.9156 57.7083 46.9167C58.4028 46.9167 59.1111 47.0139 59.8333 47.2083C60.5556 47.4028 61.2361 47.6389 61.875 47.9167L60.8333 51.0833C60.1111 50.8333 59.4933 50.6317 58.98 50.4783C58.4667 50.325 58.0289 50.2489 57.6667 50.25C57.2778 50.25 56.8817 50.3128 56.4783 50.4383C56.075 50.5639 55.6794 50.7789 55.2917 51.0833C54.8194 51.4167 54.2706 51.6739 53.645 51.855C53.0194 52.0361 52.3739 52.1261 51.7083 52.125ZM44.6667 48H39.6667V39.6667H44.6667V48ZM51.6667 45.625C50.9444 45.625 50.2361 45.5278 49.5417 45.3333C48.8472 45.1389 48.1667 44.8889 47.5 44.5833L48.5417 41.4167C49.0972 41.6667 49.6461 41.875 50.1883 42.0417C50.7306 42.2083 51.2372 42.2917 51.7083 42.2917C52.0417 42.2917 52.375 42.2361 52.7083 42.125C53.0417 42.0139 53.3889 41.8472 53.75 41.625C54.4167 41.1528 55.0833 40.8333 55.75 40.6667C56.4167 40.5 57.0556 40.4167 57.6667 40.4167C58.3611 40.4167 59.0767 40.5072 59.8133 40.6883C60.55 40.8694 61.2372 41.1122 61.875 41.4167L60.8333 44.5833C60.1944 44.3611 59.6044 44.1667 59.0633 44C58.5222 43.8333 58.0567 43.75 57.6667 43.75C57.3333 43.75 56.9656 43.8128 56.5633 43.9383C56.1611 44.0639 55.7372 44.2789 55.2917 44.5833C54.7083 44.9722 54.1178 45.2433 53.52 45.3967C52.9222 45.55 52.3044 45.6261 51.6667 45.625ZM51.7083 39.125C50.9861 39.125 50.2639 39.0278 49.5417 38.8333C48.8194 38.6389 48.1389 38.3889 47.5 38.0833L48.5417 34.9167C49.2639 35.2222 49.875 35.4444 50.375 35.5833C50.875 35.7222 51.3194 35.7917 51.7083 35.7917C52.0417 35.7917 52.375 35.7433 52.7083 35.6467C53.0417 35.55 53.3889 35.3761 53.75 35.125C54.4444 34.6528 55.1183 34.3333 55.7717 34.1667C56.425 34 57.0567 33.9167 57.6667 33.9167C58.3611 33.9167 59.0556 34.0072 59.75 34.1883C60.4444 34.3694 61.1528 34.6122 61.875 34.9167L60.8333 38.0833C60.1111 37.8333 59.5 37.6317 59 37.4783C58.5 37.325 58.0556 37.2489 57.6667 37.25C57.3056 37.25 56.9372 37.3056 56.5617 37.4167C56.1861 37.5278 55.7628 37.75 55.2917 38.0833C54.7917 38.4444 54.2294 38.7083 53.605 38.875C52.9806 39.0417 52.3483 39.125 51.7083 39.125Z" fill="#093D77"/>
<path d="M58.5551 42.9999V67.4443C58.5551 68.6231 58.0869 69.7535 57.2534 70.587C56.4199 71.4205 55.2894 71.8888 54.1107 71.8888H45.2218C44.043 71.8888 42.9126 71.4205 42.0791 70.587C41.2456 69.7535 40.7773 68.6231 40.7773 67.4443V42.9999C40.7773 38.8666 43.5996 35.3777 47.444 34.3999V31.8888H42.9996V27.4443H56.3329V31.8888H51.8885V34.3999C55.7329 35.3777 58.5551 38.8666 58.5551 42.9999Z" fill="#093D77"/>
</g>
<defs>
<clipPath id="clip0_5604_21345">
<rect width="40" height="40" fill="white" transform="translate(23 23)"/>
</clipPath>
</defs>
</svg>
