                <svg
                  width="30"
                  height="30"
                  viewBox="0 0 30 30"
                  fill="none"
                  xmlns="http://www.w3.org/2000/svg"
                >
                  <path
                    d="M16.25 2.5C16.25 1.80965 15.6904 1.25 15 1.25C14.3096 1.25 13.75 1.80965 13.75 2.5V3.23224L13.3839 2.86611C12.8957 2.37796 12.1043 2.37796 11.6161 2.86611C11.128 3.35427 11.128 4.14572 11.6161 4.63389L13.75 6.76776V11.9822L10.0628 8.29502V5.2774C10.0628 4.58705 9.50315 4.0274 8.81279 4.0274C8.12244 4.0274 7.56279 4.58705 7.56279 5.2774V5.79502L7.04507 5.27731C6.55692 4.78915 5.76546 4.78915 5.27731 5.27731C4.78915 5.76546 4.78915 6.55692 5.27731 7.04507L5.7951 7.56286H5.27725C4.5869 7.56286 4.02725 8.12251 4.02725 8.81286C4.02725 9.50322 4.5869 10.0629 5.27725 10.0629H8.2951L11.9822 13.75H6.76776L4.63389 11.6161C4.14572 11.128 3.35427 11.128 2.86611 11.6161C2.37796 12.1043 2.37796 12.8957 2.86611 13.3839L3.23224 13.75H2.5C1.80965 13.75 1.25 14.3096 1.25 15C1.25 15.6904 1.80965 16.25 2.5 16.25H3.23224L2.86611 16.6161C2.37796 17.1042 2.37796 17.8957 2.86611 18.3839C3.35427 18.872 4.14572 18.872 4.63389 18.3839L6.76776 16.25H11.9822L8.2951 19.9371H5.27725C4.5869 19.9371 4.02725 20.4967 4.02725 21.1871C4.02725 21.8775 4.5869 22.4371 5.27725 22.4371H5.7951L5.27725 22.955C4.7891 23.4431 4.7891 24.2346 5.27725 24.7227C5.76541 25.2109 6.55686 25.2109 7.04502 24.7227L7.56279 24.205V24.7226C7.56279 25.413 8.12244 25.9726 8.81279 25.9726C9.50315 25.9726 10.0628 25.413 10.0628 24.7226V21.705L13.75 18.0177V23.2322L11.6161 25.3661C11.128 25.8542 11.128 26.6457 11.6161 27.1339C12.1043 27.622 12.8957 27.622 13.3839 27.1339L13.75 26.7677V27.5C13.75 28.1904 14.3096 28.75 15 28.75C15.6904 28.75 16.25 28.1904 16.25 27.5V26.7677L16.6161 27.1339C17.1042 27.622 17.8957 27.622 18.3839 27.1339C18.872 26.6457 18.872 25.8542 18.3839 25.3661L16.25 23.2322V18.0177L19.9372 21.705V24.7226C19.9372 25.413 20.4969 25.9726 21.1872 25.9726C21.8776 25.9726 22.4372 25.413 22.4372 24.7226V24.205L22.955 24.7227C23.4431 25.2109 24.2346 25.2109 24.7227 24.7227C25.2109 24.2346 25.2109 23.4431 24.7227 22.955L24.2049 22.4371H24.7227C25.4131 22.4371 25.9727 21.8775 25.9727 21.1871C25.9727 20.4967 25.4131 19.9371 24.7227 19.9371H21.7049L18.0177 16.25H23.2322L25.3661 18.3839C25.8542 18.872 26.6457 18.872 27.1339 18.3839C27.622 17.8957 27.622 17.1042 27.1339 16.6161L26.7677 16.25H27.5C28.1904 16.25 28.75 15.6904 28.75 15C28.75 14.3096 28.1904 13.75 27.5 13.75H26.7677L27.1339 13.3839C27.622 12.8957 27.622 12.1043 27.1339 11.6161C26.6457 11.128 25.8542 11.128 25.3661 11.6161L23.2322 13.75H18.0177L21.7049 10.0629H24.7227C25.4131 10.0629 25.9727 9.50322 25.9727 8.81286C25.9727 8.12251 25.4131 7.56286 24.7227 7.56286H24.2049L24.7227 7.04507C25.2109 6.55692 25.2109 5.76546 24.7227 5.27731C24.2345 4.78915 23.4431 4.78915 22.9549 5.27731L22.4372 5.79502V5.2774C22.4372 4.58705 21.8776 4.0274 21.1872 4.0274C20.4969 4.0274 19.9372 4.58705 19.9372 5.2774V8.29502L16.25 11.9822V6.76776L18.3839 4.63389C18.872 4.14572 18.872 3.35427 18.3839 2.86611C17.8957 2.37796 17.1042 2.37796 16.6161 2.86611L16.25 3.23224V2.5Z"
                    fill="white"
                  />
                </svg>