<svg width="85" height="85" viewBox="0 0 85 85" fill="none" xmlns="http://www.w3.org/2000/svg">
<rect width="85" height="85" rx="29" fill="#EDFCFF"/>
<path d="M55.9062 33H52.5703V34.6641C52.5703 36.5 51.0781 38 49.2344 38C47.3984 38 45.8984 36.5078 45.8984 34.6641V33H39.2344V34.6641C39.2344 36.5 37.7422 38 35.8984 38C34.0625 38 32.5625 36.5078 32.5625 34.6641V33H29.2422C29.2422 49.6641 27.5781 63 27.5781 63H57.5781C57.5703 63 55.9062 49.6641 55.9062 33ZM35.9062 36.3359C36.8281 36.3359 37.5703 35.5938 37.5703 34.6719V31.3359C37.5703 28.5703 39.8047 26.3359 42.5703 26.3359C45.3359 26.3359 47.5703 28.5703 47.5703 31.3359V34.6719C47.5703 35.5938 48.3125 36.3359 49.2344 36.3359C50.1562 36.3359 50.8984 35.5938 50.8984 34.6719V31.3359C50.9062 26.7344 47.1719 23 42.5703 23C37.9687 23 34.2344 26.7344 34.2344 31.3359V34.6719C34.2422 35.5859 34.9844 36.3359 35.9062 36.3359Z" fill="#093D77"/>
</svg>
