                <svg
                  width="35"
                  height="35"
                  viewBox="0 0 35 35"
                  fill="none"
                  xmlns="http://www.w3.org/2000/svg"
                >
                  <path
                    d="M33.1902 30.1722H31.9834C31.6501 30.1722 31.3799 29.902 31.3799 29.5687V28.3618H33.7937V29.5687C33.7937 29.902 33.5235 30.1722 33.1902 30.1722Z"
                    fill="white"
                  />
                  <path
                    d="M3.01739 30.1722H1.81051C1.47726 30.1722 1.20703 29.902 1.20703 29.5687V28.3618H3.6208V29.5687C3.62087 29.902 3.35064 30.1722 3.01739 30.1722Z"
                    fill="white"
                  />
                  <path
                    d="M33.7931 28.9655H1.20688C0.540313 28.9655 0 28.4252 0 27.7587V6.03452C0 5.36795 0.540313 4.82764 1.20688 4.82764H33.7931C34.4597 4.82764 35 5.36795 35 6.03452V27.7587C35 28.4252 34.4597 28.9655 33.7931 28.9655Z"
                    fill="white"
                  />
                  <path
                    d="M21.1209 27.7588H3.01739C2.01757 27.7588 1.20703 26.9483 1.20703 25.9484V7.84503C1.20703 6.84521 2.01757 6.03467 3.01739 6.03467H21.1209C22.1207 6.03467 22.9312 6.84521 22.9312 7.84503V25.9485C22.9312 26.9483 22.1207 27.7588 21.1209 27.7588Z"
                    fill="white"
                  />
                  <path
                    d="M12.0692 26.5515C17.4016 26.5515 21.7244 22.2287 21.7244 16.8964C21.7244 11.564 17.4016 7.24121 12.0692 7.24121C6.73682 7.24121 2.41406 11.564 2.41406 16.8964C2.41406 22.2287 6.73682 26.5515 12.0692 26.5515Z"
                    fill="#2C66A6"
                  />
                  <path
                    d="M12.0479 15.1516L15.6113 11.0791C15.9309 10.7137 16.4931 10.695 16.8364 11.0383L16.8378 11.0397C17.7784 11.9804 17.7271 13.5204 16.726 14.3964L13.8283 16.9319"
                    fill="white"
                  />
                  <path
                    d="M11.9762 18.6411L8.41275 22.7136C8.09311 23.079 7.53099 23.0977 7.18769 22.7544L7.18625 22.753C6.24562 21.8124 6.29689 20.2723 7.29802 19.3964L10.1958 16.8608"
                    fill="white"
                  />
                  <path
                    d="M13.7568 16.9321L17.8294 20.4956C18.1947 20.8152 18.2135 21.3773 17.8702 21.7206L17.8687 21.7221C16.9281 22.6627 15.388 22.6114 14.5121 21.6103L11.9766 18.7125"
                    fill="white"
                  />
                  <path
                    d="M10.2673 16.861L6.19483 13.2975C5.82945 12.9779 5.81072 12.4158 6.15402 12.0725L6.15546 12.071C7.09608 11.1304 8.63615 11.1817 9.51211 12.1828L12.0476 15.0805"
                    fill="white"
                  />
                  <path
                    d="M12.069 19.31C13.4021 19.31 14.4828 18.2293 14.4828 16.8962C14.4828 15.5631 13.4021 14.4824 12.069 14.4824C10.736 14.4824 9.65527 15.5631 9.65527 16.8962C9.65527 18.2293 10.736 19.31 12.069 19.31Z"
                    fill="white"
                  />
                  <path
                    d="M3.01754 8.44816C3.35083 8.44816 3.62102 8.17798 3.62102 7.84469C3.62102 7.5114 3.35083 7.24121 3.01754 7.24121C2.68425 7.24121 2.41406 7.5114 2.41406 7.84469C2.41406 8.17798 2.68425 8.44816 3.01754 8.44816Z"
                    fill="#2C66A6"
                  />
                  <path
                    d="M21.1211 8.44816C21.4543 8.44816 21.7245 8.17798 21.7245 7.84469C21.7245 7.5114 21.4543 7.24121 21.1211 7.24121C20.7878 7.24121 20.5176 7.5114 20.5176 7.84469C20.5176 8.17798 20.7878 8.44816 21.1211 8.44816Z"
                    fill="#2C66A6"
                  />
                  <path
                    d="M3.01754 26.5517C3.35083 26.5517 3.62102 26.2815 3.62102 25.9482C3.62102 25.6149 3.35083 25.3447 3.01754 25.3447C2.68425 25.3447 2.41406 25.6149 2.41406 25.9482C2.41406 26.2815 2.68425 26.5517 3.01754 26.5517Z"
                    fill="#2C66A6"
                  />
                  <path
                    d="M21.1211 26.5517C21.4543 26.5517 21.7245 26.2815 21.7245 25.9482C21.7245 25.6149 21.4543 25.3447 21.1211 25.3447C20.7878 25.3447 20.5176 25.6149 20.5176 25.9482C20.5176 26.2815 20.7878 26.5517 21.1211 26.5517Z"
                    fill="#2C66A6"
                  />
                </svg>