                <svg
                  width="30"
                  height="30"
                  viewBox="0 0 30 30"
                  fill="none"
                  xmlns="http://www.w3.org/2000/svg"
                >
                  <g clip-path="url(#clip0_5604_21296)">
                    <path
                      d="M28.5 4.5H1.49998C0.673025 4.5 0 5.17297 0 5.99998V16C0 16.827 0.673025 17.5 1.49998 17.5H28.5C29.327 17.5 29.9999 16.8269 29.9999 16V5.99998C30 5.17297 29.327 4.5 28.5 4.5ZM13 7.99999H17C17.2766 7.99999 17.5 8.2235 17.5 8.49996C17.5 8.77643 17.2765 8.99994 17 8.99994H13C12.7235 8.99994 12.5 8.77643 12.5 8.49996C12.5 8.2235 12.7235 7.99999 13 7.99999ZM27.5 15.4999H2.49999C2.22346 15.4999 2.00001 15.2764 2.00001 15C2.00001 14.7234 2.22352 14.5 2.49999 14.5H27.5C27.7765 14.5 27.9999 14.7235 27.9999 15C28 15.2765 27.7765 15.4999 27.5 15.4999ZM27.5 13.5H2.49999C2.22346 13.5 2.00001 13.2765 2.00001 13C2.00001 12.7235 2.22352 12.5 2.49999 12.5H27.5C27.7765 12.5 27.9999 12.7236 27.9999 13C28 13.2765 27.7765 13.5 27.5 13.5Z"
                      fill="white"
                    />
                    <path
                      d="M19 7.5C20.7411 7.5 21.5 6.7675 21.5 5C21.5 6.7675 22.2536 7.5 24 7.5C22.2536 7.5 21.5 8.25361 21.5 10C21.5 8.25361 20.7411 7.5 19 7.5Z"
                      stroke="#13D2D5"
                      stroke-linejoin="round"
                    />
                    <path
                      d="M23 11.5C24.7411 11.5 25.5 10.7675 25.5 9C25.5 10.7675 26.2536 11.5 28 11.5C26.2536 11.5 25.5 12.2536 25.5 14C25.5 12.2536 24.7411 11.5 23 11.5Z"
                      stroke="#13D2D5"
                      stroke-linejoin="round"
                    />
                  </g>
                  <defs>
                    <clipPath id="clip0_5604_21296">
                      <rect width="30" height="30" fill="white" />
                    </clipPath>
                  </defs>
                </svg>