                <svg
                  width="30"
                  height="30"
                  viewBox="0 0 30 30"
                  fill="none"
                  xmlns="http://www.w3.org/2000/svg"
                >
                  <path
                    d="M14.1449 1.23047L13.2531 3.2666C12.7915 3.29477 12.3322 3.3529 11.8781 3.44063L10.5139 1.67906L9.04354 2.17898L9.03621 4.4202C8.41336 4.74035 7.81646 5.12742 7.25262 5.57918L5.17459 4.64355L4.1107 5.77518L5.17453 7.79297C4.83512 8.27682 4.53685 8.78826 4.28285 9.32191L2.00133 9.38414L1.53809 10.8654L3.38016 12.2223C3.29197 12.7719 3.24891 13.3273 3.24645 13.8831L1.20117 14.9194L1.41539 16.4575L3.66029 16.897C3.79449 17.3668 3.9609 17.8269 4.15834 18.2739L2.67891 20.1105L3.50467 21.4252L5.80447 20.8869C5.95 21.0581 6.10082 21.2248 6.2567 21.3867C6.58228 21.7234 6.92909 22.039 7.29498 22.3315L6.8482 24.635L8.19223 25.4113L9.94816 23.8824C10.4506 24.0844 10.9679 24.2472 11.4954 24.3694L12.0686 26.6198L13.6158 26.7462L14.546 24.6239C15.1887 24.5852 15.8294 24.4891 16.4594 24.3346L17.9371 26.0467L19.3781 25.4699L19.3359 24.6019L15.9723 22.0513C14.9931 22.2989 13.9777 22.3652 12.9803 22.2527C11.1197 22.0429 9.3317 21.2027 7.9285 19.7515C4.72119 16.4343 4.81289 11.1576 8.12994 7.95041C9.73658 6.39691 11.8032 5.60883 13.8721 5.5865C16.0747 5.56272 18.2792 6.40658 19.9329 8.11699C22.6245 10.9009 22.9913 15.0888 21.0792 18.2593L22.9524 19.6802C23.1853 19.3149 23.3956 18.9358 23.5823 18.5449L25.8472 18.4826L26.3105 17.0014L24.4813 15.6537C24.5696 15.0996 24.6142 14.5394 24.6149 13.9783L26.6474 12.9456L26.4333 11.4075L24.1903 10.968C24.0016 10.3183 23.7514 9.68804 23.4432 9.08572L24.7798 7.23451L23.8862 5.96555L21.6854 6.60457C21.6578 6.57527 21.6309 6.54557 21.6029 6.51668C21.2565 6.15825 20.8858 5.82418 20.4933 5.51684L20.9145 3.34154L19.5703 2.56523L17.9004 4.01918C17.3598 3.80162 16.8046 3.63229 16.2414 3.50648L15.694 1.3568L14.1449 1.23047ZM10.7373 10.2246C10.1312 10.2315 9.53045 10.3804 8.97949 10.6512L11.6291 12.6618C12.4304 13.2697 12.6577 14.4251 12.0428 15.2362C11.4277 16.0477 10.2465 16.1697 9.43359 15.5531L6.78586 13.5444C6.51475 14.9971 7.02814 16.5363 8.28551 17.4903C9.41315 18.3456 10.8604 18.5057 12.107 18.0579L12.3871 17.9572L12.6232 18.1366L20.5445 24.1462L20.7806 24.3257L20.7605 24.6223C20.6646 25.9436 21.2052 27.2948 22.3334 28.1507C23.5908 29.1046 25.2129 29.1837 26.5392 28.5315L23.8916 26.5229C23.0787 25.9062 22.879 24.7355 23.4943 23.9246C24.1096 23.1137 25.2836 23.022 26.0852 23.6298L28.7329 25.6386C29.0034 24.1864 28.4921 22.6464 27.2351 21.6926C26.1035 20.8338 24.6677 20.6636 23.4284 21.1048L23.15 21.2037L22.9139 21.0242L14.9926 15.0147L14.7565 14.8352L14.7766 14.5405C14.8675 13.2288 14.3167 11.8924 13.1854 11.034C12.4504 10.4764 11.5904 10.2149 10.7374 10.2247L10.7373 10.2246ZM13.2898 15.5127L22.8919 22.7985L22.2308 23.6719L12.627 16.3843L13.2898 15.5127Z"
                    fill="white"
                  />
                </svg>