<svg width="85" height="85" viewBox="0 0 85 85" fill="none" xmlns="http://www.w3.org/2000/svg">
<rect width="85" height="85" rx="29" fill="#EDFCFF"/>
<path d="M38 59.5833V55.4167C35.0556 54.3889 32.6528 52.5906 30.7917 50.0217C28.9306 47.4528 28 44.5289 28 41.25C28 39.1667 28.3961 37.2156 29.1883 35.3967C29.9806 33.5778 31.0494 31.9944 32.395 30.6467C33.7428 29.2989 35.3261 28.2294 37.145 27.4383C38.9639 26.6472 40.9017 26.2511 42.9583 26.25C45.0139 26.25 46.9583 26.6461 48.7917 27.4383C50.625 28.2306 52.2222 29.3 53.5833 30.6467C54.9444 31.9933 56.0211 33.5767 56.8133 35.3967C57.6056 37.2167 58.0011 39.1678 58 41.25C58 44.5278 57.0622 47.4378 55.1867 49.98C53.3111 52.5222 50.9156 54.3206 48 55.375V59.5833H44.6667V56.1667C44.3889 56.2222 44.1111 56.25 43.8333 56.25H42.9583C42.6806 56.25 42.4094 56.2433 42.145 56.23C41.8806 56.2167 41.61 56.1956 41.3333 56.1667V59.5833H38ZM36.3333 38H49.6667V34.6667H36.3333V38ZM41.75 51.3333L46.75 46.3333L44.6667 44.25L46.75 42.1667L44.25 39.6667L39.25 44.6667L41.3333 46.75L39.25 48.8333L41.75 51.3333Z" fill="#093D77"/>
</svg>
