<svg width="85" height="85" viewBox="0 0 85 85" fill="none" xmlns="http://www.w3.org/2000/svg">
<rect width="85" height="85" rx="29" fill="#EDFCFF"/>
<path d="M57.2614 56.1094L49.3708 34.4062L50.563 31.125H51.7505C52.2478 31.125 52.7247 30.9275 53.0763 30.5758C53.4279 30.2242 53.6255 29.7473 53.6255 29.25C53.6255 28.7527 53.4279 28.2758 53.0763 27.9242C52.7247 27.5725 52.2478 27.375 51.7505 27.375H36.7505C36.2705 27.3784 35.8102 27.5657 35.4643 27.8984C35.1183 28.231 34.9131 28.6837 34.8908 29.1631C34.8686 29.6425 35.0311 30.1122 35.3448 30.4755C35.6585 30.8387 36.0995 31.0678 36.577 31.1156L27.4895 56.1156C27.32 56.5827 27.3427 57.0979 27.5527 57.5482C27.7628 57.9985 28.143 58.347 28.6099 58.5172C28.8154 58.5907 29.0322 58.6272 29.2505 58.625C29.6354 58.6251 30.0111 58.5066 30.3264 58.2858C30.6417 58.065 30.8814 57.7524 31.013 57.3906L32.3755 53.625H38.3911L37.488 56.1094C37.3185 56.5766 37.3414 57.0921 37.5518 57.5424C37.7622 57.9927 38.1427 58.3411 38.6099 58.5109C38.8149 58.5867 39.0319 58.6253 39.2505 58.625C39.6354 58.6251 40.0111 58.5066 40.3264 58.2858C40.6417 58.065 40.8814 57.7524 41.013 57.3906L43.7458 49.875H51.0052L53.738 57.3906C53.8695 57.7524 54.1092 58.065 54.4245 58.2858C54.7399 58.5066 55.1155 58.6251 55.5005 58.625C55.7191 58.6252 55.936 58.5865 56.1411 58.5109C56.6079 58.3408 56.9881 57.9923 57.1982 57.542C57.4083 57.0917 57.431 56.5764 57.2614 56.1094ZM42.4833 42.375H36.4724L37.8442 38.625H43.8536L42.4833 42.375ZM45.2099 34.875H39.2005L40.5645 31.125H46.5739L45.2099 34.875ZM33.7458 49.875L35.1099 46.125H41.1255L39.7614 49.875H33.7458ZM45.1099 46.125L47.3755 39.8922L49.6411 46.125H45.1099Z" fill="#093D77"/>
</svg>
