<svg width="85" height="85" viewBox="0 0 85 85" fill="none" xmlns="http://www.w3.org/2000/svg">
<rect width="85" height="85" rx="29" fill="#EDFCFF"/>
<path d="M48.0003 44.6668V31.3335C48.0003 28.5668 45.767 26.3335 43.0003 26.3335C40.2337 26.3335 38.0003 28.5668 38.0003 31.3335V44.6668C35.9837 46.1835 34.667 48.6168 34.667 51.3335C34.667 55.9335 38.4003 59.6668 43.0003 59.6668C47.6003 59.6668 51.3337 55.9335 51.3337 51.3335C51.3337 48.6168 50.017 46.1835 48.0003 44.6668ZM41.3337 41.3335V31.3335C41.3337 30.4168 42.0837 29.6668 43.0003 29.6668C43.917 29.6668 44.667 30.4168 44.667 31.3335V33.0002H43.0003V34.6668H44.667V38.0002H43.0003V39.6668H44.667V41.3335H41.3337Z" fill="#093D77"/>
</svg>
