<svg width="85" height="85" viewBox="0 0 85 85" fill="none" xmlns="http://www.w3.org/2000/svg">
<rect width="85" height="85" rx="29" fill="#EDFCFF"/>
<path d="M31 57V32C31 30.6739 31.5268 29.4021 32.4645 28.4645C33.4021 27.5268 34.6739 27 36 27H46C47.3261 27 48.5979 27.5268 49.5355 28.4645C50.4732 29.4021 51 30.6739 51 32V50C51 50.7956 51.3161 51.5587 51.8787 52.1213C52.4413 52.6839 53.2044 53 54 53C54.7956 53 55.5587 52.6839 56.1213 52.1213C56.6839 51.5587 57 50.7956 57 50V41.334C57 40.6849 56.7895 40.0533 56.4 39.534L54.2 36.6C54.0409 36.3878 53.9725 36.1211 54.01 35.8586C54.0476 35.596 54.1878 35.3591 54.4 35.2C54.6122 35.0409 54.8789 34.9725 55.1414 35.0101C55.404 35.0476 55.6409 35.1878 55.8 35.4L58 38.334C58.65 39.198 59 40.252 59 41.334V50C59 50.9286 58.7414 51.8388 58.2533 52.6287C57.7651 53.4185 57.0666 54.0569 56.2361 54.4721C55.4055 54.8874 54.4758 55.0632 53.551 54.9798C52.6262 54.8964 51.7428 54.5571 51 54V57H52C52.2652 57 52.5196 57.1054 52.7071 57.2929C52.8946 57.4804 53 57.7348 53 58C53 58.2652 52.8946 58.5196 52.7071 58.7071C52.5196 58.8946 52.2652 59 52 59H30C29.7348 59 29.4804 58.8946 29.2929 58.7071C29.1054 58.5196 29 58.2652 29 58C29 57.7348 29.1054 57.4804 29.2929 57.2929C29.4804 57.1054 29.7348 57 30 57H31ZM36 31C35.7348 31 35.4804 31.1054 35.2929 31.2929C35.1054 31.4804 35 31.7348 35 32V38C35 38.2652 35.1054 38.5196 35.2929 38.7071C35.4804 38.8946 35.7348 39 36 39H46C46.2652 39 46.5196 38.8946 46.7071 38.7071C46.8946 38.5196 47 38.2652 47 38V32C47 31.7348 46.8946 31.4804 46.7071 31.2929C46.5196 31.1054 46.2652 31 46 31H36Z" fill="#093D77"/>
</svg>
