<svg width="220" height="220" viewBox="0 0 220 220" fill="none" xmlns="http://www.w3.org/2000/svg">
<rect x="0.5" y="0.5" width="219" height="219" rx="19.5" fill="white" stroke="#093D77"/>
<path d="M93.0796 172L99.4696 152.38H103.55L109.94 172H106.28L103.28 161.56C102.96 160.52 102.65 159.45 102.35 158.35C102.07 157.25 101.79 156.16 101.51 155.08H101.39C101.13 156.18 100.85 157.28 100.55 158.38C100.27 159.46 99.9696 160.52 99.6496 161.56L96.6196 172H93.0796ZM96.8596 166.69V163.96H106.1V166.69H96.8596ZM119.955 172.36C118.295 172.36 116.785 171.97 115.425 171.19C114.085 170.41 113.015 169.27 112.215 167.77C111.435 166.25 111.045 164.41 111.045 162.25C111.045 160.65 111.275 159.22 111.735 157.96C112.195 156.68 112.835 155.6 113.655 154.72C114.495 153.84 115.455 153.17 116.535 152.71C117.615 152.25 118.775 152.02 120.015 152.02C121.255 152.02 122.355 152.27 123.315 152.77C124.275 153.25 125.065 153.83 125.685 154.51L123.825 156.64C123.325 156.12 122.765 155.73 122.145 155.47C121.545 155.19 120.865 155.05 120.105 155.05C119.065 155.05 118.125 155.34 117.285 155.92C116.465 156.5 115.815 157.32 115.335 158.38C114.855 159.44 114.615 160.7 114.615 162.16C114.615 163.66 114.845 164.95 115.305 166.03C115.765 167.09 116.415 167.91 117.255 168.49C118.095 169.05 119.075 169.33 120.195 169.33C121.035 169.33 121.785 169.16 122.445 168.82C123.105 168.48 123.705 168.03 124.245 167.47L126.015 169.54C125.215 170.46 124.315 171.16 123.315 171.64C122.315 172.12 121.195 172.36 119.955 172.36Z" fill="black"/>
<path d="M152.716 67.1798C152.717 66.5578 152.596 65.9418 152.358 65.3669C152.12 64.7921 151.772 64.2698 151.332 63.83C150.892 63.3902 150.37 63.0416 149.795 62.804C149.22 62.5665 148.604 62.4448 147.982 62.4458H72.0362C71.4133 62.4445 70.7962 62.5659 70.2203 62.8031C69.6443 63.0404 69.1207 63.3887 68.6794 63.8283C68.2382 64.268 67.8878 64.7902 67.6484 65.3653C67.409 65.9403 67.2852 66.5569 67.2842 67.1798V87.4918H152.716V67.1798Z" fill="#14B6B8"/>
<g opacity="0.8">
<path d="M67.2842 87.4922V89.6002C67.2842 91.6242 68.0842 93.7102 70.0242 94.9902C70.9062 95.4622 72.2242 95.8842 74.1482 95.8842H74.5682H145.452H145.87C147.786 95.8842 149.104 95.4622 149.986 94.9902C151.916 93.7102 152.716 91.6242 152.716 89.6002V87.4922H67.2842Z" fill="#14B6B8"/>
</g>
<path d="M150.788 84.0201C150.788 83.5719 150.609 83.1421 150.293 82.825C149.976 82.5079 149.546 82.3292 149.098 82.3281H70.8981C70.4496 82.3292 70.0199 82.5078 69.7028 82.8249C69.3857 83.142 69.2071 83.5717 69.2061 84.0201L69.4001 87.4921H150.6L150.788 84.0201Z" fill="#05A0A2"/>
<path d="M70.6139 93.9122C71.0674 94.1427 71.5714 94.2562 72.0799 94.2422C72.1319 94.2422 72.1819 94.2562 72.2299 94.2562H147.772C147.82 94.2562 147.868 94.2422 147.92 94.2422C148.428 94.2579 148.932 94.1465 149.386 93.9182C149.696 93.7059 149.948 93.4189 150.118 93.0838C150.288 92.7486 150.372 92.3759 150.36 92.0002L150.6 87.4922H69.3999L69.6419 92.0002C69.6307 92.3748 69.7138 92.7462 69.8837 93.0803C70.0535 93.4144 70.3046 93.7005 70.6139 93.9122Z" fill="#05A0A2"/>
<path d="M150.04 88.7178C150.04 88.8066 150.005 88.8917 149.943 88.9547C149.88 89.0176 149.795 89.0533 149.706 89.0538H70.2202C70.1315 89.0533 70.0465 89.0176 69.9839 88.9547C69.9214 88.8917 69.8862 88.8066 69.8862 88.7178C69.8862 88.6739 69.8949 88.6305 69.9117 88.59C69.9284 88.5494 69.953 88.5126 69.9841 88.4816C70.0151 88.4506 70.0519 88.426 70.0924 88.4092C70.1329 88.3924 70.1764 88.3838 70.2202 88.3838H149.706C149.75 88.3838 149.794 88.3924 149.834 88.4092C149.875 88.426 149.911 88.4506 149.942 88.4816C149.973 88.5126 149.998 88.5494 150.015 88.59C150.032 88.6305 150.04 88.6739 150.04 88.7178Z" fill="#FFA31D"/>
<path d="M149.556 90.168C149.556 90.2118 149.547 90.2553 149.53 90.2958C149.514 90.3363 149.489 90.3731 149.458 90.4042C149.427 90.4352 149.39 90.4598 149.35 90.4766C149.309 90.4933 149.266 90.502 149.222 90.502H70.8218C70.7779 90.502 70.7345 90.4933 70.694 90.4766C70.6535 90.4598 70.6166 90.4352 70.5856 90.4042C70.5546 90.3731 70.53 90.3363 70.5132 90.2958C70.4964 90.2553 70.4878 90.2118 70.4878 90.168C70.4878 90.0794 70.523 89.9944 70.5856 89.9318C70.6483 89.8692 70.7332 89.834 70.8218 89.834H149.222C149.31 89.834 149.395 89.8692 149.458 89.9318C149.521 89.9944 149.556 90.0794 149.556 90.168Z" fill="#FFA31D"/>
<path d="M149.222 91.5801C149.222 91.6687 149.187 91.7536 149.124 91.8163C149.061 91.8789 148.976 91.9141 148.888 91.9141H71.1118C71.068 91.9141 71.0245 91.9055 70.984 91.8887C70.9435 91.8719 70.9067 91.8473 70.8757 91.8163C70.8446 91.7853 70.82 91.7484 70.8033 91.7079C70.7865 91.6674 70.7778 91.624 70.7778 91.5801C70.7778 91.5362 70.7865 91.4928 70.8033 91.4523C70.82 91.4118 70.8446 91.3749 70.8757 91.3439C70.9067 91.3129 70.9435 91.2883 70.984 91.2715C71.0245 91.2547 71.068 91.2461 71.1118 91.2461H148.888C148.976 91.2461 149.061 91.2813 149.124 91.3439C149.187 91.4066 149.222 91.4915 149.222 91.5801Z" fill="#FFA31D"/>
<path d="M149 93C149 93.044 148.991 93.0876 148.974 93.1283C148.957 93.1689 148.933 93.2059 148.901 93.2369C148.87 93.2679 148.833 93.2925 148.792 93.3092C148.752 93.3258 148.708 93.3343 148.664 93.334H71.336C71.292 93.3343 71.2483 93.3258 71.2076 93.3092C71.1668 93.2925 71.1298 93.2679 71.0985 93.2369C71.0673 93.2059 71.0425 93.1689 71.0256 93.1283C71.0087 93.0876 71 93.044 71 93C71.0005 92.9113 71.0362 92.8263 71.0991 92.7637C71.1621 92.7011 71.2472 92.666 71.336 92.666H148.664C148.753 92.666 148.838 92.7011 148.901 92.7637C148.964 92.8263 148.999 92.9113 149 93Z" fill="#FFA31D"/>
<path d="M121.612 79.8C121.612 80.0562 121.51 80.3019 121.329 80.4831C121.148 80.6642 120.902 80.766 120.646 80.766H99.3542C99.098 80.766 98.8523 80.6642 98.6711 80.4831C98.49 80.3019 98.3882 80.0562 98.3882 79.8C98.3882 79.6731 98.4132 79.5475 98.4617 79.4303C98.5103 79.3131 98.5814 79.2066 98.6711 79.1169C98.7608 79.0272 98.8673 78.9561 98.9845 78.9075C99.1017 78.859 99.2273 78.834 99.3542 78.834H120.646C120.773 78.834 120.899 78.859 121.016 78.9075C121.133 78.9561 121.24 79.0272 121.329 79.1169C121.419 79.2066 121.49 79.3131 121.539 79.4303C121.587 79.5475 121.612 79.6731 121.612 79.8Z" fill="#05A0A2"/>
<path d="M148.888 71.1822L148.382 70.9002L148.758 70.7862C148.768 70.7835 148.778 70.7787 148.786 70.7721C148.795 70.7655 148.802 70.7573 148.807 70.7479C148.812 70.7385 148.815 70.7282 148.816 70.7176C148.817 70.707 148.815 70.6963 148.812 70.6862C148.808 70.6696 148.799 70.6549 148.785 70.6444C148.772 70.6339 148.755 70.6282 148.738 70.6282C148.731 70.6263 148.723 70.6263 148.716 70.6282L148.186 70.7882L147.854 70.6042L148.478 70.4222C148.499 70.4162 148.516 70.4023 148.526 70.3836C148.537 70.3649 148.54 70.3429 148.534 70.3222C148.529 70.3058 148.519 70.2914 148.505 70.281C148.492 70.2706 148.475 70.2647 148.458 70.2642H148.434L147.656 70.4902L146.456 69.8202L147.302 69.7282C147.323 69.7248 147.342 69.7137 147.355 69.6971C147.369 69.6804 147.375 69.6595 147.374 69.6382C147.371 69.6175 147.36 69.5988 147.344 69.5857C147.328 69.5727 147.307 69.5665 147.286 69.5682L146.326 69.6722L147.492 68.8982L148.208 69.0982H148.232C148.249 69.0982 148.266 69.0925 148.279 69.082C148.293 69.0715 148.302 69.0568 148.306 69.0402C148.314 69.0203 148.314 68.9981 148.306 68.9782C148.301 68.9695 148.295 68.9618 148.287 68.9556C148.279 68.9494 148.27 68.9449 148.26 68.9422L147.678 68.7842L147.99 68.5842L148.496 68.7162C148.503 68.7182 148.51 68.7182 148.516 68.7162C148.533 68.7158 148.55 68.7097 148.563 68.6988C148.577 68.688 148.586 68.673 148.59 68.6562C148.595 68.6468 148.597 68.6366 148.597 68.6262C148.597 68.6158 148.595 68.6056 148.59 68.5962C148.58 68.5778 148.562 68.5642 148.542 68.5582L148.174 68.4622L148.666 68.1362C148.684 68.1244 148.696 68.106 148.701 68.0851C148.705 68.0642 148.701 68.0423 148.69 68.0242C148.684 68.013 148.674 68.0038 148.663 67.9974C148.652 67.9911 148.639 67.9879 148.626 67.9882C148.61 67.9886 148.595 67.9934 148.582 68.0022L148.094 68.3262L148.172 67.9262C148.174 67.9158 148.174 67.9051 148.172 67.8948C148.17 67.8844 148.166 67.8746 148.16 67.8659C148.154 67.8571 148.146 67.8496 148.137 67.8439C148.128 67.8381 148.118 67.8341 148.108 67.8322H148.094C148.075 67.8327 148.057 67.8394 148.043 67.8514C148.028 67.8634 148.018 67.8798 148.014 67.8982L147.906 68.4442L147.588 68.6442L147.724 68.0062C147.728 67.9855 147.724 67.9641 147.712 67.9465C147.701 67.9288 147.683 67.9165 147.662 67.9122H147.648C147.629 67.9118 147.611 67.918 147.596 67.9297C147.582 67.9414 147.572 67.9579 147.568 67.9762L147.4 68.7762L146.346 69.4742L146.758 68.7042C146.763 68.6945 146.765 68.6839 146.765 68.6732C146.765 68.6625 146.763 68.6519 146.758 68.6422C146.752 68.6224 146.738 68.6059 146.72 68.5962C146.711 68.5911 146.701 68.5879 146.69 68.5868C146.679 68.5857 146.669 68.5868 146.659 68.59C146.649 68.5932 146.639 68.5984 146.631 68.6053C146.623 68.6122 146.617 68.6207 146.612 68.6302L146.186 69.4302L146.164 68.0022L146.718 67.4862C146.733 67.4709 146.741 67.4505 146.741 67.4292C146.741 67.4079 146.733 67.3875 146.718 67.3722C146.711 67.3646 146.702 67.3585 146.693 67.3544C146.683 67.3502 146.673 67.3481 146.662 67.3482C146.652 67.3477 146.641 67.3495 146.632 67.3533C146.622 67.357 146.613 67.3628 146.606 67.3702L146.154 67.8002V67.4242L146.544 67.0562C146.559 67.0412 146.568 67.0214 146.57 67.0002C146.57 66.9788 146.562 66.9582 146.548 66.9422C146.541 66.9338 146.532 66.9272 146.522 66.9227C146.512 66.9182 146.501 66.916 146.49 66.9162C146.47 66.9163 146.451 66.9242 146.436 66.9382L146.144 67.2002V66.5902C146.143 66.5695 146.134 66.5499 146.119 66.5355C146.105 66.521 146.085 66.5127 146.064 66.5122C146.043 66.5137 146.024 66.5229 146.009 66.5381C145.995 66.5533 145.987 66.5733 145.986 66.5942L145.996 67.1942L145.714 66.9262C145.699 66.9127 145.68 66.9055 145.66 66.9062C145.649 66.9061 145.639 66.9082 145.629 66.9123C145.619 66.9164 145.61 66.9225 145.602 66.9302C145.594 66.9378 145.588 66.9469 145.584 66.9568C145.58 66.9668 145.578 66.9774 145.578 66.9882C145.578 66.999 145.58 67.0096 145.584 67.0196C145.588 67.0296 145.594 67.0386 145.602 67.0462L146.002 67.4202V67.8022L145.54 67.3542C145.533 67.3472 145.525 67.3417 145.516 67.3379C145.507 67.3341 145.498 67.3322 145.488 67.3322C145.465 67.3326 145.444 67.342 145.428 67.3582C145.413 67.3735 145.405 67.3939 145.405 67.4152C145.405 67.4365 145.413 67.4569 145.428 67.4722L146.002 68.0302L146.024 69.4302L145.556 68.6742C145.549 68.6625 145.539 68.6528 145.527 68.6461C145.515 68.6394 145.502 68.636 145.488 68.6362C145.474 68.6362 145.46 68.6403 145.448 68.6482C145.43 68.6594 145.417 68.6772 145.412 68.6978C145.407 68.7185 145.411 68.7402 145.422 68.7582L145.896 69.5242L144.768 68.8982L144.608 68.1602C144.604 68.1427 144.595 68.1271 144.581 68.1158C144.567 68.1045 144.55 68.0983 144.532 68.0982H144.514C144.504 68.1003 144.494 68.1045 144.485 68.1105C144.476 68.1166 144.469 68.1243 144.463 68.1333C144.458 68.1423 144.454 68.1523 144.452 68.1628C144.451 68.1733 144.451 68.184 144.454 68.1942L144.58 68.7942L144.256 68.6142L144.138 68.0922C144.135 68.0749 144.126 68.0593 144.112 68.0479C144.099 68.0366 144.082 68.0304 144.064 68.0302H144.046C144.035 68.0325 144.025 68.037 144.016 68.0436C144.007 68.0501 144 68.0585 143.994 68.0682C143.989 68.0767 143.985 68.0862 143.983 68.0962C143.981 68.1061 143.982 68.1164 143.984 68.1262L144.07 68.5082L143.534 68.2002C143.522 68.1966 143.51 68.1966 143.498 68.2002C143.485 68.1999 143.473 68.2027 143.461 68.2083C143.45 68.2138 143.44 68.222 143.432 68.2322C143.425 68.2424 143.42 68.2542 143.418 68.2667C143.415 68.2792 143.416 68.2921 143.42 68.3042C143.426 68.324 143.44 68.3405 143.458 68.3502L143.972 68.6362L143.6 68.7482C143.581 68.7541 143.565 68.7663 143.555 68.7828C143.544 68.7993 143.539 68.819 143.542 68.8385C143.544 68.858 143.553 68.8761 143.568 68.8895C143.582 68.903 143.6 68.911 143.62 68.9122C143.62 68.9122 143.632 68.9122 143.64 68.9122L144.162 68.7542L144.496 68.9362L143.876 69.1142C143.856 69.1211 143.839 69.1355 143.829 69.1545C143.819 69.1734 143.816 69.1955 143.822 69.2162C143.827 69.2328 143.837 69.2474 143.85 69.2578C143.864 69.2683 143.881 69.274 143.898 69.2742H143.918L144.688 69.0502L145.872 69.7062L144.916 69.7342C144.894 69.7362 144.874 69.7464 144.859 69.7626C144.844 69.7789 144.836 69.8002 144.836 69.8222C144.837 69.8434 144.846 69.8635 144.861 69.8784C144.877 69.8932 144.897 69.9017 144.918 69.9022L145.76 69.8742L144.6 70.6342L143.876 70.4342H143.856C143.836 70.4321 143.815 70.438 143.799 70.4505C143.783 70.4631 143.772 70.4815 143.769 70.5018C143.766 70.5221 143.771 70.5428 143.782 70.5596C143.794 70.5765 143.812 70.5881 143.832 70.5922L144.42 70.7502L144.108 70.9502L143.594 70.8182H143.576C143.558 70.8181 143.541 70.8239 143.527 70.8348C143.513 70.8457 143.503 70.8609 143.498 70.8782C143.494 70.8876 143.491 70.8978 143.491 70.9082C143.491 70.9186 143.494 70.9288 143.498 70.9382C143.509 70.9566 143.526 70.9702 143.546 70.9762L143.92 71.0722L143.414 71.4082C143.396 71.4201 143.384 71.4384 143.379 71.4593C143.375 71.4802 143.379 71.5021 143.39 71.5202C143.397 71.5314 143.408 71.5406 143.419 71.5469C143.431 71.5532 143.445 71.5564 143.458 71.5562C143.474 71.5553 143.489 71.5505 143.502 71.5422L144 71.2202L143.924 71.6042C143.922 71.6143 143.921 71.6248 143.923 71.635C143.925 71.6453 143.929 71.6551 143.934 71.6638C143.94 71.6726 143.947 71.6801 143.956 71.686C143.964 71.6919 143.974 71.6961 143.984 71.6982H144.004C144.022 71.6975 144.039 71.6905 144.053 71.6785C144.066 71.6664 144.075 71.6501 144.078 71.6322L144.188 71.0942L144.506 70.8822L144.374 71.5162C144.37 71.537 144.374 71.5586 144.386 71.5762C144.391 71.585 144.398 71.5926 144.406 71.5985C144.415 71.6044 144.424 71.6084 144.434 71.6102H144.454C144.472 71.6086 144.489 71.6013 144.503 71.5895C144.516 71.5776 144.526 71.5618 144.53 71.5442L144.694 70.7562L145.894 69.9562L145.466 70.7462C145.458 70.7661 145.458 70.7883 145.466 70.8082C145.469 70.8185 145.474 70.828 145.481 70.8363C145.488 70.8445 145.497 70.8513 145.506 70.8562C145.516 70.8593 145.528 70.8593 145.538 70.8562C145.552 70.8561 145.566 70.8522 145.579 70.8448C145.591 70.8374 145.601 70.8268 145.608 70.8142L146.032 70.0282L146.052 71.3562L145.504 71.8662C145.496 71.8738 145.49 71.8829 145.486 71.8928C145.482 71.9028 145.48 71.9134 145.48 71.9242C145.48 71.935 145.482 71.9456 145.486 71.9556C145.49 71.9656 145.496 71.9746 145.504 71.9822C145.511 71.9901 145.52 71.9963 145.529 72.0004C145.539 72.0046 145.55 72.0065 145.56 72.0062C145.574 72.0074 145.587 72.0054 145.6 72.0002L146.046 71.5862V71.9622L145.662 72.3262C145.647 72.3415 145.639 72.3619 145.639 72.3832C145.639 72.4045 145.647 72.4249 145.662 72.4402C145.67 72.4479 145.679 72.454 145.689 72.4581C145.699 72.4623 145.709 72.4643 145.72 72.4642C145.741 72.4639 145.761 72.456 145.776 72.4422L146.052 72.1782L146.062 72.7782C146.062 72.7886 146.064 72.799 146.067 72.8087C146.071 72.8184 146.077 72.8272 146.084 72.8347C146.091 72.8421 146.1 72.848 146.11 72.8521C146.119 72.8561 146.13 72.8582 146.14 72.8582C146.151 72.8577 146.161 72.8551 146.171 72.8505C146.181 72.8459 146.19 72.8394 146.197 72.8314C146.204 72.8234 146.21 72.8141 146.213 72.8039C146.217 72.7938 146.219 72.783 146.218 72.7722V72.1862L146.504 72.4562C146.51 72.4636 146.518 72.4694 146.527 72.4733C146.537 72.4771 146.546 72.4788 146.556 72.4782C146.579 72.4774 146.6 72.4681 146.616 72.4522C146.623 72.4445 146.629 72.4353 146.632 72.4253C146.636 72.4153 146.637 72.4047 146.636 72.3942C146.636 72.3837 146.634 72.3734 146.63 72.3638C146.626 72.3541 146.62 72.3455 146.612 72.3382L146.212 71.9582V71.5782L146.676 72.0262C146.683 72.0331 146.692 72.0384 146.701 72.0418C146.71 72.0453 146.72 72.0468 146.73 72.0462C146.741 72.0463 146.751 72.0442 146.761 72.0401C146.77 72.0359 146.779 72.0299 146.786 72.0222C146.794 72.0158 146.8 72.0078 146.804 71.9989C146.808 71.9899 146.81 71.9801 146.81 71.9702C146.809 71.9483 146.8 71.9275 146.784 71.9122L146.2 71.3502L146.18 70.0222L146.69 70.8002C146.697 70.8113 146.707 70.8204 146.718 70.8267C146.73 70.833 146.743 70.8363 146.756 70.8362C146.771 70.8349 146.785 70.8301 146.798 70.8222C146.816 70.8103 146.828 70.7922 146.833 70.7714C146.838 70.7505 146.835 70.7287 146.824 70.7102L146.322 69.9422L147.596 70.6502L147.754 71.3802C147.758 71.3975 147.768 71.4127 147.783 71.4233C147.797 71.4339 147.814 71.4392 147.832 71.4382H147.848C147.858 71.4366 147.868 71.4328 147.877 71.4269C147.886 71.421 147.893 71.4133 147.898 71.4042C147.904 71.3955 147.908 71.3857 147.91 71.3753C147.911 71.3649 147.911 71.3543 147.908 71.3442L147.784 70.7542L148.108 70.9322L148.224 71.4482C148.227 71.4653 148.237 71.4807 148.25 71.4917C148.264 71.5027 148.281 71.5085 148.298 71.5082H148.32C148.33 71.5057 148.339 71.5012 148.348 71.495C148.356 71.4888 148.363 71.4811 148.368 71.4722C148.374 71.4635 148.378 71.4537 148.38 71.4433C148.381 71.433 148.381 71.4223 148.378 71.4122L148.294 71.0402L148.804 71.3242C148.817 71.3267 148.83 71.3267 148.842 71.3242C148.856 71.324 148.87 71.3198 148.882 71.312C148.894 71.3042 148.904 71.2932 148.91 71.2802C148.915 71.2708 148.917 71.2606 148.917 71.2502C148.917 71.2398 148.915 71.2296 148.91 71.2202C148.907 71.2057 148.899 71.1924 148.888 71.1822Z" fill="#093D77"/>
<path d="M81.2841 67.0181H72.6821C72.0613 67.0181 71.5581 67.5213 71.5581 68.1421V71.4681C71.5581 72.0888 72.0613 72.5921 72.6821 72.5921H81.2841C81.9049 72.5921 82.4081 72.0888 82.4081 71.4681V68.1421C82.4081 67.5213 81.9049 67.0181 81.2841 67.0181Z" fill="#14B6B8"/>
<path d="M81.2741 72.7399H72.6561C72.4908 72.7435 72.3264 72.7134 72.1731 72.6515C72.0198 72.5896 71.8806 72.4972 71.7641 72.3799C71.6456 72.2656 71.5499 72.1299 71.4821 71.9799C71.4128 71.8256 71.3754 71.6589 71.3721 71.4899V68.1559C71.3814 67.82 71.5196 67.5006 71.7581 67.2639C71.8728 67.1505 72.0087 67.0608 72.1581 66.9999C72.3148 66.9357 72.4828 66.9038 72.6521 66.9059H81.2701C81.4381 66.9036 81.6048 66.9356 81.7601 66.9999C81.91 67.0607 82.046 67.1512 82.1601 67.2659C82.2786 67.3801 82.3743 67.5159 82.4421 67.6659C82.5113 67.8202 82.5487 67.9868 82.5521 68.1559V71.4899C82.5487 71.6596 82.5113 71.8269 82.4421 71.9819C82.3763 72.1315 82.2826 72.2673 82.1661 72.3819C82.0473 72.4976 81.9068 72.5886 81.7527 72.6497C81.5985 72.7108 81.4338 72.7407 81.2681 72.7379L81.2741 72.7399ZM82.2601 68.1519C82.2601 67.8904 82.1562 67.6396 81.9713 67.4547C81.7864 67.2698 81.5356 67.1659 81.2741 67.1659H72.6181C72.3566 67.1659 72.1058 67.2698 71.9209 67.4547C71.736 67.6396 71.6321 67.8904 71.6321 68.1519V71.4579C71.6326 71.719 71.7367 71.9693 71.9216 72.1538C72.1064 72.3383 72.3569 72.4419 72.6181 72.4419H81.2741C81.5352 72.4419 81.7857 72.3383 81.9706 72.1538C82.1554 71.9693 82.2595 71.719 82.2601 71.4579V68.1519Z" fill="#093D77"/>
<path d="M72.9159 68.9218L72.5879 68.7578V68.0598L72.9159 67.7798V68.9218ZM72.9159 70.1378L72.5879 69.8558V69.1338L72.9159 68.9938V70.1378Z" fill="white"/>
<path d="M73.6678 68.7801L73.3398 68.9221V68.1081L73.5018 67.9681L73.6678 68.1081V68.7801ZM74.6898 70.0001L74.5218 70.1441H73.3998L73.7158 69.8621H74.5158L74.6898 70.0001ZM74.8278 68.9641L74.5238 69.0921H73.7238L73.4158 68.9701L73.7298 68.8101H74.5138L74.8278 68.9641ZM74.6898 67.9321L74.5218 68.0681H73.7218L73.5538 67.9321L73.7218 67.7861H74.5218L74.6898 67.9321ZM74.9038 68.9321L74.5758 68.7901V68.1181L74.7378 67.9781L74.9038 68.1181V68.9321ZM74.9038 69.8181L74.7378 69.9581L74.5758 69.8181V69.1681L74.9038 69.0041V69.8181Z" fill="white"/>
<path d="M75.692 69.4239L75.52 69.4979V69.0699L75.6 68.9999L75.686 69.0739L75.692 69.4239ZM75.692 69.9639L75.606 70.0379L75.52 69.9639V69.5359L75.692 69.6219V69.9639ZM76.314 68.8979L76.142 69.0459H75.722L75.634 68.9739L75.722 68.8979H76.314ZM76.314 70.1379H75.714L75.626 70.0619L75.714 69.9899H76.134L76.314 70.1379Z" fill="white"/>
<path d="M75.3298 68.9619C75.295 68.9619 75.261 68.9515 75.232 68.9322C75.2031 68.9129 75.1805 68.8854 75.1672 68.8532C75.1539 68.8211 75.1504 68.7857 75.1572 68.7515C75.164 68.7174 75.1807 68.686 75.2054 68.6614C75.23 68.6368 75.2613 68.62 75.2955 68.6132C75.3296 68.6065 75.365 68.6099 75.3972 68.6233C75.4293 68.6366 75.4568 68.6591 75.4761 68.6881C75.4955 68.717 75.5058 68.7511 75.5058 68.7859C75.5053 68.8324 75.4866 68.8768 75.4537 68.9097C75.4208 68.9426 75.3763 68.9613 75.3298 68.9619ZM75.3298 68.6639C75.3057 68.6639 75.2821 68.671 75.262 68.6844C75.242 68.6978 75.2263 68.7169 75.2171 68.7392C75.2079 68.7615 75.2054 68.786 75.2102 68.8097C75.2149 68.8333 75.2265 68.8551 75.2435 68.8721C75.2606 68.8892 75.2823 68.9008 75.306 68.9055C75.3297 68.9102 75.3542 68.9078 75.3765 68.8986C75.3988 68.8893 75.4178 68.8737 75.4312 68.8536C75.4447 68.8336 75.4518 68.81 75.4518 68.7859C75.4518 68.7535 75.439 68.7225 75.4161 68.6996C75.3932 68.6767 75.3622 68.6639 75.3298 68.6639Z" fill="white"/>
<path d="M81.9721 70.3618H71.9561C71.9207 70.3618 71.8921 70.3905 71.8921 70.4258V70.4458C71.8921 70.4812 71.9207 70.5098 71.9561 70.5098H81.9721C82.0074 70.5098 82.0361 70.4812 82.0361 70.4458V70.4258C82.0361 70.3905 82.0074 70.3618 81.9721 70.3618Z" fill="white"/>
<path d="M80.0619 68.8339C80.0642 68.824 80.0642 68.8137 80.0619 68.8039V68.7999C80.0859 68.7759 80.1259 68.7419 80.1479 68.7519C80.1699 68.7619 80.2819 68.8719 80.3659 68.7799C80.4499 68.6879 80.4539 68.6099 80.4059 68.5599C80.4059 68.5599 80.2739 68.4299 80.1719 68.4879C80.0699 68.5459 80.0899 68.6739 80.0299 68.7559C80.0188 68.753 80.0071 68.753 79.9959 68.7559C79.9854 68.7538 79.9745 68.7538 79.9639 68.7559C79.9339 68.7379 79.8919 68.7079 79.8979 68.6839C79.9039 68.6599 79.9819 68.5259 79.8739 68.4659C79.7659 68.4059 79.6859 68.4199 79.6499 68.4799C79.6499 68.4799 79.5539 68.6379 79.6359 68.7239C79.7179 68.8099 79.8359 68.7599 79.9299 68.7979C79.929 68.8038 79.929 68.8099 79.9299 68.8159C79.9299 68.8301 79.9341 68.844 79.9419 68.8559C79.9179 68.8799 79.8759 68.9159 79.8539 68.9039C79.8319 68.8919 79.7199 68.7839 79.6359 68.8759C79.5519 68.9679 79.5479 69.0459 79.5979 69.0959C79.5979 69.0959 79.7279 69.2259 79.8319 69.1679C79.9359 69.1099 79.9119 68.9679 79.9879 68.8839H80.0139C80.0379 68.8979 80.1039 68.9379 80.0979 68.9679C80.0919 68.9979 80.0119 69.1259 80.1219 69.1839C80.2319 69.2419 80.3079 69.2299 80.3439 69.1719C80.3439 69.1719 80.4399 69.0139 80.3599 68.9259C80.2799 68.8379 80.1559 68.8799 80.0619 68.8339Z" fill="white"/>
<path d="M80.14 69.5439H79.918V70.1759H80.14V69.5439Z" fill="white"/>
<path d="M80.4018 69.3218H80.2158V70.1758H80.4018V69.3218Z" fill="white"/>
<path d="M80.6978 69.0981H80.5498V70.1761H80.6978V69.0981Z" fill="white"/>
<path d="M81.0341 68.8379H80.8481V70.1759H81.0341V68.8379Z" fill="white"/>
<path d="M81.332 68.6162H81.146V70.1762H81.332V68.6162Z" fill="white"/>
<path d="M76.924 69.6822L76.79 69.7302V69.4562L76.856 69.4082L76.924 69.4562V69.6822ZM76.924 70.0282L76.856 70.0742L76.79 70.0282V69.7542L76.924 69.8082V70.0282ZM77.4 69.3462L77.266 69.4402H76.946L76.878 69.3942L76.946 69.3462H77.4ZM77.4 70.1462H76.94L76.872 70.0982L76.94 70.0522H77.266L77.4 70.1462Z" fill="white"/>
<path d="M77.6159 69.6741L77.4839 69.7301V69.4561L77.5499 69.4081L77.6159 69.4561V69.6741ZM77.6159 70.0281L77.5499 70.0741L77.4839 70.0281V69.7541L77.6159 69.8021V70.0281ZM78.0339 69.4001L77.9659 69.4461H77.6399L77.5719 69.4001L77.6399 69.3521H77.9659L78.0339 69.4001ZM78.0339 70.0961L77.9659 70.1441H77.6399L77.5719 70.0961L77.6399 70.0501H77.9659L78.0339 70.0961ZM78.1199 69.7361L77.9879 69.6801V69.4621L78.0539 69.4141L78.1199 69.4621V69.7361ZM78.1199 70.0341L78.0539 70.0801L77.9879 70.0341V69.8001L78.1199 69.7521V70.0341Z" fill="white"/>
<path d="M78.3879 69.6741L78.2539 69.7301V69.4561L78.3199 69.4081L78.3879 69.4561V69.6741ZM78.3879 70.0281L78.3199 70.0741L78.2539 70.0281V69.7541L78.3879 69.8021V70.0281ZM78.7999 69.4001L78.7319 69.4461H78.4099L78.3419 69.4001L78.4099 69.3521H78.7359L78.7999 69.4001ZM78.7999 70.0961L78.7319 70.1441H78.4099L78.3419 70.0961L78.4099 70.0501H78.7359L78.7999 70.0961ZM78.8879 69.7361L78.7539 69.6801V69.4621L78.8199 69.4141L78.8879 69.4621V69.7361ZM78.8879 70.0341L78.8199 70.0801L78.7539 70.0341V69.8001L78.8879 69.7521V70.0341Z" fill="white"/>
<path d="M79.1579 69.6742L79.0239 69.7302V69.3462L79.1579 69.4402V69.6742ZM79.1579 70.0262L79.0239 70.1242V69.7542L79.1579 69.8022V70.0262ZM79.6419 70.1382H79.0419L79.1779 70.0442H79.5039L79.6419 70.1382Z" fill="white"/>
<path d="M76.6501 67.3901H76.5381V70.4381H76.6501V67.3901Z" fill="white"/>
<path d="M78.6539 71.462L78.5239 71.4V71.13L78.6539 71.02V71.462ZM78.6539 71.936L78.5239 71.826V71.546L78.6539 71.49V71.936Z" fill="white"/>
<path d="M79.1578 71.4001L79.0278 71.4541V71.1401L79.0938 71.0841L79.1578 71.1401V71.4001ZM79.5578 71.8721L79.4918 71.9281H79.0558L79.1818 71.8181H79.4978L79.5578 71.8721ZM79.6118 71.4721L79.4918 71.5201H79.1818L79.0598 71.4721L79.1858 71.4101H79.4958L79.6118 71.4721ZM79.5578 71.0721L79.4918 71.1261H79.1818L79.1138 71.0721L79.1818 71.0161H79.4978L79.5578 71.0721ZM79.6418 71.4581L79.5118 71.4041V71.1441L79.5778 71.0881L79.6418 71.1441V71.4581ZM79.6418 71.8021L79.5778 71.8581L79.5118 71.8021V71.5501L79.6418 71.4861V71.8021Z" fill="white"/>
<path d="M79.8859 71.5278H79.7559V71.3398H79.8859V71.5278ZM79.8859 71.9278H79.7559V71.7278H79.8859V71.9278Z" fill="white"/>
<path d="M80.4641 71.076L80.3981 71.13H80.0821L79.9561 71.02H80.4001L80.4641 71.076ZM80.4641 71.876L80.3981 71.932H79.9561L80.0821 71.822H80.4001L80.4641 71.876ZM80.5201 71.476L80.3981 71.528H80.0821L79.9601 71.476L80.0801 71.418H80.4001L80.5201 71.476ZM80.5501 71.462L80.4201 71.4V71.148L80.4841 71.092L80.5501 71.148V71.462ZM80.5501 71.806L80.4841 71.862L80.4201 71.806V71.546L80.5501 71.49V71.806Z" fill="white"/>
<path d="M80.8619 71.4002L80.7319 71.4622V71.1482L80.7979 71.0922L80.8619 71.1482V71.4002ZM80.8619 71.8002L80.7979 71.8562L80.7319 71.8002V71.4842L80.8619 71.5402V71.8002ZM81.3219 71.4702L81.2019 71.5222H80.8839L80.7619 71.4702L80.8879 71.4102H81.1999L81.3219 71.4702ZM81.3219 71.0142L81.1979 71.1242H80.8799L80.8139 71.0702L80.8799 71.0142H81.3219ZM81.2639 71.8742L81.1979 71.9302H80.8799L80.8139 71.8742L80.8799 71.8202H81.1999L81.2639 71.8742ZM81.3479 71.8002L81.2839 71.8562L81.2179 71.8002V71.5402L81.3479 71.4842V71.8002Z" fill="white"/>
<path d="M73.2738 71.1222C73.2738 71.3002 73.1778 71.3642 73.0578 71.3642C72.9378 71.3642 72.8418 71.3002 72.8418 71.1222C72.8736 70.9708 72.9486 70.8318 73.0578 70.7222C73.167 70.8318 73.242 70.9708 73.2738 71.1222Z" fill="white"/>
<path d="M72.678 71.722L72.604 71.658C72.6592 71.5928 72.7298 71.5423 72.8095 71.5113C72.8891 71.4802 72.9752 71.4694 73.06 71.48C73.114 71.494 73.168 71.514 73.218 71.532C73.3013 71.5758 73.3939 71.5987 73.488 71.5987C73.5821 71.5987 73.6747 71.5758 73.758 71.532L73.802 71.62C73.7103 71.6671 73.609 71.6925 73.506 71.694C73.3947 71.6899 73.2854 71.6641 73.184 71.618C73.132 71.6 73.086 71.58 73.036 71.568C72.852 71.528 72.68 71.72 72.678 71.722Z" fill="white"/>
<path d="M72.678 71.9718L72.604 71.9078C72.6594 71.8428 72.7301 71.7926 72.8097 71.7615C72.8892 71.7305 72.9752 71.7196 73.06 71.7298C73.1137 71.7445 73.1665 71.7625 73.218 71.7838C73.3014 71.8271 73.394 71.8497 73.488 71.8497C73.582 71.8497 73.6746 71.8271 73.758 71.7838L73.802 71.8718C73.7108 71.9204 73.6093 71.9464 73.506 71.9478C73.3949 71.9427 73.2857 71.9169 73.184 71.8718C73.1358 71.8519 73.0864 71.8352 73.036 71.8218C72.852 71.7798 72.68 71.9698 72.678 71.9718Z" fill="white"/>
<path d="M72.678 72.2338L72.604 72.1678C72.6605 72.1047 72.7316 72.0563 72.8111 72.0271C72.8906 71.9978 72.9761 71.9884 73.06 71.9998C73.1137 72.0145 73.1665 72.0326 73.218 72.0538C73.3013 72.0976 73.3939 72.1205 73.488 72.1205C73.5821 72.1205 73.6747 72.0976 73.758 72.0538L73.802 72.1418C73.7108 72.1904 73.6093 72.2165 73.506 72.2178C73.3949 72.2127 73.2857 72.187 73.184 72.1418C73.1358 72.1219 73.0864 72.1052 73.036 72.0918C72.852 72.0398 72.68 72.2318 72.678 72.2338Z" fill="white"/>
<path d="M74.6942 71.2518L74.6282 71.3058H74.1602L74.3122 71.1958H74.6282L74.6942 71.2518ZM74.2942 71.9858L74.2282 72.0398L74.1642 71.9858V71.6678L74.2942 71.7238V71.9858ZM74.7542 71.6538L74.6322 71.7038H74.3102L74.1902 71.6518L74.3102 71.5918H74.6242L74.7542 71.6538ZM74.7842 72.1138H74.3122L74.2462 72.0578L74.3122 72.0038H74.6562L74.7842 72.1138ZM74.7842 71.6398L74.6542 71.5758V71.3238L74.7182 71.2698L74.7842 71.3238V71.6398Z" fill="white"/>
<path d="M75.0382 71.5762L74.9082 71.6402V71.3242L74.9722 71.2702L75.0382 71.3242V71.5762ZM75.0382 71.9862L74.9722 72.0402L74.9082 71.9862V71.6682L75.0382 71.7242V71.9862ZM75.4982 71.6542L75.3782 71.7062H75.0602L74.9382 71.6542L75.0622 71.5942H75.3742L75.4982 71.6542ZM75.4442 71.2542L75.3762 71.3082H75.0602L74.9942 71.2542L75.0602 71.1982H75.3762L75.4442 71.2542ZM75.4442 72.0542L75.3762 72.1102H75.0602L74.9942 72.0542L75.0602 72.0002H75.3762L75.4442 72.0542ZM75.5282 71.6362L75.3982 71.5722V71.3202L75.4622 71.2662L75.5282 71.3202V71.6362ZM75.5282 71.9822L75.4622 72.0362L75.3982 71.9822V71.7202L75.5282 71.6642V71.9822Z" fill="white"/>
<path d="M76.7118 109.554C76.5551 109.552 76.4054 109.489 76.2937 109.379C76.182 109.269 76.1169 109.121 76.1118 108.964C76.0558 107.266 77.1978 106.186 78.1118 105.32C78.7358 104.72 79.2758 104.22 79.2758 103.72C79.2758 103.22 78.6358 102.808 77.9598 102.35C76.9818 101.686 75.7598 100.86 75.7598 99.3501C75.7598 97.6201 77.2018 96.5321 78.2538 95.7401C78.5918 95.4841 79.0538 95.1401 79.1258 94.9821C79.3618 94.0921 78.9458 93.6221 78.9258 93.6021C78.8689 93.5462 78.8238 93.4796 78.793 93.4061C78.7621 93.3326 78.7463 93.2537 78.7463 93.1741C78.7463 93.0944 78.7621 93.0155 78.793 92.942C78.8238 92.8685 78.8689 92.8019 78.9258 92.7461C79.0408 92.6316 79.1965 92.5674 79.3588 92.5674C79.521 92.5674 79.6767 92.6316 79.7918 92.7461C80.1378 93.0941 80.6338 94.0221 80.2918 95.3041C80.1538 95.8241 79.6358 96.2141 78.9798 96.7041C78.0858 97.3781 76.9798 98.2181 76.9798 99.3421C76.9798 100.142 77.6378 100.652 78.6398 101.332C79.5078 101.92 80.4918 102.586 80.4918 103.71C80.4918 104.736 79.7058 105.478 78.9458 106.196C78.0898 106.996 77.2838 107.766 77.3218 108.916C77.3255 108.996 77.3132 109.076 77.2855 109.152C77.2577 109.227 77.2152 109.296 77.1604 109.354C77.1056 109.413 77.0396 109.46 76.9663 109.492C76.893 109.525 76.814 109.543 76.7338 109.544L76.7118 109.554Z" fill="#093D77"/>
<path d="M98.2342 109.554C98.0777 109.551 97.9283 109.488 97.8167 109.379C97.7051 109.269 97.6398 109.12 97.6342 108.964C97.5782 107.266 98.7222 106.186 99.6342 105.32C100.258 104.72 100.798 104.22 100.798 103.72C100.798 103.22 100.158 102.808 99.4822 102.35C98.5042 101.686 97.2822 100.86 97.2822 99.3501C97.2822 97.6201 98.7242 96.5321 99.7762 95.7401C100.114 95.4841 100.576 95.1401 100.648 94.9821C100.884 94.0921 100.468 93.6221 100.448 93.6021C100.391 93.5462 100.346 93.4796 100.315 93.4061C100.285 93.3326 100.269 93.2537 100.269 93.1741C100.269 93.0944 100.285 93.0155 100.315 92.942C100.346 92.8685 100.391 92.8019 100.448 92.7461C100.563 92.6316 100.719 92.5674 100.881 92.5674C101.043 92.5674 101.199 92.6316 101.314 92.7461C101.66 93.0941 102.156 94.0221 101.814 95.3041C101.676 95.8241 101.158 96.2141 100.502 96.7041C99.6082 97.3781 98.5022 98.2181 98.5022 99.3421C98.5022 100.142 99.1602 100.652 100.164 101.332C101.03 101.92 102.014 102.586 102.014 103.71C102.014 104.736 101.228 105.478 100.468 106.196C99.6122 106.996 98.8062 107.766 98.8442 108.916C98.848 108.996 98.8356 109.076 98.8079 109.152C98.7802 109.227 98.7377 109.296 98.6829 109.354C98.628 109.413 98.562 109.46 98.4888 109.492C98.4155 109.525 98.3364 109.543 98.2562 109.544L98.2342 109.554Z" fill="#093D77"/>
<path d="M119.754 109.554C119.598 109.551 119.448 109.488 119.337 109.379C119.225 109.269 119.16 109.12 119.154 108.964C119.098 107.266 120.242 106.186 121.154 105.32C121.778 104.72 122.318 104.22 122.318 103.72C122.318 103.22 121.678 102.808 121.002 102.35C120.024 101.686 118.802 100.86 118.802 99.3501C118.802 97.6201 120.244 96.5321 121.296 95.7401C121.636 95.4841 122.096 95.1401 122.168 94.9821C122.404 94.0921 121.988 93.6221 121.968 93.6021C121.911 93.5462 121.866 93.4796 121.835 93.4061C121.805 93.3326 121.789 93.2537 121.789 93.1741C121.789 93.0944 121.805 93.0155 121.835 92.942C121.866 92.8685 121.911 92.8019 121.968 92.7461C122.083 92.6316 122.239 92.5674 122.401 92.5674C122.564 92.5674 122.719 92.6316 122.834 92.7461C123.18 93.0941 123.676 94.0221 123.334 95.3041C123.196 95.8241 122.678 96.2141 122.022 96.7041C121.128 97.3781 120.022 98.2181 120.022 99.3421C120.022 100.142 120.68 100.652 121.684 101.332C122.55 101.92 123.534 102.586 123.534 103.71C123.534 104.736 122.748 105.478 121.988 106.196C121.134 106.996 120.326 107.766 120.364 108.916C120.368 108.996 120.356 109.076 120.328 109.152C120.3 109.227 120.258 109.296 120.203 109.354C120.148 109.413 120.082 109.46 120.009 109.492C119.936 109.525 119.856 109.543 119.776 109.544L119.754 109.554Z" fill="#093D77"/>
<path d="M141.274 109.554C141.116 109.554 140.965 109.492 140.853 109.382C140.741 109.272 140.676 109.121 140.674 108.964C140.616 107.266 141.76 106.186 142.674 105.32C143.298 104.72 143.838 104.22 143.838 103.72C143.838 103.22 143.198 102.808 142.522 102.35C141.544 101.686 140.322 100.86 140.322 99.3501C140.322 97.6201 141.764 96.5321 142.816 95.7401C143.156 95.4841 143.616 95.1401 143.688 94.9821C143.924 94.0921 143.508 93.6221 143.488 93.6021C143.431 93.5462 143.386 93.4796 143.355 93.4061C143.324 93.3326 143.308 93.2537 143.308 93.1741C143.308 93.0944 143.324 93.0155 143.355 92.942C143.386 92.8685 143.431 92.8019 143.488 92.7461C143.603 92.6316 143.759 92.5674 143.921 92.5674C144.083 92.5674 144.239 92.6316 144.354 92.7461C144.7 93.0941 145.196 94.0221 144.854 95.3041C144.716 95.8241 144.198 96.2141 143.544 96.7041C142.648 97.3781 141.534 98.2181 141.534 99.3421C141.534 100.142 142.192 100.652 143.196 101.332C144.064 101.92 145.046 102.586 145.046 103.71C145.046 104.736 144.26 105.478 143.5 106.196C142.646 106.996 141.838 107.766 141.876 108.916C141.88 108.996 141.867 109.076 141.839 109.152C141.812 109.227 141.769 109.296 141.714 109.354C141.66 109.413 141.594 109.46 141.52 109.492C141.447 109.525 141.368 109.543 141.288 109.544L141.274 109.554Z" fill="#093D77"/>
<path d="M152.716 67.1798C152.717 66.5578 152.596 65.9418 152.358 65.3669C152.12 64.7921 151.772 64.2698 151.332 63.83C150.892 63.3902 150.37 63.0416 149.795 62.804C149.22 62.5665 148.604 62.4448 147.982 62.4458H72.0362C71.4133 62.4445 70.7962 62.5659 70.2203 62.8031C69.6443 63.0404 69.1207 63.3887 68.6794 63.8283C68.2382 64.268 67.8878 64.7902 67.6484 65.3653C67.409 65.9403 67.2852 66.5569 67.2842 67.1798V87.4918H152.716V67.1798Z" fill="#093D77"/>
<g opacity="0.8">
<path d="M67.2842 87.4922V89.6002C67.2842 91.6242 68.0842 93.7102 70.0242 94.9902C70.9062 95.4622 72.2242 95.8842 74.1482 95.8842H74.5682H145.452H145.87C147.786 95.8842 149.104 95.4622 149.986 94.9902C151.916 93.7102 152.716 91.6242 152.716 89.6002V87.4922H67.2842Z" fill="#093D77"/>
</g>
<path d="M150.788 84.0201C150.788 83.5719 150.609 83.1421 150.293 82.825C149.976 82.5079 149.546 82.3292 149.098 82.3281H70.8981C70.4496 82.3292 70.0199 82.5078 69.7028 82.8249C69.3857 83.142 69.2071 83.5717 69.2061 84.0201L69.4001 87.4921H150.6L150.788 84.0201Z" fill="#25AFB0"/>
<path d="M70.6139 93.9122C71.0674 94.1427 71.5714 94.2562 72.0799 94.2422C72.1319 94.2422 72.1819 94.2562 72.2299 94.2562H147.772C147.82 94.2562 147.868 94.2422 147.92 94.2422C148.428 94.2579 148.932 94.1465 149.386 93.9182C149.696 93.7059 149.948 93.4189 150.118 93.0838C150.288 92.7486 150.372 92.3759 150.36 92.0002L150.6 87.4922H69.3999L69.6419 92.0002C69.6307 92.3748 69.7138 92.7462 69.8837 93.0803C70.0535 93.4144 70.3046 93.7005 70.6139 93.9122Z" fill="#25FCFF"/>
<path d="M150.04 88.7178C150.04 88.8066 150.005 88.8917 149.943 88.9547C149.88 89.0176 149.795 89.0533 149.706 89.0538H70.2202C70.1315 89.0533 70.0465 89.0176 69.9839 88.9547C69.9214 88.8917 69.8862 88.8066 69.8862 88.7178C69.8862 88.6739 69.8949 88.6305 69.9117 88.59C69.9284 88.5494 69.953 88.5126 69.9841 88.4816C70.0151 88.4506 70.0519 88.426 70.0924 88.4092C70.1329 88.3924 70.1764 88.3838 70.2202 88.3838H149.706C149.75 88.3838 149.794 88.3924 149.834 88.4092C149.875 88.426 149.911 88.4506 149.942 88.4816C149.973 88.5126 149.998 88.5494 150.015 88.59C150.032 88.6305 150.04 88.6739 150.04 88.7178Z" fill="#FFCF89"/>
<path d="M149.556 90.168C149.556 90.2118 149.547 90.2553 149.53 90.2958C149.514 90.3363 149.489 90.3731 149.458 90.4042C149.427 90.4352 149.39 90.4598 149.35 90.4766C149.309 90.4933 149.266 90.502 149.222 90.502H70.8218C70.7779 90.502 70.7345 90.4933 70.694 90.4766C70.6535 90.4598 70.6166 90.4352 70.5856 90.4042C70.5546 90.3731 70.53 90.3363 70.5132 90.2958C70.4964 90.2553 70.4878 90.2118 70.4878 90.168C70.4878 90.0794 70.523 89.9944 70.5856 89.9318C70.6483 89.8692 70.7332 89.834 70.8218 89.834H149.222C149.31 89.834 149.395 89.8692 149.458 89.9318C149.521 89.9944 149.556 90.0794 149.556 90.168Z" fill="#FFCF89"/>
<path d="M149.222 91.5801C149.222 91.6687 149.187 91.7536 149.124 91.8163C149.061 91.8789 148.976 91.9141 148.888 91.9141H71.1118C71.068 91.9141 71.0245 91.9055 70.984 91.8887C70.9435 91.8719 70.9067 91.8473 70.8757 91.8163C70.8446 91.7853 70.82 91.7484 70.8033 91.7079C70.7865 91.6674 70.7778 91.624 70.7778 91.5801C70.7778 91.5362 70.7865 91.4928 70.8033 91.4523C70.82 91.4118 70.8446 91.3749 70.8757 91.3439C70.9067 91.3129 70.9435 91.2883 70.984 91.2715C71.0245 91.2547 71.068 91.2461 71.1118 91.2461H148.888C148.976 91.2461 149.061 91.2813 149.124 91.3439C149.187 91.4066 149.222 91.4915 149.222 91.5801Z" fill="#FFCF89"/>
<path d="M149 93C149 93.044 148.991 93.0876 148.974 93.1283C148.957 93.1689 148.933 93.2059 148.901 93.2369C148.87 93.2679 148.833 93.2925 148.792 93.3092C148.752 93.3258 148.708 93.3343 148.664 93.334H71.336C71.292 93.3343 71.2483 93.3258 71.2076 93.3092C71.1668 93.2925 71.1298 93.2679 71.0985 93.2369C71.0673 93.2059 71.0425 93.1689 71.0256 93.1283C71.0087 93.0876 71 93.044 71 93C71.0005 92.9113 71.0362 92.8263 71.0991 92.7637C71.1621 92.7011 71.2472 92.666 71.336 92.666H148.664C148.753 92.666 148.838 92.7011 148.901 92.7637C148.964 92.8263 148.999 92.9113 149 93Z" fill="#FFCF89"/>
<path d="M121.612 79.8C121.612 80.0562 121.51 80.3019 121.329 80.4831C121.148 80.6642 120.902 80.766 120.646 80.766H99.3542C99.098 80.766 98.8523 80.6642 98.6711 80.4831C98.49 80.3019 98.3882 80.0562 98.3882 79.8C98.3882 79.6731 98.4132 79.5475 98.4617 79.4303C98.5103 79.3131 98.5814 79.2066 98.6711 79.1169C98.7608 79.0272 98.8673 78.9561 98.9845 78.9075C99.1017 78.859 99.2273 78.834 99.3542 78.834H120.646C120.773 78.834 120.899 78.859 121.016 78.9075C121.133 78.9561 121.24 79.0272 121.329 79.1169C121.419 79.2066 121.49 79.3131 121.539 79.4303C121.587 79.5475 121.612 79.6731 121.612 79.8Z" fill="#14B6B8"/>
<path d="M148.888 71.1822L148.382 70.9002L148.758 70.7862C148.768 70.7835 148.778 70.7787 148.786 70.7721C148.795 70.7655 148.802 70.7573 148.807 70.7479C148.812 70.7385 148.815 70.7282 148.816 70.7176C148.817 70.707 148.815 70.6963 148.812 70.6862C148.808 70.6696 148.799 70.6549 148.785 70.6444C148.772 70.6339 148.755 70.6282 148.738 70.6282C148.731 70.6263 148.723 70.6263 148.716 70.6282L148.186 70.7882L147.854 70.6042L148.478 70.4222C148.499 70.4162 148.516 70.4023 148.526 70.3836C148.537 70.3649 148.54 70.3429 148.534 70.3222C148.529 70.3058 148.519 70.2914 148.505 70.281C148.492 70.2706 148.475 70.2647 148.458 70.2642H148.434L147.656 70.4902L146.456 69.8202L147.302 69.7282C147.323 69.7248 147.342 69.7137 147.355 69.6971C147.369 69.6804 147.375 69.6595 147.374 69.6382C147.371 69.6175 147.36 69.5988 147.344 69.5857C147.328 69.5727 147.307 69.5665 147.286 69.5682L146.326 69.6722L147.492 68.8982L148.208 69.0982H148.232C148.249 69.0982 148.266 69.0925 148.279 69.082C148.293 69.0715 148.302 69.0568 148.306 69.0402C148.314 69.0203 148.314 68.9981 148.306 68.9782C148.301 68.9695 148.295 68.9618 148.287 68.9556C148.279 68.9494 148.27 68.9449 148.26 68.9422L147.678 68.7842L147.99 68.5842L148.496 68.7162C148.503 68.7182 148.51 68.7182 148.516 68.7162C148.533 68.7158 148.55 68.7097 148.563 68.6988C148.577 68.688 148.586 68.673 148.59 68.6562C148.595 68.6468 148.597 68.6366 148.597 68.6262C148.597 68.6158 148.595 68.6056 148.59 68.5962C148.58 68.5778 148.562 68.5642 148.542 68.5582L148.174 68.4622L148.666 68.1362C148.684 68.1244 148.696 68.106 148.701 68.0851C148.705 68.0642 148.701 68.0423 148.69 68.0242C148.684 68.013 148.674 68.0038 148.663 67.9974C148.652 67.9911 148.639 67.9879 148.626 67.9882C148.61 67.9886 148.595 67.9934 148.582 68.0022L148.094 68.3262L148.172 67.9262C148.174 67.9158 148.174 67.9051 148.172 67.8948C148.17 67.8844 148.166 67.8746 148.16 67.8659C148.154 67.8571 148.146 67.8496 148.137 67.8439C148.128 67.8381 148.118 67.8341 148.108 67.8322H148.094C148.075 67.8327 148.057 67.8394 148.043 67.8514C148.028 67.8634 148.018 67.8798 148.014 67.8982L147.906 68.4442L147.588 68.6442L147.724 68.0062C147.728 67.9855 147.724 67.9641 147.712 67.9465C147.701 67.9288 147.683 67.9165 147.662 67.9122H147.648C147.629 67.9118 147.611 67.918 147.596 67.9297C147.582 67.9414 147.572 67.9579 147.568 67.9762L147.4 68.7762L146.346 69.4742L146.758 68.7042C146.763 68.6945 146.765 68.6839 146.765 68.6732C146.765 68.6625 146.763 68.6519 146.758 68.6422C146.752 68.6224 146.738 68.6059 146.72 68.5962C146.711 68.5911 146.701 68.5879 146.69 68.5868C146.679 68.5857 146.669 68.5868 146.659 68.59C146.649 68.5932 146.639 68.5984 146.631 68.6053C146.623 68.6122 146.617 68.6207 146.612 68.6302L146.186 69.4302L146.164 68.0022L146.718 67.4862C146.733 67.4709 146.741 67.4505 146.741 67.4292C146.741 67.4079 146.733 67.3875 146.718 67.3722C146.711 67.3646 146.702 67.3585 146.693 67.3544C146.683 67.3502 146.673 67.3481 146.662 67.3482C146.652 67.3477 146.641 67.3495 146.632 67.3533C146.622 67.357 146.613 67.3628 146.606 67.3702L146.154 67.8002V67.4242L146.544 67.0562C146.559 67.0412 146.568 67.0214 146.57 67.0002C146.57 66.9788 146.562 66.9582 146.548 66.9422C146.541 66.9338 146.532 66.9272 146.522 66.9227C146.512 66.9182 146.501 66.916 146.49 66.9162C146.47 66.9163 146.451 66.9242 146.436 66.9382L146.144 67.2002V66.5902C146.143 66.5695 146.134 66.5499 146.119 66.5355C146.105 66.521 146.085 66.5127 146.064 66.5122C146.043 66.5137 146.024 66.5229 146.009 66.5381C145.995 66.5533 145.987 66.5733 145.986 66.5942L145.996 67.1942L145.714 66.9262C145.699 66.9127 145.68 66.9055 145.66 66.9062C145.649 66.9061 145.639 66.9082 145.629 66.9123C145.619 66.9164 145.61 66.9225 145.602 66.9302C145.594 66.9378 145.588 66.9469 145.584 66.9568C145.58 66.9668 145.578 66.9774 145.578 66.9882C145.578 66.999 145.58 67.0096 145.584 67.0196C145.588 67.0296 145.594 67.0386 145.602 67.0462L146.002 67.4202V67.8022L145.54 67.3542C145.533 67.3472 145.525 67.3417 145.516 67.3379C145.507 67.3341 145.498 67.3322 145.488 67.3322C145.465 67.3326 145.444 67.342 145.428 67.3582C145.413 67.3735 145.405 67.3939 145.405 67.4152C145.405 67.4365 145.413 67.4569 145.428 67.4722L146.002 68.0302L146.024 69.4302L145.556 68.6742C145.549 68.6625 145.539 68.6528 145.527 68.6461C145.515 68.6394 145.502 68.636 145.488 68.6362C145.474 68.6362 145.46 68.6403 145.448 68.6482C145.43 68.6594 145.417 68.6772 145.412 68.6978C145.407 68.7185 145.411 68.7402 145.422 68.7582L145.896 69.5242L144.768 68.8982L144.608 68.1602C144.604 68.1427 144.595 68.1271 144.581 68.1158C144.567 68.1045 144.55 68.0983 144.532 68.0982H144.514C144.504 68.1003 144.494 68.1045 144.485 68.1105C144.476 68.1166 144.469 68.1243 144.463 68.1333C144.458 68.1423 144.454 68.1523 144.452 68.1628C144.451 68.1733 144.451 68.184 144.454 68.1942L144.58 68.7942L144.256 68.6142L144.138 68.0922C144.135 68.0749 144.126 68.0593 144.112 68.0479C144.099 68.0366 144.082 68.0304 144.064 68.0302H144.046C144.035 68.0325 144.025 68.037 144.016 68.0436C144.007 68.0501 144 68.0585 143.994 68.0682C143.989 68.0767 143.985 68.0862 143.983 68.0962C143.981 68.1061 143.982 68.1164 143.984 68.1262L144.07 68.5082L143.534 68.2002C143.522 68.1966 143.51 68.1966 143.498 68.2002C143.485 68.1999 143.473 68.2027 143.461 68.2083C143.45 68.2138 143.44 68.222 143.432 68.2322C143.425 68.2424 143.42 68.2542 143.418 68.2667C143.415 68.2792 143.416 68.2921 143.42 68.3042C143.426 68.324 143.44 68.3405 143.458 68.3502L143.972 68.6362L143.6 68.7482C143.581 68.7541 143.565 68.7663 143.555 68.7828C143.544 68.7993 143.539 68.819 143.542 68.8385C143.544 68.858 143.553 68.8761 143.568 68.8895C143.582 68.903 143.6 68.911 143.62 68.9122C143.62 68.9122 143.632 68.9122 143.64 68.9122L144.162 68.7542L144.496 68.9362L143.876 69.1142C143.856 69.1211 143.839 69.1355 143.829 69.1545C143.819 69.1734 143.816 69.1955 143.822 69.2162C143.827 69.2328 143.837 69.2474 143.85 69.2578C143.864 69.2683 143.881 69.274 143.898 69.2742H143.918L144.688 69.0502L145.872 69.7062L144.916 69.7342C144.894 69.7362 144.874 69.7464 144.859 69.7626C144.844 69.7789 144.836 69.8002 144.836 69.8222C144.837 69.8434 144.846 69.8635 144.861 69.8784C144.877 69.8932 144.897 69.9017 144.918 69.9022L145.76 69.8742L144.6 70.6342L143.876 70.4342H143.856C143.836 70.4321 143.815 70.438 143.799 70.4505C143.783 70.4631 143.772 70.4815 143.769 70.5018C143.766 70.5221 143.771 70.5428 143.782 70.5596C143.794 70.5765 143.812 70.5881 143.832 70.5922L144.42 70.7502L144.108 70.9502L143.594 70.8182H143.576C143.558 70.8181 143.541 70.8239 143.527 70.8348C143.513 70.8457 143.503 70.8609 143.498 70.8782C143.494 70.8876 143.491 70.8978 143.491 70.9082C143.491 70.9186 143.494 70.9288 143.498 70.9382C143.509 70.9566 143.526 70.9702 143.546 70.9762L143.92 71.0722L143.414 71.4082C143.396 71.4201 143.384 71.4384 143.379 71.4593C143.375 71.4802 143.379 71.5021 143.39 71.5202C143.397 71.5314 143.408 71.5406 143.419 71.5469C143.431 71.5532 143.445 71.5564 143.458 71.5562C143.474 71.5553 143.489 71.5505 143.502 71.5422L144 71.2202L143.924 71.6042C143.922 71.6143 143.921 71.6248 143.923 71.635C143.925 71.6453 143.929 71.6551 143.934 71.6638C143.94 71.6726 143.947 71.6801 143.956 71.686C143.964 71.6919 143.974 71.6961 143.984 71.6982H144.004C144.022 71.6975 144.039 71.6905 144.053 71.6785C144.066 71.6664 144.075 71.6501 144.078 71.6322L144.188 71.0942L144.506 70.8822L144.374 71.5162C144.37 71.537 144.374 71.5586 144.386 71.5762C144.391 71.585 144.398 71.5926 144.406 71.5985C144.415 71.6044 144.424 71.6084 144.434 71.6102H144.454C144.472 71.6086 144.489 71.6013 144.503 71.5895C144.516 71.5776 144.526 71.5618 144.53 71.5442L144.694 70.7562L145.894 69.9562L145.466 70.7462C145.458 70.7661 145.458 70.7883 145.466 70.8082C145.469 70.8185 145.474 70.828 145.481 70.8363C145.488 70.8445 145.497 70.8513 145.506 70.8562C145.516 70.8593 145.528 70.8593 145.538 70.8562C145.552 70.8561 145.566 70.8522 145.579 70.8448C145.591 70.8374 145.601 70.8268 145.608 70.8142L146.032 70.0282L146.052 71.3562L145.504 71.8662C145.496 71.8738 145.49 71.8829 145.486 71.8928C145.482 71.9028 145.48 71.9134 145.48 71.9242C145.48 71.935 145.482 71.9456 145.486 71.9556C145.49 71.9656 145.496 71.9746 145.504 71.9822C145.511 71.9901 145.52 71.9963 145.529 72.0004C145.539 72.0046 145.55 72.0065 145.56 72.0062C145.574 72.0074 145.587 72.0054 145.6 72.0002L146.046 71.5862V71.9622L145.662 72.3262C145.647 72.3415 145.639 72.3619 145.639 72.3832C145.639 72.4045 145.647 72.4249 145.662 72.4402C145.67 72.4479 145.679 72.454 145.689 72.4581C145.699 72.4623 145.709 72.4643 145.72 72.4642C145.741 72.4639 145.761 72.456 145.776 72.4422L146.052 72.1782L146.062 72.7782C146.062 72.7886 146.064 72.799 146.067 72.8087C146.071 72.8184 146.077 72.8272 146.084 72.8347C146.091 72.8421 146.1 72.848 146.11 72.8521C146.119 72.8561 146.13 72.8582 146.14 72.8582C146.151 72.8577 146.161 72.8551 146.171 72.8505C146.181 72.8459 146.19 72.8394 146.197 72.8314C146.204 72.8234 146.21 72.8141 146.213 72.8039C146.217 72.7938 146.219 72.783 146.218 72.7722V72.1862L146.504 72.4562C146.51 72.4636 146.518 72.4694 146.527 72.4733C146.537 72.4771 146.546 72.4788 146.556 72.4782C146.579 72.4774 146.6 72.4681 146.616 72.4522C146.623 72.4445 146.629 72.4353 146.632 72.4253C146.636 72.4153 146.637 72.4047 146.636 72.3942C146.636 72.3837 146.634 72.3734 146.63 72.3638C146.626 72.3541 146.62 72.3455 146.612 72.3382L146.212 71.9582V71.5782L146.676 72.0262C146.683 72.0331 146.692 72.0384 146.701 72.0418C146.71 72.0453 146.72 72.0468 146.73 72.0462C146.741 72.0463 146.751 72.0442 146.761 72.0401C146.77 72.0359 146.779 72.0299 146.786 72.0222C146.794 72.0158 146.8 72.0078 146.804 71.9989C146.808 71.9899 146.81 71.9801 146.81 71.9702C146.809 71.9483 146.8 71.9275 146.784 71.9122L146.2 71.3502L146.18 70.0222L146.69 70.8002C146.697 70.8113 146.707 70.8204 146.718 70.8267C146.73 70.833 146.743 70.8363 146.756 70.8362C146.771 70.8349 146.785 70.8301 146.798 70.8222C146.816 70.8103 146.828 70.7922 146.833 70.7714C146.838 70.7505 146.835 70.7287 146.824 70.7102L146.322 69.9422L147.596 70.6502L147.754 71.3802C147.758 71.3975 147.768 71.4127 147.783 71.4233C147.797 71.4339 147.814 71.4392 147.832 71.4382H147.848C147.858 71.4366 147.868 71.4328 147.877 71.4269C147.886 71.421 147.893 71.4133 147.898 71.4042C147.904 71.3955 147.908 71.3857 147.91 71.3753C147.911 71.3649 147.911 71.3543 147.908 71.3442L147.784 70.7542L148.108 70.9322L148.224 71.4482C148.227 71.4653 148.237 71.4807 148.25 71.4917C148.264 71.5027 148.281 71.5085 148.298 71.5082H148.32C148.33 71.5057 148.339 71.5012 148.348 71.495C148.356 71.4888 148.363 71.4811 148.368 71.4722C148.374 71.4635 148.378 71.4537 148.38 71.4433C148.381 71.433 148.381 71.4223 148.378 71.4122L148.294 71.0402L148.804 71.3242C148.817 71.3267 148.83 71.3267 148.842 71.3242C148.856 71.324 148.87 71.3198 148.882 71.312C148.894 71.3042 148.904 71.2932 148.91 71.2802C148.915 71.2708 148.917 71.2606 148.917 71.2502C148.917 71.2398 148.915 71.2296 148.91 71.2202C148.907 71.2057 148.899 71.1924 148.888 71.1822Z" fill="#EDFCFF"/>
<path d="M81.2841 67.0181H72.6821C72.0613 67.0181 71.5581 67.5213 71.5581 68.1421V71.4681C71.5581 72.0888 72.0613 72.5921 72.6821 72.5921H81.2841C81.9049 72.5921 82.4081 72.0888 82.4081 71.4681V68.1421C82.4081 67.5213 81.9049 67.0181 81.2841 67.0181Z" fill="#093D77"/>
<path d="M81.2741 72.7399H72.6561C72.4908 72.7435 72.3264 72.7134 72.1731 72.6515C72.0198 72.5896 71.8806 72.4972 71.7641 72.3799C71.6456 72.2656 71.5499 72.1299 71.4821 71.9799C71.4128 71.8256 71.3754 71.6589 71.3721 71.4899V68.1559C71.3814 67.82 71.5196 67.5006 71.7581 67.2639C71.8728 67.1505 72.0087 67.0608 72.1581 66.9999C72.3148 66.9357 72.4828 66.9038 72.6521 66.9059H81.2701C81.4381 66.9036 81.6048 66.9356 81.7601 66.9999C81.91 67.0607 82.046 67.1512 82.1601 67.2659C82.2786 67.3801 82.3743 67.5159 82.4421 67.6659C82.5113 67.8202 82.5487 67.9868 82.5521 68.1559V71.4899C82.5487 71.6596 82.5113 71.8269 82.4421 71.9819C82.3763 72.1315 82.2826 72.2673 82.1661 72.3819C82.0473 72.4976 81.9068 72.5886 81.7527 72.6497C81.5985 72.7108 81.4338 72.7407 81.2681 72.7379L81.2741 72.7399ZM82.2601 68.1519C82.2601 67.8904 82.1562 67.6396 81.9713 67.4547C81.7864 67.2698 81.5356 67.1659 81.2741 67.1659H72.6181C72.3566 67.1659 72.1058 67.2698 71.9209 67.4547C71.736 67.6396 71.6321 67.8904 71.6321 68.1519V71.4579C71.6326 71.719 71.7367 71.9693 71.9216 72.1538C72.1064 72.3383 72.3569 72.4419 72.6181 72.4419H81.2741C81.5352 72.4419 81.7857 72.3383 81.9706 72.1538C82.1554 71.9693 82.2595 71.719 82.2601 71.4579V68.1519Z" fill="#14B6B8"/>
<path d="M72.9159 68.9218L72.5879 68.7578V68.0598L72.9159 67.7798V68.9218ZM72.9159 70.1378L72.5879 69.8558V69.1338L72.9159 68.9938V70.1378Z" fill="white"/>
<path d="M73.6678 68.7801L73.3398 68.9221V68.1081L73.5018 67.9681L73.6678 68.1081V68.7801ZM74.6898 70.0001L74.5218 70.1441H73.3998L73.7158 69.8621H74.5158L74.6898 70.0001ZM74.8278 68.9641L74.5238 69.0921H73.7238L73.4158 68.9701L73.7298 68.8101H74.5138L74.8278 68.9641ZM74.6898 67.9321L74.5218 68.0681H73.7218L73.5538 67.9321L73.7218 67.7861H74.5218L74.6898 67.9321ZM74.9038 68.9321L74.5758 68.7901V68.1181L74.7378 67.9781L74.9038 68.1181V68.9321ZM74.9038 69.8181L74.7378 69.9581L74.5758 69.8181V69.1681L74.9038 69.0041V69.8181Z" fill="white"/>
<path d="M75.692 69.4239L75.52 69.4979V69.0699L75.6 68.9999L75.686 69.0739L75.692 69.4239ZM75.692 69.9639L75.606 70.0379L75.52 69.9639V69.5359L75.692 69.6219V69.9639ZM76.314 68.8979L76.142 69.0459H75.722L75.634 68.9739L75.722 68.8979H76.314ZM76.314 70.1379H75.714L75.626 70.0619L75.714 69.9899H76.134L76.314 70.1379Z" fill="white"/>
<path d="M75.3298 68.9619C75.295 68.9619 75.261 68.9515 75.232 68.9322C75.2031 68.9129 75.1805 68.8854 75.1672 68.8532C75.1539 68.8211 75.1504 68.7857 75.1572 68.7515C75.164 68.7174 75.1807 68.686 75.2054 68.6614C75.23 68.6368 75.2613 68.62 75.2955 68.6132C75.3296 68.6065 75.365 68.6099 75.3972 68.6233C75.4293 68.6366 75.4568 68.6591 75.4761 68.6881C75.4955 68.717 75.5058 68.7511 75.5058 68.7859C75.5053 68.8324 75.4866 68.8768 75.4537 68.9097C75.4208 68.9426 75.3763 68.9613 75.3298 68.9619ZM75.3298 68.6639C75.3057 68.6639 75.2821 68.671 75.262 68.6844C75.242 68.6978 75.2263 68.7169 75.2171 68.7392C75.2079 68.7615 75.2054 68.786 75.2102 68.8097C75.2149 68.8333 75.2265 68.8551 75.2435 68.8721C75.2606 68.8892 75.2823 68.9008 75.306 68.9055C75.3297 68.9102 75.3542 68.9078 75.3765 68.8986C75.3988 68.8893 75.4178 68.8737 75.4312 68.8536C75.4447 68.8336 75.4518 68.81 75.4518 68.7859C75.4518 68.7535 75.439 68.7225 75.4161 68.6996C75.3932 68.6767 75.3622 68.6639 75.3298 68.6639Z" fill="white"/>
<path d="M81.9721 70.3618H71.9561C71.9207 70.3618 71.8921 70.3905 71.8921 70.4258V70.4458C71.8921 70.4812 71.9207 70.5098 71.9561 70.5098H81.9721C82.0074 70.5098 82.0361 70.4812 82.0361 70.4458V70.4258C82.0361 70.3905 82.0074 70.3618 81.9721 70.3618Z" fill="white"/>
<path d="M80.0619 68.8339C80.0642 68.824 80.0642 68.8137 80.0619 68.8039V68.7999C80.0859 68.7759 80.1259 68.7419 80.1479 68.7519C80.1699 68.7619 80.2819 68.8719 80.3659 68.7799C80.4499 68.6879 80.4539 68.6099 80.4059 68.5599C80.4059 68.5599 80.2739 68.4299 80.1719 68.4879C80.0699 68.5459 80.0899 68.6739 80.0299 68.7559C80.0188 68.753 80.0071 68.753 79.9959 68.7559C79.9854 68.7538 79.9745 68.7538 79.9639 68.7559C79.9339 68.7379 79.8919 68.7079 79.8979 68.6839C79.9039 68.6599 79.9819 68.5259 79.8739 68.4659C79.7659 68.4059 79.6859 68.4199 79.6499 68.4799C79.6499 68.4799 79.5539 68.6379 79.6359 68.7239C79.7179 68.8099 79.8359 68.7599 79.9299 68.7979C79.929 68.8038 79.929 68.8099 79.9299 68.8159C79.9299 68.8301 79.9341 68.844 79.9419 68.8559C79.9179 68.8799 79.8759 68.9159 79.8539 68.9039C79.8319 68.8919 79.7199 68.7839 79.6359 68.8759C79.5519 68.9679 79.5479 69.0459 79.5979 69.0959C79.5979 69.0959 79.7279 69.2259 79.8319 69.1679C79.9359 69.1099 79.9119 68.9679 79.9879 68.8839H80.0139C80.0379 68.8979 80.1039 68.9379 80.0979 68.9679C80.0919 68.9979 80.0119 69.1259 80.1219 69.1839C80.2319 69.2419 80.3079 69.2299 80.3439 69.1719C80.3439 69.1719 80.4399 69.0139 80.3599 68.9259C80.2799 68.8379 80.1559 68.8799 80.0619 68.8339Z" fill="white"/>
<path d="M80.14 69.5439H79.918V70.1759H80.14V69.5439Z" fill="white"/>
<path d="M80.4018 69.3218H80.2158V70.1758H80.4018V69.3218Z" fill="white"/>
<path d="M80.6978 69.0981H80.5498V70.1761H80.6978V69.0981Z" fill="white"/>
<path d="M81.0341 68.8379H80.8481V70.1759H81.0341V68.8379Z" fill="white"/>
<path d="M81.332 68.6162H81.146V70.1762H81.332V68.6162Z" fill="white"/>
<path d="M76.924 69.6822L76.79 69.7302V69.4562L76.856 69.4082L76.924 69.4562V69.6822ZM76.924 70.0282L76.856 70.0742L76.79 70.0282V69.7542L76.924 69.8082V70.0282ZM77.4 69.3462L77.266 69.4402H76.946L76.878 69.3942L76.946 69.3462H77.4ZM77.4 70.1462H76.94L76.872 70.0982L76.94 70.0522H77.266L77.4 70.1462Z" fill="white"/>
<path d="M77.6159 69.6741L77.4839 69.7301V69.4561L77.5499 69.4081L77.6159 69.4561V69.6741ZM77.6159 70.0281L77.5499 70.0741L77.4839 70.0281V69.7541L77.6159 69.8021V70.0281ZM78.0339 69.4001L77.9659 69.4461H77.6399L77.5719 69.4001L77.6399 69.3521H77.9659L78.0339 69.4001ZM78.0339 70.0961L77.9659 70.1441H77.6399L77.5719 70.0961L77.6399 70.0501H77.9659L78.0339 70.0961ZM78.1199 69.7361L77.9879 69.6801V69.4621L78.0539 69.4141L78.1199 69.4621V69.7361ZM78.1199 70.0341L78.0539 70.0801L77.9879 70.0341V69.8001L78.1199 69.7521V70.0341Z" fill="white"/>
<path d="M78.3879 69.6741L78.2539 69.7301V69.4561L78.3199 69.4081L78.3879 69.4561V69.6741ZM78.3879 70.0281L78.3199 70.0741L78.2539 70.0281V69.7541L78.3879 69.8021V70.0281ZM78.7999 69.4001L78.7319 69.4461H78.4099L78.3419 69.4001L78.4099 69.3521H78.7359L78.7999 69.4001ZM78.7999 70.0961L78.7319 70.1441H78.4099L78.3419 70.0961L78.4099 70.0501H78.7359L78.7999 70.0961ZM78.8879 69.7361L78.7539 69.6801V69.4621L78.8199 69.4141L78.8879 69.4621V69.7361ZM78.8879 70.0341L78.8199 70.0801L78.7539 70.0341V69.8001L78.8879 69.7521V70.0341Z" fill="white"/>
<path d="M79.1579 69.6742L79.0239 69.7302V69.3462L79.1579 69.4402V69.6742ZM79.1579 70.0262L79.0239 70.1242V69.7542L79.1579 69.8022V70.0262ZM79.6419 70.1382H79.0419L79.1779 70.0442H79.5039L79.6419 70.1382Z" fill="white"/>
<path d="M76.6501 67.3901H76.5381V70.4381H76.6501V67.3901Z" fill="white"/>
<path d="M78.6539 71.462L78.5239 71.4V71.13L78.6539 71.02V71.462ZM78.6539 71.936L78.5239 71.826V71.546L78.6539 71.49V71.936Z" fill="white"/>
<path d="M79.1578 71.4001L79.0278 71.4541V71.1401L79.0938 71.0841L79.1578 71.1401V71.4001ZM79.5578 71.8721L79.4918 71.9281H79.0558L79.1818 71.8181H79.4978L79.5578 71.8721ZM79.6118 71.4721L79.4918 71.5201H79.1818L79.0598 71.4721L79.1858 71.4101H79.4958L79.6118 71.4721ZM79.5578 71.0721L79.4918 71.1261H79.1818L79.1138 71.0721L79.1818 71.0161H79.4978L79.5578 71.0721ZM79.6418 71.4581L79.5118 71.4041V71.1441L79.5778 71.0881L79.6418 71.1441V71.4581ZM79.6418 71.8021L79.5778 71.8581L79.5118 71.8021V71.5501L79.6418 71.4861V71.8021Z" fill="white"/>
<path d="M79.8859 71.5278H79.7559V71.3398H79.8859V71.5278ZM79.8859 71.9278H79.7559V71.7278H79.8859V71.9278Z" fill="white"/>
<path d="M80.4641 71.076L80.3981 71.13H80.0821L79.9561 71.02H80.4001L80.4641 71.076ZM80.4641 71.876L80.3981 71.932H79.9561L80.0821 71.822H80.4001L80.4641 71.876ZM80.5201 71.476L80.3981 71.528H80.0821L79.9601 71.476L80.0801 71.418H80.4001L80.5201 71.476ZM80.5501 71.462L80.4201 71.4V71.148L80.4841 71.092L80.5501 71.148V71.462ZM80.5501 71.806L80.4841 71.862L80.4201 71.806V71.546L80.5501 71.49V71.806Z" fill="white"/>
<path d="M80.8619 71.4002L80.7319 71.4622V71.1482L80.7979 71.0922L80.8619 71.1482V71.4002ZM80.8619 71.8002L80.7979 71.8562L80.7319 71.8002V71.4842L80.8619 71.5402V71.8002ZM81.3219 71.4702L81.2019 71.5222H80.8839L80.7619 71.4702L80.8879 71.4102H81.1999L81.3219 71.4702ZM81.3219 71.0142L81.1979 71.1242H80.8799L80.8139 71.0702L80.8799 71.0142H81.3219ZM81.2639 71.8742L81.1979 71.9302H80.8799L80.8139 71.8742L80.8799 71.8202H81.1999L81.2639 71.8742ZM81.3479 71.8002L81.2839 71.8562L81.2179 71.8002V71.5402L81.3479 71.4842V71.8002Z" fill="white"/>
<path d="M73.2738 71.1222C73.2738 71.3002 73.1778 71.3642 73.0578 71.3642C72.9378 71.3642 72.8418 71.3002 72.8418 71.1222C72.8736 70.9708 72.9486 70.8318 73.0578 70.7222C73.167 70.8318 73.242 70.9708 73.2738 71.1222Z" fill="white"/>
<path d="M72.678 71.722L72.604 71.658C72.6592 71.5928 72.7298 71.5423 72.8095 71.5113C72.8891 71.4802 72.9752 71.4694 73.06 71.48C73.114 71.494 73.168 71.514 73.218 71.532C73.3013 71.5758 73.3939 71.5987 73.488 71.5987C73.5821 71.5987 73.6747 71.5758 73.758 71.532L73.802 71.62C73.7103 71.6671 73.609 71.6925 73.506 71.694C73.3947 71.6899 73.2854 71.6641 73.184 71.618C73.132 71.6 73.086 71.58 73.036 71.568C72.852 71.528 72.68 71.72 72.678 71.722Z" fill="white"/>
<path d="M72.678 71.9718L72.604 71.9078C72.6594 71.8428 72.7301 71.7926 72.8097 71.7615C72.8892 71.7305 72.9752 71.7196 73.06 71.7298C73.1137 71.7445 73.1665 71.7625 73.218 71.7838C73.3014 71.8271 73.394 71.8497 73.488 71.8497C73.582 71.8497 73.6746 71.8271 73.758 71.7838L73.802 71.8718C73.7108 71.9204 73.6093 71.9464 73.506 71.9478C73.3949 71.9427 73.2857 71.9169 73.184 71.8718C73.1358 71.8519 73.0864 71.8352 73.036 71.8218C72.852 71.7798 72.68 71.9698 72.678 71.9718Z" fill="white"/>
<path d="M72.678 72.2338L72.604 72.1678C72.6605 72.1047 72.7316 72.0563 72.8111 72.0271C72.8906 71.9978 72.9761 71.9884 73.06 71.9998C73.1137 72.0145 73.1665 72.0326 73.218 72.0538C73.3013 72.0976 73.3939 72.1205 73.488 72.1205C73.5821 72.1205 73.6747 72.0976 73.758 72.0538L73.802 72.1418C73.7108 72.1904 73.6093 72.2165 73.506 72.2178C73.3949 72.2127 73.2857 72.187 73.184 72.1418C73.1358 72.1219 73.0864 72.1052 73.036 72.0918C72.852 72.0398 72.68 72.2318 72.678 72.2338Z" fill="white"/>
<path d="M74.6942 71.2518L74.6282 71.3058H74.1602L74.3122 71.1958H74.6282L74.6942 71.2518ZM74.2942 71.9858L74.2282 72.0398L74.1642 71.9858V71.6678L74.2942 71.7238V71.9858ZM74.7542 71.6538L74.6322 71.7038H74.3102L74.1902 71.6518L74.3102 71.5918H74.6242L74.7542 71.6538ZM74.7842 72.1138H74.3122L74.2462 72.0578L74.3122 72.0038H74.6562L74.7842 72.1138ZM74.7842 71.6398L74.6542 71.5758V71.3238L74.7182 71.2698L74.7842 71.3238V71.6398Z" fill="white"/>
<path d="M75.0382 71.5762L74.9082 71.6402V71.3242L74.9722 71.2702L75.0382 71.3242V71.5762ZM75.0382 71.9862L74.9722 72.0402L74.9082 71.9862V71.6682L75.0382 71.7242V71.9862ZM75.4982 71.6542L75.3782 71.7062H75.0602L74.9382 71.6542L75.0622 71.5942H75.3742L75.4982 71.6542ZM75.4442 71.2542L75.3762 71.3082H75.0602L74.9942 71.2542L75.0602 71.1982H75.3762L75.4442 71.2542ZM75.4442 72.0542L75.3762 72.1102H75.0602L74.9942 72.0542L75.0602 72.0002H75.3762L75.4442 72.0542ZM75.5282 71.6362L75.3982 71.5722V71.3202L75.4622 71.2662L75.5282 71.3202V71.6362ZM75.5282 71.9822L75.4622 72.0362L75.3982 71.9822V71.7202L75.5282 71.6642V71.9822Z" fill="white"/>
<path d="M76.7118 109.554C76.5551 109.552 76.4054 109.489 76.2937 109.379C76.182 109.269 76.1169 109.121 76.1118 108.964C76.0558 107.266 77.1978 106.186 78.1118 105.32C78.7358 104.72 79.2758 104.22 79.2758 103.72C79.2758 103.22 78.6358 102.808 77.9598 102.35C76.9818 101.686 75.7598 100.86 75.7598 99.3501C75.7598 97.6201 77.2018 96.5321 78.2538 95.7401C78.5918 95.4841 79.0538 95.1401 79.1258 94.9821C79.3618 94.0921 78.9458 93.6221 78.9258 93.6021C78.8689 93.5462 78.8238 93.4796 78.793 93.4061C78.7621 93.3326 78.7463 93.2537 78.7463 93.1741C78.7463 93.0944 78.7621 93.0155 78.793 92.942C78.8238 92.8685 78.8689 92.8019 78.9258 92.7461C79.0408 92.6316 79.1965 92.5674 79.3588 92.5674C79.521 92.5674 79.6767 92.6316 79.7918 92.7461C80.1378 93.0941 80.6338 94.0221 80.2918 95.3041C80.1538 95.8241 79.6358 96.2141 78.9798 96.7041C78.0858 97.3781 76.9798 98.2181 76.9798 99.3421C76.9798 100.142 77.6378 100.652 78.6398 101.332C79.5078 101.92 80.4918 102.586 80.4918 103.71C80.4918 104.736 79.7058 105.478 78.9458 106.196C78.0898 106.996 77.2838 107.766 77.3218 108.916C77.3255 108.996 77.3132 109.076 77.2855 109.152C77.2577 109.227 77.2152 109.296 77.1604 109.354C77.1056 109.413 77.0396 109.46 76.9663 109.492C76.893 109.525 76.814 109.543 76.7338 109.544L76.7118 109.554Z" fill="#55F2F4"/>
<path d="M98.2342 109.554C98.0777 109.551 97.9283 109.488 97.8167 109.379C97.7051 109.269 97.6398 109.12 97.6342 108.964C97.5782 107.266 98.7222 106.186 99.6342 105.32C100.258 104.72 100.798 104.22 100.798 103.72C100.798 103.22 100.158 102.808 99.4822 102.35C98.5042 101.686 97.2822 100.86 97.2822 99.3501C97.2822 97.6201 98.7242 96.5321 99.7762 95.7401C100.114 95.4841 100.576 95.1401 100.648 94.9821C100.884 94.0921 100.468 93.6221 100.448 93.6021C100.391 93.5462 100.346 93.4796 100.315 93.4061C100.285 93.3326 100.269 93.2537 100.269 93.1741C100.269 93.0944 100.285 93.0155 100.315 92.942C100.346 92.8685 100.391 92.8019 100.448 92.7461C100.563 92.6316 100.719 92.5674 100.881 92.5674C101.043 92.5674 101.199 92.6316 101.314 92.7461C101.66 93.0941 102.156 94.0221 101.814 95.3041C101.676 95.8241 101.158 96.2141 100.502 96.7041C99.6082 97.3781 98.5022 98.2181 98.5022 99.3421C98.5022 100.142 99.1602 100.652 100.164 101.332C101.03 101.92 102.014 102.586 102.014 103.71C102.014 104.736 101.228 105.478 100.468 106.196C99.6122 106.996 98.8062 107.766 98.8442 108.916C98.848 108.996 98.8356 109.076 98.8079 109.152C98.7802 109.227 98.7377 109.296 98.6829 109.354C98.628 109.413 98.562 109.46 98.4888 109.492C98.4155 109.525 98.3364 109.543 98.2562 109.544L98.2342 109.554Z" fill="#55F2F4"/>
<path d="M119.754 109.554C119.598 109.551 119.448 109.488 119.337 109.379C119.225 109.269 119.16 109.12 119.154 108.964C119.098 107.266 120.242 106.186 121.154 105.32C121.778 104.72 122.318 104.22 122.318 103.72C122.318 103.22 121.678 102.808 121.002 102.35C120.024 101.686 118.802 100.86 118.802 99.3501C118.802 97.6201 120.244 96.5321 121.296 95.7401C121.636 95.4841 122.096 95.1401 122.168 94.9821C122.404 94.0921 121.988 93.6221 121.968 93.6021C121.911 93.5462 121.866 93.4796 121.835 93.4061C121.805 93.3326 121.789 93.2537 121.789 93.1741C121.789 93.0944 121.805 93.0155 121.835 92.942C121.866 92.8685 121.911 92.8019 121.968 92.7461C122.083 92.6316 122.239 92.5674 122.401 92.5674C122.564 92.5674 122.719 92.6316 122.834 92.7461C123.18 93.0941 123.676 94.0221 123.334 95.3041C123.196 95.8241 122.678 96.2141 122.022 96.7041C121.128 97.3781 120.022 98.2181 120.022 99.3421C120.022 100.142 120.68 100.652 121.684 101.332C122.55 101.92 123.534 102.586 123.534 103.71C123.534 104.736 122.748 105.478 121.988 106.196C121.134 106.996 120.326 107.766 120.364 108.916C120.368 108.996 120.356 109.076 120.328 109.152C120.3 109.227 120.258 109.296 120.203 109.354C120.148 109.413 120.082 109.46 120.009 109.492C119.936 109.525 119.856 109.543 119.776 109.544L119.754 109.554Z" fill="#55F2F4"/>
<path d="M141.274 109.554C141.116 109.554 140.965 109.492 140.853 109.382C140.741 109.272 140.676 109.121 140.674 108.964C140.616 107.266 141.76 106.186 142.674 105.32C143.298 104.72 143.838 104.22 143.838 103.72C143.838 103.22 143.198 102.808 142.522 102.35C141.544 101.686 140.322 100.86 140.322 99.3501C140.322 97.6201 141.764 96.5321 142.816 95.7401C143.156 95.4841 143.616 95.1401 143.688 94.9821C143.924 94.0921 143.508 93.6221 143.488 93.6021C143.431 93.5462 143.386 93.4796 143.355 93.4061C143.324 93.3326 143.308 93.2537 143.308 93.1741C143.308 93.0944 143.324 93.0155 143.355 92.942C143.386 92.8685 143.431 92.8019 143.488 92.7461C143.603 92.6316 143.759 92.5674 143.921 92.5674C144.083 92.5674 144.239 92.6316 144.354 92.7461C144.7 93.0941 145.196 94.0221 144.854 95.3041C144.716 95.8241 144.198 96.2141 143.544 96.7041C142.648 97.3781 141.534 98.2181 141.534 99.3421C141.534 100.142 142.192 100.652 143.196 101.332C144.064 101.92 145.046 102.586 145.046 103.71C145.046 104.736 144.26 105.478 143.5 106.196C142.646 106.996 141.838 107.766 141.876 108.916C141.88 108.996 141.867 109.076 141.839 109.152C141.812 109.227 141.769 109.296 141.714 109.354C141.66 109.413 141.594 109.46 141.52 109.492C141.447 109.525 141.368 109.543 141.288 109.544L141.274 109.554Z" fill="#55F2F4"/>
</svg>
