<svg width="220" height="220" viewBox="0 0 220 220" fill="none" xmlns="http://www.w3.org/2000/svg">
<rect x="0.5" y="0.5" width="219" height="219" rx="19.5" fill="white" stroke="#093D77"/>
<path d="M81.0113 172L87.4013 152.38H91.4813L97.8713 172H94.2113L91.2113 161.56C90.8913 160.52 90.5813 159.45 90.2813 158.35C90.0013 157.25 89.7213 156.16 89.4413 155.08H89.3213C89.0613 156.18 88.7813 157.28 88.4813 158.38C88.2013 159.46 87.9013 160.52 87.5813 161.56L84.5513 172H81.0113ZM84.7913 166.69V163.96H94.0313V166.69H84.7913ZM104.711 172.3C103.011 172.3 101.801 171.81 101.081 170.83C100.381 169.83 100.031 168.54 100.031 166.96V160H97.9311V157.42L100.211 157.27L100.631 152.65H103.511V157.27H107.261V160H103.511V166.96C103.511 167.82 103.681 168.47 104.021 168.91C104.361 169.33 104.881 169.54 105.581 169.54C105.841 169.54 106.101 169.52 106.361 169.48C106.621 169.44 106.871 169.36 107.111 169.24L107.741 171.67C107.361 171.85 106.911 172 106.391 172.12C105.871 172.24 105.311 172.3 104.711 172.3ZM113.286 172.36C112.426 172.36 111.666 172.18 111.006 171.82C110.346 171.46 109.826 170.96 109.446 170.32C109.086 169.66 108.906 168.9 108.906 168.04C108.906 166.38 109.596 165.13 110.976 164.29C112.376 163.43 114.586 162.84 117.606 162.52C117.586 162.02 117.486 161.56 117.306 161.14C117.146 160.72 116.866 160.39 116.466 160.15C116.086 159.89 115.566 159.76 114.906 159.76C114.186 159.76 113.476 159.89 112.776 160.15C112.096 160.41 111.426 160.74 110.766 161.14L109.506 158.8C110.046 158.46 110.636 158.15 111.276 157.87C111.916 157.57 112.596 157.34 113.316 157.18C114.036 157 114.786 156.91 115.566 156.91C116.786 156.91 117.796 157.16 118.596 157.66C119.416 158.14 120.026 158.86 120.426 159.82C120.846 160.76 121.056 161.92 121.056 163.3V172H118.206L117.966 170.38H117.846C117.166 170.94 116.456 171.41 115.716 171.79C114.976 172.17 114.166 172.36 113.286 172.36ZM114.366 169.54C114.966 169.54 115.516 169.42 116.016 169.18C116.536 168.92 117.066 168.54 117.606 168.04V164.92C116.266 165.08 115.206 165.29 114.426 165.55C113.646 165.81 113.086 166.13 112.746 166.51C112.426 166.87 112.266 167.3 112.266 167.8C112.266 168.42 112.466 168.87 112.866 169.15C113.266 169.41 113.766 169.54 114.366 169.54ZM125.185 177.82V157.27H128.035L128.275 158.83H128.395C129.015 158.29 129.705 157.84 130.465 157.48C131.225 157.1 132.015 156.91 132.835 156.91C134.055 156.91 135.095 157.22 135.955 157.84C136.815 158.46 137.475 159.33 137.935 160.45C138.395 161.57 138.625 162.89 138.625 164.41C138.625 166.09 138.325 167.52 137.725 168.7C137.125 169.88 136.345 170.79 135.385 171.43C134.445 172.05 133.425 172.36 132.325 172.36C131.685 172.36 131.045 172.22 130.405 171.94C129.765 171.66 129.145 171.26 128.545 170.74L128.635 173.2V177.82H125.185ZM131.605 169.51C132.265 169.51 132.855 169.32 133.375 168.94C133.895 168.56 134.305 168 134.605 167.26C134.905 166.5 135.055 165.56 135.055 164.44C135.055 163.46 134.945 162.62 134.725 161.92C134.505 161.22 134.155 160.69 133.675 160.33C133.215 159.95 132.615 159.76 131.875 159.76C131.335 159.76 130.805 159.9 130.285 160.18C129.765 160.44 129.215 160.85 128.635 161.41V168.28C129.175 168.72 129.695 169.04 130.195 169.24C130.715 169.42 131.185 169.51 131.605 169.51Z" fill="black"/>
<path d="M114.062 102.97H71.5498L92.8058 69.0762L114.062 102.97Z" fill="#14B6B8"/>
<path d="M116.414 102.97H73.8999L95.1559 69.0762L116.414 102.97Z" fill="#64F9FB" fill-opacity="0.43"/>
<path d="M119.94 102.97H77.4258L98.6838 69.0762L119.94 102.97Z" fill="#FFEDD2" fill-opacity="0.46"/>
<path d="M148.45 103.068L114.062 102.97L92.8062 69.0756L129.18 68.9316L148.45 103.068Z" fill="#093D77"/>
<path d="M114.452 74.934H102.83L101.42 71.958H113.042L114.452 74.934Z" fill="#14B6B8"/>
<path d="M127.484 74.934H115.86L114.452 71.958H126.074L127.484 74.934Z" fill="#14B6B8"/>
<path d="M134.54 97.2582H122.916L121.508 94.2822H133.13L134.54 97.2582Z" fill="#14B6B8"/>
<path d="M143.018 101.01H131.394L129.986 98.0342H141.608L143.018 101.01Z" fill="#14B6B8"/>
<path d="M101.42 86.9355H89.1519V103.068H101.42V86.9355Z" fill="#64F9FB" fill-opacity="0.43"/>
<path d="M99.9501 88.4717H90.6201V103.068H99.9501V88.4717Z" fill="#14B6B8"/>
<path d="M95.8278 87.542H94.5518V103.068H95.8278V87.542Z" fill="#FFE0B4" fill-opacity="0.47"/>
<path d="M138.912 93.4595L117.26 93.6375L106.74 77.2415L127.766 76.9775L138.912 93.4595Z" fill="#14B6B8"/>
<path d="M135.898 91.7963L118.302 91.9403L109.754 78.6163L126.84 78.4023L135.898 91.7963Z" fill="#EDFCFF"/>
<path d="M126.648 92.7264L127.988 91.9346L119.573 77.6999L118.233 78.4917L126.648 92.7264Z" fill="#14B6B8"/>
<path d="M132.446 85.8977L132.43 84.3418L113.055 84.5413L113.071 86.0972L132.446 85.8977Z" fill="#14B6B8"/>
</svg>
