<svg width="220" height="220" viewBox="0 0 220 220" fill="none" xmlns="http://www.w3.org/2000/svg">
<rect x="0.5" y="0.5" width="219" height="219" rx="19.5" fill="white" stroke="#093D77"/>
<path d="M131.084 108.93H128.904V117.138H131.084V108.93Z" fill="#D48818"/>
<path d="M129.994 113.174C133.02 113.174 135.472 110.721 135.472 107.696C135.472 104.67 133.02 102.218 129.994 102.218C126.969 102.218 124.516 104.67 124.516 107.696C124.516 110.721 126.969 113.174 129.994 113.174Z" fill="#14B6B8"/>
<path d="M131.252 110.66C130.178 110.669 129.141 110.269 128.352 109.539C127.563 108.81 127.082 107.807 127.007 106.736C126.932 105.664 127.269 104.604 127.949 103.772C128.629 102.941 129.601 102.4 130.666 102.26C130.443 102.23 130.219 102.215 129.994 102.214C128.91 102.213 127.85 102.535 126.949 103.137C126.047 103.739 125.345 104.594 124.93 105.596C124.515 106.597 124.406 107.699 124.617 108.762C124.829 109.826 125.351 110.802 126.117 111.569C126.884 112.335 127.86 112.857 128.924 113.069C129.987 113.28 131.089 113.171 132.09 112.756C133.092 112.341 133.947 111.639 134.549 110.737C135.151 109.836 135.473 108.776 135.472 107.692C135.471 107.467 135.456 107.243 135.428 107.02C135.289 108.028 134.789 108.952 134.022 109.622C133.254 110.291 132.27 110.659 131.252 110.66Z" fill="#093D77"/>
<path d="M117.42 54.7559H103.03V60.4499H117.42V54.7559Z" fill="#093D77"/>
<path d="M122.5 54.7559H110.756V60.4499H122.5V54.7559Z" fill="#FF9E29"/>
<path d="M119.262 57.6035H99.1841V65.5455H119.262V57.6035Z" fill="#14B6B8"/>
<path d="M126.348 57.6035H109.962V65.5455H126.348V57.6035Z" fill="#F1C40F"/>
<path d="M121.006 62.0195H95.5361V117.244H121.006V62.0195Z" fill="#14B6B8"/>
<path d="M95.5361 117.244V62.0195H109.208L95.5361 117.244Z" fill="#093D77"/>
<path d="M129.994 62.0195H109.208V117.244H129.994V62.0195Z" fill="#FF9E29"/>
<path d="M114.342 62.3682H109.584V67.1262H114.342V62.3682Z" fill="#FFE88C"/>
<path d="M119.426 62.3682H114.668V67.1262H119.426V62.3682Z" fill="#FFE88C"/>
<path d="M124.508 62.3682H119.75V67.1262H124.508V62.3682Z" fill="#FFE88C"/>
<path d="M129.592 62.3682H124.834V67.1262H129.592V62.3682Z" fill="#FFE88C"/>
<path d="M114.342 67.4258H109.584V72.1838H114.342V67.4258Z" fill="#FFE88C"/>
<path d="M119.426 67.4258H114.668V72.1838H119.426V67.4258Z" fill="#FFE88C"/>
<path d="M124.508 67.4258H119.75V72.1838H124.508V67.4258Z" fill="#FFE88C"/>
<path d="M129.592 67.4258H124.834V72.1838H129.592V67.4258Z" fill="#FFE88C"/>
<path d="M114.342 72.4844H109.584V77.2424H114.342V72.4844Z" fill="#FFE88C"/>
<path d="M119.426 72.4844H114.668V77.2424H119.426V72.4844Z" fill="#FFE88C"/>
<path d="M124.508 72.4844H119.75V77.2424H124.508V72.4844Z" fill="#FFE88C"/>
<path d="M129.592 72.4844H124.834V77.2424H129.592V72.4844Z" fill="#FFE88C"/>
<path d="M114.342 77.54H109.584V82.298H114.342V77.54Z" fill="#FFE88C"/>
<path d="M119.426 77.54H114.668V82.298H119.426V77.54Z" fill="#FFE88C"/>
<path d="M124.508 77.54H119.75V82.298H124.508V77.54Z" fill="#FFE88C"/>
<path d="M129.592 77.54H124.834V82.298H129.592V77.54Z" fill="#FFE88C"/>
<path d="M114.342 82.5977H109.584V87.3557H114.342V82.5977Z" fill="#FFE88C"/>
<path d="M119.426 82.5977H114.668V87.3557H119.426V82.5977Z" fill="#FFE88C"/>
<path d="M124.508 82.5977H119.75V87.3557H124.508V82.5977Z" fill="#FFE88C"/>
<path d="M129.592 82.5977H124.834V87.3557H129.592V82.5977Z" fill="#FFE88C"/>
<path d="M114.342 87.6562H109.584V92.4143H114.342V87.6562Z" fill="#FFE88C"/>
<path d="M119.426 87.6562H114.668V92.4143H119.426V87.6562Z" fill="#FFE88C"/>
<path d="M124.508 87.6562H119.75V92.4143H124.508V87.6562Z" fill="#FFE88C"/>
<path d="M129.592 87.6562H124.834V92.4143H129.592V87.6562Z" fill="#FFE88C"/>
<path d="M114.342 92.7139H109.584V97.4719H114.342V92.7139Z" fill="#FFE88C"/>
<path d="M119.426 92.7139H114.668V97.4719H119.426V92.7139Z" fill="#FFE88C"/>
<path d="M124.508 92.7139H119.75V97.4719H124.508V92.7139Z" fill="#FFE88C"/>
<path d="M129.592 92.7139H124.834V97.4719H129.592V92.7139Z" fill="#FFE88C"/>
<path d="M114.342 97.7725H109.584V102.53H114.342V97.7725Z" fill="#FFE88C"/>
<path d="M119.426 97.7725H114.668V102.53H119.426V97.7725Z" fill="#FFE88C"/>
<path d="M124.508 97.7725H119.75V102.53H124.508V97.7725Z" fill="#FFE88C"/>
<path d="M129.592 97.7725H124.834V102.53H129.592V97.7725Z" fill="#FFE88C"/>
<path d="M114.342 102.83H109.584V107.588H114.342V102.83Z" fill="#FFE88C"/>
<path d="M119.426 102.83H114.668V107.588H119.426V102.83Z" fill="#FFE88C"/>
<path d="M124.508 102.83H119.75V107.588H124.508V102.83Z" fill="#FFE88C"/>
<path d="M129.592 102.83H124.834V107.588H129.592V102.83Z" fill="#FFE88C"/>
<path d="M129.232 106.716H108.27V109.282H129.232V106.716Z" fill="#A7F0FF"/>
<path d="M126.966 109.282H112.536V117.244H126.966V109.282Z" fill="#0E7D7E"/>
<path d="M126.966 109.282H125.244V117.244H126.966V109.282Z" fill="#093D77"/>
<path d="M131.706 106.716H110.744V109.282H131.706V106.716Z" fill="#14B6B8" fill-opacity="0.58"/>
<path d="M96.6258 109.01H94.4458V117.218H96.6258V109.01Z" fill="#D48818"/>
<path d="M95.5361 98.7197L90.5361 112.048H100.536L95.5361 98.7197Z" fill="#14B6B8"/>
<path d="M95.5361 98.7197L90.5361 112.048H93.9001L95.5361 98.7197Z" fill="#093D77"/>
<path d="M89.3618 110.702H87.6318V117.22H89.3618V110.702Z" fill="#D48818"/>
<path d="M88.4978 102.53L84.5278 113.112H92.4678L88.4978 102.53Z" fill="#14B6B8"/>
<path d="M88.4978 102.53L84.5278 113.112H87.1978L88.4978 102.53Z" fill="#093D77"/>
<path d="M105.102 113.96H98.644V117.244H105.102V113.96Z" fill="#A7F0FF"/>
<path d="M106.994 113.96H100.536V117.244H106.994V113.96Z" fill="#14B6B8" fill-opacity="0.58"/>
<path d="M7.5359 172V152.38H13.8059C15.1659 152.38 16.3659 152.54 17.4059 152.86C18.4659 153.16 19.2959 153.66 19.8959 154.36C20.5159 155.06 20.8259 156.01 20.8259 157.21C20.8259 158.21 20.5859 159.1 20.1059 159.88C19.6459 160.64 18.9759 161.17 18.0959 161.47V161.59C19.2559 161.83 20.1659 162.32 20.8259 163.06C21.5059 163.78 21.8459 164.79 21.8459 166.09C21.8459 167.43 21.5159 168.54 20.8559 169.42C20.2159 170.3 19.3259 170.95 18.1859 171.37C17.0459 171.79 15.7559 172 14.3159 172H7.5359ZM11.0159 160.48H13.5059C14.8659 160.48 15.8559 160.23 16.4759 159.73C17.0959 159.23 17.4059 158.56 17.4059 157.72C17.4059 156.76 17.0859 156.08 16.4459 155.68C15.8059 155.28 14.8459 155.08 13.5659 155.08H11.0159V160.48ZM11.0159 169.3H13.9559C15.3959 169.3 16.5059 169.04 17.2859 168.52C18.0659 167.98 18.4559 167.16 18.4559 166.06C18.4559 165.02 18.0759 164.27 17.3159 163.81C16.5559 163.33 15.4359 163.09 13.9559 163.09H11.0159V169.3ZM28.7063 172.36C27.8463 172.36 27.0863 172.18 26.4263 171.82C25.7663 171.46 25.2463 170.96 24.8663 170.32C24.5063 169.66 24.3263 168.9 24.3263 168.04C24.3263 166.38 25.0163 165.13 26.3963 164.29C27.7963 163.43 30.0063 162.84 33.0263 162.52C33.0063 162.02 32.9063 161.56 32.7263 161.14C32.5663 160.72 32.2863 160.39 31.8863 160.15C31.5063 159.89 30.9863 159.76 30.3263 159.76C29.6063 159.76 28.8963 159.89 28.1963 160.15C27.5163 160.41 26.8463 160.74 26.1863 161.14L24.9263 158.8C25.4663 158.46 26.0563 158.15 26.6963 157.87C27.3363 157.57 28.0163 157.34 28.7363 157.18C29.4563 157 30.2063 156.91 30.9863 156.91C32.2063 156.91 33.2163 157.16 34.0163 157.66C34.8363 158.14 35.4463 158.86 35.8463 159.82C36.2663 160.76 36.4763 161.92 36.4763 163.3V172H33.6263L33.3863 170.38H33.2663C32.5863 170.94 31.8763 171.41 31.1363 171.79C30.3963 172.17 29.5863 172.36 28.7063 172.36ZM29.7863 169.54C30.3863 169.54 30.9363 169.42 31.4363 169.18C31.9563 168.92 32.4863 168.54 33.0263 168.04V164.92C31.6863 165.08 30.6263 165.29 29.8463 165.55C29.0663 165.81 28.5063 166.13 28.1663 166.51C27.8463 166.87 27.6863 167.3 27.6863 167.8C27.6863 168.42 27.8863 168.87 28.2863 169.15C28.6863 169.41 29.1863 169.54 29.7863 169.54ZM40.605 172V157.27H43.455L43.695 159.25H43.815C44.475 158.61 45.195 158.06 45.975 157.6C46.755 157.14 47.645 156.91 48.645 156.91C50.225 156.91 51.375 157.42 52.095 158.44C52.815 159.46 53.175 160.9 53.175 162.76V172H49.725V163.21C49.725 161.99 49.545 161.13 49.185 160.63C48.825 160.13 48.235 159.88 47.415 159.88C46.775 159.88 46.205 160.04 45.705 160.36C45.225 160.66 44.675 161.11 44.055 161.71V172H40.605ZM62.5221 178.51C61.3421 178.51 60.2921 178.37 59.3721 178.09C58.4521 177.81 57.7221 177.38 57.1821 176.8C56.6621 176.24 56.4021 175.53 56.4021 174.67C56.4021 174.05 56.5821 173.47 56.9421 172.93C57.3221 172.41 57.8421 171.94 58.5021 171.52V171.4C58.1421 171.16 57.8321 170.84 57.5721 170.44C57.3121 170.04 57.1821 169.54 57.1821 168.94C57.1821 168.38 57.3421 167.86 57.6621 167.38C58.0021 166.9 58.3821 166.51 58.8021 166.21V166.09C58.3021 165.71 57.8521 165.18 57.4521 164.5C57.0721 163.82 56.8821 163.05 56.8821 162.19C56.8821 161.07 57.1521 160.12 57.6921 159.34C58.2321 158.54 58.9421 157.94 59.8221 157.54C60.7021 157.12 61.6621 156.91 62.7021 156.91C63.1021 156.91 63.4921 156.94 63.8721 157C64.2521 157.06 64.5821 157.15 64.8621 157.27H70.1421V159.82H67.3821V159.94C67.6621 160.24 67.8821 160.59 68.0421 160.99C68.2021 161.37 68.2821 161.82 68.2821 162.34C68.2821 163.42 68.0321 164.33 67.5321 165.07C67.0321 165.81 66.3621 166.37 65.5221 166.75C64.6821 167.13 63.7421 167.32 62.7021 167.32C62.3821 167.32 62.0521 167.29 61.7121 167.23C61.3721 167.17 61.0321 167.07 60.6921 166.93C60.4921 167.13 60.3221 167.33 60.1821 167.53C60.0421 167.73 59.9721 168 59.9721 168.34C59.9721 168.76 60.1521 169.09 60.5121 169.33C60.8721 169.57 61.4921 169.69 62.3721 169.69H64.9821C66.7621 169.69 68.1021 169.98 69.0021 170.56C69.9221 171.12 70.3821 172.04 70.3821 173.32C70.3821 174.28 70.0621 175.15 69.4221 175.93C68.7821 176.73 67.8721 177.36 66.6921 177.82C65.5121 178.28 64.1221 178.51 62.5221 178.51ZM62.7021 165.16C63.1621 165.16 63.5821 165.05 63.9621 164.83C64.3621 164.59 64.6721 164.25 64.8921 163.81C65.1321 163.35 65.2521 162.81 65.2521 162.19C65.2521 161.25 65.0021 160.53 64.5021 160.03C64.0221 159.53 63.4221 159.28 62.7021 159.28C61.9821 159.28 61.3721 159.53 60.8721 160.03C60.3721 160.53 60.1221 161.25 60.1221 162.19C60.1221 162.81 60.2421 163.35 60.4821 163.81C60.7221 164.25 61.0321 164.59 61.4121 164.83C61.7921 165.05 62.2221 165.16 62.7021 165.16ZM63.0621 176.26C63.8421 176.26 64.5321 176.15 65.1321 175.93C65.7321 175.73 66.2021 175.44 66.5421 175.06C66.8821 174.7 67.0521 174.31 67.0521 173.89C67.0521 173.31 66.8221 172.92 66.3621 172.72C65.9221 172.52 65.2821 172.42 64.4421 172.42H62.4321C62.0321 172.42 61.6721 172.4 61.3521 172.36C61.0321 172.32 60.7221 172.27 60.4221 172.21C60.0421 172.51 59.7521 172.82 59.5521 173.14C59.3721 173.46 59.2821 173.8 59.2821 174.16C59.2821 174.82 59.6221 175.33 60.3021 175.69C60.9821 176.07 61.9021 176.26 63.0621 176.26ZM77.3581 172.36C75.7781 172.36 74.6281 171.85 73.9081 170.83C73.1881 169.81 72.8281 168.37 72.8281 166.51V157.27H76.2781V166.06C76.2781 167.28 76.4581 168.14 76.8181 168.64C77.1781 169.14 77.7581 169.39 78.5581 169.39C79.1981 169.39 79.7581 169.23 80.2381 168.91C80.7381 168.59 81.2681 168.07 81.8281 167.35V157.27H85.2781V172H82.4581L82.1881 169.84H82.0981C81.4581 170.6 80.7581 171.21 79.9981 171.67C79.2381 172.13 78.3581 172.36 77.3581 172.36ZM89.648 172V157.27H92.498L92.738 159.25H92.858C93.518 158.61 94.238 158.06 95.018 157.6C95.798 157.14 96.688 156.91 97.688 156.91C99.268 156.91 100.418 157.42 101.138 158.44C101.858 159.46 102.218 160.9 102.218 162.76V172H98.768V163.21C98.768 161.99 98.588 161.13 98.228 160.63C97.868 160.13 97.278 159.88 96.458 159.88C95.818 159.88 95.248 160.04 94.748 160.36C94.268 160.66 93.718 161.11 93.098 161.71V172H89.648ZM110.005 172.36C109.145 172.36 108.385 172.18 107.725 171.82C107.065 171.46 106.545 170.96 106.165 170.32C105.805 169.66 105.625 168.9 105.625 168.04C105.625 166.38 106.315 165.13 107.695 164.29C109.095 163.43 111.305 162.84 114.325 162.52C114.305 162.02 114.205 161.56 114.025 161.14C113.865 160.72 113.585 160.39 113.185 160.15C112.805 159.89 112.285 159.76 111.625 159.76C110.905 159.76 110.195 159.89 109.495 160.15C108.815 160.41 108.145 160.74 107.485 161.14L106.225 158.8C106.765 158.46 107.355 158.15 107.995 157.87C108.635 157.57 109.315 157.34 110.035 157.18C110.755 157 111.505 156.91 112.285 156.91C113.505 156.91 114.515 157.16 115.315 157.66C116.135 158.14 116.745 158.86 117.145 159.82C117.565 160.76 117.775 161.92 117.775 163.3V172H114.925L114.685 170.38H114.565C113.885 170.94 113.175 171.41 112.435 171.79C111.695 172.17 110.885 172.36 110.005 172.36ZM111.085 169.54C111.685 169.54 112.235 169.42 112.735 169.18C113.255 168.92 113.785 168.54 114.325 168.04V164.92C112.985 165.08 111.925 165.29 111.145 165.55C110.365 165.81 109.805 166.13 109.465 166.51C109.145 166.87 108.985 167.3 108.985 167.8C108.985 168.42 109.185 168.87 109.585 169.15C109.985 169.41 110.485 169.54 111.085 169.54ZM121.904 172V157.27H124.754L124.994 159.25H125.114C125.774 158.61 126.494 158.06 127.274 157.6C128.054 157.14 128.944 156.91 129.944 156.91C131.524 156.91 132.674 157.42 133.394 158.44C134.114 159.46 134.474 160.9 134.474 162.76V172H131.024V163.21C131.024 161.99 130.844 161.13 130.484 160.63C130.124 160.13 129.534 159.88 128.714 159.88C128.074 159.88 127.504 160.04 127.004 160.36C126.524 160.66 125.974 161.11 125.354 161.71V172H121.904ZM142.867 176.8L149.857 150.7H152.197L145.207 176.8H142.867ZM167.045 172.36C165.685 172.36 164.395 172.11 163.175 171.61C161.975 171.11 160.905 170.4 159.965 169.48L161.855 167.2C162.555 167.88 163.365 168.41 164.285 168.79C165.225 169.15 166.165 169.33 167.105 169.33C168.225 169.33 169.075 169.1 169.655 168.64C170.235 168.18 170.525 167.57 170.525 166.81C170.525 166.27 170.395 165.84 170.135 165.52C169.875 165.18 169.515 164.89 169.055 164.65C168.615 164.41 168.095 164.17 167.495 163.93L164.795 162.76C164.155 162.48 163.525 162.12 162.905 161.68C162.305 161.22 161.805 160.66 161.405 160C161.025 159.32 160.835 158.5 160.835 157.54C160.835 156.5 161.115 155.57 161.675 154.75C162.255 153.91 163.035 153.25 164.015 152.77C165.015 152.27 166.155 152.02 167.435 152.02C168.615 152.02 169.725 152.24 170.765 152.68C171.825 153.1 172.725 153.68 173.465 154.42L171.635 156.7C170.995 156.18 170.325 155.78 169.625 155.5C168.925 155.2 168.195 155.05 167.435 155.05C166.515 155.05 165.765 155.26 165.185 155.68C164.625 156.08 164.345 156.64 164.345 157.36C164.345 157.86 164.485 158.28 164.765 158.62C165.065 158.94 165.455 159.22 165.935 159.46C166.435 159.68 166.945 159.9 167.465 160.12L170.135 161.23C170.915 161.57 171.605 161.97 172.205 162.43C172.805 162.89 173.265 163.45 173.585 164.11C173.925 164.77 174.095 165.58 174.095 166.54C174.095 167.6 173.815 168.57 173.255 169.45C172.695 170.33 171.885 171.04 170.825 171.58C169.785 172.1 168.525 172.36 167.045 172.36ZM177.363 172V157.27H180.813V172H177.363ZM179.073 154.69C178.473 154.69 177.973 154.51 177.573 154.15C177.193 153.79 177.003 153.31 177.003 152.71C177.003 152.11 177.193 151.64 177.573 151.3C177.973 150.94 178.473 150.76 179.073 150.76C179.693 150.76 180.193 150.94 180.573 151.3C180.953 151.64 181.143 152.11 181.143 152.71C181.143 153.31 180.953 153.79 180.573 154.15C180.193 154.51 179.693 154.69 179.073 154.69ZM185.214 177.82V157.27H188.064L188.304 158.83H188.424C189.044 158.29 189.734 157.84 190.494 157.48C191.254 157.1 192.044 156.91 192.864 156.91C194.084 156.91 195.124 157.22 195.984 157.84C196.844 158.46 197.504 159.33 197.964 160.45C198.424 161.57 198.654 162.89 198.654 164.41C198.654 166.09 198.354 167.52 197.754 168.7C197.154 169.88 196.374 170.79 195.414 171.43C194.474 172.05 193.454 172.36 192.354 172.36C191.714 172.36 191.074 172.22 190.434 171.94C189.794 171.66 189.174 171.26 188.574 170.74L188.664 173.2V177.82H185.214ZM191.634 169.51C192.294 169.51 192.884 169.32 193.404 168.94C193.924 168.56 194.334 168 194.634 167.26C194.934 166.5 195.084 165.56 195.084 164.44C195.084 163.46 194.974 162.62 194.754 161.92C194.534 161.22 194.184 160.69 193.704 160.33C193.244 159.95 192.644 159.76 191.904 159.76C191.364 159.76 190.834 159.9 190.314 160.18C189.794 160.44 189.244 160.85 188.664 161.41V168.28C189.204 168.72 189.724 169.04 190.224 169.24C190.744 169.42 191.214 169.51 191.634 169.51ZM202.148 172V157.27H205.598V172H202.148ZM203.858 154.69C203.258 154.69 202.758 154.51 202.358 154.15C201.978 153.79 201.788 153.31 201.788 152.71C201.788 152.11 201.978 151.64 202.358 151.3C202.758 150.94 203.258 150.76 203.858 150.76C204.478 150.76 204.978 150.94 205.358 151.3C205.738 151.64 205.928 152.11 205.928 152.71C205.928 153.31 205.738 153.79 205.358 154.15C204.978 154.51 204.478 154.69 203.858 154.69ZM213.36 172.3C212.54 172.3 211.88 172.14 211.38 171.82C210.9 171.48 210.55 171 210.33 170.38C210.11 169.76 210 169.02 210 168.16V150.82H213.45V168.34C213.45 168.78 213.53 169.08 213.69 169.24C213.85 169.4 214.03 169.48 214.23 169.48C214.31 169.48 214.38 169.48 214.44 169.48C214.52 169.46 214.62 169.44 214.74 169.42L215.19 172C214.99 172.08 214.73 172.15 214.41 172.21C214.11 172.27 213.76 172.3 213.36 172.3Z" fill="black"/>
</svg>
