<svg width="220" height="220" viewBox="0 0 220 220" fill="none" xmlns="http://www.w3.org/2000/svg">
<rect x="0.5" y="0.5" width="219" height="219" rx="19.5" fill="white" stroke="#093D77"/>
<path d="M118.59 66.2275H100.616V79.8895H118.59V66.2275Z" fill="#979797"/>
<path d="M118.6 66.2279C118.6 67.3179 114.576 68.2019 109.612 68.2019C104.648 68.2019 100.626 67.3179 100.626 66.2279C100.626 65.1379 104.65 64.2559 109.612 64.2559C114.574 64.2559 118.6 65.1399 118.6 66.2279Z" fill="#6E6E6E"/>
<path d="M110.6 73.0601C107.26 73.6341 103.072 70.7601 100.616 68.7461V79.8921C100.616 80.9821 104.64 81.8641 109.602 81.8641C114.564 81.8641 118.6 80.9821 118.6 79.8921V70.1461C116.436 71.2421 113.4 72.5781 110.6 73.0601Z" fill="#808484"/>
<path d="M109.304 64.2578C104.478 64.2918 100.616 65.1618 100.616 66.2278C100.616 67.2598 104.216 68.1078 108.816 68.1938C108.752 66.8635 108.917 65.5321 109.304 64.2578Z" fill="#5C5E5E"/>
<path d="M109.6 64.2559C104.638 64.2559 100.614 65.1399 100.614 66.2279C100.614 67.3159 104.64 68.1999 109.6 68.1999C114.56 68.1999 118.6 67.3179 118.6 66.2279C118.6 65.1379 114.566 64.2559 109.6 64.2559ZM109.6 67.8899C103.904 67.8899 100.924 66.8079 100.924 66.2279C100.924 65.6479 103.904 64.5679 109.6 64.5679C115.296 64.5679 118.276 65.6479 118.276 66.2279C118.276 66.8079 115.298 67.8899 109.6 67.8899Z" fill="#ACB7B7"/>
<path d="M111.94 68.8941C111.941 68.9137 111.937 68.9332 111.93 68.9514C111.922 68.9696 111.911 68.9861 111.898 69.0001C111.884 69.014 111.867 69.0251 111.849 69.0327C111.831 69.0402 111.812 69.0441 111.792 69.0441C111.771 69.0466 111.75 69.0445 111.73 69.0381C111.71 69.0318 111.691 69.0212 111.675 69.0071C111.659 68.9931 111.647 68.9758 111.638 68.9565C111.629 68.9372 111.625 68.9163 111.625 68.8951C111.625 68.874 111.629 68.853 111.638 68.8337C111.647 68.8144 111.659 68.7972 111.675 68.7831C111.691 68.769 111.71 68.7585 111.73 68.7521C111.75 68.7457 111.771 68.7437 111.792 68.7461C111.832 68.7461 111.869 68.7617 111.897 68.7895C111.925 68.8172 111.94 68.8549 111.94 68.8941Z" fill="#818189"/>
<path d="M112.874 69.4518C112.874 69.4663 112.871 69.4806 112.866 69.4939C112.86 69.5073 112.852 69.5194 112.842 69.5296C112.832 69.5398 112.82 69.5479 112.806 69.5534C112.793 69.559 112.779 69.5618 112.764 69.5618C112.75 69.5618 112.736 69.559 112.722 69.5534C112.709 69.5479 112.697 69.5398 112.687 69.5296C112.676 69.5194 112.668 69.5073 112.663 69.4939C112.657 69.4806 112.654 69.4663 112.654 69.4518C112.654 69.4373 112.657 69.4229 112.662 69.4094C112.668 69.3959 112.676 69.3837 112.686 69.3734C112.696 69.3632 112.708 69.3551 112.722 69.3496C112.735 69.3442 112.75 69.3415 112.764 69.3418C112.793 69.3418 112.821 69.3534 112.842 69.374C112.863 69.3947 112.874 69.4226 112.874 69.4518Z" fill="#818189"/>
<path d="M111.8 69.7781C111.801 69.7933 111.797 69.8083 111.788 69.8211C111.78 69.8339 111.768 69.8439 111.754 69.8499C111.74 69.8559 111.725 69.8576 111.71 69.8547C111.695 69.8519 111.681 69.8446 111.671 69.8338C111.66 69.8231 111.653 69.8094 111.65 69.7944C111.647 69.7795 111.649 69.7641 111.655 69.7501C111.661 69.7361 111.671 69.7243 111.683 69.7161C111.696 69.7079 111.711 69.7037 111.726 69.7041C111.746 69.7046 111.764 69.7126 111.778 69.7264C111.792 69.7401 111.8 69.7587 111.8 69.7781Z" fill="#818189"/>
<path d="M114.276 69.0456C114.276 69.0757 114.267 69.1052 114.25 69.1302C114.234 69.1553 114.21 69.1747 114.182 69.1862C114.154 69.1976 114.123 69.2005 114.094 69.1945C114.064 69.1885 114.037 69.1738 114.016 69.1523C113.995 69.1309 113.98 69.1036 113.975 69.074C113.969 69.0444 113.973 69.0137 113.984 68.986C113.996 68.9583 114.016 68.9347 114.041 68.9182C114.066 68.9017 114.096 68.8932 114.126 68.8936C114.166 68.8941 114.204 68.9103 114.232 68.9388C114.26 68.9672 114.276 69.0056 114.276 69.0456Z" fill="#818189"/>
<path d="M115.292 70.6742C115.293 70.6927 115.289 70.7112 115.282 70.7284C115.275 70.7456 115.265 70.7613 115.252 70.7745C115.239 70.7877 115.223 70.7982 115.206 70.8053C115.189 70.8125 115.171 70.8162 115.152 70.8162C115.115 70.8162 115.078 70.8012 115.052 70.7746C115.025 70.748 115.01 70.7119 115.01 70.6742C115.01 70.6556 115.014 70.6373 115.021 70.6202C115.028 70.603 115.039 70.5875 115.052 70.5745C115.065 70.5615 115.081 70.5512 115.098 70.5443C115.115 70.5374 115.134 70.5339 115.152 70.5342C115.189 70.5342 115.225 70.5489 115.251 70.5752C115.278 70.6015 115.292 70.6371 115.292 70.6742Z" fill="#818189"/>
<path d="M109.37 69.7075C109.37 69.7364 109.362 69.7646 109.346 69.7886C109.329 69.8126 109.307 69.8314 109.28 69.8424C109.253 69.8535 109.224 69.8564 109.196 69.8507C109.167 69.8451 109.141 69.8312 109.121 69.8108C109.1 69.7903 109.087 69.7643 109.081 69.736C109.075 69.7077 109.078 69.6783 109.089 69.6517C109.1 69.625 109.119 69.6022 109.143 69.5861C109.167 69.5701 109.195 69.5615 109.224 69.5615C109.263 69.5615 109.3 69.5769 109.327 69.6043C109.355 69.6317 109.37 69.6688 109.37 69.7075Z" fill="#818189"/>
<path d="M106.514 69.1879C106.514 69.2165 106.506 69.2445 106.491 69.2685C106.475 69.2924 106.453 69.3112 106.427 69.3224C106.4 69.3336 106.371 69.3367 106.343 69.3314C106.315 69.3261 106.289 69.3125 106.269 69.2924C106.249 69.2724 106.235 69.2467 106.229 69.2187C106.223 69.1908 106.226 69.1617 106.237 69.1353C106.248 69.1089 106.266 69.0862 106.29 69.0703C106.314 69.0544 106.341 69.0459 106.37 69.0459C106.389 69.0456 106.408 69.0491 106.425 69.0561C106.442 69.0632 106.458 69.0736 106.472 69.0868C106.485 69.1 106.496 69.1157 106.503 69.1331C106.51 69.1505 106.514 69.1691 106.514 69.1879Z" fill="#818189"/>
<path d="M109.37 71.3501C109.37 71.379 109.362 71.4072 109.346 71.4312C109.329 71.4552 109.307 71.4739 109.28 71.485C109.253 71.496 109.224 71.4989 109.196 71.4933C109.167 71.4877 109.141 71.4738 109.121 71.4533C109.1 71.4329 109.087 71.4069 109.081 71.3786C109.075 71.3503 109.078 71.3209 109.089 71.2942C109.1 71.2676 109.119 71.2447 109.143 71.2287C109.167 71.2127 109.195 71.2041 109.224 71.2041C109.263 71.2041 109.3 71.2195 109.327 71.2469C109.355 71.2742 109.37 71.3114 109.37 71.3501Z" fill="#818189"/>
<path d="M110.452 68.9539C110.452 69.0679 110.394 69.1539 110.322 69.1539C110.25 69.1539 110.192 69.0619 110.192 68.9539C110.192 68.8459 110.25 68.7539 110.322 68.7539C110.394 68.7539 110.452 68.8379 110.452 68.9539Z" fill="#818189"/>
<path d="M116.818 68.0818C116.818 68.1117 116.806 68.1401 116.784 68.1611C116.763 68.182 116.734 68.1938 116.704 68.1938C116.675 68.1938 116.646 68.182 116.625 68.161C116.604 68.14 116.592 68.1115 116.592 68.0818C116.592 68.0519 116.604 68.0232 116.625 68.0019C116.646 67.9805 116.674 67.9683 116.704 67.9678C116.734 67.9683 116.763 67.9805 116.784 68.0017C116.806 68.023 116.818 68.0517 116.818 68.0818Z" fill="#818189"/>
<path d="M101.928 67.7998C101.929 67.8336 101.919 67.8666 101.901 67.8948C101.882 67.9231 101.856 67.9452 101.825 67.9583C101.794 67.9715 101.76 67.9752 101.726 67.9688C101.693 67.9625 101.663 67.9465 101.639 67.9228C101.615 67.8991 101.599 67.8688 101.592 67.8358C101.585 67.8027 101.588 67.7684 101.601 67.7373C101.614 67.7061 101.636 67.6794 101.664 67.6606C101.692 67.6419 101.725 67.6319 101.758 67.6318C101.781 67.6316 101.803 67.6357 101.823 67.6441C101.844 67.6524 101.863 67.6647 101.878 67.6803C101.894 67.696 101.907 67.7146 101.915 67.7351C101.924 67.7556 101.928 67.7776 101.928 67.7998Z" fill="#818189"/>
<path d="M101.49 68.3082C101.49 68.3292 101.484 68.3498 101.472 68.3673C101.461 68.3847 101.444 68.3983 101.424 68.4063C101.405 68.4142 101.384 68.4162 101.363 68.412C101.342 68.4077 101.323 68.3974 101.309 68.3824C101.294 68.3674 101.284 68.3483 101.28 68.3276C101.276 68.3069 101.279 68.2855 101.287 68.2662C101.295 68.2469 101.309 68.2305 101.327 68.2191C101.345 68.2076 101.365 68.2018 101.386 68.2022C101.4 68.2022 101.414 68.2049 101.427 68.2103C101.439 68.2156 101.451 68.2235 101.461 68.2333C101.47 68.2432 101.478 68.2549 101.483 68.2678C101.488 68.2806 101.491 68.2943 101.49 68.3082Z" fill="#818189"/>
<path d="M102.336 68.9696C102.336 69.0096 102.278 69.0436 102.21 69.0436C102.142 69.0436 102.082 69.0096 102.082 68.9696C102.082 68.9296 102.14 68.8936 102.21 68.8936C102.28 68.8936 102.336 68.9276 102.336 68.9696Z" fill="#818189"/>
<path d="M101.928 69.7878C101.925 69.8081 101.915 69.8266 101.899 69.84C101.884 69.8533 101.864 69.8607 101.843 69.8607C101.823 69.8607 101.803 69.8533 101.787 69.84C101.772 69.8266 101.761 69.8081 101.758 69.7878C101.761 69.7675 101.772 69.749 101.787 69.7356C101.803 69.7222 101.823 69.7148 101.843 69.7148C101.864 69.7148 101.884 69.7222 101.899 69.7356C101.915 69.749 101.925 69.7675 101.928 69.7878Z" fill="#818189"/>
<path d="M73.3262 68.6943V71.7383L90.9682 84.2383V80.5423L73.3262 68.6943Z" fill="#808484"/>
<path d="M106.514 78.5703L90.9683 80.5423V84.2383L106.514 81.8303V78.5703Z" fill="#4E5051"/>
<path d="M73.3262 68.6938L86.3062 67.4238L106.514 78.5698L90.9682 80.5418L73.3262 68.6938Z" fill="#A7A7AF"/>
<path d="M92.9502 83.3643C93.5831 83.3643 94.0962 82.8512 94.0962 82.2183C94.0962 81.5853 93.5831 81.0723 92.9502 81.0723C92.3173 81.0723 91.8042 81.5853 91.8042 82.2183C91.8042 82.8512 92.3173 83.3643 92.9502 83.3643Z" fill="#303035"/>
<path d="M92.9504 81.0723C92.7815 81.072 92.6146 81.1092 92.4618 81.1812C92.3089 81.2531 92.1739 81.358 92.0664 81.4883C92.2861 81.3053 92.5663 81.211 92.8519 81.224C93.1376 81.237 93.408 81.3563 93.6102 81.5585C93.8124 81.7607 93.9317 82.0311 93.9447 82.3168C93.9577 82.6024 93.8634 82.8826 93.6804 83.1023C93.8625 82.952 93.9938 82.7493 94.0562 82.5216C94.1187 82.294 94.1094 82.0526 94.0295 81.8305C93.9496 81.6083 93.8031 81.4163 93.61 81.2806C93.4168 81.1449 93.1865 81.0721 92.9504 81.0723Z" fill="#252528"/>
<path d="M97.6344 81.688C97.6348 81.9151 97.5678 82.1373 97.4419 82.3263C97.316 82.5154 97.1368 82.6628 96.9271 82.75C96.7174 82.8372 96.4865 82.8602 96.2636 82.8162C96.0408 82.7721 95.8361 82.6629 95.6753 82.5025C95.5146 82.342 95.405 82.1374 95.3606 81.9147C95.3161 81.6919 95.3387 81.461 95.4256 81.2511C95.5124 81.0412 95.6595 80.8618 95.8484 80.7356C96.0372 80.6094 96.2592 80.542 96.4864 80.542C96.637 80.5417 96.7863 80.5712 96.9255 80.6287C97.0648 80.6861 97.1914 80.7705 97.298 80.8769C97.4046 80.9834 97.4892 81.1098 97.547 81.249C97.6047 81.3881 97.6344 81.5373 97.6344 81.688Z" fill="#414144"/>
<path d="M96.486 80.5421C96.3065 80.542 96.1295 80.5841 95.9694 80.6651C95.8092 80.746 95.6703 80.8635 95.564 81.0081C95.7847 80.8487 96.055 80.7731 96.3265 80.7948C96.5979 80.8166 96.8527 80.9343 97.0452 81.1268C97.2378 81.3194 97.3555 81.5742 97.3772 81.8456C97.399 82.117 97.3234 82.3873 97.164 82.6081C97.3589 82.4651 97.5036 82.2641 97.5774 82.0339C97.6512 81.8037 97.6503 81.5561 97.5748 81.3264C97.4994 81.0968 97.3532 80.8968 97.1573 80.7552C96.9614 80.6137 96.7257 80.5376 96.484 80.5381L96.486 80.5421Z" fill="#252528"/>
<path d="M101.286 81.1675C101.286 81.3941 101.219 81.6157 101.093 81.8042C100.967 81.9926 100.788 82.1395 100.579 82.2263C100.369 82.313 100.139 82.3357 99.9166 82.2915C99.6943 82.2472 99.4901 82.1381 99.3298 81.9778C99.1695 81.8176 99.0604 81.6134 99.0162 81.3911C98.9719 81.1688 98.9946 80.9383 99.0814 80.7289C99.1681 80.5195 99.315 80.3405 99.5035 80.2146C99.6919 80.0887 99.9135 80.0215 100.14 80.0215C100.444 80.022 100.735 80.1429 100.95 80.3577C101.165 80.5725 101.286 80.8637 101.286 81.1675Z" fill="#414144"/>
<path d="M104.822 80.6402C104.822 80.8668 104.754 81.0881 104.628 81.2763C104.502 81.4645 104.323 81.6111 104.113 81.6975C103.904 81.784 103.674 81.8064 103.451 81.7619C103.229 81.7175 103.025 81.6082 102.865 81.4478C102.705 81.2875 102.596 81.0833 102.552 80.861C102.508 80.6388 102.531 80.4085 102.618 80.1992C102.704 79.9899 102.851 79.811 103.04 79.6852C103.228 79.5593 103.45 79.4922 103.676 79.4922C103.827 79.4922 103.976 79.5219 104.115 79.5796C104.254 79.6373 104.381 79.7219 104.487 79.8285C104.594 79.9352 104.678 80.0617 104.736 80.201C104.793 80.3403 104.823 80.4895 104.822 80.6402Z" fill="#414144"/>
<path opacity="0.33" d="M90.9682 80.5423V84.2383L73.3262 71.7383C73.3262 71.7383 89.6862 83.4123 90.9682 80.5423Z" fill="#414144"/>
<g style="mix-blend-mode:screen" opacity="0.32">
<path d="M96.1863 73.368C89.3623 69.182 82.9183 67.276 81.7863 69.112C80.6543 70.948 85.2763 75.83 92.1003 80.016C92.2723 80.124 92.4463 80.228 92.6183 80.332L103.564 78.942C101.726 77.16 99.1663 75.2 96.1863 73.368Z" fill="#CACAD8"/>
</g>
<path d="M74.374 65.5254V68.5694L92.018 81.0714V77.3734L74.374 65.5254Z" fill="#808484"/>
<path d="M107.562 75.4023L92.0181 77.3743V81.0723L107.562 78.6623V75.4023Z" fill="#3B3E3F"/>
<path d="M74.374 65.5259L87.354 64.2559L107.562 75.4019L92.018 77.3739L74.374 65.5259Z" fill="#CACAD8"/>
<path d="M94 80.1963C94.6329 80.1963 95.146 79.6832 95.146 79.0503C95.146 78.4174 94.6329 77.9043 94 77.9043C93.3671 77.9043 92.854 78.4174 92.854 79.0503C92.854 79.6832 93.3671 80.1963 94 80.1963Z" fill="#303035"/>
<path d="M94.0003 77.9043C93.8309 77.9042 93.6635 77.9416 93.5103 78.0139C93.3571 78.0861 93.2219 78.1915 93.1143 78.3223C93.334 78.1393 93.6141 78.045 93.8998 78.058C94.1854 78.071 94.4559 78.1903 94.6581 78.3925C94.8602 78.5947 94.9795 78.8651 94.9925 79.1508C95.0055 79.4364 94.9113 79.7166 94.7283 79.9363C94.911 79.7864 95.0429 79.5836 95.1059 79.3558C95.1689 79.128 95.16 78.8863 95.0803 78.6638C95.0005 78.4413 94.854 78.2488 94.6606 78.1129C94.4673 77.9769 94.2366 77.9041 94.0003 77.9043Z" fill="#252528"/>
<path d="M98.6821 78.522C98.6817 78.7486 98.6142 78.97 98.488 79.1582C98.3619 79.3464 98.1827 79.4929 97.9733 79.5794C97.7639 79.6658 97.5335 79.6882 97.3113 79.6438C97.0892 79.5993 96.8852 79.49 96.7251 79.3297C96.565 79.1693 96.4561 78.9651 96.412 78.7429C96.368 78.5206 96.3908 78.2903 96.4776 78.081C96.5644 77.8717 96.7112 77.6929 96.8997 77.567C97.0881 77.4412 97.3096 77.374 97.5361 77.374C97.6868 77.374 97.836 77.4037 97.9752 77.4615C98.1143 77.5192 98.2407 77.6038 98.3472 77.7104C98.4536 77.817 98.538 77.9436 98.5955 78.0829C98.6529 78.2221 98.6824 78.3714 98.6821 78.522Z" fill="#414144"/>
<path d="M97.5363 77.3741C97.3564 77.3742 97.179 77.4166 97.0185 77.4979C96.858 77.5792 96.7189 77.6971 96.6123 77.8421C96.8331 77.6827 97.1034 77.607 97.3748 77.6288C97.6462 77.6506 97.901 77.7682 98.0936 77.9608C98.2861 78.1533 98.4038 78.4082 98.4256 78.6796C98.4473 78.951 98.3717 79.2213 98.2123 79.4421C98.406 79.2984 98.5495 79.0974 98.6225 78.8676C98.6955 78.6378 98.6943 78.3909 98.619 78.1618C98.5437 77.9327 98.3983 77.7331 98.2032 77.5914C98.0082 77.4496 97.7734 77.3729 97.5323 77.3721L97.5363 77.3741Z" fill="#252528"/>
<path d="M102.336 77.9996C102.336 78.2267 102.269 78.4487 102.142 78.6376C102.016 78.8264 101.837 78.9735 101.627 79.0604C101.417 79.1472 101.186 79.1698 100.963 79.1254C100.741 79.0809 100.536 78.9714 100.376 78.8106C100.215 78.6499 100.106 78.4451 100.062 78.2223C100.018 77.9995 100.041 77.7686 100.128 77.5589C100.215 77.3491 100.363 77.17 100.552 77.0441C100.741 76.9182 100.963 76.8512 101.19 76.8516C101.494 76.8521 101.786 76.9733 102.001 77.1885C102.215 77.4037 102.336 77.6954 102.336 77.9996Z" fill="#303035"/>
<path d="M104.726 78.6182C105.359 78.6182 105.872 78.1051 105.872 77.4722C105.872 76.8393 105.359 76.3262 104.726 76.3262C104.093 76.3262 103.58 76.8393 103.58 77.4722C103.58 78.1051 104.093 78.6182 104.726 78.6182Z" fill="#303035"/>
<path opacity="0.33" d="M92.018 77.3743V81.0723L74.374 68.5703C74.374 68.5703 90.736 80.2463 92.018 77.3743Z" fill="#414144"/>
<g style="mix-blend-mode:screen" opacity="0.32">
<path d="M97.2342 70.2001C90.4122 66.0121 83.9682 64.1061 82.8342 65.9421C81.7002 67.7781 86.3242 72.6601 93.1462 76.8481L93.6662 77.1621L104.612 75.7741C102.776 74.0001 100.216 72.0301 97.2342 70.2001Z" fill="#CACAD8"/>
</g>
<path d="M73.7522 69.516C73.7522 69.5425 73.7417 69.568 73.723 69.5867C73.7042 69.6055 73.6788 69.616 73.6522 69.616C73.6257 69.616 73.6003 69.6055 73.5815 69.5867C73.5628 69.568 73.5522 69.5425 73.5522 69.516C73.5522 69.4895 73.5628 69.4641 73.5815 69.4453C73.6003 69.4265 73.6257 69.416 73.6522 69.416C73.6788 69.416 73.7042 69.4265 73.723 69.4453C73.7417 69.4641 73.7522 69.4895 73.7522 69.516Z" fill="#6D6D72"/>
<path d="M74.1084 69.624C74.1084 69.6295 74.1073 69.635 74.1052 69.6401C74.1031 69.6452 74.1 69.6498 74.0961 69.6537C74.0922 69.6576 74.0876 69.6607 74.0825 69.6628C74.0774 69.6649 74.0719 69.666 74.0664 69.666C74.0554 69.6655 74.045 69.661 74.0373 69.6532C74.0295 69.6454 74.0249 69.635 74.0244 69.624C74.0244 69.6129 74.0288 69.6022 74.0367 69.5943C74.0446 69.5865 74.0553 69.582 74.0664 69.582C74.0776 69.582 74.0882 69.5865 74.0961 69.5943C74.104 69.6022 74.1084 69.6129 74.1084 69.624Z" fill="#6D6D72"/>
<path d="M73.8722 69.9561C73.8722 69.9648 73.8696 69.9733 73.8648 69.9806C73.8599 69.9878 73.8531 69.9934 73.845 69.9968C73.837 70.0001 73.8281 70.001 73.8196 69.9993C73.8111 69.9976 73.8032 69.9934 73.7971 69.9872C73.7909 69.9811 73.7867 69.9732 73.785 69.9647C73.7833 69.9562 73.7842 69.9473 73.7875 69.9393C73.7909 69.9312 73.7965 69.9244 73.8037 69.9195C73.811 69.9147 73.8195 69.9121 73.8282 69.9121C73.8398 69.9121 73.851 69.9167 73.8593 69.925C73.8675 69.9332 73.8722 69.9444 73.8722 69.9561Z" fill="#6D6D72"/>
<path d="M73.6003 69.1422C73.6003 69.1597 73.5933 69.1765 73.5809 69.1888C73.5686 69.2012 73.5518 69.2082 73.5343 69.2082C73.5168 69.2082 73.5 69.2012 73.4876 69.1888C73.4752 69.1765 73.4683 69.1597 73.4683 69.1422C73.4683 69.1247 73.4752 69.1079 73.4876 69.0955C73.5 69.0831 73.5168 69.0762 73.5343 69.0762C73.5518 69.0762 73.5686 69.0831 73.5809 69.0955C73.5933 69.1079 73.6003 69.1247 73.6003 69.1422Z" fill="#6D6D72"/>
<path d="M73.6342 70.176C73.6342 70.1859 73.6312 70.1955 73.6258 70.2038C73.6203 70.212 73.6124 70.2184 73.6033 70.2222C73.5942 70.226 73.5841 70.2269 73.5744 70.225C73.5647 70.2231 73.5558 70.2183 73.5488 70.2113C73.5418 70.2043 73.5371 70.1954 73.5351 70.1857C73.5332 70.176 73.5342 70.166 73.538 70.1568C73.5418 70.1477 73.5482 70.1399 73.5564 70.1344C73.5646 70.1289 73.5743 70.126 73.5842 70.126C73.5974 70.126 73.6102 70.1312 73.6195 70.1406C73.6289 70.15 73.6342 70.1627 73.6342 70.176Z" fill="#6D6D72"/>
<path d="M74.4781 70.2398C74.4784 70.2484 74.477 70.2569 74.4739 70.2649C74.4708 70.2729 74.4661 70.2802 74.4601 70.2864C74.4542 70.2925 74.447 70.2974 74.4391 70.3008C74.4312 70.3041 74.4227 70.3058 74.4141 70.3058C74.3966 70.3058 74.3799 70.2989 74.3675 70.2865C74.3551 70.2741 74.3481 70.2573 74.3481 70.2398C74.3481 70.2312 74.3499 70.2227 74.3532 70.2148C74.3565 70.2069 74.3614 70.1998 74.3676 70.1938C74.3737 70.1879 74.381 70.1832 74.389 70.1801C74.397 70.177 74.4056 70.1755 74.4141 70.1758C74.4311 70.1758 74.4474 70.1826 74.4594 70.1946C74.4714 70.2066 74.4781 70.2228 74.4781 70.2398Z" fill="#6D6D72"/>
<path d="M74.348 69.7341C74.348 69.7415 74.3451 69.7486 74.3398 69.7539C74.3346 69.7592 74.3275 69.7621 74.32 69.7621C74.3124 69.7621 74.3051 69.7592 74.2995 69.754C74.2939 69.7488 74.2905 69.7417 74.29 69.7341C74.29 69.7302 74.2908 69.7263 74.2923 69.7226C74.2938 69.719 74.296 69.7157 74.2988 69.7129C74.3016 69.7101 74.3049 69.7079 74.3086 69.7064C74.3122 69.7049 74.3161 69.7041 74.32 69.7041C74.3276 69.7046 74.3348 69.708 74.34 69.7136C74.3452 69.7191 74.3481 69.7265 74.348 69.7341Z" fill="#6D6D72"/>
<path d="M74.6142 65.9997C74.6142 66.0037 74.6134 66.0076 74.6119 66.0112C74.6104 66.0148 74.6082 66.0182 74.6054 66.0209C74.6026 66.0237 74.5993 66.0259 74.5957 66.0274C74.592 66.0289 74.5881 66.0297 74.5842 66.0297C74.5762 66.0297 74.5686 66.0266 74.563 66.0209C74.5574 66.0153 74.5542 66.0077 74.5542 65.9997C74.5542 65.9918 74.5574 65.9841 74.563 65.9785C74.5686 65.9729 74.5762 65.9697 74.5842 65.9697C74.5881 65.9697 74.592 65.9705 74.5957 65.972C74.5993 65.9735 74.6026 65.9757 74.6054 65.9785C74.6082 65.9813 74.6104 65.9846 74.6119 65.9882C74.6134 65.9919 74.6142 65.9958 74.6142 65.9997Z" fill="#6D6D72"/>
<path d="M74.734 66.3858C74.734 66.3945 74.7314 66.403 74.7266 66.4102C74.7217 66.4175 74.7149 66.4231 74.7068 66.4264C74.6988 66.4298 74.6899 66.4306 74.6814 66.4289C74.6729 66.4273 74.665 66.4231 74.6589 66.4169C74.6527 66.4108 74.6485 66.4029 74.6468 66.3944C74.6451 66.3858 74.646 66.377 74.6493 66.369C74.6527 66.3609 74.6583 66.354 74.6656 66.3492C74.6728 66.3444 74.6813 66.3418 74.69 66.3418C74.7017 66.3418 74.7129 66.3464 74.7211 66.3547C74.7294 66.3629 74.734 66.3741 74.734 66.3858Z" fill="#6D6D72"/>
<path d="M75.4524 66.6154C75.4527 66.6216 75.4517 66.6278 75.4495 66.6336C75.4473 66.6394 75.444 66.6447 75.4397 66.6492C75.4354 66.6537 75.4302 66.6573 75.4245 66.6597C75.4188 66.6621 75.4126 66.6634 75.4064 66.6634C75.3937 66.6634 75.3815 66.6583 75.3725 66.6493C75.3635 66.6403 75.3584 66.6281 75.3584 66.6154C75.3584 66.6092 75.3596 66.603 75.3621 66.5973C75.3645 66.5916 75.3681 66.5864 75.3726 66.5821C75.3771 66.5778 75.3824 66.5745 75.3882 66.5723C75.394 66.5701 75.4002 66.5691 75.4064 66.5694C75.4186 66.5694 75.4303 66.5742 75.4389 66.5828C75.4476 66.5915 75.4524 66.6032 75.4524 66.6154Z" fill="#6D6D72"/>
<path d="M75.5243 67.0619C75.5247 67.074 75.5214 67.0858 75.515 67.096C75.5086 67.1062 75.4992 67.1142 75.4882 67.119C75.4771 67.1237 75.4649 67.1251 75.4531 67.1228C75.4413 67.1206 75.4304 67.1148 75.4219 67.1063C75.4134 67.0978 75.4076 67.0869 75.4054 67.0751C75.4031 67.0633 75.4045 67.0511 75.4092 67.04C75.414 67.029 75.422 67.0197 75.4322 67.0132C75.4424 67.0068 75.4542 67.0035 75.4663 67.0039C75.4816 67.0039 75.4964 67.01 75.5073 67.0209C75.5182 67.0318 75.5243 67.0466 75.5243 67.0619Z" fill="#6D6D72"/>
<path d="M75.1723 66.2561C75.1723 66.2659 75.1693 66.2756 75.1638 66.2838C75.1583 66.2921 75.1505 66.2985 75.1414 66.3022C75.1323 66.306 75.1222 66.307 75.1125 66.3051C75.1028 66.3032 75.0939 66.2984 75.0869 66.2914C75.0799 66.2844 75.0752 66.2755 75.0732 66.2658C75.0713 66.2561 75.0723 66.2461 75.0761 66.2369C75.0799 66.2278 75.0863 66.22 75.0945 66.2145C75.1027 66.209 75.1124 66.2061 75.1223 66.2061C75.1355 66.2061 75.1482 66.2113 75.1576 66.2207C75.167 66.2301 75.1723 66.2428 75.1723 66.2561Z" fill="#6D6D72"/>
<path d="M76.1063 66.9299C76.1063 66.9431 76.1011 66.9559 76.0917 66.9652C76.0823 66.9746 76.0696 66.9799 76.0563 66.9799C76.0431 66.9799 76.0304 66.9746 76.021 66.9652C76.0116 66.9559 76.0063 66.9431 76.0063 66.9299C76.0063 66.9166 76.0116 66.9039 76.021 66.8945C76.0304 66.8852 76.0431 66.8799 76.0563 66.8799C76.0696 66.8799 76.0823 66.8852 76.0917 66.8945C76.1011 66.9039 76.1063 66.9166 76.1063 66.9299Z" fill="#6D6D72"/>
<path d="M76.1062 67.3761C76.1062 67.4021 76.1062 67.4241 76.0822 67.4241C76.0582 67.4241 76.0562 67.4021 76.0562 67.3761C76.0562 67.3501 76.0682 67.3281 76.0822 67.3281C76.0962 67.3281 76.1062 67.3481 76.1062 67.3761Z" fill="#6D6D72"/>
<path d="M84.1002 76.636C84.1002 76.6467 84.097 76.6572 84.0911 76.666C84.0852 76.6749 84.0767 76.6818 84.0669 76.6859C84.057 76.69 84.0461 76.6911 84.0357 76.689C84.0252 76.6869 84.0156 76.6818 84.008 76.6742C84.0005 76.6667 83.9953 76.657 83.9932 76.6466C83.9911 76.6361 83.9922 76.6252 83.9963 76.6154C84.0004 76.6055 84.0073 76.5971 84.0162 76.5911C84.0251 76.5852 84.0355 76.582 84.0462 76.582C84.0605 76.582 84.0742 76.5877 84.0844 76.5978C84.0945 76.608 84.1002 76.6217 84.1002 76.636Z" fill="#6D6D72"/>
<path d="M84.6641 76.914C84.6635 76.9343 84.6551 76.9536 84.6405 76.9678C84.6259 76.982 84.6064 76.99 84.5861 76.99C84.5749 76.9918 84.5635 76.9911 84.5526 76.9881C84.5417 76.985 84.5316 76.9797 84.523 76.9724C84.5144 76.965 84.5075 76.9559 84.5028 76.9457C84.4981 76.9354 84.4956 76.9243 84.4956 76.913C84.4956 76.9017 84.4981 76.8905 84.5028 76.8803C84.5075 76.87 84.5144 76.8609 84.523 76.8536C84.5316 76.8462 84.5417 76.8409 84.5526 76.8378C84.5635 76.8348 84.5749 76.8342 84.5861 76.836C84.6067 76.836 84.6266 76.8442 84.6412 76.8588C84.6558 76.8734 84.6641 76.8933 84.6641 76.914Z" fill="#6D6D72"/>
<path d="M85.4401 77.1861C85.4401 77.2076 85.4337 77.2285 85.4218 77.2463C85.4098 77.2641 85.3928 77.278 85.373 77.2861C85.3531 77.2942 85.3313 77.2962 85.3103 77.2919C85.2893 77.2876 85.2701 77.2771 85.255 77.2618C85.24 77.2465 85.2299 77.227 85.226 77.206C85.222 77.1849 85.2244 77.1631 85.2329 77.1434C85.2414 77.1237 85.2556 77.107 85.2736 77.0954C85.2916 77.0837 85.3127 77.0777 85.3341 77.0781C85.3482 77.0781 85.3622 77.0809 85.3752 77.0864C85.3881 77.0919 85.3999 77.0998 85.4098 77.1099C85.4197 77.1199 85.4274 77.1319 85.4326 77.145C85.4378 77.1581 85.4404 77.1721 85.4401 77.1861Z" fill="#6D6D72"/>
<path d="M84.9839 77.5674C84.9856 77.5766 84.9852 77.5861 84.9828 77.5951C84.9804 77.6041 84.976 77.6125 84.97 77.6197C84.964 77.6269 84.9565 77.6327 84.948 77.6366C84.9395 77.6406 84.9303 77.6427 84.9209 77.6427C84.9116 77.6427 84.9023 77.6406 84.8938 77.6366C84.8854 77.6327 84.8779 77.6269 84.8719 77.6197C84.8658 77.6125 84.8615 77.6041 84.8591 77.5951C84.8567 77.5861 84.8563 77.5766 84.8579 77.5674C84.8606 77.5526 84.8683 77.5392 84.8799 77.5296C84.8914 77.5199 84.9059 77.5146 84.9209 77.5146C84.936 77.5146 84.9505 77.5199 84.962 77.5296C84.9735 77.5392 84.9813 77.5526 84.9839 77.5674Z" fill="#6D6D72"/>
<path d="M86.0824 77.9579C86.0824 77.9903 86.0695 78.0213 86.0466 78.0442C86.0238 78.0671 85.9927 78.0799 85.9604 78.0799C85.928 78.0799 85.897 78.0671 85.8741 78.0442C85.8512 78.0213 85.8384 77.9903 85.8384 77.9579C85.8384 77.9256 85.8512 77.8945 85.8741 77.8717C85.897 77.8488 85.928 77.8359 85.9604 77.8359C85.9927 77.8359 86.0238 77.8488 86.0466 77.8717C86.0695 77.8945 86.0824 77.9256 86.0824 77.9579Z" fill="#6D6D72"/>
<path d="M86.2004 78.6583C86.2004 78.6816 86.1911 78.704 86.1746 78.7205C86.1581 78.737 86.1358 78.7463 86.1124 78.7463C86.0891 78.7463 86.0667 78.737 86.0502 78.7205C86.0337 78.704 86.0244 78.6816 86.0244 78.6583C86.0244 78.635 86.0337 78.6126 86.0502 78.5961C86.0667 78.5796 86.0891 78.5703 86.1124 78.5703C86.1358 78.5703 86.1581 78.5796 86.1746 78.5961C86.1911 78.6126 86.2004 78.635 86.2004 78.6583Z" fill="#6D6D72"/>
<path d="M87.4343 78.6583C87.4343 78.6816 87.4251 78.704 87.4086 78.7205C87.392 78.737 87.3697 78.7463 87.3463 78.7463C87.3347 78.7466 87.3231 78.7445 87.3123 78.7402C87.3015 78.7358 87.2917 78.7294 87.2835 78.7211C87.2753 78.7129 87.2688 78.7031 87.2645 78.6923C87.2601 78.6815 87.2581 78.6699 87.2583 78.6583C87.2583 78.635 87.2676 78.6126 87.2841 78.5961C87.3006 78.5796 87.323 78.5703 87.3463 78.5703C87.3697 78.5703 87.392 78.5796 87.4086 78.5961C87.4251 78.6126 87.4343 78.635 87.4343 78.6583Z" fill="#6D6D72"/>
<path d="M86.9701 78.2001C86.9701 78.2159 86.9654 78.2314 86.9566 78.2446C86.9478 78.2577 86.9353 78.268 86.9207 78.274C86.9061 78.2801 86.89 78.2817 86.8745 78.2786C86.8589 78.2755 86.8447 78.2679 86.8335 78.2567C86.8223 78.2455 86.8147 78.2312 86.8116 78.2157C86.8085 78.2002 86.8101 78.1841 86.8161 78.1695C86.8222 78.1549 86.8325 78.1424 86.8456 78.1336C86.8588 78.1248 86.8742 78.1201 86.8901 78.1201C86.9113 78.1201 86.9316 78.1285 86.9466 78.1435C86.9616 78.1586 86.9701 78.1789 86.9701 78.2001Z" fill="#6D6D72"/>
<path d="M88.5841 79.3497C88.5841 79.3667 88.5791 79.3833 88.5696 79.3975C88.5602 79.4116 88.5467 79.4226 88.531 79.4291C88.5153 79.4357 88.498 79.4374 88.4813 79.434C88.4646 79.4307 88.4493 79.4225 88.4373 79.4105C88.4253 79.3985 88.4171 79.3832 88.4138 79.3665C88.4104 79.3498 88.4121 79.3325 88.4187 79.3168C88.4252 79.3011 88.4362 79.2876 88.4503 79.2782C88.4645 79.2687 88.4811 79.2637 88.4981 79.2637C88.5095 79.2634 88.5208 79.2655 88.5313 79.2697C88.5419 79.2739 88.5515 79.2802 88.5595 79.2883C88.5676 79.2963 88.5739 79.3059 88.5781 79.3165C88.5823 79.327 88.5844 79.3383 88.5841 79.3497Z" fill="#6D6D72"/>
<path d="M91.0001 77.2615C91.0001 77.2766 90.9957 77.2913 90.9873 77.3038C90.979 77.3163 90.9671 77.326 90.9532 77.3318C90.9393 77.3375 90.9241 77.339 90.9093 77.3361C90.8946 77.3332 90.881 77.3259 90.8704 77.3153C90.8598 77.3047 90.8525 77.2911 90.8496 77.2764C90.8467 77.2616 90.8482 77.2464 90.8539 77.2325C90.8597 77.2186 90.8694 77.2067 90.8819 77.1984C90.8944 77.19 90.9091 77.1855 90.9241 77.1855C90.9443 77.1855 90.9636 77.1936 90.9779 77.2078C90.9921 77.2221 91.0001 77.2414 91.0001 77.2615Z" fill="#545459"/>
<path d="M91.674 77.6119C91.6744 77.6334 91.6683 77.6546 91.6566 77.6726C91.6449 77.6907 91.6281 77.7048 91.6083 77.7133C91.5884 77.7217 91.5666 77.724 91.5454 77.7199C91.5243 77.7158 91.5049 77.7055 91.4896 77.6902C91.4744 77.675 91.4641 77.6556 91.46 77.6344C91.4559 77.6133 91.4582 77.5914 91.4666 77.5716C91.475 77.5518 91.4892 77.535 91.5072 77.5232C91.5253 77.5115 91.5465 77.5055 91.568 77.5059C91.5959 77.5064 91.6226 77.5177 91.6424 77.5375C91.6621 77.5573 91.6735 77.5839 91.674 77.6119Z" fill="#545459"/>
<path d="M91.618 78.1581C91.6184 78.1741 91.614 78.1898 91.6053 78.2033C91.5967 78.2167 91.5842 78.2273 91.5695 78.2336C91.5548 78.2399 91.5386 78.2417 91.5229 78.2386C91.5072 78.2356 91.4927 78.228 91.4814 78.2166C91.4701 78.2053 91.4625 78.1909 91.4594 78.1752C91.4564 78.1595 91.4582 78.1433 91.4645 78.1286C91.4708 78.1139 91.4813 78.1014 91.4948 78.0927C91.5083 78.0841 91.524 78.0797 91.54 78.0801C91.5607 78.0801 91.5805 78.0883 91.5951 78.1029C91.6098 78.1176 91.618 78.1374 91.618 78.1581Z" fill="#545459"/>
<path d="M90.3283 76.4503C90.3283 76.4677 90.3232 76.4847 90.3135 76.4992C90.3038 76.5137 90.2901 76.5249 90.274 76.5316C90.2579 76.5383 90.2402 76.54 90.2232 76.5366C90.2061 76.5332 90.1904 76.5248 90.1781 76.5125C90.1658 76.5002 90.1574 76.4845 90.154 76.4675C90.1506 76.4504 90.1524 76.4327 90.159 76.4166C90.1657 76.4005 90.177 76.3868 90.1915 76.3771C90.2059 76.3675 90.2229 76.3623 90.2403 76.3623C90.2637 76.3623 90.2861 76.3716 90.3026 76.3881C90.3191 76.4046 90.3283 76.427 90.3283 76.4503Z" fill="#545459"/>
<path d="M90.9279 78.0782C90.9298 78.0894 90.9291 78.1008 90.9261 78.1117C90.923 78.1226 90.9177 78.1327 90.9103 78.1413C90.903 78.1499 90.8939 78.1568 90.8837 78.1615C90.8734 78.1662 90.8622 78.1687 90.851 78.1687C90.8397 78.1687 90.8285 78.1662 90.8182 78.1615C90.808 78.1568 90.7989 78.1499 90.7916 78.1413C90.7842 78.1327 90.7789 78.1226 90.7758 78.1117C90.7728 78.1008 90.7721 78.0894 90.7739 78.0782C90.7769 78.06 90.7863 78.0433 90.8004 78.0313C90.8145 78.0193 90.8324 78.0127 90.851 78.0127C90.8695 78.0127 90.8874 78.0193 90.9015 78.0313C90.9156 78.0433 90.925 78.06 90.9279 78.0782Z" fill="#545459"/>
<path d="M91.7404 78.834C91.7404 78.8569 91.7313 78.8787 91.7152 78.8949C91.699 78.911 91.6772 78.92 91.6544 78.92C91.6316 78.92 91.6097 78.911 91.5935 78.8949C91.5774 78.8787 91.5684 78.8569 91.5684 78.834C91.5684 78.8112 91.5774 78.7894 91.5935 78.7732C91.6097 78.7571 91.6316 78.748 91.6544 78.748C91.6772 78.748 91.699 78.7571 91.7152 78.7732C91.7313 78.7894 91.7404 78.8112 91.7404 78.834Z" fill="#545459"/>
<path d="M89.6161 76.5522C89.6161 76.5787 89.6055 76.6042 89.5868 76.6229C89.568 76.6417 89.5426 76.6522 89.5161 76.6522C89.5028 76.6525 89.4895 76.6501 89.4772 76.6452C89.4648 76.6403 89.4536 76.6329 89.4441 76.6236C89.4346 76.6143 89.427 76.6032 89.4219 76.5909C89.4167 76.5787 89.4141 76.5655 89.4141 76.5522C89.4141 76.5251 89.4248 76.4992 89.4439 76.4801C89.4631 76.4609 89.489 76.4502 89.5161 76.4502C89.5294 76.4502 89.5425 76.4528 89.5548 76.458C89.5671 76.4631 89.5782 76.4707 89.5875 76.4802C89.5968 76.4897 89.6041 76.5009 89.609 76.5133C89.6139 76.5257 89.6163 76.5389 89.6161 76.5522Z" fill="#545459"/>
<path d="M90.2402 77.0342C90.2402 77.0582 90.2022 77.0782 90.1582 77.0782C90.1142 77.0782 90.0742 77.0582 90.0742 77.0342C90.0742 77.0102 90.1122 76.9902 90.1582 76.9902C90.2042 76.9902 90.2402 77.0102 90.2402 77.0342Z" fill="#545459"/>
<path d="M88.9079 75.7662C88.9097 75.7774 88.9091 75.7888 88.9061 75.7997C88.903 75.8106 88.8976 75.8206 88.8903 75.8292C88.883 75.8378 88.8739 75.8448 88.8636 75.8495C88.8534 75.8542 88.8422 75.8567 88.8309 75.8567C88.8196 75.8567 88.8085 75.8542 88.7982 75.8495C88.788 75.8448 88.7789 75.8378 88.7715 75.8292C88.7642 75.8206 88.7588 75.8106 88.7558 75.7997C88.7528 75.7888 88.7521 75.7774 88.7539 75.7662C88.7521 75.7551 88.7528 75.7437 88.7558 75.7328C88.7588 75.7219 88.7642 75.7118 88.7715 75.7032C88.7789 75.6946 88.788 75.6877 88.7982 75.683C88.8085 75.6782 88.8196 75.6758 88.8309 75.6758C88.8422 75.6758 88.8534 75.6782 88.8636 75.683C88.8739 75.6877 88.883 75.6946 88.8903 75.7032C88.8976 75.7118 88.903 75.7219 88.9061 75.7328C88.9091 75.7437 88.9097 75.7551 88.9079 75.7662Z" fill="#545459"/>
<path d="M91.382 79.4756C91.382 79.5436 91.348 79.6016 91.306 79.6016C91.264 79.6016 91.228 79.5436 91.228 79.4756C91.228 79.4076 91.262 79.3496 91.306 79.3496C91.35 79.3496 91.382 79.3996 91.382 79.4756Z" fill="#545459"/>
<path d="M85.938 96.21L88.782 97.11V101.028L85.938 99.886V96.21Z" fill="#818189"/>
<path d="M133.564 71.7119L90.026 89.4319L85.938 96.2099L88.782 97.1099L96.156 92.0459L140.406 72.9379L133.564 71.7119Z" fill="#CACACA"/>
<path d="M88.7822 101.028L96.2902 102.699L140.406 81.5575V72.9375L96.1562 92.0455L88.7822 97.1095V101.028Z" fill="#717171"/>
<path d="M96.2902 102.458L96.1562 92.0459L88.7822 97.1099V101.028L96.2902 102.458Z" fill="#636368"/>
<path d="M90.0264 89.4319L96.1564 92.0459L140.406 72.9379L133.564 71.7119L90.0264 89.4319Z" fill="#636368"/>
<path d="M97.3342 92.4241C97.3316 92.4722 97.3103 92.5174 97.2747 92.5499C97.2392 92.5824 97.1924 92.5997 97.1442 92.5981C97.0981 92.5981 97.0538 92.5798 97.0212 92.5471C96.9885 92.5145 96.9702 92.4703 96.9702 92.4241C96.9702 92.378 96.9885 92.3337 97.0212 92.3011C97.0538 92.2684 97.0981 92.2501 97.1442 92.2501C97.1924 92.2485 97.2392 92.2658 97.2747 92.2983C97.3103 92.3308 97.3316 92.376 97.3342 92.4241Z" fill="#636368"/>
<path d="M98.7783 91.9134C98.7807 91.9427 98.7743 91.972 98.7598 91.9975C98.7453 92.0231 98.7234 92.0436 98.697 92.0566C98.6706 92.0695 98.641 92.0741 98.6119 92.0699C98.5829 92.0657 98.5557 92.0529 98.5341 92.033C98.5125 92.0131 98.4973 91.9872 98.4906 91.9586C98.484 91.93 98.4861 91.9001 98.4967 91.8727C98.5073 91.8453 98.5259 91.8218 98.5501 91.8051C98.5743 91.7885 98.603 91.7795 98.6323 91.7794C98.6507 91.7786 98.6691 91.7815 98.6864 91.7878C98.7037 91.7941 98.7195 91.8037 98.7331 91.8162C98.7467 91.8286 98.7576 91.8436 98.7654 91.8603C98.7732 91.877 98.7776 91.895 98.7783 91.9134Z" fill="#636368"/>
<path d="M97.6664 93.7498C97.6692 93.7831 97.6619 93.8164 97.6455 93.8455C97.629 93.8746 97.6042 93.898 97.5742 93.9127C97.5442 93.9275 97.5105 93.9328 97.4774 93.9281C97.4444 93.9234 97.4135 93.9088 97.3889 93.8862C97.3642 93.8636 97.347 93.8342 97.3393 93.8017C97.3317 93.7691 97.3341 93.7351 97.3461 93.7039C97.3582 93.6728 97.3793 93.646 97.4069 93.627C97.4344 93.6081 97.467 93.5979 97.5004 93.5978C97.5425 93.5961 97.5835 93.6112 97.6146 93.6397C97.6457 93.6681 97.6643 93.7077 97.6664 93.7498Z" fill="#636368"/>
<path d="M98.6324 93.1115C98.6348 93.1392 98.6288 93.1669 98.6152 93.1912C98.6016 93.2154 98.581 93.2349 98.5561 93.2472C98.5312 93.2595 98.5031 93.264 98.4756 93.2601C98.4481 93.2562 98.4224 93.2441 98.4019 93.2254C98.3814 93.2067 98.367 93.1822 98.3606 93.1551C98.3542 93.1281 98.3562 93.0998 98.3662 93.0738C98.3762 93.0479 98.3938 93.0256 98.4166 93.0099C98.4395 92.9941 98.4666 92.9856 98.4944 92.9855C98.5118 92.9847 98.5291 92.9873 98.5454 92.9932C98.5617 92.9991 98.5767 93.0082 98.5895 93.0199C98.6024 93.0316 98.6127 93.0457 98.6201 93.0614C98.6275 93.0771 98.6316 93.0942 98.6324 93.1115Z" fill="#636368"/>
<path d="M98.2 92.6996C98.1964 92.7265 98.1832 92.7511 98.1628 92.769C98.1423 92.7868 98.1161 92.7967 98.089 92.7967C98.0619 92.7967 98.0357 92.7868 98.0153 92.769C97.9949 92.7511 97.9816 92.7265 97.978 92.6996C97.9816 92.6727 97.9949 92.6481 98.0153 92.6302C98.0357 92.6124 98.0619 92.6025 98.089 92.6025C98.1161 92.6025 98.1423 92.6124 98.1628 92.6302C98.1832 92.6481 98.1964 92.6727 98.2 92.6996Z" fill="#636368"/>
<path d="M96.844 92.8938C96.8435 92.9065 96.8405 92.9188 96.8352 92.9303C96.8299 92.9417 96.8224 92.952 96.8131 92.9606C96.8038 92.9691 96.793 92.9758 96.7811 92.9801C96.7692 92.9844 96.7567 92.9864 96.744 92.9858C96.7187 92.9864 96.6942 92.9771 96.6755 92.96C96.6569 92.9428 96.6456 92.9191 96.644 92.8938C96.6446 92.8812 96.6476 92.8688 96.6529 92.8574C96.6582 92.8459 96.6657 92.8357 96.675 92.8271C96.6843 92.8186 96.6951 92.8119 96.707 92.8076C96.7188 92.8033 96.7314 92.8013 96.744 92.8018C96.7567 92.8013 96.7692 92.8033 96.7811 92.8076C96.793 92.8119 96.8038 92.8186 96.8131 92.8271C96.8224 92.8357 96.8299 92.8459 96.8352 92.8574C96.8405 92.8688 96.8435 92.8812 96.844 92.8938Z" fill="#636368"/>
<path d="M96.5664 93.828C96.5661 93.8384 96.5638 93.8487 96.5595 93.8582C96.5552 93.8677 96.5491 93.8763 96.5414 93.8833C96.5338 93.8904 96.5248 93.8959 96.515 93.8995C96.5052 93.903 96.4948 93.9046 96.4844 93.904C96.4739 93.9046 96.4634 93.903 96.4535 93.8995C96.4435 93.896 96.4344 93.8905 96.4266 93.8835C96.4188 93.8764 96.4125 93.8679 96.408 93.8584C96.4035 93.8488 96.4009 93.8385 96.4004 93.828C96.4014 93.8066 96.4108 93.7865 96.4265 93.7719C96.4422 93.7573 96.463 93.7495 96.4844 93.75C96.4949 93.7498 96.5054 93.7516 96.5152 93.7553C96.525 93.7591 96.5339 93.7648 96.5416 93.772C96.5492 93.7793 96.5553 93.788 96.5595 93.7976C96.5638 93.8072 96.5661 93.8175 96.5664 93.828Z" fill="#636368"/>
<path d="M96.744 94.5537C96.746 94.5797 96.7401 94.6057 96.7271 94.6284C96.7141 94.6511 96.6946 94.6693 96.6711 94.6806C96.6476 94.692 96.6212 94.6961 96.5953 94.6923C96.5695 94.6884 96.5454 94.6769 96.5262 94.6592C96.507 94.6415 96.4936 94.6184 96.4877 94.5929C96.4818 94.5675 96.4838 94.5408 96.4932 94.5165C96.5027 94.4922 96.5193 94.4712 96.5408 94.4565C96.5624 94.4417 96.5879 94.4337 96.614 94.4337C96.6471 94.4326 96.6793 94.4445 96.7036 94.467C96.7279 94.4895 96.7424 94.5206 96.744 94.5537Z" fill="#636368"/>
<path d="M98.4462 94.6678C98.4454 94.6833 98.4416 94.6985 98.435 94.7125C98.4283 94.7265 98.419 94.7391 98.4074 94.7495C98.3959 94.7599 98.3825 94.7679 98.3678 94.7731C98.3532 94.7783 98.3377 94.7806 98.3222 94.7798C98.3068 94.7806 98.2914 94.7783 98.2769 94.7731C98.2624 94.7679 98.249 94.7598 98.2377 94.7494C98.2263 94.739 98.2172 94.7264 98.2107 94.7124C98.2043 94.6984 98.2007 94.6832 98.2002 94.6678C98.2007 94.6523 98.2043 94.637 98.2107 94.6229C98.2171 94.6088 98.2262 94.5961 98.2376 94.5855C98.2489 94.5749 98.2622 94.5667 98.2767 94.5612C98.2912 94.5558 98.3067 94.5532 98.3222 94.5538C98.3537 94.5527 98.3844 94.564 98.4076 94.5854C98.4308 94.6067 98.4446 94.6363 98.4462 94.6678Z" fill="#636368"/>
<path d="M100.344 91.2336C100.346 91.2617 100.34 91.2898 100.326 91.3144C100.313 91.3389 100.292 91.3587 100.266 91.3712C100.241 91.3836 100.213 91.3882 100.185 91.3842C100.157 91.3802 100.131 91.3679 100.11 91.3489C100.089 91.3299 100.075 91.3051 100.068 91.2776C100.062 91.2502 100.064 91.2215 100.074 91.1952C100.084 91.1689 100.102 91.1463 100.125 91.1303C100.148 91.1143 100.176 91.1057 100.204 91.1056C100.222 91.1048 100.239 91.1075 100.256 91.1135C100.272 91.1195 100.287 91.1287 100.3 91.1406C100.313 91.1525 100.324 91.1668 100.331 91.1828C100.339 91.1987 100.343 91.216 100.344 91.2336Z" fill="#636368"/>
<path d="M102.51 90.342C102.508 90.3788 102.492 90.4133 102.464 90.438C102.437 90.4627 102.401 90.4757 102.364 90.474C102.345 90.4763 102.326 90.4746 102.308 90.469C102.29 90.4634 102.273 90.454 102.259 90.4414C102.245 90.4288 102.233 90.4134 102.226 90.3961C102.218 90.3788 102.214 90.36 102.214 90.341C102.214 90.3221 102.218 90.3033 102.226 90.286C102.233 90.2687 102.245 90.2532 102.259 90.2407C102.273 90.2281 102.29 90.2187 102.308 90.2131C102.326 90.2074 102.345 90.2057 102.364 90.208C102.383 90.2072 102.401 90.2101 102.418 90.2164C102.436 90.2227 102.451 90.2323 102.465 90.2448C102.479 90.2572 102.49 90.2722 102.497 90.2889C102.505 90.3056 102.509 90.3236 102.51 90.342Z" fill="#636368"/>
<path d="M97.2121 96.0419C97.2105 96.0744 97.1962 96.1051 97.1722 96.1271C97.1483 96.1492 97.1166 96.161 97.0841 96.1599C97.0679 96.1607 97.0517 96.1583 97.0364 96.1528C97.0212 96.1472 97.0072 96.1387 96.9953 96.1277C96.9834 96.1168 96.9738 96.1035 96.967 96.0888C96.9603 96.074 96.9566 96.0581 96.9561 96.0419C96.9576 96.0094 96.9719 95.9787 96.9959 95.9567C97.0198 95.9346 97.0515 95.9228 97.0841 95.9239C97.1166 95.9228 97.1483 95.9346 97.1722 95.9567C97.1962 95.9787 97.2105 96.0094 97.2121 96.0419Z" fill="#636368"/>
<path d="M96.1562 92.0459L96.2902 102.7L88.7822 101.028C88.7822 101.028 95.3682 100.304 96.1562 92.0459Z" fill="#56565B"/>
<path d="M92.208 101.254L95.05 102.152V106.072L92.208 104.93V101.254Z" fill="#818189"/>
<path d="M139.834 76.7559L96.294 94.4759L92.208 101.254L95.05 102.152L102.426 97.0899L146.676 77.9819L139.834 76.7559Z" fill="#CACACA"/>
<path d="M95.0503 106.071L102.558 107.743L146.676 86.6014V77.9814L102.426 97.0894L95.0503 102.151V106.071Z" fill="#717171"/>
<path opacity="0.67" d="M146.674 86.5995V77.9795C146.256 78.3975 120.812 97.8475 107.846 105.207L146.674 86.5995Z" fill="#5F5F63"/>
<path d="M102.558 107.502L102.426 97.0898L95.0503 102.152V106.072L102.558 107.502Z" fill="#636368"/>
<path d="M96.2939 94.4759L102.426 97.0899L146.676 77.9819L139.834 76.7559L96.2939 94.4759Z" fill="#636368"/>
<path d="M103.6 97.468C103.603 97.5057 103.594 97.5433 103.575 97.576C103.557 97.6087 103.528 97.635 103.494 97.6514C103.46 97.6678 103.422 97.6736 103.385 97.668C103.347 97.6624 103.313 97.6457 103.285 97.62C103.257 97.5944 103.238 97.561 103.229 97.5242C103.221 97.4874 103.224 97.4489 103.237 97.4137C103.251 97.3785 103.275 97.3483 103.306 97.327C103.337 97.3056 103.374 97.2942 103.412 97.2941C103.46 97.2924 103.507 97.3098 103.542 97.3424C103.577 97.375 103.598 97.4201 103.6 97.468Z" fill="#636368"/>
<path d="M105.046 96.9574C105.048 96.9862 105.041 97.015 105.027 97.0399C105.012 97.0649 104.99 97.0849 104.964 97.0973C104.938 97.1098 104.909 97.1141 104.88 97.1097C104.852 97.1053 104.825 97.0925 104.804 97.0728C104.783 97.0531 104.768 97.0275 104.762 96.9994C104.755 96.9712 104.758 96.9417 104.768 96.9148C104.779 96.8879 104.797 96.8648 104.821 96.8485C104.845 96.8322 104.873 96.8234 104.902 96.8234C104.92 96.8226 104.939 96.8254 104.956 96.8317C104.973 96.8381 104.989 96.8477 105.002 96.8602C105.015 96.8727 105.026 96.8877 105.034 96.9044C105.041 96.9211 105.045 96.9391 105.046 96.9574Z" fill="#636368"/>
<path d="M103.936 98.7995C103.935 98.8205 103.93 98.8412 103.922 98.8603C103.913 98.8794 103.901 98.8966 103.885 98.9109C103.87 98.9252 103.852 98.9363 103.832 98.9436C103.812 98.9509 103.791 98.9543 103.77 98.9535C103.749 98.956 103.727 98.9538 103.706 98.9473C103.685 98.9407 103.666 98.9299 103.65 98.9154C103.634 98.901 103.621 98.8833 103.612 98.8635C103.603 98.8436 103.599 98.8222 103.599 98.8005C103.599 98.7788 103.603 98.7573 103.612 98.7375C103.621 98.7177 103.634 98.7 103.65 98.6856C103.666 98.6711 103.685 98.6603 103.706 98.6537C103.727 98.6471 103.749 98.645 103.77 98.6475C103.812 98.6459 103.853 98.6609 103.884 98.6894C103.915 98.7178 103.934 98.7574 103.936 98.7995Z" fill="#636368"/>
<path d="M104.902 98.1555C104.898 98.1895 104.882 98.2208 104.856 98.2436C104.83 98.2663 104.797 98.2788 104.763 98.2788C104.729 98.2788 104.696 98.2663 104.67 98.2436C104.645 98.2208 104.628 98.1895 104.624 98.1555C104.628 98.1215 104.645 98.0902 104.67 98.0675C104.696 98.0448 104.729 98.0322 104.763 98.0322C104.797 98.0322 104.83 98.0448 104.856 98.0675C104.882 98.0902 104.898 98.1215 104.902 98.1555Z" fill="#636368"/>
<path d="M104.47 97.7438C104.468 97.7721 104.456 97.7986 104.435 97.8177C104.414 97.8368 104.386 97.8469 104.358 97.8458C104.344 97.8463 104.33 97.8441 104.317 97.8393C104.304 97.8344 104.292 97.8271 104.282 97.8176C104.272 97.8081 104.263 97.7967 104.258 97.784C104.252 97.7714 104.249 97.7577 104.248 97.7438C104.248 97.7298 104.251 97.716 104.257 97.7032C104.263 97.6904 104.271 97.6789 104.281 97.6693C104.292 97.6598 104.304 97.6525 104.317 97.6477C104.33 97.643 104.344 97.641 104.358 97.6418C104.372 97.641 104.386 97.643 104.4 97.6477C104.413 97.6524 104.425 97.6597 104.435 97.6692C104.446 97.6787 104.454 97.6902 104.46 97.703C104.466 97.7158 104.47 97.7297 104.47 97.7438Z" fill="#636368"/>
<path d="M103.114 97.9377C103.114 97.9503 103.111 97.9625 103.105 97.9739C103.1 97.9852 103.092 97.9954 103.083 98.0038C103.074 98.0122 103.063 98.0186 103.051 98.0227C103.039 98.0268 103.027 98.0285 103.014 98.0277C103.001 98.0297 102.988 98.0288 102.975 98.0251C102.962 98.0214 102.951 98.015 102.941 98.0064C102.931 97.9978 102.923 97.9871 102.917 97.975C102.912 97.963 102.909 97.9499 102.909 97.9367C102.909 97.9235 102.912 97.9104 102.917 97.8984C102.923 97.8864 102.931 97.8757 102.941 97.8671C102.951 97.8584 102.962 97.852 102.975 97.8484C102.988 97.8447 103.001 97.8438 103.014 97.8457C103.027 97.8452 103.039 97.8471 103.051 97.8515C103.063 97.8558 103.074 97.8624 103.083 97.871C103.093 97.8795 103.1 97.8898 103.105 97.9013C103.111 97.9127 103.114 97.9251 103.114 97.9377Z" fill="#636368"/>
<path d="M102.836 98.872C102.836 98.8824 102.833 98.8926 102.829 98.9021C102.825 98.9116 102.819 98.9202 102.811 98.9273C102.803 98.9344 102.794 98.9398 102.785 98.9434C102.775 98.947 102.764 98.9485 102.754 98.948C102.743 98.9498 102.731 98.9491 102.721 98.9461C102.71 98.9431 102.7 98.9377 102.691 98.9304C102.682 98.923 102.676 98.9139 102.671 98.9037C102.666 98.8934 102.664 98.8823 102.664 98.871C102.664 98.8597 102.666 98.8485 102.671 98.8383C102.676 98.828 102.682 98.8189 102.691 98.8116C102.7 98.8043 102.71 98.7989 102.721 98.7958C102.731 98.7928 102.743 98.7922 102.754 98.794C102.765 98.7937 102.775 98.7955 102.785 98.7993C102.795 98.8031 102.804 98.8087 102.811 98.816C102.819 98.8232 102.825 98.8319 102.829 98.8415C102.833 98.8511 102.836 98.8615 102.836 98.872Z" fill="#636368"/>
<path d="M103.014 99.5996C103.016 99.6256 103.01 99.6517 102.997 99.6743C102.984 99.697 102.965 99.7152 102.941 99.7266C102.918 99.7379 102.891 99.742 102.865 99.7382C102.839 99.7343 102.815 99.7228 102.796 99.7051C102.777 99.6874 102.764 99.6643 102.758 99.6388C102.752 99.6134 102.754 99.5867 102.763 99.5624C102.773 99.5381 102.789 99.5171 102.811 99.5024C102.832 99.4876 102.858 99.4796 102.884 99.4796C102.917 99.4785 102.949 99.4905 102.974 99.5129C102.998 99.5354 103.012 99.5665 103.014 99.5996Z" fill="#636368"/>
<path d="M104.716 99.7117C104.715 99.7272 104.711 99.7424 104.705 99.7564C104.698 99.7704 104.689 99.783 104.677 99.7934C104.666 99.8038 104.652 99.8118 104.638 99.817C104.623 99.8222 104.607 99.8245 104.592 99.8237C104.576 99.8258 104.559 99.8245 104.544 99.8198C104.528 99.8151 104.514 99.8072 104.502 99.7965C104.49 99.7858 104.48 99.7726 104.473 99.7578C104.466 99.743 104.463 99.7269 104.463 99.7107C104.463 99.6944 104.466 99.6784 104.473 99.6636C104.48 99.6488 104.49 99.6356 104.502 99.6249C104.514 99.6142 104.528 99.6062 104.544 99.6015C104.559 99.5969 104.576 99.5955 104.592 99.5977C104.608 99.5969 104.623 99.5992 104.638 99.6045C104.653 99.6098 104.666 99.618 104.678 99.6287C104.689 99.6393 104.699 99.6521 104.705 99.6663C104.712 99.6806 104.715 99.696 104.716 99.7117Z" fill="#636368"/>
<path d="M106.612 96.2775C106.614 96.3051 106.608 96.3327 106.594 96.3567C106.58 96.3806 106.559 96.3999 106.534 96.4119C106.509 96.4239 106.481 96.4281 106.454 96.4239C106.426 96.4198 106.401 96.4075 106.381 96.3887C106.36 96.3698 106.346 96.3453 106.34 96.3183C106.334 96.2913 106.336 96.263 106.346 96.2372C106.356 96.2114 106.374 96.1893 106.396 96.1736C106.419 96.158 106.446 96.1496 106.474 96.1495C106.509 96.1484 106.543 96.1612 106.569 96.1852C106.595 96.2091 106.611 96.2423 106.612 96.2775Z" fill="#636368"/>
<path d="M108.778 95.3861C108.78 95.4149 108.774 95.4437 108.759 95.4686C108.745 95.4936 108.723 95.5136 108.697 95.526C108.671 95.5385 108.641 95.5428 108.613 95.5384C108.584 95.534 108.558 95.5212 108.537 95.5015C108.515 95.4818 108.501 95.4562 108.494 95.4281C108.488 95.3999 108.49 95.3704 108.501 95.3435C108.511 95.3166 108.53 95.2935 108.553 95.2772C108.577 95.2609 108.605 95.2522 108.634 95.2521C108.653 95.2513 108.671 95.2541 108.688 95.2604C108.705 95.2668 108.721 95.2765 108.734 95.2889C108.748 95.3014 108.759 95.3164 108.766 95.3331C108.774 95.3498 108.778 95.3678 108.778 95.3861Z" fill="#636368"/>
<path d="M103.48 101.086C103.482 101.112 103.476 101.137 103.464 101.16C103.451 101.182 103.431 101.2 103.408 101.211C103.385 101.222 103.359 101.226 103.333 101.222C103.308 101.218 103.284 101.207 103.265 101.189C103.246 101.172 103.233 101.149 103.228 101.123C103.222 101.098 103.224 101.072 103.234 101.048C103.244 101.024 103.26 101.004 103.282 100.989C103.303 100.975 103.328 100.968 103.354 100.968C103.37 100.967 103.386 100.97 103.401 100.976C103.416 100.981 103.43 100.99 103.442 101.001C103.453 101.012 103.463 101.025 103.469 101.039C103.476 101.054 103.48 101.07 103.48 101.086Z" fill="#636368"/>
<path d="M102.426 97.0898L102.558 107.744L95.0503 106.072C95.0503 106.072 101.638 105.348 102.426 97.0898Z" fill="#56565B"/>
<path d="M88.604 90.3223L91.416 91.2583L91.284 94.9703L88.48 93.8023L88.604 90.3223Z" fill="#818189"/>
<path d="M137.024 68.5381L92.916 84.0241L88.604 90.3221L91.416 91.2581L98.956 86.6821L143.822 69.9021L137.024 68.5381Z" fill="#CACACA"/>
<path d="M91.2842 94.9703L98.7322 96.7783L143.532 78.0683L143.822 69.9023L98.9562 86.6823L91.4162 91.2583L91.2842 94.9703Z" fill="#717171"/>
<path d="M98.7402 96.5476L98.9562 86.6816L91.4162 91.2576L91.2842 94.9696L98.7402 96.5476Z" fill="#636368"/>
<path d="M92.916 84.0241L98.956 86.6821L143.822 69.9021L137.024 68.5381L92.916 84.0241Z" fill="#A7A7AF"/>
<path d="M100.12 87.0758C100.126 87.1168 100.119 87.1585 100.1 87.1952C100.081 87.2319 100.051 87.2618 100.014 87.2809C99.9776 87.2999 99.9359 87.3071 99.8949 87.3015C99.854 87.2958 99.8158 87.2777 99.7856 87.2494C99.7554 87.2212 99.7347 87.1843 99.7263 87.1438C99.7179 87.1034 99.7223 87.0613 99.7388 87.0234C99.7554 86.9855 99.7832 86.9537 99.8186 86.9322C99.8539 86.9108 99.895 86.9009 99.9363 86.9038C99.9833 86.9027 100.029 86.9201 100.063 86.9523C100.098 86.9844 100.118 87.0288 100.12 87.0758Z" fill="#636368"/>
<path d="M101.58 86.6338C101.576 86.6694 101.558 86.702 101.531 86.7247C101.503 86.7475 101.468 86.7586 101.432 86.7558C101.414 86.7566 101.396 86.7539 101.38 86.7478C101.363 86.7416 101.348 86.7323 101.335 86.7202C101.322 86.7081 101.311 86.6935 101.304 86.6773C101.297 86.6611 101.293 86.6436 101.292 86.6258C101.298 86.5918 101.315 86.5608 101.342 86.5385C101.368 86.5162 101.401 86.5039 101.436 86.5039C101.471 86.5039 101.504 86.5162 101.53 86.5385C101.557 86.5608 101.574 86.5918 101.58 86.6258V86.6338Z" fill="#636368"/>
<path d="M100.4 88.3416C100.396 88.3829 100.375 88.4207 100.343 88.4469C100.311 88.4731 100.27 88.4855 100.228 88.4816C100.208 88.4824 100.188 88.4792 100.169 88.472C100.149 88.4649 100.132 88.454 100.117 88.4401C100.102 88.4261 100.09 88.4093 100.082 88.3907C100.073 88.3721 100.069 88.352 100.068 88.3316C100.075 88.292 100.095 88.2559 100.125 88.2299C100.156 88.2038 100.194 88.1895 100.234 88.1895C100.274 88.1895 100.313 88.2038 100.344 88.2299C100.374 88.2559 100.394 88.292 100.4 88.3316V88.3416Z" fill="#636368"/>
<path d="M101.4 87.7657C101.403 87.7941 101.398 87.8227 101.384 87.8478C101.371 87.873 101.35 87.8934 101.325 87.9063C101.299 87.9193 101.271 87.9243 101.243 87.9205C101.214 87.9167 101.188 87.9044 101.167 87.8852C101.146 87.866 101.131 87.8408 101.125 87.813C101.118 87.7852 101.121 87.7562 101.131 87.7297C101.142 87.7032 101.16 87.6806 101.184 87.6649C101.208 87.6492 101.236 87.6411 101.264 87.6417C101.281 87.6409 101.298 87.6435 101.314 87.6493C101.33 87.6551 101.345 87.664 101.358 87.6755C101.371 87.6871 101.381 87.701 101.388 87.7164C101.395 87.7319 101.399 87.7487 101.4 87.7657Z" fill="#636368"/>
<path d="M100.976 87.3619C100.973 87.3888 100.96 87.4135 100.939 87.4313C100.919 87.4492 100.893 87.459 100.865 87.459C100.838 87.459 100.812 87.4492 100.792 87.4313C100.771 87.4135 100.758 87.3888 100.754 87.3619C100.757 87.3345 100.771 87.3093 100.792 87.2918C100.814 87.2742 100.841 87.2657 100.868 87.2679C100.895 87.2668 100.921 87.2759 100.941 87.2934C100.961 87.3109 100.974 87.3354 100.976 87.3619Z" fill="#636368"/>
<path d="M99.616 87.5062C99.613 87.5309 99.6005 87.5536 99.581 87.5693C99.5616 87.5849 99.5369 87.5924 99.512 87.5902C99.4874 87.5907 99.4636 87.5816 99.4456 87.5648C99.4277 87.5479 99.4171 87.5248 99.416 87.5002C99.419 87.4756 99.4312 87.4531 99.4501 87.4371C99.469 87.4212 99.4933 87.413 99.518 87.4142C99.5431 87.4136 99.5675 87.423 99.5858 87.4402C99.6041 87.4574 99.615 87.4811 99.616 87.5062Z" fill="#636368"/>
<path d="M99.3061 88.3818C99.3031 88.4016 99.293 88.4196 99.2778 88.4327C99.2626 88.4457 99.2432 88.4529 99.2231 88.4529C99.2031 88.4529 99.1837 88.4457 99.1685 88.4327C99.1533 88.4196 99.1432 88.4016 99.1401 88.3818C99.1427 88.3613 99.153 88.3425 99.169 88.3295C99.1851 88.3164 99.2055 88.3101 99.2261 88.3118C99.2459 88.3112 99.2651 88.3181 99.2799 88.3311C99.2948 88.344 99.3041 88.3622 99.3061 88.3818Z" fill="#636368"/>
<path d="M99.4602 89.0755C99.4567 89.1077 99.4407 89.1372 99.4156 89.1578C99.3906 89.1784 99.3585 89.1883 99.3262 89.1855C99.3102 89.186 99.2942 89.1834 99.2792 89.1778C99.2642 89.1721 99.2504 89.1636 99.2387 89.1526C99.227 89.1416 99.2176 89.1285 99.211 89.1139C99.2044 89.0993 99.2007 89.0835 99.2002 89.0675C99.2037 89.0353 99.2197 89.0057 99.2448 88.9852C99.2698 88.9646 99.3019 88.9547 99.3342 88.9575C99.3502 88.957 99.3662 88.9596 99.3812 88.9652C99.3962 88.9709 99.41 88.9794 99.4217 88.9904C99.4334 89.0013 99.4428 89.0145 99.4494 89.0291C99.456 89.0437 99.4597 89.0595 99.4602 89.0755Z" fill="#636368"/>
<path d="M101.156 89.2342C101.152 89.2641 101.138 89.2916 101.115 89.3116C101.092 89.3315 101.063 89.3425 101.033 89.3425C101.003 89.3425 100.974 89.3315 100.951 89.3116C100.929 89.2916 100.914 89.2641 100.91 89.2342C100.914 89.204 100.929 89.1763 100.952 89.1569C100.976 89.1375 101.006 89.1279 101.036 89.1302C101.066 89.129 101.094 89.1391 101.117 89.1585C101.139 89.1778 101.153 89.2049 101.156 89.2342Z" fill="#636368"/>
<path d="M103.168 86.0382C103.172 86.0666 103.166 86.0953 103.152 86.1204C103.139 86.1456 103.118 86.166 103.092 86.1789C103.067 86.1919 103.038 86.1967 103.01 86.1927C102.981 86.1888 102.955 86.1762 102.934 86.1568C102.913 86.1374 102.899 86.112 102.892 86.0841C102.886 86.0562 102.889 86.0271 102.9 86.0006C102.911 85.9742 102.929 85.9518 102.953 85.9363C102.977 85.9208 103.006 85.9131 103.034 85.9142C103.068 85.9131 103.102 85.9255 103.127 85.9487C103.152 85.9719 103.167 86.004 103.168 86.0382Z" fill="#636368"/>
<path d="M105.362 85.2557C105.357 85.2898 105.339 85.3207 105.313 85.3431C105.286 85.3654 105.253 85.3776 105.218 85.3776C105.184 85.3776 105.15 85.3654 105.124 85.3431C105.098 85.3207 105.08 85.2898 105.074 85.2557C105.08 85.2216 105.098 85.1907 105.124 85.1684C105.15 85.146 105.184 85.1338 105.218 85.1338C105.253 85.1338 105.286 85.146 105.313 85.1684C105.339 85.1907 105.357 85.2216 105.362 85.2557Z" fill="#636368"/>
<path d="M99.8761 90.4979C99.8746 90.5137 99.87 90.529 99.8625 90.543C99.855 90.557 99.8449 90.5694 99.8326 90.5794C99.8203 90.5895 99.8062 90.597 99.791 90.6015C99.7758 90.6061 99.7598 90.6076 99.7441 90.6059C99.7286 90.6064 99.7131 90.6039 99.6986 90.5985C99.6841 90.593 99.6708 90.5848 99.6594 90.5742C99.6481 90.5636 99.639 90.5509 99.6326 90.5368C99.6262 90.5227 99.6226 90.5074 99.6221 90.4919C99.626 90.461 99.641 90.4325 99.6644 90.4119C99.6878 90.3913 99.7179 90.3799 99.7491 90.3799C99.7803 90.3799 99.8104 90.3913 99.8337 90.4119C99.8571 90.4325 99.8722 90.461 99.8761 90.4919V90.4979Z" fill="#636368"/>
<path d="M98.9562 86.6816L98.7322 96.7776L91.2842 94.9776C91.2842 94.9776 97.8902 94.4796 98.9562 86.6816Z" fill="#56565B"/>
<path d="M98.7319 96.7783L143.532 78.0683L143.822 69.9023L143.316 77.7883L98.7319 96.7783Z" fill="#3B3E3F"/>
<path d="M146.676 77.9814V86.6014L102.558 107.743L95.0503 106.071L102.558 107.501L146.424 86.4534L146.676 77.9814Z" fill="#3B3E3F"/>
<g style="mix-blend-mode:multiply" opacity="0.09">
<path d="M100.222 96.1494L102.426 97.0894L102.558 107.501L146.676 86.6014V77.9814L143.532 78.0674L100.222 96.1494Z" fill="#AAA59B"/>
</g>
<path d="M85.5515 172V152.38H91.8215C93.1815 152.38 94.3815 152.54 95.4215 152.86C96.4815 153.16 97.3115 153.66 97.9115 154.36C98.5315 155.06 98.8415 156.01 98.8415 157.21C98.8415 158.21 98.6015 159.1 98.1215 159.88C97.6615 160.64 96.9915 161.17 96.1115 161.47V161.59C97.2715 161.83 98.1815 162.32 98.8415 163.06C99.5215 163.78 99.8615 164.79 99.8615 166.09C99.8615 167.43 99.5315 168.54 98.8715 169.42C98.2315 170.3 97.3415 170.95 96.2015 171.37C95.0615 171.79 93.7715 172 92.3315 172H85.5515ZM89.0315 160.48H91.5215C92.8815 160.48 93.8715 160.23 94.4915 159.73C95.1115 159.23 95.4215 158.56 95.4215 157.72C95.4215 156.76 95.1015 156.08 94.4615 155.68C93.8215 155.28 92.8615 155.08 91.5815 155.08H89.0315V160.48ZM89.0315 169.3H91.9715C93.4115 169.3 94.5215 169.04 95.3015 168.52C96.0815 167.98 96.4715 167.16 96.4715 166.06C96.4715 165.02 96.0915 164.27 95.3315 163.81C94.5715 163.33 93.4515 163.09 91.9715 163.09H89.0315V169.3ZM109.482 172.36C108.102 172.36 106.852 172.06 105.732 171.46C104.632 170.84 103.762 169.96 103.122 168.82C102.482 167.66 102.162 166.26 102.162 164.62C102.162 163.02 102.492 161.65 103.152 160.51C103.812 159.35 104.662 158.46 105.702 157.84C106.742 157.22 107.842 156.91 109.002 156.91C110.342 156.91 111.462 157.21 112.362 157.81C113.262 158.41 113.932 159.24 114.372 160.3C114.832 161.34 115.062 162.54 115.062 163.9C115.062 164.22 115.042 164.53 115.002 164.83C114.982 165.13 114.942 165.42 114.882 165.7H104.742V163.06H112.002C112.002 162 111.762 161.17 111.282 160.57C110.802 159.95 110.062 159.64 109.062 159.64C108.502 159.64 107.952 159.79 107.412 160.09C106.892 160.39 106.452 160.9 106.092 161.62C105.752 162.34 105.582 163.34 105.582 164.62C105.582 165.78 105.782 166.73 106.182 167.47C106.582 168.19 107.112 168.73 107.772 169.09C108.432 169.43 109.142 169.6 109.902 169.6C110.542 169.6 111.142 169.51 111.702 169.33C112.282 169.15 112.822 168.9 113.322 168.58L114.522 170.8C113.842 171.28 113.062 171.66 112.182 171.94C111.322 172.22 110.422 172.36 109.482 172.36ZM122.467 172.36C121.447 172.36 120.437 172.17 119.437 171.79C118.457 171.41 117.607 170.88 116.887 170.2L118.417 168.22C119.077 168.76 119.747 169.15 120.427 169.39C121.107 169.63 121.827 169.75 122.587 169.75C123.387 169.75 123.977 169.58 124.357 169.24C124.737 168.9 124.927 168.48 124.927 167.98C124.927 167.58 124.777 167.24 124.477 166.96C124.197 166.68 123.827 166.44 123.367 166.24C122.907 166.04 122.397 165.84 121.837 165.64C121.117 165.38 120.447 165.07 119.827 164.71C119.207 164.33 118.697 163.87 118.297 163.33C117.917 162.77 117.727 162.1 117.727 161.32C117.727 160.02 118.207 158.96 119.167 158.14C120.127 157.32 121.427 156.91 123.067 156.91C124.067 156.91 124.987 157.08 125.827 157.42C126.667 157.74 127.387 158.16 127.987 158.68L126.457 160.63C125.937 160.25 125.407 159.97 124.867 159.79C124.327 159.61 123.757 159.52 123.157 159.52C122.417 159.52 121.867 159.68 121.507 160C121.147 160.32 120.967 160.7 120.967 161.14C120.967 161.5 121.077 161.81 121.297 162.07C121.537 162.31 121.877 162.53 122.317 162.73C122.757 162.91 123.287 163.1 123.907 163.3C124.667 163.56 125.377 163.88 126.037 164.26C126.697 164.62 127.217 165.09 127.597 165.67C127.997 166.23 128.197 166.94 128.197 167.8C128.197 168.64 127.977 169.41 127.537 170.11C127.097 170.79 126.447 171.34 125.587 171.76C124.747 172.16 123.707 172.36 122.467 172.36ZM131.277 172V157.27H134.727V172H131.277ZM132.987 154.69C132.387 154.69 131.887 154.51 131.487 154.15C131.107 153.79 130.917 153.31 130.917 152.71C130.917 152.11 131.107 151.64 131.487 151.3C131.887 150.94 132.387 150.76 132.987 150.76C133.607 150.76 134.107 150.94 134.487 151.3C134.867 151.64 135.057 152.11 135.057 152.71C135.057 153.31 134.867 153.79 134.487 154.15C134.107 154.51 133.607 154.69 132.987 154.69Z" fill="black"/>
</svg>
