<svg width="220" height="220" viewBox="0 0 220 220" fill="none" xmlns="http://www.w3.org/2000/svg">
<rect x="0.5" y="0.5" width="219" height="219" rx="19.5" fill="white" stroke="#093D77"/>
<path d="M85.8379 53.7637C83.8839 53.0157 82.1719 53.5937 82.0139 55.0557L81.5259 96.4357C81.3679 97.8957 82.8239 99.6877 84.7799 100.436C86.7359 101.184 88.4459 100.604 88.6039 99.1437L89.0919 57.7637C89.2499 56.3017 87.7999 54.5117 85.8379 53.7637Z" fill="#14B6B8"/>
<path d="M90.7037 53.1998C88.7497 52.4518 87.0357 53.0318 86.8777 54.4918L86.8457 98.4738C86.6877 99.9358 88.1417 101.726 90.0977 102.474C92.0537 103.222 93.7637 102.642 93.9237 101.182L93.9557 57.1998C94.1137 55.7358 92.6597 53.9438 90.7037 53.1998Z" fill="#14B6B8"/>
<path d="M96.2958 52.7197C94.3418 51.9717 92.6278 52.5497 92.4698 54.0117L92.1658 100.506C92.0058 101.966 93.4618 103.758 95.4178 104.506C97.3738 105.254 99.0838 104.674 99.2418 103.212L99.5478 56.7197C99.7058 55.2577 98.2498 53.4677 96.2958 52.7197Z" fill="#14B6B8"/>
<path d="M101.8 53.0801C99.8459 52.3321 98.1339 52.9101 97.9739 54.3721L97.4839 102.54C97.3259 104.002 98.7819 105.792 100.736 106.54C102.69 107.288 104.404 106.708 104.562 105.248L105.048 57.0801C105.2 55.6181 103.75 53.8281 101.8 53.0801Z" fill="#14B6B8"/>
<path d="M106.752 58.4635C104.798 57.7155 103.086 58.2955 102.926 59.7555L102.8 104.573C102.642 106.035 104.098 107.826 106.054 108.573C108.01 109.321 109.72 108.742 109.878 107.279L110 62.4635C110.162 60.9995 108.708 59.2115 106.752 58.4635Z" fill="#14B6B8"/>
<path d="M112.298 58.3994C110.344 57.6514 108.632 58.2294 108.472 59.6914L108.122 106.603C107.964 108.063 109.42 109.855 111.376 110.603C113.332 111.351 115.042 110.771 115.198 109.311L115.55 62.3994C115.708 60.9434 114.252 59.1534 112.298 58.3994Z" fill="#14B6B8"/>
<path opacity="0.9" d="M106.78 71.0774C104.82 70.3494 102.604 70.5954 101.834 71.6314L82.7341 97.2314C81.9641 98.2654 82.9341 99.6954 84.8881 100.431C86.8421 101.167 89.0641 100.913 89.8341 99.8794L108.932 74.2794C109.704 73.2374 108.74 71.7994 106.78 71.0774Z" fill="#093D77"/>
<path opacity="0.53" d="M112.116 73.0638C110.154 72.3338 107.94 72.5818 107.168 73.6158L88.0699 99.2158C87.2979 100.25 88.2699 101.68 90.2239 102.416C92.1779 103.152 94.3979 102.898 95.1699 101.864L114.268 76.2638C115.04 75.2238 114.076 73.7998 112.116 73.0638Z" fill="#093D77"/>
<path opacity="0.9" d="M117.452 75.0501C115.49 74.3201 113.276 74.5681 112.504 75.6021L93.4 101.2C92.628 102.236 93.6 103.666 95.552 104.4C97.504 105.134 99.728 104.882 100.5 103.848L119.598 78.2481C120.374 77.2101 119.412 75.7801 117.452 75.0501Z" fill="#093D77"/>
<path opacity="0.53" d="M122.786 77.036C120.826 76.306 118.612 76.552 117.84 77.588L98.7418 103.2C97.9698 104.236 98.9418 105.666 100.894 106.4C102.846 107.134 105.07 106.882 105.842 105.848L124.94 80.248C125.71 79.2 124.748 77.764 122.786 77.036Z" fill="#093D77"/>
<path opacity="0.6" d="M128.122 79.0197C126.162 78.2897 123.946 78.5377 123.176 79.5737L104.078 105.174C103.306 106.208 104.278 107.638 106.23 108.374C108.182 109.11 110.404 108.856 111.178 107.822L130.274 82.2217C131.046 81.1797 130.084 79.7497 128.122 79.0197Z" fill="#093D77"/>
<path opacity="0.9" d="M133.456 80.9993C131.496 80.2693 129.282 80.5173 128.51 81.5513L109.414 107.151C108.64 108.185 109.614 109.615 111.566 110.351C113.518 111.087 115.74 110.833 116.512 109.799L135.61 84.1993C136.382 83.1653 135.42 81.7353 133.456 80.9993Z" fill="#093D77"/>
<path d="M106.78 71.0774C104.82 70.3494 102.604 70.5954 101.834 71.6314L95.338 80.3394C94.566 81.3754 95.538 82.8054 97.49 83.5394C99.442 84.2734 101.666 84.0214 102.438 82.9854L108.932 74.2774C109.704 73.2374 108.74 71.7994 106.78 71.0774Z" fill="#093D77"/>
<path d="M112.116 73.0638C110.154 72.3338 107.94 72.5818 107.168 73.6158L100.01 83.2158C99.2379 84.2498 100.21 85.6798 102.162 86.4158C104.114 87.1518 106.338 86.8978 107.11 85.8638L114.268 76.2638C115.04 75.2238 114.076 73.7998 112.116 73.0638Z" fill="#093D77"/>
<path d="M117.452 75.0501C115.49 74.3201 113.276 74.5681 112.504 75.6021L106.672 83.4221C105.9 84.4581 106.872 85.8881 108.824 86.6221C110.776 87.3561 113 87.1041 113.772 86.0681L119.6 78.2441C120.374 77.2101 119.412 75.7801 117.452 75.0501Z" fill="#093D77"/>
<path d="M122.786 77.036C120.826 76.306 118.612 76.552 117.84 77.588L109.8 88.372C109.028 89.408 110 90.838 111.952 91.572C113.904 92.306 116.13 92.056 116.9 91.02L124.944 80.236C125.71 79.2 124.748 77.764 122.786 77.036Z" fill="#093D77"/>
<path d="M128.122 79.0197C126.162 78.2897 123.946 78.5377 123.176 79.5737L116.46 88.5737C115.686 89.6077 116.65 91.0377 118.61 91.7737C120.57 92.5097 122.786 92.2557 123.558 91.2197L130.274 82.2197C131.046 81.1797 130.084 79.7497 128.122 79.0197Z" fill="#093D77"/>
<path d="M133.456 80.9993C131.496 80.2693 129.282 80.5173 128.51 81.5513L122.236 89.9653C121.464 90.9993 122.436 92.4293 124.388 93.1653C126.34 93.9013 128.564 93.6473 129.336 92.6133L135.61 84.1993C136.382 83.1653 135.42 81.7353 133.456 80.9993Z" fill="#093D77"/>
<g style="mix-blend-mode:multiply">
<path d="M100.83 119.724C100.478 119.582 100.466 118.8 100.8 117.978C101.134 117.156 101.692 116.61 102.044 116.754C102.396 116.898 102.408 117.678 102.074 118.498C101.74 119.318 101.182 119.868 100.83 119.724ZM137.922 82.7098L136.62 82.1778C137.392 79.9778 137.548 78.1318 136.93 77.8798L103.84 64.3678C103.144 64.0838 101.734 65.9258 100.69 68.4798C99.6457 71.0338 99.3657 73.3378 100.062 73.6218L133.15 87.1338C133.768 87.3878 134.95 85.9598 135.938 83.8498L136.404 84.0398L134.4 88.9718L115.254 87.9718C114.466 87.9298 113.654 87.9378 113.122 88.2818C112.59 88.6258 112.274 89.3598 112.068 89.8818C112.046 89.9418 112.022 89.9978 112.002 90.0478L108.602 98.3538L107.66 97.9678C107.314 97.8278 106.86 97.9678 106.778 98.3398C106.69 98.7398 106.778 99.5878 106.71 99.9958L98.4337 119.196H98.4557C98.1897 119.85 98.9637 120.784 100.186 121.284C101.408 121.784 102.616 121.658 102.884 121.004L102.906 121.014L110.44 101.52C110.67 101.176 111.33 100.644 111.55 100.292C111.75 99.9758 111.528 99.5498 111.18 99.4078L110.274 99.0378L113.674 90.7338C113.698 90.6738 113.722 90.6098 113.748 90.5338C113.838 90.2784 113.955 90.0331 114.096 89.8018C114.196 89.7718 114.462 89.7278 115.16 89.7658L134.936 90.7998C135.123 90.8099 135.309 90.7614 135.467 90.6611C135.626 90.5607 135.749 90.4134 135.82 90.2398L138.42 83.8778C138.507 83.6567 138.504 83.41 138.411 83.1913C138.318 82.9726 138.142 82.7995 137.922 82.7098Z" fill="#E6DFCF"/>
</g>
<path d="M109.788 100.228L108.116 99.5456L112 90.0496C112.02 89.9996 112.044 89.9436 112.066 89.8836C112.266 89.3596 112.552 88.6416 113.12 88.2836C113.688 87.9256 114.464 87.9316 115.252 87.9736L134.398 88.9736L136.4 84.0396L102.082 70.0236L102.764 68.3516L137.922 82.7096C138.032 82.7542 138.132 82.82 138.216 82.9032C138.301 82.9865 138.368 83.0855 138.414 83.1948C138.46 83.304 138.484 83.4212 138.485 83.5397C138.485 83.6583 138.463 83.7758 138.418 83.8856L135.818 90.2476C135.747 90.4212 135.624 90.5685 135.466 90.6689C135.307 90.7692 135.121 90.8177 134.934 90.8076L115.15 89.7736C114.452 89.7356 114.186 89.7736 114.086 89.8096C113.945 90.0409 113.828 90.2862 113.738 90.5416C113.712 90.6096 113.688 90.6736 113.664 90.7416L109.788 100.228Z" fill="#FFD18E"/>
<path d="M109.382 99.6279L112.956 90.8759C112.98 90.8219 113.002 90.7619 113.028 90.6999C113.192 90.2779 113.418 89.6999 113.764 89.4819C114.164 89.2299 115.048 89.2819 115.424 89.2959L135.138 90.3239L137.67 84.1239L103.348 70.1059L103.424 69.9219L137.84 83.9759C137.864 83.9861 137.883 84.0054 137.893 84.0298C137.904 84.0541 137.904 84.0815 137.894 84.1059L135.294 90.4659C135.286 90.4855 135.273 90.5022 135.255 90.5133C135.237 90.5245 135.217 90.5296 135.196 90.5279L115.412 89.4959C114.564 89.4519 114.244 89.5119 114.076 89.5639L113.838 89.6339L113.684 89.8339C113.483 90.1248 113.325 90.4426 113.214 90.7779C113.186 90.8459 113.164 90.9059 113.142 90.9599L109.566 99.7139L109.382 99.6279Z" fill="#FFD18E"/>
<path d="M108.53 99.0633L112.256 89.9393C112.278 89.8873 112.3 89.8293 112.324 89.7673C112.51 89.2953 112.764 88.6473 113.218 88.3673C113.672 88.0873 114.428 88.0813 115.114 88.1173L134.544 89.1313L136.818 83.5673L102.494 69.5413L102.874 68.6133L137.662 82.8133C137.785 82.8638 137.883 82.961 137.934 83.0836C137.985 83.2062 137.986 83.3442 137.936 83.4673L135.336 89.8273C135.296 89.9237 135.228 90.0055 135.14 90.0614C135.053 90.1172 134.95 90.1445 134.846 90.1393L115.062 89.1053C114.661 89.0624 114.257 89.08 113.862 89.1573L113.744 89.1913L113.664 89.2873C113.494 89.548 113.36 89.8297 113.264 90.1253C113.236 90.1953 113.212 90.2573 113.188 90.3133L109.462 99.4373L108.53 99.0633Z" fill="#FFD18E"/>
<path d="M126.124 89.2001C122.694 89.0401 119.924 88.8001 119.924 88.6761C119.924 88.5521 122.724 88.5721 126.146 88.7321C129.568 88.8921 132.346 89.1321 132.346 89.2581C132.346 89.3841 129.554 89.3541 126.124 89.2001Z" fill="#FFD18E"/>
<path d="M110.94 93.9278C110.14 95.8438 109.432 97.3738 109.362 97.3438C109.292 97.3138 109.88 95.7338 110.678 93.8198C111.476 91.9058 112.186 90.3738 112.258 90.4038C112.33 90.4338 111.74 92.0118 110.94 93.9278Z" fill="#FFD18E"/>
<path d="M113.822 88.9135C113.508 88.9835 113.222 88.8895 113.18 88.7035C113.138 88.5175 113.358 88.3035 113.67 88.2395C113.982 88.1755 114.27 88.2635 114.312 88.4495C114.354 88.6355 114.134 88.8435 113.822 88.9135Z" fill="#FFD18E"/>
<path d="M136.93 77.8798L103.84 64.3678C103.144 64.0838 101.734 65.9258 100.69 68.4798C99.6457 71.0338 99.3657 73.3378 100.062 73.6218L133.15 87.1338C133.846 87.4178 135.256 85.5778 136.3 83.0218C137.344 80.4658 137.626 78.1638 136.93 77.8798Z" fill="#093D77"/>
<path d="M136.342 82.3998C136.811 81.2978 137.137 80.1404 137.312 78.9558C137.312 78.3818 137.188 77.9958 136.93 77.8898L103.84 64.3678C103.144 64.0838 101.734 65.9258 100.69 68.4798C100.221 69.5808 99.8953 70.7376 99.7217 71.9218C99.7217 72.4978 99.8437 72.8838 100.102 72.9898L133.2 86.5018C133.888 86.7858 135.298 84.9438 136.342 82.3998Z" fill="#14B6B8"/>
<path d="M100.944 69.4498C101.988 66.8958 103.398 65.0498 104.094 65.3378L137.182 78.8498C137.229 78.8713 137.272 78.9004 137.31 78.9358C137.31 78.3678 137.186 77.9858 136.928 77.8798L103.84 64.3678C103.144 64.0838 101.734 65.9258 100.69 68.4798C99.7181 70.8618 99.4081 73.0238 99.9341 73.5358C99.9321 72.5678 100.286 71.0598 100.944 69.4498Z" fill="#093D77"/>
<path d="M119.516 74.4476C126.406 77.2616 132.75 79.2896 137.076 80.1756C137.181 79.771 137.259 79.3602 137.312 78.9456C137.312 78.3716 137.188 77.9856 136.93 77.8796L103.84 64.3676C103.44 64.2056 102.81 64.7396 102.148 65.7036C105.762 68.1776 112.094 71.4156 119.516 74.4476Z" fill="#093D77"/>
<path d="M136.026 78.5154C135.964 78.6654 128.86 75.9154 120.16 72.3554C111.46 68.7954 104.458 65.7994 104.518 65.6494C104.578 65.4994 111.682 68.2494 120.382 71.8114C129.082 75.3734 136.086 78.3654 136.026 78.5154Z" fill="white"/>
<path d="M103.754 65.1056C103.886 65.1996 103.598 65.8276 103.112 66.5056C102.626 67.1836 102.126 67.6616 101.994 67.5676C101.862 67.4736 102.148 66.8456 102.634 66.1676C103.12 65.4896 103.62 65.0116 103.754 65.1056Z" fill="white"/>
<path d="M132.826 86.3519C132.932 86.0879 125.734 82.8999 116.746 79.2299C107.758 75.5599 100.386 72.7999 100.278 73.0599C100.17 73.3199 107.37 76.5119 116.358 80.1819C125.346 83.8519 132.718 86.6139 132.826 86.3519Z" fill="#093D77"/>
<path d="M111.18 99.3995L107.66 97.9615C107.314 97.8215 106.86 97.9615 106.778 98.3335C106.69 98.7335 106.778 99.5815 106.71 99.9895L98.4337 119.189H98.4557C98.1897 119.843 98.9637 120.777 100.186 121.277C101.408 121.777 102.616 121.651 102.884 120.997L102.906 121.007L110.44 101.519C110.67 101.175 111.33 100.643 111.55 100.291C111.75 99.9755 111.528 99.5495 111.18 99.3995ZM100.83 119.723C100.478 119.581 100.466 118.799 100.8 117.977C101.134 117.155 101.692 116.609 102.044 116.753C102.396 116.897 102.408 117.677 102.074 118.497C101.74 119.317 101.182 119.867 100.83 119.723Z" fill="#F1C40F"/>
<path d="M111.18 99.3993L111.09 99.3633C110.821 99.6126 110.57 99.8799 110.338 100.163L102.8 119.689L102.776 119.679C102.51 120.333 101.302 120.459 100.08 119.959C99.4898 119.736 98.9705 119.359 98.5758 118.867L98.4298 119.205H98.4518C98.1858 119.859 98.9598 120.793 100.182 121.293C101.404 121.793 102.612 121.667 102.88 121.013L102.902 121.023L110.44 101.519C110.67 101.175 111.33 100.643 111.55 100.291C111.75 99.9753 111.528 99.5493 111.18 99.3993Z" fill="#FFA31D"/>
<path d="M109.2 102.55C109.37 102.22 109.322 101.862 109.154 101.794L107.438 101.094C107.27 101.024 106.986 101.246 106.874 101.6C106.75 102 106.652 102.766 106.534 103.16C106.43 103.516 106.414 103.848 106.582 103.918L107.782 104.41C107.952 104.48 108.172 104.23 108.346 103.902C108.544 103.538 109.012 102.918 109.2 102.55Z" fill="#FF9E29"/>
<path d="M107.462 107.066C107.638 106.722 107.582 106.35 107.4 106.276L105.552 105.522C105.372 105.448 105.07 105.674 104.952 106.044C104.826 106.444 104.73 107.244 104.61 107.664C104.502 108.032 104.49 108.378 104.672 108.454L105.97 108.984C106.152 109.058 106.386 108.802 106.57 108.462C106.772 108.086 107.264 107.448 107.462 107.066Z" fill="#FF9E29"/>
<path d="M105.492 112.111C105.692 111.727 105.636 111.311 105.442 111.237L103.478 110.437C103.278 110.357 102.958 110.613 102.83 111.027C102.686 111.483 102.57 112.373 102.43 112.827C102.306 113.239 102.286 113.627 102.48 113.703L103.86 114.267C104.06 114.345 104.308 114.067 104.508 113.677C104.734 113.257 105.276 112.537 105.492 112.111Z" fill="#FF9E29"/>
<path d="M101 118.49C101.252 117.87 101.674 117.456 101.94 117.564C102.14 117.648 102.198 118.026 102.092 118.48C102.418 117.666 102.402 116.896 102.054 116.754C101.706 116.612 101.146 117.154 100.81 117.978C100.474 118.802 100.488 119.578 100.84 119.724C100.87 119.736 100.901 119.742 100.934 119.744C100.75 119.55 100.768 119.03 101 118.49Z" fill="#FF9E29"/>
<path d="M98.8618 119.814L98.8378 119.804L107.116 100.604C107.192 100.204 107.094 99.3541 107.182 98.9481C107.262 98.5841 107.72 98.4381 108.066 98.5781L111.586 100.016L111.626 100.036C111.618 99.9012 111.571 99.7714 111.492 99.6616C111.413 99.5519 111.305 99.4668 111.18 99.4161L107.66 97.9781C107.314 97.8381 106.86 97.9781 106.778 98.3501C106.69 98.7501 106.778 99.5981 106.71 100.006L98.4338 119.206H98.4558C98.3058 119.574 98.4858 120.028 98.8858 120.446C98.7958 120.247 98.7872 120.02 98.8618 119.814Z" fill="#FFA31D"/>
<path d="M109.756 99.2458C109.712 99.3518 109.11 99.2058 108.41 98.9198C107.71 98.6338 107.176 98.3198 107.21 98.2098C107.244 98.0998 107.856 98.2518 108.556 98.5378C109.256 98.8238 109.8 99.1418 109.756 99.2458Z" fill="white"/>
<path d="M99.3259 118.8C99.2679 118.776 99.8239 117.332 100.566 115.576C101.308 113.82 101.966 112.416 102.016 112.44C102.066 112.464 101.52 113.908 100.776 115.664C100.032 117.42 99.3839 118.82 99.3259 118.8Z" fill="white"/>
<path d="M99.1117 119.308C99.0097 119.266 99.0697 118.892 99.2457 118.474C99.4217 118.056 99.6457 117.754 99.7497 117.798C99.8537 117.842 99.7917 118.214 99.6157 118.63C99.4397 119.046 99.2137 119.352 99.1117 119.308Z" fill="white"/>
<path d="M108.818 188.36C107.158 188.36 105.648 187.97 104.288 187.19C102.948 186.41 101.878 185.27 101.078 183.77C100.298 182.25 99.9075 180.41 99.9075 178.25C99.9075 176.65 100.138 175.22 100.598 173.96C101.058 172.68 101.698 171.6 102.518 170.72C103.358 169.84 104.318 169.17 105.398 168.71C106.478 168.25 107.638 168.02 108.878 168.02C110.118 168.02 111.218 168.27 112.178 168.77C113.138 169.25 113.928 169.83 114.548 170.51L112.688 172.64C112.188 172.12 111.628 171.73 111.008 171.47C110.408 171.19 109.728 171.05 108.968 171.05C107.928 171.05 106.988 171.34 106.147 171.92C105.328 172.5 104.678 173.32 104.198 174.38C103.718 175.44 103.478 176.7 103.478 178.16C103.478 179.66 103.708 180.95 104.168 182.03C104.628 183.09 105.278 183.91 106.118 184.49C106.958 185.05 107.938 185.33 109.058 185.33C109.898 185.33 110.648 185.16 111.308 184.82C111.968 184.48 112.568 184.03 113.108 183.47L114.878 185.54C114.078 186.46 113.178 187.16 112.178 187.64C111.178 188.12 110.058 188.36 108.818 188.36ZM121.483 188.36C120.623 188.36 119.863 188.18 119.203 187.82C118.543 187.46 118.023 186.96 117.643 186.32C117.283 185.66 117.103 184.9 117.103 184.04C117.103 182.38 117.793 181.13 119.173 180.29C120.573 179.43 122.783 178.84 125.803 178.52C125.783 178.02 125.683 177.56 125.503 177.14C125.343 176.72 125.063 176.39 124.663 176.15C124.283 175.89 123.763 175.76 123.103 175.76C122.383 175.76 121.673 175.89 120.973 176.15C120.293 176.41 119.623 176.74 118.963 177.14L117.703 174.8C118.243 174.46 118.833 174.15 119.473 173.87C120.113 173.57 120.793 173.34 121.513 173.18C122.233 173 122.983 172.91 123.763 172.91C124.983 172.91 125.993 173.16 126.793 173.66C127.613 174.14 128.223 174.86 128.623 175.82C129.043 176.76 129.253 177.92 129.253 179.3V188H126.403L126.163 186.38H126.043C125.363 186.94 124.653 187.41 123.913 187.79C123.173 188.17 122.363 188.36 121.483 188.36ZM122.563 185.54C123.163 185.54 123.713 185.42 124.213 185.18C124.733 184.92 125.263 184.54 125.803 184.04V180.92C124.463 181.08 123.403 181.29 122.623 181.55C121.843 181.81 121.283 182.13 120.943 182.51C120.623 182.87 120.463 183.3 120.463 183.8C120.463 184.42 120.663 184.87 121.063 185.15C121.463 185.41 121.963 185.54 122.563 185.54ZM138.103 188.3C136.403 188.3 135.193 187.81 134.473 186.83C133.773 185.83 133.423 184.54 133.423 182.96V176H131.323V173.42L133.603 173.27L134.023 168.65H136.903V173.27H140.653V176H136.903V182.96C136.903 183.82 137.073 184.47 137.413 184.91C137.753 185.33 138.273 185.54 138.973 185.54C139.233 185.54 139.493 185.52 139.753 185.48C140.013 185.44 140.263 185.36 140.503 185.24L141.133 187.67C140.753 187.85 140.303 188 139.783 188.12C139.263 188.24 138.703 188.3 138.103 188.3Z" fill="black"/>
<path d="M85.8379 53.7637C83.8839 53.0157 82.1719 53.5937 82.0139 55.0557L81.5259 96.4357C81.3679 97.8957 82.8239 99.6877 84.7799 100.436C86.7359 101.184 88.4459 100.604 88.6039 99.1437L89.0919 57.7637C89.2499 56.3017 87.7999 54.5117 85.8379 53.7637Z" fill="#093D77"/>
<path d="M90.7037 53.1998C88.7497 52.4518 87.0357 53.0318 86.8777 54.4918L86.8457 98.4738C86.6877 99.9358 88.1417 101.726 90.0977 102.474C92.0537 103.222 93.7637 102.642 93.9237 101.182L93.9557 57.1998C94.1137 55.7358 92.6597 53.9438 90.7037 53.1998Z" fill="#093D77"/>
<path d="M96.2958 52.7197C94.3418 51.9717 92.6278 52.5497 92.4698 54.0117L92.1658 100.506C92.0058 101.966 93.4618 103.758 95.4178 104.506C97.3738 105.254 99.0838 104.674 99.2418 103.212L99.5478 56.7197C99.7058 55.2577 98.2498 53.4677 96.2958 52.7197Z" fill="#093D77"/>
<path d="M101.8 53.0801C99.8459 52.3321 98.1339 52.9101 97.9739 54.3721L97.4839 102.54C97.3259 104.002 98.7819 105.792 100.736 106.54C102.69 107.288 104.404 106.708 104.562 105.248L105.048 57.0801C105.2 55.6181 103.75 53.8281 101.8 53.0801Z" fill="#093D77"/>
<path d="M106.752 58.4635C104.798 57.7155 103.086 58.2955 102.926 59.7555L102.8 104.573C102.642 106.035 104.098 107.826 106.054 108.573C108.01 109.321 109.72 108.742 109.878 107.279L110 62.4635C110.162 60.9995 108.708 59.2115 106.752 58.4635Z" fill="#093D77"/>
<path d="M112.298 58.3994C110.344 57.6514 108.632 58.2294 108.472 59.6914L108.122 106.603C107.964 108.063 109.42 109.855 111.376 110.603C113.332 111.351 115.042 110.771 115.198 109.311L115.55 62.3994C115.708 60.9434 114.252 59.1534 112.298 58.3994Z" fill="#093D77"/>
<path opacity="0.9" d="M106.78 71.0774C104.82 70.3494 102.604 70.5954 101.834 71.6314L82.7341 97.2314C81.9641 98.2654 82.9341 99.6954 84.8881 100.431C86.8421 101.167 89.0641 100.913 89.8341 99.8794L108.932 74.2794C109.704 73.2374 108.74 71.7994 106.78 71.0774Z" fill="#14B6B8"/>
<path opacity="0.53" d="M112.116 73.0638C110.154 72.3338 107.94 72.5818 107.168 73.6158L88.0699 99.2158C87.2979 100.25 88.2699 101.68 90.2239 102.416C92.1779 103.152 94.3979 102.898 95.1699 101.864L114.268 76.2638C115.04 75.2238 114.076 73.7998 112.116 73.0638Z" fill="#14B6B8"/>
<path opacity="0.9" d="M117.452 75.0501C115.49 74.3201 113.276 74.5681 112.504 75.6021L93.4 101.2C92.628 102.236 93.6 103.666 95.552 104.4C97.504 105.134 99.728 104.882 100.5 103.848L119.598 78.2481C120.374 77.2101 119.412 75.7801 117.452 75.0501Z" fill="#14B6B8"/>
<path opacity="0.53" d="M122.786 77.036C120.826 76.306 118.612 76.552 117.84 77.588L98.7418 103.2C97.9698 104.236 98.9418 105.666 100.894 106.4C102.846 107.134 105.07 106.882 105.842 105.848L124.94 80.248C125.71 79.2 124.748 77.764 122.786 77.036Z" fill="#14B6B8"/>
<path opacity="0.6" d="M128.122 79.0197C126.162 78.2897 123.946 78.5377 123.176 79.5737L104.078 105.174C103.306 106.208 104.278 107.638 106.23 108.374C108.182 109.11 110.404 108.856 111.178 107.822L130.274 82.2217C131.046 81.1797 130.084 79.7497 128.122 79.0197Z" fill="#14B6B8"/>
<path opacity="0.9" d="M133.456 80.9993C131.496 80.2693 129.282 80.5173 128.51 81.5513L109.414 107.151C108.64 108.185 109.614 109.615 111.566 110.351C113.518 111.087 115.74 110.833 116.512 109.799L135.61 84.1993C136.382 83.1653 135.42 81.7353 133.456 80.9993Z" fill="#14B6B8"/>
<path d="M106.78 71.0774C104.82 70.3494 102.604 70.5954 101.834 71.6314L95.338 80.3394C94.566 81.3754 95.538 82.8054 97.49 83.5394C99.442 84.2734 101.666 84.0214 102.438 82.9854L108.932 74.2774C109.704 73.2374 108.74 71.7994 106.78 71.0774Z" fill="#14B6B8"/>
<path d="M112.116 73.0638C110.154 72.3338 107.94 72.5818 107.168 73.6158L100.01 83.2158C99.2379 84.2498 100.21 85.6798 102.162 86.4158C104.114 87.1518 106.338 86.8978 107.11 85.8638L114.268 76.2638C115.04 75.2238 114.076 73.7998 112.116 73.0638Z" fill="#14B6B8"/>
<path d="M117.452 75.0501C115.49 74.3201 113.276 74.5681 112.504 75.6021L106.672 83.4221C105.9 84.4581 106.872 85.8881 108.824 86.6221C110.776 87.3561 113 87.1041 113.772 86.0681L119.6 78.2441C120.374 77.2101 119.412 75.7801 117.452 75.0501Z" fill="#14B6B8"/>
<path d="M122.786 77.036C120.826 76.306 118.612 76.552 117.84 77.588L109.8 88.372C109.028 89.408 110 90.838 111.952 91.572C113.904 92.306 116.13 92.056 116.9 91.02L124.944 80.236C125.71 79.2 124.748 77.764 122.786 77.036Z" fill="#14B6B8"/>
<path d="M128.122 79.0197C126.162 78.2897 123.946 78.5377 123.176 79.5737L116.46 88.5737C115.686 89.6077 116.65 91.0377 118.61 91.7737C120.57 92.5097 122.786 92.2557 123.558 91.2197L130.274 82.2197C131.046 81.1797 130.084 79.7497 128.122 79.0197Z" fill="#14B6B8"/>
<path d="M133.456 80.9993C131.496 80.2693 129.282 80.5173 128.51 81.5513L122.236 89.9653C121.464 90.9993 122.436 92.4293 124.388 93.1653C126.34 93.9013 128.564 93.6473 129.336 92.6133L135.61 84.1993C136.382 83.1653 135.42 81.7353 133.456 80.9993Z" fill="#14B6B8"/>
<g style="mix-blend-mode:multiply">
<path d="M100.83 119.724C100.478 119.582 100.466 118.8 100.8 117.978C101.134 117.156 101.692 116.61 102.044 116.754C102.396 116.898 102.408 117.678 102.074 118.498C101.74 119.318 101.182 119.868 100.83 119.724ZM137.922 82.7098L136.62 82.1778C137.392 79.9778 137.548 78.1318 136.93 77.8798L103.84 64.3678C103.144 64.0838 101.734 65.9258 100.69 68.4798C99.6457 71.0338 99.3657 73.3378 100.062 73.6218L133.15 87.1338C133.768 87.3878 134.95 85.9598 135.938 83.8498L136.404 84.0398L134.4 88.9718L115.254 87.9718C114.466 87.9298 113.654 87.9378 113.122 88.2818C112.59 88.6258 112.274 89.3598 112.068 89.8818C112.046 89.9418 112.022 89.9978 112.002 90.0478L108.602 98.3538L107.66 97.9678C107.314 97.8278 106.86 97.9678 106.778 98.3398C106.69 98.7398 106.778 99.5878 106.71 99.9958L98.4337 119.196H98.4557C98.1897 119.85 98.9637 120.784 100.186 121.284C101.408 121.784 102.616 121.658 102.884 121.004L102.906 121.014L110.44 101.52C110.67 101.176 111.33 100.644 111.55 100.292C111.75 99.9758 111.528 99.5498 111.18 99.4078L110.274 99.0378L113.674 90.7338C113.698 90.6738 113.722 90.6098 113.748 90.5338C113.838 90.2784 113.955 90.0331 114.096 89.8018C114.196 89.7718 114.462 89.7278 115.16 89.7658L134.936 90.7998C135.123 90.8099 135.309 90.7614 135.467 90.6611C135.626 90.5607 135.749 90.4134 135.82 90.2398L138.42 83.8778C138.507 83.6567 138.504 83.41 138.411 83.1913C138.318 82.9726 138.142 82.7995 137.922 82.7098Z" fill="#E6DFCF"/>
</g>
<path d="M109.788 100.228L108.116 99.5456L112 90.0496C112.02 89.9996 112.044 89.9436 112.066 89.8836C112.266 89.3596 112.552 88.6416 113.12 88.2836C113.688 87.9256 114.464 87.9316 115.252 87.9736L134.398 88.9736L136.4 84.0396L102.082 70.0236L102.764 68.3516L137.922 82.7096C138.032 82.7542 138.132 82.82 138.216 82.9032C138.301 82.9865 138.368 83.0855 138.414 83.1948C138.46 83.304 138.484 83.4212 138.485 83.5397C138.485 83.6583 138.463 83.7758 138.418 83.8856L135.818 90.2476C135.747 90.4212 135.624 90.5685 135.466 90.6689C135.307 90.7692 135.121 90.8177 134.934 90.8076L115.15 89.7736C114.452 89.7356 114.186 89.7736 114.086 89.8096C113.945 90.0409 113.828 90.2862 113.738 90.5416C113.712 90.6096 113.688 90.6736 113.664 90.7416L109.788 100.228Z" fill="#FFD18E"/>
<path d="M109.382 99.6279L112.956 90.8759C112.98 90.8219 113.002 90.7619 113.028 90.6999C113.192 90.2779 113.418 89.6999 113.764 89.4819C114.164 89.2299 115.048 89.2819 115.424 89.2959L135.138 90.3239L137.67 84.1239L103.348 70.1059L103.424 69.9219L137.84 83.9759C137.864 83.9861 137.883 84.0054 137.893 84.0298C137.904 84.0541 137.904 84.0815 137.894 84.1059L135.294 90.4659C135.286 90.4855 135.273 90.5022 135.255 90.5133C135.237 90.5245 135.217 90.5296 135.196 90.5279L115.412 89.4959C114.564 89.4519 114.244 89.5119 114.076 89.5639L113.838 89.6339L113.684 89.8339C113.483 90.1248 113.325 90.4426 113.214 90.7779C113.186 90.8459 113.164 90.9059 113.142 90.9599L109.566 99.7139L109.382 99.6279Z" fill="#FFD18E"/>
<path d="M108.53 99.0633L112.256 89.9393C112.278 89.8873 112.3 89.8293 112.324 89.7673C112.51 89.2953 112.764 88.6473 113.218 88.3673C113.672 88.0873 114.428 88.0813 115.114 88.1173L134.544 89.1313L136.818 83.5673L102.494 69.5413L102.874 68.6133L137.662 82.8133C137.785 82.8638 137.883 82.961 137.934 83.0836C137.985 83.2062 137.986 83.3442 137.936 83.4673L135.336 89.8273C135.296 89.9237 135.228 90.0055 135.14 90.0614C135.053 90.1172 134.95 90.1445 134.846 90.1393L115.062 89.1053C114.661 89.0624 114.257 89.08 113.862 89.1573L113.744 89.1913L113.664 89.2873C113.494 89.548 113.36 89.8297 113.264 90.1253C113.236 90.1953 113.212 90.2573 113.188 90.3133L109.462 99.4373L108.53 99.0633Z" fill="#FFD18E"/>
<path d="M126.124 89.2001C122.694 89.0401 119.924 88.8001 119.924 88.6761C119.924 88.5521 122.724 88.5721 126.146 88.7321C129.568 88.8921 132.346 89.1321 132.346 89.2581C132.346 89.3841 129.554 89.3541 126.124 89.2001Z" fill="#FFD18E"/>
<path d="M110.94 93.9278C110.14 95.8438 109.432 97.3738 109.362 97.3438C109.292 97.3138 109.88 95.7338 110.678 93.8198C111.476 91.9058 112.186 90.3738 112.258 90.4038C112.33 90.4338 111.74 92.0118 110.94 93.9278Z" fill="#FFD18E"/>
<path d="M113.822 88.9135C113.508 88.9835 113.222 88.8895 113.18 88.7035C113.138 88.5175 113.358 88.3035 113.67 88.2395C113.982 88.1755 114.27 88.2635 114.312 88.4495C114.354 88.6355 114.134 88.8435 113.822 88.9135Z" fill="#FFD18E"/>
<path d="M136.93 77.8798L103.84 64.3678C103.144 64.0838 101.734 65.9258 100.69 68.4798C99.6457 71.0338 99.3657 73.3378 100.062 73.6218L133.15 87.1338C133.846 87.4178 135.256 85.5778 136.3 83.0218C137.344 80.4658 137.626 78.1638 136.93 77.8798Z" fill="#14B6B8"/>
<path d="M136.342 82.3998C136.811 81.2978 137.137 80.1404 137.312 78.9558C137.312 78.3818 137.188 77.9958 136.93 77.8898L103.84 64.3678C103.144 64.0838 101.734 65.9258 100.69 68.4798C100.221 69.5808 99.8953 70.7376 99.7217 71.9218C99.7217 72.4978 99.8437 72.8838 100.102 72.9898L133.2 86.5018C133.888 86.7858 135.298 84.9438 136.342 82.3998Z" fill="#093D77"/>
<path d="M100.944 69.4498C101.988 66.8958 103.398 65.0498 104.094 65.3378L137.182 78.8498C137.229 78.8713 137.272 78.9004 137.31 78.9358C137.31 78.3678 137.186 77.9858 136.928 77.8798L103.84 64.3678C103.144 64.0838 101.734 65.9258 100.69 68.4798C99.7181 70.8618 99.4081 73.0238 99.9341 73.5358C99.9321 72.5678 100.286 71.0598 100.944 69.4498Z" fill="#14B6B8"/>
<path d="M119.516 74.4476C126.406 77.2616 132.75 79.2896 137.076 80.1756C137.181 79.771 137.259 79.3602 137.312 78.9456C137.312 78.3716 137.188 77.9856 136.93 77.8796L103.84 64.3676C103.44 64.2056 102.81 64.7396 102.148 65.7036C105.762 68.1776 112.094 71.4156 119.516 74.4476Z" fill="#14B6B8"/>
<path d="M136.026 78.5154C135.964 78.6654 128.86 75.9154 120.16 72.3554C111.46 68.7954 104.458 65.7994 104.518 65.6494C104.578 65.4994 111.682 68.2494 120.382 71.8114C129.082 75.3734 136.086 78.3654 136.026 78.5154Z" fill="white"/>
<path d="M103.754 65.1056C103.886 65.1996 103.598 65.8276 103.112 66.5056C102.626 67.1836 102.126 67.6616 101.994 67.5676C101.862 67.4736 102.148 66.8456 102.634 66.1676C103.12 65.4896 103.62 65.0116 103.754 65.1056Z" fill="white"/>
<path d="M132.826 86.3519C132.932 86.0879 125.734 82.8999 116.746 79.2299C107.758 75.5599 100.386 72.7999 100.278 73.0599C100.17 73.3199 107.37 76.5119 116.358 80.1819C125.346 83.8519 132.718 86.6139 132.826 86.3519Z" fill="#14B6B8"/>
<path d="M111.18 99.3995L107.66 97.9615C107.314 97.8215 106.86 97.9615 106.778 98.3335C106.69 98.7335 106.778 99.5815 106.71 99.9895L98.4337 119.189H98.4557C98.1897 119.843 98.9637 120.777 100.186 121.277C101.408 121.777 102.616 121.651 102.884 120.997L102.906 121.007L110.44 101.519C110.67 101.175 111.33 100.643 111.55 100.291C111.75 99.9755 111.528 99.5495 111.18 99.3995ZM100.83 119.723C100.478 119.581 100.466 118.799 100.8 117.977C101.134 117.155 101.692 116.609 102.044 116.753C102.396 116.897 102.408 117.677 102.074 118.497C101.74 119.317 101.182 119.867 100.83 119.723Z" fill="#F1C40F"/>
<path d="M111.18 99.3993L111.09 99.3633C110.821 99.6126 110.57 99.8799 110.338 100.163L102.8 119.689L102.776 119.679C102.51 120.333 101.302 120.459 100.08 119.959C99.4898 119.736 98.9705 119.359 98.5758 118.867L98.4298 119.205H98.4518C98.1858 119.859 98.9598 120.793 100.182 121.293C101.404 121.793 102.612 121.667 102.88 121.013L102.902 121.023L110.44 101.519C110.67 101.175 111.33 100.643 111.55 100.291C111.75 99.9753 111.528 99.5493 111.18 99.3993Z" fill="#FFA31D"/>
<path d="M109.2 102.55C109.37 102.22 109.322 101.862 109.154 101.794L107.438 101.094C107.27 101.024 106.986 101.246 106.874 101.6C106.75 102 106.652 102.766 106.534 103.16C106.43 103.516 106.414 103.848 106.582 103.918L107.782 104.41C107.952 104.48 108.172 104.23 108.346 103.902C108.544 103.538 109.012 102.918 109.2 102.55Z" fill="#FF9E29"/>
<path d="M107.462 107.066C107.638 106.722 107.582 106.35 107.4 106.276L105.552 105.522C105.372 105.448 105.07 105.674 104.952 106.044C104.826 106.444 104.73 107.244 104.61 107.664C104.502 108.032 104.49 108.378 104.672 108.454L105.97 108.984C106.152 109.058 106.386 108.802 106.57 108.462C106.772 108.086 107.264 107.448 107.462 107.066Z" fill="#FF9E29"/>
<path d="M105.492 112.111C105.692 111.727 105.636 111.311 105.442 111.237L103.478 110.437C103.278 110.357 102.958 110.613 102.83 111.027C102.686 111.483 102.57 112.373 102.43 112.827C102.306 113.239 102.286 113.627 102.48 113.703L103.86 114.267C104.06 114.345 104.308 114.067 104.508 113.677C104.734 113.257 105.276 112.537 105.492 112.111Z" fill="#FF9E29"/>
<path d="M101 118.49C101.252 117.87 101.674 117.456 101.94 117.564C102.14 117.648 102.198 118.026 102.092 118.48C102.418 117.666 102.402 116.896 102.054 116.754C101.706 116.612 101.146 117.154 100.81 117.978C100.474 118.802 100.488 119.578 100.84 119.724C100.87 119.736 100.901 119.742 100.934 119.744C100.75 119.55 100.768 119.03 101 118.49Z" fill="#FF9E29"/>
<path d="M98.8618 119.814L98.8378 119.804L107.116 100.604C107.192 100.204 107.094 99.3541 107.182 98.9481C107.262 98.5841 107.72 98.4381 108.066 98.5781L111.586 100.016L111.626 100.036C111.618 99.9012 111.571 99.7714 111.492 99.6616C111.413 99.5519 111.305 99.4668 111.18 99.4161L107.66 97.9781C107.314 97.8381 106.86 97.9781 106.778 98.3501C106.69 98.7501 106.778 99.5981 106.71 100.006L98.4338 119.206H98.4558C98.3058 119.574 98.4858 120.028 98.8858 120.446C98.7958 120.247 98.7872 120.02 98.8618 119.814Z" fill="#FFA31D"/>
<path d="M109.756 99.2458C109.712 99.3518 109.11 99.2058 108.41 98.9198C107.71 98.6338 107.176 98.3198 107.21 98.2098C107.244 98.0998 107.856 98.2518 108.556 98.5378C109.256 98.8238 109.8 99.1418 109.756 99.2458Z" fill="white"/>
<path d="M99.3259 118.8C99.2679 118.776 99.8239 117.332 100.566 115.576C101.308 113.82 101.966 112.416 102.016 112.44C102.066 112.464 101.52 113.908 100.776 115.664C100.032 117.42 99.3839 118.82 99.3259 118.8Z" fill="white"/>
<path d="M99.1117 119.308C99.0097 119.266 99.0697 118.892 99.2457 118.474C99.4217 118.056 99.6457 117.754 99.7497 117.798C99.8537 117.842 99.7917 118.214 99.6157 118.63C99.4397 119.046 99.2137 119.352 99.1117 119.308Z" fill="white"/>
</svg>
