<svg width="220" height="220" viewBox="0 0 220 220" fill="none" xmlns="http://www.w3.org/2000/svg">
<rect x="0.5" y="0.5" width="219" height="219" rx="19.5" fill="white" stroke="#093D77"/>
<path d="M87.5968 180.36C85.9368 180.36 84.4268 179.97 83.0668 179.19C81.7268 178.41 80.6568 177.27 79.8568 175.77C79.0768 174.25 78.6868 172.41 78.6868 170.25C78.6868 168.65 78.9168 167.22 79.3768 165.96C79.8368 164.68 80.4768 163.6 81.2968 162.72C82.1368 161.84 83.0968 161.17 84.1768 160.71C85.2568 160.25 86.4168 160.02 87.6568 160.02C88.8968 160.02 89.9968 160.27 90.9568 160.77C91.9168 161.25 92.7068 161.83 93.3268 162.51L91.4668 164.64C90.9668 164.12 90.4068 163.73 89.7868 163.47C89.1868 163.19 88.5068 163.05 87.7468 163.05C86.7068 163.05 85.7668 163.34 84.9268 163.92C84.1068 164.5 83.4568 165.32 82.9768 166.38C82.4968 167.44 82.2568 168.7 82.2568 170.16C82.2568 171.66 82.4868 172.95 82.9468 174.03C83.4068 175.09 84.0568 175.91 84.8968 176.49C85.7368 177.05 86.7168 177.33 87.8368 177.33C88.6768 177.33 89.4268 177.16 90.0868 176.82C90.7468 176.48 91.3468 176.03 91.8868 175.47L93.6568 177.54C92.8568 178.46 91.9568 179.16 90.9568 179.64C89.9568 180.12 88.8368 180.36 87.5968 180.36ZM103.886 180.36C102.226 180.36 100.716 179.97 99.3559 179.19C98.0159 178.41 96.9459 177.27 96.1459 175.77C95.3659 174.25 94.9759 172.41 94.9759 170.25C94.9759 168.65 95.2059 167.22 95.6659 165.96C96.1259 164.68 96.7659 163.6 97.5859 162.72C98.4259 161.84 99.3859 161.17 100.466 160.71C101.546 160.25 102.706 160.02 103.946 160.02C105.186 160.02 106.286 160.27 107.246 160.77C108.206 161.25 108.996 161.83 109.616 162.51L107.756 164.64C107.256 164.12 106.696 163.73 106.076 163.47C105.476 163.19 104.796 163.05 104.036 163.05C102.996 163.05 102.056 163.34 101.216 163.92C100.396 164.5 99.7459 165.32 99.2659 166.38C98.7859 167.44 98.5459 168.7 98.5459 170.16C98.5459 171.66 98.7759 172.95 99.2359 174.03C99.6959 175.09 100.346 175.91 101.186 176.49C102.026 177.05 103.006 177.33 104.126 177.33C104.966 177.33 105.716 177.16 106.376 176.82C107.036 176.48 107.636 176.03 108.176 175.47L109.946 177.54C109.146 178.46 108.246 179.16 107.246 179.64C106.246 180.12 105.126 180.36 103.886 180.36ZM116.772 180V163.32H111.102V160.38H125.922V163.32H120.252V180H116.772ZM132.579 180L126.579 160.38H130.269L132.909 170.25C133.109 170.99 133.299 171.71 133.479 172.41C133.659 173.09 133.839 173.78 134.019 174.48C134.219 175.16 134.429 175.87 134.649 176.61H134.769C134.969 175.87 135.159 175.16 135.339 174.48C135.519 173.78 135.699 173.09 135.879 172.41C136.079 171.71 136.279 170.99 136.479 170.25L139.329 160.38H142.899L136.689 180H132.579Z" fill="black"/>
<path d="M94.9139 110.156C95.6715 111.81 97.6247 112.327 99.2794 111.312L100.371 110.638L79.6345 64.916L78.3868 65.6848C76.7349 66.7001 76.0082 68.8645 76.7673 70.5196L80.7413 79.1985L74.4634 83.0605C72.7321 80.815 70.3104 79.4455 67.7179 79.2458L60.9584 78.7333C60.6316 78.7087 60.3051 78.7856 60.0126 78.9562C59.7201 79.1268 59.4721 79.3848 59.2944 79.7037C59.1167 80.0225 59.0156 80.3905 59.0017 80.7697C58.9877 81.1489 59.0614 81.5256 59.215 81.8607L73.3284 112.693C73.4823 113.028 73.7107 113.31 73.9898 113.509C74.269 113.708 74.5888 113.817 74.9165 113.824C75.2441 113.832 75.5675 113.739 75.8535 113.553C76.1395 113.368 76.3776 113.097 76.5434 112.77L79.964 105.989C81.2769 103.39 81.6558 100.296 81.0188 97.3756L87.2981 93.512L94.9139 110.156Z" fill="#093D77"/>
<path d="M158.917 130H159V96.0698H158.917C157.806 96.0698 156.741 96.581 155.956 97.491C155.17 98.401 154.729 99.6353 154.729 100.923V107.757H143.245C142.032 107.759 140.838 107.411 139.771 106.744C138.704 106.077 137.797 105.111 137.133 103.936L130.448 92.1343L156.433 76.138C158.085 75.1227 158.807 72.9599 158.049 71.3031L139.894 31.6746C139.138 30.0211 137.186 29.5036 135.529 30.5222L92.3789 57.0729L113.121 102.796L122.374 97.1046L129.523 109.727C131.014 112.368 133.05 114.537 135.446 116.036C137.843 117.535 140.524 118.318 143.247 118.313H154.732V125.149C154.732 126.435 155.173 127.669 155.958 128.578C156.743 129.488 157.807 129.999 158.917 130ZM141.455 57.2802C141.837 58.1078 141.999 59.048 141.92 59.9822C141.842 60.9164 141.526 61.8028 141.013 62.5293C140.501 63.2558 139.814 63.7899 139.039 64.0642C138.265 64.3385 137.437 64.3407 136.662 64.0705C135.886 63.8003 135.197 63.2698 134.682 62.546C134.166 61.8222 133.847 60.9376 133.765 60.0038C133.683 59.07 133.841 58.1289 134.22 57.2993C134.599 56.4698 135.181 55.7889 135.893 55.3427C136.368 55.0464 136.888 54.8615 137.424 54.7986C137.96 54.7356 138.502 54.7958 139.018 54.9758C139.534 55.1558 140.014 55.4519 140.431 55.8474C140.849 56.2428 141.194 56.7297 141.449 57.2802H141.455ZM127.557 50.1781C127.046 49.0744 126.829 47.82 126.933 46.5734C127.037 45.3267 127.458 44.1439 128.142 43.1745C128.826 42.205 129.743 41.4924 130.777 41.1268C131.81 40.7612 132.914 40.759 133.949 41.1205C134.983 41.4819 135.902 42.1908 136.589 43.1576C137.276 44.1243 137.7 45.3054 137.808 46.5516C137.916 47.7978 137.703 49.0531 137.195 50.1588C136.688 51.2646 135.909 52.171 134.957 52.7637C133.68 53.5578 132.183 53.7316 130.795 53.2467C129.407 52.7619 128.243 51.6581 127.557 50.1781Z" fill="#093D77"/>
<path d="M83.9902 62.2352L104.732 107.959L113.121 102.796L92.3805 57.0723L83.9902 62.2352Z" fill="#14B6B8"/>
<path opacity="0.4" d="M100.375 110.638L104.732 107.96L83.99 62.2363L79.6343 64.9165L100.375 110.638Z" fill="#093D77"/>
<path d="M129.789 41.6002C128.836 42.1921 128.056 43.0982 127.548 44.2039C127.039 45.3097 126.825 46.5654 126.932 47.8123C127.039 49.0592 127.463 50.2412 128.15 51.2088C128.837 52.1765 129.756 52.8863 130.791 53.2484C131.826 53.6106 132.93 53.6089 133.964 53.2435C134.998 52.8781 135.916 52.1655 136.6 51.1957C137.285 50.226 137.706 49.0427 137.811 47.7955C137.915 46.5483 137.698 45.2932 137.187 44.189C136.501 42.7093 135.337 41.6055 133.95 41.1201C132.563 40.6347 131.066 40.8074 129.789 41.6002Z" fill="#EDFCFF"/>
<path opacity="0.8" d="M135.893 55.3427C135.18 55.7873 134.595 56.4672 134.215 57.2966C133.834 58.126 133.674 59.0676 133.755 60.0023C133.837 60.937 134.155 61.8228 134.67 62.5478C135.186 63.2727 135.875 63.8043 136.651 64.0752C137.427 64.3461 138.255 64.3442 139.03 64.0698C139.805 63.7954 140.493 63.2607 141.006 62.5334C141.519 61.8061 141.834 60.9188 141.912 59.9838C141.99 59.0487 141.827 58.1079 141.443 57.2802C141.189 56.7301 140.844 56.2435 140.427 55.8483C140.011 55.453 139.531 55.157 139.015 54.977C138.5 54.797 137.959 54.7367 137.423 54.7994C136.887 54.8622 136.368 55.0468 135.893 55.3427Z" fill="#14B6B8"/>
</svg>
