<svg width="220" height="220" viewBox="0 0 220 220" fill="none" xmlns="http://www.w3.org/2000/svg">
<rect x="0.5" y="0.5" width="219" height="219" rx="19.5" fill="white" stroke="#093D77"/>
<path d="M94.3121 86.2C94.3121 86.2 93.9861 84.656 93.6161 84.288C93.2461 83.92 90.5281 84.242 89.8061 84.964C89.0841 85.686 89.2221 86.5 89.8061 86.746C90.3901 86.992 93.8061 87.612 93.8061 87.612L94.3121 86.2Z" fill="#FF9E29"/>
<path d="M127.42 106.656H123.42C123.36 106.656 123.302 106.632 123.259 106.589C123.216 106.547 123.192 106.489 123.192 106.428V97.7522H127.644V106.428C127.644 106.489 127.62 106.547 127.577 106.589C127.535 106.632 127.477 106.656 127.416 106.656H127.42Z" fill="#FA7500"/>
<path d="M92.3522 97.7539H96.8002V106.43C96.8002 106.49 96.7762 106.548 96.7335 106.591C96.6907 106.634 96.6327 106.658 96.5722 106.658H92.5722C92.5118 106.658 92.4538 106.634 92.411 106.591C92.3683 106.548 92.3442 106.49 92.3442 106.43V97.7539H92.3522Z" fill="#FA7500"/>
<path d="M127.622 93.6005C127.448 89.9105 126.578 88.6005 126.106 87.4005C125.614 86.1405 123.494 79.1005 121.588 77.6265C120.316 76.6405 114.488 76.3965 110 76.3965C105.512 76.3965 99.6841 76.6405 98.4121 77.6265C96.5061 79.1005 94.3861 86.1405 93.8941 87.4005C93.4221 88.6005 92.5521 89.9205 92.3781 93.6005C92.1501 98.3625 93.4841 101.6 94.8361 101.6H125.164C126.516 101.6 127.85 98.3665 127.622 93.6005Z" fill="#FFA31D"/>
<path d="M125.688 86.2C125.688 86.2 126.014 84.656 126.384 84.288C126.754 83.92 129.472 84.242 130.194 84.964C130.916 85.686 130.778 86.5 130.194 86.746C129.61 86.992 126.194 87.612 126.194 87.612L125.688 86.2Z" fill="#FF9E29"/>
<path d="M124.678 86.5018C124.524 85.7198 121.758 79.4478 121.034 78.7258C120.31 78.0038 113.32 77.7998 110 77.7998C106.68 77.7998 99.6881 77.9998 98.9661 78.7218C98.2441 79.4438 95.4761 85.7218 95.3221 86.4978C95.2181 87.0338 95.7081 87.2978 96.3521 87.2258C105.41 86.0098 114.59 86.0098 123.648 87.2258C124.292 87.2938 124.782 87.0378 124.678 86.5018Z" fill="#FFE0B4"/>
<path d="M117.622 84.668C116.973 84.6678 116.335 84.8267 115.762 85.1308C115.189 85.4348 114.699 85.8747 114.336 86.412L115.354 86.458C115.675 86.1221 116.067 85.8616 116.501 85.6953C116.935 85.5291 117.4 85.4611 117.864 85.4963C118.327 85.5314 118.777 85.669 119.181 85.8989C119.585 86.1288 119.933 86.4454 120.2 86.826C120.564 86.862 120.896 86.898 121.2 86.934C120.878 86.2572 120.371 85.6853 119.738 85.2843C119.105 84.8833 118.371 84.6697 117.622 84.668Z" fill="#FF9E29"/>
<path d="M127.95 95.4463H92.05C90.512 95.4463 91.438 101.618 93.364 101.618H126.636C128.562 101.618 129.488 95.4463 127.95 95.4463Z" fill="#FA7500"/>
<path d="M98.1462 93.5998C97.2761 93.6138 96.4064 93.5549 95.5462 93.4238C95.0822 93.3258 94.7722 92.9258 94.6722 92.2958C94.5382 91.4538 94.8082 90.1898 95.3442 89.8798C95.5741 89.7807 95.8244 89.7382 96.0742 89.7558C97.7082 89.7558 100.902 90.6558 101.25 92.8198C101.259 92.8726 101.256 92.9268 101.241 92.9781C101.226 93.0295 101.199 93.0766 101.162 93.1158C100.83 93.5238 99.3382 93.5998 98.1462 93.5998Z" fill="#FA7500"/>
<path d="M101.064 92.86C101.176 93.552 96.7618 93.484 95.5938 93.238C94.4258 92.992 94.8098 90.428 95.4498 90.058C96.0898 89.688 100.656 90.324 101.064 92.86Z" fill="white"/>
<path d="M121.854 93.5998C120.654 93.5998 119.17 93.5158 118.83 93.1158C118.793 93.0766 118.767 93.0295 118.751 92.9781C118.736 92.9268 118.733 92.8726 118.742 92.8198C119.09 90.6558 122.284 89.7558 123.918 89.7558C124.168 89.7382 124.418 89.7807 124.648 89.8798C125.184 90.1898 125.448 91.4538 125.32 92.2958C125.22 92.9258 124.91 93.3258 124.446 93.4238C123.586 93.5549 122.716 93.6138 121.846 93.5998H121.854Z" fill="#FA7500"/>
<path d="M118.936 92.86C118.824 93.552 123.238 93.484 124.406 93.238C125.574 92.992 125.19 90.428 124.55 90.058C123.91 89.688 119.344 90.324 118.936 92.86Z" fill="white"/>
<path d="M125.416 97.7417C125.384 97.6971 125.342 97.6608 125.294 97.6357C125.245 97.6107 125.191 97.5976 125.136 97.5977H94.8642C94.8096 97.5976 94.7558 97.6104 94.7071 97.635C94.6585 97.6597 94.6163 97.6956 94.5841 97.7396C94.5519 97.7837 94.5307 97.8348 94.522 97.8887C94.5133 97.9425 94.5175 97.9977 94.5342 98.0497L94.8182 98.9077C94.9506 99.3143 95.2082 99.6686 95.5541 99.9201C95.9 100.172 96.3166 100.307 96.7442 100.308H123.256C123.684 100.307 124.1 100.172 124.446 99.9201C124.792 99.6686 125.05 99.3143 125.182 98.9077L125.466 98.0497C125.483 97.998 125.487 97.9432 125.478 97.8897C125.469 97.8361 125.448 97.7854 125.416 97.7417Z" fill="#FFD18E"/>
<path d="M110.452 97.5977H109.55V100.302H110.452V97.5977Z" fill="#AA6D13"/>
<path d="M119.854 98.7002H100.146V99.2042H119.854V98.7002Z" fill="#AA6D13"/>
<path d="M113.996 97.5977H113.094V100.302H113.996V97.5977Z" fill="#AA6D13"/>
<path d="M114.336 86.4118C114.336 86.4118 112.558 81.5718 110.246 78.8018C109.954 78.4518 109.646 78.1198 109.346 77.8018C105.842 77.8258 99.6441 78.0438 98.9661 78.7218C98.2421 79.4438 95.4761 85.7218 95.3221 86.4978C95.2181 87.0338 95.7081 87.2978 96.3521 87.2258C100.876 86.6186 105.436 86.3152 110 86.3178C111.55 86.3178 113 86.3538 114.336 86.4118Z" fill="#FFEDD2"/>
<path d="M106.004 100.304H106.906V97.5997H106.004V100.304Z" fill="#AA6D13"/>
<path d="M100.072 98.9516C100.072 99.2196 99.993 99.4816 99.8444 99.7046C99.6958 99.9276 99.4843 100.101 99.2368 100.204C98.9894 100.307 98.7169 100.334 98.4541 100.282C98.1913 100.23 97.9498 100.101 97.7603 99.911C97.5709 99.7215 97.4419 99.4801 97.3897 99.2173C97.3375 98.9544 97.3645 98.682 97.4672 98.4345C97.5699 98.187 97.7438 97.9756 97.9668 97.827C98.1897 97.6783 98.4518 97.5992 98.7198 97.5996C99.0783 97.5996 99.4222 97.7421 99.6758 97.9956C99.9293 98.2492 100.072 98.593 100.072 98.9516Z" fill="#FFA31D"/>
<path d="M119.928 98.9516C119.928 99.2196 120.007 99.4816 120.156 99.7046C120.304 99.9276 120.516 100.101 120.763 100.204C121.011 100.307 121.283 100.334 121.546 100.282C121.809 100.23 122.05 100.101 122.24 99.911C122.429 99.7215 122.558 99.4801 122.61 99.2173C122.662 98.9544 122.636 98.682 122.533 98.4345C122.43 98.187 122.256 97.9756 122.033 97.827C121.81 97.6783 121.548 97.5992 121.28 97.5996C120.922 97.5996 120.578 97.7421 120.324 97.9956C120.071 98.2492 119.928 98.593 119.928 98.9516Z" fill="#FFA31D"/>
<path d="M109.836 95.5997C107.098 95.5997 103.688 95.4557 102.996 94.7637C102.44 94.2077 101.334 92.1777 101.442 91.3637C101.455 91.2406 101.497 91.1224 101.564 91.0183C101.631 90.9141 101.722 90.827 101.828 90.7637C102.668 90.2777 107.698 90.1077 109.828 90.0557C111.966 90.1057 117.008 90.2757 117.852 90.7637C117.959 90.8258 118.05 90.9126 118.118 91.0169C118.185 91.1213 118.226 91.2402 118.238 91.3637C118.346 92.1637 117.238 94.2017 116.684 94.7637C115.984 95.4577 112.574 95.5997 109.836 95.5997Z" fill="#FA7500"/>
<path d="M109.836 95.3999C107.624 95.3999 103.814 95.2979 103.136 94.6219C102.558 94.0439 101.536 92.0959 101.636 91.3919C101.646 91.2988 101.677 91.2093 101.727 91.1305C101.778 91.0517 101.846 90.9857 101.926 90.9379C102.75 90.4619 108.18 90.2959 109.824 90.2559C111.492 90.2959 116.922 90.4559 117.746 90.9379C117.827 90.9857 117.895 91.0517 117.945 91.1305C117.995 91.2093 118.027 91.2988 118.036 91.3919C118.128 92.0939 117.114 94.0439 116.536 94.6219C115.858 95.3039 112.048 95.3999 109.836 95.3999Z" fill="white"/>
<path d="M117.5 91.3699C116.72 90.9199 109.836 90.7539 109.836 90.7539C109.836 90.7539 102.952 90.9199 102.172 91.3699C101.888 91.5339 102.848 93.6439 103.484 94.2799C104.12 94.9159 109.836 94.9139 109.836 94.9139C109.836 94.9139 115.554 94.9139 116.188 94.2799C116.822 93.6459 117.784 91.5339 117.5 91.3699Z" fill="#AA6D13"/>
<path d="M117.54 91.624H102.14C102.169 91.7934 102.215 91.9595 102.276 92.12H117.4C117.463 91.9597 117.51 91.7935 117.54 91.624Z" fill="white"/>
<path d="M102.746 93.1796H116.926C117.014 93.0156 117.096 92.8476 117.172 92.6816H102.5C102.576 92.8476 102.658 93.0156 102.746 93.1796Z" fill="white"/>
<path d="M109.44 95.3199H110.24C110.24 93.7399 110.25 92.1199 110.254 90.5439H109.434C109.43 92.1279 109.434 93.7399 109.44 95.3199Z" fill="white"/>
<path d="M103.448 94.2402H116.224C116.363 94.0855 116.488 93.9189 116.598 93.7422H103.074C103.184 93.9189 103.309 94.0855 103.448 94.2402Z" fill="white"/>
<path d="M111.668 78.7998H108.332C108.172 78.7998 108.04 79.0758 108.04 79.4138C108.04 79.7518 108.172 80.0298 108.332 80.0298H111.668C111.828 80.0298 111.96 79.7538 111.96 79.4138C111.96 79.0738 111.828 78.7998 111.668 78.7998Z" fill="#10303E"/>
<path d="M124.606 93.9678H120.038C119.991 93.9678 119.952 94.0063 119.952 94.0538V94.9478C119.952 94.9953 119.991 95.0338 120.038 95.0338H124.606C124.654 95.0338 124.692 94.9953 124.692 94.9478V94.0538C124.692 94.0063 124.654 93.9678 124.606 93.9678Z" fill="#FA7500"/>
<path d="M95.3958 95.0342H99.9638C100.011 95.0342 100.05 94.9957 100.05 94.9482V94.0542C100.05 94.0067 100.011 93.9682 99.9638 93.9682H95.3958C95.3483 93.9682 95.3098 94.0067 95.3098 94.0542V94.9482C95.3098 94.9957 95.3483 95.0342 95.3958 95.0342Z" fill="#FA7500"/>
<path d="M82.3999 54.2598C81.9803 54.2598 81.5779 54.4264 81.2812 54.7231C80.9845 55.0198 80.8179 55.4222 80.8179 55.8418V106.656H86.0319V64.6898H133.972V106.656H139.186V55.8418C139.186 55.6337 139.145 55.4276 139.065 55.2354C138.985 55.0432 138.868 54.8687 138.721 54.7217C138.574 54.5748 138.399 54.4583 138.207 54.379C138.014 54.2998 137.808 54.2592 137.6 54.2598H82.3999Z" fill="#14B6B8"/>
<path d="M133.97 64.6904H86.0278V75.1204H133.97V64.6904Z" fill="#093D77"/>
<path d="M133.97 74.0498H86.0278V75.1178H133.97V74.0498Z" fill="#EDFCFF"/>
<path d="M133.97 71.3877H86.0278V72.4557H133.97V71.3877Z" fill="#EDFCFF"/>
<path d="M133.97 68.7236H86.0278V69.7916H133.97V68.7236Z" fill="#EDFCFF"/>
<path d="M133.97 66.0615H86.0278V67.1295H133.97V66.0615Z" fill="#EDFCFF"/>
<path d="M110 63.0302C108.265 63.0302 106.57 62.5159 105.128 61.5522C103.685 60.5886 102.561 59.2189 101.898 57.6164C101.234 56.0139 101.06 54.2505 101.398 52.5493C101.737 50.8481 102.572 49.2854 103.799 48.0589C105.025 46.8324 106.588 45.9971 108.289 45.6588C109.99 45.3204 111.754 45.494 113.356 46.1578C114.959 46.8216 116.328 47.9457 117.292 49.3879C118.256 50.8301 118.77 52.5257 118.77 54.2602C118.767 56.5854 117.843 58.8145 116.198 60.4586C114.554 62.1028 112.325 63.0276 110 63.0302Z" fill="#093D77"/>
<path d="M110 62.0835C114.321 62.0835 117.824 58.5806 117.824 54.2595C117.824 49.9385 114.321 46.4355 110 46.4355C105.679 46.4355 102.176 49.9385 102.176 54.2595C102.176 58.5806 105.679 62.0835 110 62.0835Z" fill="white"/>
<path d="M110.7 46.4355H109.3V50.5295H110.7V46.4355Z" fill="#FA7500"/>
<path d="M110 50.5303C105.514 50.5303 105.418 51.9163 105.418 53.6263H114.582C114.582 51.9163 114.486 50.5303 110 50.5303Z" fill="#FFB137"/>
<path d="M115.07 53.626H104.93C104.903 53.626 104.882 53.6475 104.882 53.674V54.638C104.882 54.6645 104.903 54.686 104.93 54.686H115.07C115.096 54.686 115.118 54.6645 115.118 54.638V53.674C115.118 53.6475 115.096 53.626 115.07 53.626Z" fill="#FA7500"/>
<path d="M110.588 56.4703C110.588 56.6263 110.526 56.7758 110.416 56.8861C110.306 56.9964 110.156 57.0583 110 57.0583C109.844 57.0583 109.695 56.9964 109.584 56.8861C109.474 56.7758 109.412 56.6263 109.412 56.4703C109.412 56.1443 110 55.3623 110 55.3623C110 55.3623 110.588 56.1443 110.588 56.4703Z" fill="#0FA6E4"/>
<path d="M109.786 56.5344C109.786 56.6544 109.732 56.7504 109.664 56.7504C109.596 56.7504 109.544 56.6544 109.544 56.5344C109.544 56.4144 109.598 56.3184 109.664 56.3184C109.73 56.3184 109.786 56.4144 109.786 56.5344Z" fill="white"/>
<path d="M108.36 56.4703C108.36 56.6263 108.298 56.7758 108.188 56.8861C108.078 56.9964 107.928 57.0583 107.772 57.0583C107.616 57.0583 107.467 56.9964 107.356 56.8861C107.246 56.7758 107.184 56.6263 107.184 56.4703C107.184 56.1443 107.772 55.3623 107.772 55.3623C107.772 55.3623 108.36 56.1443 108.36 56.4703Z" fill="#0FA6E4"/>
<path d="M107.438 56.7504C107.504 56.7504 107.558 56.6537 107.558 56.5344C107.558 56.4151 107.504 56.3184 107.438 56.3184C107.372 56.3184 107.318 56.4151 107.318 56.5344C107.318 56.6537 107.372 56.7504 107.438 56.7504Z" fill="white"/>
<path d="M106.134 56.4703C106.134 56.6263 106.072 56.7758 105.962 56.8861C105.852 56.9964 105.702 57.0583 105.546 57.0583C105.39 57.0583 105.241 56.9964 105.13 56.8861C105.02 56.7758 104.958 56.6263 104.958 56.4703C104.958 56.1443 105.546 55.3623 105.546 55.3623C105.546 55.3623 106.134 56.1443 106.134 56.4703Z" fill="#0FA6E4"/>
<path d="M105.21 56.7504C105.276 56.7504 105.33 56.6537 105.33 56.5344C105.33 56.4151 105.276 56.3184 105.21 56.3184C105.144 56.3184 105.09 56.4151 105.09 56.5344C105.09 56.6537 105.144 56.7504 105.21 56.7504Z" fill="white"/>
<path d="M112.816 56.4703C112.816 56.6263 112.754 56.7758 112.644 56.8861C112.534 56.9964 112.384 57.0583 112.228 57.0583C112.072 57.0583 111.923 56.9964 111.812 56.8861C111.702 56.7758 111.64 56.6263 111.64 56.4703C111.64 56.1443 112.228 55.3623 112.228 55.3623C112.228 55.3623 112.816 56.1443 112.816 56.4703Z" fill="#0FA6E4"/>
<path d="M111.892 56.7504C111.958 56.7504 112.012 56.6537 112.012 56.5344C112.012 56.4151 111.958 56.3184 111.892 56.3184C111.826 56.3184 111.772 56.4151 111.772 56.5344C111.772 56.6537 111.826 56.7504 111.892 56.7504Z" fill="white"/>
<path d="M115.042 56.4703C115.042 56.6263 114.98 56.7758 114.87 56.8861C114.76 56.9964 114.61 57.0583 114.454 57.0583C114.298 57.0583 114.149 56.9964 114.038 56.8861C113.928 56.7758 113.866 56.6263 113.866 56.4703C113.866 56.1443 114.454 55.3623 114.454 55.3623C114.454 55.3623 115.042 56.1443 115.042 56.4703Z" fill="#0FA6E4"/>
<path d="M114.12 56.7504C114.186 56.7504 114.24 56.6537 114.24 56.5344C114.24 56.4151 114.186 56.3184 114.12 56.3184C114.054 56.3184 114 56.4151 114 56.5344C114 56.6537 114.054 56.7504 114.12 56.7504Z" fill="white"/>
<path d="M109.474 58.732C109.474 58.888 109.412 59.0375 109.302 59.1478C109.191 59.2581 109.042 59.32 108.886 59.32C108.73 59.32 108.58 59.2581 108.47 59.1478C108.36 59.0375 108.298 58.888 108.298 58.732C108.298 58.408 108.886 57.624 108.886 57.624C108.886 57.624 109.474 58.4 109.474 58.732Z" fill="#0FA6E4"/>
<path d="M108.672 58.8C108.672 58.92 108.618 59.016 108.552 59.016C108.486 59.016 108.43 58.92 108.43 58.8C108.43 58.68 108.484 58.584 108.552 58.584C108.62 58.584 108.672 58.676 108.672 58.8Z" fill="white"/>
<path d="M107.248 58.732C107.248 58.888 107.186 59.0375 107.076 59.1478C106.965 59.2581 106.816 59.32 106.66 59.32C106.504 59.32 106.354 59.2581 106.244 59.1478C106.134 59.0375 106.072 58.888 106.072 58.732C106.072 58.408 106.66 57.624 106.66 57.624C106.66 57.624 107.248 58.4 107.248 58.732Z" fill="#0FA6E4"/>
<path d="M106.444 58.8C106.444 58.92 106.39 59.016 106.324 59.016C106.258 59.016 106.204 58.92 106.204 58.8C106.204 58.68 106.258 58.584 106.324 58.584C106.39 58.584 106.444 58.676 106.444 58.8Z" fill="white"/>
<path d="M111.702 58.732C111.702 58.8092 111.687 58.8857 111.657 58.957C111.628 59.0284 111.584 59.0932 111.53 59.1478C111.475 59.2024 111.41 59.2457 111.339 59.2753C111.268 59.3048 111.191 59.32 111.114 59.32C111.037 59.32 110.96 59.3048 110.889 59.2753C110.818 59.2457 110.753 59.2024 110.698 59.1478C110.643 59.0932 110.6 59.0284 110.571 58.957C110.541 58.8857 110.526 58.8092 110.526 58.732C110.526 58.408 111.114 57.624 111.114 57.624C111.114 57.624 111.702 58.4 111.702 58.732Z" fill="#0FA6E4"/>
<path d="M110.898 58.8C110.898 58.92 110.844 59.016 110.778 59.016C110.712 59.016 110.658 58.92 110.658 58.8C110.658 58.68 110.712 58.584 110.778 58.584C110.844 58.584 110.898 58.676 110.898 58.8Z" fill="white"/>
<path d="M113.928 58.732C113.928 58.888 113.866 59.0375 113.756 59.1478C113.645 59.2581 113.496 59.32 113.34 59.32C113.184 59.32 113.034 59.2581 112.924 59.1478C112.814 59.0375 112.752 58.888 112.752 58.732C112.752 58.408 113.34 57.624 113.34 57.624C113.34 57.624 113.928 58.4 113.928 58.732Z" fill="#0FA6E4"/>
<path d="M113.126 58.8C113.126 58.92 113.072 59.016 113.006 59.016C112.94 59.016 112.884 58.92 112.884 58.8C112.884 58.68 112.938 58.584 113.006 58.584C113.074 58.584 113.126 58.676 113.126 58.8Z" fill="white"/>
<path d="M53.8321 180.36C52.1721 180.36 50.6621 179.97 49.3021 179.19C47.9621 178.41 46.8921 177.27 46.0921 175.77C45.3121 174.25 44.9221 172.41 44.9221 170.25C44.9221 168.65 45.1521 167.22 45.6121 165.96C46.0721 164.68 46.7121 163.6 47.5321 162.72C48.3721 161.84 49.3321 161.17 50.4121 160.71C51.4921 160.25 52.6521 160.02 53.8921 160.02C55.1321 160.02 56.2321 160.27 57.1921 160.77C58.1521 161.25 58.9421 161.83 59.5621 162.51L57.7021 164.64C57.2021 164.12 56.6421 163.73 56.0221 163.47C55.4221 163.19 54.7421 163.05 53.9821 163.05C52.9421 163.05 52.0021 163.34 51.1621 163.92C50.3421 164.5 49.6921 165.32 49.2121 166.38C48.7321 167.44 48.4921 168.7 48.4921 170.16C48.4921 171.66 48.7221 172.95 49.1821 174.03C49.6421 175.09 50.2921 175.91 51.1321 176.49C51.9721 177.05 52.9521 177.33 54.0721 177.33C54.9121 177.33 55.6621 177.16 56.3221 176.82C56.9821 176.48 57.5821 176.03 58.1221 175.47L59.8921 177.54C59.0921 178.46 58.1921 179.16 57.1921 179.64C56.1921 180.12 55.0721 180.36 53.8321 180.36ZM67.0143 180.36C65.4343 180.36 64.2843 179.85 63.5643 178.83C62.8443 177.81 62.4843 176.37 62.4843 174.51V165.27H65.9343V174.06C65.9343 175.28 66.1143 176.14 66.4743 176.64C66.8343 177.14 67.4143 177.39 68.2143 177.39C68.8543 177.39 69.4143 177.23 69.8943 176.91C70.3943 176.59 70.9243 176.07 71.4843 175.35V165.27H74.9343V180H72.1143L71.8443 177.84H71.7543C71.1143 178.6 70.4143 179.21 69.6543 179.67C68.8943 180.13 68.0143 180.36 67.0143 180.36ZM85.5143 180.36C84.1543 180.36 82.9343 180.06 81.8543 179.46C80.7743 178.84 79.9143 177.96 79.2743 176.82C78.6543 175.66 78.3443 174.27 78.3443 172.65C78.3443 171.01 78.6843 169.62 79.3643 168.48C80.0443 167.32 80.9443 166.44 82.0643 165.84C83.2043 165.22 84.4243 164.91 85.7243 164.91C86.6643 164.91 87.4843 165.07 88.1843 165.39C88.9043 165.69 89.5243 166.08 90.0443 166.56L88.3943 168.72C88.0743 168.42 87.7043 168.18 87.2843 168C86.8843 167.82 86.4243 167.73 85.9043 167.73C85.1243 167.73 84.4343 167.94 83.8343 168.36C83.2343 168.76 82.7543 169.33 82.3943 170.07C82.0543 170.79 81.8843 171.65 81.8843 172.65C81.8843 173.63 82.0543 174.49 82.3943 175.23C82.7343 175.95 83.1943 176.52 83.7743 176.94C84.3743 177.34 85.0643 177.54 85.8443 177.54C86.4243 177.54 86.9643 177.43 87.4643 177.21C87.9843 176.99 88.4443 176.71 88.8443 176.37L90.2543 178.5C89.6343 179.06 88.9143 179.51 88.0943 179.85C87.2943 180.19 86.4343 180.36 85.5143 180.36ZM93.1617 180V165.27H96.6117V180H93.1617ZM94.8717 162.69C94.2717 162.69 93.7717 162.51 93.3717 162.15C92.9917 161.79 92.8017 161.31 92.8017 160.71C92.8017 160.11 92.9917 159.64 93.3717 159.3C93.7717 158.94 94.2717 158.76 94.8717 158.76C95.4917 158.76 95.9917 158.94 96.3717 159.3C96.7517 159.64 96.9417 160.11 96.9417 160.71C96.9417 161.31 96.7517 161.79 96.3717 162.15C95.9917 162.51 95.4917 162.69 94.8717 162.69ZM107.319 180V160.38H111.489L114.849 169.98C115.069 170.6 115.269 171.22 115.449 171.84C115.629 172.44 115.809 173.1 115.989 173.82H116.109C116.289 173.1 116.459 172.44 116.619 171.84C116.799 171.22 116.989 170.6 117.189 169.98L120.549 160.38H124.689V180H121.479V171.06C121.479 170.44 121.499 169.73 121.539 168.93C121.599 168.13 121.669 167.34 121.749 166.56C121.829 165.76 121.909 165.06 121.989 164.46H121.869L120.309 169.44L117.129 178.2H114.789L111.609 169.44L110.109 164.46H109.989C110.069 165.06 110.139 165.76 110.199 166.56C110.279 167.34 110.339 168.13 110.379 168.93C110.439 169.73 110.469 170.44 110.469 171.06V180H107.319ZM135.403 180.36C134.183 180.36 133.043 180.06 131.983 179.46C130.923 178.84 130.063 177.96 129.403 176.82C128.743 175.66 128.413 174.27 128.413 172.65C128.413 171.01 128.743 169.62 129.403 168.48C130.063 167.32 130.923 166.44 131.983 165.84C133.043 165.22 134.183 164.91 135.403 164.91C136.643 164.91 137.793 165.22 138.853 165.84C139.913 166.44 140.773 167.32 141.433 168.48C142.093 169.62 142.423 171.01 142.423 172.65C142.423 174.27 142.093 175.66 141.433 176.82C140.773 177.96 139.913 178.84 138.853 179.46C137.793 180.06 136.643 180.36 135.403 180.36ZM135.403 177.54C136.123 177.54 136.743 177.34 137.263 176.94C137.783 176.54 138.183 175.97 138.463 175.23C138.743 174.49 138.883 173.63 138.883 172.65C138.883 171.67 138.743 170.81 138.463 170.07C138.183 169.33 137.783 168.76 137.263 168.36C136.743 167.94 136.123 167.73 135.403 167.73C134.683 167.73 134.063 167.94 133.543 168.36C133.043 168.76 132.653 169.33 132.373 170.07C132.093 170.81 131.953 171.67 131.953 172.65C131.953 173.63 132.093 174.49 132.373 175.23C132.653 175.97 133.043 176.54 133.543 176.94C134.063 177.34 134.683 177.54 135.403 177.54ZM152.977 180.36C152.317 180.36 151.637 180.2 150.937 179.88C150.257 179.54 149.597 179.06 148.957 178.44H148.867L148.567 180H145.837V158.82H149.287V164.28L149.197 166.74C149.817 166.2 150.487 165.76 151.207 165.42C151.947 165.08 152.697 164.91 153.457 164.91C154.677 164.91 155.717 165.22 156.577 165.84C157.457 166.46 158.127 167.33 158.587 168.45C159.047 169.55 159.277 170.86 159.277 172.38C159.277 174.06 158.977 175.5 158.377 176.7C157.777 177.88 156.997 178.79 156.037 179.43C155.097 180.05 154.077 180.36 152.977 180.36ZM152.257 177.51C152.917 177.51 153.507 177.32 154.027 176.94C154.547 176.56 154.957 176 155.257 175.26C155.557 174.5 155.707 173.56 155.707 172.44C155.707 171.46 155.597 170.62 155.377 169.92C155.157 169.22 154.807 168.69 154.327 168.33C153.867 167.95 153.267 167.76 152.527 167.76C151.987 167.76 151.457 167.9 150.937 168.18C150.417 168.44 149.867 168.85 149.287 169.41V176.28C149.807 176.72 150.327 177.04 150.847 177.24C151.367 177.42 151.837 177.51 152.257 177.51ZM162.742 180V165.27H166.192V180H162.742ZM164.452 162.69C163.852 162.69 163.352 162.51 162.952 162.15C162.572 161.79 162.382 161.31 162.382 160.71C162.382 160.11 162.572 159.64 162.952 159.3C163.352 158.94 163.852 158.76 164.452 158.76C165.072 158.76 165.572 158.94 165.952 159.3C166.332 159.64 166.522 160.11 166.522 160.71C166.522 161.31 166.332 161.79 165.952 162.15C165.572 162.51 165.072 162.69 164.452 162.69ZM173.953 180.3C173.133 180.3 172.473 180.14 171.973 179.82C171.493 179.48 171.143 179 170.923 178.38C170.703 177.76 170.593 177.02 170.593 176.16V158.82H174.043V176.34C174.043 176.78 174.123 177.08 174.283 177.24C174.443 177.4 174.623 177.48 174.823 177.48C174.903 177.48 174.973 177.48 175.033 177.48C175.113 177.46 175.213 177.44 175.333 177.42L175.783 180C175.583 180.08 175.323 180.15 175.003 180.21C174.703 180.27 174.353 180.3 173.953 180.3Z" fill="black"/>
<path d="M94.3121 86.2C94.3121 86.2 93.9861 84.656 93.6161 84.288C93.2461 83.92 90.5281 84.242 89.8061 84.964C89.0841 85.686 89.2221 86.5 89.8061 86.746C90.3901 86.992 93.8061 87.612 93.8061 87.612L94.3121 86.2Z" fill="#FF9E29"/>
<path d="M127.42 106.656H123.42C123.36 106.656 123.302 106.632 123.259 106.589C123.216 106.547 123.192 106.489 123.192 106.428V97.7522H127.644V106.428C127.644 106.489 127.62 106.547 127.577 106.589C127.535 106.632 127.477 106.656 127.416 106.656H127.42Z" fill="#FA7500"/>
<path d="M92.3522 97.7539H96.8002V106.43C96.8002 106.49 96.7762 106.548 96.7335 106.591C96.6907 106.634 96.6327 106.658 96.5722 106.658H92.5722C92.5118 106.658 92.4538 106.634 92.411 106.591C92.3683 106.548 92.3442 106.49 92.3442 106.43V97.7539H92.3522Z" fill="#FA7500"/>
<path d="M127.622 93.6005C127.448 89.9105 126.578 88.6005 126.106 87.4005C125.614 86.1405 123.494 79.1005 121.588 77.6265C120.316 76.6405 114.488 76.3965 110 76.3965C105.512 76.3965 99.6841 76.6405 98.4121 77.6265C96.5061 79.1005 94.3861 86.1405 93.8941 87.4005C93.4221 88.6005 92.5521 89.9205 92.3781 93.6005C92.1501 98.3625 93.4841 101.6 94.8361 101.6H125.164C126.516 101.6 127.85 98.3665 127.622 93.6005Z" fill="#FFA31D"/>
<path d="M125.688 86.2C125.688 86.2 126.014 84.656 126.384 84.288C126.754 83.92 129.472 84.242 130.194 84.964C130.916 85.686 130.778 86.5 130.194 86.746C129.61 86.992 126.194 87.612 126.194 87.612L125.688 86.2Z" fill="#FF9E29"/>
<path d="M124.678 86.5018C124.524 85.7198 121.758 79.4478 121.034 78.7258C120.31 78.0038 113.32 77.7998 110 77.7998C106.68 77.7998 99.6881 77.9998 98.9661 78.7218C98.2441 79.4438 95.4761 85.7218 95.3221 86.4978C95.2181 87.0338 95.7081 87.2978 96.3521 87.2258C105.41 86.0098 114.59 86.0098 123.648 87.2258C124.292 87.2938 124.782 87.0378 124.678 86.5018Z" fill="#FFE0B4"/>
<path d="M117.622 84.668C116.973 84.6678 116.335 84.8267 115.762 85.1308C115.189 85.4348 114.699 85.8747 114.336 86.412L115.354 86.458C115.675 86.1221 116.067 85.8616 116.501 85.6953C116.935 85.5291 117.4 85.4611 117.864 85.4963C118.327 85.5314 118.777 85.669 119.181 85.8989C119.585 86.1288 119.933 86.4454 120.2 86.826C120.564 86.862 120.896 86.898 121.2 86.934C120.878 86.2572 120.371 85.6853 119.738 85.2843C119.105 84.8833 118.371 84.6697 117.622 84.668Z" fill="#FF9E29"/>
<path d="M127.95 95.4463H92.05C90.512 95.4463 91.438 101.618 93.364 101.618H126.636C128.562 101.618 129.488 95.4463 127.95 95.4463Z" fill="#FA7500"/>
<path d="M98.1462 93.5998C97.2761 93.6138 96.4064 93.5549 95.5462 93.4238C95.0822 93.3258 94.7722 92.9258 94.6722 92.2958C94.5382 91.4538 94.8082 90.1898 95.3442 89.8798C95.5741 89.7807 95.8244 89.7382 96.0742 89.7558C97.7082 89.7558 100.902 90.6558 101.25 92.8198C101.259 92.8726 101.256 92.9268 101.241 92.9781C101.226 93.0295 101.199 93.0766 101.162 93.1158C100.83 93.5238 99.3382 93.5998 98.1462 93.5998Z" fill="#FA7500"/>
<path d="M101.064 92.86C101.176 93.552 96.7618 93.484 95.5938 93.238C94.4258 92.992 94.8098 90.428 95.4498 90.058C96.0898 89.688 100.656 90.324 101.064 92.86Z" fill="white"/>
<path d="M121.893 93.6033C120.694 93.6279 119.208 93.5745 118.86 93.1816C118.823 93.1431 118.795 93.0965 118.779 93.0455C118.762 92.9945 118.758 92.9404 118.766 92.8874C119.069 90.7167 122.244 89.7512 123.878 89.7176C124.127 89.6949 124.378 89.7322 124.61 89.8266C125.152 90.1255 125.442 91.3838 125.332 92.2282C125.245 92.8602 124.943 93.2665 124.481 93.374C123.624 93.5227 122.755 93.5995 121.885 93.6034L121.893 93.6033Z" fill="#FA7500"/>
<path d="M118.936 92.86C118.824 93.552 123.238 93.484 124.406 93.238C125.574 92.992 125.19 90.428 124.55 90.058C123.91 89.688 119.344 90.324 118.936 92.86Z" fill="white"/>
<path d="M125.416 97.7417C125.384 97.6971 125.342 97.6608 125.294 97.6357C125.245 97.6107 125.191 97.5976 125.136 97.5977H94.8642C94.8096 97.5976 94.7558 97.6104 94.7071 97.635C94.6585 97.6597 94.6163 97.6956 94.5841 97.7396C94.5519 97.7837 94.5307 97.8348 94.522 97.8887C94.5133 97.9425 94.5175 97.9977 94.5342 98.0497L94.8182 98.9077C94.9506 99.3143 95.2082 99.6686 95.5541 99.9201C95.9 100.172 96.3166 100.307 96.7442 100.308H123.256C123.684 100.307 124.1 100.172 124.446 99.9201C124.792 99.6686 125.05 99.3143 125.182 98.9077L125.466 98.0497C125.483 97.998 125.487 97.9432 125.478 97.8897C125.469 97.8361 125.448 97.7854 125.416 97.7417Z" fill="#FFD18E"/>
<path d="M110.452 97.5977H109.55V100.302H110.452V97.5977Z" fill="#AA6D13"/>
<path d="M119.854 98.7002H100.146V99.2042H119.854V98.7002Z" fill="#AA6D13"/>
<path d="M113.996 97.5977H113.094V100.302H113.996V97.5977Z" fill="#AA6D13"/>
<path d="M114.336 86.4118C114.336 86.4118 112.558 81.5718 110.246 78.8018C109.954 78.4518 109.646 78.1198 109.346 77.8018C105.842 77.8258 99.6441 78.0438 98.9661 78.7218C98.2421 79.4438 95.4761 85.7218 95.3221 86.4978C95.2181 87.0338 95.7081 87.2978 96.3521 87.2258C100.876 86.6186 105.436 86.3152 110 86.3178C111.55 86.3178 113 86.3538 114.336 86.4118Z" fill="#FFEDD2"/>
<path d="M106.004 100.304H106.906V97.5997H106.004V100.304Z" fill="#AA6D13"/>
<path d="M100.072 98.9516C100.072 99.2196 99.993 99.4816 99.8444 99.7046C99.6958 99.9276 99.4843 100.101 99.2368 100.204C98.9894 100.307 98.7169 100.334 98.4541 100.282C98.1913 100.23 97.9498 100.101 97.7603 99.911C97.5709 99.7215 97.4419 99.4801 97.3897 99.2173C97.3375 98.9544 97.3645 98.682 97.4672 98.4345C97.5699 98.187 97.7438 97.9756 97.9668 97.827C98.1897 97.6783 98.4518 97.5992 98.7198 97.5996C99.0783 97.5996 99.4222 97.7421 99.6758 97.9956C99.9293 98.2492 100.072 98.593 100.072 98.9516Z" fill="#FFA31D"/>
<path d="M119.928 98.9516C119.928 99.2196 120.007 99.4816 120.156 99.7046C120.304 99.9276 120.516 100.101 120.763 100.204C121.011 100.307 121.283 100.334 121.546 100.282C121.809 100.23 122.05 100.101 122.24 99.911C122.429 99.7215 122.558 99.4801 122.61 99.2173C122.662 98.9544 122.636 98.682 122.533 98.4345C122.43 98.187 122.256 97.9756 122.033 97.827C121.81 97.6783 121.548 97.5992 121.28 97.5996C120.922 97.5996 120.578 97.7421 120.324 97.9956C120.071 98.2492 119.928 98.593 119.928 98.9516Z" fill="#FFA31D"/>
<path d="M109.836 95.5997C107.098 95.5997 103.688 95.4557 102.996 94.7637C102.44 94.2077 101.334 92.1777 101.442 91.3637C101.455 91.2406 101.497 91.1224 101.564 91.0183C101.631 90.9141 101.722 90.827 101.828 90.7637C102.668 90.2777 107.698 90.1077 109.828 90.0557C111.966 90.1057 117.008 90.2757 117.852 90.7637C117.959 90.8258 118.05 90.9126 118.118 91.0169C118.185 91.1213 118.226 91.2402 118.238 91.3637C118.346 92.1637 117.238 94.2017 116.684 94.7637C115.984 95.4577 112.574 95.5997 109.836 95.5997Z" fill="#FA7500"/>
<path d="M109.836 95.3999C107.624 95.3999 103.814 95.2979 103.136 94.6219C102.558 94.0439 101.536 92.0959 101.636 91.3919C101.646 91.2988 101.677 91.2093 101.727 91.1305C101.778 91.0517 101.846 90.9857 101.926 90.9379C102.75 90.4619 108.18 90.2959 109.824 90.2559C111.492 90.2959 116.922 90.4559 117.746 90.9379C117.827 90.9857 117.895 91.0517 117.945 91.1305C117.995 91.2093 118.027 91.2988 118.036 91.3919C118.128 92.0939 117.114 94.0439 116.536 94.6219C115.858 95.3039 112.048 95.3999 109.836 95.3999Z" fill="white"/>
<path d="M117.5 91.3699C116.72 90.9199 109.836 90.7539 109.836 90.7539C109.836 90.7539 102.952 90.9199 102.172 91.3699C101.888 91.5339 102.848 93.6439 103.484 94.2799C104.12 94.9159 109.836 94.9139 109.836 94.9139C109.836 94.9139 115.554 94.9139 116.188 94.2799C116.822 93.6459 117.784 91.5339 117.5 91.3699Z" fill="#AA6D13"/>
<path d="M117.54 91.624H102.14C102.169 91.7934 102.215 91.9595 102.276 92.12H117.4C117.463 91.9597 117.51 91.7935 117.54 91.624Z" fill="white"/>
<path d="M102.746 93.1796H116.926C117.014 93.0156 117.096 92.8476 117.172 92.6816H102.5C102.576 92.8476 102.658 93.0156 102.746 93.1796Z" fill="white"/>
<path d="M109.44 95.3199H110.24C110.24 93.7399 110.25 92.1199 110.254 90.5439H109.434C109.43 92.1279 109.434 93.7399 109.44 95.3199Z" fill="white"/>
<path d="M103.448 94.2402H116.224C116.363 94.0855 116.488 93.9189 116.598 93.7422H103.074C103.184 93.9189 103.309 94.0855 103.448 94.2402Z" fill="white"/>
<path d="M111.668 78.7998H108.332C108.172 78.7998 108.04 79.0758 108.04 79.4138C108.04 79.7518 108.172 80.0298 108.332 80.0298H111.668C111.828 80.0298 111.96 79.7538 111.96 79.4138C111.96 79.0738 111.828 78.7998 111.668 78.7998Z" fill="#10303E"/>
<path d="M124.606 93.9678H120.038C119.991 93.9678 119.952 94.0063 119.952 94.0538V94.9478C119.952 94.9953 119.991 95.0338 120.038 95.0338H124.606C124.654 95.0338 124.692 94.9953 124.692 94.9478V94.0538C124.692 94.0063 124.654 93.9678 124.606 93.9678Z" fill="#FA7500"/>
<path d="M95.3958 95.0342H99.9638C100.011 95.0342 100.05 94.9957 100.05 94.9482V94.0542C100.05 94.0067 100.011 93.9682 99.9638 93.9682H95.3958C95.3483 93.9682 95.3098 94.0067 95.3098 94.0542V94.9482C95.3098 94.9957 95.3483 95.0342 95.3958 95.0342Z" fill="#FA7500"/>
<path d="M82.3999 54.2598C81.9803 54.2598 81.5779 54.4264 81.2812 54.7231C80.9845 55.0198 80.8179 55.4222 80.8179 55.8418V106.656H86.0319V64.6898H133.972V106.656H139.186V55.8418C139.186 55.6337 139.145 55.4276 139.065 55.2354C138.985 55.0432 138.868 54.8687 138.721 54.7217C138.574 54.5748 138.399 54.4583 138.207 54.379C138.014 54.2998 137.808 54.2592 137.6 54.2598H82.3999Z" fill="#093D77"/>
<path d="M133.97 64.6904H86.0278V75.1204H133.97V64.6904Z" fill="#14B6B8"/>
<path d="M133.97 74.0498H86.0278V75.1178H133.97V74.0498Z" fill="#EDFCFF"/>
<path d="M133.97 71.3877H86.0278V72.4557H133.97V71.3877Z" fill="#EDFCFF"/>
<path d="M133.97 68.7236H86.0278V69.7916H133.97V68.7236Z" fill="#EDFCFF"/>
<path d="M133.97 66.0615H86.0278V67.1295H133.97V66.0615Z" fill="#EDFCFF"/>
<path d="M110 63.0302C108.265 63.0302 106.57 62.5159 105.128 61.5522C103.685 60.5886 102.561 59.2189 101.898 57.6164C101.234 56.0139 101.06 54.2505 101.398 52.5493C101.737 50.8481 102.572 49.2854 103.799 48.0589C105.025 46.8324 106.588 45.9971 108.289 45.6588C109.99 45.3204 111.754 45.494 113.356 46.1578C114.959 46.8216 116.328 47.9457 117.292 49.3879C118.256 50.8301 118.77 52.5257 118.77 54.2602C118.767 56.5854 117.843 58.8145 116.198 60.4586C114.554 62.1028 112.325 63.0276 110 63.0302Z" fill="#14B6B8"/>
<path d="M110 62.0835C114.321 62.0835 117.824 58.5806 117.824 54.2595C117.824 49.9385 114.321 46.4355 110 46.4355C105.679 46.4355 102.176 49.9385 102.176 54.2595C102.176 58.5806 105.679 62.0835 110 62.0835Z" fill="white"/>
<path d="M110.7 46.4355H109.3V50.5295H110.7V46.4355Z" fill="#FA7500"/>
<path d="M110 50.5303C105.514 50.5303 105.418 51.9163 105.418 53.6263H114.582C114.582 51.9163 114.486 50.5303 110 50.5303Z" fill="#FFB137"/>
<path d="M115.07 53.626H104.93C104.903 53.626 104.882 53.6475 104.882 53.674V54.638C104.882 54.6645 104.903 54.686 104.93 54.686H115.07C115.096 54.686 115.118 54.6645 115.118 54.638V53.674C115.118 53.6475 115.096 53.626 115.07 53.626Z" fill="#FA7500"/>
<path d="M110.588 56.4703C110.588 56.6263 110.526 56.7758 110.416 56.8861C110.306 56.9964 110.156 57.0583 110 57.0583C109.844 57.0583 109.695 56.9964 109.584 56.8861C109.474 56.7758 109.412 56.6263 109.412 56.4703C109.412 56.1443 110 55.3623 110 55.3623C110 55.3623 110.588 56.1443 110.588 56.4703Z" fill="#0FA6E4"/>
<path d="M109.786 56.5344C109.786 56.6544 109.732 56.7504 109.664 56.7504C109.596 56.7504 109.544 56.6544 109.544 56.5344C109.544 56.4144 109.598 56.3184 109.664 56.3184C109.73 56.3184 109.786 56.4144 109.786 56.5344Z" fill="white"/>
<path d="M108.36 56.4703C108.36 56.6263 108.298 56.7758 108.188 56.8861C108.078 56.9964 107.928 57.0583 107.772 57.0583C107.616 57.0583 107.467 56.9964 107.356 56.8861C107.246 56.7758 107.184 56.6263 107.184 56.4703C107.184 56.1443 107.772 55.3623 107.772 55.3623C107.772 55.3623 108.36 56.1443 108.36 56.4703Z" fill="#0FA6E4"/>
<path d="M107.438 56.7504C107.504 56.7504 107.558 56.6537 107.558 56.5344C107.558 56.4151 107.504 56.3184 107.438 56.3184C107.372 56.3184 107.318 56.4151 107.318 56.5344C107.318 56.6537 107.372 56.7504 107.438 56.7504Z" fill="white"/>
<path d="M106.134 56.4703C106.134 56.6263 106.072 56.7758 105.962 56.8861C105.852 56.9964 105.702 57.0583 105.546 57.0583C105.39 57.0583 105.241 56.9964 105.13 56.8861C105.02 56.7758 104.958 56.6263 104.958 56.4703C104.958 56.1443 105.546 55.3623 105.546 55.3623C105.546 55.3623 106.134 56.1443 106.134 56.4703Z" fill="#0FA6E4"/>
<path d="M105.21 56.7504C105.276 56.7504 105.33 56.6537 105.33 56.5344C105.33 56.4151 105.276 56.3184 105.21 56.3184C105.144 56.3184 105.09 56.4151 105.09 56.5344C105.09 56.6537 105.144 56.7504 105.21 56.7504Z" fill="white"/>
<path d="M112.816 56.4703C112.816 56.6263 112.754 56.7758 112.644 56.8861C112.534 56.9964 112.384 57.0583 112.228 57.0583C112.072 57.0583 111.923 56.9964 111.812 56.8861C111.702 56.7758 111.64 56.6263 111.64 56.4703C111.64 56.1443 112.228 55.3623 112.228 55.3623C112.228 55.3623 112.816 56.1443 112.816 56.4703Z" fill="#0FA6E4"/>
<path d="M111.892 56.7504C111.958 56.7504 112.012 56.6537 112.012 56.5344C112.012 56.4151 111.958 56.3184 111.892 56.3184C111.826 56.3184 111.772 56.4151 111.772 56.5344C111.772 56.6537 111.826 56.7504 111.892 56.7504Z" fill="white"/>
<path d="M115.042 56.4703C115.042 56.6263 114.98 56.7758 114.87 56.8861C114.76 56.9964 114.61 57.0583 114.454 57.0583C114.298 57.0583 114.149 56.9964 114.038 56.8861C113.928 56.7758 113.866 56.6263 113.866 56.4703C113.866 56.1443 114.454 55.3623 114.454 55.3623C114.454 55.3623 115.042 56.1443 115.042 56.4703Z" fill="#0FA6E4"/>
<path d="M114.12 56.7504C114.186 56.7504 114.24 56.6537 114.24 56.5344C114.24 56.4151 114.186 56.3184 114.12 56.3184C114.054 56.3184 114 56.4151 114 56.5344C114 56.6537 114.054 56.7504 114.12 56.7504Z" fill="white"/>
<path d="M109.474 58.732C109.474 58.888 109.412 59.0375 109.302 59.1478C109.191 59.2581 109.042 59.32 108.886 59.32C108.73 59.32 108.58 59.2581 108.47 59.1478C108.36 59.0375 108.298 58.888 108.298 58.732C108.298 58.408 108.886 57.624 108.886 57.624C108.886 57.624 109.474 58.4 109.474 58.732Z" fill="#0FA6E4"/>
<path d="M108.672 58.8C108.672 58.92 108.618 59.016 108.552 59.016C108.486 59.016 108.43 58.92 108.43 58.8C108.43 58.68 108.484 58.584 108.552 58.584C108.62 58.584 108.672 58.676 108.672 58.8Z" fill="white"/>
<path d="M107.248 58.732C107.248 58.888 107.186 59.0375 107.076 59.1478C106.965 59.2581 106.816 59.32 106.66 59.32C106.504 59.32 106.354 59.2581 106.244 59.1478C106.134 59.0375 106.072 58.888 106.072 58.732C106.072 58.408 106.66 57.624 106.66 57.624C106.66 57.624 107.248 58.4 107.248 58.732Z" fill="#0FA6E4"/>
<path d="M106.444 58.8C106.444 58.92 106.39 59.016 106.324 59.016C106.258 59.016 106.204 58.92 106.204 58.8C106.204 58.68 106.258 58.584 106.324 58.584C106.39 58.584 106.444 58.676 106.444 58.8Z" fill="white"/>
<path d="M111.702 58.732C111.702 58.8092 111.687 58.8857 111.657 58.957C111.628 59.0284 111.584 59.0932 111.53 59.1478C111.475 59.2024 111.41 59.2457 111.339 59.2753C111.268 59.3048 111.191 59.32 111.114 59.32C111.037 59.32 110.96 59.3048 110.889 59.2753C110.818 59.2457 110.753 59.2024 110.698 59.1478C110.643 59.0932 110.6 59.0284 110.571 58.957C110.541 58.8857 110.526 58.8092 110.526 58.732C110.526 58.408 111.114 57.624 111.114 57.624C111.114 57.624 111.702 58.4 111.702 58.732Z" fill="#0FA6E4"/>
<path d="M110.898 58.8C110.898 58.92 110.844 59.016 110.778 59.016C110.712 59.016 110.658 58.92 110.658 58.8C110.658 58.68 110.712 58.584 110.778 58.584C110.844 58.584 110.898 58.676 110.898 58.8Z" fill="white"/>
<path d="M113.928 58.732C113.928 58.888 113.866 59.0375 113.756 59.1478C113.645 59.2581 113.496 59.32 113.34 59.32C113.184 59.32 113.034 59.2581 112.924 59.1478C112.814 59.0375 112.752 58.888 112.752 58.732C112.752 58.408 113.34 57.624 113.34 57.624C113.34 57.624 113.928 58.4 113.928 58.732Z" fill="#0FA6E4"/>
<path d="M113.126 58.8C113.126 58.92 113.072 59.016 113.006 59.016C112.94 59.016 112.884 58.92 112.884 58.8C112.884 58.68 112.938 58.584 113.006 58.584C113.074 58.584 113.126 58.676 113.126 58.8Z" fill="white"/>
</svg>
