<svg width="220" height="220" viewBox="0 0 220 220" fill="none" xmlns="http://www.w3.org/2000/svg">
<rect x="0.5" y="0.5" width="219" height="219" rx="19.5" fill="white" stroke="#093D77"/>
<path d="M86.8138 116.442H86.8278C86.9541 116.452 87.0804 116.423 87.1902 116.36C87.3001 116.297 87.3884 116.202 87.4438 116.088L94.4998 95.458H91.3458L86.1938 115.88C86.1098 116.17 86.4118 116.442 86.8138 116.442Z" fill="#14B6B8"/>
<path d="M117.394 116.442H117.38C117.254 116.452 117.127 116.423 117.018 116.36C116.908 116.297 116.819 116.202 116.764 116.088L109.71 95.458H112.862L118.014 115.88C118.1 116.17 117.796 116.442 117.394 116.442Z" fill="#14B6B8"/>
<path d="M115.302 95.0664H88.9077V97.1564H115.302V95.0664Z" fill="#093D77"/>
<path d="M117.988 77.8564H86.2217V96.3644H117.988V77.8564Z" fill="#96EDFF"/>
<path d="M116.936 86.9785H87.27V95.0665H116.936V86.9785Z" fill="#14B6B8"/>
<path d="M116.738 87.2422H87.4717V94.8042H116.738V87.2422Z" fill="#FFF9F0"/>
<path d="M116.936 79.1523H87.27V87.2403H116.936V79.1523Z" fill="#14B6B8"/>
<path d="M116.738 79.416H87.4717V86.978H116.738V79.416Z" fill="#FFF9F0"/>
<path d="M102.104 81.4161C102.707 81.4161 103.196 81.1538 103.196 80.8301C103.196 80.5065 102.707 80.2441 102.104 80.2441C101.501 80.2441 101.012 80.5065 101.012 80.8301C101.012 81.1538 101.501 81.4161 102.104 81.4161Z" fill="#2A2428"/>
<path d="M102.104 81.3578C102.646 81.3578 103.086 81.1214 103.086 80.8298C103.086 80.5382 102.646 80.3018 102.104 80.3018C101.562 80.3018 101.122 80.5382 101.122 80.8298C101.122 81.1214 101.562 81.3578 102.104 81.3578Z" fill="#EDFCFF"/>
<path d="M103.196 88.6563C103.196 88.9803 102.706 89.2423 102.104 89.2423C101.502 89.2423 101.014 88.9803 101.014 88.6563C101.014 88.3323 101.502 88.0703 102.104 88.0703C102.706 88.0703 103.196 88.3323 103.196 88.6563Z" fill="#2A2428"/>
<path d="M103.086 88.6559C103.086 88.9479 102.646 89.1839 102.104 89.1839C101.562 89.1839 101.122 88.9479 101.122 88.6559C101.122 88.3639 101.562 88.1279 102.104 88.1279C102.646 88.1279 103.086 88.3639 103.086 88.6559Z" fill="#EDFCFF"/>
<path d="M96.1219 77.8562H90.9959C90.94 77.8589 90.8853 77.8394 90.8437 77.802C90.8021 77.7645 90.777 77.7121 90.7739 77.6562V76.9522C90.777 76.8963 90.8021 76.8439 90.8437 76.8064C90.8853 76.769 90.94 76.7495 90.9959 76.7522H96.1219C96.1495 76.7509 96.1771 76.755 96.2031 76.7643C96.2291 76.7736 96.253 76.788 96.2734 76.8066C96.2938 76.8251 96.3104 76.8476 96.3222 76.8726C96.3339 76.8976 96.3406 76.9246 96.3419 76.9522V77.6562C96.3406 77.6838 96.3339 77.7109 96.3222 77.7358C96.3104 77.7608 96.2938 77.7833 96.2734 77.8018C96.253 77.8204 96.2291 77.8348 96.2031 77.8441C96.1771 77.8534 96.1495 77.8576 96.1219 77.8562Z" fill="#14B6B8"/>
<path d="M96.3419 77.6223V76.9503C96.3406 76.9227 96.3339 76.8956 96.3222 76.8706C96.3104 76.8456 96.2938 76.8232 96.2734 76.8046C96.253 76.786 96.2291 76.7717 96.2031 76.7623C96.1771 76.753 96.1495 76.7489 96.1219 76.7503H90.9959C90.94 76.7475 90.8853 76.767 90.8437 76.8045C90.8021 76.842 90.777 76.8944 90.7739 76.9503V77.6223H96.3419Z" fill="#093D77"/>
<path d="M93.8538 63.6826H93.2598V71.3506H93.8538V63.6826Z" fill="url(#paint0_linear_5708_10600)"/>
<path d="M94.0361 68.624H93.0781V71.35H94.0361V68.624Z" fill="url(#paint1_linear_5708_10600)"/>
<path d="M94.0618 68.126H93.0518V70.998H94.0618V68.126Z" fill="url(#paint2_radial_5708_10600)"/>
<path d="M102.57 64.9784C102.57 65.7324 98.5399 66.2964 93.5579 66.2964C88.5759 66.2964 84.5459 65.7324 84.5459 64.9784C90.406 63.0931 96.7098 63.0931 102.57 64.9784Z" fill="#FFA31D"/>
<path d="M102.114 65.0881C102.114 65.6681 98.2839 66.1381 93.5579 66.1381C88.8319 66.1381 85.0039 65.6681 85.0039 65.0881C85.0039 64.5081 88.8339 64.0361 93.5579 64.0361C98.2819 64.0361 102.114 64.5081 102.114 65.0881Z" fill="#FFFDF7"/>
<path d="M93.5578 64.9785C92.7838 64.9785 92.0358 64.9905 91.3218 65.0145C91.7218 65.6925 92.5758 66.1605 93.5578 66.1605C94.5398 66.1605 95.3878 65.6925 95.7938 65.0145C95.0818 65.0005 94.3318 64.9785 93.5578 64.9785Z" fill="url(#paint3_radial_5708_10600)"/>
<path d="M102.57 64.9761H84.5459L89.1799 55.0361H97.9359L102.57 64.9761Z" fill="#14B6B8"/>
<path d="M94.588 68.7998H92.526C89.926 69.2438 87.938 71.3278 87.938 73.8438V73.8818C87.954 75.7098 89.662 77.1518 91.662 77.1518H95.452C97.452 77.1518 99.162 75.7098 99.176 73.8818V73.8438C99.176 71.3258 97.198 69.2418 94.588 68.7998Z" fill="#96EDFF"/>
<path d="M126.9 106.2L124.9 106.98L124.942 105.75C124.828 105.264 124.458 104.252 124.464 103.71L124.55 97.9101C124.555 97.6996 124.602 97.4923 124.688 97.3001V97.2901C124.902 96.8021 125.342 96.1921 125.796 96.0661L126.196 95.9581C126.584 95.8501 126.928 96.1681 127.14 96.4441L127.192 96.5121C127.326 96.6922 127.396 96.9117 127.392 97.1361L127.362 103.236C127.358 103.774 127.3 104.31 127.19 104.836L126.9 106.2Z" fill="#55360A"/>
<path d="M129.38 116.964H122.328C121.98 116.964 121.644 116.837 121.383 116.607C121.122 116.377 120.955 116.059 120.912 115.714L119.672 105.744H132.036L130.796 115.714C130.753 116.059 130.585 116.377 130.325 116.607C130.064 116.837 129.728 116.964 129.38 116.964Z" fill="#14B6B8"/>
<g style="mix-blend-mode:multiply" opacity="0.35">
<path d="M131.806 107.582L132.036 105.744H119.672L119.902 107.582H131.806Z" fill="#093D77"/>
</g>
<path d="M132.114 104.729H119.594C119.276 104.729 119.018 104.986 119.018 105.305V105.801C119.018 106.119 119.276 106.377 119.594 106.377H132.114C132.432 106.377 132.69 106.119 132.69 105.801V105.305C132.69 104.986 132.432 104.729 132.114 104.729Z" fill="#14B6B8"/>
<path d="M126.38 97.7719C126.38 97.7719 128.59 97.3239 128.958 96.8779C129.326 96.4319 129.714 97.4239 128.958 97.7719C128.656 97.9119 126.38 99.0619 126.38 99.0619V97.7719Z" fill="#55360A"/>
<path d="M125.08 98.9643C125.298 98.9643 124.96 97.9203 124.96 97.9203C124.96 97.9203 123.13 97.1583 122.722 96.5083C122.314 95.8583 121.59 95.8503 122.264 96.8783C122.938 97.9063 123.78 98.9643 125.08 98.9643Z" fill="#55360A"/>
<path d="M129.184 97.0101C129.184 97.0101 132.366 89.3041 135.88 88.5381C133.419 91.1728 131.179 94.0065 129.184 97.0101Z" fill="#093D77"/>
<path d="M129.36 96.9102C129.36 96.9102 129.034 93.6382 130.16 91.3302C131.286 89.0222 130.4 88.4922 130.4 88.4922C130.4 88.4922 131.478 89.3682 130.722 91.4342C129.966 93.5002 129.3 96.4302 129.36 96.9102Z" fill="#093D77"/>
<path d="M128.994 97.2406C128.994 97.2406 127.814 90.6806 129.712 86.5186C129.712 86.5186 129.528 89.0106 129.452 90.2506C129.376 91.4906 129.618 95.1146 128.994 97.2406Z" fill="#14B6B8"/>
<path d="M129.562 97.1545C129.562 97.1545 133.022 96.0645 133.828 94.6865C132.279 95.2674 130.838 96.1014 129.562 97.1545Z" fill="#093D77"/>
<path d="M129.71 97.0741C129.71 97.0741 130.85 93.2981 134.776 90.5381C134.776 90.5381 130.66 96.3501 129.71 97.0741Z" fill="#093D77"/>
<path d="M129.164 97.2206C129.164 97.2206 131.438 93.5546 131.502 91.8206C131.566 90.0866 130.938 86.6206 131.4 85.6846C131.699 86.5751 131.933 87.4862 132.1 88.4106C132.282 89.6106 132.854 93.0986 131.3 94.9466C129.746 96.7946 129.952 96.8986 129.164 97.2206Z" fill="#14B6B8"/>
<path d="M129.456 97.284C129.456 97.284 135.438 93.028 136.456 90.792C136.454 90.8 131.426 93.688 129.456 97.284Z" fill="#14B6B8"/>
<path d="M129.086 97.044C129.086 97.044 126.718 92.828 127.066 90.874C127.066 90.874 129.562 94.4 129.086 97.044Z" fill="#093D77"/>
<path d="M129.056 97.1078C129.056 97.1078 129.996 92.6238 131.194 91.4658C131.194 91.4658 130.256 96.3418 129.056 97.1078Z" fill="#093D77"/>
<path d="M125.68 98.0765C125.68 98.0765 126.626 88.5525 129.554 87.3125C127.975 90.7903 126.679 94.39 125.68 98.0765Z" fill="#093D77"/>
<path d="M125.812 97.9397C125.812 97.9397 124.728 94.0517 125.17 91.1817C125.612 88.3117 124.694 87.7617 124.694 87.7617C124.694 87.7617 125.862 88.7117 125.694 91.2557C125.526 93.7997 125.634 97.3717 125.812 97.9397Z" fill="#093D77"/>
<path d="M125.568 98.3679C125.568 98.3679 122.928 90.6219 123.596 85.4619C123.596 85.4619 124.04 88.4619 124.274 89.9559C124.508 91.4499 125.604 95.7639 125.568 98.3679Z" fill="#093D77"/>
<path d="M126.05 98.2123C126.05 98.2123 128.85 96.5883 129.23 94.8643C129.23 94.8643 127.584 95.8503 126.05 98.2123Z" fill="#093D77"/>
<path d="M126.162 98.1046C126.162 98.1046 126.254 93.4766 129.062 89.8086C129.062 89.8006 126.828 97.1506 126.162 98.1046Z" fill="#093D77"/>
<path d="M125.712 98.3277C125.712 98.3277 126.838 93.7277 126.474 91.6577C126.11 89.5877 125.56 86.5017 125.742 85.3477C126.223 86.3877 126.649 87.4526 127.018 88.5377C127.472 89.9597 127.976 93.0517 127.046 95.4097C126.116 97.7677 126.334 97.8697 125.712 98.3277Z" fill="#14B6B8"/>
<path d="M125.988 98.38C125.988 98.38 130.254 92.73 130.61 89.958C130.61 89.958 126.858 93.89 125.988 98.38Z" fill="#14B6B8"/>
<path d="M125.602 98.1258C125.602 98.1258 122.478 93.2958 122.31 90.9258C122.31 90.9238 125.384 94.9258 125.602 98.1258Z" fill="#093D77"/>
<path d="M125.59 98.2001C125.59 98.2001 125.334 92.7421 126.114 91.2441C126.114 91.2501 126.468 97.1781 125.59 98.2001Z" fill="#093D77"/>
<path d="M122.188 96.3141C122.188 96.3141 117.17 87.2181 119.36 83.6621C119.36 83.6621 119.242 86.5801 119.98 89.0861C120.7 91.5021 121.674 93.6201 122.188 96.3141Z" fill="#093D77"/>
<path d="M122.5 96.5323C122.5 96.5323 123.074 93.2423 122.328 90.7323C121.496 87.9323 122.388 87.4062 122.388 87.4062C122.388 87.4062 121.288 88.3323 121.812 90.8203C122.3 93.1003 122.598 96.0603 122.5 96.5323Z" fill="#093D77"/>
<path d="M122.762 96.8198C122.762 96.8198 124.382 89.4478 122.89 83.5498C122.89 83.5498 123.126 88.1298 123.062 89.5618C123.002 90.9458 122.446 94.7658 122.762 96.8198Z" fill="#14B6B8"/>
<path d="M122.31 96.7845C122.31 96.7845 119.31 95.9505 118.58 94.4805C119.963 94.9952 121.231 95.7782 122.31 96.7845Z" fill="#093D77"/>
<path d="M122.196 96.7202C122.196 96.7202 121.538 92.8862 117.766 89.4482C117.766 89.4482 121.452 96.0762 122.196 96.7202Z" fill="#093D77"/>
<path d="M122.628 96.8142C122.628 96.8142 120.98 93.1662 121.062 91.2322C121.146 89.2102 122.03 83.7262 121.662 82.4102C121.662 82.4102 121.048 85.5482 120.762 87.0602C120.482 88.5402 119.656 92.6602 120.998 94.6602C122.2 96.4502 122.01 96.5682 122.628 96.8142Z" fill="#14B6B8"/>
<path d="M122.386 96.902C122.386 96.902 116.912 92.552 115.772 89.626C115.772 89.626 120.982 93.314 122.386 96.902Z" fill="#14B6B8"/>
<path d="M122.7 96.6383C122.7 96.6383 124.976 92.4203 124.94 90.4043C124.946 90.4003 122.558 94.0443 122.7 96.6383Z" fill="#093D77"/>
<path d="M122.724 96.7001C122.724 96.7001 122.354 92.1621 121.38 90.8301C121.38 90.8301 121.8 96.0401 122.724 96.7001Z" fill="#093D77"/>
<path d="M129.056 96.6777C129.056 96.6777 128.692 97.0097 128.812 97.2777C128.876 97.4237 129.126 98.0077 129.71 97.2497C130.294 96.4917 129.034 96.9177 129.056 96.6777Z" fill="#093D77"/>
<path d="M125.596 97.6465C125.596 97.6465 125.234 97.9785 125.354 98.2465C125.416 98.3925 125.668 98.9785 126.25 98.2185C126.832 97.4585 125.576 97.8865 125.596 97.6465Z" fill="#093D77"/>
<path d="M121.988 96.6777C122.052 96.8217 122.89 97.2777 122.91 96.7797C122.96 95.5757 121.868 96.3997 121.988 96.6777Z" fill="#093D77"/>
<path d="M17.1726 172V152.38H22.4226C24.4226 152.38 26.1326 152.74 27.5526 153.46C28.9726 154.18 30.0626 155.26 30.8226 156.7C31.5826 158.14 31.9626 159.94 31.9626 162.1C31.9626 164.26 31.5826 166.08 30.8226 167.56C30.0826 169.02 29.0126 170.13 27.6126 170.89C26.2126 171.63 24.5426 172 22.6026 172H17.1726ZM20.6526 169.18H22.1826C23.5026 169.18 24.6226 168.93 25.5426 168.43C26.4826 167.91 27.1926 167.13 27.6726 166.09C28.1526 165.05 28.3926 163.72 28.3926 162.1C28.3926 160.5 28.1526 159.19 27.6726 158.17C27.1926 157.15 26.4826 156.4 25.5426 155.92C24.6226 155.44 23.5026 155.2 22.1826 155.2H20.6526V169.18ZM41.9526 172.36C40.5726 172.36 39.3226 172.06 38.2026 171.46C37.1026 170.84 36.2326 169.96 35.5926 168.82C34.9526 167.66 34.6326 166.26 34.6326 164.62C34.6326 163.02 34.9626 161.65 35.6226 160.51C36.2826 159.35 37.1326 158.46 38.1726 157.84C39.2126 157.22 40.3126 156.91 41.4726 156.91C42.8126 156.91 43.9326 157.21 44.8326 157.81C45.7326 158.41 46.4026 159.24 46.8426 160.3C47.3026 161.34 47.5326 162.54 47.5326 163.9C47.5326 164.22 47.5126 164.53 47.4726 164.83C47.4526 165.13 47.4126 165.42 47.3526 165.7H37.2126V163.06H44.4726C44.4726 162 44.2326 161.17 43.7526 160.57C43.2726 159.95 42.5326 159.64 41.5326 159.64C40.9726 159.64 40.4226 159.79 39.8826 160.09C39.3626 160.39 38.9226 160.9 38.5626 161.62C38.2226 162.34 38.0526 163.34 38.0526 164.62C38.0526 165.78 38.2526 166.73 38.6526 167.47C39.0526 168.19 39.5826 168.73 40.2426 169.09C40.9026 169.43 41.6126 169.6 42.3726 169.6C43.0126 169.6 43.6126 169.51 44.1726 169.33C44.7526 169.15 45.2926 168.9 45.7926 168.58L46.9926 170.8C46.3126 171.28 45.5326 171.66 44.6526 171.94C43.7926 172.22 42.8926 172.36 41.9526 172.36ZM54.9377 172.36C53.9177 172.36 52.9077 172.17 51.9077 171.79C50.9277 171.41 50.0777 170.88 49.3577 170.2L50.8877 168.22C51.5477 168.76 52.2177 169.15 52.8977 169.39C53.5777 169.63 54.2977 169.75 55.0577 169.75C55.8577 169.75 56.4477 169.58 56.8277 169.24C57.2077 168.9 57.3977 168.48 57.3977 167.98C57.3977 167.58 57.2477 167.24 56.9477 166.96C56.6677 166.68 56.2977 166.44 55.8377 166.24C55.3777 166.04 54.8677 165.84 54.3077 165.64C53.5877 165.38 52.9177 165.07 52.2977 164.71C51.6777 164.33 51.1677 163.87 50.7677 163.33C50.3877 162.77 50.1977 162.1 50.1977 161.32C50.1977 160.02 50.6777 158.96 51.6377 158.14C52.5977 157.32 53.8977 156.91 55.5377 156.91C56.5377 156.91 57.4577 157.08 58.2977 157.42C59.1377 157.74 59.8577 158.16 60.4577 158.68L58.9277 160.63C58.4077 160.25 57.8777 159.97 57.3377 159.79C56.7977 159.61 56.2277 159.52 55.6277 159.52C54.8877 159.52 54.3377 159.68 53.9777 160C53.6177 160.32 53.4377 160.7 53.4377 161.14C53.4377 161.5 53.5477 161.81 53.7677 162.07C54.0077 162.31 54.3477 162.53 54.7877 162.73C55.2277 162.91 55.7577 163.1 56.3777 163.3C57.1377 163.56 57.8477 163.88 58.5077 164.26C59.1677 164.62 59.6877 165.09 60.0677 165.67C60.4677 166.23 60.6677 166.94 60.6677 167.8C60.6677 168.64 60.4477 169.41 60.0077 170.11C59.5677 170.79 58.9177 171.34 58.0577 171.76C57.2177 172.16 56.1777 172.36 54.9377 172.36ZM63.7476 172V157.27H67.1976V172H63.7476ZM65.4576 154.69C64.8576 154.69 64.3576 154.51 63.9576 154.15C63.5776 153.79 63.3876 153.31 63.3876 152.71C63.3876 152.11 63.5776 151.64 63.9576 151.3C64.3576 150.94 64.8576 150.76 65.4576 150.76C66.0776 150.76 66.5776 150.94 66.9576 151.3C67.3376 151.64 67.5276 152.11 67.5276 152.71C67.5276 153.31 67.3376 153.79 66.9576 154.15C66.5776 154.51 66.0776 154.69 65.4576 154.69ZM76.7292 178.51C75.5492 178.51 74.4992 178.37 73.5792 178.09C72.6592 177.81 71.9292 177.38 71.3892 176.8C70.8692 176.24 70.6092 175.53 70.6092 174.67C70.6092 174.05 70.7892 173.47 71.1492 172.93C71.5292 172.41 72.0492 171.94 72.7092 171.52V171.4C72.3492 171.16 72.0392 170.84 71.7792 170.44C71.5192 170.04 71.3892 169.54 71.3892 168.94C71.3892 168.38 71.5492 167.86 71.8692 167.38C72.2092 166.9 72.5892 166.51 73.0092 166.21V166.09C72.5092 165.71 72.0592 165.18 71.6592 164.5C71.2792 163.82 71.0892 163.05 71.0892 162.19C71.0892 161.07 71.3592 160.12 71.8992 159.34C72.4392 158.54 73.1492 157.94 74.0292 157.54C74.9092 157.12 75.8692 156.91 76.9092 156.91C77.3092 156.91 77.6992 156.94 78.0792 157C78.4592 157.06 78.7892 157.15 79.0692 157.27H84.3492V159.82H81.5892V159.94C81.8692 160.24 82.0892 160.59 82.2492 160.99C82.4092 161.37 82.4892 161.82 82.4892 162.34C82.4892 163.42 82.2392 164.33 81.7392 165.07C81.2392 165.81 80.5692 166.37 79.7292 166.75C78.8892 167.13 77.9492 167.32 76.9092 167.32C76.5892 167.32 76.2592 167.29 75.9192 167.23C75.5792 167.17 75.2392 167.07 74.8992 166.93C74.6992 167.13 74.5292 167.33 74.3892 167.53C74.2492 167.73 74.1792 168 74.1792 168.34C74.1792 168.76 74.3592 169.09 74.7192 169.33C75.0792 169.57 75.6992 169.69 76.5792 169.69H79.1892C80.9692 169.69 82.3092 169.98 83.2092 170.56C84.1292 171.12 84.5892 172.04 84.5892 173.32C84.5892 174.28 84.2692 175.15 83.6292 175.93C82.9892 176.73 82.0792 177.36 80.8992 177.82C79.7192 178.28 78.3292 178.51 76.7292 178.51ZM76.9092 165.16C77.3692 165.16 77.7892 165.05 78.1692 164.83C78.5692 164.59 78.8792 164.25 79.0992 163.81C79.3392 163.35 79.4592 162.81 79.4592 162.19C79.4592 161.25 79.2092 160.53 78.7092 160.03C78.2292 159.53 77.6292 159.28 76.9092 159.28C76.1892 159.28 75.5792 159.53 75.0792 160.03C74.5792 160.53 74.3292 161.25 74.3292 162.19C74.3292 162.81 74.4492 163.35 74.6892 163.81C74.9292 164.25 75.2392 164.59 75.6192 164.83C75.9992 165.05 76.4292 165.16 76.9092 165.16ZM77.2692 176.26C78.0492 176.26 78.7392 176.15 79.3392 175.93C79.9392 175.73 80.4092 175.44 80.7492 175.06C81.0892 174.7 81.2592 174.31 81.2592 173.89C81.2592 173.31 81.0292 172.92 80.5692 172.72C80.1292 172.52 79.4892 172.42 78.6492 172.42H76.6392C76.2392 172.42 75.8792 172.4 75.5592 172.36C75.2392 172.32 74.9292 172.27 74.6292 172.21C74.2492 172.51 73.9592 172.82 73.7592 173.14C73.5792 173.46 73.4892 173.8 73.4892 174.16C73.4892 174.82 73.8292 175.33 74.5092 175.69C75.1892 176.07 76.1092 176.26 77.2692 176.26ZM87.1851 172V157.27H90.0351L90.2751 159.25H90.3951C91.0551 158.61 91.7751 158.06 92.5551 157.6C93.3351 157.14 94.2251 156.91 95.2251 156.91C96.8051 156.91 97.9551 157.42 98.6751 158.44C99.3951 159.46 99.7551 160.9 99.7551 162.76V172H96.3051V163.21C96.3051 161.99 96.1251 161.13 95.7651 160.63C95.4051 160.13 94.8151 159.88 93.9951 159.88C93.3551 159.88 92.7851 160.04 92.2851 160.36C91.8051 160.66 91.2551 161.11 90.6351 161.71V172H87.1851ZM110.278 172V152.38H113.758V172H110.278ZM118.445 172V157.27H121.295L121.535 159.25H121.655C122.315 158.61 123.035 158.06 123.815 157.6C124.595 157.14 125.485 156.91 126.485 156.91C128.065 156.91 129.215 157.42 129.935 158.44C130.655 159.46 131.015 160.9 131.015 162.76V172H127.565V163.21C127.565 161.99 127.385 161.13 127.025 160.63C126.665 160.13 126.075 159.88 125.255 159.88C124.615 159.88 124.045 160.04 123.545 160.36C123.065 160.66 122.515 161.11 121.895 161.71V172H118.445ZM140.422 172.3C138.722 172.3 137.512 171.81 136.792 170.83C136.092 169.83 135.742 168.54 135.742 166.96V160H133.642V157.42L135.922 157.27L136.342 152.65H139.222V157.27H142.972V160H139.222V166.96C139.222 167.82 139.392 168.47 139.732 168.91C140.072 169.33 140.592 169.54 141.292 169.54C141.552 169.54 141.812 169.52 142.072 169.48C142.332 169.44 142.582 169.36 142.822 169.24L143.452 171.67C143.072 171.85 142.622 172 142.102 172.12C141.582 172.24 141.022 172.3 140.422 172.3ZM151.933 172.36C150.553 172.36 149.303 172.06 148.183 171.46C147.083 170.84 146.213 169.96 145.573 168.82C144.933 167.66 144.613 166.26 144.613 164.62C144.613 163.02 144.943 161.65 145.603 160.51C146.263 159.35 147.113 158.46 148.153 157.84C149.193 157.22 150.293 156.91 151.453 156.91C152.793 156.91 153.913 157.21 154.813 157.81C155.713 158.41 156.383 159.24 156.823 160.3C157.283 161.34 157.513 162.54 157.513 163.9C157.513 164.22 157.493 164.53 157.453 164.83C157.433 165.13 157.393 165.42 157.333 165.7H147.193V163.06H154.453C154.453 162 154.213 161.17 153.733 160.57C153.253 159.95 152.513 159.64 151.513 159.64C150.953 159.64 150.403 159.79 149.863 160.09C149.343 160.39 148.903 160.9 148.543 161.62C148.203 162.34 148.033 163.34 148.033 164.62C148.033 165.78 148.233 166.73 148.633 167.47C149.033 168.19 149.563 168.73 150.223 169.09C150.883 169.43 151.593 169.6 152.353 169.6C152.993 169.6 153.593 169.51 154.153 169.33C154.733 169.15 155.273 168.9 155.773 168.58L156.973 170.8C156.293 171.28 155.513 171.66 154.633 171.94C153.773 172.22 152.873 172.36 151.933 172.36ZM160.808 172V157.27H163.658L163.898 159.88H164.018C164.538 158.92 165.158 158.19 165.878 157.69C166.618 157.17 167.388 156.91 168.188 156.91C168.568 156.91 168.888 156.93 169.148 156.97C169.408 157.01 169.648 157.09 169.868 157.21L169.178 160.15C168.938 160.09 168.718 160.05 168.518 160.03C168.318 159.99 168.058 159.97 167.738 159.97C167.158 159.97 166.548 160.2 165.908 160.66C165.268 161.1 164.718 161.88 164.258 163V172H160.808ZM172 172V157.27H175.45V172H172ZM173.71 154.69C173.11 154.69 172.61 154.51 172.21 154.15C171.83 153.79 171.64 153.31 171.64 152.71C171.64 152.11 171.83 151.64 172.21 151.3C172.61 150.94 173.11 150.76 173.71 150.76C174.33 150.76 174.83 150.94 175.21 151.3C175.59 151.64 175.78 152.11 175.78 152.71C175.78 153.31 175.59 153.79 175.21 154.15C174.83 154.51 174.33 154.69 173.71 154.69ZM185.881 172.36C184.661 172.36 183.521 172.06 182.461 171.46C181.401 170.84 180.541 169.96 179.881 168.82C179.221 167.66 178.891 166.27 178.891 164.65C178.891 163.01 179.221 161.62 179.881 160.48C180.541 159.32 181.401 158.44 182.461 157.84C183.521 157.22 184.661 156.91 185.881 156.91C187.121 156.91 188.271 157.22 189.331 157.84C190.391 158.44 191.251 159.32 191.911 160.48C192.571 161.62 192.901 163.01 192.901 164.65C192.901 166.27 192.571 167.66 191.911 168.82C191.251 169.96 190.391 170.84 189.331 171.46C188.271 172.06 187.121 172.36 185.881 172.36ZM185.881 169.54C186.601 169.54 187.221 169.34 187.741 168.94C188.261 168.54 188.661 167.97 188.941 167.23C189.221 166.49 189.361 165.63 189.361 164.65C189.361 163.67 189.221 162.81 188.941 162.07C188.661 161.33 188.261 160.76 187.741 160.36C187.221 159.94 186.601 159.73 185.881 159.73C185.161 159.73 184.541 159.94 184.021 160.36C183.521 160.76 183.131 161.33 182.851 162.07C182.571 162.81 182.431 163.67 182.431 164.65C182.431 165.63 182.571 166.49 182.851 167.23C183.131 167.97 183.521 168.54 184.021 168.94C184.541 169.34 185.161 169.54 185.881 169.54ZM196.316 172V157.27H199.166L199.406 159.88H199.526C200.046 158.92 200.666 158.19 201.386 157.69C202.126 157.17 202.896 156.91 203.696 156.91C204.076 156.91 204.396 156.93 204.656 156.97C204.916 157.01 205.156 157.09 205.376 157.21L204.686 160.15C204.446 160.09 204.226 160.05 204.026 160.03C203.826 159.99 203.566 159.97 203.246 159.97C202.666 159.97 202.056 160.2 201.416 160.66C200.776 161.1 200.226 161.88 199.766 163V172H196.316Z" fill="black"/>
<defs>
<linearGradient id="paint0_linear_5708_10600" x1="93.8538" y1="67.5166" x2="93.2598" y2="67.5166" gradientUnits="userSpaceOnUse">
<stop stop-color="#807F7E"/>
<stop offset="1" stop-color="#86857D"/>
</linearGradient>
<linearGradient id="paint1_linear_5708_10600" x1="94.0361" y1="69.986" x2="93.0781" y2="69.986" gradientUnits="userSpaceOnUse">
<stop stop-color="#3C3B39"/>
<stop offset="0.16" stop-color="#3A3937"/>
<stop offset="0.19" stop-color="#41403E"/>
<stop offset="0.24" stop-color="#545352"/>
<stop offset="0.29" stop-color="#737271"/>
<stop offset="0.3" stop-color="#706F6E"/>
<stop offset="0.39" stop-color="#4D4C4B"/>
<stop offset="0.46" stop-color="#383735"/>
<stop offset="0.5" stop-color="#302F2D"/>
<stop offset="0.71" stop-color="#262522"/>
<stop offset="0.89" stop-color="#383835"/>
<stop offset="0.95" stop-color="#555552"/>
<stop offset="1" stop-color="#676765"/>
</linearGradient>
<radialGradient id="paint2_radial_5708_10600" cx="0" cy="0" r="1" gradientUnits="userSpaceOnUse" gradientTransform="translate(93.6158 68.118) scale(1.77)">
<stop offset="0.04" stop-color="#504F4D"/>
<stop offset="0.19" stop-color="#444341"/>
<stop offset="0.61" stop-color="#262522"/>
<stop offset="1" stop-color="#302F2D"/>
</radialGradient>
<radialGradient id="paint3_radial_5708_10600" cx="0" cy="0" r="1" gradientUnits="userSpaceOnUse" gradientTransform="translate(93.5649 64.5845) scale(1.81792 2.392)">
<stop offset="0.49" stop-color="white"/>
<stop offset="0.6" stop-color="#FFFFFA"/>
<stop offset="0.74" stop-color="#FFFFEA"/>
<stop offset="0.9" stop-color="#FFFFD0"/>
<stop offset="1" stop-color="#FFFFBC"/>
</radialGradient>
</defs>
</svg>
