<svg width="220" height="220" viewBox="0 0 220 220" fill="none" xmlns="http://www.w3.org/2000/svg">
<rect x="0.5" y="0.5" width="219" height="219" rx="19.5" fill="white" stroke="#093D77"/>
<path opacity="0.1" d="M89.7602 88.9179V85.6799C96.9102 82.6039 102.326 70.1379 102.66 54.9199H86.2002V118.058H96.0202C95.8422 104.782 93.3002 93.6119 89.7602 88.9179Z" fill="#000D20"/>
<path d="M85.2358 54.7998V86.2218H85.3198C94.1198 86.2218 101.304 72.2858 101.692 54.8038L85.2358 54.7998Z" fill="#14B6B8"/>
<path d="M85.2358 117.94H95.0538C94.8218 100.518 90.5198 86.6204 85.2358 86.5244V117.94Z" fill="#14B6B8"/>
<path d="M85.2358 54.7998V86.2218H85.3098C92.9418 86.2218 99.1698 72.2858 99.5098 54.8038L85.2358 54.7998Z" fill="#093D77"/>
<path d="M85.2358 117.94H93.7498C93.5498 100.518 89.8178 86.6204 85.2358 86.5244V117.94Z" fill="#093D77"/>
<path d="M85.2358 54.7998V86.2218H85.2898C91.0198 86.2218 95.6898 72.2858 95.9458 54.8038L85.2358 54.7998Z" fill="#14B6B8"/>
<path d="M85.2358 117.94H91.6258C91.4738 100.518 88.6738 86.6204 85.2358 86.5244V117.94Z" fill="#14B6B8"/>
<path d="M85.2358 85.3721V88.3201L88.7978 88.7961V85.4801L85.2358 85.3721Z" fill="#093D77"/>
<path d="M103.612 55.7083C104.099 55.7083 104.494 55.3135 104.494 54.8263C104.494 54.3392 104.099 53.9443 103.612 53.9443C103.125 53.9443 102.73 54.3392 102.73 54.8263C102.73 55.3135 103.125 55.7083 103.612 55.7083Z" fill="#FFB726"/>
<path d="M103.682 54.7578H85.2261" stroke="#FFB726" stroke-width="4" stroke-miterlimit="10"/>
<path d="M88.626 85.5176V94.4216" stroke="#FFB726" stroke-width="2" stroke-miterlimit="10"/>
<path d="M89 95.1377C89 94.4937 88.836 93.9717 88.636 93.9717C88.436 93.9717 88.272 94.4937 88.27 95.1377H89Z" fill="#093D77"/>
<path opacity="0.1" d="M130.4 88.9179V85.6799H130.454C123.304 82.6039 117.89 70.1379 117.554 54.9199H133.954V118.058H124.184C124.362 104.782 126.904 93.6119 130.444 88.9179H130.4Z" fill="#000D20"/>
<path d="M134.774 54.7998V86.2218H134.688C125.888 86.2218 118.704 72.2858 118.316 54.8038L134.774 54.7998Z" fill="#14B6B8"/>
<path d="M134.774 117.94H124.954C125.188 100.518 129.49 86.6204 134.774 86.5244V117.94Z" fill="#14B6B8"/>
<path d="M134.774 54.7998V86.2218H134.7C127.066 86.2218 120.838 72.2858 120.5 54.8038L134.774 54.7998Z" fill="#093D77"/>
<path d="M134.774 117.94H126.258C126.458 100.518 130.192 86.6204 134.774 86.5244V117.94Z" fill="#093D77"/>
<path d="M134.774 54.7998V86.2218H134.718C128.99 86.2218 124.318 72.2858 124.064 54.8038L134.774 54.7998Z" fill="#14B6B8"/>
<path d="M134.774 117.94H128.374C128.526 100.518 131.326 86.6204 134.774 86.5244V117.94Z" fill="#14B6B8"/>
<path d="M134.774 85.3721V88.3201L131.212 88.7961V85.4801L134.774 85.3721Z" fill="#093D77"/>
<path d="M116.378 55.7083C116.865 55.7083 117.26 55.3135 117.26 54.8263C117.26 54.3392 116.865 53.9443 116.378 53.9443C115.891 53.9443 115.496 54.3392 115.496 54.8263C115.496 55.3135 115.891 55.7083 116.378 55.7083Z" fill="#FFB726"/>
<path d="M116.31 54.7578H134.764" stroke="#FFB726" stroke-width="4" stroke-miterlimit="10"/>
<path d="M131.364 85.5176V94.4216" stroke="#FFC015" stroke-width="3" stroke-miterlimit="10"/>
<path d="M131 95.1377C131 94.4937 131.164 93.9717 131.366 93.9717C131.568 93.9717 131.728 94.4937 131.73 95.1377H131Z" fill="#093D77"/>
<path d="M73.1465 172.36C71.3865 172.36 69.8065 171.97 68.4065 171.19C67.0065 170.41 65.9065 169.27 65.1065 167.77C64.3065 166.25 63.9065 164.41 63.9065 162.25C63.9065 160.65 64.1365 159.22 64.5965 157.96C65.0765 156.7 65.7365 155.63 66.5765 154.75C67.4365 153.85 68.4265 153.17 69.5465 152.71C70.6665 152.25 71.8765 152.02 73.1765 152.02C74.5765 152.02 75.7665 152.27 76.7465 152.77C77.7265 153.27 78.5165 153.85 79.1165 154.51L77.2565 156.64C76.7765 156.16 76.2265 155.78 75.6065 155.5C74.9865 155.2 74.2165 155.05 73.2965 155.05C72.1365 155.05 71.1165 155.34 70.2365 155.92C69.3565 156.48 68.6765 157.29 68.1965 158.35C67.7165 159.41 67.4765 160.68 67.4765 162.16C67.4765 163.64 67.7065 164.92 68.1665 166C68.6265 167.08 69.2965 167.91 70.1765 168.49C71.0765 169.05 72.1765 169.33 73.4765 169.33C74.0365 169.33 74.5665 169.26 75.0665 169.12C75.5665 168.96 75.9765 168.74 76.2965 168.46V164.23H72.5765V161.38H79.4165V170.02C78.7565 170.68 77.8765 171.24 76.7765 171.7C75.6965 172.14 74.4865 172.36 73.1465 172.36ZM89.4944 172.36C88.2744 172.36 87.1344 172.06 86.0744 171.46C85.0144 170.84 84.1544 169.96 83.4944 168.82C82.8344 167.66 82.5044 166.27 82.5044 164.65C82.5044 163.01 82.8344 161.62 83.4944 160.48C84.1544 159.32 85.0144 158.44 86.0744 157.84C87.1344 157.22 88.2744 156.91 89.4944 156.91C90.7344 156.91 91.8844 157.22 92.9444 157.84C94.0044 158.44 94.8644 159.32 95.5244 160.48C96.1844 161.62 96.5144 163.01 96.5144 164.65C96.5144 166.27 96.1844 167.66 95.5244 168.82C94.8644 169.96 94.0044 170.84 92.9444 171.46C91.8844 172.06 90.7344 172.36 89.4944 172.36ZM89.4944 169.54C90.2144 169.54 90.8344 169.34 91.3544 168.94C91.8744 168.54 92.2744 167.97 92.5544 167.23C92.8344 166.49 92.9744 165.63 92.9744 164.65C92.9744 163.67 92.8344 162.81 92.5544 162.07C92.2744 161.33 91.8744 160.76 91.3544 160.36C90.8344 159.94 90.2144 159.73 89.4944 159.73C88.7744 159.73 88.1544 159.94 87.6344 160.36C87.1344 160.76 86.7444 161.33 86.4644 162.07C86.1844 162.81 86.0444 163.67 86.0444 164.65C86.0444 165.63 86.1844 166.49 86.4644 167.23C86.7444 167.97 87.1344 168.54 87.6344 168.94C88.1544 169.34 88.7744 169.54 89.4944 169.54ZM99.9293 172V157.27H102.779L103.019 159.88H103.139C103.659 158.92 104.279 158.19 104.999 157.69C105.739 157.17 106.509 156.91 107.309 156.91C107.689 156.91 108.009 156.93 108.269 156.97C108.529 157.01 108.769 157.09 108.989 157.21L108.299 160.15C108.059 160.09 107.839 160.05 107.639 160.03C107.439 159.99 107.179 159.97 106.859 159.97C106.279 159.97 105.669 160.2 105.029 160.66C104.389 161.1 103.839 161.88 103.379 163V172H99.9293ZM115.988 172.36C114.148 172.36 112.678 171.68 111.578 170.32C110.478 168.96 109.928 167.07 109.928 164.65C109.928 163.05 110.218 161.67 110.798 160.51C111.398 159.35 112.168 158.46 113.108 157.84C114.068 157.22 115.088 156.91 116.168 156.91C117.008 156.91 117.718 157.05 118.298 157.33C118.898 157.61 119.478 158.01 120.038 158.53L119.918 156.16V150.82H123.368V172H120.518L120.278 170.41H120.158C119.618 170.95 118.988 171.41 118.268 171.79C117.548 172.17 116.788 172.36 115.988 172.36ZM116.828 169.51C117.408 169.51 117.948 169.38 118.448 169.12C118.948 168.84 119.438 168.42 119.918 167.86V160.99C119.418 160.53 118.918 160.21 118.418 160.03C117.918 159.85 117.418 159.76 116.918 159.76C116.278 159.76 115.698 159.95 115.178 160.33C114.678 160.71 114.268 161.26 113.948 161.98C113.648 162.7 113.498 163.58 113.498 164.62C113.498 166.2 113.788 167.41 114.368 168.25C114.948 169.09 115.768 169.51 116.828 169.51ZM134.091 172.36C132.711 172.36 131.461 172.06 130.341 171.46C129.241 170.84 128.371 169.96 127.731 168.82C127.091 167.66 126.771 166.26 126.771 164.62C126.771 163.02 127.101 161.65 127.761 160.51C128.421 159.35 129.271 158.46 130.311 157.84C131.351 157.22 132.451 156.91 133.611 156.91C134.951 156.91 136.071 157.21 136.971 157.81C137.871 158.41 138.541 159.24 138.981 160.3C139.441 161.34 139.671 162.54 139.671 163.9C139.671 164.22 139.651 164.53 139.611 164.83C139.591 165.13 139.551 165.42 139.491 165.7H129.351V163.06H136.611C136.611 162 136.371 161.17 135.891 160.57C135.411 159.95 134.671 159.64 133.671 159.64C133.111 159.64 132.561 159.79 132.021 160.09C131.501 160.39 131.061 160.9 130.701 161.62C130.361 162.34 130.191 163.34 130.191 164.62C130.191 165.78 130.391 166.73 130.791 167.47C131.191 168.19 131.721 168.73 132.381 169.09C133.041 169.43 133.751 169.6 134.511 169.6C135.151 169.6 135.751 169.51 136.311 169.33C136.891 169.15 137.431 168.9 137.931 168.58L139.131 170.8C138.451 171.28 137.671 171.66 136.791 171.94C135.931 172.22 135.031 172.36 134.091 172.36ZM142.966 172V157.27H145.816L146.056 159.25H146.176C146.836 158.61 147.556 158.06 148.336 157.6C149.116 157.14 150.006 156.91 151.006 156.91C152.586 156.91 153.736 157.42 154.456 158.44C155.176 159.46 155.536 160.9 155.536 162.76V172H152.086V163.21C152.086 161.99 151.906 161.13 151.546 160.63C151.186 160.13 150.596 159.88 149.776 159.88C149.136 159.88 148.566 160.04 148.066 160.36C147.586 160.66 147.036 161.11 146.416 161.71V172H142.966Z" fill="black"/>
<path opacity="0.1" d="M89.7602 88.9179V85.6799C96.9102 82.6039 102.326 70.1379 102.66 54.9199H86.2002V118.058H96.0202C95.8422 104.782 93.3002 93.6119 89.7602 88.9179Z" fill="#000D20"/>
<path d="M85.2358 54.7998V86.2218H85.3198C94.1198 86.2218 101.304 72.2858 101.692 54.8038L85.2358 54.7998Z" fill="#093D77"/>
<path d="M85.2358 117.94H95.0538C94.8218 100.518 90.5198 86.6204 85.2358 86.5244V117.94Z" fill="#093D77"/>
<path d="M85.2358 54.7998V86.2218H85.3098C92.9418 86.2218 99.1698 72.2858 99.5098 54.8038L85.2358 54.7998Z" fill="#14B6B8"/>
<path d="M85.2358 117.94H93.7498C93.5498 100.518 89.8178 86.6204 85.2358 86.5244V117.94Z" fill="#14B6B8"/>
<path d="M85.2358 54.7998V86.2218H85.2898C91.0198 86.2218 95.6898 72.2858 95.9458 54.8038L85.2358 54.7998Z" fill="#093D77"/>
<path d="M85.2358 117.94H91.6258C91.4738 100.518 88.6738 86.6204 85.2358 86.5244V117.94Z" fill="#093D77"/>
<path d="M85.2358 85.3721V88.3201L88.7978 88.7961V85.4801L85.2358 85.3721Z" fill="#14B6B8"/>
<path d="M103.612 55.7083C104.099 55.7083 104.494 55.3135 104.494 54.8263C104.494 54.3392 104.099 53.9443 103.612 53.9443C103.125 53.9443 102.73 54.3392 102.73 54.8263C102.73 55.3135 103.125 55.7083 103.612 55.7083Z" fill="#FFB726"/>
<path d="M103.682 54.7578H85.2261" stroke="#FFB726" stroke-width="4" stroke-miterlimit="10"/>
<path d="M88.626 85.5176V94.4216" stroke="#FFB726" stroke-width="2" stroke-miterlimit="10"/>
<path d="M89 95.1377C89 94.4937 88.836 93.9717 88.636 93.9717C88.436 93.9717 88.272 94.4937 88.27 95.1377H89Z" fill="#14B6B8"/>
<path opacity="0.1" d="M130.4 88.9179V85.6799H130.454C123.304 82.6039 117.89 70.1379 117.554 54.9199H133.954V118.058H124.184C124.362 104.782 126.904 93.6119 130.444 88.9179H130.4Z" fill="#000D20"/>
<path d="M134.774 54.7998V86.2218H134.688C125.888 86.2218 118.704 72.2858 118.316 54.8038L134.774 54.7998Z" fill="#093D77"/>
<path d="M134.774 117.94H124.954C125.188 100.518 129.49 86.6204 134.774 86.5244V117.94Z" fill="#093D77"/>
<path d="M134.774 54.7998V86.2218H134.7C127.066 86.2218 120.838 72.2858 120.5 54.8038L134.774 54.7998Z" fill="#14B6B8"/>
<path d="M134.774 117.94H126.258C126.458 100.518 130.192 86.6204 134.774 86.5244V117.94Z" fill="#14B6B8"/>
<path d="M134.774 54.7998V86.2218H134.718C128.99 86.2218 124.318 72.2858 124.064 54.8038L134.774 54.7998Z" fill="#093D77"/>
<path d="M134.774 117.94H128.374C128.526 100.518 131.326 86.6204 134.774 86.5244V117.94Z" fill="#093D77"/>
<path d="M134.774 85.3721V88.3201L131.212 88.7961V85.4801L134.774 85.3721Z" fill="#14B6B8"/>
<path d="M116.378 55.7083C116.865 55.7083 117.26 55.3135 117.26 54.8263C117.26 54.3392 116.865 53.9443 116.378 53.9443C115.891 53.9443 115.496 54.3392 115.496 54.8263C115.496 55.3135 115.891 55.7083 116.378 55.7083Z" fill="#FFB726"/>
<path d="M116.31 54.7578H134.764" stroke="#FFB726" stroke-width="4" stroke-miterlimit="10"/>
<path d="M131.364 85.5176V94.4216" stroke="#FFC015" stroke-width="3" stroke-miterlimit="10"/>
<path d="M131 95.1377C131 94.4937 131.164 93.9717 131.366 93.9717C131.568 93.9717 131.728 94.4937 131.73 95.1377H131Z" fill="#14B6B8"/>
</svg>
