<svg width="220" height="220" viewBox="0 0 220 220" fill="none" xmlns="http://www.w3.org/2000/svg">
<rect x="0.5" y="0.5" width="219" height="219" rx="19.5" fill="white" stroke="#093D77"/>
<path d="M14.6824 172V152.38H18.1624V160.27H26.1124V152.38H29.5924V172H26.1124V163.3H18.1624V172H14.6824ZM40.305 172.36C39.085 172.36 37.945 172.06 36.885 171.46C35.825 170.84 34.965 169.96 34.305 168.82C33.645 167.66 33.315 166.27 33.315 164.65C33.315 163.01 33.645 161.62 34.305 160.48C34.965 159.32 35.825 158.44 36.885 157.84C37.945 157.22 39.085 156.91 40.305 156.91C41.545 156.91 42.695 157.22 43.755 157.84C44.815 158.44 45.675 159.32 46.335 160.48C46.995 161.62 47.325 163.01 47.325 164.65C47.325 166.27 46.995 167.66 46.335 168.82C45.675 169.96 44.815 170.84 43.755 171.46C42.695 172.06 41.545 172.36 40.305 172.36ZM40.305 169.54C41.025 169.54 41.645 169.34 42.165 168.94C42.685 168.54 43.085 167.97 43.365 167.23C43.645 166.49 43.785 165.63 43.785 164.65C43.785 163.67 43.645 162.81 43.365 162.07C43.085 161.33 42.685 160.76 42.165 160.36C41.645 159.94 41.025 159.73 40.305 159.73C39.585 159.73 38.965 159.94 38.445 160.36C37.945 160.76 37.555 161.33 37.275 162.07C36.995 162.81 36.855 163.67 36.855 164.65C36.855 165.63 36.995 166.49 37.275 167.23C37.555 167.97 37.945 168.54 38.445 168.94C38.965 169.34 39.585 169.54 40.305 169.54ZM50.7398 172V157.27H53.5898L53.8298 159.28H53.9498C54.5698 158.62 55.2398 158.06 55.9598 157.6C56.6998 157.14 57.5298 156.91 58.4498 156.91C59.5498 156.91 60.4198 157.14 61.0598 157.6C61.6998 158.06 62.1898 158.71 62.5298 159.55C63.2298 158.79 63.9598 158.16 64.7198 157.66C65.4798 157.16 66.3298 156.91 67.2698 156.91C68.8298 156.91 69.9798 157.42 70.7198 158.44C71.4598 159.46 71.8298 160.9 71.8298 162.76V172H68.3498V163.21C68.3498 161.99 68.1698 161.13 67.8098 160.63C67.4498 160.13 66.8798 159.88 66.0998 159.88C65.6198 159.88 65.1298 160.03 64.6298 160.33C64.1298 160.63 63.5898 161.09 63.0098 161.71V172H59.5598V163.21C59.5598 161.99 59.3698 161.13 58.9898 160.63C58.6298 160.13 58.0598 159.88 57.2798 159.88C56.3598 159.88 55.3298 160.49 54.1898 161.71V172H50.7398ZM82.353 172.36C80.973 172.36 79.723 172.06 78.603 171.46C77.503 170.84 76.633 169.96 75.993 168.82C75.353 167.66 75.033 166.26 75.033 164.62C75.033 163.02 75.363 161.65 76.023 160.51C76.683 159.35 77.533 158.46 78.573 157.84C79.613 157.22 80.713 156.91 81.873 156.91C83.213 156.91 84.333 157.21 85.233 157.81C86.133 158.41 86.803 159.24 87.243 160.3C87.703 161.34 87.933 162.54 87.933 163.9C87.933 164.22 87.913 164.53 87.873 164.83C87.853 165.13 87.813 165.42 87.753 165.7H77.613V163.06H84.873C84.873 162 84.633 161.17 84.153 160.57C83.673 159.95 82.933 159.64 81.933 159.64C81.373 159.64 80.823 159.79 80.283 160.09C79.763 160.39 79.323 160.9 78.963 161.62C78.623 162.34 78.453 163.34 78.453 164.62C78.453 165.78 78.653 166.73 79.053 167.47C79.453 168.19 79.983 168.73 80.643 169.09C81.303 169.43 82.013 169.6 82.773 169.6C83.413 169.6 84.013 169.51 84.573 169.33C85.153 169.15 85.693 168.9 86.193 168.58L87.393 170.8C86.713 171.28 85.933 171.66 85.053 171.94C84.193 172.22 83.293 172.36 82.353 172.36ZM105.424 172.36C103.764 172.36 102.254 171.97 100.894 171.19C99.5539 170.41 98.4839 169.27 97.6839 167.77C96.9039 166.25 96.5139 164.41 96.5139 162.25C96.5139 160.65 96.7439 159.22 97.2039 157.96C97.6639 156.68 98.3039 155.6 99.1239 154.72C99.9639 153.84 100.924 153.17 102.004 152.71C103.084 152.25 104.244 152.02 105.484 152.02C106.724 152.02 107.824 152.27 108.784 152.77C109.744 153.25 110.534 153.83 111.154 154.51L109.294 156.64C108.794 156.12 108.234 155.73 107.614 155.47C107.014 155.19 106.334 155.05 105.574 155.05C104.534 155.05 103.594 155.34 102.754 155.92C101.934 156.5 101.284 157.32 100.804 158.38C100.324 159.44 100.084 160.7 100.084 162.16C100.084 163.66 100.314 164.95 100.774 166.03C101.234 167.09 101.884 167.91 102.724 168.49C103.564 169.05 104.544 169.33 105.664 169.33C106.504 169.33 107.254 169.16 107.914 168.82C108.574 168.48 109.174 168.03 109.714 167.47L111.484 169.54C110.684 170.46 109.784 171.16 108.784 171.64C107.784 172.12 106.664 172.36 105.424 172.36ZM117.879 172.3C117.059 172.3 116.399 172.14 115.899 171.82C115.419 171.48 115.069 171 114.849 170.38C114.629 169.76 114.519 169.02 114.519 168.16V150.82H117.969V168.34C117.969 168.78 118.049 169.08 118.209 169.24C118.369 169.4 118.549 169.48 118.749 169.48C118.829 169.48 118.899 169.48 118.959 169.48C119.039 169.46 119.139 169.44 119.259 169.42L119.709 172C119.509 172.08 119.249 172.15 118.929 172.21C118.629 172.27 118.279 172.3 117.879 172.3ZM128.994 172.36C127.614 172.36 126.364 172.06 125.244 171.46C124.144 170.84 123.274 169.96 122.634 168.82C121.994 167.66 121.674 166.26 121.674 164.62C121.674 163.02 122.004 161.65 122.664 160.51C123.324 159.35 124.174 158.46 125.214 157.84C126.254 157.22 127.354 156.91 128.514 156.91C129.854 156.91 130.974 157.21 131.874 157.81C132.774 158.41 133.444 159.24 133.884 160.3C134.344 161.34 134.574 162.54 134.574 163.9C134.574 164.22 134.554 164.53 134.514 164.83C134.494 165.13 134.454 165.42 134.394 165.7H124.254V163.06H131.514C131.514 162 131.274 161.17 130.794 160.57C130.314 159.95 129.574 159.64 128.574 159.64C128.014 159.64 127.464 159.79 126.924 160.09C126.404 160.39 125.964 160.9 125.604 161.62C125.264 162.34 125.094 163.34 125.094 164.62C125.094 165.78 125.294 166.73 125.694 167.47C126.094 168.19 126.624 168.73 127.284 169.09C127.944 169.43 128.654 169.6 129.414 169.6C130.054 169.6 130.654 169.51 131.214 169.33C131.794 169.15 132.334 168.9 132.834 168.58L134.034 170.8C133.354 171.28 132.574 171.66 131.694 171.94C130.834 172.22 129.934 172.36 128.994 172.36ZM141.087 172.36C140.227 172.36 139.467 172.18 138.807 171.82C138.147 171.46 137.627 170.96 137.247 170.32C136.887 169.66 136.707 168.9 136.707 168.04C136.707 166.38 137.397 165.13 138.777 164.29C140.177 163.43 142.387 162.84 145.407 162.52C145.387 162.02 145.287 161.56 145.107 161.14C144.947 160.72 144.667 160.39 144.267 160.15C143.887 159.89 143.367 159.76 142.707 159.76C141.987 159.76 141.277 159.89 140.577 160.15C139.897 160.41 139.227 160.74 138.567 161.14L137.307 158.8C137.847 158.46 138.437 158.15 139.077 157.87C139.717 157.57 140.397 157.34 141.117 157.18C141.837 157 142.587 156.91 143.367 156.91C144.587 156.91 145.597 157.16 146.397 157.66C147.217 158.14 147.827 158.86 148.227 159.82C148.647 160.76 148.857 161.92 148.857 163.3V172H146.007L145.767 170.38H145.647C144.967 170.94 144.257 171.41 143.517 171.79C142.777 172.17 141.967 172.36 141.087 172.36ZM142.167 169.54C142.767 169.54 143.317 169.42 143.817 169.18C144.337 168.92 144.867 168.54 145.407 168.04V164.92C144.067 165.08 143.007 165.29 142.227 165.55C141.447 165.81 140.887 166.13 140.547 166.51C140.227 166.87 140.067 167.3 140.067 167.8C140.067 168.42 140.267 168.87 140.667 169.15C141.067 169.41 141.567 169.54 142.167 169.54ZM152.986 172V157.27H155.836L156.076 159.25H156.196C156.856 158.61 157.576 158.06 158.356 157.6C159.136 157.14 160.026 156.91 161.026 156.91C162.606 156.91 163.756 157.42 164.476 158.44C165.196 159.46 165.556 160.9 165.556 162.76V172H162.106V163.21C162.106 161.99 161.926 161.13 161.566 160.63C161.206 160.13 160.616 159.88 159.796 159.88C159.156 159.88 158.586 160.04 158.086 160.36C157.606 160.66 157.056 161.11 156.436 161.71V172H152.986ZM169.773 172V157.27H173.223V172H169.773ZM171.483 154.69C170.883 154.69 170.383 154.51 169.983 154.15C169.603 153.79 169.413 153.31 169.413 152.71C169.413 152.11 169.603 151.64 169.983 151.3C170.383 150.94 170.883 150.76 171.483 150.76C172.103 150.76 172.603 150.94 172.983 151.3C173.363 151.64 173.553 152.11 173.553 152.71C173.553 153.31 173.363 153.79 172.983 154.15C172.603 154.51 172.103 154.69 171.483 154.69ZM177.625 172V157.27H180.475L180.715 159.25H180.835C181.495 158.61 182.215 158.06 182.995 157.6C183.775 157.14 184.665 156.91 185.665 156.91C187.245 156.91 188.395 157.42 189.115 158.44C189.835 159.46 190.195 160.9 190.195 162.76V172H186.745V163.21C186.745 161.99 186.565 161.13 186.205 160.63C185.845 160.13 185.255 159.88 184.435 159.88C183.795 159.88 183.225 160.04 182.725 160.36C182.245 160.66 181.695 161.11 181.075 161.71V172H177.625ZM199.542 178.51C198.362 178.51 197.312 178.37 196.392 178.09C195.472 177.81 194.742 177.38 194.202 176.8C193.682 176.24 193.422 175.53 193.422 174.67C193.422 174.05 193.602 173.47 193.962 172.93C194.342 172.41 194.862 171.94 195.522 171.52V171.4C195.162 171.16 194.852 170.84 194.592 170.44C194.332 170.04 194.202 169.54 194.202 168.94C194.202 168.38 194.362 167.86 194.682 167.38C195.022 166.9 195.402 166.51 195.822 166.21V166.09C195.322 165.71 194.872 165.18 194.472 164.5C194.092 163.82 193.902 163.05 193.902 162.19C193.902 161.07 194.172 160.12 194.712 159.34C195.252 158.54 195.962 157.94 196.842 157.54C197.722 157.12 198.682 156.91 199.722 156.91C200.122 156.91 200.512 156.94 200.892 157C201.272 157.06 201.602 157.15 201.882 157.27H207.162V159.82H204.402V159.94C204.682 160.24 204.902 160.59 205.062 160.99C205.222 161.37 205.302 161.82 205.302 162.34C205.302 163.42 205.052 164.33 204.552 165.07C204.052 165.81 203.382 166.37 202.542 166.75C201.702 167.13 200.762 167.32 199.722 167.32C199.402 167.32 199.072 167.29 198.732 167.23C198.392 167.17 198.052 167.07 197.712 166.93C197.512 167.13 197.342 167.33 197.202 167.53C197.062 167.73 196.992 168 196.992 168.34C196.992 168.76 197.172 169.09 197.532 169.33C197.892 169.57 198.512 169.69 199.392 169.69H202.002C203.782 169.69 205.122 169.98 206.022 170.56C206.942 171.12 207.402 172.04 207.402 173.32C207.402 174.28 207.082 175.15 206.442 175.93C205.802 176.73 204.892 177.36 203.712 177.82C202.532 178.28 201.142 178.51 199.542 178.51ZM199.722 165.16C200.182 165.16 200.602 165.05 200.982 164.83C201.382 164.59 201.692 164.25 201.912 163.81C202.152 163.35 202.272 162.81 202.272 162.19C202.272 161.25 202.022 160.53 201.522 160.03C201.042 159.53 200.442 159.28 199.722 159.28C199.002 159.28 198.392 159.53 197.892 160.03C197.392 160.53 197.142 161.25 197.142 162.19C197.142 162.81 197.262 163.35 197.502 163.81C197.742 164.25 198.052 164.59 198.432 164.83C198.812 165.05 199.242 165.16 199.722 165.16ZM200.082 176.26C200.862 176.26 201.552 176.15 202.152 175.93C202.752 175.73 203.222 175.44 203.562 175.06C203.902 174.7 204.072 174.31 204.072 173.89C204.072 173.31 203.842 172.92 203.382 172.72C202.942 172.52 202.302 172.42 201.462 172.42H199.452C199.052 172.42 198.692 172.4 198.372 172.36C198.052 172.32 197.742 172.27 197.442 172.21C197.062 172.51 196.772 172.82 196.572 173.14C196.392 173.46 196.302 173.8 196.302 174.16C196.302 174.82 196.642 175.33 197.322 175.69C198.002 176.07 198.922 176.26 200.082 176.26Z" fill="black"/>
<path d="M119.94 63.6699H118.154V101.89H119.94V63.6699Z" fill="#093D77"/>
<path d="M120.366 101.89V95.7297C120.366 95.6056 120.317 95.4866 120.229 95.3988C120.141 95.311 120.022 95.2617 119.898 95.2617H118.2C118.076 95.2617 117.956 95.311 117.868 95.3987C117.78 95.4864 117.731 95.6054 117.73 95.7297V101.89H120.366Z" fill="#F5B400"/>
<path d="M119.788 55.0342H118.2C117.841 55.0352 117.498 55.1782 117.244 55.4319C116.99 55.6856 116.847 56.0294 116.846 56.3882V77.5182C116.847 77.877 116.99 78.2207 117.244 78.4744C117.498 78.7281 117.841 78.8711 118.2 78.8722H119.786C120.145 78.8706 120.488 78.7274 120.741 78.4737C120.994 78.2201 121.137 77.8766 121.138 77.5182V56.3882C121.137 56.0301 120.995 55.6869 120.742 55.4333C120.489 55.1797 120.146 55.0363 119.788 55.0342ZM118.988 57.1742C118.862 57.1802 118.738 57.1484 118.63 57.0829C118.523 57.0174 118.438 56.9212 118.385 56.8068C118.333 56.6923 118.316 56.5648 118.337 56.4407C118.358 56.3166 118.415 56.2015 118.502 56.1104C118.589 56.0193 118.701 55.9562 118.824 55.9294C118.947 55.9025 119.075 55.9131 119.192 55.9598C119.309 56.0065 119.409 56.0871 119.48 56.1913C119.55 56.2954 119.588 56.4183 119.588 56.5442C119.591 56.7049 119.531 56.8605 119.422 56.978C119.312 57.0956 119.161 57.1659 119 57.1742H118.988Z" fill="#F1C40F"/>
<path d="M121.14 58.6221H116.848V75.7901H121.14V58.6221Z" fill="#FFA31D"/>
<path d="M97.4822 113.49C97.4822 113.49 89.4822 113.49 87.4822 102.648C86.3842 96.7038 85.4722 78.5498 85.4722 78.5498H97.4902L97.4822 113.49Z" fill="#093D77"/>
<path d="M113.076 79.21H110.912V118.056H113.076V79.21Z" fill="#F1C40F"/>
<path d="M99.6459 79.21H97.4819V118.056H99.6459V79.21Z" fill="#F1C40F"/>
<path d="M113.076 79.21H97.4819V81.286H113.076V79.21Z" fill="#F1C40F"/>
<path d="M137.152 117.938H100.31V120.014H137.152V117.938Z" fill="#FFA31D"/>
<path d="M113.076 97.5938H97.4819V99.6698H113.076V97.5938Z" fill="#FFA31D"/>
<path d="M113.076 77.3379H97.4819V79.2099H113.076V77.3379Z" fill="#FFA31D"/>
<path d="M79.0998 77.3379H97.4818V79.1999H79.0998C79.026 79.1999 78.9553 79.1706 78.9032 79.1185C78.8511 79.0663 78.8218 78.9956 78.8218 78.9219V77.6059C78.8244 77.5339 78.8548 77.4657 78.9067 77.4157C78.9585 77.3658 79.0277 77.3378 79.0998 77.3379Z" fill="#F1C40F"/>
<path d="M102.824 120.94C102.824 121.736 102.588 122.515 102.145 123.177C101.703 123.839 101.074 124.355 100.338 124.66C99.6024 124.964 98.7928 125.044 98.0118 124.889C97.2308 124.733 96.5134 124.349 95.9505 123.786C95.3875 123.223 95.0042 122.505 94.8491 121.724C94.694 120.943 94.774 120.134 95.079 119.398C95.384 118.662 95.9004 118.034 96.5627 117.592C97.225 117.149 98.0036 116.914 98.8 116.914C99.8672 116.915 100.89 117.34 101.645 118.095C102.399 118.849 102.823 119.873 102.824 120.94Z" fill="#14B6B8"/>
<path d="M101.4 120.94C101.4 121.454 101.248 121.957 100.962 122.384C100.676 122.812 100.27 123.145 99.7952 123.342C99.3201 123.539 98.7973 123.59 98.293 123.49C97.7886 123.39 97.3253 123.142 96.9617 122.778C96.5981 122.415 96.3505 121.951 96.2502 121.447C96.1498 120.943 96.2013 120.42 96.3981 119.945C96.5949 119.47 96.9281 119.064 97.3557 118.778C97.7833 118.492 98.286 118.34 98.8002 118.34C99.4898 118.34 100.151 118.614 100.639 119.101C101.126 119.589 101.4 120.25 101.4 120.94Z" fill="#FFA31D"/>
<path d="M100.31 120.94C100.31 121.239 100.221 121.532 100.055 121.781C99.8885 122.03 99.6519 122.224 99.3751 122.339C99.0984 122.453 98.7939 122.483 98.5001 122.425C98.2064 122.366 97.9366 122.222 97.725 122.01C97.5133 121.798 97.3693 121.528 97.3111 121.234C97.2529 120.94 97.2831 120.636 97.398 120.359C97.5129 120.082 97.7073 119.846 97.9565 119.68C98.2058 119.514 98.4987 119.425 98.7982 119.426C99.1994 119.426 99.584 119.586 99.8675 119.87C100.151 120.154 100.31 120.539 100.31 120.94Z" fill="#FFEDD2"/>
<path d="M137.152 124.966C139.375 124.966 141.178 123.164 141.178 120.94C141.178 118.717 139.375 116.914 137.152 116.914C134.928 116.914 133.126 118.717 133.126 120.94C133.126 123.164 134.928 124.966 137.152 124.966Z" fill="#14B6B8"/>
<path d="M139.746 120.94C139.746 121.454 139.593 121.957 139.308 122.384C139.022 122.812 138.616 123.145 138.141 123.342C137.666 123.539 137.143 123.59 136.639 123.49C136.134 123.39 135.671 123.142 135.307 122.778C134.944 122.415 134.696 121.951 134.596 121.447C134.496 120.943 134.547 120.42 134.744 119.945C134.941 119.47 135.274 119.064 135.701 118.778C136.129 118.492 136.632 118.34 137.146 118.34C137.835 118.34 138.497 118.614 138.984 119.101C139.472 119.589 139.746 120.25 139.746 120.94Z" fill="#FFA31D"/>
<path d="M138.664 120.94C138.664 121.239 138.575 121.531 138.408 121.779C138.242 122.028 138.006 122.221 137.729 122.335C137.453 122.449 137.149 122.479 136.856 122.42C136.563 122.362 136.294 122.218 136.082 122.006C135.871 121.795 135.727 121.525 135.669 121.232C135.611 120.939 135.641 120.635 135.755 120.359C135.87 120.083 136.064 119.847 136.312 119.68C136.561 119.514 136.853 119.426 137.152 119.426C137.351 119.426 137.548 119.465 137.731 119.541C137.915 119.617 138.082 119.729 138.222 119.869C138.362 120.01 138.474 120.177 138.55 120.361C138.625 120.544 138.664 120.741 138.664 120.94Z" fill="#FFEDD2"/>
<path d="M114.81 97.8457V105.864C114.81 106.948 115.924 107.834 117.286 107.834H132.55C133.912 107.834 135.026 106.948 135.026 105.864V97.8457H114.81Z" fill="#14B6B8"/>
<path d="M136.326 98.5801C136.326 97.8681 135.596 97.2861 134.704 97.2861H115.132C114.24 97.2861 113.51 97.8681 113.51 98.5801C113.51 98.5901 113.51 98.6021 113.51 98.6121L136.326 98.5801Z" fill="#093D77"/>
<path d="M126.058 99.0938H123.778C123.667 99.0938 123.576 99.1842 123.576 99.2958V100.68C123.576 100.791 123.667 100.882 123.778 100.882H126.058C126.17 100.882 126.26 100.791 126.26 100.68V99.2958C126.26 99.1842 126.17 99.0938 126.058 99.0938Z" fill="#FFA31D"/>
<path d="M122.006 98.6123H121.13V107.834H122.006V98.6123Z" fill="#093D77"/>
<path d="M128.852 98.6123H127.976V107.834H128.852V98.6123Z" fill="#093D77"/>
<path d="M138.23 103.368C138.231 103.581 138.168 103.789 138.05 103.966C137.932 104.143 137.764 104.282 137.567 104.363C137.371 104.445 137.154 104.467 136.945 104.426C136.737 104.384 136.545 104.282 136.394 104.132C136.243 103.981 136.141 103.789 136.099 103.581C136.057 103.372 136.078 103.155 136.16 102.959C136.241 102.762 136.379 102.594 136.556 102.475C136.733 102.357 136.941 102.294 137.154 102.294C137.295 102.294 137.435 102.321 137.566 102.375C137.696 102.429 137.815 102.508 137.915 102.608C138.015 102.708 138.094 102.826 138.148 102.956C138.202 103.087 138.23 103.227 138.23 103.368Z" fill="#FFA31D"/>
<path d="M137.55 103.077L124.796 99.5993C124.735 99.5828 124.672 99.6186 124.656 99.6793L124.509 100.216C124.493 100.276 124.529 100.339 124.589 100.356L137.344 103.833C137.405 103.85 137.467 103.814 137.484 103.753L137.63 103.217C137.647 103.156 137.611 103.093 137.55 103.077Z" fill="#F1C40F"/>
<path d="M114.81 107.95V115.968C114.81 117.052 115.924 117.938 117.286 117.938H132.55C133.912 117.938 135.026 117.052 135.026 115.968V107.95H114.81Z" fill="#14B6B8"/>
<path d="M136.326 108.684C136.326 107.972 135.596 107.39 134.704 107.39H115.132C114.24 107.39 113.51 107.972 113.51 108.684C113.51 108.694 113.51 108.706 113.51 108.716L136.326 108.684Z" fill="#093D77"/>
<path d="M126.058 109.198H123.778C123.667 109.198 123.576 109.289 123.576 109.4V110.784C123.576 110.896 123.667 110.986 123.778 110.986H126.058C126.17 110.986 126.26 110.896 126.26 110.784V109.4C126.26 109.289 126.17 109.198 126.058 109.198Z" fill="#FFA31D"/>
<path d="M122.006 108.716H121.13V117.938H122.006V108.716Z" fill="#093D77"/>
<path d="M128.852 108.716H127.976V117.938H128.852V108.716Z" fill="#093D77"/>
<path d="M138.23 113.472C138.23 113.685 138.167 113.893 138.049 114.07C137.931 114.247 137.763 114.385 137.566 114.467C137.369 114.548 137.153 114.569 136.944 114.528C136.735 114.486 136.544 114.384 136.393 114.233C136.243 114.083 136.14 113.891 136.099 113.682C136.057 113.474 136.079 113.257 136.16 113.061C136.241 112.864 136.379 112.696 136.556 112.578C136.733 112.46 136.941 112.396 137.154 112.396C137.439 112.396 137.713 112.51 137.915 112.712C138.117 112.913 138.23 113.187 138.23 113.472Z" fill="#FFA31D"/>
<path d="M137.55 113.181L124.796 109.704C124.735 109.687 124.672 109.723 124.656 109.784L124.509 110.32C124.493 110.381 124.529 110.444 124.589 110.46L137.344 113.937C137.405 113.954 137.467 113.918 137.484 113.857L137.63 113.321C137.647 113.26 137.611 113.198 137.55 113.181Z" fill="#F1C40F"/>
</svg>
