<svg width="220" height="220" viewBox="0 0 220 220" fill="none" xmlns="http://www.w3.org/2000/svg">
<rect x="0.5" y="0.5" width="219" height="219" rx="19.5" fill="white" stroke="#093D77"/>
<path d="M76.6326 172V152.38H80.1126V161.29H80.2026L87.1926 152.38H91.0626L85.0326 160.03L92.0826 172H88.2426L82.9326 162.76L80.1126 166.27V172H76.6326ZM98.2614 172.36C96.6814 172.36 95.5314 171.85 94.8114 170.83C94.0914 169.81 93.7314 168.37 93.7314 166.51V157.27H97.1814V166.06C97.1814 167.28 97.3614 168.14 97.7214 168.64C98.0814 169.14 98.6614 169.39 99.4614 169.39C100.101 169.39 100.661 169.23 101.141 168.91C101.641 168.59 102.171 168.07 102.731 167.35V157.27H106.181V172H103.361L103.091 169.84H103.001C102.361 170.6 101.661 171.21 100.901 171.67C100.141 172.13 99.2614 172.36 98.2614 172.36ZM110.551 172V157.27H113.401L113.641 159.25H113.761C114.421 158.61 115.141 158.06 115.921 157.6C116.701 157.14 117.591 156.91 118.591 156.91C120.171 156.91 121.321 157.42 122.041 158.44C122.761 159.46 123.121 160.9 123.121 162.76V172H119.671V163.21C119.671 161.99 119.491 161.13 119.131 160.63C118.771 160.13 118.181 159.88 117.361 159.88C116.721 159.88 116.151 160.04 115.651 160.36C115.171 160.66 114.621 161.11 114.001 161.71V172H110.551ZM133.548 172.36C132.188 172.36 130.968 172.06 129.888 171.46C128.808 170.84 127.948 169.96 127.308 168.82C126.688 167.66 126.378 166.27 126.378 164.65C126.378 163.01 126.718 161.62 127.398 160.48C128.078 159.32 128.978 158.44 130.098 157.84C131.238 157.22 132.458 156.91 133.758 156.91C134.698 156.91 135.518 157.07 136.218 157.39C136.938 157.69 137.558 158.08 138.078 158.56L136.428 160.72C136.108 160.42 135.738 160.18 135.318 160C134.918 159.82 134.458 159.73 133.938 159.73C133.158 159.73 132.468 159.94 131.868 160.36C131.268 160.76 130.788 161.33 130.428 162.07C130.088 162.79 129.918 163.65 129.918 164.65C129.918 165.63 130.088 166.49 130.428 167.23C130.768 167.95 131.228 168.52 131.808 168.94C132.408 169.34 133.098 169.54 133.878 169.54C134.458 169.54 134.998 169.43 135.498 169.21C136.018 168.99 136.478 168.71 136.878 168.37L138.288 170.5C137.668 171.06 136.948 171.51 136.128 171.85C135.328 172.19 134.468 172.36 133.548 172.36ZM141.196 172V157.27H144.646V172H141.196ZM142.906 154.69C142.306 154.69 141.806 154.51 141.406 154.15C141.026 153.79 140.836 153.31 140.836 152.71C140.836 152.11 141.026 151.64 141.406 151.3C141.806 150.94 142.306 150.76 142.906 150.76C143.526 150.76 144.026 150.94 144.406 151.3C144.786 151.64 144.976 152.11 144.976 152.71C144.976 153.31 144.786 153.79 144.406 154.15C144.026 154.51 143.526 154.69 142.906 154.69Z" fill="black"/>
<path d="M107.608 99.6396V107.74L106.422 107.094L103.222 105.342V102.042L106.422 100.29L107.608 99.6396Z" fill="#FFB243"/>
<path d="M107.502 107.836V113.372L106.422 112.782L103.222 111.03V110.176L106.422 108.426L107.502 107.836Z" fill="#FFB243"/>
<path d="M106.422 108.426L107.502 107.836V113.372L106.422 112.782V108.426Z" fill="#D48818"/>
<path d="M107.608 99.6396V107.74L106.422 107.094V100.29L107.608 99.6396Z" fill="#D48818"/>
<path d="M115.742 79.4033H106.422V88.7233H115.742V79.4033Z" fill="#FFA31D"/>
<path d="M107.376 82.3936H103.416V94.6696H107.376V82.3936Z" fill="#FFB243"/>
<path d="M107.374 82.3936V99.3116L105.394 97.6996V82.3936H107.374Z" fill="#D48818"/>
<path d="M106.422 79.3994V82.3994H103.422V83.9994C104.062 84.1594 104.724 84.2934 105.4 84.3994C105.738 84.4554 106.082 84.5074 106.428 84.5514C106.744 84.5934 107.06 84.6274 107.38 84.6574C108.356 84.7554 109.356 84.8034 110.38 84.8034C112.182 84.8058 113.98 84.6478 115.754 84.3314V79.3994H106.422Z" fill="#D48818"/>
<path d="M123.216 65.0514C123.09 64.9757 122.986 64.8686 122.914 64.7406C122.842 64.6127 122.805 64.4682 122.806 64.3214V64.3054C122.806 57.5934 117.136 52.1514 110.144 52.1514C103.152 52.1514 97.4817 57.5994 97.4817 64.3054V64.3214C97.4832 64.4671 97.4472 64.6108 97.3772 64.7387C97.3071 64.8665 97.2054 64.9742 97.0817 65.0514C93.8817 66.9834 91.9077 69.6214 91.9077 72.5314C91.9077 78.4574 100.078 83.2594 110.154 83.2594C120.23 83.2594 128.398 78.4594 128.398 72.5314C128.388 69.6214 126.416 66.9834 123.216 65.0514ZM101 62.1334C101.266 58.0394 105.254 54.7874 110.136 54.7874C115.018 54.7874 119.004 58.0394 119.272 62.1334H101Z" fill="#F79C0B"/>
<path d="M128.11 70.4497C127.422 68.2897 125.61 66.7257 123.744 65.4017C125.384 66.5757 126.974 67.9397 127.782 69.7317C127.885 69.9617 127.974 70.1974 128.05 70.4377C128.812 72.8737 127.912 75.6157 126.228 77.5337C124.544 79.4517 122.182 80.6517 119.766 81.4797C114.56 83.2365 108.969 83.5134 103.616 82.2797C101.4 81.7717 99.2159 81.0097 97.2899 79.8117C94.8759 78.3137 92.4619 75.9657 92.2319 72.9697C92.0119 70.0937 93.9939 67.4377 96.4139 65.8697C96.8319 65.5997 97.2879 65.3277 97.5079 64.8817C97.6419 64.5473 97.7099 64.19 97.7079 63.8297C97.9999 59.5197 100.73 55.4657 104.6 53.5357C108.47 51.6057 113.34 51.8277 117 54.1357C117.586 54.5057 118.728 55.3917 118.74 55.3717C118.183 54.8748 117.584 54.4278 116.95 54.0357C115.095 52.8585 112.969 52.1753 110.775 52.0509C108.582 51.9266 106.393 52.3652 104.416 53.3252C102.44 54.2851 100.742 55.7345 99.4832 57.5356C98.2247 59.3367 97.4476 61.4297 97.2259 63.6157C97.2182 63.9836 97.1344 64.3458 96.9799 64.6797C96.7459 65.0797 96.3039 65.3157 95.8999 65.5577C93.8616 66.7997 92.3884 68.7881 91.7939 71.0997C91.1599 73.5777 92.2879 76.1557 94.0039 77.9477C97.8279 81.9477 104.032 83.3877 109.386 83.4677C112.993 83.5212 116.579 82.9062 119.962 81.6537C122.362 80.7617 124.698 79.5197 126.362 77.5777C128.026 75.6357 128.888 72.8837 128.11 70.4497Z" fill="#FFA31D"/>
<path d="M118.6 58.9302C118.025 57.9712 117.264 57.1368 116.362 56.4762C114.558 55.1839 112.391 54.4982 110.172 54.518C107.953 54.5378 105.798 55.262 104.018 56.5862C103.151 57.2533 102.427 58.0887 101.89 59.0422C101.349 59.9861 101.043 61.0469 101 62.1342C101.114 61.0681 101.47 60.0422 102.04 59.1342C102.611 58.2432 103.348 57.471 104.212 56.8602C105.946 55.6651 108.006 55.0344 110.111 55.0541C112.217 55.0738 114.265 55.7429 115.976 56.9702C117.544 58.1342 118.698 59.8902 118.932 61.8222C117.542 61.8222 101 62.1282 101 62.1282L119.6 62.4382C119.6 62.4382 119.164 59.8942 118.6 58.9302Z" fill="#FFA31D"/>
<path d="M113.36 88.7217V116.676L110.144 119.936L107.376 116.676V88.7217H113.36Z" fill="#FFB243"/>
<path d="M113.36 88.7217V116.676L110.144 119.936V88.7217H113.36Z" fill="#FFA31D"/>
<path d="M122.098 72.9036C122.098 76.9376 116.66 80.2076 109.95 80.2076C103.24 80.2076 97.7998 76.9376 97.7998 72.9036C97.7998 68.8696 103.24 65.5996 109.95 65.5996C116.66 65.5996 122.098 68.8696 122.098 72.9036Z" fill="#E58505"/>
<path d="M122.29 72.0999C122.29 76.1359 116.854 79.4039 110.142 79.4039C110.094 79.4039 110.044 79.4039 109.996 79.4039C109.487 79.4039 108.985 79.3826 108.492 79.3399C108.329 79.3279 108.167 79.3119 108.006 79.2919C107.096 79.1957 106.195 79.0313 105.31 78.7999C105.052 78.7359 104.798 78.6619 104.55 78.5819C103.354 78.2209 102.214 77.6938 101.164 77.0159C99.2 75.7219 98 73.9999 98 72.0999C98 68.0639 103.44 64.7959 110.148 64.7959C110.776 64.7959 111.394 64.8259 111.996 64.8799C113.371 65.0018 114.727 65.2803 116.038 65.7099C116.286 65.7899 116.524 65.8799 116.76 65.9719C117.515 66.2626 118.242 66.6228 118.93 67.0479L119.26 67.2679C119.584 67.4862 119.894 67.7247 120.188 67.9819C121.512 69.1579 122.29 70.5739 122.29 72.0999Z" fill="#FFB243"/>
<g style="mix-blend-mode:overlay" opacity="0.47">
<path d="M116.032 65.7099L104.55 78.5839C103.354 78.2229 102.214 77.6958 101.164 77.0179L112 64.8799C113.371 65.0026 114.724 65.281 116.032 65.7099Z" fill="#F9F5FF"/>
</g>
<g style="mix-blend-mode:overlay" opacity="0.47">
<path d="M118.924 67.0477L108 79.2877C107.092 79.1926 106.193 79.0294 105.31 78.7997L116.754 65.9697C117.509 66.261 118.236 66.6219 118.924 67.0477Z" fill="#F9F5FF"/>
</g>
<g style="mix-blend-mode:overlay" opacity="0.47">
<path d="M120.182 67.9816L110 79.3996C109.491 79.3996 108.989 79.3782 108.496 79.3356L119.258 67.2676C119.581 67.486 119.889 67.7245 120.182 67.9816Z" fill="#F9F5FF"/>
</g>
<path d="M113.36 88.7217H107.19V89.2117H113.36V88.7217Z" fill="#CC7A05"/>
</svg>
