<svg width="220" height="220" viewBox="0 0 220 220" fill="none" xmlns="http://www.w3.org/2000/svg">
<rect x="0.5" y="0.5" width="219" height="219" rx="19.5" fill="white" stroke="#093D77"/>
<path d="M113.36 56.3022C110.432 53.6702 105.378 52.2002 99.73 59.2922C94.082 66.3842 72.07 104.146 75.33 112.368C78.59 120.59 135.114 119.096 143.422 111.248C151.73 103.4 125.148 66.8922 113.36 56.3022Z" fill="#FFA31D"/>
<path d="M107.942 58.7778C101.918 58.9998 80.1541 100.242 79.6821 110.2C92.9661 115.448 127.914 113.814 140.228 107.874C141.498 96.8778 115.366 61.1478 107.942 58.7778Z" fill="#093D77"/>
<path d="M103.854 113.8C94.944 113.49 85.746 113.828 79.154 110.514C78.736 101.586 101.8 57.7998 107.896 58.2158C115.854 60.3778 140.696 95.3478 140.916 106.962C140.462 112.37 110.748 113.966 103.854 113.8ZM80.238 109.902C94.688 114.61 126.208 113.396 139.744 107.502C139.806 95.5018 115.764 63.0118 107.988 59.3478C102.032 60.1518 81.21 99.6998 80.238 109.902ZM139.892 107.424L140.214 107.848L140.202 107.324C140.091 107.327 139.984 107.361 139.892 107.424Z" fill="white"/>
<path d="M105.656 75L100.8 85.644L108.836 86.204L102.856 95.176L108.656 96.296L101.74 107.51L118.56 95.922L110.712 91.438L118.748 81.158C107.11 80.522 109.202 82.216 112.948 72.188L105.656 75Z" fill="#FFA31D"/>
<path d="M72.5896 172V152.38H76.0696V169.06H84.2296V172H72.5896ZM87.3482 172V157.27H90.7982V172H87.3482ZM89.0582 154.69C88.4582 154.69 87.9582 154.51 87.5582 154.15C87.1782 153.79 86.9882 153.31 86.9882 152.71C86.9882 152.11 87.1782 151.64 87.5582 151.3C87.9582 150.94 88.4582 150.76 89.0582 150.76C89.6782 150.76 90.1782 150.94 90.5582 151.3C90.9382 151.64 91.1282 152.11 91.1282 152.71C91.1282 153.31 90.9382 153.79 90.5582 154.15C90.1782 154.51 89.6782 154.69 89.0582 154.69ZM99.3098 172.36C98.2898 172.36 97.2798 172.17 96.2798 171.79C95.2998 171.41 94.4498 170.88 93.7298 170.2L95.2598 168.22C95.9198 168.76 96.5898 169.15 97.2698 169.39C97.9498 169.63 98.6698 169.75 99.4298 169.75C100.23 169.75 100.82 169.58 101.2 169.24C101.58 168.9 101.77 168.48 101.77 167.98C101.77 167.58 101.62 167.24 101.32 166.96C101.04 166.68 100.67 166.44 100.21 166.24C99.7498 166.04 99.2398 165.84 98.6798 165.64C97.9598 165.38 97.2898 165.07 96.6698 164.71C96.0498 164.33 95.5398 163.87 95.1398 163.33C94.7598 162.77 94.5698 162.1 94.5698 161.32C94.5698 160.02 95.0498 158.96 96.0098 158.14C96.9698 157.32 98.2698 156.91 99.9098 156.91C100.91 156.91 101.83 157.08 102.67 157.42C103.51 157.74 104.23 158.16 104.83 158.68L103.3 160.63C102.78 160.25 102.25 159.97 101.71 159.79C101.17 159.61 100.6 159.52 99.9998 159.52C99.2598 159.52 98.7098 159.68 98.3498 160C97.9898 160.32 97.8098 160.7 97.8098 161.14C97.8098 161.5 97.9198 161.81 98.1398 162.07C98.3798 162.31 98.7198 162.53 99.1598 162.73C99.5998 162.91 100.13 163.1 100.75 163.3C101.51 163.56 102.22 163.88 102.88 164.26C103.54 164.62 104.06 165.09 104.44 165.67C104.84 166.23 105.04 166.94 105.04 167.8C105.04 168.64 104.82 169.41 104.38 170.11C103.94 170.79 103.29 171.34 102.43 171.76C101.59 172.16 100.55 172.36 99.3098 172.36ZM112.724 172.3C111.024 172.3 109.814 171.81 109.094 170.83C108.394 169.83 108.044 168.54 108.044 166.96V160H105.944V157.42L108.224 157.27L108.644 152.65H111.524V157.27H115.274V160H111.524V166.96C111.524 167.82 111.694 168.47 112.034 168.91C112.374 169.33 112.894 169.54 113.594 169.54C113.854 169.54 114.114 169.52 114.374 169.48C114.634 169.44 114.884 169.36 115.124 169.24L115.754 171.67C115.374 171.85 114.924 172 114.404 172.12C113.884 172.24 113.324 172.3 112.724 172.3ZM118.374 172V157.27H121.224L121.464 159.88H121.584C122.104 158.92 122.724 158.19 123.444 157.69C124.184 157.17 124.954 156.91 125.754 156.91C126.134 156.91 126.454 156.93 126.714 156.97C126.974 157.01 127.214 157.09 127.434 157.21L126.744 160.15C126.504 160.09 126.284 160.05 126.084 160.03C125.884 159.99 125.624 159.97 125.304 159.97C124.724 159.97 124.114 160.2 123.474 160.66C122.834 161.1 122.284 161.88 121.824 163V172H118.374ZM129.565 172V157.27H133.015V172H129.565ZM131.275 154.69C130.675 154.69 130.175 154.51 129.775 154.15C129.395 153.79 129.205 153.31 129.205 152.71C129.205 152.11 129.395 151.64 129.775 151.3C130.175 150.94 130.675 150.76 131.275 150.76C131.895 150.76 132.395 150.94 132.775 151.3C133.155 151.64 133.345 152.11 133.345 152.71C133.345 153.31 133.155 153.79 132.775 154.15C132.395 154.51 131.895 154.69 131.275 154.69ZM137.417 172V150.82H140.837V164.02H140.927L146.327 157.27H150.137L145.127 163.3L150.647 172H146.897L143.117 165.61L140.837 168.22V172H137.417Z" fill="black"/>
</svg>
