<svg width="220" height="220" viewBox="0 0 220 220" fill="none" xmlns="http://www.w3.org/2000/svg">
<rect x="0.5" y="0.5" width="219" height="219" rx="19.5" fill="white" stroke="#093D77"/>
<path d="M122.114 77.3057H97.438C97.438 77.3057 101.68 83.8657 98.288 92.6877H122.962C122.962 92.6877 118.72 86.1297 122.114 77.3057Z" fill="#FFD18E"/>
<path d="M92.6719 59.7402C92.6719 76.1062 101.384 84.7562 110 84.9982C117.94 84.7762 127.328 76.9602 127.328 59.7402H92.6719Z" fill="#FFC268"/>
<path d="M86.5181 54.6221C86.5181 73.2221 98.3181 83.0581 110 83.3341C120.76 83.0801 133.482 74.2001 133.482 54.6221H86.5181Z" fill="#FFD18E"/>
<path d="M110 65.0999C103.718 64.4719 101.18 65.5959 101.18 65.5959C101.73 69.5619 110 71.2499 110 71.2499C110 71.2499 118.27 69.5619 118.82 65.5959C118.82 65.5999 116.282 64.4719 110 65.0999Z" fill="#A00505"/>
<path d="M110 65.7222C110 65.7222 104.524 65.1042 102.112 65.3702V66.4222C103.242 66.9342 106.548 67.9222 110 67.9222C113.452 67.9222 116.758 66.9342 117.888 66.4222V65.3702C115.476 65.1042 110 65.7222 110 65.7222Z" fill="white"/>
<path d="M117.888 65.3701V66.4221C118.154 66.3021 118.298 66.2221 118.298 66.2221L118.82 65.6001C118.526 65.4681 118.21 65.3902 117.888 65.3701Z" fill="#474747"/>
<path d="M102.112 65.3701V66.4221C101.848 66.3021 101.702 66.2221 101.702 66.2221L101.18 65.6001C101.475 65.4684 101.79 65.3905 102.112 65.3701Z" fill="#474747"/>
<path d="M112.298 63.6183L110 64.4603L107.702 63.6183C106.464 62.9763 100.87 65.4183 100.87 65.4183L101.298 65.6743C102.236 65.3763 107.318 66.2523 107.318 66.2523C108.088 66.7003 110 66.7003 110 66.7003C110 66.7003 111.912 66.7003 112.682 66.2523C112.682 66.2523 117.764 65.3763 118.702 65.6743L119.13 65.4183C119.13 65.4183 113.536 62.9763 112.298 63.6183Z" fill="#E21010"/>
<path d="M110 68.6816C105.894 67.8416 102.816 68.9456 102.816 68.9456L110 70.7456L117.184 68.9456C117.184 68.9456 114.106 67.8416 110 68.6816Z" fill="#EA5E5E"/>
<path d="M118.702 65.6662C118.702 65.6662 116.372 69.7242 110 69.7242C103.628 69.7242 101.298 65.6662 101.298 65.6662L100.87 65.4102C102.834 73.3102 110 72.9682 110 72.9682C110 72.9682 117.166 73.3102 119.13 65.4102L118.702 65.6662Z" fill="#D10000"/>
<path d="M114.002 81.3584H108.986V86.2224H114.002V81.3584Z" fill="#B7B6C0"/>
<path d="M111.38 86.2217H108.622V97.6117H111.38V86.2217Z" fill="#363636"/>
<path d="M113.232 81.3583H109.754V78.1703C109.754 77.7902 109.852 77.4164 110.039 77.0855C110.226 76.7547 110.496 76.4779 110.822 76.2823L112.132 75.4963C112.242 75.43 112.368 75.3943 112.497 75.3926C112.625 75.391 112.752 75.4236 112.864 75.4871C112.976 75.5506 113.069 75.6427 113.134 75.754C113.198 75.8652 113.232 75.9917 113.232 76.1203V81.3583Z" fill="#D10000"/>
<path d="M114.366 86.2217H111.38V97.6117H114.366V86.2217Z" fill="#222323"/>
<path d="M111.054 81.3584H109.754V86.2224H111.054V81.3584Z" fill="#D9D8EF"/>
<path d="M111.4 114.212L111.25 117.378H99.3782L99.4262 114.408C99.4262 114.408 96.9542 100.208 98.4882 94.9641L102.346 89.6181C103.373 89.6335 104.399 89.5968 105.422 89.5081C106.292 89.4432 107.154 89.3041 108 89.0921C108.624 88.9261 108.964 88.9821 109.092 89.8281C109.093 89.8474 109.093 89.8668 109.092 89.8861C109.386 92.0861 107.222 92.9901 104.37 92.9281C104.37 92.9281 103.71 94.8641 103.57 95.9041C103.57 95.9041 105.504 96.9421 106.05 97.4361L111.346 93.1341C111.346 93.1341 111.746 90.6081 112.284 89.9661C111.936 88.4221 112.246 87.2481 112.81 86.6541C113.494 85.9341 114.55 86.0661 115.27 87.4241C115.682 88.1941 115.984 89.3601 116.05 90.9881C117.594 91.5241 119.124 92.6361 119.428 94.2421C120.998 95.2601 121.526 96.6681 121.352 97.7341C124.348 101.63 116.382 111.6 111.4 114.212Z" fill="#FFD18E"/>
<path d="M109.098 89.8284C108.598 90.1555 108.009 90.3197 107.412 90.2983C106.482 90.2983 105.696 89.9664 105.422 89.5084C106.292 89.4435 107.154 89.3043 108 89.0924C108.63 88.9264 108.97 88.9824 109.098 89.8284Z" fill="#D10000"/>
<path d="M115.172 97.6122C117.7 94.1742 116.116 91.1002 116.06 90.9902C116.449 91.126 116.826 91.2953 117.186 91.4962C118.224 96.0882 115.172 97.6122 115.172 97.6122Z" fill="#FFC268"/>
<path d="M118.28 100.236C121.17 96.2363 119.46 94.3463 119.438 94.2363C119.734 94.4261 120.01 94.6445 120.264 94.8883V94.9023C121.362 97.7363 118.28 100.236 118.28 100.236Z" fill="#FFC268"/>
<path d="M121.166 96.2383C121.344 96.7017 121.413 97.2 121.366 97.6943C121.385 97.201 121.318 96.7081 121.166 96.2383Z" fill="#F79E46"/>
<path d="M121.864 98.7403C121.444 100.34 120.288 101.576 120.2 101.668C121.046 99.9723 121.33 98.6823 121.364 97.7383C121.592 98.0379 121.762 98.3779 121.864 98.7403Z" fill="#FFC268"/>
<path d="M114.706 88.4759C113.984 88.7479 113.132 87.2999 112.872 86.2219C113.392 85.6759 114.272 85.3459 114.842 86.2219C115.6 87.3539 115.212 88.2839 114.706 88.4759Z" fill="#D10000"/>
<path d="M61.6892 172V152.38H65.8592L69.2192 161.98C69.4392 162.6 69.6392 163.22 69.8192 163.84C69.9992 164.44 70.1792 165.1 70.3592 165.82H70.4792C70.6592 165.1 70.8292 164.44 70.9892 163.84C71.1692 163.22 71.3592 162.6 71.5592 161.98L74.9192 152.38H79.0592V172H75.8492V163.06C75.8492 162.44 75.8692 161.73 75.9092 160.93C75.9692 160.13 76.0392 159.34 76.1192 158.56C76.1992 157.76 76.2792 157.06 76.3592 156.46H76.2392L74.6792 161.44L71.4992 170.2H69.1592L65.9792 161.44L64.4792 156.46H64.3592C64.4392 157.06 64.5092 157.76 64.5692 158.56C64.6492 159.34 64.7092 160.13 64.7492 160.93C64.8092 161.73 64.8392 162.44 64.8392 163.06V172H61.6892ZM87.3127 172.36C86.4527 172.36 85.6927 172.18 85.0327 171.82C84.3727 171.46 83.8527 170.96 83.4727 170.32C83.1127 169.66 82.9327 168.9 82.9327 168.04C82.9327 166.38 83.6227 165.13 85.0027 164.29C86.4027 163.43 88.6127 162.84 91.6327 162.52C91.6127 162.02 91.5127 161.56 91.3327 161.14C91.1727 160.72 90.8927 160.39 90.4927 160.15C90.1127 159.89 89.5927 159.76 88.9327 159.76C88.2127 159.76 87.5027 159.89 86.8027 160.15C86.1227 160.41 85.4527 160.74 84.7927 161.14L83.5327 158.8C84.0727 158.46 84.6627 158.15 85.3027 157.87C85.9427 157.57 86.6227 157.34 87.3427 157.18C88.0627 157 88.8127 156.91 89.5927 156.91C90.8127 156.91 91.8227 157.16 92.6227 157.66C93.4427 158.14 94.0527 158.86 94.4527 159.82C94.8727 160.76 95.0827 161.92 95.0827 163.3V172H92.2327L91.9927 170.38H91.8727C91.1927 170.94 90.4827 171.41 89.7427 171.79C89.0027 172.17 88.1927 172.36 87.3127 172.36ZM88.3927 169.54C88.9927 169.54 89.5427 169.42 90.0427 169.18C90.5627 168.92 91.0927 168.54 91.6327 168.04V164.92C90.2927 165.08 89.2327 165.29 88.4527 165.55C87.6727 165.81 87.1127 166.13 86.7727 166.51C86.4527 166.87 86.2927 167.3 86.2927 167.8C86.2927 168.42 86.4927 168.87 86.8927 169.15C87.2927 169.41 87.7927 169.54 88.3927 169.54ZM99.2115 172V150.82H102.631V164.02H102.721L108.121 157.27H111.931L106.921 163.3L112.441 172H108.691L104.911 165.61L102.631 168.22V172H99.2115ZM120.512 172.36C119.132 172.36 117.882 172.06 116.762 171.46C115.662 170.84 114.792 169.96 114.152 168.82C113.512 167.66 113.192 166.26 113.192 164.62C113.192 163.02 113.522 161.65 114.182 160.51C114.842 159.35 115.692 158.46 116.732 157.84C117.772 157.22 118.872 156.91 120.032 156.91C121.372 156.91 122.492 157.21 123.392 157.81C124.292 158.41 124.962 159.24 125.402 160.3C125.862 161.34 126.092 162.54 126.092 163.9C126.092 164.22 126.072 164.53 126.032 164.83C126.012 165.13 125.972 165.42 125.912 165.7H115.772V163.06H123.032C123.032 162 122.792 161.17 122.312 160.57C121.832 159.95 121.092 159.64 120.092 159.64C119.532 159.64 118.982 159.79 118.442 160.09C117.922 160.39 117.482 160.9 117.122 161.62C116.782 162.34 116.612 163.34 116.612 164.62C116.612 165.78 116.812 166.73 117.212 167.47C117.612 168.19 118.142 168.73 118.802 169.09C119.462 169.43 120.172 169.6 120.932 169.6C121.572 169.6 122.172 169.51 122.732 169.33C123.312 169.15 123.852 168.9 124.352 168.58L125.552 170.8C124.872 171.28 124.092 171.66 123.212 171.94C122.352 172.22 121.452 172.36 120.512 172.36ZM133.767 172.36C132.187 172.36 131.037 171.85 130.317 170.83C129.597 169.81 129.237 168.37 129.237 166.51V157.27H132.687V166.06C132.687 167.28 132.867 168.14 133.227 168.64C133.587 169.14 134.167 169.39 134.967 169.39C135.607 169.39 136.167 169.23 136.647 168.91C137.147 168.59 137.677 168.07 138.237 167.35V157.27H141.687V172H138.867L138.597 169.84H138.507C137.867 170.6 137.167 171.21 136.407 171.67C135.647 172.13 134.767 172.36 133.767 172.36ZM146.057 177.82V157.27H148.907L149.147 158.83H149.267C149.887 158.29 150.577 157.84 151.337 157.48C152.097 157.1 152.887 156.91 153.707 156.91C154.927 156.91 155.967 157.22 156.827 157.84C157.687 158.46 158.347 159.33 158.807 160.45C159.267 161.57 159.497 162.89 159.497 164.41C159.497 166.09 159.197 167.52 158.597 168.7C157.997 169.88 157.217 170.79 156.257 171.43C155.317 172.05 154.297 172.36 153.197 172.36C152.557 172.36 151.917 172.22 151.277 171.94C150.637 171.66 150.017 171.26 149.417 170.74L149.507 173.2V177.82H146.057ZM152.477 169.51C153.137 169.51 153.727 169.32 154.247 168.94C154.767 168.56 155.177 168 155.477 167.26C155.777 166.5 155.927 165.56 155.927 164.44C155.927 163.46 155.817 162.62 155.597 161.92C155.377 161.22 155.027 160.69 154.547 160.33C154.087 159.95 153.487 159.76 152.747 159.76C152.207 159.76 151.677 159.9 151.157 160.18C150.637 160.44 150.087 160.85 149.507 161.41V168.28C150.047 168.72 150.567 169.04 151.067 169.24C151.587 169.42 152.057 169.51 152.477 169.51Z" fill="black"/>
</svg>
