<svg width="220" height="220" viewBox="0 0 220 220" fill="none" xmlns="http://www.w3.org/2000/svg">
<rect x="0.5" y="0.5" width="219" height="219" rx="19.5" fill="white" stroke="#093D77"/>
<path d="M109.038 63.9082L105.554 71.6002L108.624 72.8602L112.034 67.4982L109.038 63.9082Z" fill="#093D77"/>
<path d="M106.712 72.0762L105.394 75.7182L105.668 75.8442L107.612 72.4442L106.712 72.0762Z" fill="#14B6B8"/>
<path d="M105.4 75.7178C105.4 75.7178 104.03 77.0978 103.434 78.1338C103.635 78.3784 103.892 78.5723 104.182 78.6998C104.472 78.8273 104.788 78.8848 105.104 78.8678C105.438 77.8922 105.63 76.8739 105.674 75.8438L105.4 75.7178Z" fill="#093D77"/>
<path d="M69.6318 111.4C69.6318 111.4 73.3138 118.2 80.0658 119.316C80.0658 119.316 82.8458 110.798 84.6098 109.574C86.3738 108.35 87.7298 109.688 93.8958 103.926C93.8958 103.926 98.3918 102.926 99.8798 101.966C101.368 101.006 107.198 102.078 107.56 100.61C107.922 99.1421 107.034 97.4581 105.23 97.3301C103.426 97.2021 97.1658 98.2741 96.2298 97.8241C95.2938 97.3741 92.4158 93.5241 96.2298 91.1201C100.044 88.7161 103.146 89.1641 104.472 89.1201C105.798 89.0761 114.472 91.7201 116.984 88.9821C116.984 88.9821 117.364 87.5981 113.926 87.2461C111.238 86.9721 104.878 85.2461 104.878 85.2461C104.878 85.2461 113.008 83.0261 115.344 81.1681C117.68 79.3101 115.758 78.6401 115.124 78.6901C114.49 78.7401 112.536 79.3461 112.536 79.3461C112.557 79.1739 112.51 79.0001 112.405 78.8624C112.299 78.7246 112.144 78.634 111.972 78.6101C111.322 78.4701 106.098 81.0481 106.098 81.0481L105.278 81.1461C105.278 81.1461 106.466 79.8241 106.288 79.2761C106.11 78.7281 105.508 78.1281 105.022 78.4421C104.536 78.7561 101 81.8601 99.4518 82.7201C97.9038 83.5801 91.9158 84.7881 90.4838 85.9201C89.0518 87.0521 82.5238 94.4201 80.7718 95.6481C79.0198 96.8761 73.2778 108.2 69.6318 111.4Z" fill="#FFD18E"/>
<path d="M143.18 85.8364C143.18 85.8364 149.412 82.1144 150.368 74.1724C150.368 74.1724 141.664 70.8884 139.328 67.8424C136.992 64.7964 136.128 59.1224 134.128 57.9884C134.128 57.9884 132.764 56.0724 131.128 56.4304C129.492 56.7884 128.964 54.9464 127.824 54.5264C126.684 54.1064 126.058 54.8664 124.986 54.2284C123.914 53.5904 124.14 52.8484 123.102 52.6944C122.064 52.5404 117.884 54.4224 115.502 55.8124C113.12 57.2024 107.4 65.0864 107.4 65.0864C107.4 65.0864 105.162 65.3164 105.242 66.8364C105.322 68.3564 105.984 68.9664 107.604 69.4604C109.224 69.9544 111.436 69.8464 111.436 69.8464C111.436 69.8464 110.972 72.2144 111.26 72.6464C111.548 73.0784 113.34 73.3184 114.01 72.5524C114.68 71.7864 114.97 70.0764 114.97 70.0764C114.97 70.0764 117.632 70.3744 121.8 73.2004C125.968 76.0264 130.688 78.3044 133.57 77.9884C133.57 77.9844 140.974 82.1684 143.18 85.8364Z" fill="#FFD18E"/>
<path d="M104.698 85.0002C102.898 84.5602 101.07 85.0242 99.2742 85.2482C98.2422 85.3782 97.2022 85.3882 96.1642 85.4262C95.1262 85.4642 94.0702 85.5262 93.0682 85.8262C91.9862 86.1422 90.9802 86.7682 90.4482 87.7902C90.3762 87.9242 90.6002 88.0062 90.6702 87.8722C91.6562 85.9822 94.1002 85.7562 95.9842 85.6722C96.9842 85.6302 98.0042 85.6302 99.0082 85.5202C99.8882 85.4262 100.758 85.2602 101.636 85.1522C102.626 85.0322 103.636 84.9862 104.614 85.2262C104.762 85.2562 104.846 85.0342 104.698 85.0002Z" fill="#FF9E29"/>
<path d="M105.252 81.0177C103.508 81.6018 101.728 82.0695 99.9219 82.4177C99.7719 82.4457 99.8099 82.6817 99.9599 82.6517C101.785 82.301 103.585 81.8286 105.348 81.2377C105.494 81.1857 105.4 80.9697 105.252 81.0177Z" fill="#FF9E29"/>
<path d="M112.222 79.434C110.383 79.806 108.563 80.246 106.76 80.754C106.614 80.794 106.65 81.03 106.798 80.988C108.599 80.48 110.42 80.0406 112.26 79.67C112.41 79.64 112.372 79.4 112.222 79.434Z" fill="#FF9E29"/>
<path d="M119.084 59.1178C116.97 60.2018 114.764 61.3498 113.336 63.3178C112.968 63.8216 112.671 64.3734 112.452 64.9578C111.964 64.9578 111.48 64.9258 111.008 64.9018C109.894 64.8458 108.774 64.7898 107.664 64.9498C107.635 64.9572 107.61 64.9752 107.593 65.0003C107.577 65.0253 107.57 65.0556 107.575 65.0852C107.58 65.1148 107.596 65.1415 107.619 65.1601C107.643 65.1788 107.672 65.1879 107.702 65.1858C109.744 64.8898 111.798 65.3418 113.844 65.1438C114.821 65.0748 115.77 64.7885 116.622 64.3058C117.41 63.8193 118.052 63.1281 118.478 62.3058C118.965 61.3563 119.23 60.3086 119.252 59.2418C119.255 59.2207 119.252 59.1994 119.243 59.1799C119.235 59.1604 119.221 59.1435 119.204 59.1309C119.187 59.1183 119.167 59.1104 119.146 59.1081C119.125 59.1058 119.104 59.1092 119.084 59.1178ZM116.684 63.9878C115.512 64.7758 114.104 64.9558 112.706 64.9598C113.53 62.8358 115.42 61.3918 117.346 60.3058C117.89 59.9978 118.446 59.7058 119.002 59.4258C118.904 61.1778 118.182 62.9818 116.686 63.9878H116.684Z" fill="#FF9E29"/>
<path d="M114.89 69.9995C113.749 69.8589 112.6 69.7822 111.45 69.7695C111.298 69.7695 111.274 70.0035 111.428 70.0055C112.577 70.0191 113.725 70.0959 114.866 70.2355C114.882 70.2371 114.897 70.2356 114.912 70.2311C114.927 70.2267 114.941 70.2193 114.953 70.2095C114.965 70.1996 114.975 70.1875 114.983 70.1738C114.99 70.1601 114.995 70.145 114.996 70.1295C114.998 70.114 114.996 70.0984 114.992 70.0835C114.987 70.0685 114.98 70.0546 114.97 70.0426C114.96 70.0305 114.948 70.0205 114.934 70.0131C114.921 70.0057 114.906 70.0011 114.89 69.9995Z" fill="#C6583E"/>
<path d="M116.77 87.8939C117.01 88.0459 117.37 88.2399 117.35 88.5699C117.326 88.9379 116.91 88.9419 116.636 88.9259C115.947 88.8762 115.271 88.712 114.636 88.4399C114.168 88.2399 113.258 87.8819 113.554 87.2059C113.565 87.1836 113.582 87.1653 113.604 87.1539C113.652 87.0849 113.723 87.0352 113.804 87.0139C113.985 86.9832 114.17 86.9866 114.35 87.0239C114.536 87.0451 114.72 87.0765 114.902 87.1179C115.564 87.2687 116.196 87.5311 116.77 87.8939Z" fill="#093D77"/>
<path d="M116.432 79.2204C116.354 79.4464 116.05 79.5524 115.848 79.6304C115.27 79.8329 114.66 79.9298 114.048 79.9164C113.516 79.9164 112.822 79.9904 112.434 79.5484C112.413 79.5439 112.394 79.5335 112.378 79.5185C112.363 79.5035 112.352 79.4844 112.347 79.4635C112.342 79.4426 112.343 79.4207 112.35 79.4003C112.357 79.3799 112.369 79.3619 112.386 79.3484C112.952 78.9364 113.694 78.7604 114.37 78.6324C114.93 78.4999 115.516 78.5312 116.058 78.7224C116.266 78.8004 116.524 78.9644 116.432 79.2204Z" fill="#093D77"/>
<path d="M106.316 98.212C107.144 98.39 108.116 98.802 108.262 99.748C108.414 100.766 107.328 101.186 106.518 101.358C105.662 101.536 104.518 101.602 104.004 100.746C103.818 100.4 103.737 100.007 103.773 99.6158C103.808 99.2246 103.958 98.8525 104.204 98.546C104.321 98.3788 104.484 98.2501 104.674 98.176C104.933 98.0961 105.205 98.0696 105.474 98.098C105.757 98.1145 106.039 98.1526 106.316 98.212Z" fill="#093D77"/>
<path d="M106.044 78.266C106.044 78.502 105.824 78.748 105.686 78.924C105.346 79.3531 104.925 79.7118 104.448 79.98C104.068 80.196 103.486 80.4 103.172 79.98L103.152 79.956C103.131 79.9314 103.118 79.9015 103.113 79.8697C103.108 79.8379 103.113 79.8054 103.126 79.776C103.17 79.664 103.308 79.576 103.4 79.512C103.668 79.292 103.942 79.082 104.222 78.878C104.47 78.698 104.726 78.524 104.986 78.36C105.108 78.28 105.232 78.204 105.356 78.128C105.454 78.0569 105.563 78.0016 105.678 77.964C105.723 77.9535 105.769 77.9534 105.814 77.9639C105.859 77.9743 105.9 77.995 105.936 78.0242C105.971 78.0534 105.999 78.0905 106.018 78.1324C106.037 78.1744 106.046 78.2201 106.044 78.266Z" fill="#093D77"/>
<path d="M112.074 79.1457C111.743 79.3873 111.362 79.5532 110.96 79.6317C110.784 79.6645 110.603 79.6469 110.436 79.5811C110.27 79.5153 110.126 79.4039 110.02 79.2597C110.002 79.2312 109.995 79.1968 110.002 79.1637C110 79.1399 110.005 79.1159 110.016 79.0947C110.027 79.0734 110.043 79.0558 110.064 79.0437C110.473 78.803 110.898 78.5912 111.336 78.4097C111.525 78.3356 111.72 78.2754 111.918 78.2297C112.005 78.197 112.098 78.1862 112.189 78.198C112.281 78.2099 112.369 78.2441 112.444 78.2977C112.77 78.5997 112.304 78.9857 112.074 79.1457Z" fill="#093D77"/>
<path d="M111.624 69.9078C111.842 70.4714 111.998 71.0567 112.09 71.6538C112.152 72.1338 112.172 72.7258 111.942 73.1698C111.9 73.2708 111.828 73.3567 111.736 73.4163C111.644 73.4759 111.536 73.5064 111.426 73.5038C111.308 73.4834 111.199 73.4284 111.113 73.3457C111.027 73.2631 110.967 73.1565 110.942 73.0398C110.88 72.7887 110.852 72.5304 110.858 72.2718C110.85 71.9891 110.864 71.7063 110.9 71.4258C110.969 70.8855 111.112 70.3573 111.324 69.8558C111.333 69.8353 111.348 69.8177 111.366 69.8048C111.384 69.7919 111.406 69.7842 111.428 69.7826C111.451 69.7809 111.473 69.7854 111.493 69.7955C111.513 69.8055 111.53 69.8209 111.542 69.8398C111.561 69.8418 111.579 69.8493 111.593 69.8614C111.608 69.8735 111.619 69.8896 111.624 69.9078Z" fill="#093D77"/>
<path d="M107.284 66.0842C107.348 66.3008 107.365 66.5285 107.334 66.7522C107.318 67.2399 107.208 67.72 107.01 68.1662C106.929 68.3862 106.787 68.5785 106.6 68.7202C106.506 68.7705 106.402 68.8006 106.295 68.8085C106.188 68.8164 106.081 68.802 105.98 68.7662C105.48 68.6115 105.008 68.3793 104.58 68.0782C104.562 68.0677 104.548 68.0519 104.539 68.0329C104.531 68.0138 104.528 67.9926 104.532 67.9722C104.461 67.1055 104.653 66.2374 105.084 65.4822C105.091 65.4631 105.104 65.4467 105.12 65.4349C105.136 65.4231 105.156 65.4166 105.176 65.4162C105.721 65.3858 106.266 65.471 106.776 65.6662C106.885 65.6977 106.986 65.7511 107.073 65.8229C107.16 65.8948 107.232 65.9837 107.284 66.0842Z" fill="#093D77"/>
<path d="M64.5164 172V152.38H68.3264L74.2064 163.18C74.5664 163.84 74.9064 164.55 75.2264 165.31C75.5664 166.07 75.8864 166.84 76.1864 167.62H76.3064C76.2264 166.56 76.1364 165.46 76.0364 164.32C75.9364 163.16 75.8864 162.04 75.8864 160.96V152.38H79.2164V172H75.4064L69.5264 161.2C69.1664 160.54 68.8064 159.83 68.4464 159.07C68.1064 158.31 67.7864 157.54 67.4864 156.76H67.3664C67.4864 157.78 67.5964 158.87 67.6964 160.03C67.7964 161.17 67.8464 162.3 67.8464 163.42V172H64.5164ZM87.5032 172.36C86.6432 172.36 85.8832 172.18 85.2232 171.82C84.5632 171.46 84.0432 170.96 83.6632 170.32C83.3032 169.66 83.1232 168.9 83.1232 168.04C83.1232 166.38 83.8132 165.13 85.1932 164.29C86.5932 163.43 88.8032 162.84 91.8232 162.52C91.8032 162.02 91.7032 161.56 91.5232 161.14C91.3632 160.72 91.0832 160.39 90.6832 160.15C90.3032 159.89 89.7832 159.76 89.1232 159.76C88.4032 159.76 87.6932 159.89 86.9932 160.15C86.3132 160.41 85.6432 160.74 84.9832 161.14L83.7232 158.8C84.2632 158.46 84.8532 158.15 85.4932 157.87C86.1332 157.57 86.8132 157.34 87.5332 157.18C88.2532 157 89.0032 156.91 89.7832 156.91C91.0032 156.91 92.0132 157.16 92.8132 157.66C93.6332 158.14 94.2432 158.86 94.6432 159.82C95.0632 160.76 95.2732 161.92 95.2732 163.3V172H92.4232L92.1832 170.38H92.0632C91.3832 170.94 90.6732 171.41 89.9332 171.79C89.1932 172.17 88.3832 172.36 87.5032 172.36ZM88.5832 169.54C89.1832 169.54 89.7332 169.42 90.2332 169.18C90.7532 168.92 91.2832 168.54 91.8232 168.04V164.92C90.4832 165.08 89.4232 165.29 88.6432 165.55C87.8632 165.81 87.3032 166.13 86.9632 166.51C86.6432 166.87 86.4832 167.3 86.4832 167.8C86.4832 168.42 86.6832 168.87 87.0832 169.15C87.4832 169.41 87.9832 169.54 88.5832 169.54ZM99.4019 172V157.27H102.852V172H99.4019ZM101.112 154.69C100.512 154.69 100.012 154.51 99.6119 154.15C99.2319 153.79 99.0419 153.31 99.0419 152.71C99.0419 152.11 99.2319 151.64 99.6119 151.3C100.012 150.94 100.512 150.76 101.112 150.76C101.732 150.76 102.232 150.94 102.612 151.3C102.992 151.64 103.182 152.11 103.182 152.71C103.182 153.31 102.992 153.79 102.612 154.15C102.232 154.51 101.732 154.69 101.112 154.69ZM110.613 172.3C109.793 172.3 109.133 172.14 108.633 171.82C108.153 171.48 107.803 171 107.583 170.38C107.363 169.76 107.253 169.02 107.253 168.16V150.82H110.703V168.34C110.703 168.78 110.783 169.08 110.943 169.24C111.103 169.4 111.283 169.48 111.483 169.48C111.563 169.48 111.633 169.48 111.693 169.48C111.773 169.46 111.873 169.44 111.993 169.42L112.443 172C112.243 172.08 111.983 172.15 111.663 172.21C111.363 172.27 111.013 172.3 110.613 172.3ZM119.154 172L125.544 152.38H129.624L136.014 172H132.354L129.354 161.56C129.034 160.52 128.724 159.45 128.424 158.35C128.144 157.25 127.864 156.16 127.584 155.08H127.464C127.204 156.18 126.924 157.28 126.624 158.38C126.344 159.46 126.044 160.52 125.724 161.56L122.694 172H119.154ZM122.934 166.69V163.96H132.174V166.69H122.934ZM138.132 172V157.27H140.982L141.222 159.88H141.342C141.862 158.92 142.482 158.19 143.202 157.69C143.942 157.17 144.712 156.91 145.512 156.91C145.892 156.91 146.212 156.93 146.472 156.97C146.732 157.01 146.972 157.09 147.192 157.21L146.502 160.15C146.262 160.09 146.042 160.05 145.842 160.03C145.642 159.99 145.382 159.97 145.062 159.97C144.482 159.97 143.872 160.2 143.232 160.66C142.592 161.1 142.042 161.88 141.582 163V172H138.132ZM154.514 172.3C152.814 172.3 151.604 171.81 150.884 170.83C150.184 169.83 149.834 168.54 149.834 166.96V160H147.734V157.42L150.014 157.27L150.434 152.65H153.314V157.27H157.064V160H153.314V166.96C153.314 167.82 153.484 168.47 153.824 168.91C154.164 169.33 154.684 169.54 155.384 169.54C155.644 169.54 155.904 169.52 156.164 169.48C156.424 169.44 156.674 169.36 156.914 169.24L157.544 171.67C157.164 171.85 156.714 172 156.194 172.12C155.674 172.24 155.114 172.3 154.514 172.3Z" fill="black"/>
</svg>
