<svg width="220" height="220" viewBox="0 0 220 220" fill="none" xmlns="http://www.w3.org/2000/svg">
<rect x="0.5" y="0.5" width="219" height="219" rx="19.5" fill="white" stroke="#093D77"/>
<path d="M143.424 56.252V96.2799C143.424 102.093 141.115 107.669 137.004 111.78C132.893 115.891 127.318 118.2 121.504 118.2C115.69 118.2 110.115 115.891 106.004 111.78C101.893 107.669 99.584 102.093 99.584 96.2799V78.892C99.5803 76.799 98.7468 74.7928 97.2663 73.3134C95.7858 71.834 93.779 71.0021 91.686 71H76.916V56.972H91.686C97.4964 56.9804 103.066 59.2928 107.174 63.4019C111.282 67.511 113.593 73.0816 113.6 78.892V96.2799C113.6 98.3752 114.432 100.385 115.914 101.866C117.395 103.348 119.405 104.18 121.5 104.18C123.595 104.18 125.605 103.348 127.086 101.866C128.568 100.385 129.4 98.3752 129.4 96.2799V56.252H143.424Z" fill="#14B6B8"/>
<path d="M143.424 56.252V96.2799C143.424 102.093 141.115 107.669 137.004 111.78C132.893 115.891 127.318 118.2 121.504 118.2C115.69 118.2 110.115 115.891 106.004 111.78C101.893 107.669 99.584 102.093 99.584 96.2799V78.892C99.5803 76.799 98.7468 74.7928 97.2663 73.3134C95.7858 71.834 93.779 71.0021 91.686 71H76.916V63.982H91.686C95.6398 63.9851 99.4308 65.5569 102.227 68.3523C105.023 71.1476 106.596 74.9382 106.6 78.892V96.2799C106.6 100.234 108.171 104.027 110.967 106.823C113.763 109.619 117.556 111.19 121.51 111.19C125.464 111.19 129.257 109.619 132.053 106.823C134.849 104.027 136.42 100.234 136.42 96.2799V56.252H143.424Z" fill="#093D77"/>
<path d="M79.3618 54.856H74.4658V73.102H79.3618V54.856Z" fill="#F1C40F"/>
<path d="M92.2861 54.856H87.3901V73.102H92.2861V54.856Z" fill="#F1C40F"/>
<path d="M79.3618 65.144H74.4658V73.102H79.3618V65.144Z" fill="#FFA31D"/>
<path d="M76.3118 54.856H74.4658V73.102H76.3118V54.856Z" fill="#F1C40F"/>
<path d="M76.3118 65.144H74.4658V73.102H76.3118V65.144Z" fill="#FFA31D"/>
<path d="M92.2861 65.144H87.3901V73.102H92.2861V65.144Z" fill="#FFA31D"/>
<path d="M115.786 78.5581H97.54V83.4541H115.786V78.5581Z" fill="#F1C40F"/>
<path d="M104.79 78.5581H97.54V83.4541H104.79V78.5581Z" fill="#FFA31D"/>
<path d="M145.534 53.7998H127.288V58.6958H145.534V53.7998Z" fill="#F1C40F"/>
<path d="M145.534 53.7998H137.81V58.6958H145.534V53.7998Z" fill="#FFA31D"/>
<path d="M145.534 53.7998H127.288V55.5458H145.534V53.7998Z" fill="#F1C40F"/>
<path d="M145.534 53.7998H137.81V55.5458H145.534V53.7998Z" fill="#F39C12"/>
<path d="M83.8084 172V152.38H89.9884C91.4484 152.38 92.7484 152.57 93.8884 152.95C95.0284 153.33 95.9284 153.96 96.5884 154.84C97.2484 155.72 97.5784 156.92 97.5784 158.44C97.5784 159.88 97.2484 161.07 96.5884 162.01C95.9484 162.95 95.0584 163.65 93.9184 164.11C92.7984 164.57 91.5284 164.8 90.1084 164.8H87.2884V172H83.8084ZM87.2884 162.01H89.8384C91.2984 162.01 92.3784 161.71 93.0784 161.11C93.7984 160.51 94.1584 159.62 94.1584 158.44C94.1584 157.2 93.7784 156.35 93.0184 155.89C92.2784 155.41 91.1784 155.17 89.7184 155.17H87.2884V162.01ZM100.969 172V157.27H104.419V172H100.969ZM102.679 154.69C102.079 154.69 101.579 154.51 101.179 154.15C100.799 153.79 100.609 153.31 100.609 152.71C100.609 152.11 100.799 151.64 101.179 151.3C101.579 150.94 102.079 150.76 102.679 150.76C103.299 150.76 103.799 150.94 104.179 151.3C104.559 151.64 104.749 152.11 104.749 152.71C104.749 153.31 104.559 153.79 104.179 154.15C103.799 154.51 103.299 154.69 102.679 154.69ZM108.821 177.82V157.27H111.671L111.911 158.83H112.031C112.651 158.29 113.341 157.84 114.101 157.48C114.861 157.1 115.651 156.91 116.471 156.91C117.691 156.91 118.731 157.22 119.591 157.84C120.451 158.46 121.111 159.33 121.571 160.45C122.031 161.57 122.261 162.89 122.261 164.41C122.261 166.09 121.961 167.52 121.361 168.7C120.761 169.88 119.981 170.79 119.021 171.43C118.081 172.05 117.061 172.36 115.961 172.36C115.321 172.36 114.681 172.22 114.041 171.94C113.401 171.66 112.781 171.26 112.181 170.74L112.271 173.2V177.82H108.821ZM115.241 169.51C115.901 169.51 116.491 169.32 117.011 168.94C117.531 168.56 117.941 168 118.241 167.26C118.541 166.5 118.691 165.56 118.691 164.44C118.691 163.46 118.581 162.62 118.361 161.92C118.141 161.22 117.791 160.69 117.311 160.33C116.851 159.95 116.251 159.76 115.511 159.76C114.971 159.76 114.441 159.9 113.921 160.18C113.401 160.44 112.851 160.85 112.271 161.41V168.28C112.811 168.72 113.331 169.04 113.831 169.24C114.351 169.42 114.821 169.51 115.241 169.51ZM128.973 172.36C128.113 172.36 127.353 172.18 126.693 171.82C126.033 171.46 125.513 170.96 125.133 170.32C124.773 169.66 124.593 168.9 124.593 168.04C124.593 166.38 125.283 165.13 126.663 164.29C128.063 163.43 130.273 162.84 133.293 162.52C133.273 162.02 133.173 161.56 132.993 161.14C132.833 160.72 132.553 160.39 132.153 160.15C131.773 159.89 131.253 159.76 130.593 159.76C129.873 159.76 129.163 159.89 128.463 160.15C127.783 160.41 127.113 160.74 126.453 161.14L125.193 158.8C125.733 158.46 126.323 158.15 126.963 157.87C127.603 157.57 128.283 157.34 129.003 157.18C129.723 157 130.473 156.91 131.253 156.91C132.473 156.91 133.483 157.16 134.283 157.66C135.103 158.14 135.713 158.86 136.113 159.82C136.533 160.76 136.743 161.92 136.743 163.3V172H133.893L133.653 170.38H133.533C132.853 170.94 132.143 171.41 131.403 171.79C130.663 172.17 129.853 172.36 128.973 172.36ZM130.053 169.54C130.653 169.54 131.203 169.42 131.703 169.18C132.223 168.92 132.753 168.54 133.293 168.04V164.92C131.953 165.08 130.893 165.29 130.113 165.55C129.333 165.81 128.773 166.13 128.433 166.51C128.113 166.87 127.953 167.3 127.953 167.8C127.953 168.42 128.153 168.87 128.553 169.15C128.953 169.41 129.453 169.54 130.053 169.54Z" fill="black"/>
</svg>
