<svg width="220" height="220" viewBox="0 0 220 220" fill="none" xmlns="http://www.w3.org/2000/svg">
<rect x="0.5" y="0.5" width="219" height="219" rx="19.5" fill="white" stroke="#093D77"/>
<path d="M124.956 59.96H85.662C83.6163 59.96 81.958 61.6183 81.958 63.664V86.758C81.958 88.8036 83.6163 90.462 85.662 90.462H124.956C127.002 90.462 128.66 88.8036 128.66 86.758V63.664C128.66 61.6183 127.002 59.96 124.956 59.96Z" fill="#093D77"/>
<path d="M126.116 63.4804V86.9164C126.116 87.4904 125.598 87.9564 124.958 87.9564H85.66C85.02 87.9564 84.502 87.4904 84.502 86.9164V63.4804C84.502 62.9064 85.02 62.4404 85.66 62.4404H124.958C125.6 62.4404 126.116 62.9064 126.116 63.4804Z" fill="#FFE0B4"/>
<path d="M126.116 84.9304V86.9164C126.116 87.4904 125.598 87.9564 124.958 87.9564H85.66C85.02 87.9564 84.502 87.4904 84.502 86.9164V63.4804C84.502 62.9064 85.02 62.4404 85.66 62.4404H88.562L126.116 84.9304Z" fill="#FFEDD2"/>
<path d="M128.23 109.018H82.3882C79.8542 109.018 78.1042 106.636 78.4722 105.36L82.2722 93.5161C82.5362 92.6001 84.4322 91.8701 86.5102 91.8701H124.116C126.196 91.8701 128.092 92.6001 128.356 93.5161L132.156 105.36C132.512 106.636 130.764 109.018 128.23 109.018Z" fill="#14B6B8"/>
<path d="M128.23 107.13H82.3878C79.8518 107.13 78.1058 106.068 78.4718 104.792L82.2718 91.6284C82.5358 90.7124 84.4318 89.9824 86.5118 89.9824H124.118C126.196 89.9824 128.092 90.7124 128.356 91.6284L132.156 104.792C132.514 106.068 130.764 107.13 128.23 107.13Z" fill="#093D77"/>
<path d="M123.648 104.964H86.97C84.942 104.964 83.476 104.13 83.692 103.12L86.02 92.2578C86.19 91.4698 87.742 90.8398 89.492 90.8398H121.126C122.876 90.8398 124.428 91.4698 124.596 92.2578L126.924 103.12C127.14 104.13 125.676 104.964 123.648 104.964Z" fill="#14B6B8"/>
<path d="M127.708 92.7139H82.5498V93.1539H127.708V92.7139Z" fill="#093D77"/>
<path d="M127.708 95.7344H82.5498V96.1744H127.708V95.7344Z" fill="#093D77"/>
<path d="M127.708 98.7539H82.5498V99.1939H127.708V98.7539Z" fill="#093D77"/>
<path d="M127.708 101.774H82.5498V102.214H127.708V101.774Z" fill="#093D77"/>
<path d="M108.038 107.13H107.3L107.044 89.9824H107.696L108.038 107.13Z" fill="#093D77"/>
<path d="M103.214 89.9824L102.96 107.13H102.22L102.56 89.9824H103.214Z" fill="#093D77"/>
<path d="M98.7301 89.9824L97.8821 107.13H97.1401L98.0761 89.9824H98.7301Z" fill="#093D77"/>
<path d="M94.2461 89.9824L92.8041 107.13H92.0601L93.5921 89.9824H94.2461Z" fill="#093D77"/>
<path d="M89.7619 89.9824L87.7239 107.13H86.9839L89.1079 89.9824H89.7619Z" fill="#093D77"/>
<path d="M123.274 107.13H122.534L120.496 89.9824H121.15L123.274 107.13Z" fill="#093D77"/>
<path d="M118.196 107.13H117.454L116.012 89.9824H116.666L118.196 107.13Z" fill="#093D77"/>
<path d="M113.116 107.13H112.374L111.526 89.9824H112.18L113.116 107.13Z" fill="#093D77"/>
<path d="M111.152 104.964H99.4661C98.8181 104.964 98.3721 104.576 98.4661 104.11L99.4321 99.31C99.5001 98.974 99.9841 98.71 100.514 98.71H110.114C110.644 98.71 111.128 98.976 111.194 99.31L112.16 104.11C112.244 104.576 111.8 104.964 111.152 104.964Z" fill="#94BDEB"/>
<path d="M128.312 87.6318H127.63C127.436 87.6318 127.28 87.7885 127.28 87.9818V89.7258C127.28 89.9191 127.436 90.0758 127.63 90.0758H128.312C128.505 90.0758 128.662 89.9191 128.662 89.7258V87.9818C128.662 87.7885 128.505 87.6318 128.312 87.6318Z" fill="#D1D6D2"/>
<path d="M128.312 90.7061H127.63C127.436 90.7061 127.28 90.8628 127.28 91.0561V92.8001C127.28 92.9934 127.436 93.1501 127.63 93.1501H128.312C128.505 93.1501 128.662 92.9934 128.662 92.8001V91.0561C128.662 90.8628 128.505 90.7061 128.312 90.7061Z" fill="#D1D6D2"/>
<path d="M139.412 84.9297H129.098C128.291 84.9297 127.636 85.5842 127.636 86.3917V109.174C127.636 109.981 128.291 110.636 129.098 110.636H139.412C140.22 110.636 140.874 109.981 140.874 109.174V86.3917C140.874 85.5842 140.22 84.9297 139.412 84.9297Z" fill="#94BDEB"/>
<path d="M129.516 87.6338H139C139.265 87.6338 139.52 87.7391 139.707 87.9267C139.895 88.1142 140 88.3686 140 88.6338V106.06C140 106.325 139.895 106.579 139.707 106.767C139.52 106.954 139.265 107.06 139 107.06H129.516C129.251 107.06 128.997 106.954 128.809 106.767C128.621 106.579 128.516 106.325 128.516 106.06V88.6398C128.515 88.508 128.541 88.3773 128.591 88.2553C128.64 88.1332 128.714 88.0223 128.807 87.9288C128.9 87.8353 129.01 87.7611 129.132 87.7105C129.254 87.6599 129.384 87.6338 129.516 87.6338Z" fill="#FFE0B4"/>
<path d="M134.8 86.336H131.2C131.153 86.3408 131.11 86.3628 131.078 86.3977C131.047 86.4326 131.029 86.4779 131.029 86.525C131.029 86.572 131.047 86.6173 131.078 86.6522C131.11 86.6872 131.153 86.7091 131.2 86.714H134.8C134.826 86.7167 134.853 86.7138 134.878 86.7056C134.904 86.6973 134.927 86.6838 134.947 86.666C134.966 86.6482 134.982 86.6265 134.993 86.6022C135.004 86.5779 135.009 86.5516 135.009 86.525C135.009 86.4984 135.004 86.4721 134.993 86.4478C134.982 86.4235 134.966 86.4017 134.947 86.3839C134.927 86.3661 134.904 86.3526 134.878 86.3444C134.853 86.3361 134.826 86.3332 134.8 86.336Z" fill="#093D77"/>
<path d="M137.128 86.1465C137.053 86.1465 136.98 86.1687 136.918 86.2102C136.856 86.2517 136.807 86.3108 136.779 86.3798C136.75 86.4489 136.743 86.5249 136.757 86.5982C136.772 86.6716 136.808 86.7389 136.861 86.7918C136.914 86.8446 136.981 86.8806 137.054 86.8952C137.128 86.9098 137.204 86.9023 137.273 86.8737C137.342 86.8451 137.401 86.7967 137.442 86.7345C137.484 86.6723 137.506 86.5992 137.506 86.5245C137.506 86.4242 137.466 86.3281 137.395 86.2572C137.324 86.1863 137.228 86.1465 137.128 86.1465Z" fill="#093D77"/>
<path d="M135.146 108.8C135.092 109.94 133.364 109.952 133.364 108.8C133.364 107.648 135.092 107.658 135.146 108.8C135.146 108.982 135.438 108.982 135.43 108.8C135.431 108.567 135.362 108.34 135.233 108.146C135.104 107.952 134.92 107.801 134.705 107.712C134.49 107.623 134.253 107.599 134.025 107.645C133.797 107.69 133.587 107.802 133.423 107.967C133.258 108.131 133.146 108.341 133.101 108.569C133.055 108.797 133.079 109.034 133.168 109.249C133.257 109.464 133.408 109.648 133.602 109.777C133.796 109.906 134.023 109.974 134.256 109.974C134.565 109.967 134.86 109.842 135.079 109.623C135.298 109.404 135.423 109.109 135.43 108.8C135.438 108.614 135.156 108.614 135.146 108.8Z" fill="#093D77"/>
<path d="M140 95.7336V106.068C140 106.333 139.895 106.587 139.707 106.775C139.52 106.962 139.265 107.068 139 107.068H129.516C129.251 107.068 128.997 106.962 128.809 106.775C128.621 106.587 128.516 106.333 128.516 106.068V88.6396C128.516 88.3744 128.621 88.1201 128.809 87.9325C128.997 87.745 129.251 87.6396 129.516 87.6396H130.298L140 95.7336Z" fill="#FFEDD2"/>
<path d="M139 87.6338H129.516C129.251 87.6338 128.997 87.7391 128.809 87.9267C128.621 88.1142 128.516 88.3686 128.516 88.6338V89.0618C128.516 88.7966 128.621 88.5422 128.809 88.3547C128.997 88.1671 129.251 88.0618 129.516 88.0618H139C139.265 88.0618 139.52 88.1671 139.707 88.3547C139.895 88.5422 140 88.7966 140 89.0618V88.6398C140.001 88.508 139.976 88.3773 139.926 88.2553C139.876 88.1332 139.802 88.0223 139.709 87.9288C139.616 87.8353 139.506 87.7611 139.384 87.7105C139.262 87.6599 139.132 87.6338 139 87.6338Z" fill="#093D77"/>
<path d="M29.2434 172.36C27.8834 172.36 26.5934 172.11 25.3734 171.61C24.1734 171.11 23.1034 170.4 22.1634 169.48L24.0534 167.2C24.7534 167.88 25.5634 168.41 26.4834 168.79C27.4234 169.15 28.3634 169.33 29.3034 169.33C30.4234 169.33 31.2734 169.1 31.8534 168.64C32.4334 168.18 32.7234 167.57 32.7234 166.81C32.7234 166.27 32.5934 165.84 32.3334 165.52C32.0734 165.18 31.7134 164.89 31.2534 164.65C30.8134 164.41 30.2934 164.17 29.6934 163.93L26.9934 162.76C26.3534 162.48 25.7234 162.12 25.1034 161.68C24.5034 161.22 24.0034 160.66 23.6034 160C23.2234 159.32 23.0334 158.5 23.0334 157.54C23.0334 156.5 23.3134 155.57 23.8734 154.75C24.4534 153.91 25.2334 153.25 26.2134 152.77C27.2134 152.27 28.3534 152.02 29.6334 152.02C30.8134 152.02 31.9234 152.24 32.9634 152.68C34.0234 153.1 34.9234 153.68 35.6634 154.42L33.8334 156.7C33.1934 156.18 32.5234 155.78 31.8234 155.5C31.1234 155.2 30.3934 155.05 29.6334 155.05C28.7134 155.05 27.9634 155.26 27.3834 155.68C26.8234 156.08 26.5434 156.64 26.5434 157.36C26.5434 157.86 26.6834 158.28 26.9634 158.62C27.2634 158.94 27.6534 159.22 28.1334 159.46C28.6334 159.68 29.1434 159.9 29.6634 160.12L32.3334 161.23C33.1134 161.57 33.8034 161.97 34.4034 162.43C35.0034 162.89 35.4634 163.45 35.7834 164.11C36.1234 164.77 36.2934 165.58 36.2934 166.54C36.2934 167.6 36.0134 168.57 35.4534 169.45C34.8934 170.33 34.0834 171.04 33.0234 171.58C31.9834 172.1 30.7234 172.36 29.2434 172.36ZM45.8911 172.36C44.5111 172.36 43.2611 172.06 42.1411 171.46C41.0411 170.84 40.1711 169.96 39.5311 168.82C38.8911 167.66 38.5711 166.26 38.5711 164.62C38.5711 163.02 38.9011 161.65 39.5611 160.51C40.2211 159.35 41.0711 158.46 42.1111 157.84C43.1511 157.22 44.2511 156.91 45.4111 156.91C46.7511 156.91 47.8711 157.21 48.7711 157.81C49.6711 158.41 50.3411 159.24 50.7811 160.3C51.2411 161.34 51.4711 162.54 51.4711 163.9C51.4711 164.22 51.4511 164.53 51.4111 164.83C51.3911 165.13 51.3511 165.42 51.2911 165.7H41.1511V163.06H48.4111C48.4111 162 48.1711 161.17 47.6911 160.57C47.2111 159.95 46.4711 159.64 45.4711 159.64C44.9111 159.64 44.3611 159.79 43.8211 160.09C43.3011 160.39 42.8611 160.9 42.5011 161.62C42.1611 162.34 41.9911 163.34 41.9911 164.62C41.9911 165.78 42.1911 166.73 42.5911 167.47C42.9911 168.19 43.5211 168.73 44.1811 169.09C44.8411 169.43 45.5511 169.6 46.3111 169.6C46.9511 169.6 47.5511 169.51 48.1111 169.33C48.6911 169.15 49.2311 168.9 49.7311 168.58L50.9311 170.8C50.2511 171.28 49.4711 171.66 48.5911 171.94C47.7311 172.22 46.8311 172.36 45.8911 172.36ZM54.7662 172V157.27H57.6162L57.8562 159.88H57.9762C58.4962 158.92 59.1162 158.19 59.8362 157.69C60.5762 157.17 61.3462 156.91 62.1462 156.91C62.5262 156.91 62.8462 156.93 63.1062 156.97C63.3662 157.01 63.6062 157.09 63.8262 157.21L63.1362 160.15C62.8962 160.09 62.6762 160.05 62.4762 160.03C62.2762 159.99 62.0162 159.97 61.6962 159.97C61.1162 159.97 60.5062 160.2 59.8662 160.66C59.2262 161.1 58.6762 161.88 58.2162 163V172H54.7662ZM69.7263 172L64.5963 157.27H68.1063L70.4463 164.92C70.6463 165.62 70.8463 166.35 71.0463 167.11C71.2663 167.85 71.4763 168.6 71.6763 169.36H71.7963C72.0163 168.6 72.2263 167.85 72.4263 167.11C72.6463 166.35 72.8563 165.62 73.0563 164.92L75.3963 157.27H78.7263L73.7163 172H69.7263ZM81.2798 172V157.27H84.7298V172H81.2798ZM82.9898 154.69C82.3898 154.69 81.8898 154.51 81.4898 154.15C81.1098 153.79 80.9198 153.31 80.9198 152.71C80.9198 152.11 81.1098 151.64 81.4898 151.3C81.8898 150.94 82.3898 150.76 82.9898 150.76C83.6098 150.76 84.1098 150.94 84.4898 151.3C84.8698 151.64 85.0598 152.11 85.0598 152.71C85.0598 153.31 84.8698 153.79 84.4898 154.15C84.1098 154.51 83.6098 154.69 82.9898 154.69ZM93.2414 172.36C92.2214 172.36 91.2114 172.17 90.2114 171.79C89.2314 171.41 88.3814 170.88 87.6614 170.2L89.1914 168.22C89.8514 168.76 90.5214 169.15 91.2014 169.39C91.8814 169.63 92.6014 169.75 93.3614 169.75C94.1614 169.75 94.7514 169.58 95.1314 169.24C95.5114 168.9 95.7014 168.48 95.7014 167.98C95.7014 167.58 95.5514 167.24 95.2514 166.96C94.9714 166.68 94.6014 166.44 94.1414 166.24C93.6814 166.04 93.1714 165.84 92.6114 165.64C91.8914 165.38 91.2214 165.07 90.6014 164.71C89.9814 164.33 89.4714 163.87 89.0714 163.33C88.6914 162.77 88.5014 162.1 88.5014 161.32C88.5014 160.02 88.9814 158.96 89.9414 158.14C90.9014 157.32 92.2014 156.91 93.8414 156.91C94.8414 156.91 95.7614 157.08 96.6014 157.42C97.4414 157.74 98.1614 158.16 98.7614 158.68L97.2314 160.63C96.7114 160.25 96.1814 159.97 95.6414 159.79C95.1014 159.61 94.5314 159.52 93.9314 159.52C93.1914 159.52 92.6414 159.68 92.2814 160C91.9214 160.32 91.7414 160.7 91.7414 161.14C91.7414 161.5 91.8514 161.81 92.0714 162.07C92.3114 162.31 92.6514 162.53 93.0914 162.73C93.5314 162.91 94.0614 163.1 94.6814 163.3C95.4414 163.56 96.1514 163.88 96.8114 164.26C97.4714 164.62 97.9914 165.09 98.3714 165.67C98.7714 166.23 98.9714 166.94 98.9714 167.8C98.9714 168.64 98.7514 169.41 98.3114 170.11C97.8714 170.79 97.2214 171.34 96.3614 171.76C95.5214 172.16 94.4814 172.36 93.2414 172.36ZM116.577 172.36C114.817 172.36 113.237 171.97 111.837 171.19C110.437 170.41 109.337 169.27 108.537 167.77C107.737 166.25 107.337 164.41 107.337 162.25C107.337 160.65 107.567 159.22 108.027 157.96C108.507 156.7 109.167 155.63 110.007 154.75C110.867 153.85 111.857 153.17 112.977 152.71C114.097 152.25 115.307 152.02 116.607 152.02C118.007 152.02 119.197 152.27 120.177 152.77C121.157 153.27 121.947 153.85 122.547 154.51L120.687 156.64C120.207 156.16 119.657 155.78 119.037 155.5C118.417 155.2 117.647 155.05 116.727 155.05C115.567 155.05 114.547 155.34 113.667 155.92C112.787 156.48 112.107 157.29 111.627 158.35C111.147 159.41 110.907 160.68 110.907 162.16C110.907 163.64 111.137 164.92 111.597 166C112.057 167.08 112.727 167.91 113.607 168.49C114.507 169.05 115.607 169.33 116.907 169.33C117.467 169.33 117.997 169.26 118.497 169.12C118.997 168.96 119.407 168.74 119.727 168.46V164.23H116.007V161.38H122.847V170.02C122.187 170.68 121.307 171.24 120.207 171.7C119.127 172.14 117.917 172.36 116.577 172.36ZM130.465 172.36C129.605 172.36 128.845 172.18 128.185 171.82C127.525 171.46 127.005 170.96 126.625 170.32C126.265 169.66 126.085 168.9 126.085 168.04C126.085 166.38 126.775 165.13 128.155 164.29C129.555 163.43 131.765 162.84 134.785 162.52C134.765 162.02 134.665 161.56 134.485 161.14C134.325 160.72 134.045 160.39 133.645 160.15C133.265 159.89 132.745 159.76 132.085 159.76C131.365 159.76 130.655 159.89 129.955 160.15C129.275 160.41 128.605 160.74 127.945 161.14L126.685 158.8C127.225 158.46 127.815 158.15 128.455 157.87C129.095 157.57 129.775 157.34 130.495 157.18C131.215 157 131.965 156.91 132.745 156.91C133.965 156.91 134.975 157.16 135.775 157.66C136.595 158.14 137.205 158.86 137.605 159.82C138.025 160.76 138.235 161.92 138.235 163.3V172H135.385L135.145 170.38H135.025C134.345 170.94 133.635 171.41 132.895 171.79C132.155 172.17 131.345 172.36 130.465 172.36ZM131.545 169.54C132.145 169.54 132.695 169.42 133.195 169.18C133.715 168.92 134.245 168.54 134.785 168.04V164.92C133.445 165.08 132.385 165.29 131.605 165.55C130.825 165.81 130.265 166.13 129.925 166.51C129.605 166.87 129.445 167.3 129.445 167.8C129.445 168.42 129.645 168.87 130.045 169.15C130.445 169.41 130.945 169.54 131.545 169.54ZM147.524 172.36C145.684 172.36 144.214 171.68 143.114 170.32C142.014 168.96 141.464 167.07 141.464 164.65C141.464 163.05 141.754 161.67 142.334 160.51C142.934 159.35 143.704 158.46 144.644 157.84C145.604 157.22 146.624 156.91 147.704 156.91C148.544 156.91 149.254 157.05 149.834 157.33C150.434 157.61 151.014 158.01 151.574 158.53L151.454 156.16V150.82H154.904V172H152.054L151.814 170.41H151.694C151.154 170.95 150.524 171.41 149.804 171.79C149.084 172.17 148.324 172.36 147.524 172.36ZM148.364 169.51C148.944 169.51 149.484 169.38 149.984 169.12C150.484 168.84 150.974 168.42 151.454 167.86V160.99C150.954 160.53 150.454 160.21 149.954 160.03C149.454 159.85 148.954 159.76 148.454 159.76C147.814 159.76 147.234 159.95 146.714 160.33C146.214 160.71 145.804 161.26 145.484 161.98C145.184 162.7 145.034 163.58 145.034 164.62C145.034 166.2 145.324 167.41 145.904 168.25C146.484 169.09 147.304 169.51 148.364 169.51ZM164.427 178.51C163.247 178.51 162.197 178.37 161.277 178.09C160.357 177.81 159.627 177.38 159.087 176.8C158.567 176.24 158.307 175.53 158.307 174.67C158.307 174.05 158.487 173.47 158.847 172.93C159.227 172.41 159.747 171.94 160.407 171.52V171.4C160.047 171.16 159.737 170.84 159.477 170.44C159.217 170.04 159.087 169.54 159.087 168.94C159.087 168.38 159.247 167.86 159.567 167.38C159.907 166.9 160.287 166.51 160.707 166.21V166.09C160.207 165.71 159.757 165.18 159.357 164.5C158.977 163.82 158.787 163.05 158.787 162.19C158.787 161.07 159.057 160.12 159.597 159.34C160.137 158.54 160.847 157.94 161.727 157.54C162.607 157.12 163.567 156.91 164.607 156.91C165.007 156.91 165.397 156.94 165.777 157C166.157 157.06 166.487 157.15 166.767 157.27H172.047V159.82H169.287V159.94C169.567 160.24 169.787 160.59 169.947 160.99C170.107 161.37 170.187 161.82 170.187 162.34C170.187 163.42 169.937 164.33 169.437 165.07C168.937 165.81 168.267 166.37 167.427 166.75C166.587 167.13 165.647 167.32 164.607 167.32C164.287 167.32 163.957 167.29 163.617 167.23C163.277 167.17 162.937 167.07 162.597 166.93C162.397 167.13 162.227 167.33 162.087 167.53C161.947 167.73 161.877 168 161.877 168.34C161.877 168.76 162.057 169.09 162.417 169.33C162.777 169.57 163.397 169.69 164.277 169.69H166.887C168.667 169.69 170.007 169.98 170.907 170.56C171.827 171.12 172.287 172.04 172.287 173.32C172.287 174.28 171.967 175.15 171.327 175.93C170.687 176.73 169.777 177.36 168.597 177.82C167.417 178.28 166.027 178.51 164.427 178.51ZM164.607 165.16C165.067 165.16 165.487 165.05 165.867 164.83C166.267 164.59 166.577 164.25 166.797 163.81C167.037 163.35 167.157 162.81 167.157 162.19C167.157 161.25 166.907 160.53 166.407 160.03C165.927 159.53 165.327 159.28 164.607 159.28C163.887 159.28 163.277 159.53 162.777 160.03C162.277 160.53 162.027 161.25 162.027 162.19C162.027 162.81 162.147 163.35 162.387 163.81C162.627 164.25 162.937 164.59 163.317 164.83C163.697 165.05 164.127 165.16 164.607 165.16ZM164.967 176.26C165.747 176.26 166.437 176.15 167.037 175.93C167.637 175.73 168.107 175.44 168.447 175.06C168.787 174.7 168.957 174.31 168.957 173.89C168.957 173.31 168.727 172.92 168.267 172.72C167.827 172.52 167.187 172.42 166.347 172.42H164.337C163.937 172.42 163.577 172.4 163.257 172.36C162.937 172.32 162.627 172.27 162.327 172.21C161.947 172.51 161.657 172.82 161.457 173.14C161.277 173.46 161.187 173.8 161.187 174.16C161.187 174.82 161.527 175.33 162.207 175.69C162.887 176.07 163.807 176.26 164.967 176.26ZM180.745 172.36C179.365 172.36 178.115 172.06 176.995 171.46C175.895 170.84 175.025 169.96 174.385 168.82C173.745 167.66 173.425 166.26 173.425 164.62C173.425 163.02 173.755 161.65 174.415 160.51C175.075 159.35 175.925 158.46 176.965 157.84C178.005 157.22 179.105 156.91 180.265 156.91C181.605 156.91 182.725 157.21 183.625 157.81C184.525 158.41 185.195 159.24 185.635 160.3C186.095 161.34 186.325 162.54 186.325 163.9C186.325 164.22 186.305 164.53 186.265 164.83C186.245 165.13 186.205 165.42 186.145 165.7H176.005V163.06H183.265C183.265 162 183.025 161.17 182.545 160.57C182.065 159.95 181.325 159.64 180.325 159.64C179.765 159.64 179.215 159.79 178.675 160.09C178.155 160.39 177.715 160.9 177.355 161.62C177.015 162.34 176.845 163.34 176.845 164.62C176.845 165.78 177.045 166.73 177.445 167.47C177.845 168.19 178.375 168.73 179.035 169.09C179.695 169.43 180.405 169.6 181.165 169.6C181.805 169.6 182.405 169.51 182.965 169.33C183.545 169.15 184.085 168.9 184.585 168.58L185.785 170.8C185.105 171.28 184.325 171.66 183.445 171.94C182.585 172.22 181.685 172.36 180.745 172.36ZM194.517 172.3C192.817 172.3 191.607 171.81 190.887 170.83C190.187 169.83 189.837 168.54 189.837 166.96V160H187.737V157.42L190.017 157.27L190.437 152.65H193.317V157.27H197.067V160H193.317V166.96C193.317 167.82 193.487 168.47 193.827 168.91C194.167 169.33 194.687 169.54 195.387 169.54C195.647 169.54 195.907 169.52 196.167 169.48C196.427 169.44 196.677 169.36 196.917 169.24L197.547 171.67C197.167 171.85 196.717 172 196.197 172.12C195.677 172.24 195.117 172.3 194.517 172.3Z" fill="black"/>
</svg>
