<svg width="220" height="220" viewBox="0 0 220 220" fill="none" xmlns="http://www.w3.org/2000/svg">
<rect x="0.5" y="0.5" width="219" height="219" rx="19.5" fill="white" stroke="#093D77"/>
<path d="M72.783 172V155.32H67.113V152.38H81.933V155.32H76.263V172H72.783ZM86.4192 172.36C85.5592 172.36 84.7992 172.18 84.1392 171.82C83.4792 171.46 82.9592 170.96 82.5792 170.32C82.2192 169.66 82.0392 168.9 82.0392 168.04C82.0392 166.38 82.7292 165.13 84.1092 164.29C85.5092 163.43 87.7192 162.84 90.7392 162.52C90.7192 162.02 90.6192 161.56 90.4392 161.14C90.2792 160.72 89.9992 160.39 89.5992 160.15C89.2192 159.89 88.6992 159.76 88.0392 159.76C87.3192 159.76 86.6092 159.89 85.9092 160.15C85.2292 160.41 84.5592 160.74 83.8992 161.14L82.6392 158.8C83.1792 158.46 83.7692 158.15 84.4092 157.87C85.0492 157.57 85.7292 157.34 86.4492 157.18C87.1692 157 87.9192 156.91 88.6992 156.91C89.9192 156.91 90.9292 157.16 91.7292 157.66C92.5492 158.14 93.1592 158.86 93.5592 159.82C93.9792 160.76 94.1892 161.92 94.1892 163.3V172H91.3392L91.0992 170.38H90.9792C90.2992 170.94 89.5892 171.41 88.8492 171.79C88.1092 172.17 87.2992 172.36 86.4192 172.36ZM87.4992 169.54C88.0992 169.54 88.6492 169.42 89.1492 169.18C89.6692 168.92 90.1992 168.54 90.7392 168.04V164.92C89.3992 165.08 88.3392 165.29 87.5592 165.55C86.7792 165.81 86.2192 166.13 85.8792 166.51C85.5592 166.87 85.3992 167.3 85.3992 167.8C85.3992 168.42 85.5992 168.87 85.9992 169.15C86.3992 169.41 86.8992 169.54 87.4992 169.54ZM98.3179 172V157.27H101.168L101.408 159.28H101.528C102.148 158.62 102.818 158.06 103.538 157.6C104.278 157.14 105.108 156.91 106.028 156.91C107.128 156.91 107.998 157.14 108.638 157.6C109.278 158.06 109.768 158.71 110.108 159.55C110.808 158.79 111.538 158.16 112.298 157.66C113.058 157.16 113.908 156.91 114.848 156.91C116.408 156.91 117.558 157.42 118.298 158.44C119.038 159.46 119.408 160.9 119.408 162.76V172H115.928V163.21C115.928 161.99 115.748 161.13 115.388 160.63C115.028 160.13 114.458 159.88 113.678 159.88C113.198 159.88 112.708 160.03 112.208 160.33C111.708 160.63 111.168 161.09 110.588 161.71V172H107.138V163.21C107.138 161.99 106.948 161.13 106.568 160.63C106.208 160.13 105.638 159.88 104.858 159.88C103.938 159.88 102.908 160.49 101.768 161.71V172H98.3179ZM127.171 172.36C126.311 172.36 125.551 172.18 124.891 171.82C124.231 171.46 123.711 170.96 123.331 170.32C122.971 169.66 122.791 168.9 122.791 168.04C122.791 166.38 123.481 165.13 124.861 164.29C126.261 163.43 128.471 162.84 131.491 162.52C131.471 162.02 131.371 161.56 131.191 161.14C131.031 160.72 130.751 160.39 130.351 160.15C129.971 159.89 129.451 159.76 128.791 159.76C128.071 159.76 127.361 159.89 126.661 160.15C125.981 160.41 125.311 160.74 124.651 161.14L123.391 158.8C123.931 158.46 124.521 158.15 125.161 157.87C125.801 157.57 126.481 157.34 127.201 157.18C127.921 157 128.671 156.91 129.451 156.91C130.671 156.91 131.681 157.16 132.481 157.66C133.301 158.14 133.911 158.86 134.311 159.82C134.731 160.76 134.941 161.92 134.941 163.3V172H132.091L131.851 170.38H131.731C131.051 170.94 130.341 171.41 129.601 171.79C128.861 172.17 128.051 172.36 127.171 172.36ZM128.251 169.54C128.851 169.54 129.401 169.42 129.901 169.18C130.421 168.92 130.951 168.54 131.491 168.04V164.92C130.151 165.08 129.091 165.29 128.311 165.55C127.531 165.81 126.971 166.13 126.631 166.51C126.311 166.87 126.151 167.3 126.151 167.8C126.151 168.42 126.351 168.87 126.751 169.15C127.151 169.41 127.651 169.54 128.251 169.54ZM139.07 172V157.27H141.92L142.16 159.25H142.28C142.94 158.61 143.66 158.06 144.44 157.6C145.22 157.14 146.11 156.91 147.11 156.91C148.69 156.91 149.84 157.42 150.56 158.44C151.28 159.46 151.64 160.9 151.64 162.76V172H148.19V163.21C148.19 161.99 148.01 161.13 147.65 160.63C147.29 160.13 146.7 159.88 145.88 159.88C145.24 159.88 144.67 160.04 144.17 160.36C143.69 160.66 143.14 161.11 142.52 161.71V172H139.07Z" fill="black"/>
<path d="M88.6798 59.872C93.9326 59.872 98.9702 61.9584 102.685 65.6723C106.399 69.3861 108.487 74.4233 108.488 79.676V86.932C108.488 92.1854 106.401 97.2237 102.686 100.938C98.9715 104.653 93.9333 106.74 88.6798 106.74H87.9758C82.7231 106.739 77.6859 104.652 73.9721 100.937C70.2582 97.2224 68.1718 92.1848 68.1718 86.932V79.676C68.1718 74.4237 70.2583 69.3865 73.9723 65.6725C77.6863 61.9585 82.7235 59.872 87.9758 59.872H88.6798ZM88.6798 56.644H87.9758C81.8693 56.6504 76.0147 59.079 71.6968 63.397C67.3788 67.7149 64.9502 73.5695 64.9438 79.676V86.932C64.9502 93.0389 67.3787 98.8939 71.6965 103.213C76.0144 107.531 81.869 109.961 87.9758 109.968H88.6798C94.7874 109.962 100.643 107.533 104.962 103.214C109.28 98.8952 111.709 93.0396 111.716 86.932V79.676C111.708 73.5692 109.279 67.7146 104.96 63.3967C100.642 59.0789 94.7867 56.6504 88.6798 56.644Z" fill="#093D77"/>
<path d="M136.008 82.6001H110.756V84.0121H136.008V82.6001Z" fill="#15B6B8"/>
<path d="M150.636 69.6479L146.896 73.3879L153.484 79.9999L153.524 79.9599C154.506 78.9774 155.058 77.6451 155.058 76.2559C155.058 74.8668 154.506 73.5345 153.524 72.5519L150.636 69.6479Z" fill="#093D77"/>
<path d="M150.636 69.6481L147.484 66.4961C146.998 66.0094 146.42 65.6233 145.785 65.3599C145.149 65.0965 144.468 64.9609 143.78 64.9609C143.092 64.9609 142.411 65.0965 141.775 65.3599C141.14 65.6233 140.562 66.0094 140.076 66.4961L140.04 66.5321L146.896 73.3881L150.636 69.6481Z" fill="#0D4A82"/>
<path d="M141.832 78.4482L143.316 79.9322L153.484 79.9802L146.896 73.3882L141.832 78.4482Z" fill="#18A09C"/>
<path d="M146.896 73.3882L140.04 66.5322L140.088 76.7042L141.832 78.4482L146.896 73.3882Z" fill="#15B6B8"/>
<path d="M113.372 106.912L116 111.06L143.316 79.9322L141.832 78.4482L113.372 106.912Z" fill="#18A09C"/>
<path d="M140.088 76.7041L111 103.172L113.372 106.912L141.832 78.4481L140.088 76.7041Z" fill="#15B6B8"/>
<path d="M80.1918 76.4481L77.4878 115.356H96.8918V71.8521H85.1158C83.8659 71.8531 82.6628 72.3279 81.749 73.1807C80.8353 74.0336 80.2788 75.2012 80.1918 76.4481Z" fill="#15B6B8"/>
<path d="M93.872 74.8799C92.885 75.5109 91.7932 75.9607 90.648 76.2079C87.944 76.7159 85.848 79.3319 85.692 82.0799L83.964 112.332H80.728L82.936 80.6159C83.0306 79.2391 83.6187 77.9426 84.5923 76.9646C85.5659 75.9866 86.8597 75.3927 88.236 75.2919L93.872 74.8799Z" fill="#EDFCFF"/>
<path d="M108.668 71.8521H96.8921V115.356H116.3L113.6 76.4481C113.513 75.1998 112.955 74.0311 112.04 73.178C111.124 72.3249 109.919 71.851 108.668 71.8521Z" fill="#18A09C"/>
<path d="M113.052 112.332H99.9199V109.976H110.704L111 80.8359L113.052 112.332Z" fill="#EDFCFF"/>
<path d="M92.3999 99.396C92.3999 100.603 92.8795 101.761 93.7332 102.615C94.5868 103.468 95.7446 103.948 96.9519 103.948V89.792C96.9519 89.792 92.3999 96.884 92.3999 99.396Z" fill="#C2FCFF"/>
<path d="M96.9561 89.792V103.948C98.1626 103.947 99.3194 103.467 100.172 102.613C101.025 101.76 101.504 100.603 101.504 99.396C101.504 96.884 96.9561 89.792 96.9561 89.792Z" fill="#A6F7FF"/>
<path d="M96.364 100.24C96.364 100.507 96.2849 100.767 96.1368 100.989C95.9887 101.211 95.7781 101.383 95.5318 101.485C95.2855 101.588 95.0145 101.614 94.753 101.562C94.4915 101.51 94.2513 101.382 94.0628 101.193C93.8743 101.005 93.7459 100.765 93.6939 100.503C93.6419 100.242 93.6686 99.9706 93.7706 99.7242C93.8726 99.4779 94.0454 99.2674 94.2671 99.1193C94.4887 98.9711 94.7494 98.8921 95.016 98.8921C95.193 98.8921 95.3683 98.927 95.5318 98.9947C95.6954 99.0624 95.844 99.1617 95.9691 99.2869C96.0943 99.4121 96.1936 99.5607 96.2614 99.7242C96.3291 99.8878 96.364 100.063 96.364 100.24Z" fill="white"/>
</svg>
