<svg width="220" height="220" viewBox="0 0 220 220" fill="none" xmlns="http://www.w3.org/2000/svg">
<rect x="0.5" y="0.5" width="219" height="219" rx="19.5" fill="white" stroke="#093D77"/>
<path d="M70.9324 172V152.38H74.4124V161.29H74.5024L81.4924 152.38H85.3624L79.3324 160.03L86.3824 172H82.5424L77.2324 162.76L74.4124 166.27V172H70.9324ZM94.5112 172.36C93.1312 172.36 91.8812 172.06 90.7612 171.46C89.6612 170.84 88.7912 169.96 88.1512 168.82C87.5112 167.66 87.1912 166.26 87.1912 164.62C87.1912 163.02 87.5212 161.65 88.1812 160.51C88.8412 159.35 89.6912 158.46 90.7312 157.84C91.7712 157.22 92.8712 156.91 94.0312 156.91C95.3712 156.91 96.4912 157.21 97.3912 157.81C98.2912 158.41 98.9612 159.24 99.4012 160.3C99.8612 161.34 100.091 162.54 100.091 163.9C100.091 164.22 100.071 164.53 100.031 164.83C100.011 165.13 99.9712 165.42 99.9112 165.7H89.7712V163.06H97.0312C97.0312 162 96.7912 161.17 96.3112 160.57C95.8312 159.95 95.0912 159.64 94.0912 159.64C93.5312 159.64 92.9812 159.79 92.4412 160.09C91.9212 160.39 91.4812 160.9 91.1212 161.62C90.7812 162.34 90.6112 163.34 90.6112 164.62C90.6112 165.78 90.8112 166.73 91.2112 167.47C91.6112 168.19 92.1412 168.73 92.8012 169.09C93.4612 169.43 94.1712 169.6 94.9312 169.6C95.5712 169.6 96.1712 169.51 96.7312 169.33C97.3112 169.15 97.8512 168.9 98.3512 168.58L99.5512 170.8C98.8712 171.28 98.0912 171.66 97.2112 171.94C96.3512 172.22 95.4512 172.36 94.5112 172.36ZM110.526 172.36C109.866 172.36 109.186 172.2 108.486 171.88C107.806 171.54 107.146 171.06 106.506 170.44H106.416L106.116 172H103.386V150.82H106.836V156.28L106.746 158.74C107.366 158.2 108.036 157.76 108.756 157.42C109.496 157.08 110.246 156.91 111.006 156.91C112.226 156.91 113.266 157.22 114.126 157.84C115.006 158.46 115.676 159.33 116.136 160.45C116.596 161.55 116.826 162.86 116.826 164.38C116.826 166.06 116.526 167.5 115.926 168.7C115.326 169.88 114.546 170.79 113.586 171.43C112.646 172.05 111.626 172.36 110.526 172.36ZM109.806 169.51C110.466 169.51 111.056 169.32 111.576 168.94C112.096 168.56 112.506 168 112.806 167.26C113.106 166.5 113.256 165.56 113.256 164.44C113.256 163.46 113.146 162.62 112.926 161.92C112.706 161.22 112.356 160.69 111.876 160.33C111.416 159.95 110.816 159.76 110.076 159.76C109.536 159.76 109.006 159.9 108.486 160.18C107.966 160.44 107.416 160.85 106.836 161.41V168.28C107.356 168.72 107.876 169.04 108.396 169.24C108.916 169.42 109.386 169.51 109.806 169.51ZM124.671 172.36C123.091 172.36 121.941 171.85 121.221 170.83C120.501 169.81 120.141 168.37 120.141 166.51V157.27H123.591V166.06C123.591 167.28 123.771 168.14 124.131 168.64C124.491 169.14 125.071 169.39 125.871 169.39C126.511 169.39 127.071 169.23 127.551 168.91C128.051 168.59 128.581 168.07 129.141 167.35V157.27H132.591V172H129.771L129.501 169.84H129.411C128.771 170.6 128.071 171.21 127.311 171.67C126.551 172.13 125.671 172.36 124.671 172.36ZM136.961 172V157.27H139.811L140.051 159.25H140.171C140.831 158.61 141.551 158.06 142.331 157.6C143.111 157.14 144.001 156.91 145.001 156.91C146.581 156.91 147.731 157.42 148.451 158.44C149.171 159.46 149.531 160.9 149.531 162.76V172H146.081V163.21C146.081 161.99 145.901 161.13 145.541 160.63C145.181 160.13 144.591 159.88 143.771 159.88C143.131 159.88 142.561 160.04 142.061 160.36C141.581 160.66 141.031 161.11 140.411 161.71V172H136.961Z" fill="black"/>
<path d="M88.6798 59.872C93.9326 59.872 98.9702 61.9584 102.685 65.6723C106.399 69.3861 108.487 74.4233 108.488 79.676V86.932C108.488 92.1854 106.401 97.2237 102.686 100.938C98.9715 104.653 93.9333 106.74 88.6798 106.74H87.9758C82.7231 106.739 77.6859 104.652 73.9721 100.937C70.2582 97.2224 68.1718 92.1848 68.1718 86.932V79.676C68.1718 74.4237 70.2583 69.3865 73.9723 65.6725C77.6863 61.9585 82.7235 59.872 87.9758 59.872H88.6798ZM88.6798 56.644H87.9758C81.8693 56.6504 76.0147 59.079 71.6968 63.397C67.3788 67.7149 64.9502 73.5695 64.9438 79.676V86.932C64.9502 93.0389 67.3787 98.8939 71.6965 103.213C76.0144 107.531 81.869 109.961 87.9758 109.968H88.6798C94.7874 109.962 100.643 107.533 104.962 103.214C109.28 98.8952 111.709 93.0396 111.716 86.932V79.676C111.708 73.5692 109.279 67.7146 104.96 63.3967C100.642 59.0789 94.7867 56.6504 88.6798 56.644Z" fill="#093D77"/>
<path d="M136.008 82.6001H110.756V84.0121H136.008V82.6001Z" fill="#15B6B8"/>
<path d="M150.636 69.6479L146.896 73.3879L153.484 79.9999L153.524 79.9599C154.506 78.9774 155.058 77.6451 155.058 76.2559C155.058 74.8668 154.506 73.5345 153.524 72.5519L150.636 69.6479Z" fill="#093D77"/>
<path d="M150.636 69.6481L147.484 66.4961C146.998 66.0094 146.42 65.6233 145.785 65.3599C145.149 65.0965 144.468 64.9609 143.78 64.9609C143.092 64.9609 142.411 65.0965 141.775 65.3599C141.14 65.6233 140.562 66.0094 140.076 66.4961L140.04 66.5321L146.896 73.3881L150.636 69.6481Z" fill="#0D4A82"/>
<path d="M141.832 78.4482L143.316 79.9322L153.484 79.9802L146.896 73.3882L141.832 78.4482Z" fill="#18A09C"/>
<path d="M146.896 73.3882L140.04 66.5322L140.088 76.7042L141.832 78.4482L146.896 73.3882Z" fill="#15B6B8"/>
<path d="M113.372 106.912L116 111.06L143.316 79.9322L141.832 78.4482L113.372 106.912Z" fill="#18A09C"/>
<path d="M140.088 76.7041L111 103.172L113.372 106.912L141.832 78.4481L140.088 76.7041Z" fill="#15B6B8"/>
<path d="M80.1918 76.4481L77.4878 115.356H96.8918V71.8521H85.1158C83.8659 71.8531 82.6628 72.3279 81.749 73.1807C80.8353 74.0336 80.2788 75.2012 80.1918 76.4481Z" fill="#15B6B8"/>
<path d="M93.872 74.8799C92.885 75.5109 91.7932 75.9607 90.648 76.2079C87.944 76.7159 85.848 79.3319 85.692 82.0799L83.964 112.332H80.728L82.936 80.6159C83.0306 79.2391 83.6187 77.9426 84.5923 76.9646C85.5659 75.9866 86.8597 75.3927 88.236 75.2919L93.872 74.8799Z" fill="#EDFCFF"/>
<path d="M108.668 71.8521H96.8921V115.356H116.3L113.6 76.4481C113.513 75.1998 112.955 74.0311 112.04 73.178C111.124 72.3249 109.919 71.851 108.668 71.8521Z" fill="#18A09C"/>
<path d="M113.052 112.332H99.9199V109.976H110.704L111 80.8359L113.052 112.332Z" fill="#EDFCFF"/>
<path d="M92.3999 99.396C92.3999 100.603 92.8795 101.761 93.7332 102.615C94.5868 103.468 95.7446 103.948 96.9519 103.948V89.792C96.9519 89.792 92.3999 96.884 92.3999 99.396Z" fill="#C2FCFF"/>
<path d="M96.9561 89.792V103.948C98.1626 103.947 99.3194 103.467 100.172 102.613C101.025 101.76 101.504 100.603 101.504 99.396C101.504 96.884 96.9561 89.792 96.9561 89.792Z" fill="#A6F7FF"/>
<path d="M96.364 100.24C96.364 100.507 96.2849 100.767 96.1368 100.989C95.9887 101.211 95.7781 101.383 95.5318 101.485C95.2855 101.588 95.0145 101.614 94.753 101.562C94.4915 101.51 94.2513 101.382 94.0628 101.193C93.8743 101.005 93.7459 100.765 93.6939 100.503C93.6419 100.242 93.6686 99.9706 93.7706 99.7242C93.8726 99.4779 94.0454 99.2674 94.2671 99.1193C94.4887 98.9711 94.7494 98.8921 95.016 98.8921C95.193 98.8921 95.3683 98.927 95.5318 98.9947C95.6954 99.0624 95.844 99.1617 95.9691 99.2869C96.0943 99.4121 96.1936 99.5607 96.2614 99.7242C96.3291 99.8878 96.364 100.063 96.364 100.24Z" fill="white"/>
</svg>
