<svg width="40" height="40" viewBox="0 0 40 40" fill="none" xmlns="http://www.w3.org/2000/svg">
<path d="M37.0864 12.4722C37.0868 12.2234 37.0381 11.977 36.9431 11.7471C36.8481 11.5171 36.7086 11.3082 36.5327 11.1323C36.3568 10.9564 36.1479 10.8169 35.9179 10.7219C35.688 10.6269 35.4416 10.5782 35.1928 10.5786H4.81437C4.56522 10.5781 4.31839 10.6267 4.08801 10.7215C3.85763 10.8164 3.6482 10.9558 3.47168 11.1316C3.29516 11.3075 3.15502 11.5164 3.05926 11.7464C2.9635 11.9764 2.91399 12.2231 2.91357 12.4722V20.597H37.0864V12.4722Z" fill="#093D77"/>
<g opacity="0.8">
<path d="M2.91357 20.5967V21.4399C2.91357 22.2495 3.23357 23.0839 4.00957 23.5959C4.36237 23.7847 4.88957 23.9535 5.65917 23.9535H5.82717H34.1808H34.348C35.1144 23.9535 35.6416 23.7847 35.9944 23.5959C36.7664 23.0839 37.0864 22.2495 37.0864 21.4399V20.5967H2.91357Z" fill="#093D77"/>
</g>
<path d="M36.3154 19.2081C36.3152 19.0288 36.2439 18.8569 36.1172 18.73C35.9905 18.6031 35.8187 18.5317 35.6394 18.5312H4.35942C4.18005 18.5317 4.00815 18.6031 3.88131 18.7299C3.75448 18.8568 3.68304 19.0287 3.68262 19.2081L3.76022 20.5968H36.2402L36.3154 19.2081Z" fill="#25AFB0"/>
<path d="M4.24537 23.1647C4.42676 23.2569 4.62835 23.3023 4.83177 23.2967C4.85257 23.2967 4.87257 23.3023 4.89177 23.3023H35.1086C35.1278 23.3023 35.147 23.2967 35.1678 23.2967C35.371 23.3029 35.5725 23.2584 35.7542 23.1671C35.8783 23.0822 35.979 22.9674 36.0471 22.8333C36.1152 22.6992 36.1484 22.5502 36.1438 22.3999L36.2398 20.5967H3.75977L3.85657 22.3999C3.85208 22.5497 3.88534 22.6983 3.95328 22.8319C4.02121 22.9656 4.12165 23.08 4.24537 23.1647Z" fill="#14B6B8"/>
<path d="M36.0162 21.0872C36.0162 21.1227 36.0021 21.1568 35.9771 21.182C35.9521 21.2071 35.9181 21.2214 35.8826 21.2216H4.08819C4.05268 21.2214 4.0187 21.2071 3.99367 21.182C3.96864 21.1568 3.95459 21.1227 3.95459 21.0872C3.95459 21.0697 3.95805 21.0523 3.96476 21.0361C3.97147 21.0199 3.98131 21.0051 3.99372 20.9927C4.00613 20.9803 4.02085 20.9705 4.03706 20.9638C4.05327 20.9571 4.07065 20.9536 4.08819 20.9536H35.8826C35.9001 20.9536 35.9175 20.9571 35.9337 20.9638C35.9499 20.9705 35.9647 20.9803 35.9771 20.9927C35.9895 21.0051 35.9993 21.0199 36.006 21.0361C36.0127 21.0523 36.0162 21.0697 36.0162 21.0872Z" fill="#FFCF89"/>
<path d="M35.8225 21.6673C35.8225 21.6848 35.8191 21.7022 35.8123 21.7184C35.8056 21.7346 35.7958 21.7494 35.7834 21.7618C35.771 21.7742 35.7563 21.784 35.74 21.7907C35.7238 21.7974 35.7065 21.8009 35.6889 21.8009H4.32891C4.31137 21.8009 4.294 21.7974 4.27779 21.7907C4.26158 21.784 4.24685 21.7742 4.23444 21.7618C4.22204 21.7494 4.2122 21.7346 4.20548 21.7184C4.19877 21.7022 4.19531 21.6848 4.19531 21.6673C4.19531 21.6319 4.20939 21.5979 4.23444 21.5728C4.2595 21.5478 4.29348 21.5337 4.32891 21.5337H35.6889C35.7243 21.5337 35.7583 21.5478 35.7834 21.5728C35.8084 21.5979 35.8225 21.6319 35.8225 21.6673Z" fill="#FFCF89"/>
<path d="M35.6886 22.2322C35.6886 22.2677 35.6746 22.3016 35.6495 22.3267C35.6245 22.3518 35.5905 22.3658 35.555 22.3658H4.44464C4.42709 22.3658 4.40972 22.3624 4.39351 22.3557C4.3773 22.3489 4.36257 22.3391 4.35017 22.3267C4.33776 22.3143 4.32792 22.2996 4.3212 22.2834C4.31449 22.2672 4.31104 22.2498 4.31104 22.2322C4.31104 22.2147 4.31449 22.1973 4.3212 22.1811C4.32792 22.1649 4.33776 22.1502 4.35017 22.1378C4.36257 22.1254 4.3773 22.1155 4.39351 22.1088C4.40972 22.1021 4.42709 22.0986 4.44464 22.0986H35.555C35.5905 22.0986 35.6245 22.1127 35.6495 22.1378C35.6746 22.1628 35.6886 22.1968 35.6886 22.2322Z" fill="#FFCF89"/>
<path d="M35.5999 22.8001C35.5999 22.8177 35.5964 22.8352 35.5897 22.8514C35.5829 22.8677 35.573 22.8824 35.5605 22.8949C35.548 22.9073 35.5332 22.9171 35.5169 22.9238C35.5006 22.9304 35.4831 22.9338 35.4655 22.9337H4.5343C4.51669 22.9338 4.49923 22.9304 4.48293 22.9238C4.46663 22.9171 4.45181 22.9073 4.43932 22.8949C4.42682 22.8824 4.41691 22.8677 4.41015 22.8514C4.40338 22.8352 4.3999 22.8177 4.3999 22.8001C4.40011 22.7646 4.41437 22.7306 4.43955 22.7056C4.46473 22.6806 4.4988 22.6665 4.5343 22.6665H35.4655C35.501 22.6665 35.5351 22.6806 35.5603 22.7056C35.5854 22.7306 35.5997 22.7646 35.5999 22.8001Z" fill="#FFCF89"/>
<path d="M24.6446 17.5202C24.6446 17.6227 24.6039 17.721 24.5314 17.7934C24.4589 17.8659 24.3607 17.9066 24.2582 17.9066H15.7414C15.6389 17.9066 15.5406 17.8659 15.4682 17.7934C15.3957 17.721 15.355 17.6227 15.355 17.5202C15.355 17.4694 15.365 17.4192 15.3844 17.3723C15.4038 17.3254 15.4323 17.2828 15.4682 17.247C15.504 17.2111 15.5466 17.1826 15.5935 17.1632C15.6404 17.1438 15.6906 17.1338 15.7414 17.1338H24.2582C24.3089 17.1338 24.3592 17.1438 24.406 17.1632C24.4529 17.1826 24.4955 17.2111 24.5314 17.247C24.5673 17.2828 24.5957 17.3254 24.6152 17.3723C24.6346 17.4192 24.6446 17.4694 24.6446 17.5202Z" fill="#14B6B8"/>
<path d="M35.5553 14.0726L35.3529 13.9598L35.5033 13.9142C35.5074 13.9131 35.5113 13.9112 35.5146 13.9085C35.518 13.9059 35.5207 13.9026 35.5228 13.8989C35.5248 13.8951 35.526 13.891 35.5264 13.8867C35.5268 13.8825 35.5263 13.8782 35.5249 13.8742C35.5233 13.8676 35.5195 13.8617 35.5141 13.8575C35.5088 13.8533 35.5021 13.851 35.4953 13.851C35.4924 13.8502 35.4894 13.8502 35.4865 13.851L35.2745 13.915L35.1417 13.8414L35.3913 13.7686C35.3995 13.7662 35.4065 13.7606 35.4107 13.7532C35.4149 13.7457 35.416 13.7369 35.4137 13.7286C35.4117 13.722 35.4077 13.7163 35.4023 13.7121C35.3968 13.7079 35.3902 13.7056 35.3833 13.7054H35.3737L35.0625 13.7958L34.5825 13.5278L34.9209 13.491C34.9293 13.4896 34.9369 13.4852 34.9422 13.4785C34.9476 13.4719 34.9502 13.4635 34.9497 13.455C34.9485 13.4467 34.9442 13.4392 34.9377 13.434C34.9311 13.4288 34.9229 13.4263 34.9145 13.427L34.5305 13.4686L34.9969 13.159L35.2833 13.239H35.2929C35.2997 13.239 35.3064 13.2367 35.3117 13.2325C35.3171 13.2283 35.3209 13.2224 35.3225 13.2158C35.3257 13.2078 35.3257 13.199 35.3225 13.191C35.3206 13.1875 35.3179 13.1844 35.3148 13.182C35.3116 13.1795 35.308 13.1777 35.3041 13.1766L35.0713 13.1134L35.1961 13.0334L35.3985 13.0862C35.4011 13.087 35.4039 13.087 35.4065 13.0862C35.4134 13.086 35.4201 13.0836 35.4254 13.0792C35.4308 13.0749 35.4345 13.0689 35.4361 13.0622C35.4379 13.0584 35.4388 13.0543 35.4388 13.0502C35.4388 13.046 35.4379 13.0419 35.4361 13.0382C35.4319 13.0308 35.425 13.0254 35.4169 13.023L35.2697 12.9846L35.4665 12.8542C35.4736 12.8495 35.4786 12.8421 35.4804 12.8337C35.4822 12.8254 35.4807 12.8166 35.4761 12.8094C35.4735 12.8049 35.4698 12.8012 35.4653 12.7987C35.4608 12.7961 35.4557 12.7949 35.4505 12.795C35.4442 12.7951 35.4381 12.7971 35.4329 12.8006L35.2377 12.9302L35.2689 12.7702C35.2697 12.766 35.2697 12.7618 35.2689 12.7576C35.268 12.7535 35.2663 12.7495 35.264 12.746C35.2616 12.7426 35.2585 12.7396 35.255 12.7373C35.2514 12.7349 35.2475 12.7334 35.2433 12.7326H35.2377C35.2302 12.7328 35.223 12.7355 35.2172 12.7403C35.2114 12.745 35.2073 12.7516 35.2057 12.759L35.1625 12.9774L35.0353 13.0574L35.0897 12.8022C35.0914 12.7939 35.0897 12.7853 35.0851 12.7783C35.0804 12.7712 35.0732 12.7663 35.0649 12.7646H35.0593C35.0518 12.7644 35.0445 12.7669 35.0387 12.7716C35.0328 12.7763 35.0288 12.7829 35.0273 12.7902L34.9601 13.1102L34.5385 13.3894L34.7033 13.0814C34.7051 13.0775 34.706 13.0733 34.706 13.069C34.706 13.0647 34.7051 13.0605 34.7033 13.0566C34.7009 13.0487 34.6954 13.0421 34.6881 13.0382C34.6844 13.0361 34.6803 13.0348 34.6761 13.0344C34.6719 13.034 34.6676 13.0344 34.6636 13.0357C34.6596 13.037 34.6558 13.0391 34.6526 13.0418C34.6494 13.0446 34.6468 13.048 34.6449 13.0518L34.4745 13.3718L34.4657 12.8006L34.6873 12.5942C34.6932 12.5881 34.6965 12.5799 34.6965 12.5714C34.6965 12.5629 34.6932 12.5547 34.6873 12.5486C34.6845 12.5455 34.681 12.5431 34.6771 12.5414C34.6733 12.5398 34.6691 12.539 34.6649 12.539C34.6608 12.5388 34.6566 12.5395 34.6528 12.541C34.6489 12.5425 34.6454 12.5448 34.6425 12.5478L34.4617 12.7198V12.5694L34.6177 12.4222C34.6237 12.4162 34.6274 12.4082 34.6281 12.3998C34.6281 12.3912 34.625 12.383 34.6193 12.3766C34.6165 12.3732 34.6129 12.3706 34.6089 12.3688C34.6049 12.367 34.6005 12.3661 34.5961 12.3662C34.5881 12.3662 34.5803 12.3694 34.5745 12.375L34.4577 12.4798V12.2358C34.4573 12.2275 34.4538 12.2197 34.4479 12.2139C34.4419 12.2081 34.434 12.2048 34.4257 12.2046C34.4174 12.2052 34.4095 12.2089 34.4038 12.2149C34.398 12.221 34.3947 12.229 34.3945 12.2374L34.3985 12.4774L34.2857 12.3702C34.2798 12.3648 34.2721 12.3619 34.2641 12.3622C34.2598 12.3621 34.2555 12.363 34.2515 12.3646C34.2476 12.3663 34.2439 12.3687 34.2409 12.3718C34.2379 12.3748 34.2355 12.3785 34.2338 12.3824C34.2322 12.3864 34.2313 12.3907 34.2313 12.395C34.2313 12.3993 34.2322 12.4036 34.2338 12.4075C34.2355 12.4115 34.2379 12.4151 34.2409 12.4182L34.4009 12.5678V12.7206L34.2161 12.5414C34.2134 12.5386 34.2102 12.5364 34.2066 12.5349C34.203 12.5334 34.1992 12.5326 34.1953 12.5326C34.1863 12.5328 34.1776 12.5365 34.1713 12.543C34.1654 12.5491 34.1621 12.5573 34.1621 12.5658C34.1621 12.5743 34.1654 12.5825 34.1713 12.5886L34.4009 12.8118L34.4097 13.3718L34.2225 13.0694C34.2197 13.0647 34.2157 13.0608 34.211 13.0582C34.2062 13.0555 34.2008 13.0541 34.1953 13.0542C34.1896 13.0542 34.1841 13.0558 34.1793 13.059C34.1721 13.0635 34.167 13.0706 34.165 13.0788C34.1631 13.0871 34.1645 13.0958 34.1689 13.103L34.3585 13.4094L33.9073 13.159L33.8433 12.8638C33.8419 12.8568 33.838 12.8505 33.8325 12.846C33.827 12.8415 33.8201 12.839 33.8129 12.839H33.8057C33.8016 12.8398 33.7976 12.8415 33.7941 12.8439C33.7907 12.8463 33.7877 12.8494 33.7855 12.853C33.7832 12.8566 33.7817 12.8606 33.7811 12.8648C33.7804 12.869 33.7807 12.8733 33.7817 12.8774L33.8321 13.1174L33.7025 13.0454L33.6553 12.8366C33.654 12.8297 33.6504 12.8234 33.645 12.8189C33.6396 12.8144 33.6328 12.8119 33.6257 12.8118H33.6185C33.6142 12.8127 33.6101 12.8145 33.6065 12.8171C33.6029 12.8198 33.5999 12.8231 33.5977 12.827C33.5955 12.8304 33.594 12.8342 33.5933 12.8382C33.5926 12.8422 33.5928 12.8463 33.5937 12.8502L33.6281 13.003L33.4137 12.8798C33.409 12.8784 33.404 12.8784 33.3993 12.8798C33.3942 12.8797 33.3892 12.8808 33.3846 12.883C33.3801 12.8852 33.3761 12.8885 33.373 12.8926C33.37 12.8966 33.368 12.9014 33.3671 12.9064C33.3662 12.9114 33.3666 12.9165 33.3681 12.9214C33.3705 12.9293 33.376 12.9359 33.3833 12.9398L33.5889 13.0542L33.4401 13.099C33.4326 13.1013 33.4262 13.1062 33.4219 13.1128C33.4177 13.1194 33.4159 13.1273 33.4168 13.1351C33.4178 13.1429 33.4214 13.1501 33.4271 13.1555C33.4329 13.1609 33.4403 13.1641 33.4481 13.1646C33.4481 13.1646 33.4529 13.1646 33.4561 13.1646L33.6649 13.1014L33.7985 13.1742L33.5505 13.2454C33.5424 13.2481 33.5356 13.2539 33.5316 13.2615C33.5276 13.2691 33.5266 13.2779 33.5289 13.2862C33.5308 13.2928 33.5348 13.2987 33.5403 13.3028C33.5458 13.307 33.5524 13.3093 33.5593 13.3094H33.5673L33.8753 13.2198L34.3489 13.4822L33.9665 13.4934C33.9577 13.4942 33.9496 13.4982 33.9437 13.5048C33.9378 13.5113 33.9345 13.5198 33.9345 13.5286C33.9349 13.5371 33.9385 13.5451 33.9446 13.551C33.9507 13.557 33.9588 13.5604 33.9673 13.5606L34.3041 13.5494L33.8401 13.8534L33.5505 13.7734H33.5425C33.5343 13.7726 33.5262 13.7749 33.5197 13.7799C33.5132 13.785 33.5088 13.7923 33.5076 13.8004C33.5064 13.8085 33.5083 13.8168 33.513 13.8236C33.5177 13.8303 33.5249 13.835 33.5329 13.8366L33.7681 13.8998L33.6433 13.9798L33.4377 13.927H33.4305C33.4234 13.9269 33.4164 13.9293 33.4108 13.9336C33.4051 13.938 33.4011 13.9441 33.3993 13.951C33.3975 13.9547 33.3966 13.9588 33.3966 13.963C33.3966 13.9671 33.3975 13.9712 33.3993 13.975C33.4035 13.9823 33.4104 13.9878 33.4185 13.9902L33.5681 14.0286L33.3657 14.163C33.3586 14.1677 33.3536 14.1751 33.3518 14.1834C33.35 14.1918 33.3516 14.2005 33.3561 14.2078C33.3591 14.2123 33.3631 14.216 33.3679 14.2185C33.3726 14.221 33.3779 14.2223 33.3833 14.2222C33.3896 14.2218 33.3956 14.2199 33.4009 14.2166L33.6001 14.0878L33.5697 14.2414C33.5688 14.2454 33.5687 14.2496 33.5694 14.2537C33.5701 14.2578 33.5716 14.2617 33.5738 14.2652C33.576 14.2687 33.579 14.2718 33.5824 14.2741C33.5858 14.2765 33.5897 14.2781 33.5937 14.279H33.6017C33.6089 14.2787 33.6159 14.2759 33.6213 14.2711C33.6267 14.2663 33.6302 14.2597 33.6313 14.2526L33.6753 14.0374L33.8025 13.9526L33.7497 14.2062C33.7481 14.2145 33.7498 14.2231 33.7545 14.2302C33.7565 14.2337 33.7593 14.2368 33.7626 14.2391C33.7659 14.2415 33.7697 14.2431 33.7737 14.2438H33.7817C33.7889 14.2431 33.7957 14.2402 33.8012 14.2355C33.8066 14.2308 33.8105 14.2244 33.8121 14.2174L33.8777 13.9022L34.3577 13.5822L34.1865 13.8982C34.1834 13.9062 34.1834 13.915 34.1865 13.923C34.1878 13.9271 34.1898 13.9309 34.1926 13.9342C34.1953 13.9375 34.1987 13.9402 34.2025 13.9422C34.2067 13.9434 34.2111 13.9434 34.2153 13.9422C34.2211 13.9422 34.2267 13.9406 34.2316 13.9376C34.2366 13.9347 34.2406 13.9304 34.2433 13.9254L34.4129 13.611L34.4209 14.1422L34.2017 14.3462C34.1987 14.3492 34.1963 14.3529 34.1946 14.3568C34.193 14.3608 34.1921 14.3651 34.1921 14.3694C34.1921 14.3737 34.193 14.378 34.1946 14.3819C34.1963 14.3859 34.1987 14.3895 34.2017 14.3926C34.2045 14.3957 34.208 14.3982 34.2119 14.3999C34.2157 14.4015 34.2199 14.4023 34.2241 14.4022C34.2296 14.4027 34.2351 14.4019 34.2401 14.3998L34.4185 14.2342V14.3846L34.2649 14.5302C34.259 14.5363 34.2557 14.5445 34.2557 14.553C34.2557 14.5615 34.259 14.5697 34.2649 14.5758C34.2679 14.5789 34.2716 14.5813 34.2755 14.583C34.2795 14.5846 34.2838 14.5854 34.2881 14.5854C34.2964 14.5852 34.3044 14.5821 34.3105 14.5766L34.4209 14.471L34.4249 14.711C34.4248 14.7152 34.4255 14.7193 34.4271 14.7232C34.4286 14.7271 34.4309 14.7306 34.4338 14.7336C34.4367 14.7366 34.4402 14.7389 34.444 14.7405C34.4478 14.7422 34.452 14.743 34.4561 14.743C34.4604 14.7428 34.4647 14.7417 34.4686 14.7399C34.4725 14.7381 34.476 14.7355 34.4789 14.7323C34.4818 14.7291 34.484 14.7253 34.4854 14.7213C34.4869 14.7172 34.4875 14.7129 34.4873 14.7086V14.4742L34.6017 14.5822C34.6043 14.5851 34.6075 14.5875 34.6111 14.589C34.6147 14.5905 34.6186 14.5912 34.6225 14.591C34.6315 14.5907 34.6401 14.5869 34.6465 14.5806C34.6494 14.5775 34.6516 14.5738 34.653 14.5698C34.6543 14.5658 34.6549 14.5616 34.6545 14.5574C34.6545 14.5532 34.6536 14.5491 34.652 14.5452C34.6503 14.5414 34.6479 14.5379 34.6449 14.535L34.4849 14.383V14.231L34.6705 14.4102C34.6734 14.4129 34.6768 14.4151 34.6805 14.4164C34.6842 14.4178 34.6882 14.4184 34.6921 14.4182C34.6963 14.4182 34.7005 14.4174 34.7043 14.4157C34.7082 14.4141 34.7117 14.4116 34.7145 14.4086C34.7175 14.406 34.72 14.4028 34.7216 14.3993C34.7233 14.3957 34.7241 14.3917 34.7241 14.3878C34.7237 14.379 34.72 14.3707 34.7137 14.3646L34.4801 14.1398L34.4721 13.6086L34.6761 13.9198C34.679 13.9242 34.6829 13.9279 34.6875 13.9304C34.6921 13.9329 34.6973 13.9342 34.7025 13.9342C34.7085 13.9337 34.7142 13.9317 34.7193 13.9286C34.7264 13.9238 34.7315 13.9166 34.7334 13.9082C34.7353 13.8999 34.734 13.8912 34.7297 13.8838L34.5289 13.5766L35.0385 13.8598L35.1017 14.1518C35.1034 14.1587 35.1074 14.1648 35.1131 14.169C35.1188 14.1733 35.1258 14.1754 35.1329 14.175H35.1393C35.1435 14.1744 35.1474 14.1728 35.1509 14.1705C35.1543 14.1681 35.1572 14.165 35.1593 14.1614C35.1617 14.1579 35.1633 14.154 35.164 14.1498C35.1647 14.1457 35.1644 14.1414 35.1633 14.1374L35.1137 13.9014L35.2433 13.9726L35.2897 14.179C35.291 14.1858 35.2947 14.192 35.3001 14.1964C35.3056 14.2008 35.3123 14.2031 35.3193 14.203H35.3281C35.3321 14.202 35.3359 14.2002 35.3392 14.1977C35.3425 14.1952 35.3452 14.1921 35.3473 14.1886C35.3497 14.1851 35.3513 14.1812 35.352 14.177C35.3527 14.1729 35.3524 14.1686 35.3513 14.1646L35.3177 14.0158L35.5217 14.1294C35.5267 14.1304 35.5319 14.1304 35.5369 14.1294C35.5427 14.1293 35.5482 14.1276 35.5531 14.1245C35.5579 14.1214 35.5617 14.117 35.5641 14.1118C35.5659 14.108 35.5668 14.1039 35.5668 14.0998C35.5668 14.0956 35.5659 14.0915 35.5641 14.0878C35.5627 14.082 35.5597 14.0767 35.5553 14.0726Z" fill="#EDFCFF"/>
<path d="M8.51345 12.4072H5.07265C4.82434 12.4072 4.62305 12.6085 4.62305 12.8568V14.1872C4.62305 14.4355 4.82434 14.6368 5.07265 14.6368H8.51345C8.76175 14.6368 8.96305 14.4355 8.96305 14.1872V12.8568C8.96305 12.6085 8.76175 12.4072 8.51345 12.4072Z" fill="#093D77"/>
<path d="M8.50963 14.696H5.06243C4.9963 14.6974 4.93057 14.6854 4.86924 14.6606C4.8079 14.6358 4.75224 14.5989 4.70563 14.552C4.65822 14.5063 4.61994 14.452 4.59283 14.392C4.56514 14.3302 4.55017 14.2636 4.54883 14.196V12.8624C4.55256 12.728 4.60784 12.6002 4.70323 12.5056C4.74911 12.4602 4.80348 12.4243 4.86323 12.4C4.92591 12.3743 4.99311 12.3615 5.06083 12.3624H8.50803C8.57524 12.3614 8.64193 12.3742 8.70403 12.4C8.76399 12.4243 8.81841 12.4605 8.86403 12.5064C8.91143 12.552 8.94971 12.6063 8.97683 12.6664C9.00452 12.7281 9.01948 12.7947 9.02083 12.8624V14.196C9.01948 14.2638 9.00452 14.3308 8.97683 14.3928C8.95051 14.4526 8.91305 14.5069 8.86643 14.5528C8.81892 14.599 8.76272 14.6354 8.70107 14.6599C8.63942 14.6843 8.57354 14.6963 8.50723 14.6952L8.50963 14.696ZM8.90403 12.8608C8.90403 12.7561 8.86247 12.6558 8.78851 12.5819C8.71455 12.5079 8.61423 12.4664 8.50963 12.4664H5.04723C4.94263 12.4664 4.84231 12.5079 4.76835 12.5819C4.69438 12.6558 4.65283 12.7561 4.65283 12.8608V14.1832C4.65304 14.2876 4.69469 14.3877 4.76863 14.4615C4.84257 14.5353 4.94277 14.5768 5.04723 14.5768H8.50963C8.61409 14.5768 8.71429 14.5353 8.78823 14.4615C8.86217 14.3877 8.90382 14.2876 8.90403 14.1832V12.8608Z" fill="#14B6B8"/>
<path d="M5.16636 13.1687L5.03516 13.1031V12.8239L5.16636 12.7119V13.1687ZM5.16636 13.6551L5.03516 13.5423V13.2535L5.16636 13.1975V13.6551Z" fill="white"/>
<path d="M5.46714 13.112L5.33594 13.1688V12.8432L5.40074 12.7872L5.46714 12.8432V13.112ZM5.87594 13.6L5.80874 13.6576H5.35994L5.48634 13.5448H5.80634L5.87594 13.6ZM5.93114 13.1856L5.80954 13.2368H5.48954L5.36634 13.188L5.49194 13.124H5.80554L5.93114 13.1856ZM5.87594 12.7728L5.80874 12.8272H5.48874L5.42154 12.7728L5.48874 12.7144H5.80874L5.87594 12.7728ZM5.96154 13.1728L5.83034 13.116V12.8472L5.89514 12.7912L5.96154 12.8472V13.1728ZM5.96154 13.5272L5.89514 13.5832L5.83034 13.5272V13.2672L5.96154 13.2016V13.5272Z" fill="white"/>
<path d="M6.27681 13.3696L6.20801 13.3992V13.228L6.24001 13.2L6.27441 13.2296L6.27681 13.3696ZM6.27681 13.5856L6.24241 13.6152L6.20801 13.5856V13.4144L6.27681 13.4488V13.5856ZM6.52561 13.1592L6.45681 13.2184H6.28881L6.25361 13.1896L6.28881 13.1592H6.52561ZM6.52561 13.6552H6.28561L6.25041 13.6248L6.28561 13.596H6.45361L6.52561 13.6552Z" fill="white"/>
<path d="M6.13192 13.1847C6.118 13.1847 6.10439 13.1806 6.09281 13.1729C6.08123 13.1651 6.07221 13.1541 6.06688 13.1413C6.06155 13.1284 6.06016 13.1143 6.06288 13.1006C6.06559 13.087 6.0723 13.0744 6.08214 13.0646C6.09199 13.0547 6.10453 13.048 6.11819 13.0453C6.13185 13.0426 6.146 13.044 6.15886 13.0493C6.17173 13.0546 6.18272 13.0637 6.19046 13.0752C6.19819 13.0868 6.20232 13.1004 6.20232 13.1143C6.20212 13.133 6.19463 13.1507 6.18147 13.1639C6.16832 13.1771 6.15053 13.1845 6.13192 13.1847ZM6.13192 13.0655C6.12227 13.0655 6.11284 13.0684 6.10481 13.0738C6.09679 13.0791 6.09053 13.0868 6.08684 13.0957C6.08314 13.1046 6.08218 13.1144 6.08406 13.1239C6.08594 13.1333 6.09059 13.142 6.09742 13.1489C6.10424 13.1557 6.11294 13.1603 6.1224 13.1622C6.13187 13.1641 6.14168 13.1631 6.1506 13.1594C6.15952 13.1557 6.16714 13.1495 6.1725 13.1415C6.17786 13.1334 6.18072 13.124 6.18072 13.1143C6.18072 13.1014 6.17558 13.089 6.16643 13.0798C6.15728 13.0707 6.14487 13.0655 6.13192 13.0655Z" fill="white"/>
<path d="M8.78884 13.7446H4.78244C4.7683 13.7446 4.75684 13.7561 4.75684 13.7702V13.7782C4.75684 13.7924 4.7683 13.8038 4.78244 13.8038H8.78884C8.80297 13.8038 8.81444 13.7924 8.81444 13.7782V13.7702C8.81444 13.7561 8.80297 13.7446 8.78884 13.7446Z" fill="white"/>
<path d="M8.02477 13.1338C8.02569 13.1299 8.02569 13.1258 8.02477 13.1218V13.1202C8.03437 13.1106 8.05037 13.097 8.05917 13.101C8.06797 13.105 8.11277 13.149 8.14637 13.1122C8.17997 13.0754 8.18157 13.0442 8.16237 13.0242C8.16237 13.0242 8.10957 12.9722 8.06877 12.9954C8.02797 13.0186 8.03597 13.0698 8.01197 13.1026C8.00751 13.1015 8.00283 13.1015 7.99837 13.1026C7.99414 13.1018 7.9898 13.1018 7.98557 13.1026C7.97357 13.0954 7.95677 13.0834 7.95917 13.0738C7.96157 13.0642 7.99277 13.0106 7.94957 12.9866C7.90637 12.9626 7.87437 12.9682 7.85997 12.9922C7.85997 12.9922 7.82157 13.0554 7.85437 13.0898C7.88717 13.1242 7.93437 13.1042 7.97197 13.1194C7.97158 13.1218 7.97158 13.1243 7.97197 13.1266C7.97196 13.1323 7.97363 13.1379 7.97677 13.1426C7.96717 13.1522 7.95037 13.1666 7.94157 13.1618C7.93277 13.157 7.88797 13.1138 7.85437 13.1506C7.82077 13.1874 7.81917 13.2186 7.83917 13.2386C7.83917 13.2386 7.89117 13.2906 7.93277 13.2674C7.97437 13.2442 7.96477 13.1874 7.99517 13.1538H8.00557C8.01517 13.1594 8.04157 13.1754 8.03917 13.1874C8.03677 13.1994 8.00477 13.2506 8.04877 13.2738C8.09277 13.297 8.12317 13.2922 8.13757 13.269C8.13757 13.269 8.17597 13.2058 8.14397 13.1706C8.11197 13.1354 8.06237 13.1522 8.02477 13.1338Z" fill="white"/>
<path d="M8.05609 13.4175H7.96729V13.6703H8.05609V13.4175Z" fill="white"/>
<path d="M8.16083 13.3286H8.08643V13.6702H8.16083V13.3286Z" fill="white"/>
<path d="M8.27941 13.2393H8.22021V13.6705H8.27941V13.2393Z" fill="white"/>
<path d="M8.41376 13.1353H8.33936V13.6705H8.41376V13.1353Z" fill="white"/>
<path d="M8.5329 13.0464H8.4585V13.6704H8.5329V13.0464Z" fill="white"/>
<path d="M6.76942 13.4728L6.71582 13.492V13.3824L6.74222 13.3632L6.76942 13.3824V13.4728ZM6.76942 13.6112L6.74222 13.6296L6.71582 13.6112V13.5016L6.76942 13.5232V13.6112ZM6.95982 13.3384L6.90622 13.376H6.77822L6.75102 13.3576L6.77822 13.3384H6.95982ZM6.95982 13.6584H6.77582L6.74862 13.6392L6.77582 13.6208H6.90622L6.95982 13.6584Z" fill="white"/>
<path d="M7.04645 13.4696L6.99365 13.492V13.3824L7.02005 13.3632L7.04645 13.3824V13.4696ZM7.04645 13.6112L7.02005 13.6296L6.99365 13.6112V13.5016L7.04645 13.5208V13.6112ZM7.21365 13.36L7.18645 13.3784H7.05605L7.02885 13.36L7.05605 13.3408H7.18645L7.21365 13.36ZM7.21365 13.6384L7.18645 13.6576H7.05605L7.02885 13.6384L7.05605 13.62H7.18645L7.21365 13.6384ZM7.24805 13.4944L7.19525 13.472V13.3848L7.22165 13.3656L7.24805 13.3848V13.4944ZM7.24805 13.6136L7.22165 13.632L7.19525 13.6136V13.52L7.24805 13.5008V13.6136Z" fill="white"/>
<path d="M7.35536 13.4696L7.30176 13.492V13.3824L7.32816 13.3632L7.35536 13.3824V13.4696ZM7.35536 13.6112L7.32816 13.6296L7.30176 13.6112V13.5016L7.35536 13.5208V13.6112ZM7.52016 13.36L7.49296 13.3784H7.36416L7.33696 13.36L7.36416 13.3408H7.49456L7.52016 13.36ZM7.52016 13.6384L7.49296 13.6576H7.36416L7.33696 13.6384L7.36416 13.62H7.49456L7.52016 13.6384ZM7.55536 13.4944L7.50176 13.472V13.3848L7.52816 13.3656L7.55536 13.3848V13.4944ZM7.55536 13.6136L7.52816 13.632L7.50176 13.6136V13.52L7.55536 13.5008V13.6136Z" fill="white"/>
<path d="M7.66297 13.4696L7.60938 13.492V13.3384L7.66297 13.376V13.4696ZM7.66297 13.6104L7.60938 13.6496V13.5016L7.66297 13.5208V13.6104ZM7.85657 13.6552H7.61657L7.67097 13.6176H7.80137L7.85657 13.6552Z" fill="white"/>
<path d="M6.66003 12.5562H6.61523V13.7754H6.66003V12.5562Z" fill="white"/>
<path d="M7.46167 14.1846L7.40967 14.1598V14.0518L7.46167 14.0078V14.1846ZM7.46167 14.3742L7.40967 14.3302V14.2182L7.46167 14.1958V14.3742Z" fill="white"/>
<path d="M7.66333 14.1599L7.61133 14.1815V14.0559L7.63773 14.0335L7.66333 14.0559V14.1599ZM7.82333 14.3487L7.79693 14.3711H7.62253L7.67293 14.3271H7.79933L7.82333 14.3487ZM7.84493 14.1887L7.79693 14.2079H7.67293L7.62413 14.1887L7.67453 14.1639H7.79853L7.84493 14.1887ZM7.82333 14.0287L7.79693 14.0503H7.67293L7.64573 14.0287L7.67293 14.0063H7.79933L7.82333 14.0287ZM7.85693 14.1831L7.80493 14.1615V14.0575L7.83133 14.0351L7.85693 14.0575V14.1831ZM7.85693 14.3207L7.83133 14.3431L7.80493 14.3207V14.2199L7.85693 14.1943V14.3207Z" fill="white"/>
<path d="M7.95434 14.2114H7.90234V14.1362H7.95434V14.2114ZM7.95434 14.3714H7.90234V14.2914H7.95434V14.3714Z" fill="white"/>
<path d="M8.18562 14.0302L8.15922 14.0518H8.03282L7.98242 14.0078H8.16002L8.18562 14.0302ZM8.18562 14.3502L8.15922 14.3726H7.98242L8.03282 14.3286H8.16002L8.18562 14.3502ZM8.20802 14.1902L8.15922 14.211H8.03282L7.98402 14.1902L8.03202 14.167H8.16002L8.20802 14.1902ZM8.22002 14.1846L8.16802 14.1598V14.059L8.19362 14.0366L8.22002 14.059V14.1846ZM8.22002 14.3222L8.19362 14.3446L8.16802 14.3222V14.2182L8.22002 14.1958V14.3222Z" fill="white"/>
<path d="M8.34497 14.1598L8.29297 14.1846V14.059L8.31937 14.0366L8.34497 14.059V14.1598ZM8.34497 14.3198L8.31937 14.3422L8.29297 14.3198V14.1934L8.34497 14.2158V14.3198ZM8.52897 14.1878L8.48097 14.2086H8.35377L8.30497 14.1878L8.35537 14.1638H8.48017L8.52897 14.1878ZM8.52897 14.0054L8.47937 14.0494H8.35217L8.32577 14.0278L8.35217 14.0054H8.52897ZM8.50577 14.3494L8.47937 14.3718H8.35217L8.32577 14.3494L8.35217 14.3278H8.48017L8.50577 14.3494ZM8.53937 14.3198L8.51377 14.3422L8.48737 14.3198V14.2158L8.53937 14.1934V14.3198Z" fill="white"/>
<path d="M5.30952 14.0487C5.30952 14.1199 5.27112 14.1455 5.22312 14.1455C5.17512 14.1455 5.13672 14.1199 5.13672 14.0487C5.14944 13.9881 5.17945 13.9325 5.22312 13.8887C5.26678 13.9325 5.2968 13.9881 5.30952 14.0487Z" fill="white"/>
<path d="M5.0711 14.2888L5.0415 14.2632C5.06359 14.2371 5.09184 14.2169 5.12368 14.2045C5.15553 14.1921 5.18998 14.1878 5.2239 14.192C5.2455 14.1976 5.2671 14.2056 5.2871 14.2128C5.32041 14.2303 5.35747 14.2395 5.3951 14.2395C5.43273 14.2395 5.4698 14.2303 5.5031 14.2128L5.5207 14.248C5.48404 14.2669 5.44352 14.277 5.4023 14.2776C5.3578 14.276 5.31405 14.2656 5.2735 14.2472C5.2527 14.24 5.2343 14.232 5.2143 14.2272C5.1407 14.2112 5.0719 14.288 5.0711 14.2888Z" fill="white"/>
<path d="M5.0711 14.3888L5.0415 14.3632C5.06368 14.3372 5.09194 14.3171 5.12376 14.3047C5.15559 14.2923 5.18999 14.2879 5.2239 14.292C5.2454 14.2979 5.26651 14.3051 5.2871 14.3136C5.32047 14.3309 5.35751 14.34 5.3951 14.34C5.4327 14.34 5.46974 14.3309 5.5031 14.3136L5.5207 14.3488C5.48423 14.3682 5.44363 14.3787 5.4023 14.3792C5.35786 14.3772 5.31418 14.3669 5.2735 14.3488C5.25424 14.3408 5.23446 14.3342 5.2143 14.3288C5.1407 14.312 5.0719 14.388 5.0711 14.3888Z" fill="white"/>
<path d="M5.0711 14.4934L5.0415 14.467C5.06409 14.4418 5.09253 14.4224 5.12433 14.4107C5.15613 14.399 5.19032 14.3953 5.2239 14.3998C5.2454 14.4057 5.26651 14.4129 5.2871 14.4214C5.32041 14.439 5.35747 14.4481 5.3951 14.4481C5.43273 14.4481 5.4698 14.439 5.5031 14.4214L5.5207 14.4566C5.48423 14.4761 5.44363 14.4865 5.4023 14.487C5.35786 14.485 5.31418 14.4747 5.2735 14.4566C5.25424 14.4487 5.23446 14.442 5.2143 14.4366C5.1407 14.4158 5.0719 14.4926 5.0711 14.4934Z" fill="white"/>
<path d="M5.87766 14.101L5.85126 14.1226H5.66406L5.72486 14.0786H5.85126L5.87766 14.101ZM5.71766 14.3946L5.69126 14.4162L5.66566 14.3946V14.2674L5.71766 14.2898V14.3946ZM5.90166 14.2618L5.85286 14.2818H5.72406L5.67606 14.261L5.72406 14.237H5.84966L5.90166 14.2618ZM5.91366 14.4458H5.72486L5.69846 14.4234L5.72486 14.4018H5.86246L5.91366 14.4458ZM5.91366 14.2562L5.86166 14.2306V14.1298L5.88726 14.1082L5.91366 14.1298V14.2562Z" fill="white"/>
<path d="M6.01538 14.2303L5.96338 14.2559V14.1295L5.98898 14.1079L6.01538 14.1295V14.2303ZM6.01538 14.3943L5.98898 14.4159L5.96338 14.3943V14.2671L6.01538 14.2895V14.3943ZM6.19938 14.2615L6.15138 14.2823H6.02418L5.97538 14.2615L6.02498 14.2375H6.14978L6.19938 14.2615ZM6.17778 14.1015L6.15058 14.1231H6.02418L5.99778 14.1015L6.02418 14.0791H6.15058L6.17778 14.1015ZM6.17778 14.4215L6.15058 14.4439H6.02418L5.99778 14.4215L6.02418 14.3999H6.15058L6.17778 14.4215ZM6.21138 14.2543L6.15938 14.2287V14.1279L6.18498 14.1063L6.21138 14.1279V14.2543ZM6.21138 14.3927L6.18498 14.4143L6.15938 14.3927V14.2879L6.21138 14.2655V14.3927Z" fill="white"/>
<path d="M6.685 29.4216C6.62234 29.4206 6.56247 29.3956 6.51779 29.3516C6.47311 29.3077 6.44705 29.2483 6.445 29.1856C6.4226 28.5064 6.8794 28.0744 7.245 27.728C7.4946 27.488 7.7106 27.288 7.7106 27.088C7.7106 26.888 7.4546 26.7232 7.1842 26.54C6.793 26.2744 6.3042 25.944 6.3042 25.34C6.3042 24.648 6.881 24.2128 7.3018 23.896C7.437 23.7936 7.6218 23.656 7.6506 23.5928C7.745 23.2368 7.5786 23.0488 7.5706 23.0408C7.54786 23.0185 7.5298 22.9918 7.51747 22.9624C7.50515 22.9331 7.4988 22.9015 7.4988 22.8696C7.4988 22.8377 7.50515 22.8062 7.51747 22.7768C7.5298 22.7474 7.54786 22.7208 7.5706 22.6984C7.61662 22.6527 7.67889 22.627 7.7438 22.627C7.80871 22.627 7.87098 22.6527 7.917 22.6984C8.0554 22.8376 8.2538 23.2088 8.117 23.7216C8.0618 23.9296 7.8546 24.0856 7.5922 24.2816C7.2346 24.5512 6.7922 24.8872 6.7922 25.3368C6.7922 25.6568 7.0554 25.8608 7.4562 26.1328C7.8034 26.368 8.197 26.6344 8.197 27.084C8.197 27.4944 7.8826 27.7912 7.5786 28.0784C7.2362 28.3984 6.9138 28.7064 6.929 29.1664C6.9305 29.1985 6.92556 29.2305 6.91448 29.2606C6.90339 29.2907 6.88638 29.3183 6.86446 29.3417C6.84253 29.3651 6.81613 29.3839 6.78682 29.3969C6.7575 29.41 6.72588 29.417 6.6938 29.4176L6.685 29.4216Z" fill="#55F2F4"/>
<path d="M15.2934 29.4216C15.2308 29.4204 15.171 29.3953 15.1264 29.3514C15.0818 29.3075 15.0556 29.2482 15.0534 29.1856C15.031 28.5064 15.4886 28.0744 15.8534 27.728C16.103 27.488 16.319 27.288 16.319 27.088C16.319 26.888 16.063 26.7232 15.7926 26.54C15.4014 26.2744 14.9126 25.944 14.9126 25.34C14.9126 24.648 15.4894 24.2128 15.9102 23.896C16.0454 23.7936 16.2302 23.656 16.259 23.5928C16.3534 23.2368 16.187 23.0488 16.179 23.0408C16.1563 23.0185 16.1382 22.9918 16.1259 22.9624C16.1135 22.9331 16.1072 22.9015 16.1072 22.8696C16.1072 22.8377 16.1135 22.8062 16.1259 22.7768C16.1382 22.7474 16.1563 22.7208 16.179 22.6984C16.225 22.6527 16.2873 22.627 16.3522 22.627C16.4171 22.627 16.4794 22.6527 16.5254 22.6984C16.6638 22.8376 16.8622 23.2088 16.7254 23.7216C16.6702 23.9296 16.463 24.0856 16.2006 24.2816C15.843 24.5512 15.4006 24.8872 15.4006 25.3368C15.4006 25.6568 15.6638 25.8608 16.0654 26.1328C16.4118 26.368 16.8054 26.6344 16.8054 27.084C16.8054 27.4944 16.491 27.7912 16.187 28.0784C15.8446 28.3984 15.5222 28.7064 15.5374 29.1664C15.5389 29.1985 15.534 29.2305 15.5229 29.2606C15.5118 29.2907 15.4948 29.3183 15.4729 29.3417C15.4509 29.3651 15.4245 29.3839 15.3952 29.3969C15.3659 29.41 15.3343 29.417 15.3022 29.4176L15.2934 29.4216Z" fill="#55F2F4"/>
<path d="M23.9018 29.4216C23.8392 29.4204 23.7794 29.3953 23.7348 29.3514C23.6902 29.3075 23.664 29.2482 23.6618 29.1856C23.6394 28.5064 24.097 28.0744 24.4618 27.728C24.7114 27.488 24.9274 27.288 24.9274 27.088C24.9274 26.888 24.6714 26.7232 24.401 26.54C24.0098 26.2744 23.521 25.944 23.521 25.34C23.521 24.648 24.0978 24.2128 24.5186 23.896C24.6546 23.7936 24.8386 23.656 24.8674 23.5928C24.9618 23.2368 24.7954 23.0488 24.7874 23.0408C24.7647 23.0185 24.7466 22.9918 24.7343 22.9624C24.7219 22.9331 24.7156 22.9015 24.7156 22.8696C24.7156 22.8377 24.7219 22.8062 24.7343 22.7768C24.7466 22.7474 24.7647 22.7208 24.7874 22.6984C24.8334 22.6527 24.8957 22.627 24.9606 22.627C25.0255 22.627 25.0878 22.6527 25.1338 22.6984C25.2722 22.8376 25.4706 23.2088 25.3338 23.7216C25.2786 23.9296 25.0714 24.0856 24.809 24.2816C24.4514 24.5512 24.009 24.8872 24.009 25.3368C24.009 25.6568 24.2722 25.8608 24.6738 26.1328C25.0202 26.368 25.4138 26.6344 25.4138 27.084C25.4138 27.4944 25.0994 27.7912 24.7954 28.0784C24.4538 28.3984 24.1306 28.7064 24.1458 29.1664C24.1473 29.1985 24.1424 29.2305 24.1313 29.2606C24.1202 29.2907 24.1032 29.3183 24.0813 29.3417C24.0593 29.3651 24.0329 29.3839 24.0036 29.3969C23.9743 29.41 23.9427 29.417 23.9106 29.4176L23.9018 29.4216Z" fill="#55F2F4"/>
<path d="M32.5097 29.4216C32.4467 29.4216 32.3863 29.3969 32.3414 29.3527C32.2965 29.3086 32.2708 29.2486 32.2697 29.1856C32.2465 28.5064 32.7041 28.0744 33.0697 27.728C33.3193 27.488 33.5353 27.288 33.5353 27.088C33.5353 26.888 33.2793 26.7232 33.0089 26.54C32.6177 26.2744 32.1289 25.944 32.1289 25.34C32.1289 24.648 32.7057 24.2128 33.1265 23.896C33.2625 23.7936 33.4465 23.656 33.4753 23.5928C33.5697 23.2368 33.4033 23.0488 33.3953 23.0408C33.3726 23.0185 33.3545 22.9918 33.3422 22.9624C33.3299 22.9331 33.3235 22.9015 33.3235 22.8696C33.3235 22.8377 33.3299 22.8062 33.3422 22.7768C33.3545 22.7474 33.3726 22.7208 33.3953 22.6984C33.4413 22.6527 33.5036 22.627 33.5685 22.627C33.6334 22.627 33.6957 22.6527 33.7417 22.6984C33.8801 22.8376 34.0785 23.2088 33.9417 23.7216C33.8865 23.9296 33.6793 24.0856 33.4177 24.2816C33.0593 24.5512 32.6137 24.8872 32.6137 25.3368C32.6137 25.6568 32.8769 25.8608 33.2785 26.1328C33.6257 26.368 34.0185 26.6344 34.0185 27.084C34.0185 27.4944 33.7041 27.7912 33.4001 28.0784C33.0585 28.3984 32.7353 28.7064 32.7505 29.1664C32.752 29.1985 32.7471 29.2305 32.736 29.2606C32.7249 29.2907 32.7079 29.3183 32.686 29.3417C32.664 29.3651 32.6376 29.3839 32.6083 29.3969C32.579 29.41 32.5474 29.417 32.5153 29.4176L32.5097 29.4216Z" fill="#55F2F4"/>
</svg>
