<svg width="40" height="40" viewBox="0 0 40 40" fill="none" xmlns="http://www.w3.org/2000/svg">
<path d="M21.6249 26.7881H4.62012L13.1225 13.2305L21.6249 26.7881Z" fill="#14B6B8"/>
<path d="M22.5657 26.7881H5.56006L14.0625 13.2305L22.5657 26.7881Z" fill="#64F9FB" fill-opacity="0.43"/>
<path d="M23.9758 26.7881H6.97021L15.4734 13.2305L23.9758 26.7881Z" fill="#FFEDD2" fill-opacity="0.67"/>
<path d="M35.3802 26.8273L21.625 26.7881L13.1226 13.2305L27.6722 13.1729L35.3802 26.8273Z" fill="#093D77"/>
<path d="M21.7807 15.5737H17.1319L16.5679 14.3833H21.2167L21.7807 15.5737Z" fill="#14B6B8"/>
<path d="M26.9936 15.5737H22.344L21.7808 14.3833H26.4296L26.9936 15.5737Z" fill="#14B6B8"/>
<path d="M29.8158 24.5034H25.1662L24.603 23.313H29.2518L29.8158 24.5034Z" fill="#14B6B8"/>
<path d="M33.2074 26.0039H28.5578L27.9946 24.8135H32.6434L33.2074 26.0039Z" fill="#14B6B8"/>
<path d="M16.5678 20.3745H11.6606V26.8273H16.5678V20.3745Z" fill="#64F9FB" fill-opacity="0.43"/>
<path d="M15.98 20.9888H12.248V26.8272H15.98V20.9888Z" fill="#14B6B8"/>
<path d="M14.3312 20.6167H13.8208V26.8271H14.3312V20.6167Z" fill="#FFE0B4" fill-opacity="0.47"/>
<path d="M31.5646 22.9839L22.9038 23.0551L18.6958 16.4967L27.1062 16.3911L31.5646 22.9839Z" fill="#14B6B8"/>
<path d="M30.359 22.3185L23.3206 22.3761L19.9014 17.0465L26.7358 16.9609L30.359 22.3185Z" fill="#EDFCFF"/>
<path d="M26.6595 22.6903L27.1953 22.3735L23.8293 16.6797L23.2935 16.9964L26.6595 22.6903Z" fill="#14B6B8"/>
<path d="M28.9786 19.9593L28.9722 19.3369L21.2222 19.4167L21.2286 20.0391L28.9786 19.9593Z" fill="#14B6B8"/>
</svg>
