<svg width="40" height="40" viewBox="0 0 40 40" fill="none" xmlns="http://www.w3.org/2000/svg">
<path d="M28.4335 29.1719H27.5615V32.4551H28.4335V29.1719Z" fill="#D48818"/>
<path d="M27.9978 30.8697C29.208 30.8697 30.189 29.8887 30.189 28.6785C30.189 27.4683 29.208 26.4873 27.9978 26.4873C26.7877 26.4873 25.8066 27.4683 25.8066 28.6785C25.8066 29.8887 26.7877 30.8697 27.9978 30.8697Z" fill="#14B6B8"/>
<path d="M28.5007 29.8642C28.071 29.868 27.656 29.7077 27.3405 29.416C27.0249 29.1243 26.8325 28.7232 26.8026 28.2945C26.7727 27.8658 26.9075 27.4419 27.1795 27.1092C27.4515 26.7765 27.8402 26.5601 28.2663 26.5042C28.1772 26.4924 28.0874 26.4863 27.9975 26.4858C27.5639 26.4857 27.14 26.6141 26.7794 26.8549C26.4188 27.0957 26.1377 27.4381 25.9717 27.8386C25.8057 28.2392 25.7622 28.68 25.8468 29.1053C25.9313 29.5306 26.1401 29.9212 26.4467 30.2278C26.7533 30.5344 27.144 30.7432 27.5692 30.8278C27.9945 30.9123 28.4353 30.8688 28.8359 30.7028C29.2365 30.5368 29.5788 30.2557 29.8196 29.8952C30.0604 29.5346 30.1888 29.1106 30.1887 28.677C30.1881 28.5872 30.1822 28.4974 30.1711 28.4082C30.1153 28.8117 29.9154 29.1813 29.6084 29.4489C29.3014 29.7165 28.908 29.864 28.5007 29.8642Z" fill="#093D77"/>
<path d="M22.9679 7.50244H17.2119V9.78004H22.9679V7.50244Z" fill="#093D77"/>
<path d="M24.9998 7.50244H20.3022V9.78004H24.9998V7.50244Z" fill="#FF9E29"/>
<path d="M23.705 8.6416H15.6738V11.8184H23.705V8.6416Z" fill="#14B6B8"/>
<path d="M26.5393 8.6416H19.9849V11.8184H26.5393V8.6416Z" fill="#F1C40F"/>
<path d="M24.4024 10.4082H14.2144V32.4978H24.4024V10.4082Z" fill="#14B6B8"/>
<path d="M14.2144 32.4978V10.4082H19.6832L14.2144 32.4978Z" fill="#093D77"/>
<path d="M27.9975 10.4082H19.6831V32.4978H27.9975V10.4082Z" fill="#FF9E29"/>
<path d="M21.7367 10.5474H19.8335V12.4506H21.7367V10.5474Z" fill="#FFE88C"/>
<path d="M23.7704 10.5474H21.8672V12.4506H23.7704V10.5474Z" fill="#FFE88C"/>
<path d="M25.8031 10.5474H23.8999V12.4506H25.8031V10.5474Z" fill="#FFE88C"/>
<path d="M27.8368 10.5474H25.9336V12.4506H27.8368V10.5474Z" fill="#FFE88C"/>
<path d="M21.7367 12.5703H19.8335V14.4735H21.7367V12.5703Z" fill="#FFE88C"/>
<path d="M23.7704 12.5703H21.8672V14.4735H23.7704V12.5703Z" fill="#FFE88C"/>
<path d="M25.8031 12.5703H23.8999V14.4735H25.8031V12.5703Z" fill="#FFE88C"/>
<path d="M27.8368 12.5703H25.9336V14.4735H27.8368V12.5703Z" fill="#FFE88C"/>
<path d="M21.7367 14.5938H19.8335V16.497H21.7367V14.5938Z" fill="#FFE88C"/>
<path d="M23.7704 14.5938H21.8672V16.497H23.7704V14.5938Z" fill="#FFE88C"/>
<path d="M25.8031 14.5938H23.8999V16.497H25.8031V14.5938Z" fill="#FFE88C"/>
<path d="M27.8368 14.5938H25.9336V16.497H27.8368V14.5938Z" fill="#FFE88C"/>
<path d="M21.7367 16.6162H19.8335V18.5194H21.7367V16.6162Z" fill="#FFE88C"/>
<path d="M23.7704 16.6162H21.8672V18.5194H23.7704V16.6162Z" fill="#FFE88C"/>
<path d="M25.8031 16.6162H23.8999V18.5194H25.8031V16.6162Z" fill="#FFE88C"/>
<path d="M27.8368 16.6162H25.9336V18.5194H27.8368V16.6162Z" fill="#FFE88C"/>
<path d="M21.7367 18.6392H19.8335V20.5424H21.7367V18.6392Z" fill="#FFE88C"/>
<path d="M23.7704 18.6392H21.8672V20.5424H23.7704V18.6392Z" fill="#FFE88C"/>
<path d="M25.8031 18.6392H23.8999V20.5424H25.8031V18.6392Z" fill="#FFE88C"/>
<path d="M27.8368 18.6392H25.9336V20.5424H27.8368V18.6392Z" fill="#FFE88C"/>
<path d="M21.7367 20.6626H19.8335V22.5658H21.7367V20.6626Z" fill="#FFE88C"/>
<path d="M23.7704 20.6626H21.8672V22.5658H23.7704V20.6626Z" fill="#FFE88C"/>
<path d="M25.8031 20.6626H23.8999V22.5658H25.8031V20.6626Z" fill="#FFE88C"/>
<path d="M27.8368 20.6626H25.9336V22.5658H27.8368V20.6626Z" fill="#FFE88C"/>
<path d="M21.7367 22.6855H19.8335V24.5887H21.7367V22.6855Z" fill="#FFE88C"/>
<path d="M23.7704 22.6855H21.8672V24.5887H23.7704V22.6855Z" fill="#FFE88C"/>
<path d="M25.8031 22.6855H23.8999V24.5887H25.8031V22.6855Z" fill="#FFE88C"/>
<path d="M27.8368 22.6855H25.9336V24.5887H27.8368V22.6855Z" fill="#FFE88C"/>
<path d="M21.7367 24.709H19.8335V26.6122H21.7367V24.709Z" fill="#FFE88C"/>
<path d="M23.7704 24.709H21.8672V26.6122H23.7704V24.709Z" fill="#FFE88C"/>
<path d="M25.8031 24.709H23.8999V26.6122H25.8031V24.709Z" fill="#FFE88C"/>
<path d="M27.8368 24.709H25.9336V26.6122H27.8368V24.709Z" fill="#FFE88C"/>
<path d="M21.7367 26.7319H19.8335V28.6351H21.7367V26.7319Z" fill="#FFE88C"/>
<path d="M23.7704 26.7319H21.8672V28.6351H23.7704V26.7319Z" fill="#FFE88C"/>
<path d="M25.8031 26.7319H23.8999V28.6351H25.8031V26.7319Z" fill="#FFE88C"/>
<path d="M27.8368 26.7319H25.9336V28.6351H27.8368V26.7319Z" fill="#FFE88C"/>
<path d="M27.6929 28.2866H19.3081V29.313H27.6929V28.2866Z" fill="#A7F0FF"/>
<path d="M26.7862 29.313H21.0142V32.4978H26.7862V29.313Z" fill="#0E7D7E"/>
<path d="M26.7865 29.313H26.0977V32.4978H26.7865V29.313Z" fill="#093D77"/>
<path d="M28.6822 28.2866H20.2974V29.313H28.6822V28.2866Z" fill="#14B6B8" fill-opacity="0.58"/>
<path d="M14.6503 29.2041H13.7783V32.4873H14.6503V29.2041Z" fill="#D48818"/>
<path d="M14.2144 25.0879L12.2144 30.4191H16.2144L14.2144 25.0879Z" fill="#14B6B8"/>
<path d="M14.2144 25.0879L12.2144 30.4191H13.56L14.2144 25.0879Z" fill="#093D77"/>
<path d="M11.7447 29.8809H11.0527V32.4881H11.7447V29.8809Z" fill="#D48818"/>
<path d="M11.399 26.6118L9.81104 30.8446H12.987L11.399 26.6118Z" fill="#14B6B8"/>
<path d="M11.399 26.6118L9.81104 30.8446H10.879L11.399 26.6118Z" fill="#093D77"/>
<path d="M18.0407 31.1841H15.4575V32.4977H18.0407V31.1841Z" fill="#A7F0FF"/>
<path d="M18.7976 31.1841H16.2144V32.4977H18.7976V31.1841Z" fill="#14B6B8" fill-opacity="0.58"/>
</svg>
