<svg width="40" height="40" viewBox="0 0 40 40" fill="none" xmlns="http://www.w3.org/2000/svg">
<path d="M23.4362 12.0908H16.2466V17.5556H23.4362V12.0908Z" fill="#979797"/>
<path d="M23.4401 12.091C23.4401 12.527 21.8305 12.8806 19.8449 12.8806C17.8593 12.8806 16.2505 12.527 16.2505 12.091C16.2505 11.655 17.8601 11.3022 19.8449 11.3022C21.8297 11.3022 23.4401 11.6558 23.4401 12.091Z" fill="#6E6E6E"/>
<path d="M20.2402 14.8237C18.9042 15.0533 17.229 13.9037 16.2466 13.0981V17.5565C16.2466 17.9925 17.8562 18.3453 19.841 18.3453C21.8258 18.3453 23.4402 17.9925 23.4402 17.5565V13.6581C22.5746 14.0965 21.3602 14.6309 20.2402 14.8237Z" fill="#808484"/>
<path d="M19.7218 11.3032C17.7914 11.3168 16.2466 11.6648 16.2466 12.0912C16.2466 12.504 17.6866 12.8432 19.5266 12.8776C19.5008 12.3455 19.5668 11.8129 19.7218 11.3032Z" fill="#5C5E5E"/>
<path d="M19.84 11.3022C17.8552 11.3022 16.2456 11.6558 16.2456 12.091C16.2456 12.5262 17.856 12.8798 19.84 12.8798C21.824 12.8798 23.44 12.527 23.44 12.091C23.44 11.655 21.8264 11.3022 19.84 11.3022ZM19.84 12.7558C17.5616 12.7558 16.3696 12.323 16.3696 12.091C16.3696 11.859 17.5616 11.427 19.84 11.427C22.1184 11.427 23.3104 11.859 23.3104 12.091C23.3104 12.323 22.1192 12.7558 19.84 12.7558Z" fill="#ACB7B7"/>
<path d="M20.776 13.1573C20.7761 13.1651 20.7747 13.1729 20.7717 13.1802C20.7688 13.1874 20.7645 13.1941 20.759 13.1996C20.7535 13.2052 20.7469 13.2097 20.7397 13.2127C20.7324 13.2157 20.7247 13.2173 20.7168 13.2173C20.7084 13.2182 20.6999 13.2174 20.6918 13.2149C20.6838 13.2123 20.6763 13.2081 20.67 13.2025C20.6637 13.1968 20.6586 13.1899 20.6552 13.1822C20.6517 13.1745 20.6499 13.1661 20.6499 13.1577C20.6499 13.1492 20.6517 13.1408 20.6552 13.1331C20.6586 13.1254 20.6637 13.1185 20.67 13.1129C20.6763 13.1072 20.6838 13.103 20.6918 13.1004C20.6999 13.0979 20.7084 13.0971 20.7168 13.0981C20.7325 13.0981 20.7476 13.1043 20.7587 13.1154C20.7698 13.1265 20.776 13.1416 20.776 13.1573Z" fill="#818189"/>
<path d="M21.1495 13.3804C21.1495 13.3862 21.1484 13.3919 21.1462 13.3973C21.144 13.4026 21.1407 13.4075 21.1366 13.4115C21.1326 13.4156 21.1277 13.4189 21.1224 13.4211C21.117 13.4233 21.1113 13.4244 21.1055 13.4244C21.0998 13.4244 21.094 13.4233 21.0887 13.4211C21.0834 13.4189 21.0785 13.4156 21.0744 13.4115C21.0703 13.4075 21.0671 13.4026 21.0649 13.3973C21.0627 13.3919 21.0615 13.3862 21.0615 13.3804C21.0614 13.3746 21.0625 13.3689 21.0647 13.3635C21.0668 13.3581 21.0701 13.3532 21.0742 13.3491C21.0783 13.345 21.0832 13.3417 21.0886 13.3396C21.094 13.3374 21.0997 13.3363 21.1055 13.3364C21.1172 13.3364 21.1284 13.3411 21.1366 13.3493C21.1449 13.3576 21.1495 13.3688 21.1495 13.3804Z" fill="#818189"/>
<path d="M20.72 13.5111C20.7201 13.5171 20.7185 13.5231 20.7152 13.5282C20.7119 13.5334 20.7072 13.5374 20.7016 13.5398C20.696 13.5422 20.6898 13.5428 20.6838 13.5417C20.6779 13.5406 20.6724 13.5376 20.6681 13.5333C20.6638 13.529 20.6609 13.5236 20.6597 13.5176C20.6586 13.5116 20.6592 13.5054 20.6616 13.4998C20.664 13.4943 20.6681 13.4895 20.6732 13.4862C20.6783 13.483 20.6843 13.4813 20.6904 13.4815C20.6982 13.4817 20.7056 13.4848 20.7111 13.4903C20.7166 13.4959 20.7198 13.5033 20.72 13.5111Z" fill="#818189"/>
<path d="M21.7105 13.218C21.7105 13.2301 21.7069 13.2419 21.7002 13.2519C21.6934 13.2619 21.6839 13.2697 21.6727 13.2743C21.6616 13.2789 21.6493 13.28 21.6375 13.2776C21.6257 13.2752 21.6149 13.2693 21.6064 13.2607C21.5979 13.2521 21.5922 13.2412 21.5899 13.2294C21.5877 13.2175 21.589 13.2053 21.5937 13.1942C21.5985 13.1831 21.6064 13.1737 21.6165 13.1671C21.6266 13.1605 21.6384 13.1571 21.6505 13.1572C21.6665 13.1574 21.6817 13.1639 21.6929 13.1753C21.7042 13.1867 21.7105 13.202 21.7105 13.218Z" fill="#818189"/>
<path d="M22.1172 13.8695C22.1173 13.8769 22.1159 13.8843 22.1132 13.8912C22.1104 13.898 22.1063 13.9043 22.1011 13.9096C22.0959 13.9149 22.0897 13.9191 22.0828 13.9219C22.076 13.9248 22.0686 13.9263 22.0612 13.9263C22.0461 13.9263 22.0317 13.9203 22.021 13.9096C22.0104 13.899 22.0044 13.8845 22.0044 13.8695C22.0044 13.8621 22.0059 13.8547 22.0087 13.8479C22.0116 13.841 22.0158 13.8348 22.0211 13.8296C22.0264 13.8244 22.0326 13.8203 22.0395 13.8175C22.0464 13.8147 22.0538 13.8134 22.0612 13.8135C22.076 13.8135 22.0903 13.8194 22.1008 13.8299C22.1113 13.8404 22.1172 13.8546 22.1172 13.8695Z" fill="#818189"/>
<path d="M19.7481 13.4832C19.7481 13.4948 19.7447 13.506 19.7383 13.5157C19.7319 13.5253 19.7228 13.5327 19.7121 13.5372C19.7014 13.5416 19.6897 13.5427 19.6784 13.5405C19.667 13.5382 19.6566 13.5327 19.6485 13.5245C19.6403 13.5163 19.6347 13.5059 19.6325 13.4946C19.6302 13.4833 19.6314 13.4715 19.6358 13.4609C19.6402 13.4502 19.6477 13.4411 19.6573 13.4346C19.6669 13.4282 19.6782 13.4248 19.6897 13.4248C19.7052 13.4248 19.7201 13.431 19.731 13.4419C19.742 13.4529 19.7481 13.4677 19.7481 13.4832Z" fill="#818189"/>
<path d="M18.6059 13.2751C18.6061 13.2865 18.6028 13.2977 18.5966 13.3073C18.5904 13.3169 18.5814 13.3244 18.5709 13.3288C18.5604 13.3333 18.5488 13.3346 18.5376 13.3325C18.5264 13.3303 18.516 13.3249 18.5079 13.3169C18.4997 13.3089 18.4942 13.2986 18.4919 13.2874C18.4896 13.2762 18.4907 13.2646 18.495 13.254C18.4994 13.2434 18.5067 13.2344 18.5162 13.228C18.5257 13.2217 18.5369 13.2183 18.5483 13.2183C18.5558 13.2182 18.5633 13.2196 18.5703 13.2224C18.5773 13.2252 18.5836 13.2293 18.589 13.2346C18.5944 13.2399 18.5986 13.2462 18.6015 13.2531C18.6044 13.2601 18.6059 13.2675 18.6059 13.2751Z" fill="#818189"/>
<path d="M19.7481 14.1399C19.7481 14.1515 19.7447 14.1628 19.7383 14.1724C19.7319 14.182 19.7228 14.1895 19.7121 14.1939C19.7014 14.1983 19.6897 14.1995 19.6784 14.1972C19.667 14.195 19.6566 14.1894 19.6485 14.1812C19.6403 14.1731 19.6347 14.1627 19.6325 14.1513C19.6302 14.14 19.6314 14.1283 19.6358 14.1176C19.6402 14.1069 19.6477 14.0978 19.6573 14.0914C19.6669 14.085 19.6782 14.0815 19.6897 14.0815C19.7052 14.0815 19.7201 14.0877 19.731 14.0986C19.742 14.1096 19.7481 14.1245 19.7481 14.1399Z" fill="#818189"/>
<path d="M20.1811 13.1816C20.1811 13.2272 20.1579 13.2616 20.1291 13.2616C20.1003 13.2616 20.0771 13.2248 20.0771 13.1816C20.0771 13.1384 20.1003 13.1016 20.1291 13.1016C20.1579 13.1016 20.1811 13.1352 20.1811 13.1816Z" fill="#818189"/>
<path d="M22.7276 12.8327C22.7274 12.8447 22.7225 12.8561 22.714 12.8644C22.7054 12.8728 22.694 12.8775 22.682 12.8775C22.6701 12.8775 22.6587 12.8728 22.6503 12.8644C22.6419 12.856 22.6372 12.8446 22.6372 12.8327C22.6372 12.8208 22.6419 12.8093 22.6503 12.8007C22.6587 12.7922 22.6701 12.7873 22.682 12.7871C22.694 12.7873 22.7055 12.7922 22.714 12.8007C22.7225 12.8092 22.7274 12.8207 22.7276 12.8327Z" fill="#818189"/>
<path d="M16.7712 12.72C16.7714 12.7335 16.7676 12.7467 16.7602 12.758C16.7528 12.7693 16.7422 12.7782 16.7298 12.7834C16.7174 12.7887 16.7037 12.7902 16.6905 12.7876C16.6772 12.7851 16.665 12.7787 16.6555 12.7692C16.6459 12.7597 16.6393 12.7476 16.6366 12.7344C16.6339 12.7212 16.6352 12.7075 16.6404 12.695C16.6455 12.6825 16.6542 12.6719 16.6654 12.6644C16.6766 12.6568 16.6898 12.6528 16.7032 12.6528C16.7121 12.6527 16.721 12.6544 16.7292 12.6577C16.7375 12.6611 16.745 12.666 16.7513 12.6722C16.7576 12.6785 16.7626 12.6859 16.7661 12.6941C16.7695 12.7023 16.7712 12.7111 16.7712 12.72Z" fill="#818189"/>
<path d="M16.596 12.9233C16.596 12.9317 16.5935 12.9399 16.5888 12.9469C16.5841 12.9539 16.5775 12.9593 16.5697 12.9625C16.5619 12.9657 16.5533 12.9665 16.5451 12.9648C16.5368 12.9631 16.5293 12.959 16.5234 12.953C16.5175 12.9469 16.5135 12.9393 16.5119 12.931C16.5104 12.9228 16.5114 12.9142 16.5147 12.9065C16.518 12.8987 16.5236 12.8922 16.5307 12.8876C16.5377 12.8831 16.546 12.8807 16.5544 12.8809C16.56 12.8809 16.5654 12.882 16.5705 12.8841C16.5756 12.8862 16.5803 12.8894 16.5841 12.8933C16.588 12.8973 16.5911 12.902 16.5931 12.9071C16.5951 12.9122 16.5961 12.9177 16.596 12.9233Z" fill="#818189"/>
<path d="M16.9346 13.1876C16.9346 13.2036 16.9114 13.2172 16.8842 13.2172C16.857 13.2172 16.833 13.2036 16.833 13.1876C16.833 13.1716 16.8562 13.1572 16.8842 13.1572C16.9122 13.1572 16.9346 13.1708 16.9346 13.1876Z" fill="#818189"/>
<path d="M16.7711 13.515C16.7699 13.5231 16.7658 13.5305 16.7595 13.5359C16.7533 13.5412 16.7453 13.5442 16.7371 13.5442C16.7289 13.5442 16.721 13.5412 16.7147 13.5359C16.7085 13.5305 16.7044 13.5231 16.7031 13.515C16.7044 13.5069 16.7085 13.4995 16.7147 13.4941C16.721 13.4888 16.7289 13.4858 16.7371 13.4858C16.7453 13.4858 16.7533 13.4888 16.7595 13.4941C16.7658 13.4995 16.7699 13.5069 16.7711 13.515Z" fill="#818189"/>
<path d="M5.33057 13.0776V14.2952L12.3874 19.2952V17.8168L5.33057 13.0776Z" fill="#808484"/>
<path d="M18.6056 17.0278L12.3872 17.8166V19.295L18.6056 18.3318V17.0278Z" fill="#4E5051"/>
<path d="M5.33057 13.0773L10.5226 12.5693L18.6058 17.0277L12.3874 17.8165L5.33057 13.0773Z" fill="#A7A7AF"/>
<path d="M13.1801 18.9456C13.4332 18.9456 13.6385 18.7404 13.6385 18.4872C13.6385 18.234 13.4332 18.0288 13.1801 18.0288C12.9269 18.0288 12.7217 18.234 12.7217 18.4872C12.7217 18.7404 12.9269 18.9456 13.1801 18.9456Z" fill="#303035"/>
<path d="M13.1803 18.0288C13.1127 18.0287 13.0459 18.0436 12.9848 18.0724C12.9237 18.1011 12.8697 18.1431 12.8267 18.1952C12.9145 18.122 13.0266 18.0843 13.1409 18.0895C13.2551 18.0947 13.3633 18.1424 13.4442 18.2233C13.5251 18.3042 13.5728 18.4123 13.578 18.5266C13.5832 18.6409 13.5455 18.7529 13.4723 18.8408C13.5451 18.7807 13.5976 18.6996 13.6226 18.6086C13.6476 18.5175 13.6439 18.4209 13.6119 18.3321C13.5799 18.2432 13.5213 18.1664 13.4441 18.1121C13.3668 18.0579 13.2747 18.0288 13.1803 18.0288Z" fill="#252528"/>
<path d="M15.0537 18.2748C15.0538 18.3657 15.027 18.4545 14.9767 18.5301C14.9263 18.6058 14.8546 18.6647 14.7707 18.6996C14.6868 18.7345 14.5945 18.7437 14.5054 18.7261C14.4162 18.7085 14.3343 18.6648 14.27 18.6006C14.2057 18.5364 14.1619 18.4546 14.1441 18.3655C14.1264 18.2764 14.1354 18.184 14.1701 18.1001C14.2049 18.0161 14.2637 17.9443 14.3393 17.8939C14.4148 17.8434 14.5036 17.8164 14.5945 17.8164C14.6547 17.8163 14.7144 17.8281 14.7701 17.8511C14.8258 17.8741 14.8765 17.9078 14.9191 17.9504C14.9618 17.993 14.9956 18.0435 15.0187 18.0992C15.0418 18.1549 15.0537 18.2145 15.0537 18.2748Z" fill="#414144"/>
<path d="M14.5944 17.8165C14.5226 17.8165 14.4518 17.8334 14.3877 17.8657C14.3237 17.8981 14.2681 17.9451 14.2256 18.0029C14.3139 17.9392 14.422 17.9089 14.5306 17.9176C14.6392 17.9263 14.7411 17.9734 14.8181 18.0504C14.8951 18.1274 14.9422 18.2294 14.9509 18.3379C14.9596 18.4465 14.9294 18.5546 14.8656 18.6429C14.9435 18.5857 15.0014 18.5054 15.0309 18.4133C15.0605 18.3212 15.0601 18.2221 15.0299 18.1303C14.9998 18.0384 14.9413 17.9584 14.8629 17.9018C14.7846 17.8452 14.6903 17.8148 14.5936 17.8149L14.5944 17.8165Z" fill="#252528"/>
<path d="M16.5145 18.0673C16.5145 18.1579 16.4876 18.2466 16.4372 18.322C16.3868 18.3973 16.3152 18.4561 16.2315 18.4908C16.1477 18.5255 16.0555 18.5346 15.9666 18.5169C15.8777 18.4992 15.796 18.4555 15.7319 18.3914C15.6678 18.3273 15.6242 18.2456 15.6065 18.1567C15.5888 18.0678 15.5979 17.9756 15.6326 17.8919C15.6672 17.8081 15.726 17.7365 15.8014 17.6861C15.8768 17.6358 15.9654 17.6089 16.0561 17.6089C16.1776 17.6091 16.294 17.6575 16.38 17.7434C16.4659 17.8293 16.5142 17.9458 16.5145 18.0673Z" fill="#414144"/>
<path d="M17.929 17.8557C17.9288 17.9463 17.9018 18.0349 17.8514 18.1101C17.8009 18.1854 17.7293 18.244 17.6455 18.2786C17.5617 18.3132 17.4696 18.3222 17.3807 18.3044C17.2918 18.2866 17.2102 18.2429 17.1462 18.1787C17.0822 18.1146 17.0386 18.0329 17.021 17.944C17.0033 17.8551 17.0125 17.763 17.0472 17.6793C17.0819 17.5956 17.1407 17.524 17.216 17.4737C17.2914 17.4233 17.38 17.3965 17.4706 17.3965C17.5309 17.3965 17.5905 17.4084 17.6462 17.4315C17.7019 17.4545 17.7525 17.4884 17.795 17.531C17.8376 17.5737 17.8714 17.6243 17.8943 17.68C17.9173 17.7357 17.9291 17.7954 17.929 17.8557Z" fill="#414144"/>
<path opacity="0.33" d="M12.3874 17.8165V19.2949L5.33057 14.2949C5.33057 14.2949 11.8746 18.9645 12.3874 17.8165Z" fill="#414144"/>
<g style="mix-blend-mode:screen" opacity="0.32">
<path d="M14.4747 14.9468C11.7451 13.2724 9.16751 12.51 8.71471 13.2444C8.26191 13.9788 10.1107 15.9316 12.8403 17.606C12.9091 17.6492 12.9787 17.6908 13.0475 17.7324L17.4259 17.1764C16.6907 16.4636 15.6667 15.6796 14.4747 14.9468Z" fill="#CACAD8"/>
</g>
<path d="M5.75 11.8101V13.0277L12.8076 18.0285V16.5493L5.75 11.8101Z" fill="#808484"/>
<path d="M19.0247 15.7607L12.8071 16.5495V18.0287L19.0247 17.0647V15.7607Z" fill="#3B3E3F"/>
<path d="M5.75 11.8102L10.942 11.3022L19.0252 15.7606L12.8076 16.5494L5.75 11.8102Z" fill="#CACAD8"/>
<path d="M13.6 17.678C13.8532 17.678 14.0584 17.4728 14.0584 17.2196C14.0584 16.9665 13.8532 16.7612 13.6 16.7612C13.3468 16.7612 13.1416 16.9665 13.1416 17.2196C13.1416 17.4728 13.3468 17.678 13.6 17.678Z" fill="#303035"/>
<path d="M13.6 16.7612C13.5322 16.7612 13.4653 16.7761 13.404 16.8051C13.3428 16.834 13.2886 16.8761 13.2456 16.9284C13.3335 16.8552 13.4456 16.8175 13.5598 16.8227C13.6741 16.8279 13.7822 16.8756 13.8631 16.9565C13.944 17.0374 13.9917 17.1456 13.9969 17.2598C14.0021 17.3741 13.9644 17.4861 13.8912 17.574C13.9643 17.5141 14.0171 17.433 14.0423 17.3418C14.0675 17.2507 14.0639 17.154 14.032 17.065C14.0001 16.976 13.9415 16.899 13.8641 16.8447C13.7868 16.7903 13.6946 16.7611 13.6 16.7612Z" fill="#252528"/>
<path d="M15.473 17.0085C15.4728 17.0991 15.4458 17.1877 15.3953 17.263C15.3448 17.3383 15.2732 17.3969 15.1894 17.4315C15.1056 17.466 15.0135 17.475 14.9246 17.4572C14.8358 17.4394 14.7542 17.3957 14.6901 17.3316C14.6261 17.2674 14.5825 17.1858 14.5649 17.0969C14.5473 17.008 14.5564 16.9158 14.5911 16.8321C14.6258 16.7484 14.6846 16.6769 14.76 16.6265C14.8353 16.5762 14.9239 16.5493 15.0146 16.5493C15.0748 16.5493 15.1345 16.5612 15.1902 16.5843C15.2458 16.6074 15.2964 16.6412 15.339 16.6839C15.3815 16.7265 15.4153 16.7771 15.4383 16.8328C15.4613 16.8886 15.4731 16.9483 15.473 17.0085Z" fill="#414144"/>
<path d="M15.0146 16.5496C14.9427 16.5497 14.8717 16.5667 14.8075 16.5992C14.7433 16.6317 14.6876 16.6788 14.645 16.7368C14.7333 16.6731 14.8414 16.6428 14.95 16.6515C15.0586 16.6602 15.1605 16.7073 15.2375 16.7843C15.3145 16.8613 15.3616 16.9633 15.3703 17.0718C15.379 17.1804 15.3488 17.2885 15.285 17.3768C15.3625 17.3194 15.4199 17.239 15.4491 17.147C15.4783 17.0551 15.4778 16.9563 15.4477 16.8647C15.4176 16.7731 15.3594 16.6933 15.2814 16.6366C15.2034 16.5799 15.1095 16.5492 15.013 16.5488L15.0146 16.5496Z" fill="#252528"/>
<path d="M16.9345 16.8C16.9345 16.8909 16.9076 16.9797 16.8571 17.0552C16.8066 17.1308 16.7348 17.1896 16.6509 17.2243C16.5669 17.2591 16.4745 17.2681 16.3854 17.2503C16.2963 17.2326 16.2145 17.1887 16.1503 17.1244C16.0861 17.0601 16.0425 16.9782 16.0248 16.8891C16.0072 16.8 16.0164 16.7076 16.0513 16.6237C16.0862 16.5398 16.1452 16.4682 16.2208 16.4178C16.2964 16.3675 16.3853 16.3407 16.4761 16.3408C16.5978 16.341 16.7144 16.3895 16.8003 16.4756C16.8862 16.5617 16.9345 16.6784 16.9345 16.8Z" fill="#303035"/>
<path d="M17.8905 17.0472C18.1437 17.0472 18.3489 16.8419 18.3489 16.5888C18.3489 16.3356 18.1437 16.1304 17.8905 16.1304C17.6374 16.1304 17.4321 16.3356 17.4321 16.5888C17.4321 16.8419 17.6374 17.0472 17.8905 17.0472Z" fill="#303035"/>
<path opacity="0.33" d="M12.8076 16.5494V18.0286L5.75 13.0278C5.75 13.0278 12.2948 17.6982 12.8076 16.5494Z" fill="#414144"/>
<g style="mix-blend-mode:screen" opacity="0.32">
<path d="M14.8939 13.68C12.1651 12.0048 9.58746 11.2424 9.13386 11.9768C8.68026 12.7112 10.5299 14.664 13.2587 16.3392L13.4667 16.4648L17.8451 15.9096C17.1107 15.2 16.0867 14.412 14.8939 13.68Z" fill="#CACAD8"/>
</g>
<path d="M5.5009 13.4062C5.5009 13.4168 5.49668 13.427 5.48918 13.4345C5.48168 13.442 5.47151 13.4462 5.4609 13.4462C5.45029 13.4462 5.44012 13.442 5.43261 13.4345C5.42511 13.427 5.4209 13.4168 5.4209 13.4062C5.4209 13.3956 5.42511 13.3854 5.43261 13.3779C5.44012 13.3704 5.45029 13.3662 5.4609 13.3662C5.47151 13.3662 5.48168 13.3704 5.48918 13.3779C5.49668 13.3854 5.5009 13.3956 5.5009 13.4062Z" fill="#6D6D72"/>
<path d="M5.64346 13.4494C5.64346 13.4516 5.64303 13.4538 5.64218 13.4558C5.64134 13.4579 5.6401 13.4597 5.63854 13.4613C5.63698 13.4629 5.63513 13.4641 5.63309 13.4649C5.63105 13.4658 5.62887 13.4662 5.62666 13.4662C5.62227 13.466 5.61811 13.4642 5.615 13.4611C5.61189 13.458 5.61006 13.4538 5.60986 13.4494C5.60986 13.445 5.61163 13.4407 5.61478 13.4375C5.61793 13.4344 5.62221 13.4326 5.62666 13.4326C5.63112 13.4326 5.63539 13.4344 5.63854 13.4375C5.64169 13.4407 5.64346 13.445 5.64346 13.4494Z" fill="#6D6D72"/>
<path d="M5.54887 13.5821C5.54887 13.5855 5.54784 13.5889 5.54591 13.5918C5.54397 13.5947 5.54122 13.597 5.53801 13.5983C5.53479 13.5996 5.53125 13.6 5.52784 13.5993C5.52442 13.5986 5.52129 13.597 5.51883 13.5945C5.51637 13.592 5.51469 13.5889 5.51401 13.5855C5.51333 13.5821 5.51368 13.5785 5.51501 13.5753C5.51634 13.5721 5.5186 13.5694 5.52149 13.5674C5.52439 13.5655 5.52779 13.5645 5.53127 13.5645C5.53594 13.5645 5.54042 13.5663 5.54372 13.5696C5.54702 13.5729 5.54887 13.5774 5.54887 13.5821Z" fill="#6D6D72"/>
<path d="M5.44001 13.2569C5.44001 13.2639 5.43723 13.2706 5.43227 13.2755C5.42732 13.2805 5.42061 13.2833 5.41361 13.2833C5.40661 13.2833 5.39989 13.2805 5.39494 13.2755C5.38999 13.2706 5.38721 13.2639 5.38721 13.2569C5.38721 13.2499 5.38999 13.2432 5.39494 13.2382C5.39989 13.2332 5.40661 13.2305 5.41361 13.2305C5.42061 13.2305 5.42732 13.2332 5.43227 13.2382C5.43723 13.2432 5.44001 13.2499 5.44001 13.2569Z" fill="#6D6D72"/>
<path d="M5.45357 13.6704C5.45357 13.6743 5.4524 13.6782 5.4502 13.6815C5.44801 13.6848 5.44488 13.6874 5.44123 13.6889C5.43757 13.6904 5.43355 13.6908 5.42967 13.69C5.42579 13.6892 5.42223 13.6873 5.41943 13.6845C5.41664 13.6817 5.41473 13.6782 5.41396 13.6743C5.41319 13.6704 5.41358 13.6664 5.4151 13.6627C5.41661 13.6591 5.41917 13.656 5.42246 13.6538C5.42575 13.6516 5.42962 13.6504 5.43357 13.6504C5.43888 13.6504 5.44397 13.6525 5.44772 13.6562C5.45147 13.66 5.45357 13.6651 5.45357 13.6704Z" fill="#6D6D72"/>
<path d="M5.79126 13.696C5.79137 13.6995 5.79078 13.7029 5.78954 13.7061C5.78831 13.7093 5.78644 13.7122 5.78405 13.7146C5.78166 13.7171 5.7788 13.7191 5.77564 13.7204C5.77248 13.7217 5.76909 13.7224 5.76566 13.7224C5.75866 13.7224 5.75194 13.7196 5.74699 13.7147C5.74204 13.7097 5.73926 13.703 5.73926 13.696C5.73926 13.6926 5.73994 13.6892 5.74128 13.686C5.74262 13.6829 5.74457 13.68 5.74704 13.6776C5.7495 13.6752 5.75242 13.6734 5.75562 13.6721C5.75881 13.6709 5.76223 13.6703 5.76566 13.6704C5.77245 13.6704 5.77896 13.6731 5.78376 13.6779C5.78856 13.6827 5.79126 13.6892 5.79126 13.696Z" fill="#6D6D72"/>
<path d="M5.73951 13.4934C5.73951 13.4964 5.73833 13.4993 5.73623 13.5014C5.73413 13.5035 5.73128 13.5046 5.72831 13.5046C5.72526 13.5047 5.72232 13.5035 5.72009 13.5014C5.71787 13.4993 5.71651 13.4965 5.71631 13.4934C5.71631 13.4919 5.71662 13.4903 5.71722 13.4889C5.71783 13.4874 5.71871 13.4861 5.71982 13.485C5.72094 13.4838 5.72226 13.483 5.72372 13.4824C5.72517 13.4818 5.72673 13.4814 5.72831 13.4814C5.73135 13.4816 5.7342 13.483 5.73628 13.4852C5.73836 13.4875 5.73952 13.4904 5.73951 13.4934Z" fill="#6D6D72"/>
<path d="M5.84578 11.9998C5.84578 12.0014 5.84547 12.0029 5.84486 12.0044C5.84426 12.0058 5.84338 12.0072 5.84226 12.0083C5.84115 12.0094 5.83983 12.0103 5.83837 12.0109C5.83691 12.0115 5.83535 12.0118 5.83378 12.0118C5.83059 12.0118 5.82754 12.0105 5.82529 12.0083C5.82304 12.006 5.82178 12.003 5.82178 11.9998C5.82178 11.9966 5.82304 11.9936 5.82529 11.9913C5.82754 11.9891 5.83059 11.9878 5.83378 11.9878C5.83535 11.9878 5.83691 11.9881 5.83837 11.9887C5.83983 11.9893 5.84115 11.9902 5.84226 11.9913C5.84338 11.9924 5.84426 11.9937 5.84486 11.9952C5.84547 11.9967 5.84578 11.9982 5.84578 11.9998Z" fill="#6D6D72"/>
<path d="M5.8936 12.1543C5.8936 12.1578 5.89257 12.1612 5.89063 12.1641C5.8887 12.167 5.88595 12.1692 5.88273 12.1706C5.87952 12.1719 5.87598 12.1723 5.87256 12.1716C5.86915 12.1709 5.86601 12.1692 5.86355 12.1668C5.86109 12.1643 5.85942 12.1612 5.85874 12.1578C5.85806 12.1543 5.85841 12.1508 5.85974 12.1476C5.86107 12.1444 5.86333 12.1416 5.86622 12.1397C5.86911 12.1377 5.87252 12.1367 5.876 12.1367C5.88067 12.1367 5.88514 12.1386 5.88844 12.1419C5.89174 12.1452 5.8936 12.1496 5.8936 12.1543Z" fill="#6D6D72"/>
<path d="M6.18115 12.2464C6.18126 12.2489 6.18087 12.2514 6.17999 12.2537C6.17911 12.2561 6.17778 12.2582 6.17606 12.26C6.17434 12.2618 6.17227 12.2632 6.16999 12.2642C6.1677 12.2651 6.16524 12.2656 6.16275 12.2656C6.15766 12.2656 6.15278 12.2636 6.14918 12.26C6.14558 12.2564 6.14355 12.2515 6.14355 12.2464C6.14355 12.244 6.14405 12.2415 6.14503 12.2392C6.146 12.2369 6.14743 12.2349 6.14922 12.2331C6.15102 12.2314 6.15314 12.2301 6.15547 12.2292C6.15779 12.2283 6.16027 12.2279 6.16275 12.228C6.16763 12.228 6.17231 12.23 6.17577 12.2334C6.17922 12.2369 6.18115 12.2416 6.18115 12.2464Z" fill="#6D6D72"/>
<path d="M6.20961 12.4246C6.20977 12.4294 6.20847 12.4341 6.2059 12.4382C6.20332 12.4423 6.19958 12.4455 6.19517 12.4474C6.19075 12.4493 6.18586 12.4498 6.18113 12.4489C6.1764 12.448 6.17205 12.4457 6.16865 12.4423C6.16525 12.4389 6.16295 12.4346 6.16204 12.4299C6.16114 12.4251 6.16169 12.4202 6.1636 12.4158C6.16552 12.4114 6.16871 12.4077 6.17278 12.4051C6.17685 12.4025 6.1816 12.4012 6.18641 12.4014C6.19256 12.4014 6.19846 12.4038 6.20281 12.4082C6.20716 12.4125 6.20961 12.4184 6.20961 12.4246Z" fill="#6D6D72"/>
<path d="M6.06881 12.102C6.06881 12.106 6.06764 12.1099 6.06544 12.1131C6.06324 12.1164 6.06012 12.119 6.05646 12.1205C6.05281 12.122 6.04879 12.1224 6.04491 12.1216C6.04103 12.1209 6.03746 12.119 6.03467 12.1162C6.03187 12.1134 6.02996 12.1098 6.02919 12.1059C6.02842 12.1021 6.02882 12.098 6.03033 12.0944C6.03184 12.0907 6.03441 12.0876 6.0377 12.0854C6.04099 12.0832 6.04485 12.082 6.04881 12.082C6.05411 12.082 6.0592 12.0841 6.06295 12.0879C6.0667 12.0916 6.06881 12.0967 6.06881 12.102Z" fill="#6D6D72"/>
<path d="M6.44234 12.3721C6.44234 12.3774 6.44024 12.3824 6.43649 12.3862C6.43274 12.3899 6.42765 12.3921 6.42234 12.3921C6.41704 12.3921 6.41195 12.3899 6.4082 12.3862C6.40445 12.3824 6.40234 12.3774 6.40234 12.3721C6.40234 12.3667 6.40445 12.3617 6.4082 12.3579C6.41195 12.3542 6.41704 12.3521 6.42234 12.3521C6.42765 12.3521 6.43274 12.3542 6.43649 12.3579C6.44024 12.3617 6.44234 12.3667 6.44234 12.3721Z" fill="#6D6D72"/>
<path d="M6.44236 12.5505C6.44236 12.5609 6.44236 12.5696 6.43276 12.5696C6.42316 12.5696 6.42236 12.5609 6.42236 12.5505C6.42236 12.5401 6.42716 12.5312 6.43276 12.5312C6.43836 12.5312 6.44236 12.5393 6.44236 12.5505Z" fill="#6D6D72"/>
<path d="M9.64037 16.254C9.64037 16.2583 9.6391 16.2625 9.63673 16.266C9.63435 16.2696 9.63098 16.2723 9.62703 16.274C9.62309 16.2756 9.61874 16.276 9.61455 16.2752C9.61036 16.2744 9.60652 16.2723 9.60349 16.2693C9.60047 16.2663 9.59842 16.2624 9.59758 16.2582C9.59675 16.254 9.59718 16.2497 9.59881 16.2458C9.60045 16.2418 9.60322 16.2384 9.60677 16.2361C9.61032 16.2337 9.6145 16.2324 9.61877 16.2324C9.6245 16.2324 9.62999 16.2347 9.63404 16.2387C9.63809 16.2428 9.64037 16.2483 9.64037 16.254Z" fill="#6D6D72"/>
<path d="M9.86572 16.3656C9.86551 16.3737 9.86213 16.3815 9.8563 16.3871C9.85047 16.3928 9.84266 16.396 9.83452 16.396C9.83006 16.3967 9.82549 16.3964 9.82114 16.3952C9.81679 16.394 9.81276 16.3919 9.80932 16.3889C9.80587 16.386 9.80311 16.3824 9.80122 16.3783C9.79932 16.3742 9.79834 16.3697 9.79834 16.3652C9.79834 16.3607 9.79932 16.3562 9.80122 16.3521C9.80311 16.348 9.80587 16.3444 9.80932 16.3414C9.81276 16.3385 9.81679 16.3364 9.82114 16.3351C9.82549 16.3339 9.83006 16.3337 9.83452 16.3344C9.84279 16.3344 9.85073 16.3377 9.85658 16.3435C9.86243 16.3494 9.86572 16.3573 9.86572 16.3656Z" fill="#6D6D72"/>
<path d="M10.1762 16.4744C10.1762 16.4829 10.1737 16.4913 10.1689 16.4984C10.1641 16.5056 10.1573 16.5111 10.1494 16.5143C10.1414 16.5176 10.1327 16.5184 10.1243 16.5167C10.1159 16.5149 10.1082 16.5107 10.1022 16.5046C10.0962 16.4985 10.0922 16.4907 10.0906 16.4823C10.089 16.4739 10.09 16.4651 10.0934 16.4573C10.0968 16.4494 10.1024 16.4427 10.1096 16.438C10.1168 16.4334 10.1253 16.431 10.1338 16.4312C10.1395 16.4312 10.1451 16.4323 10.1503 16.4345C10.1555 16.4366 10.1602 16.4398 10.1641 16.4439C10.1681 16.4479 10.1712 16.4527 10.1732 16.4579C10.1753 16.4631 10.1763 16.4687 10.1762 16.4744Z" fill="#6D6D72"/>
<path d="M9.99367 16.627C9.99433 16.6307 9.99417 16.6345 9.99321 16.6381C9.99225 16.6418 9.9905 16.6451 9.9881 16.648C9.9857 16.6509 9.9827 16.6532 9.9793 16.6548C9.97591 16.6563 9.97221 16.6572 9.96847 16.6572C9.96473 16.6572 9.96103 16.6563 9.95764 16.6548C9.95425 16.6532 9.95124 16.6509 9.94884 16.648C9.94644 16.6451 9.94469 16.6418 9.94373 16.6381C9.94277 16.6345 9.94261 16.6307 9.94327 16.627C9.94433 16.6211 9.94743 16.6158 9.95204 16.6119C9.95665 16.6081 9.96246 16.606 9.96847 16.606C9.97448 16.606 9.98029 16.6081 9.9849 16.6119C9.98951 16.6158 9.99261 16.6211 9.99367 16.627Z" fill="#6D6D72"/>
<path d="M10.433 16.7832C10.433 16.7961 10.4279 16.8085 10.4188 16.8177C10.4096 16.8268 10.3972 16.832 10.3842 16.832C10.3713 16.832 10.3589 16.8268 10.3497 16.8177C10.3406 16.8085 10.3354 16.7961 10.3354 16.7832C10.3354 16.7702 10.3406 16.7578 10.3497 16.7487C10.3589 16.7395 10.3713 16.7344 10.3842 16.7344C10.3972 16.7344 10.4096 16.7395 10.4188 16.7487C10.4279 16.7578 10.433 16.7702 10.433 16.7832Z" fill="#6D6D72"/>
<path d="M10.4801 17.063C10.4801 17.0724 10.4764 17.0813 10.4698 17.0879C10.4632 17.0945 10.4542 17.0982 10.4449 17.0982C10.4355 17.0982 10.4266 17.0945 10.42 17.0879C10.4134 17.0813 10.4097 17.0724 10.4097 17.063C10.4097 17.0537 10.4134 17.0447 10.42 17.0381C10.4266 17.0315 10.4355 17.0278 10.4449 17.0278C10.4542 17.0278 10.4632 17.0315 10.4698 17.0381C10.4764 17.0447 10.4801 17.0537 10.4801 17.063Z" fill="#6D6D72"/>
<path d="M10.9737 17.063C10.9737 17.0724 10.97 17.0813 10.9634 17.0879C10.9568 17.0945 10.9479 17.0982 10.9385 17.0982C10.9339 17.0983 10.9293 17.0975 10.9249 17.0958C10.9206 17.094 10.9167 17.0915 10.9134 17.0882C10.9101 17.0849 10.9075 17.081 10.9058 17.0766C10.9041 17.0723 10.9032 17.0677 10.9033 17.063C10.9033 17.0537 10.907 17.0447 10.9136 17.0381C10.9202 17.0315 10.9292 17.0278 10.9385 17.0278C10.9479 17.0278 10.9568 17.0315 10.9634 17.0381C10.97 17.0447 10.9737 17.0537 10.9737 17.063Z" fill="#6D6D72"/>
<path d="M10.7881 16.8797C10.7881 16.886 10.7862 16.8922 10.7827 16.8974C10.7792 16.9027 10.7742 16.9068 10.7684 16.9092C10.7625 16.9116 10.7561 16.9123 10.7499 16.911C10.7437 16.9098 10.738 16.9068 10.7335 16.9023C10.729 16.8978 10.726 16.8921 10.7247 16.8859C10.7235 16.8797 10.7241 16.8733 10.7266 16.8674C10.729 16.8616 10.7331 16.8566 10.7383 16.853C10.7436 16.8495 10.7498 16.8477 10.7561 16.8477C10.7646 16.8477 10.7727 16.851 10.7787 16.857C10.7847 16.863 10.7881 16.8712 10.7881 16.8797Z" fill="#6D6D72"/>
<path d="M11.4335 17.3401C11.4335 17.3469 11.4315 17.3535 11.4277 17.3592C11.424 17.3648 11.4186 17.3693 11.4123 17.3719C11.406 17.3745 11.3991 17.3751 11.3924 17.3738C11.3858 17.3725 11.3796 17.3692 11.3748 17.3644C11.37 17.3596 11.3667 17.3535 11.3654 17.3468C11.3641 17.3401 11.3648 17.3332 11.3674 17.3269C11.37 17.3206 11.3744 17.3153 11.38 17.3115C11.3857 17.3077 11.3923 17.3057 11.3991 17.3057C11.4037 17.3056 11.4082 17.3064 11.4124 17.3081C11.4167 17.3098 11.4205 17.3123 11.4237 17.3155C11.4269 17.3187 11.4295 17.3226 11.4312 17.3268C11.4328 17.331 11.4337 17.3355 11.4335 17.3401Z" fill="#6D6D72"/>
<path d="M12.4002 16.5045C12.4002 16.5105 12.3984 16.5164 12.395 16.5214C12.3917 16.5264 12.3869 16.5303 12.3814 16.5326C12.3758 16.5349 12.3697 16.5355 12.3638 16.5343C12.3579 16.5332 12.3525 16.5303 12.3483 16.526C12.344 16.5218 12.3411 16.5163 12.3399 16.5105C12.3388 16.5046 12.3394 16.4984 12.3417 16.4929C12.344 16.4873 12.3479 16.4826 12.3529 16.4792C12.3579 16.4759 12.3637 16.4741 12.3698 16.4741C12.3778 16.4741 12.3856 16.4773 12.3913 16.483C12.397 16.4887 12.4002 16.4965 12.4002 16.5045Z" fill="#545459"/>
<path d="M12.6699 16.6445C12.67 16.6531 12.6676 16.6615 12.6629 16.6688C12.6583 16.676 12.6515 16.6816 12.6436 16.685C12.6357 16.6884 12.6269 16.6893 12.6185 16.6877C12.61 16.686 12.6022 16.6819 12.5961 16.6758C12.5901 16.6697 12.5859 16.6619 12.5843 16.6535C12.5826 16.645 12.5836 16.6363 12.5869 16.6284C12.5903 16.6204 12.596 16.6137 12.6032 16.609C12.6104 16.6043 12.6189 16.6019 12.6275 16.6021C12.6387 16.6023 12.6493 16.6068 12.6572 16.6147C12.6652 16.6226 12.6697 16.6333 12.6699 16.6445Z" fill="#545459"/>
<path d="M12.6475 16.8632C12.6476 16.8696 12.6459 16.8759 12.6424 16.8813C12.639 16.8867 12.634 16.8909 12.6281 16.8934C12.6222 16.896 12.6157 16.8967 12.6094 16.8955C12.6032 16.8942 12.5974 16.8912 12.5929 16.8867C12.5883 16.8821 12.5853 16.8764 12.5841 16.8701C12.5829 16.8638 12.5836 16.8573 12.5861 16.8514C12.5886 16.8455 12.5928 16.8406 12.5982 16.8371C12.6036 16.8336 12.6099 16.8319 12.6163 16.832C12.6246 16.832 12.6325 16.8353 12.6383 16.8412C12.6442 16.847 12.6475 16.855 12.6475 16.8632Z" fill="#545459"/>
<path d="M12.1314 16.1797C12.1314 16.1867 12.1294 16.1935 12.1255 16.1993C12.1216 16.2051 12.1161 16.2096 12.1097 16.2123C12.1033 16.2149 12.0962 16.2156 12.0894 16.2143C12.0825 16.2129 12.0763 16.2095 12.0713 16.2046C12.0664 16.1997 12.0631 16.1934 12.0617 16.1866C12.0604 16.1798 12.0611 16.1727 12.0637 16.1663C12.0664 16.1598 12.0709 16.1543 12.0767 16.1505C12.0825 16.1466 12.0893 16.1445 12.0962 16.1445C12.1056 16.1445 12.1145 16.1482 12.1211 16.1548C12.1277 16.1614 12.1314 16.1704 12.1314 16.1797Z" fill="#545459"/>
<path d="M12.3716 16.8309C12.3723 16.8354 12.372 16.8399 12.3708 16.8443C12.3696 16.8486 12.3675 16.8527 12.3645 16.8561C12.3616 16.8596 12.358 16.8623 12.3539 16.8642C12.3498 16.8661 12.3453 16.8671 12.3408 16.8671C12.3363 16.8671 12.3318 16.8661 12.3277 16.8642C12.3236 16.8623 12.3199 16.8596 12.317 16.8561C12.3141 16.8527 12.3119 16.8486 12.3107 16.8443C12.3095 16.8399 12.3092 16.8354 12.31 16.8309C12.3112 16.8236 12.3149 16.8169 12.3205 16.8121C12.3262 16.8073 12.3334 16.8047 12.3408 16.8047C12.3482 16.8047 12.3554 16.8073 12.361 16.8121C12.3666 16.8169 12.3704 16.8236 12.3716 16.8309Z" fill="#545459"/>
<path d="M12.6962 17.1335C12.6962 17.1426 12.6926 17.1514 12.6862 17.1578C12.6797 17.1643 12.671 17.1679 12.6618 17.1679C12.6527 17.1679 12.644 17.1643 12.6375 17.1578C12.6311 17.1514 12.6274 17.1426 12.6274 17.1335C12.6274 17.1244 12.6311 17.1156 12.6375 17.1092C12.644 17.1027 12.6527 17.0991 12.6618 17.0991C12.671 17.0991 12.6797 17.1027 12.6862 17.1092C12.6926 17.1156 12.6962 17.1244 12.6962 17.1335Z" fill="#545459"/>
<path d="M11.8464 16.2205C11.8464 16.2311 11.8422 16.2413 11.8347 16.2488C11.8272 16.2563 11.817 16.2605 11.8064 16.2605C11.8011 16.2606 11.7958 16.2596 11.7909 16.2577C11.7859 16.2557 11.7814 16.2528 11.7776 16.2491C11.7738 16.2453 11.7708 16.2409 11.7687 16.236C11.7667 16.2311 11.7656 16.2258 11.7656 16.2205C11.7656 16.2097 11.7699 16.1993 11.7776 16.1916C11.7852 16.184 11.7956 16.1797 11.8064 16.1797C11.8117 16.1797 11.817 16.1807 11.8219 16.1828C11.8268 16.1849 11.8313 16.1879 11.835 16.1917C11.8387 16.1955 11.8416 16.2 11.8436 16.2049C11.8456 16.2099 11.8465 16.2152 11.8464 16.2205Z" fill="#545459"/>
<path d="M12.0962 16.4136C12.0962 16.4232 12.081 16.4312 12.0634 16.4312C12.0458 16.4312 12.0298 16.4232 12.0298 16.4136C12.0298 16.404 12.045 16.396 12.0634 16.396C12.0818 16.396 12.0962 16.404 12.0962 16.4136Z" fill="#545459"/>
<path d="M11.5635 15.9063C11.5642 15.9108 11.5639 15.9153 11.5627 15.9197C11.5615 15.924 11.5594 15.9281 11.5564 15.9315C11.5535 15.9349 11.5499 15.9377 11.5457 15.9396C11.5416 15.9415 11.5372 15.9425 11.5327 15.9425C11.5281 15.9425 11.5237 15.9415 11.5196 15.9396C11.5155 15.9377 11.5118 15.9349 11.5089 15.9315C11.506 15.9281 11.5038 15.924 11.5026 15.9197C11.5014 15.9153 11.5011 15.9108 11.5019 15.9063C11.5011 15.9018 11.5014 15.8973 11.5026 15.8929C11.5038 15.8886 11.506 15.8845 11.5089 15.8811C11.5118 15.8777 11.5155 15.8749 11.5196 15.873C11.5237 15.8711 11.5281 15.8701 11.5327 15.8701C11.5372 15.8701 11.5416 15.8711 11.5457 15.873C11.5499 15.8749 11.5535 15.8777 11.5564 15.8811C11.5594 15.8845 11.5615 15.8886 11.5627 15.8929C11.5639 15.8973 11.5642 15.9018 11.5635 15.9063Z" fill="#545459"/>
<path d="M12.5528 17.3902C12.5528 17.4174 12.5392 17.4406 12.5224 17.4406C12.5056 17.4406 12.4912 17.4174 12.4912 17.3902C12.4912 17.363 12.5048 17.3398 12.5224 17.3398C12.54 17.3398 12.5528 17.3598 12.5528 17.3902Z" fill="#545459"/>
<path d="M10.3755 24.084L11.5131 24.444V26.0112L10.3755 25.5544V24.084Z" fill="#818189"/>
<path d="M29.4259 14.2847L12.0107 21.3727L10.3755 24.0839L11.5131 24.4439L14.4627 22.4183L32.1627 14.7751L29.4259 14.2847Z" fill="#CACACA"/>
<path d="M11.5132 26.0109L14.5164 26.6797L32.1628 18.2229V14.7749L14.4628 22.4181L11.5132 24.4437V26.0109Z" fill="#717171"/>
<path d="M14.5164 26.5833L14.4628 22.4185L11.5132 24.4441V26.0113L14.5164 26.5833Z" fill="#636368"/>
<path d="M12.0107 21.3727L14.4627 22.4183L32.1627 14.7751L29.4259 14.2847L12.0107 21.3727Z" fill="#636368"/>
<path d="M14.9337 22.5696C14.9326 22.5889 14.9241 22.607 14.9099 22.62C14.8957 22.633 14.8769 22.6399 14.8577 22.6392C14.8392 22.6392 14.8215 22.6319 14.8085 22.6189C14.7954 22.6058 14.7881 22.5881 14.7881 22.5696C14.7881 22.5512 14.7954 22.5335 14.8085 22.5204C14.8215 22.5074 14.8392 22.5 14.8577 22.5C14.8769 22.4994 14.8957 22.5063 14.9099 22.5193C14.9241 22.5323 14.9326 22.5504 14.9337 22.5696Z" fill="#636368"/>
<path d="M15.5111 22.3657C15.5121 22.3774 15.5095 22.3891 15.5037 22.3993C15.4979 22.4095 15.4892 22.4178 15.4786 22.4229C15.4681 22.4281 15.4562 22.4299 15.4446 22.4283C15.4329 22.4266 15.4221 22.4214 15.4134 22.4135C15.4048 22.4055 15.3987 22.3952 15.3961 22.3837C15.3934 22.3723 15.3942 22.3603 15.3985 22.3494C15.4027 22.3384 15.4102 22.329 15.4198 22.3223C15.4295 22.3157 15.441 22.3121 15.4527 22.3121C15.4601 22.3117 15.4674 22.3129 15.4744 22.3154C15.4813 22.3179 15.4876 22.3218 15.493 22.3268C15.4985 22.3317 15.5029 22.3377 15.506 22.3444C15.5091 22.3511 15.5108 22.3583 15.5111 22.3657Z" fill="#636368"/>
<path d="M15.0666 23.0999C15.0678 23.1132 15.0649 23.1266 15.0583 23.1382C15.0517 23.1498 15.0418 23.1592 15.0298 23.1651C15.0178 23.171 15.0043 23.1731 14.9911 23.1712C14.9778 23.1693 14.9655 23.1635 14.9556 23.1545C14.9458 23.1455 14.9389 23.1337 14.9358 23.1207C14.9328 23.1077 14.9337 23.094 14.9386 23.0816C14.9434 23.0691 14.9518 23.0584 14.9628 23.0508C14.9738 23.0432 14.9869 23.0392 15.0002 23.0391C15.0171 23.0385 15.0335 23.0445 15.0459 23.0559C15.0584 23.0672 15.0658 23.0831 15.0666 23.0999Z" fill="#636368"/>
<path d="M15.453 22.8444C15.4539 22.8555 15.4515 22.8666 15.4461 22.8763C15.4406 22.886 15.4324 22.8938 15.4224 22.8987C15.4125 22.9036 15.4012 22.9054 15.3902 22.9039C15.3792 22.9023 15.369 22.8975 15.3608 22.89C15.3525 22.8825 15.3468 22.8727 15.3442 22.8619C15.3417 22.851 15.3425 22.8397 15.3465 22.8293C15.3505 22.819 15.3575 22.8101 15.3667 22.8037C15.3758 22.7974 15.3867 22.794 15.3978 22.794C15.4047 22.7937 15.4116 22.7947 15.4182 22.7971C15.4247 22.7994 15.4307 22.8031 15.4358 22.8078C15.4409 22.8124 15.4451 22.8181 15.448 22.8244C15.451 22.8307 15.4527 22.8375 15.453 22.8444Z" fill="#636368"/>
<path d="M15.2802 22.6799C15.2788 22.6907 15.2735 22.7006 15.2653 22.7077C15.2571 22.7148 15.2467 22.7188 15.2358 22.7188C15.225 22.7188 15.2145 22.7148 15.2063 22.7077C15.1981 22.7006 15.1929 22.6907 15.1914 22.6799C15.1929 22.6692 15.1981 22.6593 15.2063 22.6522C15.2145 22.645 15.225 22.6411 15.2358 22.6411C15.2467 22.6411 15.2571 22.645 15.2653 22.6522C15.2735 22.6593 15.2788 22.6692 15.2802 22.6799Z" fill="#636368"/>
<path d="M14.7377 22.7575C14.7375 22.7626 14.7363 22.7675 14.7342 22.7721C14.7321 22.7767 14.7291 22.7808 14.7253 22.7842C14.7216 22.7876 14.7173 22.7903 14.7125 22.792C14.7078 22.7938 14.7028 22.7946 14.6977 22.7943C14.6876 22.7946 14.6778 22.7909 14.6703 22.784C14.6628 22.7771 14.6583 22.7677 14.6577 22.7575C14.6579 22.7525 14.6591 22.7475 14.6612 22.743C14.6634 22.7384 14.6664 22.7343 14.6701 22.7308C14.6738 22.7274 14.6782 22.7248 14.6829 22.723C14.6876 22.7213 14.6927 22.7205 14.6977 22.7207C14.7028 22.7205 14.7078 22.7213 14.7125 22.723C14.7173 22.7248 14.7216 22.7274 14.7253 22.7308C14.7291 22.7343 14.7321 22.7384 14.7342 22.743C14.7363 22.7475 14.7375 22.7525 14.7377 22.7575Z" fill="#636368"/>
<path d="M14.6265 23.1308C14.6264 23.135 14.6254 23.1391 14.6237 23.1429C14.622 23.1467 14.6195 23.1501 14.6165 23.1529C14.6134 23.1558 14.6098 23.158 14.6059 23.1594C14.602 23.1608 14.5978 23.1614 14.5937 23.1612C14.5895 23.1614 14.5853 23.1608 14.5813 23.1594C14.5773 23.158 14.5737 23.1558 14.5706 23.153C14.5674 23.1502 14.5649 23.1468 14.5631 23.143C14.5613 23.1391 14.5603 23.135 14.5601 23.1308C14.5605 23.1223 14.5642 23.1142 14.5705 23.1084C14.5768 23.1025 14.5851 23.0994 14.5937 23.0996C14.5979 23.0995 14.602 23.1002 14.606 23.1017C14.6099 23.1033 14.6135 23.1055 14.6165 23.1084C14.6196 23.1113 14.622 23.1148 14.6237 23.1186C14.6254 23.1225 14.6264 23.1266 14.6265 23.1308Z" fill="#636368"/>
<path d="M14.6976 23.4216C14.6984 23.432 14.696 23.4424 14.6908 23.4515C14.6856 23.4605 14.6778 23.4678 14.6684 23.4724C14.659 23.4769 14.6485 23.4785 14.6381 23.477C14.6278 23.4755 14.6182 23.4709 14.6105 23.4638C14.6028 23.4567 14.5974 23.4474 14.5951 23.4373C14.5927 23.4271 14.5935 23.4164 14.5973 23.4067C14.6011 23.397 14.6077 23.3886 14.6163 23.3827C14.6249 23.3768 14.6351 23.3736 14.6456 23.3736C14.6588 23.3731 14.6717 23.3779 14.6814 23.3869C14.6912 23.3959 14.697 23.4083 14.6976 23.4216Z" fill="#636368"/>
<path d="M15.3787 23.467C15.3784 23.4732 15.3768 23.4793 15.3742 23.4849C15.3715 23.4905 15.3678 23.4955 15.3632 23.4997C15.3586 23.5039 15.3532 23.5071 15.3473 23.5092C15.3415 23.5112 15.3353 23.5121 15.3291 23.5118C15.3229 23.5121 15.3168 23.5112 15.3109 23.5091C15.3051 23.5071 15.2998 23.5038 15.2953 23.4997C15.2907 23.4955 15.2871 23.4905 15.2845 23.4848C15.2819 23.4792 15.2805 23.4732 15.2803 23.467C15.2805 23.4608 15.2819 23.4547 15.2845 23.4491C15.287 23.4434 15.2907 23.4383 15.2952 23.4341C15.2998 23.4299 15.3051 23.4266 15.3109 23.4244C15.3167 23.4222 15.3229 23.4212 15.3291 23.4214C15.3417 23.421 15.3539 23.4255 15.3632 23.4341C15.3725 23.4426 15.3781 23.4544 15.3787 23.467Z" fill="#636368"/>
<path d="M16.1377 22.0932C16.1386 22.1045 16.1362 22.1157 16.1307 22.1256C16.1251 22.1354 16.1167 22.1433 16.1066 22.1483C16.0965 22.1533 16.0851 22.1551 16.074 22.1535C16.0628 22.1519 16.0524 22.147 16.0441 22.1394C16.0358 22.1318 16.0299 22.1218 16.0274 22.1109C16.0248 22.0999 16.0256 22.0884 16.0296 22.0779C16.0337 22.0674 16.0408 22.0583 16.0501 22.0519C16.0594 22.0455 16.0704 22.0421 16.0817 22.042C16.0887 22.0417 16.0957 22.0428 16.1024 22.0452C16.109 22.0476 16.1151 22.0513 16.1203 22.056C16.1255 22.0608 16.1297 22.0665 16.1327 22.0729C16.1357 22.0793 16.1374 22.0862 16.1377 22.0932Z" fill="#636368"/>
<path d="M17.0043 21.7366C17.0035 21.7513 16.9969 21.7651 16.9859 21.775C16.975 21.7849 16.9606 21.7901 16.9459 21.7894C16.9383 21.7903 16.9307 21.7897 16.9235 21.7874C16.9162 21.7852 16.9095 21.7814 16.9038 21.7764C16.8981 21.7713 16.8936 21.7652 16.8905 21.7582C16.8874 21.7513 16.8857 21.7438 16.8857 21.7362C16.8857 21.7286 16.8874 21.7211 16.8905 21.7142C16.8936 21.7073 16.8981 21.7011 16.9038 21.6961C16.9095 21.691 16.9162 21.6873 16.9235 21.685C16.9307 21.6828 16.9383 21.6821 16.9459 21.683C16.9532 21.6827 16.9606 21.6838 16.9675 21.6863C16.9744 21.6889 16.9808 21.6927 16.9862 21.6977C16.9916 21.7027 16.996 21.7087 16.9991 21.7154C17.0022 21.722 17.004 21.7293 17.0043 21.7366Z" fill="#636368"/>
<path d="M14.8851 24.0165C14.8845 24.0295 14.8788 24.0417 14.8692 24.0506C14.8596 24.0594 14.8469 24.0641 14.8339 24.0637C14.8274 24.064 14.821 24.063 14.8149 24.0608C14.8088 24.0586 14.8032 24.0552 14.7984 24.0508C14.7936 24.0464 14.7898 24.0411 14.7871 24.0352C14.7844 24.0293 14.7829 24.0229 14.7827 24.0165C14.7833 24.0034 14.7891 23.9912 14.7986 23.9824C14.8082 23.9735 14.8209 23.9688 14.8339 23.9693C14.8469 23.9688 14.8596 23.9735 14.8692 23.9824C14.8788 23.9912 14.8845 24.0034 14.8851 24.0165Z" fill="#636368"/>
<path d="M14.4628 22.4185L14.5164 26.6801L11.5132 26.0113C11.5132 26.0113 14.1476 25.7217 14.4628 22.4185Z" fill="#56565B"/>
<path d="M12.8833 26.1016L14.0201 26.4608V28.0288L12.8833 27.572V26.1016Z" fill="#818189"/>
<path d="M31.9337 16.3022L14.5177 23.3902L12.8833 26.1014L14.0201 26.4606L16.9705 24.4358L34.6705 16.7926L31.9337 16.3022Z" fill="#CACACA"/>
<path d="M14.02 28.0285L17.0232 28.6973L34.6704 20.2405V16.7925L16.9704 24.4357L14.02 26.4605V28.0285Z" fill="#717171"/>
<path opacity="0.67" d="M34.6699 20.24V16.792C34.5027 16.9592 24.3251 24.7392 19.1387 27.6832L34.6699 20.24Z" fill="#5F5F63"/>
<path d="M17.0232 28.6008L16.9704 24.436L14.02 26.4608V28.0288L17.0232 28.6008Z" fill="#636368"/>
<path d="M14.5176 23.3902L16.9704 24.4358L34.6704 16.7926L31.9336 16.3022L14.5176 23.3902Z" fill="#636368"/>
<path d="M17.4402 24.5872C17.4414 24.6023 17.4379 24.6173 17.4304 24.6304C17.4228 24.6435 17.4115 24.654 17.3979 24.6606C17.3843 24.6671 17.369 24.6694 17.3541 24.6672C17.3392 24.665 17.3252 24.6583 17.3142 24.648C17.3031 24.6377 17.2953 24.6244 17.292 24.6097C17.2886 24.595 17.2897 24.5796 17.2952 24.5655C17.3007 24.5514 17.3103 24.5393 17.3227 24.5308C17.3352 24.5223 17.3499 24.5177 17.365 24.5176C17.3842 24.517 17.4029 24.5239 17.4169 24.5369C17.431 24.55 17.4394 24.568 17.4402 24.5872Z" fill="#636368"/>
<path d="M18.0184 24.3832C18.0192 24.3948 18.0165 24.4063 18.0107 24.4163C18.0049 24.4262 17.9962 24.4342 17.9857 24.4392C17.9753 24.4442 17.9636 24.4459 17.9522 24.4442C17.9408 24.4424 17.9301 24.4373 17.9217 24.4294C17.9132 24.4215 17.9073 24.4113 17.9048 24.4C17.9022 24.3888 17.9031 24.377 17.9073 24.3662C17.9115 24.3555 17.9189 24.3462 17.9284 24.3397C17.9379 24.3332 17.9492 24.3297 17.9608 24.3296C17.9681 24.3293 17.9754 24.3305 17.9823 24.333C17.9891 24.3355 17.9954 24.3394 18.0008 24.3444C18.0062 24.3494 18.0105 24.3554 18.0135 24.362C18.0165 24.3687 18.0182 24.3759 18.0184 24.3832Z" fill="#636368"/>
<path d="M17.5745 25.1198C17.5742 25.1282 17.5722 25.1365 17.5687 25.1441C17.5652 25.1518 17.5602 25.1586 17.554 25.1644C17.5479 25.1701 17.5406 25.1745 17.5327 25.1775C17.5249 25.1804 17.5165 25.1817 17.5081 25.1814C17.4994 25.1824 17.4907 25.1815 17.4824 25.1789C17.4742 25.1763 17.4665 25.1719 17.46 25.1662C17.4536 25.1604 17.4484 25.1533 17.4448 25.1454C17.4413 25.1375 17.4395 25.1289 17.4395 25.1202C17.4395 25.1115 17.4413 25.1029 17.4448 25.095C17.4484 25.0871 17.4536 25.08 17.46 25.0742C17.4665 25.0684 17.4742 25.0641 17.4824 25.0615C17.4907 25.0589 17.4994 25.058 17.5081 25.059C17.5249 25.0583 17.5413 25.0644 17.5538 25.0757C17.5662 25.0871 17.5736 25.103 17.5745 25.1198Z" fill="#636368"/>
<path d="M17.9608 24.8623C17.9592 24.8759 17.9526 24.8884 17.9424 24.8975C17.9321 24.9066 17.9189 24.9116 17.9052 24.9116C17.8915 24.9116 17.8783 24.9066 17.868 24.8975C17.8578 24.8884 17.8512 24.8759 17.8496 24.8623C17.8512 24.8487 17.8578 24.8362 17.868 24.8271C17.8783 24.818 17.8915 24.813 17.9052 24.813C17.9189 24.813 17.9321 24.818 17.9424 24.8271C17.9526 24.8362 17.9592 24.8487 17.9608 24.8623Z" fill="#636368"/>
<path d="M17.788 24.6976C17.7874 24.7089 17.7824 24.7195 17.774 24.7272C17.7656 24.7348 17.7545 24.7388 17.7432 24.7384C17.7376 24.7386 17.7321 24.7377 17.7269 24.7358C17.7216 24.7339 17.7168 24.7309 17.7128 24.7271C17.7087 24.7233 17.7054 24.7188 17.7031 24.7137C17.7007 24.7087 17.6994 24.7032 17.6992 24.6976C17.6993 24.692 17.7005 24.6865 17.7028 24.6814C17.7051 24.6762 17.7084 24.6716 17.7125 24.6678C17.7166 24.664 17.7215 24.6611 17.7267 24.6592C17.732 24.6573 17.7376 24.6565 17.7432 24.6568C17.7489 24.6565 17.7545 24.6573 17.7598 24.6592C17.7651 24.6611 17.77 24.664 17.7742 24.6678C17.7784 24.6716 17.7817 24.6762 17.7841 24.6813C17.7865 24.6864 17.7878 24.692 17.788 24.6976Z" fill="#636368"/>
<path d="M17.2458 24.775C17.2456 24.78 17.2444 24.7849 17.2422 24.7895C17.2401 24.794 17.2371 24.7981 17.2334 24.8014C17.2296 24.8048 17.2253 24.8073 17.2205 24.809C17.2158 24.8106 17.2108 24.8113 17.2058 24.811C17.2006 24.8118 17.1952 24.8114 17.1901 24.8099C17.1851 24.8085 17.1803 24.8059 17.1763 24.8025C17.1723 24.799 17.1691 24.7947 17.1669 24.7899C17.1647 24.7851 17.1636 24.7799 17.1636 24.7746C17.1636 24.7693 17.1647 24.7641 17.1669 24.7593C17.1691 24.7545 17.1723 24.7502 17.1763 24.7467C17.1803 24.7433 17.1851 24.7407 17.1901 24.7392C17.1952 24.7378 17.2006 24.7374 17.2058 24.7382C17.2108 24.738 17.2159 24.7388 17.2206 24.7405C17.2253 24.7422 17.2297 24.7449 17.2334 24.7483C17.2371 24.7517 17.2401 24.7558 17.2423 24.7604C17.2444 24.765 17.2456 24.7699 17.2458 24.775Z" fill="#636368"/>
<path d="M17.1344 25.1488C17.1343 25.153 17.1334 25.1571 17.1317 25.1609C17.1299 25.1647 17.1275 25.1681 17.1244 25.1709C17.1214 25.1737 17.1178 25.1759 17.1139 25.1774C17.1099 25.1788 17.1058 25.1794 17.1016 25.1792C17.0971 25.1799 17.0926 25.1797 17.0882 25.1784C17.0839 25.1772 17.0798 25.1751 17.0764 25.1721C17.073 25.1692 17.0702 25.1656 17.0683 25.1615C17.0664 25.1574 17.0654 25.1529 17.0654 25.1484C17.0654 25.1439 17.0664 25.1394 17.0683 25.1353C17.0702 25.1312 17.073 25.1276 17.0764 25.1246C17.0798 25.1217 17.0839 25.1196 17.0882 25.1183C17.0926 25.1171 17.0971 25.1169 17.1016 25.1176C17.1058 25.1175 17.11 25.1182 17.1139 25.1197C17.1178 25.1212 17.1214 25.1235 17.1245 25.1264C17.1275 25.1293 17.13 25.1328 17.1317 25.1366C17.1334 25.1404 17.1343 25.1446 17.1344 25.1488Z" fill="#636368"/>
<path d="M17.2059 25.4396C17.2067 25.45 17.2043 25.4605 17.1991 25.4695C17.1939 25.4786 17.1861 25.4859 17.1767 25.4904C17.1673 25.495 17.1568 25.4966 17.1464 25.4951C17.1361 25.4935 17.1265 25.4889 17.1188 25.4818C17.1111 25.4748 17.1057 25.4655 17.1034 25.4553C17.101 25.4452 17.1018 25.4345 17.1056 25.4248C17.1094 25.415 17.116 25.4067 17.1246 25.4007C17.1333 25.3948 17.1434 25.3917 17.1539 25.3916C17.1671 25.3912 17.18 25.396 17.1897 25.405C17.1995 25.414 17.2053 25.4264 17.2059 25.4396Z" fill="#636368"/>
<path d="M17.8864 25.4845C17.8861 25.4907 17.8845 25.4968 17.8819 25.5024C17.8792 25.508 17.8755 25.513 17.8709 25.5172C17.8663 25.5213 17.8609 25.5245 17.855 25.5266C17.8492 25.5287 17.843 25.5296 17.8368 25.5293C17.8303 25.5301 17.8238 25.5296 17.8176 25.5277C17.8114 25.5259 17.8056 25.5227 17.8007 25.5184C17.7958 25.5141 17.7919 25.5088 17.7892 25.5029C17.7865 25.497 17.7852 25.4906 17.7852 25.4841C17.7852 25.4776 17.7865 25.4712 17.7892 25.4652C17.7919 25.4593 17.7958 25.454 17.8007 25.4498C17.8056 25.4455 17.8114 25.4423 17.8176 25.4404C17.8238 25.4385 17.8303 25.438 17.8368 25.4389C17.843 25.4386 17.8493 25.4395 17.8552 25.4416C17.8611 25.4437 17.8665 25.447 17.8712 25.4513C17.8758 25.4555 17.8795 25.4606 17.8821 25.4663C17.8847 25.472 17.8862 25.4782 17.8864 25.4845Z" fill="#636368"/>
<path d="M18.6449 24.1113C18.6457 24.1223 18.6432 24.1334 18.6376 24.143C18.6321 24.1526 18.6238 24.1602 18.6138 24.165C18.6038 24.1698 18.5926 24.1715 18.5816 24.1699C18.5707 24.1682 18.5605 24.1633 18.5523 24.1558C18.5442 24.1482 18.5385 24.1384 18.5361 24.1276C18.5336 24.1168 18.5344 24.1055 18.5385 24.0952C18.5425 24.0849 18.5495 24.076 18.5587 24.0697C18.5678 24.0635 18.5786 24.0601 18.5897 24.0601C18.6038 24.0596 18.6175 24.0648 18.6278 24.0744C18.6382 24.0839 18.6443 24.0972 18.6449 24.1113Z" fill="#636368"/>
<path d="M19.5115 23.7543C19.5123 23.7659 19.5097 23.7774 19.5038 23.7874C19.498 23.7973 19.4893 23.8053 19.4789 23.8103C19.4685 23.8153 19.4568 23.817 19.4454 23.8153C19.4339 23.8135 19.4233 23.8084 19.4148 23.8005C19.4064 23.7926 19.4005 23.7824 19.3979 23.7711C19.3954 23.7599 19.3962 23.7481 19.4005 23.7373C19.4047 23.7266 19.412 23.7173 19.4216 23.7108C19.4311 23.7043 19.4424 23.7008 19.4539 23.7007C19.4613 23.7004 19.4686 23.7016 19.4754 23.7041C19.4823 23.7066 19.4886 23.7105 19.494 23.7155C19.4993 23.7205 19.5036 23.7265 19.5067 23.7331C19.5097 23.7398 19.5113 23.747 19.5115 23.7543Z" fill="#636368"/>
<path d="M17.3923 26.034C17.3931 26.0443 17.3908 26.0546 17.3856 26.0636C17.3805 26.0725 17.3727 26.0797 17.3634 26.0842C17.3541 26.0887 17.3437 26.0902 17.3335 26.0886C17.3233 26.0871 17.3138 26.0825 17.3062 26.0754C17.2987 26.0684 17.2935 26.0592 17.2912 26.0491C17.289 26.039 17.2899 26.0285 17.2937 26.0189C17.2976 26.0093 17.3043 26.0012 17.3128 25.9954C17.3214 25.9897 17.3316 25.9867 17.3419 25.9868C17.3483 25.9866 17.3547 25.9877 17.3607 25.9899C17.3667 25.9922 17.3722 25.9956 17.3769 26C17.3815 26.0044 17.3853 26.0096 17.388 26.0155C17.3906 26.0213 17.3921 26.0276 17.3923 26.034Z" fill="#636368"/>
<path d="M16.9704 24.436L17.0232 28.6976L14.02 28.0288C14.02 28.0288 16.6552 27.7392 16.9704 24.436Z" fill="#56565B"/>
<path d="M11.4417 21.7285L12.5665 22.1029L12.5137 23.5877L11.3921 23.1205L11.4417 21.7285Z" fill="#818189"/>
<path d="M30.8099 13.0151L13.1667 19.2095L11.4419 21.7287L12.5667 22.1031L15.5827 20.2727L33.5291 13.5607L30.8099 13.0151Z" fill="#CACACA"/>
<path d="M12.5137 23.5877L15.4929 24.3109L33.4129 16.8269L33.5289 13.5605L15.5825 20.2725L12.5665 22.1029L12.5137 23.5877Z" fill="#717171"/>
<path d="M15.4961 24.2189L15.5825 20.2725L12.5665 22.1029L12.5137 23.5877L15.4961 24.2189Z" fill="#636368"/>
<path d="M13.1665 19.2095L15.5825 20.2727L33.5289 13.5607L30.8097 13.0151L13.1665 19.2095Z" fill="#A7A7AF"/>
<path d="M16.0484 20.4303C16.0507 20.4467 16.0478 20.4634 16.0402 20.4781C16.0326 20.4928 16.0207 20.5047 16.006 20.5123C15.9913 20.52 15.9746 20.5228 15.9583 20.5206C15.9419 20.5183 15.9266 20.5111 15.9145 20.4998C15.9025 20.4885 15.8942 20.4737 15.8908 20.4575C15.8875 20.4413 15.8892 20.4245 15.8958 20.4094C15.9024 20.3942 15.9136 20.3815 15.9277 20.3729C15.9419 20.3643 15.9583 20.3604 15.9748 20.3615C15.9936 20.3611 16.0119 20.368 16.0256 20.3809C16.0394 20.3938 16.0476 20.4115 16.0484 20.4303Z" fill="#636368"/>
<path d="M16.6323 20.2536C16.6307 20.2678 16.6236 20.2809 16.6126 20.29C16.6015 20.2991 16.5874 20.3036 16.5731 20.3024C16.566 20.3027 16.5589 20.3017 16.5522 20.2992C16.5455 20.2968 16.5394 20.293 16.5342 20.2882C16.529 20.2833 16.5248 20.2775 16.5218 20.271C16.5189 20.2645 16.5173 20.2575 16.5171 20.2504C16.5194 20.2368 16.5264 20.2244 16.537 20.2155C16.5475 20.2066 16.5609 20.2017 16.5747 20.2017C16.5885 20.2017 16.6019 20.2066 16.6124 20.2155C16.623 20.2244 16.63 20.2368 16.6323 20.2504V20.2536Z" fill="#636368"/>
<path d="M16.1601 20.9368C16.1583 20.9533 16.1501 20.9685 16.1372 20.9789C16.1243 20.9894 16.1079 20.9944 16.0913 20.9928C16.0832 20.9932 16.075 20.9919 16.0674 20.989C16.0598 20.9862 16.0527 20.9818 16.0468 20.9762C16.0408 20.9706 16.0361 20.9639 16.0327 20.9565C16.0294 20.949 16.0275 20.941 16.0273 20.9328C16.0298 20.917 16.0379 20.9026 16.05 20.8921C16.0622 20.8817 16.0777 20.876 16.0937 20.876C16.1098 20.876 16.1253 20.8817 16.1375 20.8921C16.1496 20.9026 16.1577 20.917 16.1601 20.9328V20.9368Z" fill="#636368"/>
<path d="M16.5604 20.7064C16.5617 20.7177 16.5595 20.7292 16.5541 20.7392C16.5487 20.7493 16.5404 20.7574 16.5302 20.7626C16.5201 20.7678 16.5086 20.7698 16.4973 20.7683C16.486 20.7668 16.4754 20.7618 16.467 20.7542C16.4586 20.7465 16.4527 20.7364 16.4501 20.7253C16.4476 20.7142 16.4485 20.7026 16.4527 20.692C16.457 20.6814 16.4643 20.6724 16.4739 20.6661C16.4834 20.6598 16.4946 20.6565 16.506 20.6568C16.5128 20.6565 16.5196 20.6575 16.5261 20.6598C16.5325 20.6621 16.5384 20.6657 16.5435 20.6703C16.5485 20.6749 16.5526 20.6805 16.5555 20.6867C16.5584 20.6929 16.5601 20.6996 16.5604 20.7064Z" fill="#636368"/>
<path d="M16.3906 20.5446C16.3891 20.5553 16.3838 20.5652 16.3756 20.5723C16.3675 20.5795 16.357 20.5834 16.3462 20.5834C16.3353 20.5834 16.3248 20.5795 16.3167 20.5723C16.3085 20.5652 16.3032 20.5553 16.3018 20.5446C16.303 20.5336 16.3084 20.5235 16.3169 20.5165C16.3254 20.5095 16.3364 20.5061 16.3474 20.507C16.358 20.5065 16.3684 20.5102 16.3765 20.5172C16.3845 20.5242 16.3895 20.534 16.3906 20.5446Z" fill="#636368"/>
<path d="M15.8466 20.6023C15.8454 20.6122 15.8404 20.6212 15.8326 20.6275C15.8248 20.6338 15.8149 20.6368 15.805 20.6359C15.7952 20.6361 15.7856 20.6324 15.7785 20.6257C15.7713 20.619 15.767 20.6097 15.7666 20.5999C15.7678 20.59 15.7727 20.581 15.7802 20.5747C15.7878 20.5683 15.7975 20.565 15.8074 20.5655C15.8175 20.5653 15.8272 20.569 15.8345 20.5759C15.8418 20.5827 15.8462 20.5922 15.8466 20.6023Z" fill="#636368"/>
<path d="M15.7227 20.9524C15.7214 20.9603 15.7174 20.9676 15.7113 20.9728C15.7052 20.978 15.6975 20.9809 15.6895 20.9809C15.6814 20.9809 15.6737 20.978 15.6676 20.9728C15.6615 20.9676 15.6575 20.9603 15.6562 20.9524C15.6573 20.9442 15.6614 20.9367 15.6678 20.9315C15.6742 20.9263 15.6824 20.9237 15.6907 20.9244C15.6985 20.9242 15.7062 20.9269 15.7122 20.9321C15.7181 20.9373 15.7218 20.9446 15.7227 20.9524Z" fill="#636368"/>
<path d="M15.7842 21.23C15.7828 21.2429 15.7764 21.2547 15.7663 21.2629C15.7563 21.2711 15.7435 21.2751 15.7306 21.274C15.7242 21.2742 15.7178 21.2732 15.7118 21.2709C15.7058 21.2686 15.7003 21.2652 15.6956 21.2608C15.6909 21.2565 15.6871 21.2512 15.6845 21.2454C15.6819 21.2395 15.6804 21.2332 15.6802 21.2268C15.6816 21.2139 15.688 21.2021 15.698 21.1939C15.708 21.1857 15.7209 21.1817 15.7338 21.1828C15.7402 21.1826 15.7466 21.1836 15.7526 21.1859C15.7586 21.1882 15.7641 21.1916 15.7688 21.196C15.7734 21.2003 15.7772 21.2056 15.7799 21.2114C15.7825 21.2173 15.784 21.2236 15.7842 21.23Z" fill="#636368"/>
<path d="M16.4627 21.2937C16.4611 21.3057 16.4553 21.3167 16.4462 21.3246C16.4372 21.3326 16.4255 21.337 16.4135 21.337C16.4014 21.337 16.3897 21.3326 16.3807 21.3246C16.3716 21.3167 16.3658 21.3057 16.3643 21.2937C16.3657 21.2816 16.3717 21.2705 16.3811 21.2628C16.3905 21.255 16.4025 21.2512 16.4147 21.2521C16.4264 21.2516 16.438 21.2557 16.4469 21.2634C16.4558 21.2711 16.4614 21.2819 16.4627 21.2937Z" fill="#636368"/>
<path d="M17.2674 20.015C17.2687 20.0263 17.2665 20.0378 17.2611 20.0479C17.2556 20.058 17.2473 20.0661 17.2371 20.0713C17.2269 20.0765 17.2153 20.0784 17.204 20.0768C17.1927 20.0752 17.1821 20.0702 17.1737 20.0624C17.1653 20.0547 17.1595 20.0445 17.1571 20.0334C17.1546 20.0222 17.1556 20.0105 17.16 20C17.1644 19.9894 17.1719 19.9804 17.1815 19.9742C17.1911 19.968 17.2024 19.965 17.2138 19.9654C17.2275 19.9649 17.2407 19.9699 17.2508 19.9792C17.2608 19.9885 17.2668 20.0013 17.2674 20.015Z" fill="#636368"/>
<path d="M18.145 19.7021C18.1427 19.7157 18.1357 19.7281 18.1251 19.737C18.1146 19.746 18.1012 19.7509 18.0874 19.7509C18.0736 19.7509 18.0602 19.746 18.0496 19.737C18.0391 19.7281 18.0321 19.7157 18.0298 19.7021C18.0321 19.6885 18.0391 19.6761 18.0496 19.6671C18.0602 19.6582 18.0736 19.6533 18.0874 19.6533C18.1012 19.6533 18.1146 19.6582 18.1251 19.6671C18.1357 19.6761 18.1427 19.6885 18.145 19.7021Z" fill="#636368"/>
<path d="M15.9507 21.7992C15.9501 21.8055 15.9483 21.8116 15.9453 21.8172C15.9423 21.8228 15.9382 21.8278 15.9333 21.8318C15.9284 21.8358 15.9228 21.8388 15.9167 21.8406C15.9106 21.8424 15.9042 21.843 15.8979 21.8424C15.8917 21.8426 15.8855 21.8416 15.8797 21.8394C15.8739 21.8372 15.8686 21.8339 15.8641 21.8297C15.8595 21.8254 15.8559 21.8204 15.8533 21.8147C15.8508 21.8091 15.8493 21.803 15.8491 21.7968C15.8507 21.7844 15.8567 21.773 15.8661 21.7648C15.8754 21.7565 15.8874 21.752 15.8999 21.752C15.9124 21.752 15.9244 21.7565 15.9338 21.7648C15.9431 21.773 15.9492 21.7844 15.9507 21.7968V21.7992Z" fill="#636368"/>
<path d="M15.5825 20.2725L15.4929 24.3109L12.5137 23.5909C12.5137 23.5909 15.1561 23.3917 15.5825 20.2725Z" fill="#56565B"/>
<path d="M15.4932 24.3109L33.4132 16.8269L33.5292 13.5605L33.3268 16.7149L15.4932 24.3109Z" fill="#3B3E3F"/>
<path d="M34.6704 16.7925V20.2405L17.0232 28.6973L14.02 28.0285L17.0232 28.6005L34.5696 20.1813L34.6704 16.7925Z" fill="#3B3E3F"/>
<g style="mix-blend-mode:multiply" opacity="0.09">
<path d="M16.0889 24.0597L16.9705 24.4357L17.0233 28.6005L34.6705 20.2405V16.7925L33.4129 16.8269L16.0889 24.0597Z" fill="#AAA59B"/>
</g>
</svg>
