<svg width="40" height="40" viewBox="0 0 40 40" fill="none" xmlns="http://www.w3.org/2000/svg">
<path d="M10.335 6.70557C9.55336 6.40637 8.86856 6.63757 8.80536 7.22237L8.61016 23.7744C8.54696 24.3584 9.12936 25.0752 9.91176 25.3744C10.6942 25.6736 11.3782 25.4416 11.4414 24.8576L11.6366 8.30557C11.6998 7.72077 11.1198 7.00477 10.335 6.70557Z" fill="#093D77"/>
<path d="M12.2813 6.48032C11.4997 6.18112 10.8141 6.41312 10.7509 6.99712L10.7381 24.5899C10.6749 25.1747 11.2565 25.8907 12.0389 26.1899C12.8213 26.4891 13.5053 26.2571 13.5693 25.6731L13.5821 8.08032C13.6453 7.49472 13.0637 6.77792 12.2813 6.48032Z" fill="#093D77"/>
<path d="M14.5181 6.28809C13.7365 5.98889 13.0509 6.22009 12.9877 6.80489L12.8661 25.4025C12.8021 25.9865 13.3845 26.7033 14.1669 27.0025C14.9493 27.3017 15.6333 27.0697 15.6965 26.4849L15.8189 7.88809C15.8821 7.30329 15.2997 6.58729 14.5181 6.28809Z" fill="#093D77"/>
<path d="M16.7199 6.43213C15.9383 6.13293 15.2535 6.36413 15.1895 6.94893L14.9935 26.2161C14.9303 26.8009 15.5127 27.5169 16.2943 27.8161C17.0759 28.1153 17.7615 27.8833 17.8247 27.2993L18.0191 8.03213C18.0799 7.44733 17.4999 6.73133 16.7199 6.43213Z" fill="#093D77"/>
<path d="M18.7007 8.58579C17.9191 8.28659 17.2343 8.51859 17.1703 9.10259L17.1199 27.0298C17.0567 27.6146 17.6391 28.3306 18.4215 28.6298C19.2039 28.929 19.8879 28.697 19.9511 28.1122L19.9999 10.1858C20.0647 9.60019 19.4831 8.88499 18.7007 8.58579Z" fill="#093D77"/>
<path d="M20.9187 8.56006C20.1371 8.26086 19.4523 8.49206 19.3883 9.07686L19.2483 27.8417C19.1851 28.4257 19.7675 29.1425 20.5499 29.4417C21.3323 29.7409 22.0163 29.5089 22.0787 28.9249L22.2195 10.1601C22.2827 9.57766 21.7003 8.86166 20.9187 8.56006Z" fill="#093D77"/>
<path opacity="0.9" d="M18.712 13.6312C17.928 13.34 17.0416 13.4384 16.7336 13.8528L9.09355 24.0928C8.78555 24.5064 9.17356 25.0784 9.95516 25.3728C10.7368 25.6672 11.6256 25.5656 11.9336 25.152L19.5728 14.912C19.8816 14.4952 19.496 13.92 18.712 13.6312Z" fill="#14B6B8"/>
<path opacity="0.53" d="M20.8461 14.4255C20.0613 14.1335 19.1757 14.2327 18.8669 14.6463L11.2277 24.8863C10.9189 25.2999 11.3077 25.8719 12.0893 26.1663C12.8709 26.4607 13.7589 26.3591 14.0677 25.9455L21.7069 15.7055C22.0157 15.2895 21.6301 14.7199 20.8461 14.4255Z" fill="#14B6B8"/>
<path opacity="0.9" d="M22.9803 15.2199C22.1955 14.9279 21.3099 15.0271 21.0011 15.4407L13.3595 25.6799C13.0507 26.0943 13.4395 26.6663 14.2203 26.9599C15.0011 27.2535 15.8907 27.1527 16.1995 26.7391L23.8387 16.4991C24.1491 16.0839 23.7643 15.5119 22.9803 15.2199Z" fill="#14B6B8"/>
<path opacity="0.53" d="M25.1143 16.0146C24.3303 15.7226 23.4447 15.821 23.1359 16.2354L15.4967 26.4802C15.1879 26.8946 15.5767 27.4666 16.3575 27.7602C17.1383 28.0538 18.0279 27.953 18.3367 27.5394L25.9759 17.2994C26.2839 16.8802 25.8991 16.3058 25.1143 16.0146Z" fill="#14B6B8"/>
<path opacity="0.6" d="M27.2486 16.8083C26.4646 16.5163 25.5782 16.6155 25.2702 17.0299L17.631 27.2699C17.3222 27.6835 17.711 28.2555 18.4918 28.5499C19.2726 28.8443 20.1614 28.7427 20.471 28.3291L28.1094 18.0891C28.4182 17.6723 28.0334 17.1003 27.2486 16.8083Z" fill="#14B6B8"/>
<path opacity="0.9" d="M29.3819 17.6003C28.5979 17.3083 27.7123 17.4075 27.4035 17.8211L19.7651 28.0611C19.4555 28.4747 19.8451 29.0467 20.6259 29.3411C21.4067 29.6355 22.2955 29.5339 22.6043 29.1203L30.2435 18.8803C30.5523 18.4667 30.1675 17.8947 29.3819 17.6003Z" fill="#14B6B8"/>
<path d="M18.7117 13.6312C17.9277 13.34 17.0413 13.4384 16.7333 13.8528L14.1349 17.336C13.8261 17.7504 14.2149 18.3224 14.9957 18.616C15.7765 18.9096 16.6661 18.8088 16.9749 18.3944L19.5725 14.9112C19.8813 14.4952 19.4957 13.92 18.7117 13.6312Z" fill="#14B6B8"/>
<path d="M20.846 14.4255C20.0612 14.1335 19.1756 14.2327 18.8668 14.6463L16.0036 18.4863C15.6948 18.8999 16.0836 19.4719 16.8644 19.7663C17.6452 20.0607 18.5348 19.9591 18.8436 19.5455L21.7068 15.7055C22.0156 15.2895 21.63 14.7199 20.846 14.4255Z" fill="#14B6B8"/>
<path d="M22.9806 15.2199C22.1958 14.9279 21.3102 15.0271 21.0014 15.4407L18.6686 18.5687C18.3598 18.9831 18.7486 19.5551 19.5294 19.8487C20.3102 20.1423 21.1998 20.0415 21.5086 19.6271L23.8398 16.4975C24.1494 16.0839 23.7646 15.5119 22.9806 15.2199Z" fill="#14B6B8"/>
<path d="M25.114 16.0146C24.33 15.7226 23.4444 15.821 23.1356 16.2354L19.9196 20.549C19.6108 20.9634 19.9996 21.5354 20.7804 21.829C21.5612 22.1226 22.4516 22.0226 22.7596 21.6082L25.9772 17.2946C26.2836 16.8802 25.8988 16.3058 25.114 16.0146Z" fill="#14B6B8"/>
<path d="M27.2488 16.8083C26.4648 16.5163 25.5784 16.6155 25.2704 17.0299L22.584 20.6299C22.2744 21.0435 22.66 21.6155 23.444 21.9099C24.228 22.2043 25.1144 22.1027 25.4232 21.6883L28.1096 18.0883C28.4184 17.6723 28.0336 17.1003 27.2488 16.8083Z" fill="#14B6B8"/>
<path d="M29.3822 17.6003C28.5982 17.3083 27.7126 17.4075 27.4038 17.8211L24.8942 21.1867C24.5854 21.6003 24.9742 22.1723 25.755 22.4667C26.5358 22.7611 27.4254 22.6595 27.7342 22.2459L30.2438 18.8803C30.5526 18.4667 30.1678 17.8947 29.3822 17.6003Z" fill="#14B6B8"/>
<g style="mix-blend-mode:multiply">
<path d="M16.3319 33.0895C16.1911 33.0327 16.1863 32.7199 16.3199 32.3911C16.4535 32.0623 16.6767 31.8439 16.8175 31.9015C16.9583 31.9591 16.9631 32.2711 16.8295 32.5991C16.6959 32.9271 16.4727 33.1471 16.3319 33.0895ZM31.1687 18.2839L30.6479 18.0711C30.9567 17.1911 31.0191 16.4527 30.7719 16.3519L17.5359 10.9471C17.2575 10.8335 16.6935 11.5703 16.2759 12.5919C15.8583 13.6135 15.7463 14.5351 16.0247 14.6487L29.2599 20.0535C29.5071 20.1551 29.9799 19.5839 30.3751 18.7399L30.5615 18.8159L29.7599 20.7887L22.1015 20.3887C21.7863 20.3719 21.4615 20.3751 21.2487 20.5127C21.0359 20.6503 20.9095 20.9439 20.8271 21.1527C20.8183 21.1767 20.8087 21.1991 20.8007 21.2191L19.4407 24.5415L19.0639 24.3871C18.9255 24.3311 18.7439 24.3871 18.7111 24.5359C18.6759 24.6959 18.7111 25.0351 18.6839 25.1983L15.3735 32.8783H15.3823C15.2759 33.1399 15.5855 33.5135 16.0743 33.7135C16.5631 33.9135 17.0463 33.8631 17.1535 33.6015L17.1623 33.6055L20.1759 25.8079C20.2679 25.6703 20.5319 25.4575 20.6199 25.3167C20.6999 25.1903 20.6111 25.0199 20.4719 24.9631L20.1095 24.8151L21.4695 21.4935C21.4791 21.4695 21.4887 21.4439 21.4991 21.4135C21.5352 21.3114 21.5819 21.2132 21.6383 21.1207C21.6783 21.1087 21.7847 21.0911 22.0639 21.1063L29.9743 21.5199C30.0492 21.524 30.1235 21.5046 30.1869 21.4644C30.2502 21.4243 30.2995 21.3654 30.3279 21.2959L31.3679 18.7511C31.4029 18.6627 31.4017 18.564 31.3644 18.4765C31.3271 18.389 31.2567 18.3198 31.1687 18.2839Z" fill="#E6DFCF"/>
</g>
<path d="M19.9149 25.2914L19.2461 25.0186L20.7997 21.2202C20.8077 21.2002 20.8173 21.1778 20.8261 21.1538C20.9061 20.9442 21.0205 20.657 21.2477 20.5138C21.4749 20.3706 21.7853 20.373 22.1005 20.3898L29.7589 20.7898L30.5597 18.8162L16.8325 13.2098L17.1053 12.541L31.1685 18.2842C31.2124 18.3021 31.2524 18.3284 31.2862 18.3617C31.3199 18.395 31.3468 18.4346 31.3652 18.4783C31.3836 18.522 31.3933 18.5689 31.3936 18.6163C31.3939 18.6637 31.3848 18.7107 31.3669 18.7546L30.3269 21.2994C30.2986 21.3689 30.2493 21.4278 30.1859 21.4679C30.1225 21.5081 30.0482 21.5275 29.9733 21.5234L22.0597 21.1098C21.7805 21.0946 21.6741 21.1098 21.6341 21.1242C21.5777 21.2167 21.5311 21.3149 21.4949 21.417C21.4845 21.4442 21.4749 21.4698 21.4653 21.497L19.9149 25.2914Z" fill="#FFD18E"/>
<path d="M19.7525 25.0513L21.1821 21.5505C21.1917 21.5289 21.2005 21.5049 21.2109 21.4801C21.2765 21.3113 21.3669 21.0801 21.5053 20.9929C21.6653 20.8921 22.0189 20.9129 22.1693 20.9185L30.0549 21.3297L31.0677 18.8497L17.3389 13.2425L17.3693 13.1689L31.1357 18.7905C31.1454 18.7946 31.1531 18.8024 31.1572 18.8121C31.1612 18.8218 31.1612 18.8328 31.1573 18.8425L30.1173 21.3865C30.1143 21.3944 30.1089 21.4011 30.1018 21.4055C30.0948 21.41 30.0864 21.4121 30.0781 21.4113L22.1645 20.9985C21.8253 20.9809 21.6973 21.0049 21.6301 21.0257L21.5349 21.0537L21.4733 21.1337C21.3931 21.2501 21.3298 21.3772 21.2853 21.5113C21.2741 21.5385 21.2653 21.5625 21.2565 21.5841L19.8261 25.0857L19.7525 25.0513Z" fill="#FFD18E"/>
<path d="M19.412 24.8255L20.9024 21.1759C20.9112 21.1551 20.92 21.1319 20.9296 21.1071C21.004 20.9183 21.1056 20.6591 21.2872 20.5471C21.4688 20.4351 21.7712 20.4327 22.0456 20.4471L29.8176 20.8527L30.7272 18.6271L16.9976 13.0167L17.1496 12.6455L31.0648 18.3255C31.1139 18.3457 31.1531 18.3846 31.1736 18.4336C31.1942 18.4827 31.1944 18.5379 31.1744 18.5871L30.1344 21.1311C30.1187 21.1697 30.0914 21.2024 30.0562 21.2247C30.0211 21.2471 29.9799 21.258 29.9384 21.2559L22.0248 20.8423C21.8646 20.8252 21.7028 20.8322 21.5448 20.8631L21.4976 20.8767L21.4656 20.9151C21.3979 21.0194 21.3441 21.1321 21.3056 21.2503C21.2944 21.2783 21.2848 21.3031 21.2752 21.3255L19.7848 24.9751L19.412 24.8255Z" fill="#FFD18E"/>
<path d="M26.4492 20.8799C25.0772 20.8159 23.9692 20.7199 23.9692 20.6703C23.9692 20.6207 25.0892 20.6287 26.458 20.6927C27.8268 20.7567 28.938 20.8527 28.938 20.9031C28.938 20.9535 27.8212 20.9415 26.4492 20.8799Z" fill="#FFD18E"/>
<path d="M20.3756 22.7711C20.0556 23.5375 19.7724 24.1495 19.7444 24.1375C19.7164 24.1255 19.9516 23.4935 20.2708 22.7279C20.59 21.9623 20.8741 21.3495 20.9029 21.3615C20.9317 21.3735 20.6956 22.0047 20.3756 22.7711Z" fill="#FFD18E"/>
<path d="M21.5284 20.7657C21.4028 20.7937 21.2884 20.7561 21.2716 20.6817C21.2548 20.6073 21.3428 20.5217 21.4676 20.4961C21.5924 20.4705 21.7076 20.5057 21.7244 20.5801C21.7412 20.6545 21.6532 20.7377 21.5284 20.7657Z" fill="#FFD18E"/>
<path d="M30.7718 16.3519L17.5358 10.9471C17.2574 10.8335 16.6934 11.5703 16.2758 12.5919C15.8582 13.6135 15.7462 14.5351 16.0246 14.6487L29.2598 20.0535C29.5382 20.1671 30.1022 19.4311 30.5198 18.4087C30.9374 17.3863 31.0502 16.4655 30.7718 16.3519Z" fill="#14B6B8"/>
<path d="M30.5367 18.1599C30.7242 17.7191 30.8546 17.2562 30.9247 16.7823C30.9247 16.5527 30.8751 16.3983 30.7719 16.3559L17.5359 10.9471C17.2575 10.8335 16.6935 11.5703 16.2759 12.5919C16.0883 13.0323 15.9581 13.4951 15.8887 13.9687C15.8887 14.1991 15.9375 14.3535 16.0407 14.3959L29.2799 19.8007C29.5551 19.9143 30.1191 19.1775 30.5367 18.1599Z" fill="#093D77"/>
<path d="M16.3771 12.9799C16.7947 11.9583 17.3587 11.2199 17.6371 11.3351L30.8723 16.7399C30.8912 16.7485 30.9084 16.7602 30.9235 16.7743C30.9235 16.5471 30.874 16.3943 30.7708 16.3519L17.5355 10.9471C17.2571 10.8335 16.6931 11.5703 16.2755 12.5919C15.8867 13.5447 15.7627 14.4095 15.9731 14.6143C15.9723 14.2271 16.1139 13.6239 16.3771 12.9799Z" fill="#14B6B8"/>
<path d="M23.8061 14.9795C26.5621 16.1051 29.0997 16.9163 30.8301 17.2707C30.8719 17.1089 30.9035 16.9446 30.9245 16.7787C30.9245 16.5491 30.8749 16.3947 30.7717 16.3523L17.5357 10.9475C17.3757 10.8827 17.1237 11.0963 16.8589 11.4819C18.3045 12.4715 20.8373 13.7667 23.8061 14.9795Z" fill="#14B6B8"/>
<path d="M30.41 16.6063C30.3852 16.6663 27.5436 15.5663 24.0636 14.1423C20.5836 12.7183 17.7828 11.5199 17.8068 11.4599C17.8308 11.3999 20.6724 12.4999 24.1524 13.9247C27.6324 15.3495 30.434 16.5463 30.41 16.6063Z" fill="white"/>
<path d="M17.5015 11.2425C17.5543 11.2801 17.4391 11.5313 17.2447 11.8025C17.0503 12.0737 16.8503 12.2649 16.7975 12.2273C16.7447 12.1897 16.8591 11.9385 17.0535 11.6673C17.2479 11.3961 17.4479 11.2049 17.5015 11.2425Z" fill="white"/>
<path d="M29.13 19.7411C29.1724 19.6355 26.2932 18.3603 22.698 16.8923C19.1028 15.4243 16.154 14.3203 16.1108 14.4243C16.0676 14.5283 18.9476 15.8051 22.5428 17.2731C26.138 18.7411 29.0868 19.8459 29.13 19.7411Z" fill="#14B6B8"/>
<path d="M20.4719 24.9603L19.0639 24.3851C18.9255 24.3291 18.7439 24.3851 18.7111 24.5339C18.6759 24.6939 18.7111 25.0331 18.6839 25.1963L15.3735 32.8763H15.3823C15.2759 33.1379 15.5855 33.5115 16.0743 33.7115C16.5631 33.9115 17.0463 33.8611 17.1535 33.5995L17.1623 33.6035L20.1759 25.8083C20.2679 25.6707 20.5319 25.4579 20.6199 25.3171C20.6999 25.1907 20.6111 25.0203 20.4719 24.9603ZM16.3319 33.0899C16.1911 33.0331 16.1863 32.7203 16.3199 32.3915C16.4535 32.0627 16.6767 31.8443 16.8175 31.9019C16.9583 31.9595 16.9631 32.2715 16.8295 32.5995C16.6959 32.9275 16.4727 33.1475 16.3319 33.0899Z" fill="#F1C40F"/>
<path d="M20.472 24.9602L20.436 24.9458C20.3286 25.0455 20.2281 25.1524 20.1352 25.2658L17.12 33.0762L17.1104 33.0722C17.004 33.3338 16.5208 33.3842 16.032 33.1842C15.796 33.095 15.5883 32.9442 15.4304 32.7474L15.372 32.8826H15.3808C15.2744 33.1442 15.584 33.5178 16.0728 33.7178C16.5616 33.9178 17.0448 33.8674 17.152 33.6058L17.1608 33.6098L20.176 25.8082C20.268 25.6706 20.532 25.4578 20.62 25.317C20.7 25.1906 20.6112 25.0202 20.472 24.9602Z" fill="#FFA31D"/>
<path d="M19.6798 26.2199C19.7478 26.0879 19.7286 25.9447 19.6614 25.9175L18.975 25.6375C18.9078 25.6095 18.7942 25.6983 18.7494 25.8399C18.6998 25.9999 18.6606 26.3063 18.6134 26.4639C18.5718 26.6063 18.5654 26.7391 18.6326 26.7671L19.1126 26.9639C19.1806 26.9919 19.2686 26.8919 19.3382 26.7607C19.4174 26.6151 19.6046 26.3671 19.6798 26.2199Z" fill="#FF9E29"/>
<path d="M18.9847 28.0265C19.0551 27.8889 19.0327 27.7401 18.9599 27.7105L18.2207 27.4089C18.1487 27.3793 18.0279 27.4697 17.9807 27.6177C17.9303 27.7777 17.8919 28.0977 17.8439 28.2657C17.8007 28.4129 17.7959 28.5513 17.8687 28.5817L18.3879 28.7937C18.4607 28.8233 18.5543 28.7209 18.6279 28.5849C18.7087 28.4345 18.9055 28.1793 18.9847 28.0265Z" fill="#FF9E29"/>
<path d="M18.1967 30.0451C18.2767 29.8915 18.2543 29.7251 18.1767 29.6955L17.3911 29.3755C17.3111 29.3435 17.1831 29.4459 17.1319 29.6115C17.0743 29.7939 17.0279 30.1499 16.9719 30.3315C16.9223 30.4963 16.9143 30.6515 16.9919 30.6819L17.5439 30.9075C17.6239 30.9387 17.7231 30.8275 17.8031 30.6715C17.8935 30.5035 18.1103 30.2155 18.1967 30.0451Z" fill="#FF9E29"/>
<path d="M16.3999 32.596C16.5007 32.348 16.6695 32.1824 16.7759 32.2256C16.8559 32.2592 16.8791 32.4104 16.8367 32.592C16.9671 32.2664 16.9607 31.9584 16.8215 31.9016C16.6823 31.8448 16.4583 32.0616 16.3239 32.3912C16.1895 32.7208 16.1951 33.0312 16.3359 33.0896C16.3479 33.0943 16.3606 33.097 16.3735 33.0976C16.2999 33.02 16.3071 32.812 16.3999 32.596Z" fill="#FF9E29"/>
<path d="M15.5447 33.1258L15.5351 33.1218L18.8463 25.4418C18.8767 25.2818 18.8375 24.9418 18.8727 24.7794C18.9047 24.6338 19.0879 24.5754 19.2263 24.6314L20.6343 25.2066L20.6503 25.2146C20.647 25.1607 20.6285 25.1087 20.597 25.0649C20.5654 25.021 20.522 24.9869 20.4719 24.9666L19.0639 24.3914C18.9255 24.3354 18.7439 24.3914 18.7111 24.5402C18.6759 24.7002 18.7111 25.0394 18.6839 25.2026L15.3735 32.8826H15.3823C15.3223 33.0298 15.3943 33.2114 15.5543 33.3786C15.5183 33.2988 15.5149 33.2081 15.5447 33.1258Z" fill="#FFA31D"/>
<path d="M19.9023 24.8985C19.8847 24.9409 19.6439 24.8825 19.3639 24.7681C19.0839 24.6537 18.8703 24.5281 18.8839 24.4841C18.8975 24.4401 19.1423 24.5009 19.4223 24.6153C19.7023 24.7297 19.9199 24.8569 19.9023 24.8985Z" fill="white"/>
<path d="M15.7302 32.7199C15.707 32.7103 15.9294 32.1327 16.2262 31.4303C16.523 30.7279 16.7862 30.1663 16.8062 30.1759C16.8262 30.1855 16.6078 30.7631 16.3102 31.4655C16.0126 32.1679 15.7534 32.7279 15.7302 32.7199Z" fill="white"/>
<path d="M15.6444 32.9231C15.6036 32.9063 15.6276 32.7567 15.698 32.5895C15.7684 32.4223 15.858 32.3015 15.8996 32.3191C15.9412 32.3367 15.9164 32.4855 15.846 32.6519C15.7756 32.8183 15.6852 32.9407 15.6444 32.9231Z" fill="white"/>
</svg>
