<svg width="40" height="40" viewBox="0 0 40 40" fill="none" xmlns="http://www.w3.org/2000/svg">
<path d="M14.3655 32.0629C14.6686 32.7243 15.4499 32.9313 16.1118 32.5252L16.5483 32.2555L8.25378 13.9668L7.7547 14.2743C7.09396 14.6804 6.8033 15.5462 7.10692 16.2082L8.69653 19.6798L6.18536 21.2246C5.49284 20.3264 4.52416 19.7786 3.48718 19.6987L0.783357 19.4937C0.652648 19.4839 0.522042 19.5146 0.405032 19.5829C0.288021 19.6511 0.18885 19.7543 0.117763 19.8819C0.046677 20.0094 0.0062535 20.1566 0.000669031 20.3083C-0.00491544 20.4599 0.0245418 20.6106 0.0859971 20.7447L5.73135 33.0776C5.79293 33.2117 5.88426 33.3243 5.99593 33.4039C6.10759 33.4834 6.23554 33.527 6.36658 33.5301C6.49763 33.5333 6.62702 33.4958 6.74141 33.4217C6.8558 33.3475 6.95106 33.2393 7.01735 33.1082L8.38559 30.396C8.91077 29.3562 9.0623 28.1188 8.8075 26.9506L11.3192 25.4052L14.3655 32.0629Z" fill="#093D77"/>
<path d="M39.9667 40H40V26.4279H39.9667C39.5225 26.4279 39.0965 26.6324 38.7823 26.9964C38.4682 27.3604 38.2916 27.8541 38.2915 28.369V31.1028H33.6978C33.2128 31.1037 32.7353 30.9644 32.3084 30.6975C31.8815 30.4306 31.5188 30.0446 31.2531 29.5743L28.5791 24.8537L38.9731 18.4552C39.6338 18.0491 39.9228 17.184 39.6197 16.5212L32.3577 0.669827C32.0552 0.00842648 31.2745 -0.198547 30.6115 0.208871L13.3516 10.8292L21.6483 29.1186L25.3498 26.8418L28.209 31.8908C28.8055 32.9473 29.62 33.8146 30.5786 34.4143C31.5371 35.0139 32.6096 35.327 33.6989 35.3251H38.2926V38.0595C38.2929 38.5741 38.4694 39.0674 38.7833 39.4313C39.0972 39.7951 39.5228 39.9997 39.9667 40ZM32.9819 10.9121C33.1347 11.2431 33.1995 11.6192 33.1681 11.9929C33.1367 12.3666 33.0105 12.7211 32.8053 13.0117C32.6002 13.3023 32.3254 13.5159 32.0157 13.6257C31.7059 13.7354 31.375 13.7363 31.0648 13.6282C30.7546 13.5201 30.4789 13.3079 30.2727 13.0184C30.0664 12.7289 29.9388 12.375 29.9059 12.0015C29.873 11.628 29.9364 11.2516 30.0879 10.9197C30.2394 10.5879 30.4724 10.3156 30.7574 10.1371C30.9472 10.0186 31.1552 9.9446 31.3697 9.91942C31.5841 9.89424 31.8008 9.91833 32.0072 9.99032C32.2136 10.0623 32.4057 10.1808 32.5726 10.3389C32.7395 10.4971 32.8778 10.6919 32.9796 10.9121H32.9819ZM27.4227 8.07125C27.2184 7.62977 27.1316 7.12799 27.1733 6.62934C27.2149 6.13069 27.3833 5.65757 27.6569 5.26979C27.9306 4.882 28.2973 4.59697 28.7107 4.45073C29.1241 4.30449 29.5656 4.3036 29.9794 4.44819C30.3932 4.59277 30.7608 4.87634 31.0356 5.26302C31.3104 5.64971 31.4801 6.12216 31.5233 6.62064C31.5665 7.11912 31.4812 7.62124 31.2782 8.06353C31.0752 8.50582 30.7636 8.86841 30.3828 9.10546C29.8719 9.42313 29.2731 9.49263 28.718 9.29869C28.1629 9.10475 27.697 8.66325 27.4227 8.07125Z" fill="#093D77"/>
<path d="M9.99609 12.8943L18.2929 31.1837L21.6484 29.1185L13.3522 10.8291L9.99609 12.8943Z" fill="#14B6B8"/>
<path opacity="0.4" d="M16.5501 32.2554L18.293 31.1839L9.99618 12.8945L8.25391 13.9666L16.5501 32.2554Z" fill="#093D77"/>
<path d="M28.3157 4.64009C27.9345 4.87683 27.6225 5.23927 27.4191 5.68158C27.2157 6.12388 27.13 6.62617 27.1729 7.12492C27.2158 7.62367 27.3853 8.09647 27.6601 8.48353C27.9348 8.87058 28.3024 9.1545 28.7164 9.29938C29.1304 9.44425 29.5721 9.44356 29.9857 9.29741C30.3994 9.15126 30.7663 8.8662 31.0402 8.4783C31.314 8.09039 31.4825 7.61707 31.5242 7.11819C31.5659 6.6193 31.4791 6.11728 31.2747 5.67561C31.0005 5.08373 30.5349 4.6422 29.9801 4.44803C29.4252 4.25386 28.8266 4.32294 28.3157 4.64009Z" fill="#EDFCFF"/>
<path opacity="0.8" d="M30.7575 10.1371C30.4719 10.3149 30.2382 10.5869 30.086 10.9187C29.9338 11.2504 29.8698 11.627 29.9023 12.0009C29.9347 12.3748 30.062 12.7291 30.2682 13.0191C30.4744 13.3091 30.7501 13.5217 31.0605 13.6301C31.3709 13.7384 31.7021 13.7377 32.0121 13.6279C32.3222 13.5181 32.5971 13.3043 32.8023 13.0134C33.0075 12.7224 33.1337 12.3675 33.1648 11.9935C33.196 11.6195 33.1308 11.2432 32.9774 10.9121C32.8758 10.692 32.7376 10.4974 32.571 10.3393C32.4043 10.1812 32.2124 10.0628 32.0062 9.9908C31.8 9.91881 31.5835 9.89468 31.3693 9.91978C31.155 9.94488 30.9471 10.0187 30.7575 10.1371Z" fill="#14B6B8"/>
</svg>
