<svg width="40" height="40" viewBox="0 0 40 40" fill="none" xmlns="http://www.w3.org/2000/svg">
<path d="M23.9761 9.46777H23.2617V24.7558H23.9761V9.46777Z" fill="#093D77"/>
<path d="M24.1462 24.7562V22.2922C24.1462 22.2425 24.1265 22.1949 24.0914 22.1598C24.0563 22.1247 24.0086 22.105 23.959 22.105H23.2798C23.2301 22.105 23.1824 22.1247 23.1471 22.1598C23.1119 22.1948 23.092 22.2425 23.0918 22.2922V24.7562H24.1462Z" fill="#F5B400"/>
<path d="M23.9151 6.01367H23.2799C23.1364 6.01409 22.9989 6.07129 22.8974 6.17277C22.7959 6.27425 22.7387 6.41176 22.7383 6.55527V15.0073C22.7387 15.1508 22.7959 15.2883 22.8974 15.3898C22.9989 15.4913 23.1364 15.5484 23.2799 15.5489H23.9143C24.0577 15.5482 24.195 15.4909 24.2963 15.3895C24.3976 15.288 24.4547 15.1506 24.4551 15.0073V6.55527C24.4547 6.41204 24.3977 6.27476 24.2966 6.17333C24.1954 6.0719 24.0583 6.01452 23.9151 6.01367ZM23.5951 6.86967C23.5448 6.87207 23.4949 6.85935 23.452 6.83316C23.409 6.80697 23.3748 6.7685 23.3539 6.72271C23.333 6.67693 23.3262 6.62593 23.3346 6.57628C23.3429 6.52663 23.3659 6.48062 23.4006 6.44417C23.4353 6.40771 23.4802 6.38249 23.5293 6.37176C23.5785 6.36102 23.6298 6.36526 23.6765 6.38393C23.7233 6.4026 23.7634 6.43484 23.7916 6.4765C23.8199 6.51816 23.835 6.56733 23.8351 6.61767C23.8362 6.68198 23.8123 6.7442 23.7684 6.79122C23.7245 6.83823 23.6641 6.86636 23.5999 6.86967H23.5951Z" fill="#F1C40F"/>
<path d="M24.4561 7.44873H22.7393V14.3159H24.4561V7.44873Z" fill="#FFA31D"/>
<path d="M14.993 29.3959C14.993 29.3959 11.793 29.3959 10.993 25.0591C10.5538 22.6815 10.189 15.4199 10.189 15.4199H14.9962L14.993 29.3959Z" fill="#093D77"/>
<path d="M21.2303 15.6841H20.3647V31.2225H21.2303V15.6841Z" fill="#F1C40F"/>
<path d="M15.8583 15.6841H14.9927V31.2225H15.8583V15.6841Z" fill="#F1C40F"/>
<path d="M21.2303 15.6841H14.9927V16.5145H21.2303V15.6841Z" fill="#F1C40F"/>
<path d="M30.8608 31.1753H16.124V32.0057H30.8608V31.1753Z" fill="#FFA31D"/>
<path d="M21.2303 23.0376H14.9927V23.868H21.2303V23.0376Z" fill="#FFA31D"/>
<path d="M21.2303 14.9351H14.9927V15.6839H21.2303V14.9351Z" fill="#FFA31D"/>
<path d="M7.64001 14.9351H14.9928V15.6799H7.64001C7.61052 15.6799 7.58223 15.6681 7.56138 15.6473C7.54052 15.6264 7.52881 15.5982 7.52881 15.5687V15.0423C7.52984 15.0135 7.54202 14.9862 7.56276 14.9662C7.5835 14.9462 7.6112 14.935 7.64001 14.9351Z" fill="#F1C40F"/>
<path d="M17.1295 32.376C17.1295 32.6946 17.035 33.006 16.858 33.2708C16.681 33.5356 16.4295 33.7421 16.1352 33.8639C15.8409 33.9858 15.517 34.0176 15.2046 33.9554C14.8922 33.8932 14.6053 33.7398 14.3801 33.5145C14.1549 33.2892 14.0016 33.0021 13.9395 32.6897C13.8775 32.3773 13.9095 32.0534 14.0315 31.7592C14.1535 31.4649 14.36 31.2135 14.625 31.0366C14.8899 30.8598 15.2014 30.7655 15.5199 30.7656C15.9468 30.766 16.3561 30.9359 16.6579 31.2378C16.9597 31.5398 17.1293 31.9491 17.1295 32.376Z" fill="#093D77"/>
<path d="M16.56 32.3759C16.56 32.5816 16.499 32.7827 16.3847 32.9537C16.2704 33.1248 16.108 33.2581 15.918 33.3368C15.7279 33.4155 15.5188 33.4361 15.3171 33.396C15.1153 33.3558 14.93 33.2568 14.7846 33.1113C14.6391 32.9659 14.5401 32.7806 14.5 32.5788C14.4598 32.3771 14.4804 32.168 14.5591 31.9779C14.6379 31.7879 14.7712 31.6255 14.9422 31.5112C15.1132 31.3969 15.3143 31.3359 15.52 31.3359C15.7958 31.3359 16.0603 31.4455 16.2554 31.6405C16.4504 31.8356 16.56 32.1001 16.56 32.3759Z" fill="#FFA31D"/>
<path d="M16.1238 32.3761C16.1238 32.4959 16.0883 32.613 16.0217 32.7126C15.9551 32.8123 15.8605 32.8899 15.7498 32.9357C15.6391 32.9815 15.5173 32.9934 15.3998 32.97C15.2823 32.9466 15.1744 32.8888 15.0897 32.804C15.005 32.7193 14.9474 32.6113 14.9241 32.4938C14.9009 32.3762 14.913 32.2544 14.9589 32.1438C15.0049 32.0332 15.0826 31.9386 15.1823 31.8722C15.282 31.8057 15.3992 31.7704 15.519 31.7705C15.6795 31.7707 15.8333 31.8346 15.9467 31.9482C16.0601 32.0617 16.1238 32.2156 16.1238 32.3761Z" fill="#FFEDD2"/>
<path d="M30.8609 33.9864C31.7503 33.9864 32.4713 33.2654 32.4713 32.376C32.4713 31.4866 31.7503 30.7656 30.8609 30.7656C29.9715 30.7656 29.2505 31.4866 29.2505 32.376C29.2505 33.2654 29.9715 33.9864 30.8609 33.9864Z" fill="#093D77"/>
<path d="M31.8984 32.3759C31.8984 32.5816 31.8374 32.7827 31.7231 32.9537C31.6088 33.1248 31.4464 33.2581 31.2564 33.3368C31.0663 33.4155 30.8572 33.4361 30.6555 33.396C30.4537 33.3558 30.2684 33.2568 30.123 33.1113C29.9775 32.9659 29.8785 32.7806 29.8383 32.5788C29.7982 32.3771 29.8188 32.168 29.8975 31.9779C29.9762 31.7879 30.1095 31.6255 30.2806 31.5112C30.4516 31.3969 30.6527 31.3359 30.8584 31.3359C31.1342 31.3359 31.3987 31.4455 31.5938 31.6405C31.7888 31.8356 31.8984 32.1001 31.8984 32.3759Z" fill="#FFA31D"/>
<path d="M31.4655 32.3761C31.4653 32.4957 31.4297 32.6125 31.3631 32.7119C31.2966 32.8113 31.2021 32.8886 31.0916 32.9343C30.981 32.98 30.8594 32.9918 30.7422 32.9684C30.6249 32.945 30.5172 32.8873 30.4327 32.8027C30.3482 32.7181 30.2907 32.6103 30.2674 32.493C30.2442 32.3757 30.2562 32.2541 30.302 32.1437C30.3478 32.0332 30.4253 31.9388 30.5247 31.8724C30.6242 31.806 30.7411 31.7705 30.8607 31.7705C30.9402 31.7705 31.0189 31.7862 31.0923 31.8166C31.1657 31.8471 31.2324 31.8917 31.2886 31.9479C31.3448 32.0042 31.3893 32.0709 31.4197 32.1444C31.45 32.2179 31.4656 32.2966 31.4655 32.3761Z" fill="#FFEDD2"/>
<path d="M21.9238 23.1382V26.3454C21.9238 26.779 22.3694 27.1334 22.9142 27.1334H29.0198C29.5646 27.1334 30.0102 26.779 30.0102 26.3454V23.1382H21.9238Z" fill="#14B6B8"/>
<path d="M30.5302 23.4322C30.5302 23.1474 30.2382 22.9146 29.8814 22.9146H22.0526C21.6958 22.9146 21.4038 23.1474 21.4038 23.4322C21.4038 23.4362 21.4038 23.441 21.4038 23.445L30.5302 23.4322Z" fill="#093D77"/>
<path d="M26.423 23.6377H25.511C25.4664 23.6377 25.4302 23.6739 25.4302 23.7185V24.2721C25.4302 24.3167 25.4664 24.3529 25.511 24.3529H26.423C26.4676 24.3529 26.5038 24.3167 26.5038 24.2721V23.7185C26.5038 23.6739 26.4676 23.6377 26.423 23.6377Z" fill="#FFA31D"/>
<path d="M24.8025 23.4448H24.4521V27.1336H24.8025V23.4448Z" fill="#093D77"/>
<path d="M27.5408 23.4448H27.1904V27.1336H27.5408V23.4448Z" fill="#093D77"/>
<path d="M31.292 25.3471C31.2921 25.4322 31.267 25.5155 31.2198 25.5864C31.1726 25.6573 31.1054 25.7126 31.0268 25.7453C30.9482 25.778 30.8616 25.7866 30.7781 25.7701C30.6945 25.7536 30.6178 25.7127 30.5575 25.6525C30.4972 25.5923 30.4562 25.5157 30.4395 25.4321C30.4228 25.3486 30.4313 25.2621 30.4638 25.1834C30.4964 25.1047 30.5516 25.0374 30.6224 24.9901C30.6931 24.9427 30.7764 24.9175 30.8616 24.9175C30.918 24.9174 30.974 24.9284 31.0262 24.95C31.0784 24.9715 31.1259 25.0031 31.1658 25.043C31.2058 25.0829 31.2375 25.1303 31.2592 25.1825C31.2808 25.2347 31.292 25.2906 31.292 25.3471Z" fill="#FFA31D"/>
<path d="M31.0198 25.2305L25.918 23.8396C25.8937 23.833 25.8687 23.8473 25.862 23.8716L25.8035 24.0862C25.7969 24.1105 25.8112 24.1356 25.8355 24.1422L30.9373 25.5331C30.9616 25.5397 30.9867 25.5254 30.9933 25.5011L31.0518 25.2865C31.0584 25.2622 31.0441 25.2372 31.0198 25.2305Z" fill="#F1C40F"/>
<path d="M21.9238 27.1802V30.3874C21.9238 30.821 22.3694 31.1754 22.9142 31.1754H29.0198C29.5646 31.1754 30.0102 30.821 30.0102 30.3874V27.1802H21.9238Z" fill="#14B6B8"/>
<path d="M30.5302 27.4737C30.5302 27.1889 30.2382 26.9561 29.8814 26.9561H22.0526C21.6958 26.9561 21.4038 27.1889 21.4038 27.4737C21.4038 27.4777 21.4038 27.4825 21.4038 27.4865L30.5302 27.4737Z" fill="#093D77"/>
<path d="M26.423 27.6792H25.511C25.4664 27.6792 25.4302 27.7154 25.4302 27.76V28.3136C25.4302 28.3582 25.4664 28.3944 25.511 28.3944H26.423C26.4676 28.3944 26.5038 28.3582 26.5038 28.3136V27.76C26.5038 27.7154 26.4676 27.6792 26.423 27.6792Z" fill="#FFA31D"/>
<path d="M24.8025 27.4863H24.4521V31.1751H24.8025V27.4863Z" fill="#093D77"/>
<path d="M27.5408 27.4863H27.1904V31.1751H27.5408V27.4863Z" fill="#093D77"/>
<path d="M31.292 29.3889C31.292 29.474 31.2667 29.5572 31.2194 29.628C31.1721 29.6988 31.1049 29.754 31.0263 29.7865C30.9476 29.8191 30.8611 29.8276 30.7776 29.811C30.6941 29.7944 30.6174 29.7534 30.5572 29.6932C30.497 29.633 30.456 29.5564 30.4394 29.4729C30.4228 29.3894 30.4313 29.3028 30.4639 29.2242C30.4965 29.1455 30.5517 29.0783 30.6224 29.031C30.6932 28.9837 30.7764 28.9585 30.8616 28.9585C30.9757 28.9585 31.0852 29.0038 31.1659 29.0846C31.2466 29.1653 31.292 29.2747 31.292 29.3889Z" fill="#FFA31D"/>
<path d="M31.0198 29.2725L25.918 27.8816C25.8937 27.875 25.8687 27.8893 25.862 27.9136L25.8035 28.1282C25.7969 28.1525 25.8112 28.1776 25.8355 28.1842L30.9373 29.5751C30.9616 29.5817 30.9867 29.5674 30.9933 29.5431L31.0518 29.3285C31.0584 29.3042 31.0441 29.2792 31.0198 29.2725Z" fill="#F1C40F"/>
</svg>
