<svg width="40" height="40" viewBox="0 0 40 40" fill="none" xmlns="http://www.w3.org/2000/svg">
<path d="M13.7249 22.8798C13.7249 22.8798 13.5945 22.2622 13.4465 22.115C13.2985 21.9678 12.2113 22.0966 11.9225 22.3854C11.6337 22.6742 11.6889 22.9998 11.9225 23.0982C12.1561 23.1966 13.5225 23.4446 13.5225 23.4446L13.7249 22.8798Z" fill="#FF9E29"/>
<path d="M26.968 31.0625H25.368C25.3438 31.0625 25.3206 31.0529 25.3035 31.0358C25.2864 31.0187 25.2768 30.9955 25.2768 30.9713V27.5009H27.0576V30.9713C27.0576 30.9955 27.048 31.0187 27.0309 31.0358C27.0138 31.0529 26.9906 31.0625 26.9664 31.0625H26.968Z" fill="#FA7500"/>
<path d="M12.9407 27.502H14.7199V30.9724C14.7199 30.9965 14.7103 31.0197 14.6932 31.0368C14.6761 31.0539 14.6529 31.0636 14.6287 31.0636H13.0287C13.0045 31.0636 12.9813 31.0539 12.9642 31.0368C12.9471 31.0197 12.9375 30.9965 12.9375 30.9724V27.502H12.9407Z" fill="#FA7500"/>
<path d="M27.0488 25.8396C26.9792 24.3636 26.6312 23.8396 26.4424 23.3596C26.2456 22.8556 25.3976 20.0396 24.6352 19.45C24.1264 19.0556 21.7952 18.958 20 18.958C18.2048 18.958 15.8736 19.0556 15.3648 19.45C14.6024 20.0396 13.7544 22.8556 13.5576 23.3596C13.3688 23.8396 13.0208 24.3676 12.9512 25.8396C12.86 27.7444 13.3936 29.0396 13.9344 29.0396H26.0656C26.6064 29.0396 27.14 27.746 27.0488 25.8396Z" fill="#FFA31D"/>
<path d="M26.2754 22.8798C26.2754 22.8798 26.4058 22.2622 26.5538 22.115C26.7018 21.9678 27.789 22.0966 28.0778 22.3854C28.3666 22.6742 28.3114 22.9998 28.0778 23.0982C27.8442 23.1966 26.4778 23.4446 26.4778 23.4446L26.2754 22.8798Z" fill="#FF9E29"/>
<path d="M25.871 23.0003C25.8094 22.6875 24.703 20.1787 24.4134 19.8899C24.1238 19.6011 21.3278 19.5195 19.9998 19.5195C18.6718 19.5195 15.875 19.5995 15.5862 19.8883C15.2974 20.1771 14.1902 22.6883 14.1286 22.9987C14.087 23.2131 14.283 23.3187 14.5406 23.2899C18.1638 22.8035 21.8358 22.8035 25.459 23.2899C25.7166 23.3171 25.9126 23.2147 25.871 23.0003Z" fill="#FFE0B4"/>
<path d="M23.0488 22.2676C22.7893 22.2675 22.5339 22.3311 22.3047 22.4527C22.0756 22.5743 21.8797 22.7503 21.7344 22.9652L22.1416 22.9836C22.2701 22.8492 22.4268 22.745 22.6004 22.6785C22.774 22.612 22.9602 22.5848 23.1456 22.5989C23.331 22.613 23.5109 22.668 23.6725 22.7599C23.8341 22.8519 23.9732 22.9786 24.08 23.1308C24.2256 23.1452 24.3584 23.1596 24.48 23.174C24.3512 22.9033 24.1485 22.6745 23.8953 22.5141C23.642 22.3537 23.3485 22.2683 23.0488 22.2676Z" fill="#FF9E29"/>
<path d="M27.1801 26.5781H12.8201C12.2049 26.5781 12.5753 29.0469 13.3457 29.0469H26.6545C27.4249 29.0469 27.7953 26.5781 27.1801 26.5781Z" fill="#FA7500"/>
<path d="M15.2582 25.8399C14.9102 25.8455 14.5623 25.822 14.2182 25.7695C14.0326 25.7303 13.9086 25.5703 13.8686 25.3183C13.815 24.9815 13.923 24.4759 14.1374 24.3519C14.2293 24.3123 14.3295 24.2953 14.4294 24.3023C15.083 24.3023 16.3606 24.6623 16.4998 25.5279C16.5034 25.549 16.5021 25.5707 16.496 25.5913C16.4899 25.6118 16.4792 25.6306 16.4646 25.6463C16.3318 25.8095 15.735 25.8399 15.2582 25.8399Z" fill="#FA7500"/>
<path d="M16.4257 25.5444C16.4705 25.8212 14.7049 25.794 14.2377 25.6956C13.7705 25.5972 13.9241 24.5716 14.1801 24.4236C14.4361 24.2756 16.2625 24.53 16.4257 25.5444Z" fill="white"/>
<path d="M24.7572 25.8413C24.2773 25.8512 23.6832 25.8298 23.5439 25.6726C23.529 25.6572 23.5178 25.6386 23.5113 25.6182C23.5048 25.5978 23.5031 25.5762 23.5063 25.555C23.6276 24.6867 24.8976 24.3005 25.551 24.287C25.6508 24.2779 25.7512 24.2929 25.844 24.3306C26.0609 24.4502 26.1769 24.9535 26.1326 25.2913C26.0978 25.5441 25.9771 25.7066 25.7924 25.7496C25.4494 25.8091 25.1021 25.8398 24.754 25.8414L24.7572 25.8413Z" fill="#FA7500"/>
<path d="M23.5746 25.5444C23.5298 25.8212 25.2954 25.794 25.7626 25.6956C26.2298 25.5972 26.0762 24.5716 25.8202 24.4236C25.5642 24.2756 23.7378 24.53 23.5746 25.5444Z" fill="white"/>
<path d="M26.1666 27.4971C26.1538 27.4792 26.137 27.4647 26.1176 27.4547C26.0981 27.4447 26.0765 27.4394 26.0546 27.4395H13.9458C13.924 27.4394 13.9024 27.4445 13.883 27.4544C13.8635 27.4643 13.8466 27.4786 13.8337 27.4962C13.8209 27.5139 13.8124 27.5343 13.8089 27.5559C13.8054 27.5774 13.8071 27.5995 13.8138 27.6203L13.9274 27.9635C13.9804 28.1261 14.0834 28.2678 14.2217 28.3684C14.3601 28.469 14.5267 28.5233 14.6978 28.5235H25.3026C25.4736 28.5233 25.6403 28.469 25.7786 28.3684C25.917 28.2678 26.02 28.1261 26.073 27.9635L26.1866 27.6203C26.1932 27.5996 26.1948 27.5777 26.1914 27.5563C26.1879 27.5348 26.1794 27.5146 26.1666 27.4971Z" fill="#FFD18E"/>
<path d="M20.1806 27.4395H19.8198V28.5211H20.1806V27.4395Z" fill="#AA6D13"/>
<path d="M23.9418 27.8799H16.0586V28.0815H23.9418V27.8799Z" fill="#AA6D13"/>
<path d="M21.5986 27.4395H21.2378V28.5211H21.5986V27.4395Z" fill="#AA6D13"/>
<path d="M21.7342 22.9645C21.7342 22.9645 21.023 21.0285 20.0982 19.9205C19.9814 19.7805 19.8582 19.6477 19.7382 19.5205C18.3366 19.5301 15.8574 19.6173 15.5862 19.8885C15.2966 20.1773 14.1902 22.6885 14.1286 22.9989C14.087 23.2133 14.283 23.3189 14.5406 23.2901C16.3502 23.0472 18.174 22.9259 19.9998 22.9269C20.6198 22.9269 21.1998 22.9413 21.7342 22.9645Z" fill="#FFEDD2"/>
<path d="M18.4014 28.5215H18.7622V27.4399H18.4014V28.5215Z" fill="#AA6D13"/>
<path d="M16.029 27.9812C16.0292 28.0884 15.9975 28.1932 15.9381 28.2824C15.8786 28.3716 15.794 28.4412 15.695 28.4822C15.596 28.5233 15.4871 28.5341 15.3819 28.5133C15.2768 28.4924 15.1802 28.4408 15.1044 28.365C15.0286 28.2892 14.977 28.1926 14.9562 28.0875C14.9353 27.9824 14.9461 27.8734 14.9872 27.7744C15.0283 27.6754 15.0978 27.5908 15.187 27.5314C15.2762 27.4719 15.381 27.4403 15.4882 27.4404C15.6316 27.4404 15.7692 27.4974 15.8706 27.5988C15.972 27.7002 16.029 27.8378 16.029 27.9812Z" fill="#FFA31D"/>
<path d="M23.9712 27.9812C23.971 28.0884 24.0027 28.1932 24.0621 28.2824C24.1216 28.3716 24.2062 28.4412 24.3052 28.4822C24.4042 28.5233 24.5131 28.5341 24.6183 28.5133C24.7234 28.4924 24.82 28.4408 24.8958 28.365C24.9716 28.2892 25.0231 28.1926 25.044 28.0875C25.0649 27.9824 25.0541 27.8734 25.013 27.7744C24.9719 27.6754 24.9024 27.5908 24.8132 27.5314C24.724 27.4719 24.6192 27.4403 24.512 27.4404C24.3686 27.4404 24.231 27.4974 24.1296 27.5988C24.0282 27.7002 23.9712 27.8378 23.9712 27.9812Z" fill="#FFA31D"/>
<path d="M19.9343 26.6405C18.8391 26.6405 17.4751 26.5829 17.1983 26.3061C16.9759 26.0837 16.5335 25.2717 16.5767 24.9461C16.5821 24.8968 16.5989 24.8495 16.6256 24.8079C16.6524 24.7662 16.6885 24.7314 16.7311 24.7061C17.0671 24.5117 19.0791 24.4437 19.9311 24.4229C20.7863 24.4429 22.8031 24.5109 23.1407 24.7061C23.1836 24.7309 23.2201 24.7656 23.2469 24.8074C23.2738 24.8491 23.2903 24.8967 23.2951 24.9461C23.3383 25.2661 22.8951 26.0813 22.6735 26.3061C22.3935 26.5837 21.0295 26.6405 19.9343 26.6405Z" fill="#FA7500"/>
<path d="M19.9346 26.5596C19.0498 26.5596 17.5258 26.5188 17.2546 26.2484C17.0234 26.0172 16.6146 25.238 16.6546 24.9564C16.6584 24.9191 16.6709 24.8833 16.6911 24.8518C16.7112 24.8203 16.7384 24.7939 16.7706 24.7748C17.1002 24.5844 19.2722 24.518 19.9298 24.502C20.597 24.518 22.769 24.582 23.0986 24.7748C23.1307 24.7939 23.158 24.8203 23.1781 24.8518C23.1983 24.8833 23.2107 24.9191 23.2146 24.9564C23.2514 25.2372 22.8458 26.0172 22.6146 26.2484C22.3434 26.5212 20.8194 26.5596 19.9346 26.5596Z" fill="white"/>
<path d="M22.9998 24.9476C22.6878 24.7676 19.9342 24.7012 19.9342 24.7012C19.9342 24.7012 17.1806 24.7676 16.8686 24.9476C16.755 25.0132 17.139 25.8572 17.3934 26.1116C17.6478 26.366 19.9342 26.3652 19.9342 26.3652C19.9342 26.3652 22.2214 26.3652 22.475 26.1116C22.7286 25.858 23.1134 25.0132 22.9998 24.9476Z" fill="#AA6D13"/>
<path d="M23.016 25.0498H16.856C16.8676 25.1176 16.8858 25.184 16.9104 25.2482H22.96C22.9851 25.1841 23.0038 25.1176 23.016 25.0498Z" fill="white"/>
<path d="M17.0984 25.6719H22.7704C22.8056 25.6063 22.8384 25.5391 22.8688 25.4727H17C17.0304 25.5391 17.0632 25.6063 17.0984 25.6719Z" fill="white"/>
<path d="M19.776 26.5276H20.096C20.096 25.8956 20.1 25.2476 20.1016 24.6172H19.7736C19.772 25.2508 19.7736 25.8956 19.776 26.5276Z" fill="white"/>
<path d="M17.3791 26.0957H22.4895C22.5451 26.0338 22.5952 25.9672 22.6391 25.8965H17.2295C17.2734 25.9672 17.3235 26.0338 17.3791 26.0957Z" fill="white"/>
<path d="M20.667 19.9199H19.3326C19.2686 19.9199 19.2158 20.0303 19.2158 20.1655C19.2158 20.3007 19.2686 20.4119 19.3326 20.4119H20.667C20.731 20.4119 20.7838 20.3015 20.7838 20.1655C20.7838 20.0295 20.731 19.9199 20.667 19.9199Z" fill="#10303E"/>
<path d="M25.8426 25.9873H24.0154C23.9964 25.9873 23.981 26.0027 23.981 26.0217V26.3793C23.981 26.3983 23.9964 26.4137 24.0154 26.4137H25.8426C25.8616 26.4137 25.877 26.3983 25.877 26.3793V26.0217C25.877 26.0027 25.8616 25.9873 25.8426 25.9873Z" fill="#FA7500"/>
<path d="M14.1584 26.4141H15.9856C16.0046 26.4141 16.02 26.3987 16.02 26.3797V26.0221C16.02 26.0031 16.0046 25.9877 15.9856 25.9877H14.1584C14.1394 25.9877 14.124 26.0031 14.124 26.0221V26.3797C14.124 26.3987 14.1394 26.4141 14.1584 26.4141Z" fill="#FA7500"/>
<path d="M8.95995 10.1035C8.79212 10.1035 8.63116 10.1702 8.51249 10.2889C8.39382 10.4075 8.32715 10.5685 8.32715 10.7363V31.0619H10.4127V14.2755H29.5887V31.0619H31.6744V10.7363C31.6744 10.6531 31.6579 10.5707 31.626 10.4938C31.5941 10.4169 31.5474 10.3471 31.4884 10.2883C31.4295 10.2295 31.3596 10.1829 31.2826 10.1512C31.2056 10.1195 31.1232 10.1033 31.0399 10.1035H8.95995Z" fill="#093D77"/>
<path d="M29.5879 14.2764H10.4111V18.4484H29.5879V14.2764Z" fill="#14B6B8"/>
<path d="M29.5879 18.0195H10.4111V18.4467H29.5879V18.0195Z" fill="#EDFCFF"/>
<path d="M29.5879 16.9551H10.4111V17.3823H29.5879V16.9551Z" fill="#EDFCFF"/>
<path d="M29.5879 15.8896H10.4111V16.3168H29.5879V15.8896Z" fill="#EDFCFF"/>
<path d="M29.5879 14.8252H10.4111V15.2524H29.5879V14.8252Z" fill="#EDFCFF"/>
<path d="M20.0002 13.6117C19.3064 13.6117 18.6281 13.406 18.0512 13.0205C17.4744 12.635 17.0247 12.0872 16.7592 11.4462C16.4937 10.8052 16.4242 10.0998 16.5596 9.41933C16.695 8.73884 17.0291 8.11378 17.5197 7.62317C18.0103 7.13257 18.6353 6.79847 19.3158 6.66311C19.9963 6.52775 20.7016 6.59722 21.3426 6.86274C21.9836 7.12825 22.5315 7.57788 22.917 8.15476C23.3024 8.73165 23.5082 9.40989 23.5082 10.1037C23.5071 11.0338 23.1372 11.9254 22.4795 12.5831C21.8219 13.2407 20.9302 13.6106 20.0002 13.6117Z" fill="#14B6B8"/>
<path d="M20.0002 13.2338C21.7286 13.2338 23.1298 11.8326 23.1298 10.1042C23.1298 8.37578 21.7286 6.97461 20.0002 6.97461C18.2718 6.97461 16.8706 8.37578 16.8706 10.1042C16.8706 11.8326 18.2718 13.2338 20.0002 13.2338Z" fill="white"/>
<path d="M20.2802 6.97461H19.7202V8.61221H20.2802V6.97461Z" fill="#FA7500"/>
<path d="M19.9998 8.6123C18.2054 8.6123 18.167 9.1667 18.167 9.8507H21.8326C21.8326 9.1667 21.7942 8.6123 19.9998 8.6123Z" fill="#FFB137"/>
<path d="M22.0278 9.85059H17.9718C17.9612 9.85059 17.9526 9.85918 17.9526 9.86979V10.2554C17.9526 10.266 17.9612 10.2746 17.9718 10.2746H22.0278C22.0384 10.2746 22.047 10.266 22.047 10.2554V9.86979C22.047 9.85918 22.0384 9.85059 22.0278 9.85059Z" fill="#FA7500"/>
<path d="M20.235 10.9881C20.235 11.0505 20.2103 11.1103 20.1662 11.1544C20.1221 11.1985 20.0622 11.2233 19.9998 11.2233C19.9375 11.2233 19.8776 11.1985 19.8335 11.1544C19.7894 11.1103 19.7646 11.0505 19.7646 10.9881C19.7646 10.8577 19.9998 10.5449 19.9998 10.5449C19.9998 10.5449 20.235 10.8577 20.235 10.9881Z" fill="#0FA6E4"/>
<path d="M19.9142 11.0132C19.9142 11.0612 19.8926 11.0996 19.8654 11.0996C19.8382 11.0996 19.8174 11.0612 19.8174 11.0132C19.8174 10.9652 19.839 10.9268 19.8654 10.9268C19.8918 10.9268 19.9142 10.9652 19.9142 11.0132Z" fill="white"/>
<path d="M19.3439 10.9881C19.3439 11.0505 19.3192 11.1103 19.275 11.1544C19.2309 11.1985 19.1711 11.2233 19.1087 11.2233C19.0464 11.2233 18.9865 11.1985 18.9424 11.1544C18.8983 11.1103 18.8735 11.0505 18.8735 10.9881C18.8735 10.8577 19.1087 10.5449 19.1087 10.5449C19.1087 10.5449 19.3439 10.8577 19.3439 10.9881Z" fill="#0FA6E4"/>
<path d="M18.9752 11.0996C19.0018 11.0996 19.0232 11.0609 19.0232 11.0132C19.0232 10.9654 19.0018 10.9268 18.9752 10.9268C18.9487 10.9268 18.9272 10.9654 18.9272 11.0132C18.9272 11.0609 18.9487 11.0996 18.9752 11.0996Z" fill="white"/>
<path d="M18.4538 10.9881C18.4538 11.0505 18.429 11.1103 18.3849 11.1544C18.3408 11.1985 18.281 11.2233 18.2186 11.2233C18.1562 11.2233 18.0964 11.1985 18.0523 11.1544C18.0082 11.1103 17.9834 11.0505 17.9834 10.9881C17.9834 10.8577 18.2186 10.5449 18.2186 10.5449C18.2186 10.5449 18.4538 10.8577 18.4538 10.9881Z" fill="#0FA6E4"/>
<path d="M18.0841 11.0996C18.1106 11.0996 18.1321 11.0609 18.1321 11.0132C18.1321 10.9654 18.1106 10.9268 18.0841 10.9268C18.0576 10.9268 18.0361 10.9654 18.0361 11.0132C18.0361 11.0609 18.0576 11.0996 18.0841 11.0996Z" fill="white"/>
<path d="M21.1262 10.9881C21.1262 11.0505 21.1014 11.1103 21.0573 11.1544C21.0132 11.1985 20.9533 11.2233 20.891 11.2233C20.8286 11.2233 20.7688 11.1985 20.7246 11.1544C20.6805 11.1103 20.6558 11.0505 20.6558 10.9881C20.6558 10.8577 20.891 10.5449 20.891 10.5449C20.891 10.5449 21.1262 10.8577 21.1262 10.9881Z" fill="#0FA6E4"/>
<path d="M20.757 11.0996C20.7835 11.0996 20.805 11.0609 20.805 11.0132C20.805 10.9654 20.7835 10.9268 20.757 10.9268C20.7305 10.9268 20.709 10.9654 20.709 11.0132C20.709 11.0609 20.7305 11.0996 20.757 11.0996Z" fill="white"/>
<path d="M22.0168 10.9881C22.0168 11.0505 21.992 11.1103 21.9479 11.1544C21.9038 11.1985 21.844 11.2233 21.7816 11.2233C21.7192 11.2233 21.6594 11.1985 21.6153 11.1544C21.5712 11.1103 21.5464 11.0505 21.5464 10.9881C21.5464 10.8577 21.7816 10.5449 21.7816 10.5449C21.7816 10.5449 22.0168 10.8577 22.0168 10.9881Z" fill="#0FA6E4"/>
<path d="M21.6481 11.0996C21.6746 11.0996 21.6961 11.0609 21.6961 11.0132C21.6961 10.9654 21.6746 10.9268 21.6481 10.9268C21.6216 10.9268 21.6001 10.9654 21.6001 11.0132C21.6001 11.0609 21.6216 11.0996 21.6481 11.0996Z" fill="white"/>
<path d="M19.7897 11.8924C19.7897 11.9548 19.765 12.0146 19.7208 12.0587C19.6767 12.1028 19.6169 12.1276 19.5545 12.1276C19.4922 12.1276 19.4323 12.1028 19.3882 12.0587C19.3441 12.0146 19.3193 11.9548 19.3193 11.8924C19.3193 11.7628 19.5545 11.4492 19.5545 11.4492C19.5545 11.4492 19.7897 11.7596 19.7897 11.8924Z" fill="#0FA6E4"/>
<path d="M19.4689 11.9204C19.4689 11.9684 19.4473 12.0068 19.4209 12.0068C19.3945 12.0068 19.3721 11.9684 19.3721 11.9204C19.3721 11.8724 19.3937 11.834 19.4209 11.834C19.4481 11.834 19.4689 11.8708 19.4689 11.9204Z" fill="white"/>
<path d="M18.8991 11.8924C18.8991 11.9548 18.8743 12.0146 18.8302 12.0587C18.7861 12.1028 18.7263 12.1276 18.6639 12.1276C18.6015 12.1276 18.5417 12.1028 18.4976 12.0587C18.4535 12.0146 18.4287 11.9548 18.4287 11.8924C18.4287 11.7628 18.6639 11.4492 18.6639 11.4492C18.6639 11.4492 18.8991 11.7596 18.8991 11.8924Z" fill="#0FA6E4"/>
<path d="M18.5774 11.9204C18.5774 11.9684 18.5558 12.0068 18.5294 12.0068C18.503 12.0068 18.4814 11.9684 18.4814 11.9204C18.4814 11.8724 18.503 11.834 18.5294 11.834C18.5558 11.834 18.5774 11.8708 18.5774 11.9204Z" fill="white"/>
<path d="M20.6808 11.8924C20.6808 11.9233 20.6748 11.9539 20.6629 11.9824C20.6511 12.011 20.6338 12.0369 20.612 12.0587C20.5901 12.0806 20.5642 12.0979 20.5357 12.1097C20.5071 12.1215 20.4765 12.1276 20.4456 12.1276C20.4148 12.1276 20.3842 12.1215 20.3556 12.1097C20.3271 12.0979 20.3012 12.0806 20.2793 12.0587C20.2575 12.0369 20.2402 12.011 20.2284 11.9824C20.2165 11.9539 20.2104 11.9233 20.2104 11.8924C20.2104 11.7628 20.4456 11.4492 20.4456 11.4492C20.4456 11.4492 20.6808 11.7596 20.6808 11.8924Z" fill="#0FA6E4"/>
<path d="M20.3592 11.9204C20.3592 11.9684 20.3376 12.0068 20.3112 12.0068C20.2848 12.0068 20.2632 11.9684 20.2632 11.9204C20.2632 11.8724 20.2848 11.834 20.3112 11.834C20.3376 11.834 20.3592 11.8708 20.3592 11.9204Z" fill="white"/>
<path d="M21.571 11.8924C21.571 11.9548 21.5462 12.0146 21.5021 12.0587C21.458 12.1028 21.3982 12.1276 21.3358 12.1276C21.2734 12.1276 21.2136 12.1028 21.1695 12.0587C21.1254 12.0146 21.1006 11.9548 21.1006 11.8924C21.1006 11.7628 21.3358 11.4492 21.3358 11.4492C21.3358 11.4492 21.571 11.7596 21.571 11.8924Z" fill="#0FA6E4"/>
<path d="M21.2506 11.9204C21.2506 11.9684 21.229 12.0068 21.2026 12.0068C21.1762 12.0068 21.1538 11.9684 21.1538 11.9204C21.1538 11.8724 21.1754 11.834 21.2026 11.834C21.2298 11.834 21.2506 11.8708 21.2506 11.9204Z" fill="white"/>
</svg>
