<svg width="40" height="40" viewBox="0 0 40 40" fill="none" xmlns="http://www.w3.org/2000/svg">
<path d="M10.5251 32.1768H10.5307C10.5813 32.1806 10.6318 32.1692 10.6757 32.1439C10.7196 32.1187 10.755 32.0808 10.7771 32.0352L13.5995 23.7832H12.3379L10.2771 31.952C10.2435 32.068 10.3643 32.1768 10.5251 32.1768Z" fill="#093D77"/>
<path d="M22.7572 32.1768H22.7516C22.7011 32.1806 22.6505 32.1692 22.6066 32.1439C22.5627 32.1187 22.5273 32.0808 22.5052 32.0352L19.6836 23.7832H20.9444L23.0052 31.952C23.0396 32.068 22.918 32.1768 22.7572 32.1768Z" fill="#093D77"/>
<path d="M21.9204 23.6265H11.3628V24.4625H21.9204V23.6265Z" fill="#14B6B8"/>
<path d="M22.995 16.7422H10.2886V24.1454H22.995V16.7422Z" fill="#1969C1"/>
<path d="M22.5744 20.3911H10.708V23.6263H22.5744V20.3911Z" fill="#093D77"/>
<path d="M22.495 20.4966H10.7886V23.5214H22.495V20.4966Z" fill="#FFF9F0"/>
<path d="M22.5744 17.2607H10.708V20.4959H22.5744V17.2607Z" fill="#093D77"/>
<path d="M22.495 17.3662H10.7886V20.391H22.495V17.3662Z" fill="#FFF9F0"/>
<path d="M16.6414 18.1661C16.8826 18.1661 17.0782 18.0611 17.0782 17.9317C17.0782 17.8022 16.8826 17.6973 16.6414 17.6973C16.4002 17.6973 16.2046 17.8022 16.2046 17.9317C16.2046 18.0611 16.4002 18.1661 16.6414 18.1661Z" fill="#2A2428"/>
<path d="M16.6413 18.1431C16.8583 18.1431 17.0341 18.0485 17.0341 17.9319C17.0341 17.8153 16.8583 17.7207 16.6413 17.7207C16.4244 17.7207 16.2485 17.8153 16.2485 17.9319C16.2485 18.0485 16.4244 18.1431 16.6413 18.1431Z" fill="#EDFCFF"/>
<path d="M17.0784 21.062C17.0784 21.1916 16.8824 21.2964 16.6416 21.2964C16.4008 21.2964 16.2056 21.1916 16.2056 21.062C16.2056 20.9324 16.4008 20.8276 16.6416 20.8276C16.8824 20.8276 17.0784 20.9324 17.0784 21.062Z" fill="#2A2428"/>
<path d="M17.0341 21.0623C17.0341 21.1791 16.8581 21.2735 16.6413 21.2735C16.4245 21.2735 16.2485 21.1791 16.2485 21.0623C16.2485 20.9455 16.4245 20.8511 16.6413 20.8511C16.8581 20.8511 17.0341 20.9455 17.0341 21.0623Z" fill="#EDFCFF"/>
<path d="M14.2486 16.7425H12.1982C12.1758 16.7436 12.1539 16.7358 12.1373 16.7208C12.1206 16.7058 12.1106 16.6848 12.1094 16.6625V16.3809C12.1106 16.3585 12.1206 16.3376 12.1373 16.3226C12.1539 16.3076 12.1758 16.2998 12.1982 16.3009H14.2486C14.2596 16.3003 14.2706 16.302 14.281 16.3057C14.2914 16.3095 14.301 16.3152 14.3092 16.3226C14.3173 16.3301 14.324 16.339 14.3287 16.349C14.3334 16.359 14.3361 16.3698 14.3366 16.3809V16.6625C14.3361 16.6735 14.3334 16.6843 14.3287 16.6943C14.324 16.7043 14.3173 16.7133 14.3092 16.7207C14.301 16.7282 14.2914 16.7339 14.281 16.7376C14.2706 16.7414 14.2596 16.743 14.2486 16.7425Z" fill="#093D77"/>
<path d="M14.3366 16.6487V16.3799C14.3361 16.3689 14.3334 16.358 14.3287 16.348C14.324 16.3381 14.3173 16.3291 14.3092 16.3217C14.301 16.3142 14.2914 16.3085 14.281 16.3047C14.2706 16.301 14.2596 16.2994 14.2486 16.2999H12.1982C12.1758 16.2988 12.1539 16.3066 12.1373 16.3216C12.1206 16.3366 12.1106 16.3575 12.1094 16.3799V16.6487H14.3366Z" fill="#14B6B8"/>
<path d="M13.3416 11.0728H13.104V14.14H13.3416V11.0728Z" fill="url(#paint0_linear_5672_52921)"/>
<path d="M13.414 13.0493H13.0308V14.1397H13.414V13.0493Z" fill="url(#paint1_linear_5672_52921)"/>
<path d="M13.4245 12.8501H13.0205V13.9989H13.4245V12.8501Z" fill="url(#paint2_radial_5672_52921)"/>
<path d="M16.8278 11.591C16.8278 11.8926 15.2158 12.1182 13.223 12.1182C11.2302 12.1182 9.61816 11.8926 9.61816 11.591C11.9622 10.8369 14.4837 10.8369 16.8278 11.591Z" fill="#FFA31D"/>
<path d="M16.6453 11.6352C16.6453 11.8672 15.1133 12.0552 13.2229 12.0552C11.3325 12.0552 9.80127 11.8672 9.80127 11.6352C9.80127 11.4032 11.3333 11.2144 13.2229 11.2144C15.1125 11.2144 16.6453 11.4032 16.6453 11.6352Z" fill="#FFFDF7"/>
<path d="M13.223 11.5908C12.9134 11.5908 12.6142 11.5956 12.3286 11.6052C12.4886 11.8764 12.8302 12.0636 13.223 12.0636C13.6158 12.0636 13.955 11.8764 14.1174 11.6052C13.8326 11.5996 13.5326 11.5908 13.223 11.5908Z" fill="url(#paint3_radial_5672_52921)"/>
<path d="M16.8278 11.5903H9.61816L11.4718 7.61426H14.9742L16.8278 11.5903Z" fill="#093D77"/>
<path d="M13.6351 13.1196H12.8103C11.7703 13.2972 10.9751 14.1308 10.9751 15.1372V15.1524C10.9815 15.8836 11.6647 16.4604 12.4647 16.4604H13.9807C14.7807 16.4604 15.4647 15.8836 15.4703 15.1524V15.1372C15.4703 14.13 14.6791 13.2964 13.6351 13.1196Z" fill="#96EDFF"/>
<path d="M26.5599 28.0801L25.7599 28.3921L25.7767 27.9001C25.7311 27.7057 25.5831 27.3008 25.5855 27.084L25.6199 24.764C25.6219 24.6799 25.6407 24.5969 25.6751 24.5201V24.5161C25.7607 24.3209 25.9367 24.0768 26.1183 24.0264L26.2783 23.9833C26.4335 23.9401 26.5711 24.0673 26.6559 24.1777L26.6767 24.2049C26.7303 24.2769 26.7584 24.3647 26.7567 24.4544L26.7447 26.8944C26.743 27.1095 26.72 27.3239 26.6759 27.5345L26.5599 28.0801Z" fill="#BD8638"/>
<path d="M27.5517 32.3855H24.7309C24.5917 32.3855 24.4573 32.3348 24.353 32.2427C24.2487 32.1506 24.1816 32.0235 24.1645 31.8855L23.6685 27.8975H28.6141L28.1181 31.8855C28.1009 32.0235 28.0338 32.1506 27.9295 32.2427C27.8252 32.3348 27.6908 32.3855 27.5517 32.3855Z" fill="#093D77"/>
<g style="mix-blend-mode:multiply" opacity="0.35">
<path d="M28.5221 28.6327L28.6141 27.8975H23.6685L23.7605 28.6327H28.5221Z" fill="#14B6B8"/>
</g>
<path d="M28.6451 27.4912H23.6371C23.5099 27.4912 23.4067 27.5944 23.4067 27.7216V27.92C23.4067 28.0473 23.5099 28.1504 23.6371 28.1504H28.6451C28.7724 28.1504 28.8755 28.0473 28.8755 27.92V27.7216C28.8755 27.5944 28.7724 27.4912 28.6451 27.4912Z" fill="#093D77"/>
<path d="M26.3516 24.7086C26.3516 24.7086 27.2356 24.5294 27.3828 24.351C27.53 24.1726 27.6852 24.5694 27.3828 24.7086C27.262 24.7646 26.3516 25.2246 26.3516 25.2246V24.7086Z" fill="#BD8638"/>
<path d="M25.8318 25.1855C25.919 25.1855 25.7838 24.7679 25.7838 24.7679C25.7838 24.7679 25.0518 24.4631 24.8886 24.2031C24.7254 23.9431 24.4358 23.9399 24.7054 24.3511C24.975 24.7623 25.3118 25.1855 25.8318 25.1855Z" fill="#BD8638"/>
<path d="M27.4731 24.4039C27.4731 24.4039 28.7459 21.3215 30.1515 21.0151C29.1669 22.069 28.2711 23.2025 27.4731 24.4039Z" fill="#14B6B8"/>
<path d="M27.5439 24.3638C27.5439 24.3638 27.4135 23.055 27.8639 22.1318C28.3143 21.2086 27.9599 20.9966 27.9599 20.9966C27.9599 20.9966 28.3911 21.347 28.0887 22.1734C27.7863 22.9998 27.5199 24.1718 27.5439 24.3638Z" fill="#14B6B8"/>
<path d="M27.3974 24.4958C27.3974 24.4958 26.9254 21.8718 27.6846 20.207C27.6846 20.207 27.611 21.2038 27.5806 21.6998C27.5502 22.1958 27.647 23.6454 27.3974 24.4958Z" fill="#093D77"/>
<path d="M27.6245 24.4613C27.6245 24.4613 29.0085 24.0253 29.3309 23.4741C28.7114 23.7065 28.1347 24.0401 27.6245 24.4613Z" fill="#14B6B8"/>
<path d="M27.6836 24.4293C27.6836 24.4293 28.1396 22.9189 29.71 21.8149C29.71 21.8149 28.0636 24.1397 27.6836 24.4293Z" fill="#14B6B8"/>
<path d="M27.4653 24.4879C27.4653 24.4879 28.3749 23.0215 28.4005 22.3279C28.4261 21.6343 28.1749 20.2479 28.3597 19.8735C28.4793 20.2298 28.5728 20.5942 28.6397 20.9639C28.7125 21.4439 28.9413 22.8391 28.3197 23.5783C27.6981 24.3175 27.7805 24.3591 27.4653 24.4879Z" fill="#093D77"/>
<path d="M27.582 24.5133C27.582 24.5133 29.9748 22.8109 30.382 21.9165C30.3812 21.9197 28.37 23.0749 27.582 24.5133Z" fill="#093D77"/>
<path d="M27.4343 24.4172C27.4343 24.4172 26.4871 22.7308 26.6263 21.9492C26.6263 21.9492 27.6247 23.3596 27.4343 24.4172Z" fill="#14B6B8"/>
<path d="M27.4224 24.4428C27.4224 24.4428 27.7984 22.6492 28.2776 22.186C28.2776 22.186 27.9024 24.1364 27.4224 24.4428Z" fill="#14B6B8"/>
<path d="M26.0718 24.83C26.0718 24.83 26.4502 21.0204 27.6214 20.5244C26.9897 21.9155 26.4715 23.3554 26.0718 24.83Z" fill="#14B6B8"/>
<path d="M26.1244 24.7758C26.1244 24.7758 25.6908 23.2206 25.8676 22.0726C26.0444 20.9246 25.6772 20.7046 25.6772 20.7046C25.6772 20.7046 26.1444 21.0846 26.0772 22.1022C26.01 23.1198 26.0532 24.5486 26.1244 24.7758Z" fill="#14B6B8"/>
<path d="M26.027 24.9471C26.027 24.9471 24.971 21.8487 25.2382 19.7847C25.2382 19.7847 25.4158 20.9847 25.5094 21.5823C25.603 22.1799 26.0414 23.9055 26.027 24.9471Z" fill="#14B6B8"/>
<path d="M26.2197 24.8846C26.2197 24.8846 27.3397 24.235 27.4917 23.5454C27.4917 23.5454 26.8333 23.9398 26.2197 24.8846Z" fill="#14B6B8"/>
<path d="M26.2646 24.8414C26.2646 24.8414 26.3014 22.9902 27.4246 21.523C27.4246 21.5198 26.531 24.4598 26.2646 24.8414Z" fill="#14B6B8"/>
<path d="M26.0844 24.9313C26.0844 24.9313 26.5348 23.0913 26.3892 22.2633C26.2436 21.4353 26.0236 20.2009 26.0964 19.7393C26.2889 20.1553 26.4593 20.5812 26.6068 21.0153C26.7884 21.5841 26.99 22.8209 26.618 23.7641C26.246 24.7073 26.3332 24.7481 26.0844 24.9313Z" fill="#093D77"/>
<path d="M26.1948 24.9518C26.1948 24.9518 27.9012 22.6918 28.0436 21.583C28.0436 21.583 26.5428 23.1558 26.1948 24.9518Z" fill="#093D77"/>
<path d="M26.0404 24.8502C26.0404 24.8502 24.7908 22.9182 24.7236 21.9702C24.7236 21.9694 25.9532 23.5702 26.0404 24.8502Z" fill="#14B6B8"/>
<path d="M26.0356 24.8801C26.0356 24.8801 25.9332 22.6969 26.2452 22.0977C26.2452 22.1001 26.3868 24.4713 26.0356 24.8801Z" fill="#14B6B8"/>
<path d="M24.6748 24.1253C24.6748 24.1253 22.6676 20.4869 23.5436 19.0645C23.5436 19.0645 23.4964 20.2317 23.7916 21.2341C24.0796 22.2005 24.4692 23.0477 24.6748 24.1253Z" fill="#14B6B8"/>
<path d="M24.7996 24.2129C24.7996 24.2129 25.0292 22.8969 24.7308 21.8929C24.398 20.7729 24.7548 20.5625 24.7548 20.5625C24.7548 20.5625 24.3148 20.9329 24.5244 21.9281C24.7196 22.8401 24.8388 24.0241 24.7996 24.2129Z" fill="#14B6B8"/>
<path d="M24.9043 24.328C24.9043 24.328 25.5523 21.3792 24.9555 19.02C24.9555 19.02 25.0499 20.852 25.0243 21.4248C25.0003 21.9784 24.7779 23.5064 24.9043 24.328Z" fill="#093D77"/>
<path d="M24.7239 24.3137C24.7239 24.3137 23.5239 23.9801 23.2319 23.3921C23.7851 23.598 24.2922 23.9112 24.7239 24.3137Z" fill="#14B6B8"/>
<path d="M24.6783 24.2877C24.6783 24.2877 24.4151 22.7541 22.9063 21.3789C22.9063 21.3789 24.3807 24.0301 24.6783 24.2877Z" fill="#14B6B8"/>
<path d="M24.8508 24.3256C24.8508 24.3256 24.1916 22.8664 24.2244 22.0928C24.258 21.284 24.6116 19.0904 24.4644 18.564C24.4644 18.564 24.2188 19.8192 24.1044 20.424C23.9924 21.016 23.662 22.664 24.1988 23.464C24.6796 24.18 24.6036 24.2272 24.8508 24.3256Z" fill="#093D77"/>
<path d="M24.754 24.3606C24.754 24.3606 22.5644 22.6206 22.1084 21.4502C22.1084 21.4502 24.1924 22.9254 24.754 24.3606Z" fill="#093D77"/>
<path d="M24.8799 24.2548C24.8799 24.2548 25.7903 22.5676 25.7759 21.7612C25.7783 21.7596 24.8231 23.2172 24.8799 24.2548Z" fill="#14B6B8"/>
<path d="M24.8892 24.2796C24.8892 24.2796 24.7412 22.4644 24.3516 21.9316C24.3516 21.9316 24.5196 24.0156 24.8892 24.2796Z" fill="#14B6B8"/>
<path d="M27.4222 24.271C27.4222 24.271 27.2766 24.4038 27.3246 24.511C27.3502 24.5694 27.4502 24.803 27.6838 24.4998C27.9174 24.1966 27.4134 24.367 27.4222 24.271Z" fill="#14B6B8"/>
<path d="M26.0382 24.6582C26.0382 24.6582 25.8934 24.791 25.9414 24.8982C25.9662 24.9566 26.067 25.191 26.2998 24.887C26.5326 24.583 26.0302 24.7542 26.0382 24.6582Z" fill="#14B6B8"/>
<path d="M24.595 24.2713C24.6206 24.3289 24.9558 24.5113 24.9638 24.3121C24.9838 23.8305 24.547 24.1601 24.595 24.2713Z" fill="#14B6B8"/>
<defs>
<linearGradient id="paint0_linear_5672_52921" x1="13.3416" y1="12.6064" x2="13.104" y2="12.6064" gradientUnits="userSpaceOnUse">
<stop stop-color="#807F7E"/>
<stop offset="1" stop-color="#86857D"/>
</linearGradient>
<linearGradient id="paint1_linear_5672_52921" x1="13.414" y1="13.5941" x2="13.0308" y2="13.5941" gradientUnits="userSpaceOnUse">
<stop stop-color="#3C3B39"/>
<stop offset="0.16" stop-color="#3A3937"/>
<stop offset="0.19" stop-color="#41403E"/>
<stop offset="0.24" stop-color="#545352"/>
<stop offset="0.29" stop-color="#737271"/>
<stop offset="0.3" stop-color="#706F6E"/>
<stop offset="0.39" stop-color="#4D4C4B"/>
<stop offset="0.46" stop-color="#383735"/>
<stop offset="0.5" stop-color="#302F2D"/>
<stop offset="0.71" stop-color="#262522"/>
<stop offset="0.89" stop-color="#383835"/>
<stop offset="0.95" stop-color="#555552"/>
<stop offset="1" stop-color="#676765"/>
</linearGradient>
<radialGradient id="paint2_radial_5672_52921" cx="0" cy="0" r="1" gradientUnits="userSpaceOnUse" gradientTransform="translate(13.2461 12.8469) scale(0.708)">
<stop offset="0.04" stop-color="#504F4D"/>
<stop offset="0.19" stop-color="#444341"/>
<stop offset="0.61" stop-color="#262522"/>
<stop offset="1" stop-color="#302F2D"/>
</radialGradient>
<radialGradient id="paint3_radial_5672_52921" cx="0" cy="0" r="1" gradientUnits="userSpaceOnUse" gradientTransform="translate(13.2259 11.4332) scale(0.727168 0.956801)">
<stop offset="0.49" stop-color="white"/>
<stop offset="0.6" stop-color="#FFFFFA"/>
<stop offset="0.74" stop-color="#FFFFEA"/>
<stop offset="0.9" stop-color="#FFFFD0"/>
<stop offset="1" stop-color="#FFFFBC"/>
</radialGradient>
</defs>
</svg>
