<svg width="40" height="40" viewBox="0 0 40 40" fill="none" xmlns="http://www.w3.org/2000/svg">
<path opacity="0.1" d="M11.904 21.1676V19.8724C14.764 18.642 16.9304 13.6556 17.064 7.56836H10.48V32.8236H14.408C14.3368 27.5132 13.32 23.0452 11.904 21.1676Z" fill="#000D20"/>
<path d="M10.0942 7.51953V20.0883H10.1278C13.6478 20.0883 16.5214 14.5139 16.6766 7.52113L10.0942 7.51953Z" fill="#093D77"/>
<path d="M10.0942 32.7764H14.0214C13.9286 25.8076 12.2078 20.2484 10.0942 20.21V32.7764Z" fill="#093D77"/>
<path d="M10.0942 7.51953V20.0883H10.1238C13.1766 20.0883 15.6678 14.5139 15.8038 7.52113L10.0942 7.51953Z" fill="#14B6B8"/>
<path d="M10.0942 32.7764H13.4998C13.4198 25.8076 11.927 20.2484 10.0942 20.21V32.7764Z" fill="#14B6B8"/>
<path d="M10.0942 7.51953V20.0883H10.1158C12.4078 20.0883 14.2758 14.5139 14.3782 7.52113L10.0942 7.51953Z" fill="#093D77"/>
<path d="M10.0942 32.7764H12.6502C12.5894 25.8076 11.4694 20.2484 10.0942 20.21V32.7764Z" fill="#093D77"/>
<path d="M10.0942 19.749V20.9282L11.519 21.1186V19.7922L10.0942 19.749Z" fill="#14B6B8"/>
<path d="M17.4446 7.88333C17.6394 7.88333 17.7974 7.72538 17.7974 7.53053C17.7974 7.33569 17.6394 7.17773 17.4446 7.17773C17.2498 7.17773 17.0918 7.33569 17.0918 7.53053C17.0918 7.72538 17.2498 7.88333 17.4446 7.88333Z" fill="#FFB726"/>
<path d="M17.4727 7.50293H10.0903" stroke="#FFB726" stroke-width="4" stroke-miterlimit="10"/>
<path d="M11.4502 19.8076V23.3692" stroke="#FFB726" stroke-width="2" stroke-miterlimit="10"/>
<path d="M11.6001 23.6549C11.6001 23.3973 11.5345 23.1885 11.4545 23.1885C11.3745 23.1885 11.3089 23.3973 11.3081 23.6549H11.6001Z" fill="#14B6B8"/>
<path opacity="0.1" d="M28.1599 21.1676V19.8724H28.1815C25.3215 18.642 23.1559 13.6556 23.0215 7.56836H29.5815V32.8236H25.6735C25.7447 27.5132 26.7615 23.0452 28.1775 21.1676H28.1599Z" fill="#000D20"/>
<path d="M29.9094 7.51953V20.0883H29.875C26.355 20.0883 23.4814 14.5139 23.3262 7.52113L29.9094 7.51953Z" fill="#093D77"/>
<path d="M29.9094 32.7764H25.9814C26.075 25.8076 27.7958 20.2484 29.9094 20.21V32.7764Z" fill="#093D77"/>
<path d="M29.9098 7.51953V20.0883H29.8802C26.8266 20.0883 24.3354 14.5139 24.2002 7.52113L29.9098 7.51953Z" fill="#14B6B8"/>
<path d="M29.9098 32.7764H26.5034C26.5834 25.8076 28.077 20.2484 29.9098 20.21V32.7764Z" fill="#14B6B8"/>
<path d="M29.9095 7.51953V20.0883H29.8871C27.5959 20.0883 25.7271 14.5139 25.6255 7.52113L29.9095 7.51953Z" fill="#093D77"/>
<path d="M29.9096 32.7764H27.3496C27.4104 25.8076 28.5304 20.2484 29.9096 20.21V32.7764Z" fill="#093D77"/>
<path d="M29.9097 19.749V20.9282L28.4849 21.1186V19.7922L29.9097 19.749Z" fill="#14B6B8"/>
<path d="M22.551 7.88333C22.7459 7.88333 22.9038 7.72538 22.9038 7.53053C22.9038 7.33569 22.7459 7.17773 22.551 7.17773C22.3562 7.17773 22.1982 7.33569 22.1982 7.53053C22.1982 7.72538 22.3562 7.88333 22.551 7.88333Z" fill="#FFB726"/>
<path d="M22.5239 7.50293H29.9055" stroke="#FFB726" stroke-width="4" stroke-miterlimit="10"/>
<path d="M28.5454 19.8076V23.3692" stroke="#FFC015" stroke-width="3" stroke-miterlimit="10"/>
<path d="M28.3999 23.6549C28.3999 23.3973 28.4655 23.1885 28.5463 23.1885C28.6271 23.1885 28.6911 23.3973 28.6919 23.6549H28.3999Z" fill="#14B6B8"/>
</svg>
