<svg width="40" height="40" viewBox="0 0 40 40" fill="none" xmlns="http://www.w3.org/2000/svg">
<path d="M19.043 25.4561V28.6961L18.5686 28.4377L17.2886 27.7369V26.4169L18.5686 25.7161L19.043 25.4561Z" fill="#FFB243"/>
<path d="M19.0006 28.7344V30.9488L18.5686 30.7128L17.2886 30.012V29.6704L18.5686 28.9704L19.0006 28.7344Z" fill="#FFB243"/>
<path d="M18.5688 28.9704L19.0008 28.7344V30.9488L18.5688 30.7128V28.9704Z" fill="#D48818"/>
<path d="M19.0432 25.4561V28.6961L18.5688 28.4377V25.7161L19.0432 25.4561Z" fill="#D48818"/>
<path d="M22.2968 17.3613H18.5688V21.0893H22.2968V17.3613Z" fill="#FFA31D"/>
<path d="M18.9502 18.5576H17.3662V23.468H18.9502V18.5576Z" fill="#FFB243"/>
<path d="M18.9492 18.5576V25.3248L18.1572 24.68V18.5576H18.9492Z" fill="#D48818"/>
<path d="M18.5687 17.3599V18.5599H17.3687V19.1999C17.6247 19.2639 17.8895 19.3175 18.1599 19.3599C18.2951 19.3823 18.4327 19.4031 18.5711 19.4207C18.6975 19.4375 18.8239 19.4511 18.9519 19.4631C19.3423 19.5023 19.7423 19.5215 20.1519 19.5215C20.8726 19.5224 21.5919 19.4592 22.3015 19.3327V17.3599H18.5687Z" fill="#D48818"/>
<path d="M25.2864 11.6204C25.2361 11.5902 25.1945 11.5474 25.1657 11.4962C25.137 11.445 25.122 11.3872 25.1224 11.3284V11.322C25.1224 8.63725 22.8544 6.46045 20.0576 6.46045C17.2608 6.46045 14.9928 8.63965 14.9928 11.322V11.3284C14.9934 11.3868 14.979 11.4442 14.951 11.4954C14.923 11.5465 14.8823 11.5896 14.8328 11.6204C13.5528 12.3932 12.7632 13.4484 12.7632 14.6124C12.7632 16.9828 16.0312 18.9036 20.0616 18.9036C24.092 18.9036 27.3592 16.9836 27.3592 14.6124C27.3552 13.4484 26.5664 12.3932 25.2864 11.6204ZM16.4 10.4532C16.5064 8.81565 18.1016 7.51485 20.0544 7.51485C22.0072 7.51485 23.6016 8.81565 23.7088 10.4532H16.4Z" fill="#F79C0B"/>
<path d="M27.2438 13.7799C26.9686 12.9159 26.2438 12.2903 25.4974 11.7607C26.1535 12.2303 26.7894 12.7759 27.1126 13.4927C27.1538 13.5847 27.1896 13.679 27.2198 13.7751C27.5246 14.7495 27.1647 15.8463 26.4911 16.6135C25.8175 17.3807 24.8726 17.8607 23.9062 18.1919C21.8241 18.8946 19.5877 19.0054 17.4462 18.5119C16.5598 18.3087 15.6862 18.0039 14.9158 17.5247C13.9502 16.9255 12.9846 15.9863 12.8926 14.7879C12.8046 13.6375 13.5974 12.5751 14.5654 11.9479C14.7326 11.8399 14.915 11.7311 15.003 11.5527C15.0567 11.4189 15.0838 11.276 15.083 11.1319C15.1998 9.40789 16.2918 7.78629 17.8398 7.01429C19.3878 6.24229 21.3358 6.33109 22.7998 7.25429C23.0342 7.40229 23.4911 7.75669 23.4959 7.74869C23.2733 7.54994 23.0337 7.37111 22.7798 7.21429C22.0377 6.74341 21.1876 6.47012 20.3101 6.42037C19.4326 6.37063 18.557 6.54608 17.7664 6.93006C16.9758 7.31405 16.2966 7.8938 15.7932 8.61425C15.2898 9.33469 14.979 10.1719 14.8902 11.0463C14.8872 11.1934 14.8537 11.3383 14.7918 11.4719C14.6982 11.6319 14.5214 11.7263 14.3598 11.8231C13.5445 12.3199 12.9553 13.1152 12.7174 14.0399C12.4638 15.0311 12.915 16.0623 13.6014 16.7791C15.131 18.3791 17.6126 18.9551 19.7542 18.9871C21.1971 19.0085 22.6314 18.7625 23.9846 18.2615C24.9446 17.9047 25.879 17.4079 26.5446 16.6311C27.2102 15.8543 27.555 14.7535 27.2438 13.7799Z" fill="#FFA31D"/>
<path d="M23.4399 9.17178C23.2099 8.78819 22.9055 8.45444 22.5447 8.19018C21.8232 7.67328 20.9562 7.399 20.0687 7.4069C19.1812 7.41481 18.3192 7.70451 17.6071 8.23418C17.2602 8.50104 16.9706 8.83518 16.7559 9.21658C16.5393 9.59414 16.4172 10.0185 16.3999 10.4534C16.4456 10.027 16.5878 9.61657 16.8159 9.25338C17.0441 8.89697 17.3391 8.58809 17.6847 8.34378C18.3782 7.86577 19.2023 7.61346 20.0445 7.62134C20.8867 7.62922 21.7059 7.89688 22.3903 8.38778C23.0175 8.85338 23.4791 9.55578 23.5727 10.3286C23.0167 10.3286 16.3999 10.451 16.3999 10.451L23.8399 10.575C23.8399 10.575 23.6655 9.55738 23.4399 9.17178Z" fill="#FFA31D"/>
<path d="M21.3438 21.0889V32.2705L20.0574 33.5745L18.9502 32.2705V21.0889H21.3438Z" fill="#FFB243"/>
<path d="M21.344 21.0889V32.2705L20.0576 33.5745V21.0889H21.344Z" fill="#FFA31D"/>
<path d="M24.8388 14.7614C24.8388 16.375 22.6636 17.683 19.9796 17.683C17.2956 17.683 15.1196 16.375 15.1196 14.7614C15.1196 13.1478 17.2956 11.8398 19.9796 11.8398C22.6636 11.8398 24.8388 13.1478 24.8388 14.7614Z" fill="#E58505"/>
<path d="M24.9157 14.4397C24.9157 16.0541 22.7413 17.3613 20.0565 17.3613C20.0373 17.3613 20.0173 17.3613 19.9981 17.3613C19.7944 17.3613 19.5938 17.3527 19.3965 17.3357C19.3314 17.3309 19.2666 17.3245 19.2021 17.3165C18.8382 17.278 18.4777 17.2122 18.1237 17.1197C18.0205 17.0941 17.9189 17.0645 17.8197 17.0325C17.3412 16.8881 16.8852 16.6772 16.4653 16.4061C15.6797 15.8885 15.1997 15.1997 15.1997 14.4397C15.1997 12.8253 17.3757 11.5181 20.0589 11.5181C20.3101 11.5181 20.5573 11.5301 20.7981 11.5517C21.3479 11.6004 21.8904 11.7118 22.4149 11.8837C22.5141 11.9157 22.6093 11.9517 22.7037 11.9885C23.0057 12.1047 23.2963 12.2488 23.5717 12.4189L23.7037 12.5069C23.8333 12.5942 23.9573 12.6896 24.0749 12.7925C24.6045 13.2629 24.9157 13.8293 24.9157 14.4397Z" fill="#FFB243"/>
<g style="mix-blend-mode:overlay" opacity="0.47">
<path d="M22.4125 11.8838L17.8197 17.0334C17.3412 16.889 16.8853 16.6781 16.4653 16.407L20.7997 11.5518C21.3482 11.6008 21.8893 11.7122 22.4125 11.8838Z" fill="#F9F5FF"/>
</g>
<g style="mix-blend-mode:overlay" opacity="0.47">
<path d="M23.5696 12.419L19.2 17.315C18.837 17.2769 18.4773 17.2117 18.124 17.1198L22.7016 11.9878C23.0037 12.1043 23.2943 12.2487 23.5696 12.419Z" fill="#F9F5FF"/>
</g>
<g style="mix-blend-mode:overlay" opacity="0.47">
<path d="M24.0728 12.7929L20 17.3601C19.7963 17.3601 19.5958 17.3516 19.3984 17.3345L23.7032 12.5073C23.8323 12.5947 23.9557 12.6901 24.0728 12.7929Z" fill="#F9F5FF"/>
</g>
<path d="M21.344 21.0889H18.876V21.2849H21.344V21.0889Z" fill="#CC7A05"/>
</svg>
