<svg width="40" height="40" viewBox="0 0 40 40" fill="none" xmlns="http://www.w3.org/2000/svg">
<path d="M21.344 8.12067C20.1728 7.06787 18.1512 6.47987 15.892 9.31667C13.6328 12.1535 4.828 27.2583 6.132 30.5471C7.436 33.8359 30.0456 33.2383 33.3688 30.0991C36.692 26.9599 26.0592 12.3567 21.344 8.12067Z" fill="#FFA31D"/>
<path d="M19.1766 9.11133C16.767 9.20013 8.06136 25.6969 7.87256 29.6801C13.1862 31.7793 27.1654 31.1257 32.091 28.7497C32.599 24.3513 22.1462 10.0593 19.1766 9.11133Z" fill="#093D77"/>
<path d="M17.5414 31.12C13.9774 30.996 10.2982 31.1312 7.66142 29.8056C7.49422 26.2344 16.7198 8.72003 19.1582 8.88643C22.3414 9.75123 32.2782 23.7392 32.3662 28.3848C32.1846 30.548 20.299 31.1864 17.5414 31.12ZM8.09502 29.5608C13.875 31.444 26.483 30.9584 31.8974 28.6008C31.9222 23.8008 22.3054 10.8048 19.195 9.33923C16.8126 9.66083 8.48382 25.48 8.09502 29.5608ZM31.9566 28.5696L32.0854 28.7392L32.0806 28.5296C32.0363 28.5308 31.9932 28.5446 31.9566 28.5696Z" fill="white"/>
<path d="M18.2622 15.5999L16.3198 19.8575L19.5342 20.0815L17.1422 23.6703L19.4622 24.1183L16.6958 28.6039L23.4238 23.9687L20.2846 22.1751L23.499 18.0631C18.8438 17.8087 19.6806 18.4863 21.179 14.4751L18.2622 15.5999Z" fill="#FFA31D"/>
</svg>
