<svg width="40" height="40" viewBox="0 0 40 40" fill="none" xmlns="http://www.w3.org/2000/svg">
<path d="M24.8455 16.5225H14.9751C14.9751 16.5225 16.6719 19.1465 15.3151 22.6753H25.1847C25.1847 22.6753 23.4879 20.0521 24.8455 16.5225Z" fill="#FFD18E"/>
<path d="M13.0688 9.49609C13.0688 16.0425 16.5536 19.5025 20 19.5993C23.176 19.5105 26.9312 16.3841 26.9312 9.49609H13.0688Z" fill="#FFC268"/>
<path d="M10.6074 7.44922C10.6074 14.8892 15.3274 18.8236 20.0002 18.934C24.3042 18.8324 29.393 15.2804 29.393 7.44922H10.6074Z" fill="#FFD18E"/>
<path d="M20.0002 11.6398C17.4874 11.3886 16.4722 11.8382 16.4722 11.8382C16.6922 13.4246 20.0002 14.0998 20.0002 14.0998C20.0002 14.0998 23.3082 13.4246 23.5282 11.8382C23.5282 11.8398 22.513 11.3886 20.0002 11.6398Z" fill="#A00505"/>
<path d="M19.9999 11.8891C19.9999 11.8891 17.8095 11.6419 16.8447 11.7483V12.1691C17.2967 12.3739 18.6191 12.7691 19.9999 12.7691C21.3807 12.7691 22.7031 12.3739 23.1551 12.1691V11.7483C22.1903 11.6419 19.9999 11.8891 19.9999 11.8891Z" fill="white"/>
<path d="M23.1553 11.748V12.1688C23.2617 12.1208 23.3193 12.0888 23.3193 12.0888L23.5281 11.84C23.4103 11.7872 23.2841 11.7561 23.1553 11.748Z" fill="#474747"/>
<path d="M16.845 11.748V12.1688C16.7394 12.1208 16.681 12.0888 16.681 12.0888L16.4722 11.84C16.5899 11.7873 16.7162 11.7562 16.845 11.748Z" fill="#474747"/>
<path d="M20.9193 11.0469L20.0001 11.3837L19.0809 11.0469C18.5857 10.7901 16.3481 11.7669 16.3481 11.7669L16.5193 11.8693C16.8945 11.7501 18.9273 12.1005 18.9273 12.1005C19.2353 12.2797 20.0001 12.2797 20.0001 12.2797C20.0001 12.2797 20.7649 12.2797 21.0729 12.1005C21.0729 12.1005 23.1057 11.7501 23.4809 11.8693L23.6521 11.7669C23.6521 11.7669 21.4145 10.7901 20.9193 11.0469Z" fill="#E21010"/>
<path d="M20.0001 13.0724C18.3577 12.7364 17.1265 13.178 17.1265 13.178L20.0001 13.898L22.8737 13.178C22.8737 13.178 21.6425 12.7364 20.0001 13.0724Z" fill="#EA5E5E"/>
<path d="M23.4809 11.8661C23.4809 11.8661 22.5489 13.4893 20.0001 13.4893C17.4513 13.4893 16.5193 11.8661 16.5193 11.8661L16.3481 11.7637C17.1337 14.9237 20.0001 14.7869 20.0001 14.7869C20.0001 14.7869 22.8665 14.9237 23.6521 11.7637L23.4809 11.8661Z" fill="#D10000"/>
<path d="M21.6006 18.1436H19.5942V20.0892H21.6006V18.1436Z" fill="#B7B6C0"/>
<path d="M20.5519 20.0889H19.4487V24.6449H20.5519V20.0889Z" fill="#363636"/>
<path d="M21.2926 18.1431H19.9014V16.8679C19.9013 16.7159 19.9406 16.5664 20.0154 16.434C20.0903 16.3017 20.1982 16.191 20.3286 16.1127L20.8526 15.7983C20.8967 15.7718 20.947 15.7575 20.9985 15.7569C21.05 15.7562 21.1007 15.7693 21.1455 15.7946C21.1902 15.82 21.2274 15.8569 21.2533 15.9014C21.2791 15.9459 21.2927 15.9965 21.2926 16.0479V18.1431Z" fill="#D10000"/>
<path d="M21.7462 20.0889H20.5518V24.6449H21.7462V20.0889Z" fill="#222323"/>
<path d="M20.4214 18.1436H19.9014V20.0892H20.4214V18.1436Z" fill="#D9D8EF"/>
<path d="M20.5599 31.2846L20.4999 32.551H15.7511L15.7703 31.363C15.7703 31.363 14.7815 25.683 15.3951 23.5854L16.9383 21.447C17.3489 21.4532 17.7596 21.4385 18.1687 21.403C18.5165 21.3771 18.8615 21.3214 19.1999 21.2366C19.4495 21.1702 19.5855 21.1926 19.6367 21.531C19.6371 21.5388 19.6371 21.5465 19.6367 21.5542C19.7543 22.4342 18.8887 22.7958 17.7479 22.771C17.7479 22.771 17.4839 23.5454 17.4279 23.9614C17.4279 23.9614 18.2015 24.3766 18.4199 24.5742L20.5383 22.8534C20.5383 22.8534 20.6983 21.843 20.9135 21.5862C20.7743 20.9686 20.8983 20.499 21.1239 20.2614C21.3975 19.9734 21.8199 20.0262 22.1079 20.5694C22.2727 20.8774 22.3935 21.3438 22.4199 21.995C23.0375 22.2094 23.6495 22.6542 23.7711 23.2966C24.3991 23.7038 24.6103 24.267 24.5407 24.6934C25.7391 26.2518 22.5527 30.2398 20.5599 31.2846Z" fill="#FFD18E"/>
<path d="M19.6393 21.5313C19.4394 21.6622 19.2038 21.7279 18.9649 21.7193C18.5929 21.7193 18.2785 21.5865 18.1689 21.4033C18.5168 21.3774 18.8618 21.3217 19.2001 21.2369C19.4521 21.1705 19.5881 21.1929 19.6393 21.5313Z" fill="#D10000"/>
<path d="M22.0688 24.6449C23.08 23.2697 22.4464 22.0401 22.424 21.9961C22.5797 22.0504 22.7304 22.1181 22.8744 22.1985C23.2896 24.0353 22.0688 24.6449 22.0688 24.6449Z" fill="#FFC268"/>
<path d="M23.312 25.6939C24.468 24.0939 23.784 23.3379 23.7752 23.2939C23.8936 23.3698 24.0043 23.4572 24.1056 23.5547V23.5603C24.5448 24.6939 23.312 25.6939 23.312 25.6939Z" fill="#FFC268"/>
<path d="M24.4663 24.0947C24.5376 24.2801 24.565 24.4794 24.5463 24.6771C24.5541 24.4798 24.527 24.2826 24.4663 24.0947Z" fill="#F79E46"/>
<path d="M24.7457 25.0961C24.5777 25.7361 24.1153 26.2305 24.0801 26.2673C24.4185 25.5889 24.5321 25.0729 24.5457 24.6953C24.6369 24.8152 24.7048 24.9511 24.7457 25.0961Z" fill="#FFC268"/>
<path d="M21.8825 20.9907C21.5937 21.0995 21.2529 20.5203 21.1489 20.0891C21.3569 19.8707 21.7089 19.7387 21.9369 20.0891C22.2401 20.5419 22.0849 20.9139 21.8825 20.9907Z" fill="#D10000"/>
</svg>
