<svg width="40" height="40" viewBox="0 0 40 40" fill="none" xmlns="http://www.w3.org/2000/svg">
<path d="M19.6153 11.1631L18.2217 14.2399L19.4497 14.7439L20.8137 12.5991L19.6153 11.1631Z" fill="#093D77"/>
<path d="M18.6849 14.4307L18.1577 15.8875L18.2673 15.9379L19.0449 14.5779L18.6849 14.4307Z" fill="#6A637C"/>
<path d="M18.1599 15.8867C18.1599 15.8867 17.6119 16.4387 17.3735 16.8531C17.4541 16.951 17.5565 17.0285 17.6725 17.0795C17.7886 17.1305 17.915 17.1535 18.0415 17.1467C18.175 16.7565 18.2518 16.3492 18.2695 15.9371L18.1599 15.8867Z" fill="#093D77"/>
<path d="M3.85303 30.1602C3.85303 30.1602 5.32583 32.8802 8.02663 33.3266C8.02663 33.3266 9.13863 29.9194 9.84423 29.4298C10.5498 28.9402 11.0922 29.4754 13.5586 27.1706C13.5586 27.1706 15.357 26.7706 15.9522 26.3866C16.5474 26.0026 18.8794 26.4314 19.0242 25.8442C19.169 25.257 18.8138 24.5834 18.0922 24.5322C17.3706 24.481 14.8666 24.9098 14.4922 24.7298C14.1178 24.5498 12.9666 23.0098 14.4922 22.0482C16.0178 21.0866 17.2586 21.2658 17.789 21.2482C18.3194 21.2306 21.789 22.2882 22.7938 21.193C22.7938 21.193 22.9458 20.6394 21.5706 20.4986C20.4954 20.389 17.9514 19.6986 17.9514 19.6986C17.9514 19.6986 21.2034 18.8106 22.1378 18.0674C23.0722 17.3242 22.3034 17.0562 22.0498 17.0762C21.7962 17.0962 21.0146 17.3386 21.0146 17.3386C21.0233 17.2698 21.0045 17.2002 20.9622 17.1451C20.92 17.09 20.8578 17.0538 20.789 17.0442C20.529 16.9882 18.4394 18.0194 18.4394 18.0194L18.1114 18.0586C18.1114 18.0586 18.5866 17.5298 18.5154 17.3106C18.4442 17.0914 18.2034 16.8514 18.009 16.977C17.8146 17.1026 16.4002 18.3442 15.781 18.6882C15.1618 19.0322 12.7666 19.5154 12.1938 19.9682C11.621 20.421 9.00983 23.3682 8.30903 23.8594C7.60823 24.3506 5.31143 28.8802 3.85303 30.1602Z" fill="#FFD18E"/>
<path d="M33.2722 19.9342C33.2722 19.9342 35.765 18.4454 36.1474 15.2686C36.1474 15.2686 32.6658 13.955 31.7314 12.7366C30.797 11.5182 30.4514 9.24858 29.6514 8.79498C29.6514 8.79498 29.1058 8.02858 28.4514 8.17178C27.797 8.31498 27.5858 7.57818 27.1298 7.41018C26.6738 7.24218 26.4234 7.54618 25.9946 7.29098C25.5658 7.03578 25.6562 6.73898 25.241 6.67738C24.8258 6.61578 23.1538 7.36858 22.201 7.92458C21.2482 8.48058 18.9602 11.6342 18.9602 11.6342C18.9602 11.6342 18.065 11.7262 18.097 12.3342C18.129 12.9422 18.3938 13.1862 19.0418 13.3838C19.6898 13.5814 20.5746 13.5382 20.5746 13.5382C20.5746 13.5382 20.389 14.4854 20.5042 14.6582C20.6194 14.831 21.3362 14.927 21.6042 14.6206C21.8722 14.3142 21.9882 13.6302 21.9882 13.6302C21.9882 13.6302 23.053 13.7494 24.7202 14.8798C26.3874 16.0102 28.2754 16.9214 29.4282 16.795C29.4282 16.7934 32.3898 18.467 33.2722 19.9342Z" fill="#FFD18E"/>
<path d="M17.879 19.6005C17.159 19.4245 16.4278 19.6101 15.7094 19.6997C15.2966 19.7517 14.8806 19.7557 14.4654 19.7709C14.0502 19.7861 13.6278 19.8109 13.227 19.9309C12.7942 20.0573 12.3918 20.3077 12.179 20.7165C12.1502 20.7701 12.2398 20.8029 12.2678 20.7493C12.6622 19.9933 13.6398 19.9029 14.3934 19.8693C14.7934 19.8525 15.2014 19.8525 15.603 19.8085C15.955 19.7709 16.303 19.7045 16.6542 19.6613C17.0502 19.6133 17.4542 19.5949 17.8454 19.6909C17.9046 19.7029 17.9382 19.6141 17.879 19.6005Z" fill="#FF9E29"/>
<path d="M18.1008 18.0076C17.4033 18.2413 16.6911 18.4284 15.9688 18.5676C15.9088 18.5788 15.924 18.6732 15.984 18.6612C16.7142 18.521 17.4342 18.332 18.1392 18.0956C18.1976 18.0748 18.16 17.9884 18.1008 18.0076Z" fill="#FF9E29"/>
<path d="M20.889 17.3734C20.1535 17.5222 19.4253 17.6982 18.7042 17.9014C18.6458 17.9174 18.6602 18.0118 18.7194 17.995C19.4399 17.7918 20.1682 17.6161 20.9042 17.4678C20.9642 17.4558 20.949 17.3598 20.889 17.3734Z" fill="#FF9E29"/>
<path d="M23.6335 9.24732C22.7879 9.68092 21.9055 10.1401 21.3343 10.9273C21.187 11.1288 21.068 11.3495 20.9807 11.5833C20.7855 11.5833 20.5919 11.5705 20.4031 11.5609C19.9575 11.5385 19.5095 11.5161 19.0655 11.5801C19.0538 11.5831 19.0438 11.5903 19.0372 11.6003C19.0306 11.6103 19.028 11.6224 19.0299 11.6343C19.0318 11.6461 19.0381 11.6568 19.0475 11.6643C19.0569 11.6717 19.0687 11.6754 19.0807 11.6745C19.8975 11.5561 20.7191 11.7369 21.5375 11.6577C21.9282 11.6301 22.3078 11.5156 22.6487 11.3225C22.9639 11.1279 23.2205 10.8514 23.3911 10.5225C23.5858 10.1427 23.6916 9.72363 23.7007 9.29692C23.7017 9.28849 23.7004 9.27995 23.6971 9.27215C23.6937 9.26435 23.6883 9.25759 23.6815 9.25254C23.6747 9.2475 23.6666 9.24436 23.6582 9.24344C23.6498 9.24253 23.6412 9.24387 23.6335 9.24732ZM22.6735 11.1953C22.2047 11.5105 21.6415 11.5825 21.0823 11.5841C21.4119 10.7345 22.1679 10.1569 22.9383 9.72252C23.1559 9.59932 23.3783 9.48252 23.6007 9.37052C23.5615 10.0713 23.2727 10.7929 22.6743 11.1953H22.6735Z" fill="#FF9E29"/>
<path d="M21.9559 13.5998C21.4993 13.5436 21.0399 13.5129 20.5799 13.5078C20.5191 13.5078 20.5095 13.6014 20.5711 13.6022C21.0308 13.6076 21.4899 13.6383 21.9463 13.6942C21.9525 13.6948 21.9587 13.6942 21.9647 13.6925C21.9707 13.6907 21.9762 13.6877 21.981 13.6838C21.9859 13.6798 21.9899 13.675 21.9928 13.6695C21.9958 13.664 21.9976 13.658 21.9983 13.6518C21.9989 13.6456 21.9983 13.6394 21.9965 13.6334C21.9947 13.6274 21.9918 13.6219 21.9878 13.617C21.9839 13.6122 21.979 13.6082 21.9736 13.6052C21.9681 13.6023 21.9621 13.6004 21.9559 13.5998Z" fill="#C6583E"/>
<path d="M22.708 20.7577C22.804 20.8185 22.948 20.8961 22.94 21.0281C22.9304 21.1753 22.764 21.1769 22.6544 21.1705C22.3788 21.1507 22.1084 21.085 21.8544 20.9761C21.6672 20.8961 21.3032 20.7529 21.4216 20.4825C21.4259 20.4736 21.4329 20.4663 21.4416 20.4617C21.4608 20.4341 21.4891 20.4143 21.5216 20.4057C21.5941 20.3935 21.6681 20.3948 21.74 20.4097C21.8143 20.4183 21.888 20.4308 21.9608 20.4473C22.2257 20.5077 22.4784 20.6126 22.708 20.7577Z" fill="#093D77"/>
<path d="M22.5728 17.2879C22.5416 17.3783 22.42 17.4207 22.3392 17.4519C22.108 17.533 21.8641 17.5717 21.6192 17.5663C21.4064 17.5663 21.1288 17.5959 20.9736 17.4191C20.9652 17.4174 20.9574 17.4132 20.9513 17.4072C20.9451 17.4012 20.9408 17.3936 20.9388 17.3852C20.9368 17.3768 20.9372 17.3681 20.9399 17.3599C20.9427 17.3518 20.9477 17.3446 20.9544 17.3391C21.1808 17.1743 21.4776 17.1039 21.748 17.0527C21.9718 16.9998 22.2062 17.0123 22.4232 17.0887C22.5064 17.1199 22.6096 17.1855 22.5728 17.2879Z" fill="#093D77"/>
<path d="M18.5265 24.885C18.8577 24.9562 19.2465 25.121 19.3049 25.4994C19.3657 25.9066 18.9313 26.0746 18.6073 26.1434C18.2649 26.2146 17.8073 26.241 17.6017 25.8986C17.5271 25.7603 17.4949 25.603 17.5091 25.4465C17.5234 25.29 17.5834 25.1412 17.6817 25.0186C17.7283 24.9517 17.7937 24.9002 17.8697 24.8706C17.9731 24.8386 18.082 24.828 18.1897 24.8394C18.3029 24.846 18.4155 24.8612 18.5265 24.885Z" fill="#093D77"/>
<path d="M18.4176 16.9062C18.4176 17.0006 18.3296 17.099 18.2744 17.1694C18.1384 17.341 17.9702 17.4845 17.7792 17.5918C17.6272 17.6782 17.3944 17.7598 17.2688 17.5918L17.2608 17.5822C17.2525 17.5724 17.2472 17.5604 17.2453 17.5477C17.2435 17.535 17.2453 17.522 17.2504 17.5102C17.268 17.4654 17.3232 17.4302 17.36 17.4046C17.4672 17.3166 17.5768 17.2326 17.6888 17.151C17.788 17.079 17.8904 17.0094 17.9944 16.9438C18.0432 16.9118 18.0928 16.8814 18.1424 16.851C18.1817 16.8226 18.2251 16.8004 18.2712 16.7854C18.2891 16.7812 18.3077 16.7812 18.3256 16.7853C18.3435 16.7895 18.3602 16.7978 18.3744 16.8095C18.3886 16.8212 18.3998 16.836 18.4073 16.8528C18.4148 16.8695 18.4184 16.8878 18.4176 16.9062Z" fill="#093D77"/>
<path d="M20.8298 17.2589C20.6973 17.3555 20.5452 17.4219 20.3842 17.4533C20.3139 17.4664 20.2413 17.4594 20.1748 17.433C20.1082 17.4067 20.0505 17.3621 20.0082 17.3045C20.001 17.2931 19.9984 17.2793 20.001 17.2661C20.0001 17.2565 20.002 17.247 20.0064 17.2385C20.0108 17.23 20.0175 17.2229 20.0258 17.2181C20.1893 17.1218 20.3593 17.037 20.5346 16.9645C20.6103 16.9348 20.6881 16.9108 20.7674 16.8925C20.802 16.8794 20.8393 16.875 20.876 16.8798C20.9127 16.8845 20.9476 16.8982 20.9778 16.9197C21.1082 17.0405 20.9218 17.1949 20.8298 17.2589Z" fill="#093D77"/>
<path d="M20.6496 13.5629C20.7366 13.7883 20.7991 14.0225 20.836 14.2613C20.8608 14.4533 20.8688 14.6901 20.7768 14.8677C20.7597 14.9081 20.7309 14.9425 20.6941 14.9663C20.6573 14.9902 20.6142 15.0024 20.5704 15.0013C20.5233 14.9932 20.4797 14.9712 20.4452 14.9381C20.4107 14.905 20.3869 14.8624 20.3768 14.8157C20.3519 14.7153 20.3406 14.612 20.3432 14.5085C20.34 14.3955 20.3456 14.2823 20.36 14.1701C20.3875 13.954 20.4445 13.7427 20.5296 13.5421C20.5332 13.5339 20.539 13.5269 20.5463 13.5217C20.5537 13.5166 20.5623 13.5135 20.5712 13.5128C20.5802 13.5122 20.5891 13.514 20.5972 13.518C20.6052 13.522 20.6119 13.5282 20.6168 13.5357C20.6243 13.5365 20.6314 13.5395 20.6373 13.5444C20.6431 13.5492 20.6474 13.5557 20.6496 13.5629Z" fill="#093D77"/>
<path d="M18.9138 12.0333C18.9392 12.1199 18.946 12.211 18.9338 12.3005C18.9273 12.4956 18.8833 12.6876 18.8042 12.8661C18.7718 12.9541 18.7149 13.031 18.6402 13.0877C18.6024 13.1078 18.5608 13.1198 18.5181 13.123C18.4754 13.1262 18.4325 13.1204 18.3922 13.1061C18.1923 13.0442 18.0033 12.9513 17.8322 12.8309C17.8249 12.8267 17.8192 12.8204 17.8158 12.8128C17.8123 12.8051 17.8113 12.7967 17.813 12.7885C17.7844 12.4418 17.8613 12.0946 18.0338 11.7925C18.0365 11.7849 18.0415 11.7783 18.0481 11.7736C18.0546 11.7688 18.0625 11.7662 18.0706 11.7661C18.2886 11.7539 18.5067 11.788 18.7106 11.8661C18.754 11.8787 18.7944 11.9 18.8294 11.9288C18.8643 11.9575 18.893 11.9931 18.9138 12.0333Z" fill="#093D77"/>
</svg>
