<svg width="40" height="40" viewBox="0 0 40 40" fill="none" xmlns="http://www.w3.org/2000/svg">
<path d="M33.3698 8.10059V24.1118C33.3698 26.4372 32.446 28.6674 30.8017 30.3117C29.1574 31.956 26.9272 32.8798 24.6018 32.8798C22.2764 32.8798 20.0462 31.956 18.4019 30.3117C16.7576 28.6674 15.8338 26.4372 15.8338 24.1118V17.1566C15.8323 16.3194 15.4989 15.5169 14.9067 14.9252C14.3145 14.3334 13.5118 14.0006 12.6746 13.9998H6.7666V8.38859H12.6746C14.9988 8.39197 17.2267 9.31691 18.8699 10.9606C20.5131 12.6042 21.4375 14.8324 21.4402 17.1566V24.1118C21.4402 24.9499 21.7731 25.7536 22.3657 26.3462C22.9584 26.9389 23.7621 27.2718 24.6002 27.2718C25.4383 27.2718 26.242 26.9389 26.8347 26.3462C27.4273 25.7536 27.7602 24.9499 27.7602 24.1118V8.10059H33.3698Z" fill="#14B6B8"/>
<path d="M33.3698 8.10059V24.1118C33.3698 26.4372 32.446 28.6674 30.8017 30.3117C29.1574 31.956 26.9272 32.8798 24.6018 32.8798C22.2764 32.8798 20.0462 31.956 18.4019 30.3117C16.7576 28.6674 15.8338 26.4372 15.8338 24.1118V17.1566C15.8323 16.3194 15.4989 15.5169 14.9067 14.9252C14.3145 14.3334 13.5118 14.0006 12.6746 13.9998H6.7666V11.1926H12.6746C14.2561 11.1939 15.7725 11.8226 16.8909 12.9407C18.0094 14.0589 18.6385 15.5751 18.6402 17.1566V24.1118C18.6402 25.6935 19.2686 27.2105 20.387 28.329C21.5055 29.4474 23.0225 30.0758 24.6042 30.0758C26.186 30.0758 27.7029 29.4474 28.8214 28.329C29.9399 27.2105 30.5682 25.6935 30.5682 24.1118V8.10059H33.3698Z" fill="#093D77"/>
<path d="M7.74502 7.54248H5.78662V14.8409H7.74502V7.54248Z" fill="#F1C40F"/>
<path d="M12.9145 7.54248H10.9561V14.8409H12.9145V7.54248Z" fill="#F1C40F"/>
<path d="M7.74502 11.6577H5.78662V14.8409H7.74502V11.6577Z" fill="#FFA31D"/>
<path d="M6.52502 7.54248H5.78662V14.8409H6.52502V7.54248Z" fill="#F1C40F"/>
<path d="M6.52502 11.6577H5.78662V14.8409H6.52502V11.6577Z" fill="#FFA31D"/>
<path d="M12.9145 11.6577H10.9561V14.8409H12.9145V11.6577Z" fill="#FFA31D"/>
<path d="M22.3145 17.0234H15.0161V18.9818H22.3145V17.0234Z" fill="#F1C40F"/>
<path d="M17.9161 17.0234H15.0161V18.9818H17.9161V17.0234Z" fill="#FFA31D"/>
<path d="M34.2134 7.12012H26.915V9.07852H34.2134V7.12012Z" fill="#F1C40F"/>
<path d="M34.2136 7.12012H31.124V9.07852H34.2136V7.12012Z" fill="#FFA31D"/>
<path d="M34.2134 7.12012H26.915V7.81852H34.2134V7.12012Z" fill="#F1C40F"/>
<path d="M34.2136 7.12012H31.124V7.81852H34.2136V7.12012Z" fill="#F39C12"/>
</svg>
