<svg width="40" height="40" viewBox="0 0 40 40" fill="none" xmlns="http://www.w3.org/2000/svg">
<path d="M25.9824 9.58398H10.2648C9.44654 9.58398 8.7832 10.2473 8.7832 11.0656V20.3032C8.7832 21.1214 9.44654 21.7848 10.2648 21.7848H25.9824C26.8007 21.7848 27.464 21.1214 27.464 20.3032V11.0656C27.464 10.2473 26.8007 9.58398 25.9824 9.58398Z" fill="#093D77"/>
<path d="M26.4464 10.9922V20.3666C26.4464 20.5962 26.2392 20.7826 25.9832 20.7826H10.264C10.008 20.7826 9.80078 20.5962 9.80078 20.3666V10.9922C9.80078 10.7626 10.008 10.5762 10.264 10.5762H25.9832C26.24 10.5762 26.4464 10.7626 26.4464 10.9922Z" fill="#FFE0B4"/>
<path d="M26.4464 19.5722V20.3666C26.4464 20.5962 26.2392 20.7826 25.9832 20.7826H10.264C10.008 20.7826 9.80078 20.5962 9.80078 20.3666V10.9922C9.80078 10.7626 10.008 10.5762 10.264 10.5762H11.4248L26.4464 19.5722Z" fill="#FFEDD2"/>
<path d="M27.2919 29.2073H8.95509C7.94149 29.2073 7.24149 28.2545 7.38869 27.7441L8.90869 23.0065C9.01429 22.6401 9.77269 22.3481 10.6039 22.3481H25.6463C26.4783 22.3481 27.2367 22.6401 27.3423 23.0065L28.8623 27.7441C29.0047 28.2545 28.3055 29.2073 27.2919 29.2073Z" fill="#14B6B8"/>
<path d="M27.2922 28.452H8.95542C7.94102 28.452 7.24262 28.0272 7.38902 27.5168L8.90902 22.2512C9.01462 21.8848 9.77302 21.5928 10.605 21.5928H25.6474C26.4786 21.5928 27.237 21.8848 27.3426 22.2512L28.8626 27.5168C29.0058 28.0272 28.3058 28.452 27.2922 28.452Z" fill="#093D77"/>
<path d="M25.4591 27.5856H10.7879C9.97671 27.5856 9.39031 27.252 9.47671 26.848L10.4079 22.5032C10.4759 22.188 11.0967 21.936 11.7967 21.936H24.4503C25.1503 21.936 25.7711 22.188 25.8383 22.5032L26.7695 26.848C26.8559 27.252 26.2703 27.5856 25.4591 27.5856Z" fill="#14B6B8"/>
<path d="M27.0832 22.6855H9.02002V22.8615H27.0832V22.6855Z" fill="#093D77"/>
<path d="M27.0832 23.8936H9.02002V24.0696H27.0832V23.8936Z" fill="#093D77"/>
<path d="M27.0832 25.1016H9.02002V25.2776H27.0832V25.1016Z" fill="#093D77"/>
<path d="M27.0832 26.3096H9.02002V26.4856H27.0832V26.3096Z" fill="#093D77"/>
<path d="M19.215 28.452H18.9198L18.8174 21.5928H19.0782L19.215 28.452Z" fill="#093D77"/>
<path d="M17.2858 21.5928L17.1842 28.452H16.8882L17.0242 21.5928H17.2858Z" fill="#093D77"/>
<path d="M15.492 21.5928L15.1528 28.452H14.856L15.2304 21.5928H15.492Z" fill="#093D77"/>
<path d="M13.6986 21.5928L13.1218 28.452H12.8242L13.437 21.5928H13.6986Z" fill="#093D77"/>
<path d="M11.9047 21.5928L11.0895 28.452H10.7935L11.6431 21.5928H11.9047Z" fill="#093D77"/>
<path d="M25.3094 28.452H25.0134L24.1982 21.5928H24.4598L25.3094 28.452Z" fill="#093D77"/>
<path d="M23.2784 28.452H22.9816L22.4048 21.5928H22.6664L23.2784 28.452Z" fill="#093D77"/>
<path d="M21.2464 28.452H20.9496L20.6104 21.5928H20.872L21.2464 28.452Z" fill="#093D77"/>
<path d="M20.4607 27.5856H15.7863C15.5271 27.5856 15.3487 27.4304 15.3863 27.244L15.7727 25.324C15.7999 25.1896 15.9936 25.084 16.2056 25.084H20.0456C20.2576 25.084 20.4511 25.1904 20.4776 25.324L20.8639 27.244C20.8975 27.4304 20.7199 27.5856 20.4607 27.5856Z" fill="#94BDEB"/>
<path d="M27.3249 20.6528H27.0521C26.9748 20.6528 26.9121 20.7155 26.9121 20.7928V21.4904C26.9121 21.5678 26.9748 21.6304 27.0521 21.6304H27.3249C27.4022 21.6304 27.4649 21.5678 27.4649 21.4904V20.7928C27.4649 20.7155 27.4022 20.6528 27.3249 20.6528Z" fill="#D1D6D2"/>
<path d="M27.3249 21.8823H27.0521C26.9748 21.8823 26.9121 21.945 26.9121 22.0223V22.7199C26.9121 22.7972 26.9748 22.8599 27.0521 22.8599H27.3249C27.4022 22.8599 27.4649 22.7972 27.4649 22.7199V22.0223C27.4649 21.945 27.4022 21.8823 27.3249 21.8823Z" fill="#D1D6D2"/>
<path d="M31.7646 19.5718H27.639C27.316 19.5718 27.0542 19.8336 27.0542 20.1566V29.2694C27.0542 29.5924 27.316 29.8542 27.639 29.8542H31.7646C32.0876 29.8542 32.3494 29.5924 32.3494 29.2694V20.1566C32.3494 19.8336 32.0876 19.5718 31.7646 19.5718Z" fill="#94BDEB"/>
<path d="M27.8063 20.6538H31.5999C31.7059 20.6538 31.8077 20.6959 31.8827 20.771C31.9577 20.846 31.9999 20.9477 31.9999 21.0538V28.0242C31.9999 28.1303 31.9577 28.232 31.8827 28.3071C31.8077 28.3821 31.7059 28.4242 31.5999 28.4242H27.8063C27.7002 28.4242 27.5984 28.3821 27.5234 28.3071C27.4484 28.232 27.4063 28.1303 27.4063 28.0242V21.0562C27.4059 21.0035 27.4161 20.9512 27.436 20.9024C27.456 20.8536 27.4854 20.8092 27.5226 20.7718C27.5597 20.7344 27.6039 20.7047 27.6526 20.6845C27.7013 20.6642 27.7535 20.6538 27.8063 20.6538Z" fill="#FFE0B4"/>
<path d="M29.9198 20.1342H28.4798C28.4611 20.1361 28.4438 20.1449 28.4312 20.1589C28.4186 20.1728 28.4116 20.191 28.4116 20.2098C28.4116 20.2286 28.4186 20.2467 28.4312 20.2607C28.4438 20.2747 28.4611 20.2835 28.4798 20.2854H29.9198C29.9304 20.2865 29.9411 20.2853 29.9512 20.282C29.9613 20.2787 29.9706 20.2733 29.9785 20.2662C29.9864 20.2591 29.9927 20.2504 29.9971 20.2407C30.0014 20.2309 30.0036 20.2204 30.0036 20.2098C30.0036 20.1992 30.0014 20.1886 29.9971 20.1789C29.9927 20.1692 29.9864 20.1605 29.9785 20.1534C29.9706 20.1462 29.9613 20.1408 29.9512 20.1375C29.9411 20.1342 29.9304 20.1331 29.9198 20.1342Z" fill="#093D77"/>
<path d="M30.8514 20.0586C30.8215 20.0586 30.7923 20.0675 30.7674 20.0841C30.7425 20.1007 30.7231 20.1243 30.7117 20.1519C30.7003 20.1796 30.6973 20.21 30.7031 20.2393C30.7089 20.2686 30.7233 20.2956 30.7445 20.3167C30.7656 20.3379 30.7926 20.3523 30.8219 20.3581C30.8512 20.3639 30.8816 20.3609 30.9093 20.3495C30.9369 20.338 30.9605 20.3187 30.9771 20.2938C30.9937 20.2689 31.0026 20.2397 31.0026 20.2098C31.0026 20.1697 30.9867 20.1312 30.9583 20.1029C30.93 20.0745 30.8915 20.0586 30.8514 20.0586Z" fill="#093D77"/>
<path d="M30.0586 29.1201C30.037 29.5761 29.3458 29.5809 29.3458 29.1201C29.3458 28.6593 30.037 28.6633 30.0586 29.1201C30.0586 29.1929 30.1754 29.1929 30.1722 29.1201C30.1724 29.027 30.1449 28.936 30.0933 28.8585C30.0417 28.781 29.9682 28.7206 29.8822 28.6849C29.7962 28.6492 29.7016 28.6398 29.6103 28.6579C29.5189 28.6761 29.4351 28.7209 29.3692 28.7867C29.3034 28.8525 29.2586 28.9364 29.2404 29.0278C29.2223 29.1191 29.2317 29.2137 29.2674 29.2997C29.3031 29.3857 29.3635 29.4592 29.441 29.5108C29.5185 29.5624 29.6095 29.5899 29.7026 29.5897C29.8264 29.5871 29.9443 29.5367 30.0318 29.4492C30.1193 29.3617 30.1696 29.2438 30.1722 29.1201C30.1754 29.0457 30.0626 29.0457 30.0586 29.1201Z" fill="#093D77"/>
<path d="M31.9999 23.8934V28.027C31.9999 28.133 31.9577 28.2348 31.8827 28.3098C31.8077 28.3848 31.7059 28.427 31.5999 28.427H27.8063C27.7002 28.427 27.5984 28.3848 27.5234 28.3098C27.4484 28.2348 27.4062 28.133 27.4062 28.027V21.0558C27.4063 20.9497 27.4484 20.8479 27.5234 20.7729C27.5984 20.6979 27.7002 20.6558 27.8063 20.6558H28.1191L31.9999 23.8934Z" fill="#FFEDD2"/>
<path d="M31.5999 20.6538H27.8062C27.7002 20.6538 27.5984 20.6959 27.5234 20.771C27.4484 20.846 27.4062 20.9477 27.4062 21.0538V21.225C27.4063 21.1189 27.4484 21.0172 27.5234 20.9422C27.5984 20.8672 27.7002 20.825 27.8062 20.825H31.5999C31.7059 20.825 31.8077 20.8672 31.8827 20.9422C31.9577 21.0172 31.9999 21.1189 31.9999 21.225V21.0562C32.0002 21.0035 31.9901 20.9512 31.9701 20.9024C31.9501 20.8536 31.9207 20.8092 31.8835 20.7718C31.8464 20.7344 31.8022 20.7047 31.7535 20.6845C31.7048 20.6642 31.6526 20.6538 31.5999 20.6538Z" fill="#093D77"/>
</svg>
