<svg width="40" height="40" viewBox="0 0 40 40" fill="none" xmlns="http://www.w3.org/2000/svg">
<path d="M11.4719 9.54901C13.573 9.54901 15.5881 10.3836 17.0739 11.8691C18.5598 13.3546 19.3947 15.3695 19.3951 17.4706V20.373C19.3951 22.4744 18.5604 24.4897 17.0745 25.9756C15.5886 27.4614 13.5733 28.2962 11.4719 28.2962H11.1903C9.08925 28.2958 7.07437 27.4608 5.58882 25.975C4.10328 24.4892 3.26874 22.4741 3.26874 20.373V17.4706C3.26874 15.3697 4.10333 13.3548 5.58892 11.8692C7.07451 10.3836 9.0894 9.54901 11.1903 9.54901H11.4719ZM11.4719 8.25781H11.1903C8.74773 8.26035 6.4059 9.2318 4.67871 10.959C2.95153 12.6862 1.98008 15.028 1.97754 17.4706V20.373C1.98008 22.8158 2.95148 25.1578 4.67861 26.8852C6.40575 28.6126 8.74759 29.5844 11.1903 29.5874H11.4719C13.915 29.5849 16.2572 28.6133 17.9847 26.8858C19.7122 25.1583 20.6838 22.816 20.6863 20.373V17.4706C20.6834 15.0279 19.7116 12.686 17.9841 10.9589C16.2567 9.23175 13.9147 8.26035 11.4719 8.25781Z" fill="#093D77"/>
<path d="M30.403 18.6401H20.3022V19.2049H30.403V18.6401Z" fill="#15B6B8"/>
<path d="M36.2543 13.459L34.7583 14.955L37.3935 17.5998L37.4095 17.5838C37.8023 17.1907 38.0229 16.6578 38.0229 16.1022C38.0229 15.5465 37.8023 15.0136 37.4095 14.6206L36.2543 13.459Z" fill="#093D77"/>
<path d="M36.2545 13.4593L34.9937 12.1985C34.7992 12.0039 34.5682 11.8494 34.314 11.7441C34.0598 11.6387 33.7873 11.5845 33.5121 11.5845C33.2369 11.5845 32.9644 11.6387 32.7102 11.7441C32.456 11.8494 32.225 12.0039 32.0305 12.1985L32.0161 12.2129L34.7585 14.9553L36.2545 13.4593Z" fill="#0D4A82"/>
<path d="M32.7329 16.9791L33.3265 17.5727L37.3937 17.5919L34.7585 14.9551L32.7329 16.9791Z" fill="#18A09C"/>
<path d="M34.7585 14.9553L32.0161 12.2129L32.0353 16.2817L32.7329 16.9793L34.7585 14.9553Z" fill="#15B6B8"/>
<path d="M21.3486 28.3646L22.3998 30.0238L33.3262 17.5726L32.7326 16.979L21.3486 28.3646Z" fill="#18A09C"/>
<path d="M32.0351 16.2817L20.3999 26.8689L21.3487 28.3649L32.7327 16.9793L32.0351 16.2817Z" fill="#15B6B8"/>
<path d="M8.07672 16.1792L6.99512 31.7424H14.7567V14.3408H10.0463C9.54635 14.3412 9.06511 14.5311 8.69962 14.8723C8.33412 15.2134 8.11153 15.6805 8.07672 16.1792Z" fill="#15B6B8"/>
<path d="M13.5486 15.5518C13.1538 15.8042 12.7171 15.9841 12.259 16.083C11.1774 16.2862 10.339 17.3326 10.2766 18.4318L9.58542 30.5326H8.29102L9.17422 17.8462C9.21203 17.2954 9.44727 16.7769 9.83672 16.3857C10.2262 15.9944 10.7437 15.7569 11.2942 15.7166L13.5486 15.5518Z" fill="#EDFCFF"/>
<path d="M19.4672 14.3408H14.7568V31.7424H22.52L21.44 16.1792C21.4052 15.6799 21.1821 15.2124 20.816 14.8712C20.4498 14.53 19.9678 14.3404 19.4672 14.3408Z" fill="#18A09C"/>
<path d="M21.2206 30.533H15.9678V29.5906H20.2814L20.3998 17.9346L21.2206 30.533Z" fill="#EDFCFF"/>
<path d="M12.96 25.3582C12.96 25.8411 13.1518 26.3042 13.4933 26.6457C13.8347 26.9872 14.2979 27.179 14.7808 27.179V21.5166C14.7808 21.5166 12.96 24.3534 12.96 25.3582Z" fill="#C2FCFF"/>
<path d="M14.7822 21.5166V27.179C15.2649 27.1786 15.7276 26.9866 16.0687 26.6451C16.4098 26.3037 16.6014 25.8408 16.6014 25.3582C16.6014 24.3534 14.7822 21.5166 14.7822 21.5166Z" fill="#A6F7FF"/>
<path d="M14.5457 25.6959C14.5457 25.8026 14.5141 25.9068 14.4548 25.9955C14.3956 26.0842 14.3114 26.1533 14.2128 26.1941C14.1143 26.2349 14.0059 26.2456 13.9013 26.2248C13.7967 26.204 13.7006 26.1526 13.6252 26.0772C13.5498 26.0018 13.4985 25.9057 13.4776 25.8011C13.4568 25.6965 13.4675 25.5881 13.5083 25.4896C13.5491 25.3911 13.6182 25.3069 13.7069 25.2476C13.7956 25.1884 13.8998 25.1567 14.0065 25.1567C14.0773 25.1567 14.1474 25.1707 14.2128 25.1978C14.2782 25.2249 14.3377 25.2646 14.3878 25.3147C14.4378 25.3647 14.4775 25.4242 14.5046 25.4896C14.5317 25.555 14.5457 25.6251 14.5457 25.6959Z" fill="white"/>
</svg>
