<svg width="30" height="30" viewBox="0 0 30 30" fill="none" xmlns="http://www.w3.org/2000/svg">
<path d="M9.88145 13.553C10.2056 13.8772 10.2056 14.4072 9.88145 14.7313C9.55729 15.0555 9.02729 15.0555 8.70312 14.7313L1.63229 7.65966C1.30812 7.33549 1.30812 6.80549 1.63229 6.48133C1.95645 6.15716 2.48645 6.15716 2.81062 6.48133L9.88145 13.553ZM15.7748 7.66049C16.099 7.98466 16.099 8.51466 15.7748 8.83883C15.4506 9.16299 14.9206 9.16299 14.5965 8.83883L7.52395 1.76716C7.19979 1.44299 7.19979 0.912995 7.52395 0.588828C7.84812 0.264661 8.37812 0.264661 8.70229 0.588828L15.7748 7.66049Z" fill="white"/>
<path d="M28.3333 29.9997C28.3333 25.8613 26.1999 22.8488 24.5316 21.1247C24.9054 20.4904 25.0582 19.7501 24.9662 19.0196C24.8743 18.2891 24.5426 17.6098 24.0233 17.088L23.1074 16.1722C23.2594 15.6096 23.2607 15.0169 23.1112 14.4536C22.9617 13.8903 22.6667 13.3762 22.2558 12.963L18.1316 8.83801C18.4317 8.52286 18.5968 8.10285 18.5915 7.66768C18.5862 7.2325 18.4109 6.81665 18.1032 6.50891C17.7955 6.20117 17.3796 6.02594 16.9444 6.02063C16.5092 6.01533 16.0892 6.18036 15.7741 6.48051L13.4191 8.83551L13.4166 8.83717L9.88159 12.373L7.52493 14.7297C7.36574 14.8834 7.23877 15.0673 7.15142 15.2707C7.06408 15.474 7.0181 15.6927 7.01618 15.914C7.01425 16.1353 7.05642 16.3548 7.14022 16.5596C7.22403 16.7644 7.34778 16.9505 7.50427 17.107C7.66076 17.2635 7.84684 17.3872 8.05167 17.471C8.2565 17.5548 8.47596 17.597 8.69726 17.5951C8.91856 17.5932 9.13726 17.5472 9.3406 17.4598C9.54394 17.3725 9.72785 17.2455 9.88159 17.0863L14.0066 21.2113C14.8766 22.0813 16.1058 22.3555 17.2149 22.0622L18.1324 22.9797C18.6556 23.5009 19.3374 23.8331 20.0702 23.924C20.8031 24.0148 21.5454 23.8591 22.1799 23.4813C23.4158 24.7713 24.9999 27.003 24.9999 29.9997H28.3333Z" fill="white"/>
</svg>
