<svg width="30" height="30" viewBox="0 0 30 30" fill="none" xmlns="http://www.w3.org/2000/svg">
<path fill-rule="evenodd" clip-rule="evenodd" d="M15 6.25C19.1421 6.25 22.5 9.60786 22.5 13.75C22.5 16.526 20.9918 18.9498 18.75 20.2466L18.75 25L17.5 26.25H16.25C16.25 26.9404 15.6904 27.5 15 27.5C14.3096 27.5 13.75 26.9404 13.75 26.25H12.5L11.25 25L11.25 20.2466C9.00823 18.9498 7.5 16.526 7.5 13.75C7.5 9.60786 10.8579 6.25 15 6.25ZM16.2501 21.1463C15.8435 21.2145 15.4259 21.25 15 21.25C14.5741 21.25 14.1565 21.2145 13.7499 21.1463L13.75 23.75H16.25L16.2501 21.1463ZM8.1499 19.2743L9.47573 20.6001L6.82408 23.2517L5.49825 21.9259L8.1499 19.2743ZM21.8501 19.2743L24.5017 21.9259L23.1759 23.2517L20.5243 20.6001L21.8501 19.2743ZM27.5 12.8125V14.6875H23.75V12.8125H27.5ZM6.25 12.8125V14.6875H2.5V12.8125H6.25ZM23.1759 4.24825L24.5017 5.57408L21.8501 8.22573L20.5243 6.8999L23.1759 4.24825ZM6.82408 4.24825L9.47573 6.8999L8.1499 8.22573L5.49825 5.57408L6.82408 4.24825ZM15.9375 1.25V5H14.0625V1.25H15.9375Z" fill="white"/>
</svg>
