<svg width="85" height="85" viewBox="0 0 85 85" fill="none" xmlns="http://www.w3.org/2000/svg">
<rect width="85" height="85" rx="29" fill="#EDFCFF"/>
<path d="M25 34.9229L32.9296 38.4193V36.4618L25 32.4844V34.9229Z" fill="#093D77"/>
<path d="M25 52.517L32.9296 48.5396V46.582L25 50.0785V52.517Z" fill="#093D77"/>
<path d="M58.637 38.1755H46.3208C45.6103 38.1755 44.9129 37.9906 44.2962 37.6395L38.9507 34.5918V50.4095L44.2962 47.3628C44.9129 47.0108 45.6103 46.8259 46.3199 46.8259H58.637C59.3889 46.8259 59.999 46.2158 59.999 45.4635L59.9999 39.5379C59.9999 38.7855 59.3898 38.1755 58.637 38.1755ZM51.4852 43.4017H46.7996V41.5995H51.4852V43.4017Z" fill="#093D77"/>
<path d="M36.3041 33.8631C35.8845 34.1073 35.6264 34.5559 35.6264 35.0411L35.6255 49.9597C35.6255 50.4449 35.8836 50.8945 36.3032 51.1376C36.7228 51.3817 37.2409 51.3835 37.6623 51.1432H37.6633V33.8575C37.2418 33.6173 36.7237 33.6191 36.3041 33.8631Z" fill="#093D77"/>
</svg>
