<svg width="30" height="30" viewBox="0 0 30 30" fill="none" xmlns="http://www.w3.org/2000/svg">
<path d="M25.7812 20.625V29.0625H4.21875V20.625" fill="white"/>
<path d="M14.0625 20.625V26.25C14.0625 26.4986 13.9637 26.7371 13.7879 26.9129C13.6121 27.0887 13.3736 27.1875 13.125 27.1875C12.8764 27.1875 12.6379 27.0887 12.4621 26.9129C12.2863 26.7371 12.1875 26.4986 12.1875 26.25V20.625" fill="#2C66A6"/>
<path d="M10.3125 20.625V26.25C10.3125 26.4986 10.2137 26.7371 10.0379 26.9129C9.8621 27.0887 9.62364 27.1875 9.375 27.1875C9.12636 27.1875 8.8879 27.0887 8.71209 26.9129C8.53627 26.7371 8.4375 26.4986 8.4375 26.25V20.625" fill="#2C66A6"/>
<path d="M21.5625 20.625V26.25C21.5625 26.4986 21.4637 26.7371 21.2879 26.9129C21.1121 27.0887 20.8736 27.1875 20.625 27.1875C20.3764 27.1875 20.1379 27.0887 19.9621 26.9129C19.7863 26.7371 19.6875 26.4986 19.6875 26.25V20.625" fill="#2C66A6"/>
<path d="M17.8125 20.625V26.25C17.8125 26.4986 17.7137 26.7371 17.5379 26.9129C17.3621 27.0887 17.1236 27.1875 16.875 27.1875C16.6264 27.1875 16.3879 27.0887 16.2121 26.9129C16.0363 26.7371 15.9375 26.4986 15.9375 26.25V20.625" fill="#2C66A6"/>
<path d="M27.1875 0.9375H2.8125C2.29473 0.9375 1.875 1.35723 1.875 1.875V19.6875C1.875 20.2053 2.29473 20.625 2.8125 20.625H27.1875C27.7053 20.625 28.125 20.2053 28.125 19.6875V1.875C28.125 1.35723 27.7053 0.9375 27.1875 0.9375Z" fill="white"/>
<path d="M26.25 2.8125H3.75V18.75H26.25V2.8125Z" fill="white"/>
<path d="M24.375 8.90625H5.625V12.6562H24.375V8.90625Z" fill="#2C66A6"/>
<path d="M24.375 8.4375H5.625C5.50068 8.4375 5.38145 8.48689 5.29354 8.57479C5.20564 8.6627 5.15625 8.78193 5.15625 8.90625V12.6562C5.15625 12.7806 5.20564 12.8998 5.29354 12.9877C5.38145 13.0756 5.50068 13.125 5.625 13.125H24.375C24.4993 13.125 24.6185 13.0756 24.7065 12.9877C24.7944 12.8998 24.8438 12.7806 24.8438 12.6562V8.90625C24.8438 8.78193 24.7944 8.6627 24.7065 8.57479C24.6185 8.48689 24.4993 8.4375 24.375 8.4375ZM13.5938 9.375H16.4062V12.1875H13.5938V9.375ZM12.6562 12.1875H9.84375V9.375H12.6562V12.1875ZM17.3438 9.375H20.1562V12.1875H17.3438V9.375ZM6.09375 9.375H8.90625V12.1875H6.09375V9.375ZM23.9062 12.1875H21.0938V9.375H23.9062V12.1875Z" fill="#2C66A6"/>
<path d="M7.96875 9.84375H7.03125V11.7188H7.96875V9.84375Z" fill="#2C66A6"/>
<path d="M11.7188 9.84375H10.7812V11.7188H11.7188V9.84375Z" fill="#2C66A6"/>
<path d="M15.4688 9.84375H14.5312V11.7188H15.4688V9.84375Z" fill="#2C66A6"/>
<path d="M19.2188 9.84375H18.2812V11.7188H19.2188V9.84375Z" fill="#2C66A6"/>
<path d="M22.9688 9.84375H22.0312V11.7188H22.9688V9.84375Z" fill="#2C66A6"/>
<path d="M7.96875 4.21875H5.15625V5.15625H7.96875V4.21875Z" fill="#2C66A6"/>
<path d="M11.7188 4.21875H8.90625V5.15625H11.7188V4.21875Z" fill="#2C66A6"/>
<path d="M15.4688 4.21875H12.6562V5.15625H15.4688V4.21875Z" fill="#2C66A6"/>
<path d="M19.2188 4.21875H16.4062V5.15625H19.2188V4.21875Z" fill="#2C66A6"/>
<path d="M24.375 4.6875H20.625V6.5625H24.375V4.6875Z" fill="#2C66A6"/>
<path d="M7.03125 6.09375H6.09375V7.03125H7.03125V6.09375Z" fill="#2C66A6"/>
<path d="M10.7812 6.09375H9.84375V7.03125H10.7812V6.09375Z" fill="#2C66A6"/>
<path d="M14.5312 6.09375H13.5938V7.03125H14.5312V6.09375Z" fill="#2C66A6"/>
<path d="M18.2812 6.09375H17.3438V7.03125H18.2812V6.09375Z" fill="#2C66A6"/>
<path d="M6.5625 16.875C7.08027 16.875 7.5 16.4553 7.5 15.9375C7.5 15.4197 7.08027 15 6.5625 15C6.04473 15 5.625 15.4197 5.625 15.9375C5.625 16.4553 6.04473 16.875 6.5625 16.875Z" fill="#2C66A6"/>
<path d="M10.3125 16.875C10.8303 16.875 11.25 16.4553 11.25 15.9375C11.25 15.4197 10.8303 15 10.3125 15C9.79473 15 9.375 15.4197 9.375 15.9375C9.375 16.4553 9.79473 16.875 10.3125 16.875Z" fill="#2C66A6"/>
<path d="M14.0625 16.875C14.5803 16.875 15 16.4553 15 15.9375C15 15.4197 14.5803 15 14.0625 15C13.5447 15 13.125 15.4197 13.125 15.9375C13.125 16.4553 13.5447 16.875 14.0625 16.875Z" fill="#2C66A6"/>
<path d="M17.8125 16.875C18.3303 16.875 18.75 16.4553 18.75 15.9375C18.75 15.4197 18.3303 15 17.8125 15C17.2947 15 16.875 15.4197 16.875 15.9375C16.875 16.4553 17.2947 16.875 17.8125 16.875Z" fill="#2C66A6"/>
<path d="M6.5625 17.3438C6.28437 17.3438 6.01249 17.2613 5.78123 17.1068C5.54997 16.9522 5.36973 16.7326 5.2633 16.4756C5.15686 16.2187 5.12901 15.9359 5.18327 15.6632C5.23753 15.3904 5.37146 15.1398 5.56813 14.9431C5.7648 14.7465 6.01537 14.6125 6.28815 14.5583C6.56094 14.504 6.84369 14.5319 7.10065 14.6383C7.35761 14.7447 7.57723 14.925 7.73176 15.1562C7.88628 15.3875 7.96875 15.6594 7.96875 15.9375C7.96875 16.3105 7.82059 16.6681 7.55687 16.9319C7.29315 17.1956 6.93546 17.3438 6.5625 17.3438ZM6.5625 15.4688C6.46979 15.4688 6.37916 15.4962 6.30208 15.5477C6.22499 15.5993 6.16491 15.6725 6.12943 15.7581C6.09395 15.8438 6.08467 15.938 6.10276 16.0289C6.12084 16.1199 6.16549 16.2034 6.23104 16.269C6.2966 16.3345 6.38012 16.3792 6.47105 16.3972C6.56198 16.4153 6.65623 16.406 6.74188 16.3706C6.82754 16.3351 6.90075 16.275 6.95225 16.1979C7.00376 16.1208 7.03125 16.0302 7.03125 15.9375C7.03125 15.8132 6.98186 15.694 6.89396 15.606C6.80605 15.5181 6.68682 15.4688 6.5625 15.4688Z" fill="#2C66A6"/>
<path d="M10.3125 17.3438C10.0344 17.3438 9.76249 17.2613 9.53123 17.1068C9.29997 16.9522 9.11973 16.7326 9.0133 16.4756C8.90686 16.2187 8.87901 15.9359 8.93327 15.6632C8.98753 15.3904 9.12146 15.1398 9.31813 14.9431C9.5148 14.7465 9.76537 14.6125 10.0382 14.5583C10.3109 14.504 10.5937 14.5319 10.8506 14.6383C11.1076 14.7447 11.3272 14.925 11.4818 15.1562C11.6363 15.3875 11.7188 15.6594 11.7188 15.9375C11.7188 16.3105 11.5706 16.6681 11.3069 16.9319C11.0431 17.1956 10.6855 17.3438 10.3125 17.3438ZM10.3125 15.4688C10.2198 15.4688 10.1292 15.4962 10.0521 15.5477C9.97499 15.5993 9.91491 15.6725 9.87943 15.7581C9.84395 15.8438 9.83467 15.938 9.85276 16.0289C9.87084 16.1199 9.91549 16.2034 9.98104 16.269C10.0466 16.3345 10.1301 16.3792 10.2211 16.3972C10.312 16.4153 10.4062 16.406 10.4919 16.3706C10.5775 16.3351 10.6507 16.275 10.7023 16.1979C10.7538 16.1208 10.7813 16.0302 10.7813 15.9375C10.7813 15.8132 10.7319 15.694 10.644 15.606C10.556 15.5181 10.4368 15.4688 10.3125 15.4688Z" fill="#2C66A6"/>
<path d="M14.0625 17.3438C13.7844 17.3438 13.5125 17.2613 13.2812 17.1068C13.05 16.9522 12.8697 16.7326 12.7633 16.4756C12.6569 16.2187 12.629 15.9359 12.6833 15.6632C12.7375 15.3904 12.8715 15.1398 13.0681 14.9431C13.2648 14.7465 13.5154 14.6125 13.7882 14.5583C14.0609 14.504 14.3437 14.5319 14.6006 14.6383C14.8576 14.7447 15.0772 14.925 15.2318 15.1562C15.3863 15.3875 15.4688 15.6594 15.4688 15.9375C15.4688 16.3105 15.3206 16.6681 15.0569 16.9319C14.7931 17.1956 14.4355 17.3438 14.0625 17.3438ZM14.0625 15.4688C13.9698 15.4688 13.8792 15.4962 13.8021 15.5477C13.725 15.5993 13.6649 15.6725 13.6294 15.7581C13.594 15.8438 13.5847 15.938 13.6028 16.0289C13.6208 16.1199 13.6655 16.2034 13.731 16.269C13.7966 16.3345 13.8801 16.3792 13.9711 16.3972C14.062 16.4153 14.1562 16.406 14.2419 16.3706C14.3275 16.3351 14.4007 16.275 14.4523 16.1979C14.5038 16.1208 14.5313 16.0302 14.5313 15.9375C14.5313 15.8132 14.4819 15.694 14.394 15.606C14.306 15.5181 14.1868 15.4688 14.0625 15.4688Z" fill="#2C66A6"/>
<path d="M17.8125 17.3438C17.5344 17.3438 17.2625 17.2613 17.0312 17.1068C16.8 16.9522 16.6197 16.7326 16.5133 16.4756C16.4069 16.2187 16.379 15.9359 16.4333 15.6632C16.4875 15.3904 16.6215 15.1398 16.8181 14.9431C17.0148 14.7465 17.2654 14.6125 17.5382 14.5583C17.8109 14.504 18.0937 14.5319 18.3506 14.6383C18.6076 14.7447 18.8272 14.925 18.9818 15.1562C19.1363 15.3875 19.2188 15.6594 19.2188 15.9375C19.2188 16.3105 19.0706 16.6681 18.8069 16.9319C18.5431 17.1956 18.1855 17.3438 17.8125 17.3438ZM17.8125 15.4688C17.7198 15.4688 17.6292 15.4962 17.5521 15.5477C17.475 15.5993 17.4149 15.6725 17.3794 15.7581C17.344 15.8438 17.3347 15.938 17.3528 16.0289C17.3708 16.1199 17.4155 16.2034 17.481 16.269C17.5466 16.3345 17.6301 16.3792 17.7211 16.3972C17.812 16.4153 17.9062 16.406 17.9919 16.3706C18.0775 16.3351 18.1507 16.275 18.2023 16.1979C18.2538 16.1208 18.2813 16.0302 18.2813 15.9375C18.2813 15.8132 18.2319 15.694 18.144 15.606C18.056 15.5181 17.9368 15.4688 17.8125 15.4688Z" fill="#2C66A6"/>
<path d="M24.3751 17.4934L23.4845 17.1934L23.7236 16.4059H22.9689C22.8945 16.4055 22.8213 16.3875 22.7553 16.3532C22.6893 16.319 22.6323 16.2696 22.5892 16.209C22.5456 16.1489 22.517 16.0793 22.5056 16.006C22.4942 15.9326 22.5003 15.8576 22.5236 15.7871L22.9923 14.3809L23.883 14.6809L23.6205 15.4684H24.3751C24.4495 15.4687 24.5227 15.4867 24.5887 15.521C24.6548 15.5552 24.7117 15.6047 24.7548 15.6652C24.7984 15.7253 24.8271 15.7949 24.8385 15.8683C24.8499 15.9416 24.8437 16.0166 24.8205 16.0871L24.3751 17.4934Z" fill="#2C66A6"/>
<path d="M22.5 22.5H7.5C6.98223 22.5 6.5625 22.9197 6.5625 23.4375C6.5625 23.9553 6.98223 24.375 7.5 24.375H22.5C23.0178 24.375 23.4375 23.9553 23.4375 23.4375C23.4375 22.9197 23.0178 22.5 22.5 22.5Z" fill="#2C66A6"/>
</svg>
