<svg width="85" height="85" viewBox="0 0 85 85" fill="none" xmlns="http://www.w3.org/2000/svg">
<rect width="85" height="85" rx="29" fill="#EDFCFF"/>
<g clip-path="url(#clip0_6038_835)">
<path d="M52.35 32.2288C51.7503 31.1901 52.1063 29.8617 53.1451 29.2618C53.7826 28.8938 54.5289 28.8862 55.1492 29.1748L56.6794 25.8947C55.0252 25.1249 53.035 25.1453 51.3352 26.1268C49.6803 27.0822 48.6753 28.7311 48.4751 30.4944" fill="#093D77"/>
<path d="M56.3942 31.3315C56.3341 32.0129 55.9544 32.6555 55.3168 33.0236C54.278 33.6233 52.9496 33.2674 52.3497 32.2285C51.3501 30.4972 49.1361 29.904 47.4047 30.9035L26.0863 43.2116C25.0476 43.8114 24.6916 45.1399 25.2913 46.1787C25.8912 47.2175 27.2196 47.5735 28.2584 46.9736L49.5767 34.6655L49.6116 34.6349C51.3476 36.9367 54.5663 37.637 57.1269 36.1586C58.8267 35.177 59.8395 33.4637 59.9999 31.6464L56.3942 31.3315Z" fill="#093D77"/>
<path d="M53.7901 36.2735L40.9078 58.5628C40.308 59.6017 38.9796 59.9576 37.9408 59.3578C36.902 58.758 36.546 57.4296 37.1459 56.3908L50.028 34.1016L53.7901 36.2735Z" fill="#093D77"/>
<path d="M53.1447 29.2618C53.3021 29.1709 53.4661 29.1022 53.6333 29.0543L52.6374 25.5732C52.1918 25.7009 51.7544 25.8844 51.3347 26.1267C49.6799 27.0822 48.6748 28.7311 48.4746 30.4944L52.3496 32.2288C51.75 31.19 52.1059 29.8616 53.1447 29.2618Z" fill="#093D77"/>
<path d="M55.7182 32.7248C55.5987 32.8371 55.465 32.938 55.3168 33.0236C54.278 33.6233 52.9496 33.2674 52.3497 32.2285C51.3501 30.4972 49.1361 29.904 47.4047 30.9035L26.0863 43.2116C25.0476 43.8114 24.6916 45.1399 25.2913 46.1787C25.8912 47.2175 27.2196 47.5735 28.2584 46.9736L49.5767 34.6655L49.6116 34.6349C51.3476 36.9367 54.5663 37.637 57.1269 36.1586C57.5557 35.911 57.9407 35.6167 58.2794 35.2859L55.7182 32.7248Z" fill="#093D77"/>
<path d="M50.3237 34.0879C50.2678 34.032 50.2194 33.9688 50.1797 33.9C50.0588 33.6909 50.0268 33.4469 50.0894 33.2134C50.1519 32.9798 50.3017 32.7848 50.511 32.664C50.8652 32.4596 51.3144 32.5186 51.6033 32.8075C51.6593 32.8634 51.7076 32.9265 51.7472 32.9952C51.8681 33.2045 51.9001 33.4484 51.8376 33.6819C51.7751 33.9155 51.6252 34.1106 51.4158 34.2315C51.062 34.436 50.6127 34.377 50.3237 34.0879Z" fill="#093D77"/>
</g>
<defs>
<clipPath id="clip0_6038_835">
<rect width="35" height="35" fill="white" transform="translate(25 25)"/>
</clipPath>
</defs>
</svg>
