<svg width="85" height="85" viewBox="0 0 85 85" fill="none" xmlns="http://www.w3.org/2000/svg">
<rect width="85" height="85" rx="29" fill="#EDFCFF"/>
<path d="M37.8571 42.722C37.8571 42.722 41.8533 48.1081 45.5019 51.7568C47.0656 53.3205 48.6293 54.3629 49.8456 55.2317C51.2355 56.1004 51.583 58.0116 50.3668 59.2278C49.6718 59.9228 48.4556 60.2703 47.5869 59.749C46.1969 59.0541 44.112 57.6641 41.8533 55.5791C38.2046 51.9305 34.2085 46.5444 34.2085 46.5444L37.8571 42.722ZM42.722 37.8571C42.722 37.8571 48.1081 41.8533 51.7568 45.5019C53.3205 47.0656 54.3629 48.6293 55.2317 49.8456C56.1004 51.2355 58.0116 51.583 59.2278 50.3668C59.9228 49.6718 60.2703 48.4556 59.749 47.5869C59.0541 46.1969 57.6641 44.112 55.5791 41.8533C51.9305 38.2046 46.5444 34.2085 46.5444 34.2085L42.722 37.8571ZM39.5946 31.0811L34.7297 26.2162L28.6486 25L27.7799 25.8687L31.7761 29.8649C32.6448 29.6911 33.5135 29.8649 34.2085 30.5598C35.251 31.6023 35.251 33.166 34.2085 34.2085C33.166 35.251 31.6023 35.251 30.5598 34.2085C29.8649 33.5135 29.6911 32.471 29.8649 31.6023L25.8687 27.7799L25 28.6486L26.2162 34.7297L31.0811 39.5946L33.5135 44.4595L36.8147 41.1583L35.0772 38.0309L37.8571 35.251L41.1583 36.8147L44.4595 33.5135L39.5946 31.0811Z" fill="#093D77"/>
</svg>
