<?xml version="1.0" encoding="utf-8"?>
<!-- Generator: Adobe Illustrator 27.9.3, SVG Export Plug-In . SVG Version: 9.03 Build 53313)  -->
<svg version="1.1" id="Layer_1" xmlns="http://www.w3.org/2000/svg" xmlns:xlink="http://www.w3.org/1999/xlink" x="0px" y="0px"
	 viewBox="0 0 892.1 892" style="enable-background:new 0 0 892.1 892;" xml:space="preserve">
<style type="text/css">
	.st0{fill:#FFFFFF;}
	.st1{fill:#083D77;}
</style>
<circle class="st0" cx="446" cy="446" r="446"/>
<path class="st1" d="M342,205.5l-52.1,30.1L200.7,287c-9.2,5.4-14.9,15.2-14.9,25.9v103v60.1v103c0,10.7,5.7,20.5,14.9,25.9
	l230.4,133c9.2,5.4,20.7,5.4,29.9,0l193.3-111.6l37.1-21.5c9.2-5.4,14.9-15.2,14.9-25.9v-42.8V312.9c0-10.7-5.7-20.5-14.9-25.9
	L461,154c-9.2-5.4-20.7-5.4-29.9,0L342,205.5z M394,476l-52.1,30.1l-7.2,4.2c-19.9,11.5-44.8-2.9-44.8-25.9v-8.3v-60.1v-42.8
	c0-10.7,5.7-20.5,14.9-25.9l37.1-21.5l52.1-30.1l37.1-21.5c9.2-5.4,20.7-5.4,29.9,0l126.3,72.9c9.2,5.4,14.9,15.2,14.9,25.9v42.8
	V476v8.3c0,23-24.9,37.4-44.8,25.9l-96.4-55.7c-9.2-5.4-20.7-5.4-29.9,0L394,476z"/>
</svg>
