<svg width="784" height="892" viewBox="0 0 784 892" fill="none" xmlns="http://www.w3.org/2000/svg">
<path d="M235.2 83.5998L156.8 128.9L22.5 206.3C8.6 214.4 0 229.2 0 245.3V400.4V490.9V646C0 662.1 8.6 676.9 22.5 685L369.4 885.3C383.3 893.4 400.5 893.4 414.4 885.3L705.4 717.3L761.3 685C775.2 676.9 783.8 662.1 783.8 646V581.5V245.3C783.8 229.2 775.2 214.4 761.3 206.3L414.4 5.9998C400.5 -2.1002 383.3 -2.1002 369.4 5.9998L235.2 83.5998ZM313.5 490.8L235.1 536.1L224.2 542.4C194.2 559.7 156.7 538.1 156.7 503.4V490.9V400.4V335.9C156.7 319.8 165.3 305 179.2 296.9L235.1 264.6L313.5 219.3L369.3 187C383.2 178.9 400.4 178.9 414.3 187L604.5 296.8C618.4 304.9 627 319.7 627 335.8V400.3V490.8V503.3C627 537.9 589.5 559.6 559.5 542.3L414.3 458.5C400.4 450.4 383.2 450.4 369.3 458.5L313.5 490.8Z" fill="#083D77"/>
</svg>
