<?xml version="1.0" encoding="utf-8"?>
<!-- Generator: Adobe Illustrator 27.9.2, SVG Export Plug-In . SVG Version: 6.00 Build 0)  -->
<svg version="1.1" id="Layer_1" xmlns="http://www.w3.org/2000/svg" xmlns:xlink="http://www.w3.org/1999/xlink" x="0px" y="0px"
	 viewBox="0 0 4363 892" style="enable-background:new 0 0 4363 892;" xml:space="preserve">
<style type="text/css">
	.st0{clip-path:url(#SVGID_00000043436253864783496240000012023425481582826414_);}
	.st1{fill:#083D77;}
	.st2{clip-path:url(#SVGID_00000023990561101712244110000017699434303943033232_);}
	.st3{fill:#14B6B8;}
</style>
<g>
	<defs>
		<rect id="SVGID_1_" y="0" width="3810" height="891.1"/>
	</defs>
	<clipPath id="SVGID_00000125583160133226021670000012810960896763198634_">
		<use xlink:href="#SVGID_1_"  style="overflow:visible;"/>
	</clipPath>
	<g style="clip-path:url(#SVGID_00000125583160133226021670000012810960896763198634_);">
		<path class="st1" d="M235.2,83.6l-78.4,45.3L22.5,206.3C8.6,214.4,0,229.2,0,245.3v155.1v90.5v155.1c0,16.1,8.6,30.9,22.5,39
			l346.9,200.3c13.9,8.1,31.1,8.1,45,0l291-168l55.9-32.3c13.9-8.1,22.5-22.9,22.5-39v-64.5V245.3c0-16.1-8.6-30.9-22.5-39L414.4,6
			c-13.9-8.1-31.1-8.1-45,0L235.2,83.6z M313.5,490.8l-78.4,45.3l-10.9,6.3c-30,17.3-67.5-4.3-67.5-39v-12.5v-90.5v-64.5
			c0-16.1,8.6-30.9,22.5-39l55.9-32.3l78.4-45.3l55.8-32.3c13.9-8.1,31.1-8.1,45,0l190.2,109.8c13.9,8.1,22.5,22.9,22.5,39v64.5
			v90.5v12.5c0,34.6-37.5,56.3-67.5,39l-145.2-83.8c-13.9-8.1-31.1-8.1-45,0L313.5,490.8L313.5,490.8z"/>
	</g>
</g>
<g>
	<defs>
		<rect id="SVGID_00000019663434802215085870000009774706090632597155_" x="915.8" y="214.7" width="3446.8" height="576.4"/>
	</defs>
	<clipPath id="SVGID_00000041990742793362327460000017709276776708838042_">
		<use xlink:href="#SVGID_00000019663434802215085870000009774706090632597155_"  style="overflow:visible;"/>
	</clipPath>
	<g style="clip-path:url(#SVGID_00000041990742793362327460000017709276776708838042_);">
		<path class="st1" d="M1044.1,320.6H915.8v-76.5h341.1v76.5h-128.2v335.3h-84.5V320.6z"/>
		<path class="st1" d="M1338.9,361.8v154.7c0,45.9,13.6,73.6,68,73.6c48.5,0,74.5-27.7,74.5-81.1v-147h81v294.1h-81v-40
			c-19.5,30.6-51.4,48.8-98.7,48.8c-82.2,0-124.7-35.9-124.7-140.6V361.8H1338.9z"/>
		<path class="st1" d="M1621.4,655.8V214.7h81v441.1H1621.4z M1938.3,655.8h-98.7l-137.1-147l137.1-147h98.7l-137.1,147
			L1938.3,655.8z"/>
		<path class="st1" d="M2107.9,419.4c-29,0-68.5,2.9-68.5,44.1h-72.7c0-80.6,54.4-110.6,142.5-110.6c101.1,0,150.7,28.2,150.7,129.4
			v173.5h-80.4v-39.4c-11.8,28.8-39,48.3-101.6,48.3c-71.6,0-127.7-19.4-127.7-93.5c0-60.5,47.3-83.5,124.1-91.1l105.2-9.4v-1.1
			C2179.5,424.1,2137.6,419.5,2107.9,419.4L2107.9,419.4z M2089.6,535.2c-33.1,2.9-55.5,11.1-55.5,34.7c0,18.8,18.3,28.2,56.8,28.2
			c58.6,0,86.3-22.9,88.6-42.3v-29.4L2089.6,535.2z"/>
		<path class="st1" d="M2536.4,655.8V501.1c0-45.9-13.6-73.6-68-73.6c-48.5,0-74.5,27.7-74.5,81.1v147h-81v-294h81v40
			c19.5-30.6,51.4-48.8,98.7-48.8c82.2,0,124.7,35.9,124.7,140.5v162.3H2536.4z"/>
		<path class="st1" d="M2967.8,350c-18.9-11.1-44.3-16.4-65.6-16.4c-16.5,0-39.6,5.3-47.8,21.7c69.8,9.4,104.6,43,104.6,100.6
			c0,68.2-47.3,102.9-145.4,102.9c-66.2,0-86.9,0.6-86.9,14.2s22.5,16.4,94,24.1c86.3,9.4,153.1,11.8,153.1,91.8
			c0,62.3-50.9,90.6-148.9,90.6c-116.4,0-166.1-32.4-166.1-108.8h72.7c0,31.7,35.5,42.3,97.6,42.3c49.6,0,78-6.4,78-25.3
			c0-22.9-32.6-17.1-95.8-23.5c-68.5-7.1-151.3-12.9-151.3-82.9c0-27.7,14.2-44.1,35.5-54.1c-20.1-16.4-30.2-40.6-30.2-71.2
			c0-92.4,86.3-102.9,159.6-102.9c5.3-43,33.7-76.5,81.5-76.5c23.1,0,45.6,6.4,61.5,12.4L2967.8,350L2967.8,350z M2813.5,492.4
			c40.8,0,61.5-11.1,61.5-36.5c0-25.3-22.5-36.5-63.9-36.5c-46.7,0-62.1,11.1-62.1,36.5C2749.1,481.2,2773.3,492.4,2813.5,492.4z"/>
		<path class="st1" d="M3061.1,223.5c34.8,0,49.6,15.9,49.6,48.8c0,33-14.8,48.8-49.6,48.8c-34.8,0-49.1-15.9-49.1-48.8
			C3012.1,239.4,3026.9,223.5,3061.1,223.5z M3021,361.8h81v294.1h-81V361.8z"/>
		<path class="st1" d="M3384.5,655.8V501.1c0-45.9-13.6-73.6-67.9-73.6c-48.5,0-74.5,27.7-74.5,81.1v147h-81v-294h81v40
			c19.5-30.6,51.4-48.8,98.7-48.8c82.2,0,124.7,35.9,124.7,140.5v162.3H3384.5z"/>
		<path class="st3" d="M3658.6,419.4c-28.9,0-68.5,2.9-68.5,44.1h-72.7c0-80.6,54.4-110.6,142.4-110.6
			c101.1,0,150.7,28.2,150.7,129.4v173.5h-80.4v-39.4c-11.9,28.8-39,48.3-101.6,48.3c-71.6,0-127.7-19.4-127.7-93.5
			c0-60.5,47.3-83.5,124.1-91.1l105.2-9.4v-1.1C3730.3,424.1,3688.3,419.5,3658.6,419.4L3658.6,419.4z M3640.3,535.2
			c-33.1,2.9-55.5,11.1-55.5,34.7c0,18.8,18.3,28.2,56.8,28.2c58.6,0,86.3-22.9,88.6-42.3v-29.4L3640.3,535.2z"/>
		<path class="st3" d="M3897.4,791.1c-76.9,0-105.8-48.8-105.8-113.5h68.5c0,31.2,13,47,34.8,47c26,0,35.5-25.9,35.5-59.4V361.8h81
			v276.4C4011.4,742.3,3970.6,791.1,3897.4,791.1L3897.4,791.1z M3971.4,223.5c34.3,0,49.1,15.9,49.1,48.8c0,33-14.8,48.8-49.1,48.8
			c-34.3,0-49.6-15.9-49.6-48.8C3921.7,239.4,3936.5,223.5,3971.4,223.5z"/>
		<path class="st3" d="M4210.7,419.4c-29,0-68.5,2.9-68.5,44.1h-72.7c0-80.6,54.4-110.6,142.5-110.6c101.1,0,150.7,28.2,150.7,129.4
			v173.5h-80.4v-39.4c-11.9,28.8-39,48.3-101.6,48.3c-71.6,0-127.7-19.4-127.7-93.5c0-60.5,47.3-83.5,124.1-91.1l105.2-9.4v-1.1
			C4282.4,424.1,4240.4,419.5,4210.7,419.4L4210.7,419.4z M4192.4,535.2c-33.1,2.9-55.5,11.1-55.5,34.7c0,18.8,18.3,28.2,56.8,28.2
			c58.6,0,86.3-22.9,88.6-42.3v-29.4L4192.4,535.2z"/>
	</g>
</g>
</svg>
