<svg width="85" height="85" viewBox="0 0 85 85" fill="none" xmlns="http://www.w3.org/2000/svg">
<rect width="85" height="85" rx="29" fill="#EDFCFF"/>
<g clip-path="url(#clip0_6088_506)">
<path d="M40.6234 27.1387H36.8247V29.9389H40.6234V27.1387Z" fill="#093D77"/>
<path d="M38.323 35.5288C37.8416 35.5288 37.3933 35.2238 37.2335 34.7418C37.0339 34.1401 37.36 33.4904 37.9618 33.2908C40.1315 32.5713 41.2981 29.6048 41.3092 29.575C41.5321 28.9814 42.1939 28.6808 42.7875 28.9036C43.3811 29.1264 43.6817 29.7882 43.4589 30.3819C43.3975 30.5453 41.9191 34.3974 38.6844 35.47C38.5645 35.51 38.4427 35.5288 38.323 35.5288Z" fill="#093D77"/>
<path opacity="0.1" d="M42.4016 32.379C43.0894 31.3463 43.4302 30.4576 43.459 30.3809C43.6817 29.7873 43.3812 29.1254 42.7875 28.9026C42.194 28.6798 41.5321 28.9804 41.3093 29.574C41.3009 29.5962 40.6541 31.2406 39.4316 32.379H42.4016Z" fill="#093D77"/>
<path d="M53.1439 30.1368L51.194 27.2318C50.8952 26.7866 50.3942 26.5195 49.858 26.5195H39.3682V30.557H44.582V35.5868H48.385V34.2516C48.385 33.3629 49.1054 32.6425 49.9941 32.6425H51.8078C53.0952 32.6426 53.8614 31.2058 53.1439 30.1368Z" fill="#093D77"/>
<g opacity="0.1">
<path d="M53.1439 30.1367L51.1941 27.2318C50.8953 26.7867 50.3943 26.5195 49.8581 26.5195H48.4004C48.9366 26.5195 49.4376 26.7867 49.7364 27.2318L51.6862 30.1367C52.4036 31.2057 51.6376 32.6425 50.3502 32.6425H51.8079C53.0953 32.6425 53.8614 31.2057 53.1439 30.1367Z" fill="#093D77"/>
</g>
<path d="M49.3665 34.5117H42.9316V38.9022H49.3665V34.5117Z" fill="#093D77"/>
<path opacity="0.1" d="M49.3663 34.5117H46.8154V38.9022H49.3663V34.5117Z" fill="#093D77"/>
<path d="M54.2439 47.3794L53.2853 46.5412L50.37 37.3711H41.9287L39.0134 46.5412L38.0548 47.3794C37.2034 48.1239 36.8364 49.2798 37.1023 50.379L39.4299 59.9997H52.8688L55.1965 50.379C55.4623 49.2797 55.0953 48.1238 54.2439 47.3794Z" fill="#093D77"/>
<path opacity="0.1" d="M50.5995 47.3794L49.6409 46.5411L46.7256 37.3711H50.3698L53.2851 46.5411L54.2437 47.3794C55.095 48.1237 55.462 49.2797 55.1961 50.3789L52.8685 59.9996H49.2243L51.552 50.3789C51.8179 49.2796 51.4509 48.1237 50.5995 47.3794Z" fill="#093D77"/>
<path d="M32.3987 29.0854H30.2649C29.963 29.0854 29.7183 28.8407 29.7183 28.5388C29.7183 28.2369 29.963 27.9922 30.2649 27.9922H32.3987C32.7006 27.9922 32.9453 28.2369 32.9453 28.5388C32.9453 28.8407 32.7006 29.0854 32.3987 29.0854Z" fill="#093D77"/>
<path d="M33.8565 27.6273C33.7167 27.6273 33.5768 27.5739 33.47 27.4672L31.936 25.9331C31.7225 25.7196 31.7225 25.3736 31.936 25.1601C32.1495 24.9466 32.4956 24.9466 32.709 25.1601L34.243 26.6942C34.4565 26.9077 34.4565 27.2537 34.243 27.4672C34.1363 27.5739 33.9965 27.6273 33.8565 27.6273Z" fill="#093D77"/>
<path d="M32.3225 32.0765C32.1826 32.0765 32.0427 32.0232 31.936 31.9164C31.7225 31.7029 31.7225 31.3569 31.936 31.1434L33.47 29.6093C33.6835 29.3958 34.0296 29.3958 34.243 29.6093C34.4565 29.8228 34.4565 30.1689 34.243 30.3823L32.709 31.9164C32.6023 32.0231 32.4624 32.0765 32.3225 32.0765Z" fill="#093D77"/>
<g opacity="0.1">
<path d="M50.8224 47.0883H41.4758C41.1739 47.0883 40.9292 46.8436 40.9292 46.5417C40.9292 46.2398 41.1739 45.9951 41.4758 45.9951H50.8223C51.1242 45.9951 51.3689 46.2398 51.3689 46.5417C51.3689 46.8436 51.1242 47.0883 50.8224 47.0883Z" fill="#093D77"/>
</g>
</g>
<defs>
<clipPath id="clip0_6088_506">
<rect width="35" height="35" fill="white" transform="translate(25 25)"/>
</clipPath>
</defs>
</svg>
