<svg width="30" height="30" viewBox="0 0 30 30" fill="none" xmlns="http://www.w3.org/2000/svg">
<g clip-path="url(#clip0_6046_7745)">
<path d="M19.2529 22.1429V27.076H10.748V22.1429H12.3766C12.9262 22.1429 13.3729 21.6961 13.3729 21.1456V18.2061H16.6291V21.1456C16.6291 21.6961 17.0748 22.1429 17.6254 22.1429H19.2529Z" fill="white"/>
<path d="M19.2529 14.2686H10.748V16.2117H19.2529V14.2686Z" fill="white"/>
<path d="M4.07742 12.3042C4.12885 12.2981 4.17927 12.2931 4.22868 12.2891C3.71137 12.996 3.72851 13.5627 3.80414 14.2928L3.81725 14.4138C3.85053 14.7536 3.72044 14.8938 3.6196 14.9694C3.38162 15.1479 2.95809 15.1933 2.65355 15.0712C2.16851 14.8776 1.93154 14.325 2.12515 13.84C2.4912 12.9264 3.12952 12.4242 4.07742 12.3042Z" fill="white"/>
<path d="M5.66338 8.18622C5.10371 8.11261 4.69934 8.28404 4.22237 8.53513L4.13564 8.58051C3.92993 8.6874 3.83615 8.62992 3.79077 8.60269C3.62741 8.50387 3.48926 8.23765 3.48926 8.02286C3.48926 7.67496 3.77262 7.3916 4.12052 7.3916C4.90707 7.3916 5.38001 7.76169 5.66338 8.18622Z" fill="white"/>
<path d="M8.52783 2.56721C9.25993 3.2257 9.51102 3.99914 9.29623 4.9299C9.28413 4.98032 9.27203 5.02872 9.25791 5.07713C8.77287 4.34805 8.23438 4.16856 7.52346 3.98704L7.40547 3.95679C7.07573 3.87209 6.989 3.70066 6.9527 3.58066C6.86699 3.29528 6.97186 2.88183 7.19068 2.6378C7.37724 2.43007 7.63539 2.3252 7.89556 2.3252C8.12043 2.3252 8.34732 2.40486 8.52783 2.56721Z" fill="white"/>
<path d="M25.6795 13.6867C25.985 13.7996 26.1424 14.1395 26.0304 14.446C25.7783 15.1297 25.3114 15.4363 24.8506 15.5593C25.0845 15.0874 25.0624 14.6689 24.9958 14.1606L24.9837 14.0659C24.9565 13.8541 25.0331 13.7936 25.0704 13.7633C25.1612 13.6907 25.3114 13.6504 25.4576 13.6504C25.5363 13.6504 25.6129 13.6625 25.6795 13.6867Z" fill="white"/>
<path d="M24.7005 7.81346C24.882 8.08674 24.9263 8.51128 24.8003 8.78052C24.7468 8.89447 24.6369 9.05077 24.2971 9.08808L24.1761 9.10018C23.444 9.17783 22.8833 9.27867 22.2954 9.93716C22.2006 9.18388 22.3529 8.24001 23.3875 7.55128C23.5973 7.41111 23.8494 7.36069 24.0984 7.4101C24.3465 7.45951 24.5603 7.60371 24.7005 7.81346Z" fill="white"/>
<path d="M28.9787 27.0757C29.5293 27.0757 29.975 27.5214 29.975 28.072C29.975 28.6226 29.5293 29.0693 28.9787 29.0693H1.0227C0.472113 29.0693 0.0253906 28.6226 0.0253906 28.072C0.0253906 27.5214 0.472113 27.0757 1.0227 27.0757H8.75514V21.1453C8.75514 20.5947 9.20085 20.149 9.75144 20.149H11.379V18.2058H9.75144C9.20085 18.2058 8.75514 17.7591 8.75514 17.2085V13.2717C8.75514 12.7211 9.20085 12.2754 9.75144 12.2754H20.2499C20.7995 12.2754 21.2462 12.7211 21.2462 13.2717V17.2085C21.2462 17.7591 20.7995 18.2058 20.2499 18.2058H18.6214V20.149H20.2499C20.7995 20.149 21.2462 20.5947 21.2462 21.1453V27.0757H28.9787ZM19.2526 27.0757V22.1426H17.6251C17.0745 22.1426 16.6288 21.6959 16.6288 21.1453V18.2058H13.3726V21.1453C13.3726 21.6959 12.9259 22.1426 12.3763 22.1426H10.7477V27.0757H19.2526ZM19.2526 16.2122V14.269H10.7477V16.2122H19.2526Z" fill="white"/>
<path d="M26.1601 12.3769C27.1887 12.7551 27.7171 13.8996 27.3389 14.9272C26.7319 16.579 25.3554 17.0267 24.2411 17.0267C23.8378 17.0267 23.4697 16.9682 23.1843 16.8875C22.9383 16.8169 22.7497 16.6173 22.6942 16.3662C22.6388 16.1161 22.7255 15.8549 22.9201 15.6875C23.7006 15.0149 23.6835 14.8858 23.6119 14.3423L23.5988 14.2435C23.5171 13.6042 23.7309 13.0465 24.1998 12.6724C24.7221 12.2569 25.5097 12.1379 26.1601 12.3769ZM26.03 14.4462C26.142 14.1396 25.9846 13.7998 25.6791 13.6869C25.6125 13.6627 25.5359 13.6506 25.4572 13.6506C25.311 13.6506 25.1608 13.6909 25.07 13.7635C25.0327 13.7937 24.9561 13.8543 24.9833 14.066L24.9954 14.1608C25.062 14.669 25.0841 15.0875 24.8502 15.5595C25.311 15.4364 25.7779 15.1299 26.03 14.4462Z" fill="white"/>
<path d="M25.8604 7.03934C26.3152 7.72102 26.3968 8.65782 26.0631 9.37077C25.7686 10.001 25.1948 10.3933 24.4476 10.474L24.3215 10.4881C23.6005 10.5637 23.3575 10.5889 22.7071 11.8504C22.5901 12.0783 22.3572 12.2235 22.1 12.2286C22.096 12.2286 22.092 12.2286 22.0869 12.2286C21.8358 12.2286 21.6029 12.0924 21.4789 11.8726C20.8103 10.6837 20.1861 8.0074 22.6123 6.38892C23.1336 6.04203 23.7578 5.919 24.371 6.04102C24.9841 6.16404 25.5135 6.519 25.8604 7.03934ZM24.7995 8.77984C24.9256 8.5106 24.8812 8.08606 24.6997 7.81278C24.5595 7.60303 24.3457 7.45883 24.0977 7.40942C23.8486 7.36001 23.5965 7.41043 23.3868 7.5506C22.3521 8.23934 22.1999 9.1832 22.2947 9.93648C22.8826 9.27799 23.4432 9.17715 24.1753 9.0995L24.2963 9.0874C24.6362 9.05009 24.7461 8.89379 24.7995 8.77984Z" fill="white"/>
<path d="M24.8694 22.1426C25.42 22.1426 25.8657 22.5883 25.8657 23.1389C25.8657 23.6895 25.42 24.1352 24.8694 24.1352C24.3188 24.1352 23.8721 23.6895 23.8721 23.1389C23.8721 22.5883 24.3178 22.1426 24.8684 22.1426H24.8694Z" fill="white"/>
<path d="M11.7141 8.98633C12.2647 8.98633 12.7104 9.43305 12.7104 9.98364C12.7104 10.5332 12.2647 10.9799 11.7141 10.9799C11.1635 10.9799 10.7168 10.5332 10.7168 9.98364C10.7168 9.43305 11.1625 8.98633 11.7131 8.98633H11.7141Z" fill="white"/>
<path d="M9.46156 1.5308C11.6286 3.48105 10.6253 6.03937 9.79232 7.12038C9.65921 7.29282 9.4535 7.39164 9.23972 7.39164C9.2024 7.39164 9.16409 7.38862 9.12678 7.38257C8.87367 7.34021 8.66291 7.16374 8.58022 6.92072C8.11837 5.57853 7.8824 5.51803 7.17955 5.33954L7.05652 5.30828C6.32846 5.11971 5.81719 4.64879 5.61652 3.98324C5.38963 3.22996 5.60543 2.31433 6.15299 1.70526C7.01719 0.745256 8.50056 0.666601 9.46156 1.5308ZM9.29619 4.93013C9.51098 3.99937 9.25988 3.22593 8.52778 2.56744C8.34728 2.40509 8.12039 2.32542 7.89551 2.32542C7.63535 2.32542 7.37719 2.4303 7.19064 2.63803C6.97182 2.88206 6.86694 3.29551 6.95266 3.58089C6.98896 3.70089 7.07568 3.87232 7.40543 3.95702L7.52341 3.98727C8.23434 4.16879 8.77283 4.34828 9.25787 5.07736C9.27198 5.02895 9.28409 4.98055 9.29619 4.93013Z" fill="white"/>
<path d="M7.47358 9.29861C7.49375 9.55475 7.37072 9.8008 7.15493 9.93895C7.03997 10.0126 6.90888 10.0499 6.77778 10.0499C6.66182 10.0499 6.54484 10.0206 6.43896 9.96114C5.50014 9.43979 5.36703 9.50937 4.87089 9.77055L4.77913 9.81794C4.19728 10.1205 3.58921 10.1124 3.06686 9.79576C2.48501 9.44282 2.09375 8.72988 2.09375 8.02298C2.09375 6.90567 3.00333 5.99609 4.12064 5.99609C6.57509 5.99609 7.38686 8.1571 7.47358 9.29861ZM4.22249 8.53525C4.69946 8.28416 5.10383 8.11273 5.6635 8.18635C5.38014 7.76181 4.9072 7.39172 4.12064 7.39172C3.77274 7.39172 3.48938 7.67509 3.48938 8.02298C3.48938 8.23777 3.62753 8.50399 3.79089 8.60282C3.83627 8.63004 3.93005 8.68752 4.13577 8.58063L4.22249 8.53525Z" fill="white"/>
<path d="M6.43698 11.6172C6.48538 11.8693 6.3916 12.1275 6.19295 12.2898C5.09278 13.1863 5.11799 13.4293 5.19261 14.1503L5.20471 14.2764C5.27933 15.0246 5.01412 15.6669 4.45849 16.0854C4.06421 16.3809 3.55093 16.5362 3.03563 16.5362C2.72807 16.5362 2.4195 16.4807 2.13513 16.3678C0.936138 15.8878 0.350256 14.5224 0.829248 13.3234C1.91227 10.6159 4.66017 10.6743 5.96202 11.0838C6.20605 11.1604 6.38958 11.3651 6.43698 11.6172ZM4.22858 12.2898C4.17916 12.2938 4.12874 12.2989 4.07731 12.3049C3.12942 12.4249 2.4911 12.9271 2.12505 13.8407C1.93143 14.3258 2.16841 14.8784 2.65345 15.072C2.95799 15.194 3.38152 15.1486 3.6195 14.9701C3.72034 14.8945 3.85042 14.7543 3.81715 14.4145L3.80404 14.2935C3.72841 13.5634 3.71126 12.9967 4.22858 12.2898Z" fill="white"/>
<path d="M3.49145 20.498C4.04204 20.498 4.48775 20.9438 4.48775 21.4943C4.48775 22.0449 4.04204 22.4907 3.49145 22.4907C2.94086 22.4907 2.49414 22.0449 2.49414 21.4943C2.49414 20.9438 2.93986 20.498 3.49044 20.498H3.49145Z" fill="white"/>
</g>
<defs>
<clipPath id="clip0_6046_7745">
<rect width="30" height="30" fill="white"/>
</clipPath>
</defs>
</svg>
