<svg width="30" height="30" viewBox="0 0 30 30" fill="none" xmlns="http://www.w3.org/2000/svg">
<g clip-path="url(#clip0_6049_8061)">
<path fill-rule="evenodd" clip-rule="evenodd" d="M16.4773 13.3381C16.027 13.0384 15.889 12.433 16.172 11.966C18.0276 8.65772 20.2058 5.52427 22.4183 2.40922C22.7562 1.93823 24.2983 0.222248 24.733 0.576304C24.9419 0.746389 24.6566 1.51321 24.366 1.99253L19.4821 10.3333L16.7958 11.9062C16.3165 12.1968 16.1633 12.8221 16.454 13.3014C16.4615 13.3139 16.4692 13.326 16.4773 13.3381Z" fill="white"/>
<path fill-rule="evenodd" clip-rule="evenodd" d="M20.0564 8.99248L19.4818 10.3332L16.9544 11.8131C16.7715 11.3598 16.9387 10.8271 17.3701 10.5654L20.0564 8.99248Z" fill="white"/>
<path fill-rule="evenodd" clip-rule="evenodd" d="M24.3658 1.99213C24.6565 1.51267 24.9417 0.745869 24.7329 0.575748C24.2981 0.221817 22.756 1.93771 22.4181 2.40873C20.2056 5.52381 18.0274 8.65734 16.1719 11.9656C15.8812 12.445 16.0343 13.0702 16.5137 13.361C16.993 13.6517 17.6183 13.4984 17.909 13.0191L24.3658 1.99213Z" stroke="white" stroke-miterlimit="1.5" stroke-linecap="round" stroke-linejoin="round"/>
<path fill-rule="evenodd" clip-rule="evenodd" d="M15.6559 12.5865C15.6559 12.5865 16.0721 12.3822 16.3887 12.1605C17.0393 11.705 17.7661 11.6187 18.0107 11.9681C18.2552 12.3173 17.9256 12.9707 17.275 13.4263C16.7265 13.8104 15.8199 13.8967 15.8199 13.8967L14.2067 14.0988L14.4729 14.479L13.7923 14.9556C13.323 14.4781 13.0624 14.5297 12.4652 14.8927L11.8438 14.0052L13.3853 12.9258L13.4888 12.8578L15.6559 12.5865Z" fill="white"/>
<path fill-rule="evenodd" clip-rule="evenodd" d="M15.2687 12.6351L15.6557 12.5867C15.6557 12.5867 16.072 12.3824 16.3887 12.1606C17.0393 11.7052 15.8198 13.8969 15.8198 13.8969L14.7084 14.0361C14.7615 13.728 14.8853 13.1967 15.1438 12.8275C15.1933 12.7569 15.2351 12.6922 15.2687 12.6351Z" fill="white"/>
<path fill-rule="evenodd" clip-rule="evenodd" d="M15.6559 12.5865C15.6559 12.5865 16.0721 12.3822 16.3887 12.1605C17.0393 11.705 17.7661 11.6187 18.0107 11.9681C18.2552 12.3173 17.9256 12.9707 17.275 13.4263C16.7265 13.8104 15.8199 13.8967 15.8199 13.8967L14.2067 14.0988L14.4729 14.479L13.7923 14.9556C13.323 14.4781 13.0624 14.5297 12.4652 14.8927L11.8438 14.0052L13.3853 12.9258L13.4888 12.8578L15.6559 12.5865Z" stroke="white" stroke-width="2" stroke-miterlimit="1.5" stroke-linecap="round" stroke-linejoin="round"/>
<path fill-rule="evenodd" clip-rule="evenodd" d="M10.0536 17.2495C7.50426 19.405 4.79881 21.6135 2.95467 22.9048C2.30237 23.3615 1.38002 23.1714 0.896227 22.4805C0.412436 21.7895 0.549226 20.8578 1.20152 20.401C3.04566 19.1097 6.04625 17.3228 8.94368 15.6644L10.0536 17.2495Z" fill="white"/>
<path fill-rule="evenodd" clip-rule="evenodd" d="M9.60004 16.602L10.0537 17.2499C7.50433 19.4054 4.79887 21.6139 2.95473 22.9052C2.3025 23.3619 1.38012 23.1718 0.896298 22.4808C0.511946 21.9318 0.519347 21.2307 0.865883 20.7367C0.911804 20.9221 0.99255 21.1035 1.10966 21.2707C1.59348 21.9617 2.51587 22.1518 3.1681 21.6951C4.85221 20.5159 7.25455 18.5718 9.60004 16.602Z" fill="white"/>
<path fill-rule="evenodd" clip-rule="evenodd" d="M10.0536 17.2495C7.50426 19.405 4.79881 21.6135 2.95467 22.9048C2.30237 23.3615 1.38002 23.1714 0.896227 22.4805C0.412435 21.7895 0.549226 20.8578 1.20152 20.401C3.04566 19.1097 6.04625 17.3228 8.94368 15.6644L10.0536 17.2495Z" stroke="white" stroke-width="2" stroke-miterlimit="1.5" stroke-linecap="round" stroke-linejoin="round"/>
<path fill-rule="evenodd" clip-rule="evenodd" d="M8.64556 15.2385C9.65992 14.7071 10.6729 14.1887 11.6333 13.7046L12.8152 15.3925C12.0318 16.1294 11.1982 16.904 10.3519 17.6754L8.64556 15.2385Z" fill="white"/>
<path fill-rule="evenodd" clip-rule="evenodd" d="M12.2495 14.5852L12.8151 15.393C12.0318 16.13 11.1982 16.9045 10.3519 17.6759L9.17779 15.9991L9.77307 16.7176C10.3806 16.1639 11.421 15.3007 12.2495 14.5852Z" fill="white"/>
<path fill-rule="evenodd" clip-rule="evenodd" d="M8.64556 15.2385C9.65992 14.7071 10.6729 14.1887 11.6333 13.7046L12.8152 15.3925C12.0318 16.1294 11.1982 16.904 10.3519 17.6754L8.64556 15.2385Z" stroke="white" stroke-width="2" stroke-miterlimit="1.5" stroke-linecap="round" stroke-linejoin="round"/>
<path fill-rule="evenodd" clip-rule="evenodd" d="M27.8228 5.44868C28.3023 5.15791 29.0691 4.87271 29.2392 5.08159C29.5931 5.51635 27.8772 7.05843 27.4062 7.39631C24.2911 9.60885 21.1576 11.787 17.8493 13.6426C17.37 13.9332 16.7447 13.7802 16.454 13.3008C16.1633 12.8214 16.3165 12.1962 16.7958 11.9055L27.8228 5.44868Z" fill="white" stroke="white" stroke-miterlimit="1.5" stroke-linecap="round" stroke-linejoin="round"/>
<path fill-rule="evenodd" clip-rule="evenodd" d="M17.2284 14.159C17.2284 14.159 17.4327 13.7428 17.6544 13.4262C18.1099 12.7756 18.1962 12.0489 17.8469 11.8043C17.4976 11.5597 16.8442 11.8894 16.3887 12.5399C16.0046 13.0884 15.9182 13.995 15.9182 13.995L15.7162 15.6083L15.336 15.342L14.8594 16.0227C15.3368 16.4919 15.2853 16.7526 14.9222 17.3497L15.8098 17.9712L16.8892 16.4296L16.9572 16.3261L17.2284 14.159Z" fill="white" stroke="white" stroke-width="2" stroke-miterlimit="1.5" stroke-linecap="round" stroke-linejoin="round"/>
<path fill-rule="evenodd" clip-rule="evenodd" d="M14.1485 21.0097C12.4901 23.9071 10.7031 26.9077 9.41181 28.7518C8.95506 29.4041 8.0233 29.5409 7.33238 29.0571C6.64145 28.5733 6.45132 27.651 6.90806 26.9987C8.19935 25.1545 10.4078 22.4491 12.5633 19.8997L14.1485 21.0097Z" fill="white"/>
<path fill-rule="evenodd" clip-rule="evenodd" d="M13.5004 20.5562L14.1484 21.01C12.4899 23.9074 10.703 26.908 9.41169 28.7521C8.95499 29.4044 8.02322 29.5412 7.33225 29.0574C6.7833 28.6729 6.55048 28.0116 6.70716 27.4289C6.8137 27.5873 6.95163 27.7302 7.11888 27.8473C7.80985 28.3311 8.74162 28.1943 9.19832 27.5421C10.3776 25.858 11.9701 23.2095 13.5004 20.5562Z" fill="white"/>
<path fill-rule="evenodd" clip-rule="evenodd" d="M14.1485 21.0097C12.4901 23.9071 10.7031 26.9077 9.41181 28.7518C8.95506 29.4041 8.0233 29.5409 7.33238 29.0571C6.64145 28.5733 6.45132 27.651 6.90806 26.9987C8.19935 25.1545 10.4078 22.4491 12.5633 19.8997L14.1485 21.0097Z" stroke="white" stroke-width="2" stroke-miterlimit="1.5" stroke-linecap="round" stroke-linejoin="round"/>
<path fill-rule="evenodd" clip-rule="evenodd" d="M12.137 19.6015C12.9084 18.7552 13.683 17.9216 14.4199 17.1382L16.1078 18.3201C15.6237 19.2806 15.1053 20.2935 14.5739 21.3079L12.137 19.6015Z" fill="white"/>
<path fill-rule="evenodd" clip-rule="evenodd" d="M15.3003 17.7546L16.1081 18.3203C15.624 19.2808 15.1056 20.2937 14.5742 21.308L12.8974 20.1339L13.7025 20.6054C14.084 19.8773 14.7665 18.7104 15.3003 17.7546Z" fill="white"/>
<path fill-rule="evenodd" clip-rule="evenodd" d="M12.137 19.6015C12.9084 18.7552 13.683 17.9216 14.4199 17.1382L16.1078 18.3201C15.6237 19.2806 15.1053 20.2935 14.5739 21.3079L12.137 19.6015Z" stroke="white" stroke-width="2" stroke-miterlimit="1.5" stroke-linecap="round" stroke-linejoin="round"/>
</g>
<defs>
<clipPath id="clip0_6049_8061">
<rect width="30" height="30" fill="white"/>
</clipPath>
</defs>
</svg>
