<svg width="85" height="85" viewBox="0 0 85 85" fill="none" xmlns="http://www.w3.org/2000/svg">
<rect width="85" height="85" rx="29" fill="#EDFCFF"/>
<g clip-path="url(#clip0_6088_550)">
<path fill-rule="evenodd" clip-rule="evenodd" d="M44.2232 40.5608C43.6979 40.2111 43.5369 39.5048 43.8671 38.9601C46.0319 35.1003 48.5732 31.4447 51.1545 27.8104C51.5487 27.2609 53.3477 25.259 53.8549 25.672C54.0987 25.8705 53.7658 26.7651 53.4267 27.3243L47.7289 37.0552L44.5948 38.8902C44.0356 39.2293 43.857 39.9588 44.1961 40.518C44.2048 40.5325 44.2138 40.5467 44.2232 40.5608Z" fill="#093D77"/>
<path fill-rule="evenodd" clip-rule="evenodd" d="M48.3993 35.4911L47.7289 37.0553L44.7802 38.7818C44.5668 38.2529 44.7619 37.6315 45.2652 37.3261L48.3993 35.4911Z" fill="#093D77"/>
<path fill-rule="evenodd" clip-rule="evenodd" d="M53.4271 27.3245C53.7663 26.7651 54.099 25.8705 53.8553 25.672C53.3481 25.2591 51.549 27.261 51.1548 27.8105C48.5735 31.4448 46.0323 35.1006 43.8675 38.9602C43.5284 39.5194 43.707 40.2489 44.2663 40.5881C44.8255 40.9273 45.555 40.7485 45.8941 40.1893L53.4271 27.3245Z" stroke="#093D77" stroke-miterlimit="1.5" stroke-linecap="round" stroke-linejoin="round"/>
<path fill-rule="evenodd" clip-rule="evenodd" d="M43.2649 39.6849C43.2649 39.6849 43.7504 39.4466 44.1198 39.1879C44.8788 38.6565 45.7267 38.5558 46.0121 38.9634C46.2974 39.3709 45.9128 40.1332 45.1538 40.6646C44.5139 41.1127 43.4562 41.2135 43.4562 41.2135L41.5741 41.4492L41.8846 41.8928L41.0906 42.4488C40.5431 41.8918 40.239 41.952 39.5424 42.3755L38.8173 41.34L40.6158 40.0807L40.7366 40.0014L43.2649 39.6849Z" fill="#093D77"/>
<path fill-rule="evenodd" clip-rule="evenodd" d="M42.8133 39.7404L43.2648 39.684C43.2648 39.684 43.7505 39.4457 44.1199 39.1869C44.8789 38.6555 43.4562 41.2126 43.4562 41.2126L42.1596 41.3749C42.2216 41.0155 42.3659 40.3956 42.6675 39.9649C42.7252 39.8825 42.7741 39.8071 42.8133 39.7404Z" fill="#093D77"/>
<path fill-rule="evenodd" clip-rule="evenodd" d="M43.2649 39.6849C43.2649 39.6849 43.7504 39.4466 44.1198 39.1879C44.8788 38.6565 45.7267 38.5558 46.0121 38.9634C46.2974 39.3709 45.9128 40.1332 45.1538 40.6646C44.5139 41.1127 43.4562 41.2135 43.4562 41.2135L41.5741 41.4492L41.8846 41.8928L41.0906 42.4488C40.5431 41.8918 40.239 41.952 39.5424 42.3755L38.8173 41.34L40.6158 40.0807L40.7366 40.0014L43.2649 39.6849Z" stroke="#093D77" stroke-width="2" stroke-miterlimit="1.5" stroke-linecap="round" stroke-linejoin="round"/>
<path fill-rule="evenodd" clip-rule="evenodd" d="M36.7292 45.1254C33.755 47.6402 30.5986 50.2167 28.4471 51.7232C27.6861 52.2561 26.61 52.0342 26.0456 51.2282C25.4812 50.4221 25.6408 49.335 26.4018 48.8022C28.5533 47.2957 32.054 45.2109 35.4343 43.2761L36.7292 45.1254Z" fill="#093D77"/>
<path fill-rule="evenodd" clip-rule="evenodd" d="M36.2 44.3691L36.7293 45.1251C33.755 47.6398 30.5986 50.2163 28.4471 51.7228C27.6862 52.2557 26.6101 52.0339 26.0456 51.2278C25.5972 50.5872 25.6058 49.7693 26.0101 49.193C26.0637 49.4092 26.1579 49.6209 26.2945 49.816C26.859 50.6222 27.9351 50.8439 28.696 50.3111C30.6608 48.9353 33.4636 46.6673 36.2 44.3691Z" fill="#093D77"/>
<path fill-rule="evenodd" clip-rule="evenodd" d="M36.7292 45.1254C33.755 47.6402 30.5986 50.2167 28.4471 51.7232C27.6861 52.2561 26.61 52.0342 26.0456 51.2282C25.4812 50.4221 25.6408 49.335 26.4018 48.8022C28.5533 47.2957 32.054 45.2109 35.4343 43.2761L36.7292 45.1254Z" stroke="#093D77" stroke-width="2" stroke-miterlimit="1.5" stroke-linecap="round" stroke-linejoin="round"/>
<path fill-rule="evenodd" clip-rule="evenodd" d="M35.0863 42.7783C36.2697 42.1582 37.4515 41.5535 38.5721 40.9887L39.9509 42.9579C39.0369 43.8177 38.0645 44.7214 37.0771 45.6213L35.0863 42.7783Z" fill="#093D77"/>
<path fill-rule="evenodd" clip-rule="evenodd" d="M39.2907 42.0162L39.9506 42.9587C39.0367 43.8185 38.0642 44.7221 37.0768 45.6221L35.707 43.6658L36.4015 44.504C37.1102 43.858 38.3241 42.851 39.2907 42.0162Z" fill="#093D77"/>
<path fill-rule="evenodd" clip-rule="evenodd" d="M35.0863 42.7783C36.2697 42.1582 37.4515 41.5535 38.5721 40.9887L39.9509 42.9579C39.0369 43.8177 38.0645 44.7214 37.0771 45.6213L35.0863 42.7783Z" stroke="#093D77" stroke-width="2" stroke-miterlimit="1.5" stroke-linecap="round" stroke-linejoin="round"/>
<path fill-rule="evenodd" clip-rule="evenodd" d="M57.4597 31.3571C58.0191 31.0179 58.9137 30.6851 59.1121 30.9288C59.5251 31.4361 57.5232 33.2352 56.9737 33.6294C53.3394 36.2107 49.6836 38.7519 45.8239 40.9166C45.2647 41.2558 44.5352 41.0772 44.1961 40.5179C43.8569 39.9586 44.0357 39.2292 44.5949 38.8901L57.4597 31.3571Z" fill="#093D77" stroke="#093D77" stroke-miterlimit="1.5" stroke-linecap="round" stroke-linejoin="round"/>
<path fill-rule="evenodd" clip-rule="evenodd" d="M45.0998 41.5193C45.0998 41.5193 45.3381 41.0338 45.5967 40.6644C46.1282 39.9054 46.2288 39.0575 45.8213 38.7721C45.4138 38.4868 44.6515 38.8714 44.12 39.6304C43.6719 40.2703 43.5712 41.328 43.5712 41.328L43.3354 43.2101L42.8919 42.8995L42.3358 43.6936C42.8929 44.2411 42.8327 44.5452 42.4092 45.2418L43.4446 45.9668L44.7039 44.1684L44.7833 44.0476L45.0998 41.5193Z" fill="#093D77" stroke="#093D77" stroke-width="2" stroke-miterlimit="1.5" stroke-linecap="round" stroke-linejoin="round"/>
<path fill-rule="evenodd" clip-rule="evenodd" d="M41.5063 49.511C39.5715 52.8913 37.4867 56.392 35.9802 58.5435C35.4473 59.3045 34.3603 59.4641 33.5542 58.8996C32.7481 58.3352 32.5263 57.2591 33.0592 56.4981C34.5657 54.3466 37.1422 51.1903 39.6569 48.216L41.5063 49.511Z" fill="#093D77"/>
<path fill-rule="evenodd" clip-rule="evenodd" d="M40.7503 48.9825L41.5062 49.5118C39.5713 52.8921 37.4866 56.3928 35.9801 58.5443C35.4472 59.3052 34.3602 59.4649 33.554 58.9004C32.9136 58.4519 32.642 57.6804 32.8248 57.0005C32.9491 57.1854 33.11 57.3521 33.3051 57.4887C34.1112 58.0532 35.1983 57.8935 35.7311 57.1326C37.1069 55.1678 38.9649 52.0779 40.7503 48.9825Z" fill="#093D77"/>
<path fill-rule="evenodd" clip-rule="evenodd" d="M41.5063 49.511C39.5715 52.8913 37.4867 56.392 35.9802 58.5435C35.4473 59.3045 34.3603 59.4641 33.5542 58.8996C32.7481 58.3352 32.5263 57.2591 33.0592 56.4981C34.5657 54.3466 37.1422 51.1903 39.6569 48.216L41.5063 49.511Z" stroke="#093D77" stroke-width="2" stroke-miterlimit="1.5" stroke-linecap="round" stroke-linejoin="round"/>
<path fill-rule="evenodd" clip-rule="evenodd" d="M39.1602 47.8683C40.0602 46.8809 40.9639 45.9084 41.8237 44.9944L43.7928 46.3733C43.228 47.4938 42.6233 48.6756 42.0033 49.859L39.1602 47.8683Z" fill="#093D77"/>
<path fill-rule="evenodd" clip-rule="evenodd" d="M42.8503 45.7133L43.7927 46.3732C43.228 47.4938 42.6232 48.6755 42.0032 49.8588L40.0469 48.4891L40.9862 49.0392C41.4312 48.1898 42.2275 46.8283 42.8503 45.7133Z" fill="#093D77"/>
<path fill-rule="evenodd" clip-rule="evenodd" d="M39.1602 47.8683C40.0602 46.8809 40.9639 45.9084 41.8237 44.9944L43.7928 46.3733C43.228 47.4938 42.6233 48.6756 42.0033 49.859L39.1602 47.8683Z" stroke="#093D77" stroke-width="2" stroke-miterlimit="1.5" stroke-linecap="round" stroke-linejoin="round"/>
</g>
<defs>
<clipPath id="clip0_6088_550">
<rect width="35" height="35" fill="white" transform="translate(25 25)"/>
</clipPath>
</defs>
</svg>
