<svg width="30" height="30" viewBox="0 0 30 30" fill="none" xmlns="http://www.w3.org/2000/svg">
<g clip-path="url(#clip0_6049_8057)">
<path d="M26.25 3.75V6.25C26.25 11.0825 22.3325 15 17.5 15H16.25V16.25H22.5V25C22.5 26.3812 21.3813 27.5 20 27.5H10C8.61875 27.5 7.5 26.3812 7.5 25V16.25H13.75V12.5C13.75 7.6675 17.6675 3.75 22.5 3.75H26.25ZM6.875 2.5C10.0363 2.5 12.8312 4.06375 14.53 6.46125C13.255 8.1375 12.5 10.2312 12.5 12.5V13.75H11.875C6.6975 13.75 2.5 9.5525 2.5 4.375V2.5H6.875Z" fill="white"/>
</g>
<defs>
<clipPath id="clip0_6049_8057">
<rect width="30" height="30" fill="white"/>
</clipPath>
</defs>
</svg>
