<svg width="30" height="30" viewBox="0 0 30 30" fill="none" xmlns="http://www.w3.org/2000/svg">
<g clip-path="url(#clip0_6049_8104)">
<path d="M28.8119 15.0004C28.8119 12.217 28.6464 9.62715 27.8411 7.45311C29.0622 4.90875 29.4981 2.48954 29.4981 1.40392C29.4981 -1.37669 23.0069 0.831566 14.9998 0.831566C6.99275 0.831566 0.501465 -1.37669 0.501465 1.40386C0.501465 2.44872 0.902257 4.72963 2.02209 7.16896C1.23414 9.39923 1.18724 12.0955 1.18724 15.0003C1.18724 17.7832 1.35316 20.3726 2.15849 22.5467C0.937427 25.091 0.501465 27.5107 0.501465 28.5968C0.501465 31.3765 6.99269 29.1682 14.9998 29.1682C23.0069 29.1682 29.4981 31.3765 29.4981 28.5968C29.4981 27.5511 28.9674 25.2687 27.7337 22.8285C28.6347 20.5986 28.8119 17.9038 28.8119 15.0004Z" fill="white"/>
<path d="M15 29.1682C23.0071 29.1682 29.4983 31.3765 29.4983 28.5968C29.4983 27.5511 28.9677 25.2687 27.7339 22.8284C28.6348 20.5986 28.8121 17.9038 28.8121 15.0004C28.8121 12.217 28.6466 9.62713 27.8413 7.4531C29.0624 4.90874 29.4983 2.48953 29.4983 1.40391C29.4983 -1.3767 23.0071 0.831552 15 0.831552" fill="white"/>
<path d="M14.9997 0.831599C7.66808 0.831599 1.61139 -1.01716 0.640625 0.804879C3.11702 1.59706 8.6126 2.14829 14.9997 2.14829C21.3869 2.14829 26.8829 1.59706 29.3589 0.805355C28.3881 -1.01716 22.3314 0.831599 14.9997 0.831599Z" fill="white"/>
<path d="M29.3591 0.805151C29.3591 0.804675 29.3581 0.804199 29.3581 0.804199C29.3295 0.749808 29.2953 0.699225 29.2573 0.65138C29.2545 0.648107 29.2526 0.644834 29.2526 0.644834C29.2123 0.594668 29.1692 0.551524 29.1237 0.510285C29.12 0.507488 29.1162 0.503739 29.1129 0.500882C29.0656 0.460119 29.014 0.422152 28.9592 0.387459C28.9554 0.385554 28.9526 0.38371 28.9493 0.381389C27.6875 -0.400021 24.3383 0.207504 20.0216 0.586694C19.9892 0.589491 19.956 0.592348 19.9236 0.595144C19.7488 0.610141 19.5721 0.624661 19.3944 0.639657C19.334 0.644358 19.2735 0.649059 19.213 0.653701C19.0579 0.665424 18.9013 0.677148 18.7433 0.688395C18.6702 0.693572 18.5971 0.69869 18.5235 0.703391C18.3754 0.71321 18.2259 0.723088 18.0759 0.732431C17.9934 0.737609 17.9128 0.74225 17.8307 0.746951C17.6859 0.755402 17.5396 0.762424 17.3929 0.769922C17.3057 0.774147 17.219 0.778848 17.1318 0.782121C16.9856 0.788667 16.8379 0.793844 16.6908 0.799438C16.6026 0.802235 16.5159 0.805984 16.4278 0.808841C16.2684 0.814018 16.1081 0.817291 15.9483 0.820564C15.8714 0.821992 15.795 0.824313 15.7177 0.825741C15.4795 0.82949 15.241 0.831394 15 0.831394V2.14809C21.3871 2.14809 26.8827 1.59686 29.3591 0.805151Z" fill="white"/>
<path d="M3.92592 15.0003C3.92592 11.3014 2.99496 8.0403 1.57752 6.11328C1.71207 6.45968 1.85876 6.81215 2.02235 7.16938C1.23439 9.39966 1.1875 12.0959 1.1875 15.0007C1.1875 17.7837 1.35341 20.373 2.15874 22.5471C1.94267 22.9981 1.75141 23.4439 1.58264 23.8807C2.99687 21.9517 3.92592 18.6945 3.92592 15.0003Z" fill="white"/>
<path d="M26.0742 14.9996C26.0742 18.0712 26.7173 20.8392 27.7467 22.7939C28.6355 20.5711 28.8117 17.8889 28.8117 15C28.8117 12.2166 28.6462 9.62677 27.8409 7.45273C28.057 7.00178 28.2478 6.55558 28.417 6.11914C27.0033 8.04806 26.0742 11.3054 26.0742 14.9996Z" fill="white"/>
<path d="M14.9999 26.1323C12.6628 26.1328 10.4653 25.2225 8.8129 23.5697C5.40091 20.1587 5.40091 14.6073 8.8129 11.1953C9.0876 10.9206 9.53243 10.9206 9.80712 11.1953C10.0818 11.47 10.0818 11.9148 9.80712 12.1895C6.94403 15.0531 6.94403 19.7124 9.80712 22.5755C12.6707 25.4381 17.3291 25.4381 20.1927 22.5755C21.5797 21.1885 22.3432 19.344 22.3432 17.3823C22.3432 15.4206 21.5796 13.5765 20.1927 12.1895C19.918 11.9148 19.918 11.47 20.1927 11.1953C20.4673 10.9206 20.9122 10.9206 21.1869 11.1953C22.8392 12.8476 23.7495 15.0451 23.7495 17.3827C23.7495 19.7194 22.8397 21.9173 21.1869 23.5697C19.5341 25.222 17.3371 26.1323 14.9999 26.1323Z" fill="#2C66A6"/>
<path d="M21.187 23.5697C22.8393 21.9173 23.7496 19.7194 23.7496 17.3827C23.7496 15.0451 22.8398 12.8476 21.187 11.1953C20.9123 10.9206 20.4675 10.9206 20.1928 11.1953C19.9181 11.47 19.9181 11.9148 20.1928 12.1895C21.5798 13.5765 22.3434 15.4211 22.3434 17.3823C22.3434 19.3445 21.5798 21.1885 20.1928 22.5755C18.7608 24.007 16.8807 24.7223 15 24.7223V26.1323C17.3372 26.1323 19.5347 25.2225 21.187 23.5697Z" fill="#2C66A6"/>
<path d="M15.1564 22.4597C15.1564 22.5464 15.0861 22.6163 14.9998 22.6163C14.9136 22.6163 14.8433 22.5464 14.8433 22.4597V9.10043C14.8433 9.0142 14.9136 8.94434 14.9998 8.94434C15.0861 8.94434 15.1564 9.0142 15.1564 9.10043V22.4597Z" fill="#2C66A6"/>
<path d="M14.9998 23.5132C15.3395 23.5132 15.6148 23.2379 15.6148 22.8982C15.6148 22.5586 15.3395 22.2832 14.9998 22.2832C14.6601 22.2832 14.3848 22.5586 14.3848 22.8982C14.3848 23.2379 14.6601 23.5132 14.9998 23.5132Z" fill="#2C66A6"/>
<path d="M15.0056 5.54199C14.356 5.86072 13.8643 7.29465 13.8643 7.979C13.8643 8.66335 14.3565 9.231 15.0056 9.3524V5.54199Z" fill="#2C66A6"/>
<path d="M14.9941 5.54199C15.6438 5.86072 16.135 7.29465 16.135 7.979C16.135 8.66335 15.6433 9.231 14.9941 9.3524V5.54199Z" fill="#2C66A6"/>
<path d="M17.8747 9.81471C17.1899 9.58126 15.8286 10.2478 15.3444 10.7316C14.8611 11.2153 14.8072 11.9648 15.1804 12.509L17.8747 9.81471Z" fill="#2C66A6"/>
<path d="M17.8672 9.80762C18.1006 10.492 17.4341 11.8537 16.9508 12.3375C16.4666 12.8212 15.7175 12.8746 15.1729 12.502L17.8672 9.80762Z" fill="#2C66A6"/>
<path d="M17.8747 12.9788C17.1899 12.7453 15.8286 13.4119 15.3444 13.8956C14.8611 14.3794 14.8072 15.1289 15.1804 15.6731L17.8747 12.9788Z" fill="#2C66A6"/>
<path d="M17.8672 12.9717C18.1006 13.656 17.4341 15.0178 16.9508 15.5015C16.4666 15.9853 15.7175 16.0387 15.1729 15.6661L17.8672 12.9717Z" fill="#2C66A6"/>
<path d="M17.8747 16.1428C17.1899 15.9094 15.8286 16.5759 15.3444 17.0597C14.8611 17.5434 14.8072 18.2929 15.1804 18.8372L17.8747 16.1428Z" fill="#2C66A6"/>
<path d="M17.8672 16.1357C18.1006 16.8201 17.4341 18.1818 16.9508 18.6656C16.4666 19.1493 15.7175 19.2028 15.1729 18.8301L17.8672 16.1357Z" fill="#2C66A6"/>
<path d="M17.3947 19.7856C16.8317 19.5938 15.7119 20.1418 15.3144 20.5393C14.916 20.9373 14.8724 21.5532 15.1789 22.0009L17.3947 19.7856Z" fill="#2C66A6"/>
<path d="M17.3886 19.7793C17.5808 20.3423 17.0333 21.4621 16.6354 21.8596C16.2374 22.2571 15.6219 22.3012 15.1733 21.9946L17.3886 19.7793Z" fill="#2C66A6"/>
<path d="M12.125 9.81471C12.8098 9.58126 14.1711 10.2478 14.6553 10.7316C15.1386 11.2153 15.1925 11.9648 14.8194 12.509L12.125 9.81471Z" fill="#2C66A6"/>
<path d="M12.1326 9.80762C11.8991 10.492 12.5657 11.8537 13.049 12.3375C13.5332 12.8212 14.2822 12.8746 14.8269 12.502L12.1326 9.80762Z" fill="#2C66A6"/>
<path d="M12.125 12.9788C12.8098 12.7453 14.1711 13.4119 14.6553 13.8956C15.1386 14.3794 15.1925 15.1289 14.8194 15.6731L12.125 12.9788Z" fill="#2C66A6"/>
<path d="M12.1326 12.9717C11.8991 13.656 12.5657 15.0178 13.049 15.5015C13.5332 15.9853 14.2822 16.0387 14.8269 15.6661L12.1326 12.9717Z" fill="#2C66A6"/>
<path d="M12.125 16.1428C12.8098 15.9094 14.1711 16.5759 14.6553 17.0597C15.1386 17.5434 15.1925 18.2929 14.8194 18.8372L12.125 16.1428Z" fill="#2C66A6"/>
<path d="M12.1326 16.1357C11.8991 16.8201 12.5657 18.1818 13.049 18.6656C13.5332 19.1493 14.2822 19.2028 14.8269 18.8301L12.1326 16.1357Z" fill="#2C66A6"/>
<path d="M12.605 19.7856C13.1679 19.5938 14.2878 20.1418 14.6853 20.5393C15.0837 20.9373 15.1273 21.5532 14.8207 22.0009L12.605 19.7856Z" fill="#2C66A6"/>
<path d="M12.6115 19.7793C12.4192 20.3423 12.9668 21.4621 13.3647 21.8596C13.7627 22.2571 14.3782 22.3012 14.8267 21.9946L12.6115 19.7793Z" fill="#2C66A6"/>
</g>
<defs>
<clipPath id="clip0_6049_8104">
<rect width="30" height="30" fill="white"/>
</clipPath>
</defs>
</svg>
