<svg width="30" height="30" viewBox="0 0 30 30" fill="none" xmlns="http://www.w3.org/2000/svg">
<g clip-path="url(#clip0_6049_8134)">
<path d="M13.3917 1.83301H10.1357V4.23324H13.3917V1.83301Z" fill="white"/>
<path d="M11.4197 9.02402C11.0071 9.02402 10.6228 8.76252 10.4858 8.34943C10.3148 7.83363 10.5943 7.27676 11.1101 7.10566C12.9698 6.48897 13.9698 3.9463 13.9793 3.92075C14.1704 3.41192 14.7377 3.15429 15.2464 3.34524C15.7553 3.5362 16.0129 4.1035 15.8219 4.61233C15.7693 4.75243 14.5021 8.05424 11.7295 8.97363C11.6268 9.00785 11.5223 9.02402 11.4197 9.02402Z" fill="white"/>
<path opacity="0.1" d="M14.9158 6.32496C15.5053 5.43985 15.7974 4.67807 15.8221 4.61233C16.0131 4.1035 15.7554 3.5362 15.2466 3.34524C14.7378 3.15429 14.1705 3.41192 13.9795 3.92075C13.9724 3.93973 13.4179 5.3492 12.3701 6.32496H14.9158Z" fill="white"/>
<path d="M24.1232 4.40322L22.4519 1.91328C22.1958 1.53166 21.7663 1.30273 21.3067 1.30273H12.3154V4.76339H16.7844V9.07465H20.0442V7.9302C20.0442 7.16848 20.6616 6.55102 21.4233 6.55102H22.9779C24.0815 6.55108 24.7382 5.3195 24.1232 4.40322Z" fill="white"/>
<g opacity="0.1">
<path d="M24.1235 4.40316L22.4522 1.91328C22.1961 1.53172 21.7667 1.30273 21.3071 1.30273H20.0576C20.5172 1.30273 20.9467 1.53172 21.2028 1.91328L22.874 4.40316C23.489 5.31945 22.8324 6.55097 21.7289 6.55097H22.9783C24.0818 6.55103 24.7385 5.31945 24.1235 4.40316Z" fill="white"/>
</g>
<path d="M20.8857 8.15332H15.3701V11.9166H20.8857V8.15332Z" fill="white"/>
<path opacity="0.1" d="M20.8857 8.15332H18.6992V11.9166H20.8857V8.15332Z" fill="white"/>
<path d="M25.0657 19.1831L24.244 18.4646L21.7452 10.6045H14.5097L12.0109 18.4646L11.1892 19.1831C10.4595 19.8212 10.1449 20.8119 10.3729 21.7541L12.368 30.0004H23.887L25.8821 21.7541C26.11 20.8119 25.7954 19.8211 25.0657 19.1831Z" fill="white"/>
<path opacity="0.1" d="M21.9426 19.183L21.1209 18.4645L18.6221 10.6045H21.7456L24.2445 18.4645L25.0661 19.183C25.7959 19.821 26.1105 20.8119 25.8825 21.754L23.8874 30.0004H20.7638L22.759 21.754C22.9869 20.8118 22.6723 19.821 21.9426 19.183Z" fill="white"/>
<path d="M6.34146 3.50148H4.51246C4.25371 3.50148 4.04395 3.29172 4.04395 3.03297C4.04395 2.77422 4.25371 2.56445 4.51246 2.56445H6.34146C6.60021 2.56445 6.80998 2.77422 6.80998 3.03297C6.80998 3.29172 6.60021 3.50148 6.34146 3.50148Z" fill="white"/>
<path d="M7.59105 2.25194C7.47116 2.25194 7.35122 2.20624 7.25976 2.11472L5.94486 0.799818C5.76187 0.61683 5.76187 0.320229 5.94486 0.137241C6.12785 -0.045747 6.42451 -0.045747 6.60744 0.137241L7.92233 1.45214C8.10532 1.63513 8.10532 1.93173 7.92233 2.11472C7.83087 2.20624 7.71099 2.25194 7.59105 2.25194Z" fill="white"/>
<path d="M6.27615 6.06542C6.15626 6.06542 6.03632 6.01972 5.94486 5.92819C5.76187 5.74521 5.76187 5.44861 5.94486 5.26562L7.25976 3.95072C7.44275 3.76773 7.73941 3.76773 7.92233 3.95072C8.10532 4.13371 8.10532 4.43031 7.92233 4.61329L6.60744 5.92819C6.51597 6.01966 6.39609 6.06542 6.27615 6.06542Z" fill="white"/>
<g opacity="0.1">
<path d="M22.1332 18.9331H14.1218C13.8631 18.9331 13.6533 18.7234 13.6533 18.4646C13.6533 18.2059 13.8631 17.9961 14.1218 17.9961H22.1331C22.3919 17.9961 22.6016 18.2059 22.6016 18.4646C22.6016 18.7234 22.3919 18.9331 22.1332 18.9331Z" fill="white"/>
</g>
</g>
<defs>
<clipPath id="clip0_6049_8134">
<rect width="30" height="30" fill="white"/>
</clipPath>
</defs>
</svg>
