<svg width="85" height="85" viewBox="0 0 85 85" fill="none" xmlns="http://www.w3.org/2000/svg">
<rect width="85" height="85" rx="29" fill="#EDFCFF"/>
<path d="M53.3449 25.7588C52.2022 25.7588 51.2759 26.6851 51.2759 27.8278V45.7587C51.2759 46.9014 52.2022 47.8277 53.3449 47.8277C54.4875 47.8277 55.4138 46.9014 55.4138 45.7587V27.8278C55.4138 26.6851 54.4876 25.7588 53.3449 25.7588Z" fill="#093D77"/>
<path d="M53.3449 45.7587V27.8277C53.3449 27.0638 53.7635 26.4041 54.3793 26.0457C54.0738 25.868 53.7236 25.7588 53.3449 25.7588C52.2022 25.7588 51.2759 26.6851 51.2759 27.8278V45.7587C51.2759 46.9013 52.2022 47.8277 53.3449 47.8277C53.7237 47.8277 54.074 47.7184 54.3793 47.5407C53.7635 47.1823 53.3449 46.5226 53.3449 45.7587Z" fill="#093D77"/>
<path d="M45.069 25.7588C43.9263 25.7588 43 26.6851 43 27.8278V45.7587C43 46.9014 43.9263 47.8277 45.069 47.8277C46.2116 47.8277 47.138 46.9014 47.138 45.7587V27.8278C47.138 26.6851 46.2117 25.7588 45.069 25.7588Z" fill="#093D77"/>
<path d="M45.069 45.7587V27.8277C45.069 27.0638 45.4876 26.4041 46.1034 26.0457C45.798 25.868 45.4477 25.7588 45.069 25.7588C43.9263 25.7588 43 26.6851 43 27.8278V45.7587C43 46.9013 43.9263 47.8277 45.069 47.8277C45.4478 47.8277 45.7981 47.7184 46.1034 47.5407C45.4877 47.1823 45.069 46.5226 45.069 45.7587Z" fill="#093D77"/>
<path d="M49.2067 25.7588C48.064 25.7588 47.1377 26.6851 47.1377 27.8278V45.7587C47.1377 46.9014 48.064 47.8277 49.2067 47.8277C50.3493 47.8277 51.2757 46.9014 51.2757 45.7587V27.8278C51.2757 26.6851 50.3493 25.7588 49.2067 25.7588Z" fill="#093D77"/>
<path d="M49.2067 45.7587V27.8277C49.2067 27.0638 49.6253 26.4041 50.2411 26.0457C49.9357 25.868 49.5854 25.7588 49.2067 25.7588C48.064 25.7588 47.1377 26.6851 47.1377 27.8278V45.7587C47.1377 46.9013 48.064 47.8277 49.2067 47.8277C49.5855 47.8277 49.9358 47.7184 50.2411 47.5407C49.6253 47.1823 49.2067 46.5226 49.2067 45.7587Z" fill="#093D77"/>
<path d="M32.6554 25.7588C31.5128 25.7588 30.5864 26.6851 30.5864 27.8278V45.7587C30.5864 46.9014 31.5128 47.8277 32.6554 47.8277C33.7981 47.8277 34.7244 46.9014 34.7244 45.7587V27.8278C34.7244 26.6851 33.7981 25.7588 32.6554 25.7588Z" fill="#093D77"/>
<path d="M32.6554 45.7587V27.8277C32.6554 27.0638 33.074 26.4041 33.6899 26.0457C33.3844 25.868 33.0342 25.7588 32.6554 25.7588C31.5128 25.7588 30.5864 26.6851 30.5864 27.8278V45.7587C30.5864 46.9013 31.5128 47.8277 32.6554 47.8277C33.0342 47.8277 33.3845 47.7184 33.6899 47.5407C33.074 47.1823 32.6554 46.5226 32.6554 45.7587Z" fill="#093D77"/>
<path d="M36.7931 25.7588C35.6504 25.7588 34.7241 26.6851 34.7241 27.8278V45.7587C34.7241 46.9014 35.6504 47.8277 36.7931 47.8277C37.9358 47.8277 38.8621 46.9014 38.8621 45.7587V27.8278C38.8621 26.6851 37.9358 25.7588 36.7931 25.7588Z" fill="#093D77"/>
<path d="M36.7931 45.7587V27.8277C36.7931 27.0638 37.2117 26.4041 37.8276 26.0457C37.5221 25.868 37.1719 25.7588 36.7931 25.7588C35.6504 25.7588 34.7241 26.6851 34.7241 27.8278V45.7587C34.7241 46.9013 35.6504 47.8277 36.7931 47.8277C37.1719 47.8277 37.5222 47.7184 37.8276 47.5407C37.2118 47.1823 36.7931 46.5226 36.7931 45.7587Z" fill="#093D77"/>
<path d="M40.9313 25.7588C39.7886 25.7588 38.8623 26.6851 38.8623 27.8278V53.345H43.0003V27.8278C43.0003 26.6851 42.0739 25.7588 40.9313 25.7588Z" fill="#093D77"/>
<path d="M58.8618 50.5861H56.1033C55.7224 50.5861 55.4136 50.2773 55.4136 49.8964V23.6897C55.4136 23.3088 55.7224 23 56.1033 23H58.8618C59.2427 23 59.5515 23.3088 59.5515 23.6897V49.8965C59.5515 50.2774 59.2427 50.5861 58.8618 50.5861Z" fill="#093D77"/>
<path d="M57.4826 49.8965V23.6897C57.4826 23.3088 57.7914 23 58.1722 23H56.1033C55.7224 23 55.4136 23.3088 55.4136 23.6897V49.8965C55.4136 50.2774 55.7224 50.5862 56.1033 50.5862H58.1722C57.7912 50.5861 57.4826 50.2774 57.4826 49.8965Z" fill="#093D77"/>
<path d="M29.8965 50.5861H27.1379C26.7571 50.5861 26.4482 50.2773 26.4482 49.8964V23.6897C26.4482 23.3088 26.7571 23 27.1379 23H29.8965C30.2774 23 30.5862 23.3088 30.5862 23.6897V49.8965C30.5862 50.2774 30.2774 50.5861 29.8965 50.5861Z" fill="#093D77"/>
<path d="M28.5172 49.8965V23.6897C28.5172 23.3088 28.826 23 29.2069 23H27.1379C26.7571 23 26.4482 23.3088 26.4482 23.6897V49.8965C26.4482 50.2774 26.7571 50.5862 27.1379 50.5862H29.2069C28.826 50.5861 28.5172 50.2774 28.5172 49.8965Z" fill="#093D77"/>
<path d="M41.9657 26.0457C41.6603 25.868 41.31 25.7588 40.9313 25.7588C39.7886 25.7588 38.8623 26.6851 38.8623 27.8278V53.345H40.9313V27.8277C40.9313 27.0638 41.3499 26.4041 41.9657 26.0457Z" fill="#093D77"/>
<path d="M41.7017 63.0003H40.1608C39.813 63.0003 39.5196 62.7413 39.4765 62.3961L38.2696 52.741C38.2181 52.3293 38.539 51.9658 38.9539 51.9658H42.9086C43.3235 51.9658 43.6444 52.3293 43.5929 52.741L42.3861 62.3961C42.3429 62.7412 42.0495 63.0003 41.7017 63.0003Z" fill="#093D77"/>
<path d="M43.4311 54.0347H40.6348C40.4508 54.0347 40.2993 53.8903 40.2904 53.7066L40.2437 52.741C40.2237 52.3293 40.3481 51.9658 40.5091 51.9658H38.9539C38.539 51.9658 38.2181 52.3293 38.2696 52.741L39.4765 62.3961C39.5196 62.7413 39.813 63.0003 40.1608 63.0003H40.9772C40.8424 63.0003 40.7286 62.7413 40.7118 62.3961L40.3908 55.7756C40.3813 55.5788 40.5383 55.414 40.7352 55.414H43.2587L43.4311 54.0347Z" fill="#093D77"/>
</svg>
