<svg width="85" height="85" viewBox="0 0 85 85" fill="none" xmlns="http://www.w3.org/2000/svg">
<rect width="85" height="85" rx="29" fill="#EDFCFF"/>
<g clip-path="url(#clip0_6062_23778)">
<path d="M60.4162 43.0005C60.4162 39.2893 60.1955 35.8362 59.1218 32.9375C60.7499 29.545 61.3312 26.3194 61.3312 24.8719C61.3312 21.1644 52.6762 24.1088 42.0001 24.1088C31.324 24.1088 22.6689 21.1644 22.6689 24.8718C22.6689 26.265 23.2033 29.3062 24.6965 32.5586C23.6458 35.5323 23.5833 39.1273 23.5833 43.0004C23.5833 46.711 23.8045 50.1635 24.8783 53.0623C23.2502 56.4547 22.6689 59.681 22.6689 61.1291C22.6689 64.8353 31.3239 61.891 42 61.891C52.6761 61.891 61.3311 64.8353 61.3311 61.1291C61.3311 59.7348 60.6236 56.6917 58.9786 53.438C60.1799 50.4648 60.4162 46.8717 60.4162 43.0005Z" fill="#093D77"/>
<path d="M42 61.891C52.6762 61.891 61.3311 64.8353 61.3311 61.1291C61.3311 59.7348 60.6236 56.6916 58.9786 53.4379C60.1798 50.4648 60.4161 46.8717 60.4161 43.0005C60.4161 39.2893 60.1954 35.8362 59.1217 32.9375C60.7498 29.545 61.3311 26.3194 61.3311 24.8719C61.3311 21.1644 52.6761 24.1087 42 24.1087" fill="#093D77"/>
<path d="M42 24.1091C32.2244 24.1091 24.1488 21.6441 22.8545 24.0735C26.1564 25.1297 33.4838 25.8647 42 25.8647C50.5162 25.8647 57.8442 25.1297 61.1455 24.0741C59.8511 21.6441 51.7755 24.1091 42 24.1091Z" fill="#093D77"/>
<path d="M61.1454 24.0739C61.1454 24.0732 61.1441 24.0726 61.1441 24.0726C61.1061 24.0001 61.0604 23.9326 61.0097 23.8688C61.006 23.8645 61.0035 23.8601 61.0035 23.8601C60.9497 23.7932 60.8922 23.7357 60.8316 23.6807C60.8266 23.677 60.8216 23.672 60.8172 23.6682C60.7541 23.6138 60.6854 23.5632 60.6122 23.5169C60.6072 23.5144 60.6035 23.5119 60.5991 23.5088C58.9166 22.467 54.4511 23.277 48.6955 23.7826C48.6523 23.7863 48.6079 23.7901 48.5649 23.7939C48.3317 23.8138 48.0961 23.8332 47.8592 23.8532C47.7786 23.8595 47.698 23.8657 47.6174 23.8719C47.4105 23.8876 47.2018 23.9032 46.9911 23.9182C46.8936 23.9251 46.7961 23.9319 46.698 23.9382C46.5005 23.9513 46.3011 23.9644 46.1012 23.9769C45.9912 23.9838 45.8837 23.99 45.7743 23.9963C45.5812 24.0075 45.3861 24.0169 45.1905 24.0269C45.0743 24.0325 44.9587 24.0388 44.8425 24.0432C44.6474 24.0519 44.4506 24.0588 44.2544 24.0662C44.1368 24.07 44.0212 24.075 43.9037 24.0788C43.6912 24.0857 43.4775 24.09 43.2644 24.0944C43.1618 24.0963 43.06 24.0994 42.9569 24.1013C42.6394 24.1063 42.3213 24.1089 42 24.1089V25.8644C50.5161 25.8644 57.8435 25.1295 61.1454 24.0739Z" fill="#093D77"/>
<path d="M27.2342 42.9997C27.2342 38.0679 25.993 33.7197 24.103 31.1504C24.2824 31.6123 24.478 32.0822 24.6961 32.5585C23.6455 35.5322 23.583 39.1272 23.583 43.0003C23.583 46.7109 23.8042 50.1634 24.878 53.0622C24.5899 53.6634 24.3349 54.2578 24.1099 54.8403C25.9955 52.2683 27.2342 47.9253 27.2342 42.9997Z" fill="#093D77"/>
<path d="M56.7656 42.9998C56.7656 47.0953 57.6231 50.786 58.9956 53.3921C60.1806 50.4284 60.4156 46.8522 60.4156 43.0003C60.4156 39.2891 60.1949 35.836 59.1212 32.9373C59.4093 32.336 59.6637 31.7411 59.8894 31.1592C58.0044 33.7311 56.7656 38.0742 56.7656 42.9998Z" fill="#093D77"/>
<path d="M42.0002 57.8431C38.884 57.8438 35.954 56.63 33.7509 54.4263C29.2015 49.8782 29.2015 42.4764 33.7509 37.927C34.1171 37.5608 34.7102 37.5608 35.0765 37.927C35.4427 38.2933 35.4427 38.8864 35.0765 39.2527C31.259 43.0707 31.259 49.2832 35.0765 53.1007C38.8946 56.9175 45.1058 56.9175 48.9239 53.1007C50.7732 51.2513 51.7913 48.792 51.7913 46.1764C51.7913 43.5608 50.7732 41.102 48.9239 39.2527C48.5576 38.8864 48.5576 38.2933 48.9239 37.927C49.2901 37.5608 49.8832 37.5608 50.2495 37.927C52.4526 40.1301 53.6663 43.0601 53.6663 46.1769C53.6663 49.2925 52.4532 52.2231 50.2495 54.4262C48.0458 56.6294 45.1165 57.8431 42.0002 57.8431Z" fill="white"/>
<path d="M50.2493 54.4262C52.4524 52.2231 53.6662 49.2925 53.6662 46.1769C53.6662 43.0601 52.4531 40.1301 50.2493 37.927C49.8831 37.5608 49.29 37.5608 48.9237 37.927C48.5575 38.2933 48.5575 38.8864 48.9237 39.2527C50.7731 41.102 51.7912 43.5614 51.7912 46.1764C51.7912 48.7926 50.773 51.2514 48.9237 53.1007C47.0144 55.0094 44.5075 55.9631 42 55.9631V57.8431C45.1163 57.8431 48.0463 56.6299 50.2493 54.4262Z" fill="white"/>
<path d="M42.2085 52.9473C42.2085 53.0629 42.1147 53.1561 41.9998 53.1561C41.8848 53.1561 41.791 53.0629 41.791 52.9473V35.1349C41.791 35.0199 41.8848 34.9268 41.9998 34.9268C42.1147 34.9268 42.2085 35.0199 42.2085 35.1349V52.9473Z" fill="white"/>
<path d="M41.9997 54.351C42.4526 54.351 42.8198 53.9839 42.8198 53.531C42.8198 53.0781 42.4526 52.7109 41.9997 52.7109C41.5468 52.7109 41.1797 53.0781 41.1797 53.531C41.1797 53.9839 41.5468 54.351 41.9997 54.351Z" fill="white"/>
<path d="M42.0072 30.3896C41.141 30.8146 40.4854 32.7265 40.4854 33.639C40.4854 34.5515 41.1416 35.3083 42.0072 35.4702V30.3896Z" fill="white"/>
<path d="M41.9922 30.3896C42.8584 30.8146 43.5134 32.7265 43.5134 33.639C43.5134 34.5515 42.8578 35.3083 41.9922 35.4702V30.3896Z" fill="white"/>
<path d="M45.8333 36.0866C44.9202 35.7753 43.1052 36.6641 42.4595 37.3091C41.8152 37.9541 41.7433 38.9534 42.2408 39.679L45.8333 36.0866Z" fill="white"/>
<path d="M45.8229 36.0771C46.1342 36.9896 45.2454 38.8053 44.6011 39.4503C43.9554 40.0953 42.9567 40.1665 42.2305 39.6697L45.8229 36.0771Z" fill="white"/>
<path d="M45.8333 40.3044C44.9202 39.9931 43.1052 40.8819 42.4595 41.5268C41.8152 42.1718 41.7433 43.1712 42.2408 43.8968L45.8333 40.3044Z" fill="white"/>
<path d="M45.8229 40.2959C46.1342 41.2084 45.2454 43.024 44.6011 43.669C43.9554 44.314 42.9567 44.3853 42.2305 43.8884L45.8229 40.2959Z" fill="white"/>
<path d="M45.8333 44.5241C44.9202 44.2128 43.1052 45.1016 42.4595 45.7466C41.8152 46.3916 41.7433 47.3909 42.2408 48.1165L45.8333 44.5241Z" fill="white"/>
<path d="M45.8229 44.5146C46.1342 45.4271 45.2454 47.2428 44.6011 47.8878C43.9554 48.5328 42.9567 48.604 42.2305 48.1072L45.8229 44.5146Z" fill="white"/>
<path d="M45.1929 49.3808C44.4423 49.1251 42.9492 49.8557 42.4192 50.3858C41.888 50.9164 41.8298 51.7376 42.2386 52.3345L45.1929 49.3808Z" fill="white"/>
<path d="M45.1851 49.3721C45.4414 50.1227 44.7114 51.6158 44.1808 52.1458C43.6502 52.6758 42.8295 52.7346 42.2314 52.3258L45.1851 49.3721Z" fill="white"/>
<path d="M38.167 36.0866C39.0801 35.7753 40.8951 36.6641 41.5407 37.3091C42.1851 37.9541 42.257 38.9534 41.7595 39.679L38.167 36.0866Z" fill="white"/>
<path d="M38.1765 36.0771C37.8652 36.9896 38.7539 38.8053 39.3983 39.4503C40.0439 40.0953 41.0426 40.1665 41.7689 39.6697L38.1765 36.0771Z" fill="white"/>
<path d="M38.167 40.3044C39.0801 39.9931 40.8951 40.8819 41.5407 41.5268C42.1851 42.1718 42.257 43.1712 41.7595 43.8968L38.167 40.3044Z" fill="white"/>
<path d="M38.1765 40.2959C37.8652 41.2084 38.7539 43.024 39.3983 43.669C40.0439 44.314 41.0426 44.3853 41.7689 43.8884L38.1765 40.2959Z" fill="white"/>
<path d="M38.167 44.5241C39.0801 44.2128 40.8951 45.1016 41.5407 45.7466C42.1851 46.3916 42.257 47.3909 41.7595 48.1165L38.167 44.5241Z" fill="white"/>
<path d="M38.1765 44.5146C37.8652 45.4271 38.7539 47.2428 39.3983 47.8878C40.0439 48.5328 41.0426 48.604 41.7689 48.1072L38.1765 44.5146Z" fill="white"/>
<path d="M38.8066 49.3808C39.5572 49.1251 41.0504 49.8557 41.5804 50.3858C42.1116 50.9164 42.1698 51.7376 41.761 52.3345L38.8066 49.3808Z" fill="white"/>
<path d="M38.8146 49.3721C38.5583 50.1227 39.2884 51.6158 39.819 52.1458C40.3496 52.6758 41.1702 52.7346 41.7683 52.3258L38.8146 49.3721Z" fill="white"/>
</g>
<defs>
<clipPath id="clip0_6062_23778">
<rect width="40" height="40" fill="white" transform="translate(22 23)"/>
</clipPath>
</defs>
</svg>
