<svg width="85" height="85" viewBox="0 0 85 85" fill="none" xmlns="http://www.w3.org/2000/svg">
<rect width="85" height="85" rx="29" fill="#EDFCFF"/>
<g clip-path="url(#clip0_6094_1117)">
<path d="M58.6541 26.3435C56.864 24.5535 53.9513 24.5534 52.1611 26.3435L42.4216 36.083L41.61 35.2715C41.1618 34.8233 40.435 34.8233 39.9867 35.2715C39.5385 35.7197 39.5385 36.4464 39.9867 36.8947C41.1634 38.0714 42.0565 38.9645 43.2333 40.1413L39.9867 43.3878L34.3054 37.7064C33.8572 37.2582 33.1304 37.2583 32.6821 37.7064L30.202 40.1866C27.8682 42.5204 26.2339 45.4518 25.4756 48.664C24.7172 51.8762 24.8681 55.229 25.9118 58.3601C26.026 58.7028 26.295 58.9717 26.6377 59.086C29.6623 60.0941 33.0143 60.3059 36.3338 59.5222C39.546 58.7639 42.4774 57.1296 44.8112 54.7958L47.2914 52.3157C47.7396 51.8674 47.7396 51.1407 47.2914 50.6924L41.61 45.0111L44.8565 41.7645C45.1913 42.0993 47.7686 44.6766 48.1031 45.011C48.5512 45.4592 49.278 45.4594 49.7263 45.011C50.1745 44.5628 50.1745 43.836 49.7263 43.3877L48.9147 42.5761L51.3494 40.1415L51.3496 40.1413C51.3496 40.1413 51.3497 40.1411 51.3498 40.1409L58.6542 32.8366C60.4483 31.0423 60.4488 28.138 58.6541 26.3435ZM47.2914 40.9528L44.0448 37.7063L45.6681 36.083L48.9146 39.3295L47.2914 40.9528Z" fill="#093D77"/>
</g>
<defs>
<clipPath id="clip0_6094_1117">
<rect width="35" height="35" fill="white" transform="translate(25 25)"/>
</clipPath>
</defs>
</svg>
