<svg width="85" height="85" viewBox="0 0 85 85" fill="none" xmlns="http://www.w3.org/2000/svg">
<rect width="85" height="85" rx="29" fill="#EDFCFF"/>
<path d="M37.7188 56.1406C37.4375 55.1563 36.875 54.4531 36.1719 53.75H23.7969C23.2344 54.4531 22.8125 55.2969 22.8125 56.2812V57.9688C22.8125 58.8125 23.375 59.375 24.2188 59.375H36.875C37.2969 59.375 37.7188 59.0938 38 58.8125C38.2812 58.3906 38.2812 57.9688 38.1406 57.5469L37.7188 56.1406Z" fill="#093D77"/>
<path d="M62.1875 34.0625H57.9688V33.6406C57.9688 31.5312 56.2812 29.8438 54.1719 29.8438H52.3438C52.3438 29 51.7812 28.4375 50.9375 28.4375H29.8438C25.9062 28.4375 22.8125 31.5312 22.8125 35.4688C22.8125 38.7031 25.0625 41.375 28.0156 42.2188L25.0625 50.9375H36.4531L37.4375 48.125H40.6719C43.3438 48.125 45.5938 46.2969 46.1562 43.9062L46.4375 42.5H50.9375C51.7812 42.5 52.3438 41.9375 52.3438 41.0938H54.1719C56.2812 41.0938 57.9688 39.4062 57.9688 37.2969V36.875H62.1875C63.0312 36.875 63.5938 36.3125 63.5938 35.4688C63.5938 34.625 63.0312 34.0625 62.1875 34.0625ZM32.5156 34.625L31.1094 37.4375C30.8281 38 30.4062 38.2812 29.8438 38.2812C29.5625 38.2812 29.4219 38.2812 29.2812 38.1406C28.5781 37.8594 28.2969 37.0156 28.7187 36.3125L30.125 33.5C30.4062 32.7969 31.25 32.5156 31.8125 32.7969C32.5156 33.2188 32.7969 34.0625 32.5156 34.625ZM38.1406 34.625L36.7344 37.4375C36.4531 38 36.0312 38.2812 35.4688 38.2812C35.1875 38.2812 35.0469 38.2812 34.9063 38.1406C34.2031 37.8594 33.9219 37.0156 34.3438 36.3125L35.75 33.5C36.0312 32.7969 36.875 32.5156 37.5781 32.9375C38.1406 33.2187 38.4219 34.0625 38.1406 34.625ZM43.3438 43.2031C43.0625 44.4688 41.9375 45.3125 40.5312 45.3125H38.2812L39.2656 42.5H43.4844L43.3438 43.2031Z" fill="#093D77"/>
</svg>
