<svg width="30" height="30" viewBox="0 0 30 30" fill="none" xmlns="http://www.w3.org/2000/svg">
<g clip-path="url(#clip0_6281_1075)">
<path d="M5.92241 11.9733C6.03605 12.0738 6.19315 12.1101 6.34406 12.0795C6.49332 12.0498 6.62318 11.9465 6.69089 11.8092C6.71622 11.7577 6.99298 11.2739 7.91546 11.3585C9.10085 11.4663 9.87343 12.0003 9.88108 12.0051C9.96647 12.0653 10.0655 12.0953 10.1642 12.0953C10.2834 12.0953 10.4018 12.0518 10.4956 11.9665L13.4346 9.27245C13.5956 9.12437 13.6394 8.8878 13.5418 8.69188L12.3096 6.22834C13.5912 4.05896 16.1654 3.88554 16.9437 3.88554C17.046 3.88554 17.1063 3.88891 17.1484 3.89037L17.7607 3.88554C17.9621 3.88408 18.142 3.75905 18.2141 3.57097C18.287 3.38279 18.2362 3.17037 18.0875 3.03404C16.8006 1.85613 15.1996 1.25879 13.3272 1.25879C9.59412 1.25879 5.72895 3.72953 4.94516 5.39571C4.01775 7.36643 2.84941 8.55273 2.8372 8.56494C2.74224 8.66053 2.6903 8.79166 2.69458 8.92653C2.69923 9.06167 2.75901 9.18898 2.86089 9.27865L5.92241 11.9733Z" fill="white"/>
<path d="M3.4784 15.1595C3.56762 15.2351 3.68025 15.2762 3.7958 15.2762C3.8102 15.2762 3.82469 15.2757 3.8389 15.2743C3.97013 15.2629 4.09078 15.1993 4.17398 15.0977L5.88845 13.0159C6.05658 12.8121 6.03289 12.5124 5.83505 12.3376L2.65106 9.52094C2.554 9.43455 2.42816 9.39345 2.29639 9.39892C2.16598 9.4073 2.04524 9.46635 1.95931 9.56395L0.122449 11.646C0.0353314 11.744 -0.00840985 11.8738 0.00134079 12.0046C0.0107269 12.1359 0.0724203 12.2573 0.172387 12.3425L3.4784 15.1595Z" fill="white"/>
<path d="M29.8872 24.0993C29.8612 24.0389 29.8241 23.9855 29.7767 23.9395L21.4052 15.9087L17.9965 12.5821L25.0194 6.0902L25.3704 6.4414C25.4624 6.53344 25.5872 6.58493 25.7168 6.58493C25.7234 6.58493 25.7307 6.58493 25.7374 6.58447C25.8742 6.57873 26.0024 6.51585 26.091 6.41106L28.6809 3.34526C28.766 3.24429 28.8071 3.11343 28.7942 2.98266C28.7817 2.85089 28.7166 2.73033 28.6143 2.64749L27.6552 1.874C27.4763 1.73048 27.2213 1.72902 27.0415 1.87254L24.0024 4.30355C23.8937 4.39094 23.8272 4.52025 23.8197 4.65931C23.8116 4.79847 23.8636 4.93461 23.9622 5.03312L24.3262 5.39708L17.2942 11.8974L14.7007 9.36632C14.5185 9.18844 14.2283 9.18051 14.037 9.34764L10.6693 12.2868C10.5688 12.3743 10.5085 12.4989 10.5016 12.631C10.4949 12.7639 10.5422 12.8935 10.6333 12.9906L13.1742 15.7062L12.853 16.0034L11.6155 14.751C11.4359 14.5682 11.1428 14.557 10.9484 14.7237L0.246158 23.9213C0.189932 23.9706 0.144733 24.0314 0.115572 24.0993C-0.242195 24.9284 0.270762 26.2379 1.39163 27.3584C2.24386 28.2113 3.26458 28.7415 4.05538 28.7415C4.32703 28.7415 4.5687 28.6812 4.77337 28.5629C4.81028 28.542 4.84445 28.5155 4.87434 28.4854L14.7503 18.6173C14.9407 18.4263 14.9417 18.1178 14.7522 17.9265L13.5408 16.7009L13.8426 16.422L25.1164 28.4745C25.1495 28.5088 25.1877 28.5395 25.2288 28.5635C25.4335 28.6821 25.6751 28.7415 25.9469 28.7415C26.7372 28.7415 27.7579 28.2114 28.6108 27.3589C29.7317 26.2379 30.245 24.9284 29.8872 24.0993ZM1.71413 24.9541C1.64551 24.9541 1.57753 24.925 1.52905 24.8694C1.44029 24.7671 1.4515 24.6131 1.55411 24.5241L10.5431 16.7372C10.6449 16.6488 10.7999 16.6597 10.8885 16.7621C10.9772 16.8644 10.966 17.0188 10.8636 17.1074L1.87442 24.8942C1.82786 24.9345 1.77118 24.9541 1.71413 24.9541ZM3.00012 26.24C2.93652 26.24 2.87282 26.2152 2.82479 26.1658C2.73084 26.0692 2.73266 25.9137 2.82981 25.8195L11.3105 17.563C11.4069 17.469 11.5616 17.4709 11.6566 17.5677C11.7508 17.6643 11.7486 17.8202 11.6519 17.914L3.17108 26.1705C3.12351 26.2171 3.06182 26.24 3.00012 26.24ZM12.848 18.7067L4.45935 27.1474C4.41132 27.1962 4.34863 27.2196 4.28593 27.2196C4.22324 27.2196 4.16109 27.1956 4.11297 27.1483C4.01756 27.0532 4.01701 26.8977 4.11206 26.802L12.5007 18.3612C12.5964 18.2651 12.7516 18.2651 12.8471 18.3602C12.9424 18.4555 12.9436 18.6105 12.848 18.7067Z" fill="white"/>
</g>
<defs>
<clipPath id="clip0_6281_1075">
<rect width="30" height="30" fill="white"/>
</clipPath>
</defs>
</svg>
