<svg width="30" height="30" viewBox="0 0 30 30" fill="none" xmlns="http://www.w3.org/2000/svg">
<g clip-path="url(#clip0_6281_815)">
<path d="M15.5142 3.74565C15.5422 3.66553 15.3861 3.6618 15.2612 3.70154C15.342 3.51183 15.4256 3.32275 15.5142 3.13563C15.5352 3.09101 15.49 3.07067 15.4229 3.06901C15.4381 3.04638 15.4512 3.02283 15.468 3.0002C15.5258 2.92122 15.4444 2.89113 15.3426 2.89486C15.3409 2.81215 15.2555 2.775 15.1631 2.7804C15.1714 2.74117 15.1792 2.70142 15.1863 2.66167C15.2166 2.60355 15.2424 2.54181 15.2739 2.48431C15.2838 2.46605 15.2629 2.45525 15.2282 2.45048C15.2314 2.42848 15.2383 2.40637 15.2414 2.38489C15.2486 2.33331 15.189 2.31442 15.1154 2.31826C15.1836 2.07106 15.2492 1.8222 15.3102 1.5724C15.3427 1.43915 14.9485 1.50142 14.9179 1.62657C14.9086 1.66528 14.8976 1.70347 14.8876 1.74115C14.8347 1.72506 14.75 1.73253 14.6781 1.75723C14.6972 1.66642 14.717 1.57396 14.7364 1.48211C14.7633 1.35093 14.5873 1.33433 14.4596 1.38964C14.4601 1.37408 14.4628 1.35851 14.4635 1.34294C14.4691 1.23491 14.3412 1.21229 14.2297 1.24082C14.2499 1.13601 14.2714 1.03026 14.2913 0.924815C14.3028 0.862029 14.2104 0.8475 14.1131 0.864104C14.1163 0.83297 14.1222 0.802874 14.1263 0.771637C14.1279 0.755551 14.1234 0.744239 14.12 0.730748C14.1316 0.628109 14.1464 0.527132 14.1574 0.423871C14.175 0.250352 13.7772 0.320091 13.7624 0.467874C13.7624 0.468496 13.7619 0.469534 13.7619 0.470053C13.6563 0.479705 13.522 0.521631 13.4988 0.584003C13.4459 0.558162 13.3591 0.563559 13.2836 0.590437C13.2935 0.51198 13.2984 0.434042 13.3083 0.356207C13.326 0.221916 13.0888 0.234785 12.9737 0.316459C12.9374 0.329328 12.9071 0.349254 12.8839 0.369698C12.8098 0.356311 12.7195 0.37717 12.6617 0.423975C12.6413 0.423456 12.6198 0.425013 12.5973 0.429371C12.5968 0.225756 12.1996 0.286467 12.1991 0.460505C12.1991 0.485205 12.1977 0.508348 12.1977 0.532528C12.1583 0.538963 12.1198 0.551935 12.0857 0.569578C12.0851 0.567398 12.0851 0.564181 12.0851 0.563143C12.0758 0.50347 12.0217 0.478771 11.9568 0.476591C11.9425 0.335347 11.9299 0.194518 11.9151 0.0536891C11.903 -0.060261 11.5073 0.0225552 11.5215 0.158507C11.5308 0.243917 11.5382 0.329951 11.547 0.416399C11.5151 0.429371 11.4892 0.444835 11.4731 0.459986C11.4364 0.304628 11.0589 0.400313 11.0809 0.558266C11.0225 0.558266 10.9564 0.575493 10.9019 0.606108C10.9008 0.591579 10.8981 0.577672 10.8971 0.563662C10.8783 0.373434 10.4843 0.471817 10.5037 0.667442C10.5075 0.706671 10.5147 0.744862 10.519 0.783571C10.4816 0.790525 10.444 0.799138 10.4101 0.813149C10.3043 0.729295 10.0562 0.793223 10.0595 0.935712C10.0627 1.05184 10.0738 1.16683 10.081 1.28286C10.0133 1.306 9.95993 1.34035 9.96087 1.38176C9.95661 1.35758 9.9509 1.33443 9.94665 1.30973C9.92973 1.21779 9.75185 1.22972 9.6406 1.29199C9.59951 1.30434 9.56028 1.32374 9.53122 1.34678C9.41218 1.30154 9.13841 1.41818 9.17951 1.48325C9.27706 1.63903 9.37057 1.79605 9.46189 1.9567C9.37275 1.95234 9.27302 1.99489 9.23192 2.06577C9.18844 2.07179 9.14381 2.08414 9.10541 2.1024C8.97268 2.0611 8.76252 2.15616 8.80663 2.29803C8.83237 2.38022 8.86547 2.46138 8.89443 2.54305C8.77404 2.56246 8.62097 2.62732 8.63654 2.67091C8.69963 2.84391 8.76304 3.01753 8.82676 3.19105C8.70026 3.18296 8.53794 3.26733 8.56939 3.38398C8.98098 4.93061 9.91365 6.22837 10.6323 7.63469L10.782 7.57284C10.8072 7.56204 11.411 7.31442 12.3273 7.31442C12.8587 7.31442 13.3927 7.39714 13.912 7.55997L14.0689 7.60833C14.3053 7.01616 14.542 6.42451 14.7821 5.83339C15.0372 5.20469 15.1909 4.51082 15.5392 3.92841C15.5805 3.8596 15.5507 3.81819 15.4936 3.79889C15.5 3.78 15.5076 3.76225 15.5142 3.74565Z" fill="white"/>
<path d="M13.7844 14.4779C13.7928 10.7893 13.7849 7.85994 13.7849 7.85994C12.1556 7.3511 10.9333 7.85994 10.9333 7.85994C10.8991 9.02393 10.9454 11.6157 11.0236 14.5917C11.6153 14.4907 12.6618 14.3656 13.7844 14.4779Z" fill="white"/>
<path d="M11.04 15.0922C11.1991 20.9861 11.4731 28.1791 11.4993 28.8772C11.5326 29.8009 12.517 29.7939 12.517 29.7939C12.517 29.7939 13.4852 29.8294 13.5698 28.8267C13.7262 26.9797 13.7756 20.292 13.7887 14.9773C12.6672 14.86 11.6008 14.9943 11.04 15.0922Z" fill="white"/>
<path d="M20.5361 4.5127L19.4027 4.53584L19.4689 7.71067H19.4537C18.7299 14.2081 19.6634 25.9183 19.9025 28.68L19.918 29.4441C19.9244 29.7532 20.1765 29.9997 20.4844 29.9997C20.4881 29.9997 20.4919 29.9997 20.4957 29.9997C20.809 29.9922 21.0578 29.7342 21.0513 29.421L21.0481 29.2779H21.0513C22.0681 14.8912 20.7638 8.49628 20.6032 7.77999L20.5361 4.5127Z" fill="white"/>
<path d="M20.5098 4.11934C20.8182 3.08922 21.211 1.69629 20.3093 1.69629C19.422 1.69629 18.9422 2.35353 18.9513 2.9075C18.9593 3.40346 19.3887 4.11934 19.3887 4.11934H20.5098Z" fill="white"/>
</g>
<defs>
<clipPath id="clip0_6281_815">
<rect width="30" height="30" fill="white"/>
</clipPath>
</defs>
</svg>
