<svg width="85" height="85" viewBox="0 0 85 85" fill="none" xmlns="http://www.w3.org/2000/svg">
<rect width="85" height="85" rx="29" fill="#EDFCFF"/>
<path d="M50.0195 38.9453V37.0312H51.3867V32.9297H48.2422V27.2559C48.2422 26.3876 47.5382 25.6836 46.6699 25.6836C45.8016 25.6836 45.0977 26.3876 45.0977 27.2559V32.9297H39.7656V27.2559C39.7656 26.3876 39.0617 25.6836 38.1934 25.6836C37.3251 25.6836 36.6211 26.3876 36.6211 27.2559V32.9297H33.4766V37.0312H34.8438V38.9453C34.8438 42.631 37.6913 45.7676 41.2695 46.1914V52.8906C41.2695 56.4394 44.1465 59.3164 47.6953 59.3164H51.3867V56.9922H47.6953C45.4395 56.9922 43.5938 55.1465 43.5938 52.8906V46.1914C47.1834 45.7823 50.0195 42.642 50.0195 38.9453Z" fill="#093D77"/>
</svg>
