<svg width="85" height="85" viewBox="0 0 85 85" fill="none" xmlns="http://www.w3.org/2000/svg">
<rect width="85" height="85" rx="29" fill="#EDFCFF"/>
<path d="M43.1875 58.4358V40.3674C43.1875 40.3251 43.1532 40.29 43.11 40.29H41.8887C41.8464 40.29 41.8113 40.3242 41.8113 40.3674V58.4367C41.8113 58.4421 41.8104 58.4475 41.8095 58.4538L41.4432 60.1098C41.4405 60.1224 41.4405 60.1359 41.445 60.1494L41.9967 61.962C42.0066 61.9944 42.0363 62.0169 42.0705 62.0169H42.4989H42.9273C42.9615 62.0169 42.9912 61.9944 43.0011 61.962L43.5529 60.1494C43.5565 60.1368 43.5573 60.1233 43.5546 60.1098L43.1883 58.4538C43.1883 58.4475 43.1875 58.4421 43.1875 58.4358Z" fill="#093D77"/>
<path d="M44.315 36.3979C44.315 35.632 44.5822 34.9291 45.0286 34.3765C45.1105 34.2748 45.1556 34.1497 45.1556 34.0192V33.0643V24.0283C45.1556 23.8078 45.0268 23.608 44.8279 23.5126C44.1232 23.1742 43.3339 22.9834 42.4996 22.9834C41.6653 22.9834 40.876 23.1742 40.1713 23.5126C39.9724 23.608 39.8438 23.8078 39.8438 24.0283V33.0652V34.0201C39.8438 34.1506 39.8887 34.2757 39.9706 34.3774C40.417 34.93 40.6843 35.6329 40.6843 36.3988C40.6843 37.1647 40.417 37.8676 39.9706 38.4202C39.8887 38.5219 39.8438 38.647 39.8438 38.7775V39.9538C39.8438 40.2679 40.0984 40.5226 40.4125 40.5226H44.5858C44.8999 40.5226 45.1546 40.2679 45.1546 39.9538V38.7775C45.1546 38.647 45.1096 38.5219 45.0277 38.4202C44.5822 37.8667 44.315 37.1629 44.315 36.3979Z" fill="#093D77"/>
<path d="M42.5446 33.8968H42.4546C42.2809 33.8968 42.1396 33.7555 42.1396 33.5818V24.5953C42.1396 24.4225 42.2809 24.2803 42.4546 24.2803H42.5446C42.7183 24.2803 42.8596 24.4216 42.8596 24.5953V33.5818C42.8596 33.7555 42.7183 33.8968 42.5446 33.8968Z" fill="#093D77"/>
<path d="M43.9646 33.8968H43.8746C43.7018 33.8968 43.5596 33.7555 43.5596 33.5818V24.5953C43.5596 24.4225 43.7018 24.2803 43.8746 24.2803H43.9646C44.1383 24.2803 44.2796 24.4216 44.2796 24.5953V33.5818C44.2796 33.7555 44.1383 33.8968 43.9646 33.8968Z" fill="#093D77"/>
<path d="M41.1247 33.8968H41.0347C40.861 33.8968 40.7197 33.7555 40.7197 33.5818V24.5953C40.7197 24.4225 40.861 24.2803 41.0347 24.2803H41.1247C41.2984 24.2803 41.4397 24.4216 41.4397 24.5953V33.5818C41.4397 33.7555 41.2975 33.8968 41.1247 33.8968Z" fill="#093D77"/>
</svg>
