<svg width="85" height="85" viewBox="0 0 85 85" fill="none" xmlns="http://www.w3.org/2000/svg">
<rect width="85" height="85" rx="29" fill="#EDFCFF"/>
<g clip-path="url(#clip0_6304_8728)">
<path fill-rule="evenodd" clip-rule="evenodd" d="M41.5512 36.5505L59.298 53.6688L54.6736 58.2932L37.8204 40.2813L41.5512 36.5505ZM36.483 38.9432L40.2138 35.2132C40.2138 35.2132 38.3189 33.7675 38.4933 32.8647C38.6677 31.9612 39.0621 30.685 41.8057 29.5523C44.55 28.4196 47.1094 28.3169 47.1094 28.3169L47.2015 27.0808C47.2015 27.0808 40.8952 26.1274 37.5637 27.3107C34.2323 28.4948 30.4643 32.9498 30.4643 32.9498C30.4643 32.9498 31.1217 35.1042 29.9953 36.2306C28.8696 37.3563 27.3558 36.0583 27.3558 36.0583L25.6289 38.2507L29.9862 42.6079L32.1743 40.8775C32.1743 40.8775 31.1393 39.3257 32.1623 38.3969C34.3645 36.3986 36.483 38.9432 36.483 38.9432Z" fill="#093D77"/>
</g>
<defs>
<clipPath id="clip0_6304_8728">
<rect width="45" height="45" fill="white" transform="translate(20 20)"/>
</clipPath>
</defs>
</svg>
