<svg width="30" height="30" viewBox="0 0 30 30" fill="none" xmlns="http://www.w3.org/2000/svg">
<path d="M25.9998 0H23.9998C23.6998 0 23.4999 0.19998 23.4999 0.49998V24C23.4999 25.65 22.1499 27 20.4999 27H12.9999C11.3499 27 9.99986 25.65 9.99986 24C10.5499 24 10.9999 23.55 10.9999 23V22C11.2999 22 11.4999 21.8 11.4999 21.5C11.4999 21.2 11.2999 21 10.9999 21V20H12.9999C13.2999 20 13.4998 19.8 13.4998 19.5V7.5C13.4998 7.2 13.2999 7.00002 12.9999 7.00002H12.4999V3.49998C12.4999 3.19998 12.2999 3 11.9999 3V0.49998C11.9999 0.19998 11.7999 0 11.4999 0H5.49992C5.19992 0 4.99994 0.25002 4.99994 0.49998V3C4.69994 3 4.49996 3.25002 4.49996 3.49998V6.99996H3.99998C3.69998 6.99996 3.5 7.19994 3.5 7.49994V19.4999C3.5 19.7999 3.69998 19.9999 3.99998 19.9999H5.99984V21C5.69984 21 5.49986 21.2 5.49986 21.5C5.49986 21.8 5.69984 22 5.99984 22V23C5.99984 23.55 6.44984 24 6.99986 24C6.99986 27.3 9.69986 30 12.9999 30H20.4999C23.7999 30 26.4999 27.3 26.4999 24V0.49998C26.4999 0.25002 26.2998 0 25.9998 0ZM9.99986 21H6.99986V20H9.99986V21ZM5.49986 4.00002H11.4999V7.00002H5.49986V4.00002ZM5.99984 13H10.9998C11.2998 13 11.4998 13.2 11.4998 13.5C11.4998 13.8 11.2998 14 10.9998 14H5.99984C5.69984 14 5.49986 13.8 5.49986 13.5C5.49986 13.2 5.69984 13 5.99984 13ZM5.99984 15H10.9998C11.2998 15 11.4998 15.2 11.4998 15.5C11.4998 15.8 11.2998 16 10.9998 16H5.99984C5.69984 16 5.49986 15.8 5.49986 15.5C5.49986 15.2 5.69984 15 5.99984 15ZM5.99984 18C5.69984 18 5.49986 17.8 5.49986 17.5C5.49986 17.2 5.69984 17 5.99984 17H10.9998C11.2998 17 11.4998 17.2 11.4998 17.5C11.4998 17.8 11.2998 18 10.9998 18H5.99984ZM7.49984 23H6.99986V22H9.99986V23H9.49988H7.49984Z" fill="white"/>
</svg>
