<svg width="30" height="30" viewBox="0 0 30 30" fill="none" xmlns="http://www.w3.org/2000/svg">
<path d="M26.6 12.9L23.7 12.6C23.5 11.9 23.2 11.2 22.9 10.6L24.7 8.3C24.9 8.1 24.8 7.8 24.7 7.6L22.5 5.4C22.3 5.2 22 5.2 21.8 5.4L19.5 7.2C18.9 6.8 18.2 6.6 17.5 6.4L17.2 3.5C17 3.2 16.8 3 16.6 3H13.5C13.2 3 13 3.2 13 3.4L12.7 6.3C12 6.5 11.3 6.8 10.7 7.1L8.3 5.4C8.1 5.2 7.8 5.3 7.6 5.4L5.4 7.6C5.2 7.8 5.2 8.1 5.4 8.3L7.2 10.6C6.8 11.2 6.6 11.9 6.4 12.6L3.5 12.9C3.2 13 3 13.2 3 13.4V16.5C3 16.8 3.2 17 3.4 17L6.3 17.3C6.5 18 6.8 18.7 7.1 19.3L5.3 21.6C5.1 21.8 5.2 22.1 5.3 22.3L7.5 24.5C7.7 24.7 8 24.7 8.2 24.5L10.5 22.7C11.1 23.1 11.8 23.3 12.5 23.5L12.8 26.4C12.8 26.7 13 26.8 13.3 26.8H16.4C16.7 26.8 16.9 26.6 16.9 26.4L17.2 23.5C17.9 23.3 18.6 23 19.2 22.7L21.5 24.5C21.7 24.7 22 24.6 22.2 24.5L24.4 22.3C24.6 22.1 24.6 21.8 24.4 21.6L22.6 19.3C23 18.7 23.2 18 23.4 17.3L26.3 17C26.6 17 26.7 16.8 26.7 16.5V13.4C27 13.2 26.8 13 26.6 12.9ZM15 19C12.8 19 11 17.2 11 15C11 12.8 12.8 11 15 11C17.2 11 19 12.8 19 15C19 17.2 17.2 19 15 19Z" fill="white"/>
</svg>
