<svg width="85" height="85" viewBox="0 0 85 85" fill="none" xmlns="http://www.w3.org/2000/svg">
<rect width="85" height="85" rx="29" fill="#EDFCFF"/>
<path d="M50.4848 28.0417V25H34.5156V28.0417H39.0783V33.2127L36.7969 34.1252V34.8856L39.0783 33.9731V36.2545L36.7969 37.167V37.9274L39.0783 37.0149V39.2962L36.7969 40.2087V40.9691L39.0783 40.0566V42.338L36.7969 43.2505V44.0109L39.0783 43.0984V45.3797L36.7969 46.2922V47.0526L39.0783 46.1402V48.4215L36.7969 49.334V50.0944L39.0783 49.1819V51.4632L36.7969 52.3757V53.1361L39.0783 52.2237V56.5582L42.5952 59.9999L45.9221 56.5582V49.486L48.2035 48.5736V47.8131L45.9221 48.7256V46.4443L48.2035 45.5318V44.7714L45.9221 45.6839V43.4025L48.2035 42.4901V41.7296L45.9221 42.6421V40.3609L48.2035 39.4483V38.6879L45.9221 39.6004V37.3191L48.2035 36.4066V35.6461L45.9221 36.5586V34.2774L48.2035 33.3649V32.6044L45.9221 33.5169V31.2356L48.2035 30.3231V29.5626L45.9221 30.4751V28.0417H50.4848Z" fill="#093D77"/>
</svg>
