<svg width="85" height="87" viewBox="0 0 85 87" fill="none" xmlns="http://www.w3.org/2000/svg">
<rect width="85" height="87" rx="29" fill="#EDFCFF"/>
<path d="M57.2614 57.429L49.3708 35.2152L50.563 31.8568H51.7505C52.2478 31.8568 52.7247 31.6546 53.0763 31.2947C53.4279 30.9348 53.6255 30.4467 53.6255 29.9377C53.6255 29.4287 53.4279 28.9406 53.0763 28.5807C52.7247 28.2207 52.2478 28.0186 51.7505 28.0186H36.7505C36.2705 28.0221 35.8102 28.2138 35.4643 28.5543C35.1183 28.8947 34.9131 29.358 34.8908 29.8487C34.8686 30.3394 35.0311 30.8202 35.3448 31.192C35.6585 31.5637 36.0995 31.7983 36.577 31.8472L27.4895 57.4354C27.32 57.9135 27.3427 58.4409 27.5527 58.9017C27.7628 59.3626 28.143 59.7193 28.6099 59.8935C28.8154 59.9687 29.0322 60.0061 29.2505 60.0038C29.6354 60.0039 30.0111 59.8827 30.3264 59.6567C30.6417 59.4306 30.8814 59.1107 31.013 58.7404L32.3755 54.8862H38.3911L37.488 57.429C37.3185 57.9073 37.3414 58.4348 37.5518 58.8958C37.7622 59.3567 38.1427 59.7133 38.6099 59.8871C38.8149 59.9646 39.0319 60.0041 39.2505 60.0038C39.6354 60.0039 40.0111 59.8827 40.3264 59.6567C40.6417 59.4306 40.8814 59.1107 41.013 58.7404L43.7458 51.048H51.0052L53.738 58.7404C53.8695 59.1107 54.1092 59.4306 54.4245 59.6567C54.7399 59.8827 55.1155 60.0039 55.5005 60.0038C55.7191 60.004 55.936 59.9645 56.1411 59.8871C56.6079 59.7129 56.9881 59.3562 57.1982 58.8953C57.4083 58.4345 57.431 57.9071 57.2614 57.429ZM42.4833 43.3715H36.4724L37.8442 39.5333H43.8536L42.4833 43.3715ZM45.2099 35.695H39.2005L40.5645 31.8568H46.5739L45.2099 35.695ZM33.7458 51.048L35.1099 47.2097H41.1255L39.7614 51.048H33.7458ZM45.1099 47.2097L47.3755 40.8303L49.6411 47.2097H45.1099Z" fill="#093D77"/>
</svg>
