  <svg
    width="50"
    height="50"
    viewBox="0 0 50 50"
    fill="none"
    xmlns="http://www.w3.org/2000/svg"
  >
    <circle cx="25" cy="25" r="25" fill="white" />
    <path
      d="M39.2858 25.0001C39.2858 32.8899 32.8899 39.2858 25.0001 39.2858C17.1103 39.2858 10.7144 32.8899 10.7144 25.0001C10.7144 17.1103 17.1103 10.7144 25.0001 10.7144C32.8899 10.7144 39.2858 17.1103 39.2858 25.0001Z"
      fill="white"
    />
    <path
      d="M30.1991 29.0458C30.4611 29.1332 30.7442 28.9916 30.8316 28.7296C30.9189 28.4676 30.7773 28.1845 30.5153 28.0972L30.1991 29.0458ZM25.0001 26.7858H24.5001C24.5001 27.001 24.6378 27.1921 24.842 27.2601L25.0001 26.7858ZM25.5001 19.3189C25.5001 19.0428 25.2762 18.8189 25.0001 18.8189C24.7239 18.8189 24.5001 19.0428 24.5001 19.3189H25.5001ZM30.5153 28.0972L25.1582 26.3114L24.842 27.2601L30.1991 29.0458L30.5153 28.0972ZM25.5001 26.7858V19.3189H24.5001V26.7858H25.5001ZM38.7858 25.0001C38.7858 32.6137 32.6137 38.7858 25.0001 38.7858V39.7858C33.166 39.7858 39.7858 33.166 39.7858 25.0001H38.7858ZM25.0001 38.7858C17.3864 38.7858 11.2144 32.6137 11.2144 25.0001H10.2144C10.2144 33.166 16.8341 39.7858 25.0001 39.7858V38.7858ZM11.2144 25.0001C11.2144 17.3864 17.3864 11.2144 25.0001 11.2144V10.2144C16.8341 10.2144 10.2144 16.8341 10.2144 25.0001H11.2144ZM25.0001 11.2144C32.6137 11.2144 38.7858 17.3864 38.7858 25.0001H39.7858C39.7858 16.8341 33.166 10.2144 25.0001 10.2144V11.2144Z"
      fill="#093D77"
    />
  </svg>