  <svg
    width="50"
    height="50"
    viewBox="0 0 50 50"
    fill="none"
    xmlns="http://www.w3.org/2000/svg"
  >
    <circle cx="25" cy="25" r="25" fill="white" />
    <path
      d="M34.4818 17.067C34.7523 17.476 34.7337 17.9359 34.7064 18.3595L34.7059 18.3654C34.7056 18.3678 34.7052 18.3715 34.7037 18.3897C34.702 18.4084 34.6998 18.4381 34.6998 18.4725V19.4912L35.5057 18.8681C35.6423 18.7625 35.8018 18.7087 35.9617 18.7085L35.9644 18.7085C36.0621 18.7078 36.1598 18.7279 36.2522 18.7685C36.3448 18.8091 36.4313 18.87 36.5057 18.9495L36.5069 18.9508L38.5451 21.1122L38.5468 21.114L38.5584 21.1265C38.6996 21.2884 38.7837 21.5074 38.7857 21.7413C38.7878 21.9773 38.7061 22.2002 38.565 22.3658L38.5629 22.3684C38.5581 22.374 38.5529 22.3799 38.5477 22.3856C38.5474 22.3859 38.5471 22.3862 38.5469 22.3865L35.2467 25.8789C35.2465 25.8792 35.2463 25.8794 35.2461 25.8796C35.095 26.0378 34.8995 26.1195 34.7036 26.1192L34.6992 26.1192C34.6016 26.1199 34.5039 26.1 34.4115 26.0595C34.319 26.0189 34.2325 25.9581 34.1581 25.8787L34.157 25.8776L32.1177 23.715C32.0427 23.6354 31.9815 23.539 31.9391 23.4303C31.8966 23.3215 31.8743 23.2037 31.8741 23.084C31.8739 22.9643 31.8959 22.8465 31.938 22.7375C31.9792 22.631 32.0384 22.5362 32.111 22.4574L32.1224 22.446L32.1224 22.446L32.1256 22.4427L32.2339 22.3324L32.248 22.3181L32.2609 22.3027C32.3116 22.2419 32.3484 22.1725 32.3707 22.0996C32.3929 22.0266 32.4005 21.9504 32.3935 21.8752L32.3701 21.624L32.1541 21.4935C31.8584 21.3149 31.5149 21.2364 31.1713 21.2724L31.1672 21.2729C31.0033 21.2915 30.6002 21.375 30.0734 21.7221L30.072 21.7231C29.8785 21.8515 29.5499 22.1417 29.2275 22.4371C28.8918 22.7447 28.5232 23.0953 28.2332 23.3728L28.2328 23.3732C28.1446 23.4578 28.0365 23.4972 27.9319 23.494C27.8271 23.4909 27.7201 23.4448 27.6353 23.3537L27.6349 23.3533L25.5867 21.1588L25.5862 21.1583C25.505 21.0716 25.4511 20.9504 25.4424 20.8155C25.4337 20.6805 25.4715 20.5504 25.5429 20.4496L25.5442 20.4478C25.9191 19.9132 26.2306 19.407 26.4493 18.9971C26.5583 18.7929 26.6481 18.6054 26.7114 18.4458C26.743 18.3662 26.7707 18.2866 26.7907 18.2108C26.8087 18.1424 26.8294 18.0445 26.8248 17.9397L26.8248 17.9389C26.7653 16.6358 26.3959 15.6785 25.5648 14.9624L25.5648 14.9624L25.5614 14.9595C25.3023 14.7402 24.916 14.525 24.5064 14.3569C24.0929 14.1873 23.6146 14.0488 23.1585 14.0083C22.739 13.9705 22.3167 13.9988 21.9052 14.092L21.8978 14.0937L21.8904 14.0956C21.6965 14.1458 21.5057 14.2085 21.3191 14.2832L21.3191 14.2832L21.3162 14.2844C21.2304 14.3194 21.1384 14.3235 21.0515 14.297C20.964 14.2704 20.8803 14.2122 20.8168 14.1235C20.7531 14.0344 20.7153 13.9214 20.7138 13.8012C20.7123 13.6811 20.7472 13.5669 20.8088 13.4755C21.0432 13.13 21.3057 12.8082 21.593 12.5138C22.0657 12.0508 23.3711 11.2142 25.0932 11.2142L25.0935 11.2142C26.107 11.2135 27.1118 11.4252 28.0515 11.8384L28.0525 11.8389C30.6162 12.9589 32.2882 14.4867 33.0504 15.2907C33.0508 15.2912 33.0513 15.2917 33.0518 15.2922L33.054 15.2946C33.5696 15.8469 34.0469 16.4392 34.4818 17.067ZM22.5488 22.8395L22.555 22.8334L22.561 22.8271C22.8279 22.544 23.181 22.3927 23.5408 22.3937C23.9006 22.3948 24.253 22.5481 24.5187 22.8328L26.0727 24.4984C26.0727 24.4985 26.0728 24.4985 26.0728 24.4986C26.0728 24.4986 26.0728 24.4986 26.0728 24.4986C26.2053 24.6406 26.3119 24.8112 26.3851 25.0012C26.4582 25.1913 26.496 25.3961 26.4956 25.6036C26.4951 25.811 26.4564 26.0156 26.3823 26.2053C26.3083 26.395 26.2009 26.565 26.0678 26.7063L26.0612 26.7133L26.0549 26.7206L16.0155 38.2421C16.0151 38.2425 16.0147 38.2429 16.0143 38.2434C15.7098 38.5871 15.3601 38.7686 15.0001 38.7857H14.9414C14.5785 38.7841 14.2232 38.6296 13.955 38.3431L13.9532 38.3413L13.9528 38.3408L11.6324 35.8273C11.4943 35.6771 11.3847 35.4961 11.3124 35.2946C11.2401 35.0932 11.2069 34.8769 11.2157 34.6597C11.2335 34.2386 11.4249 33.8462 11.7453 33.5219C11.7459 33.5213 11.7465 33.5207 11.7471 33.5201L22.5488 22.8395Z"
      fill="white"
      stroke="#093D77"
    />
  </svg>