  <svg
    width="50"
    height="50"
    viewBox="0 0 50 50"
    fill="none"
    xmlns="http://www.w3.org/2000/svg"
  >
    <circle cx="25" cy="25" r="25" fill="white" />
    <path
      d="M28.5714 18.5714C28.5714 20.9383 26.6526 22.8571 24.2856 22.8571C21.9187 22.8571 19.9999 20.9383 19.9999 18.5714C19.9999 16.2044 21.9187 14.2856 24.2856 14.2856C26.6526 14.2856 28.5714 16.2044 28.5714 18.5714Z"
      fill="white"
    />
    <path
      d="M14.2856 37.1428L14.2861 32.8566C14.2864 30.4898 16.2051 28.5714 18.5718 28.5714H27.1426M30.7142 32.1428L32.1428 33.5714L37.1428 28.5714M32.1428 14.2856C33.8764 15.2574 34.9999 16.8153 34.9999 18.5714C34.9999 20.3275 33.8764 21.8853 32.1428 22.8571M28.5714 18.5714C28.5714 20.9383 26.6526 22.8571 24.2856 22.8571C21.9187 22.8571 19.9999 20.9383 19.9999 18.5714C19.9999 16.2044 21.9187 14.2856 24.2856 14.2856C26.6526 14.2856 28.5714 16.2044 28.5714 18.5714Z"
      stroke="#093D77"
      stroke-linecap="round"
      stroke-linejoin="round"
    />
  </svg>