<?xml version="1.0" encoding="UTF-8"?>
<svg id="Layer_1" data-name="Layer 1" xmlns="http://www.w3.org/2000/svg" version="1.1" viewBox="0 0 32 32">
  <defs>
    <style>
      .cls-1 {
        fill: #fff;
        stroke-width: 0px;
      }
    </style>
  </defs>
  <g>
    <path class="cls-1" d="M16,1c8.3,0,15,6.7,15,15s-6.7,15-15,15S1,24.3,1,16,7.7,1,16,1M16,0C7.2,0,0,7.2,0,16s7.2,16,16,16,16-7.2,16-16S24.8,0,16,0h0Z"/>
    <path class="cls-1" d="M13,21h0Z"/>
  </g>
  <path class="cls-1" d="M19.2,8.7c0-.2-.1-.5-.1-.7h-2.8v11c0,1.2-1.1,2.2-2.3,2.2s-.8-.1-1.1-.3h0c-.7-.5-1.2-1.3-1.2-2.1,0-1.3,1-2.3,2.3-2.3s.5,0,.7.1v-2.8h-.7c-2.8,0-5.1,2.3-5.1,5.1s.8,3.2,2.2,4.1c.9.7,1.9,1,3,1,2.8,0,5.1-2.3,5.1-5.1v-5.6c1.1.8,2.4,1.2,3.8,1.2v-2.7c-.8,0-1.5-.2-2.1-.6-.9-.5-1.5-1.4-1.7-2.5Z"/>
</svg>