<?xml version="1.0" encoding="utf-8"?>
<!-- Generator: Adobe Illustrator 27.9.3, SVG Export Plug-In . SVG Version: 9.03 Build 53313)  -->
<svg version="1.1" id="Layer_1" xmlns="http://www.w3.org/2000/svg" xmlns:xlink="http://www.w3.org/1999/xlink" x="0px" y="0px"
	 viewBox="0 0 32 32" style="enable-background:new 0 0 32 32;" xml:space="preserve">
<style type="text/css">
	.st0{fill:#333333;}
	.st1{fill-rule:evenodd;clip-rule:evenodd;fill:#333333;}
</style>
<path class="st0" d="M16,18.8c-1.5,0-2.8-1.2-2.8-2.8c0-1.5,1.2-2.8,2.8-2.8c1.5,0,2.8,1.2,2.8,2.8C18.8,17.5,17.5,18.8,16,18.8z"/>
<path class="st1" d="M19.4,9.2h-6.8c-0.8,0.1-1.2,0.2-1.5,0.3c-0.4,0.1-0.7,0.3-1,0.6c-0.24,0.24-0.35,0.47-0.49,0.76
	c-0.04,0.08-0.07,0.15-0.11,0.24c-0.02,0.05-0.03,0.1-0.05,0.15c-0.1,0.29-0.25,0.68-0.25,1.35v6.8c0.1,0.8,0.2,1.2,0.3,1.5
	c0.1,0.4,0.3,0.7,0.6,1c0.24,0.24,0.47,0.35,0.76,0.49c0.08,0.04,0.15,0.07,0.24,0.11c0.05,0.02,0.1,0.03,0.15,0.05
	c0.29,0.1,0.68,0.25,1.35,0.25h6.8c0.8-0.1,1.2-0.2,1.5-0.3c0.4-0.1,0.7-0.3,1-0.6c0.24-0.24,0.35-0.47,0.49-0.76
	c0.04-0.08,0.07-0.15,0.11-0.24c0.02-0.05,0.03-0.1,0.05-0.15c0.1-0.29,0.25-0.68,0.25-1.35v-6.8c-0.1-0.8-0.2-1.2-0.3-1.5
	c-0.1-0.4-0.3-0.7-0.6-1c-0.24-0.24-0.47-0.35-0.76-0.49c-0.08-0.04-0.16-0.07-0.24-0.11c-0.05-0.02-0.1-0.03-0.15-0.05
	C20.47,9.34,20.08,9.2,19.4,9.2z M16,11.7c-2.4,0-4.3,1.9-4.3,4.3s1.9,4.3,4.3,4.3s4.3-1.9,4.3-4.3S18.4,11.7,16,11.7z M21.4,11.6
	c0,0.55-0.45,1-1,1s-1-0.45-1-1s0.45-1,1-1S21.4,11.05,21.4,11.6z"/>
<path class="st1" d="M0,16C0,7.16,7.16,0,16,0s16,7.16,16,16s-7.16,16-16,16S0,24.84,0,16z M12.6,7.7h6.8c0.9,0.1,1.5,0.2,2,0.4
	c0.6,0.3,1,0.5,1.5,1s0.8,1,1,1.5s0.4,1.1,0.4,2v6.8c-0.1,0.9-0.2,1.5-0.4,2c-0.3,0.6-0.5,1-1,1.5s-1,0.8-1.5,1s-1.1,0.4-2,0.4h-6.8
	c-0.9-0.1-1.5-0.2-2-0.4c-0.6-0.3-1-0.5-1.5-1s-0.8-1-1-1.5s-0.4-1.1-0.4-2v-6.8c0.1-0.9,0.2-1.5,0.4-2c0.3-0.6,0.5-1,1-1.5
	s1-0.8,1.5-1C11.1,7.9,11.7,7.7,12.6,7.7z"/>
</svg>
