<?xml version="1.0" encoding="utf-8"?>
<!-- Generator: Adobe Illustrator 27.9.3, SVG Export Plug-In . SVG Version: 9.03 Build 53313)  -->
<svg version="1.1" id="Layer_1" xmlns="http://www.w3.org/2000/svg" xmlns:xlink="http://www.w3.org/1999/xlink" x="0px" y="0px"
	 viewBox="0 0 32 32" style="enable-background:new 0 0 32 32;" xml:space="preserve">
<style type="text/css">
	.st0{fill:#333333;}
</style>
<g>
	<g>
		<path class="st0" d="M16,1c8.3,0,15,6.7,15,15s-6.7,15-15,15S1,24.3,1,16S7.7,1,16,1 M16,0C7.2,0,0,7.2,0,16s7.2,16,16,16
			s16-7.2,16-16S24.8,0,16,0L16,0z"/>
	</g>
</g>
<path class="st0" d="M16,8c-4.4,0-8,3.6-8,8c0,4,2.9,7.3,6.7,7.9v-5.6h-2V16h2v-1.8c0-2,1.2-3.1,3-3.1c0.9,0,1.8,0.2,1.8,0.2v2h-1
	c-1,0-1.3,0.6-1.3,1.2V16h2.2L19,18.3h-1.9V24c4-0.6,6.9-4,6.9-8C24,11.6,20.4,8,16,8z"/>
</svg>
