<?xml version="1.0" encoding="utf-8"?>
<!-- Generator: Adobe Illustrator 27.9.3, SVG Export Plug-In . SVG Version: 9.03 Build 53313)  -->
<svg version="1.1" id="Layer_1" xmlns="http://www.w3.org/2000/svg" xmlns:xlink="http://www.w3.org/1999/xlink" x="0px" y="0px"
	 viewBox="0 0 32 32" style="enable-background:new 0 0 32 32;" xml:space="preserve">
<style type="text/css">
	.st0{fill-rule:evenodd;clip-rule:evenodd;fill:#333333;}
</style>
<path class="st0" d="M16,0C7.16,0,0,7.16,0,16s7.16,16,16,16s16-7.16,16-16S24.84,0,16,0z M19.12,8c0,0.24,0.02,0.47,0.06,0.7
	c0.2,1.05,0.82,1.95,1.68,2.51c0.6,0.39,1.31,0.62,2.08,0.62v0.61v2.14c-1.43,0-2.75-0.46-3.82-1.23v5.59
	c0,2.79-2.27,5.06-5.06,5.06c-1.08,0-2.08-0.34-2.9-0.92C9.85,22.16,9,20.65,9,18.94c0-2.79,2.27-5.06,5.06-5.06
	c0.23,0,0.46,0.02,0.68,0.05v0.65h-0.01h0.01v2.15c-0.22-0.07-0.45-0.11-0.68-0.11c-1.27,0-2.31,1.04-2.31,2.31
	c0,0.89,0.5,1.66,1.24,2.05C13,20.99,13,21,13.01,21.01l0.01,0.02C13.01,21.01,13,21,12.99,20.98c0.32,0.17,0.69,0.27,1.07,0.27
	c1.24,0,2.26-0.99,2.3-2.23V8H19.12z"/>
</svg>
