<?xml version="1.0" encoding="utf-8"?>
<!-- Generator: Adobe Illustrator 27.9.3, SVG Export Plug-In . SVG Version: 9.03 Build 53313)  -->
<svg version="1.1" id="Layer_1" xmlns="http://www.w3.org/2000/svg" xmlns:xlink="http://www.w3.org/1999/xlink" x="0px" y="0px"
	 viewBox="0 0 32 32" style="enable-background:new 0 0 32 32;" xml:space="preserve">
<style type="text/css">
	.st0{fill-rule:evenodd;clip-rule:evenodd;fill:#333333;}
</style>
<path class="st0" d="M12.6,21.65c1,0.6,2.2,0.9,3.4,0.9c3.7,0,6.6-3,6.6-6.5c0-1.8-0.6-3.4-1.9-4.7c-1.3-1.2-2.9-1.9-4.7-1.9
	c-3.6,0-6.6,3-6.6,6.6c0,1.2,0.3,2.4,1,3.5l0.2,0.3l-0.7,2.4l2.5-0.7L12.6,21.65z M18.2,16.95c0.2,0,1.2,0.5,1.4,0.6
	c0.03,0.02,0.06,0.03,0.09,0.04c0.17,0.07,0.32,0.14,0.41,0.56c0.1,0,0.1,0.4-0.1,0.9c-0.1,0.4-0.9,0.9-1.3,0.9
	c-0.07,0-0.13,0.01-0.2,0.01c-0.34,0.03-0.79,0.07-2.2-0.51c-1.75-0.7-2.97-2.4-3.31-2.88c-0.05-0.07-0.08-0.11-0.09-0.12
	c-0.02-0.03-0.05-0.09-0.1-0.16c-0.22-0.35-0.7-1.11-0.7-1.94c0-1,0.5-1.5,0.7-1.7s0.4-0.2,0.5-0.2h0.4c0.1,0,0.3,0,0.4,0.3
	c0.2,0.4,0.6,1.4,0.6,1.5c0,0.03,0.01,0.07,0.02,0.1c0.02,0.07,0.04,0.13-0.02,0.2c-0.05,0.05-0.07,0.1-0.1,0.15
	c-0.03,0.05-0.05,0.1-0.1,0.15l-0.3,0.3c-0.1,0.1-0.2,0.2-0.1,0.4c0.1,0.2,0.5,0.9,1.1,1.4c0.68,0.59,1.21,0.83,1.48,0.94
	c0.05,0.02,0.09,0.04,0.12,0.06c0.2,0,0.3,0,0.4-0.1c0.05-0.1,0.17-0.25,0.3-0.4c0.12-0.15,0.25-0.3,0.3-0.4
	C17.9,16.85,18,16.85,18.2,16.95z"/>
<path class="st0" d="M0,16C0,7.16,7.16,0,16,0s16,7.16,16,16s-7.16,16-16,16S0,24.84,0,16z M16,8c2.1,0,4.1,0.8,5.6,2.3
	s2.4,3.5,2.4,5.6c0,4.4-3.6,8-8,8c-1.3,0-2.6-0.4-3.8-1L8,24l1.1-4C8.4,18.8,8,17.4,8,16C8,11.6,11.6,8,16,8z"/>
</svg>
