<svg width="100" height="74" viewBox="0 0 100 74" fill="none" xmlns="http://www.w3.org/2000/svg">
<path d="M3.2463 70.1119C2.11715 67.5521 1.27029 64.613 0.705717 61.2946C0.235239 57.9763 0 54.6105 0 51.1974C0 39.915 3.10515 29.7229 9.31545 20.6212C15.6199 11.4246 24.9824 4.55087 37.403 0C40.1317 1.32733 42.1548 3.41315 43.4721 6.25746C44.8836 9.00694 45.4481 11.7564 45.1658 14.5059C42.0607 15.9281 39.0026 17.8717 35.9915 20.3367C32.9805 22.707 30.4869 25.4565 28.5109 28.5852C26.5349 31.6191 25.4999 34.9849 25.4058 38.6824C27.1936 38.8721 29.3107 39.2513 31.7572 39.8202C34.2037 40.2942 35.9915 41.0527 37.1207 42.0956C37.9675 43.3281 38.6262 45.3191 39.0967 48.0686C39.6613 50.7233 39.9435 53.2832 39.9435 55.7482C39.9435 58.0237 39.7083 60.6783 39.2378 63.7123C38.7673 66.6514 38.0616 68.7846 37.1207 70.1119C35.5211 71.06 32.9805 71.9133 29.4989 72.6718C26.1115 73.4303 22.9593 73.8095 20.0423 73.8095C17.2195 73.8095 14.1143 73.4777 10.7269 72.814C7.33945 72.1503 4.84592 71.2496 3.2463 70.1119ZM58.0099 70.1119C56.8807 67.5521 56.0339 64.613 55.4693 61.2946C54.9988 57.9763 54.7636 54.6105 54.7636 51.1974C54.7636 39.915 57.8687 29.7229 64.079 20.6212C70.3834 11.4246 79.7459 4.55087 92.1665 0C94.8953 1.32733 96.9184 3.41315 98.2357 6.25746C99.6471 9.00694 100.212 11.7564 99.9294 14.5059C96.8243 15.9281 93.7662 17.8717 90.7551 20.3367C87.7441 22.707 85.2505 25.4565 83.2745 28.5852C81.2985 31.6191 80.2635 34.9849 80.1694 38.6824C81.9572 38.8721 84.0743 39.2513 86.5208 39.8202C88.9673 40.2942 90.7551 41.0527 91.8843 42.0956C92.7311 43.3281 93.3898 45.3191 93.8603 48.0686C94.4248 50.7233 94.7071 53.2832 94.7071 55.7482C94.7071 58.0237 94.4719 60.6783 94.0014 63.7123C93.5309 66.6514 92.8252 68.7846 91.8843 70.1119C90.2846 71.06 87.7441 71.9133 84.2625 72.6718C80.8751 73.4303 77.7229 73.8095 74.8059 73.8095C71.9831 73.8095 68.8779 73.4777 65.4905 72.814C62.103 72.1503 59.6095 71.2496 58.0099 70.1119Z" fill="black" fill-opacity="0.05"/>
</svg>
