<svg width="100" height="72" viewBox="0 0 100 72" fill="none" xmlns="http://www.w3.org/2000/svg">
<path d="M96.7537 68.3931C97.8829 65.8959 98.7297 63.0289 99.2943 59.7919C99.7648 56.5549 100 53.2717 100 49.9422C100 38.9364 96.8948 28.9942 90.6845 20.1156C84.3801 11.1445 75.0176 4.4393 62.597 0C59.8683 1.29479 57.8452 3.32948 56.5279 6.10405C55.1164 8.78612 54.5519 11.4682 54.8342 14.1503C57.9393 15.5376 60.9974 17.4335 64.0085 19.8382C67.0195 22.1503 69.5131 24.8324 71.4891 27.8844C73.4651 30.8439 74.5001 34.1272 74.5942 37.7341C72.8064 37.9191 70.6892 38.289 68.2428 38.8439C65.7963 39.3063 64.0085 40.0462 62.8793 41.0636C62.0325 42.2659 61.3738 44.2081 60.9033 46.8902C60.3387 49.4798 60.0565 51.9769 60.0565 54.3815C60.0565 56.6012 60.2917 59.1907 60.7622 62.1503C61.2326 65.0173 61.9384 67.0983 62.8793 68.3931C64.4789 69.3179 67.0195 70.1503 70.5011 70.8902C73.8885 71.6301 77.0407 72 79.9577 72C82.7805 72 85.8857 71.6763 89.2731 71.0289C92.6606 70.3815 95.1541 69.5029 96.7537 68.3931ZM41.9901 68.3931C43.1193 65.8959 43.9661 63.0289 44.5307 59.7919C45.0012 56.5549 45.2364 53.2717 45.2364 49.9422C45.2364 38.9364 42.1313 28.9942 35.921 20.1156C29.6166 11.1445 20.2541 4.4393 7.83344 0C5.10468 1.29479 3.08162 3.32948 1.76428 6.10405C0.352852 8.78612 -0.211723 11.4682 0.0705643 14.1503C3.17572 15.5376 6.23382 17.4335 9.24488 19.8382C12.2559 22.1503 14.7495 24.8324 16.7255 27.8844C18.7015 30.8439 19.7365 34.1272 19.8306 37.7341C18.0428 37.9191 15.9257 38.289 13.4792 38.8439C11.0327 39.3063 9.24487 40.0462 8.11573 41.0636C7.26887 42.2659 6.61021 44.2081 6.13973 46.8902C5.57516 49.4798 5.29287 51.9769 5.29287 54.3815C5.29287 56.6012 5.52811 59.1907 5.99859 62.1503C6.46906 65.0173 7.17477 67.0983 8.11573 68.3931C9.71535 69.3179 12.2559 70.1503 15.7375 70.8902C19.1249 71.6301 22.2771 72 25.1941 72C28.0169 72 31.1221 71.6763 34.5095 71.0289C37.897 70.3815 40.3905 69.5029 41.9901 68.3931Z" fill="black" fill-opacity="0.05"/>
</svg>
