<svg width="157" height="32" viewBox="0 0 157 32" fill="none" xmlns="http://www.w3.org/2000/svg">
<path d="M7.21476 29.3333L9.22751 19.9667L2.47705 13.6667L11.3951 12.8333L14.8632 4L18.3313 12.8333L27.2494 13.6667L20.4989 19.9667L22.5117 29.3333L14.8632 24.3667L7.21476 29.3333Z" fill="#FFD15B"/>
<path d="M38.9413 29.3333L40.9541 19.9667L34.2036 13.6667L43.1216 12.8333L46.5898 4L50.0579 12.8333L58.9759 13.6667L52.2255 19.9667L54.2382 29.3333L46.5898 24.3667L38.9413 29.3333Z" fill="#FFD15B"/>
<path d="M70.6679 29.3333L72.6806 19.9667L65.9302 13.6667L74.8482 12.8333L78.3163 4L81.7845 12.8333L90.7025 13.6667L83.952 19.9667L85.9648 29.3333L78.3163 24.3667L70.6679 29.3333Z" fill="#FFD15B"/>
<path d="M102.394 29.3333L104.407 19.9667L97.6567 13.6667L106.575 12.8333L110.043 4L113.511 12.8333L122.429 13.6667L115.679 19.9667L117.691 29.3333L110.043 24.3667L102.394 29.3333Z" fill="#FFD15B"/>
<path d="M135.387 27.2522L137.145 19.0702L137.204 18.7931L136.997 18.5996L131.061 13.06L138.87 12.3303L139.176 12.3017L139.289 12.0152L142.291 4.36814L145.294 12.0152L145.406 12.3017L145.713 12.3303L153.521 13.06L147.585 18.5996L147.378 18.7931L147.438 19.0702L149.196 27.2522L142.564 22.9454L142.291 22.7686L142.019 22.9454L135.387 27.2522Z" stroke="#FFD15B"/>
</svg>
