<svg width="85" height="85" viewBox="0 0 85 85" fill="none" xmlns="http://www.w3.org/2000/svg">
<rect width="85" height="85" rx="29" fill="#EDFCFF"/>
<g clip-path="url(#clip0_6088_957)">
<path d="M40.6229 27.1387H36.8242V29.9389H40.6229V27.1387Z" fill="#093D77"/>
<path d="M38.323 35.5288C37.8416 35.5288 37.3933 35.2238 37.2335 34.7418C37.0339 34.1401 37.36 33.4904 37.9618 33.2908C40.1315 32.5713 41.2981 29.6048 41.3092 29.575C41.5321 28.9814 42.1939 28.6808 42.7875 28.9036C43.3811 29.1264 43.6817 29.7882 43.4589 30.3819C43.3975 30.5453 41.9191 34.3974 38.6844 35.47C38.5645 35.51 38.4427 35.5288 38.323 35.5288Z" fill="#093D77"/>
<path opacity="0.1" d="M42.4016 32.379C43.0894 31.3463 43.4302 30.4576 43.459 30.3809C43.6817 29.7873 43.3812 29.1254 42.7875 28.9026C42.194 28.6798 41.5321 28.9804 41.3093 29.574C41.3009 29.5962 40.6541 31.2406 39.4316 32.379H42.4016Z" fill="#093D77"/>
<path d="M53.1439 30.1368L51.194 27.2318C50.8952 26.7866 50.3942 26.5195 49.858 26.5195H39.3682V30.557H44.582V35.5868H48.385V34.2516C48.385 33.3629 49.1054 32.6425 49.9941 32.6425H51.8078C53.0952 32.6426 53.8614 31.2058 53.1439 30.1368Z" fill="#093D77"/>
<g opacity="0.1">
<path d="M53.1439 30.1367L51.1941 27.2318C50.8953 26.7867 50.3943 26.5195 49.8581 26.5195H48.4004C48.9366 26.5195 49.4376 26.7867 49.7364 27.2318L51.6862 30.1367C52.4036 31.2057 51.6376 32.6425 50.3502 32.6425H51.8079C53.0953 32.6425 53.8614 31.2057 53.1439 30.1367Z" fill="#093D77"/>
</g>
<path d="M49.3665 34.5117H42.9316V38.9022H49.3665V34.5117Z" fill="#093D77"/>
<path opacity="0.1" d="M49.3663 34.5117H46.8154V38.9022H49.3663V34.5117Z" fill="#093D77"/>
<path d="M54.2435 47.3794L53.2849 46.5412L50.3695 37.3711H41.9282L39.0129 46.5412L38.0543 47.3794C37.2029 48.1239 36.8359 49.2798 37.1018 50.379L39.4295 59.9997H52.8683L55.196 50.379C55.4618 49.2797 55.0948 48.1238 54.2435 47.3794Z" fill="#093D77"/>
<path opacity="0.1" d="M50.5995 47.3794L49.6409 46.5411L46.7256 37.3711H50.3698L53.2851 46.5411L54.2437 47.3794C55.095 48.1237 55.462 49.2797 55.1961 50.3789L52.8685 59.9996H49.2243L51.552 50.3789C51.8179 49.2796 51.4509 48.1237 50.5995 47.3794Z" fill="#093D77"/>
<path d="M32.3992 29.0854H30.2654C29.9635 29.0854 29.7188 28.8407 29.7188 28.5388C29.7188 28.2369 29.9635 27.9922 30.2654 27.9922H32.3992C32.7011 27.9922 32.9458 28.2369 32.9458 28.5388C32.9458 28.8407 32.7011 29.0854 32.3992 29.0854Z" fill="#093D77"/>
<path d="M33.857 27.6273C33.7172 27.6273 33.5772 27.5739 33.4705 27.4672L31.9365 25.9331C31.723 25.7196 31.723 25.3736 31.9365 25.1601C32.15 24.9466 32.4961 24.9466 32.7095 25.1601L34.2435 26.6942C34.457 26.9077 34.457 27.2537 34.2435 27.4672C34.1368 27.5739 33.997 27.6273 33.857 27.6273Z" fill="#093D77"/>
<path d="M32.323 32.0765C32.1831 32.0765 32.0432 32.0232 31.9365 31.9164C31.723 31.7029 31.723 31.3569 31.9365 31.1434L33.4705 29.6093C33.684 29.3958 34.0301 29.3958 34.2435 29.6093C34.457 29.8228 34.457 30.1689 34.2435 30.3823L32.7095 31.9164C32.6028 32.0231 32.4629 32.0765 32.323 32.0765Z" fill="#093D77"/>
<g opacity="0.1">
<path d="M50.8228 47.0883H41.4763C41.1744 47.0883 40.9297 46.8436 40.9297 46.5417C40.9297 46.2398 41.1744 45.9951 41.4763 45.9951H50.8228C51.1247 45.9951 51.3694 46.2398 51.3694 46.5417C51.3694 46.8436 51.1247 47.0883 50.8228 47.0883Z" fill="#093D77"/>
</g>
</g>
<defs>
<clipPath id="clip0_6088_957">
<rect width="35" height="35" fill="white" transform="translate(25 25)"/>
</clipPath>
</defs>
</svg>
