<svg width="85" height="85" viewBox="0 0 85 85" fill="none" xmlns="http://www.w3.org/2000/svg">
<rect width="85" height="85" rx="29" fill="#EDFCFF"/>
<path d="M44.5001 29.5C37.1381 29.5 32.5031 31.888 32.8151 33.925C32.9051 34.5085 33.1526 36.8425 33.4661 38.8345C29.8586 40.2355 28.6631 42.508 28.8236 44.3605C29.0141 46.552 30.9851 48.898 35.3156 49.303C37.7876 49.534 40.7621 48.178 42.6896 45.8605C42.4563 45.463 42.3602 44.9997 42.4163 44.5421C42.4723 44.0846 42.6774 43.6582 42.9998 43.3288C43.3222 42.9993 43.744 42.7851 44.2002 42.7191C44.6564 42.6532 45.1217 42.7391 45.5242 42.9638C45.9267 43.1885 46.2441 43.5393 46.4274 43.9623C46.6108 44.3852 46.6499 44.8567 46.5387 45.304C46.4275 45.7514 46.1722 46.1497 45.8122 46.4376C45.4522 46.7255 45.0075 46.8869 44.5466 46.897C42.2531 49.8565 38.7596 51.643 35.4506 51.4345C35.5271 51.9205 35.5556 52.855 35.5946 53.104C35.7296 53.9725 39.1151 56.494 44.5001 56.5C49.8851 56.494 53.2706 53.9725 53.4071 53.1055C53.5391 52.24 55.8686 35.992 56.1851 33.925C56.4971 31.888 51.8606 29.5 44.5001 29.5ZM30.9146 44.1775C30.8321 43.213 31.5971 41.9305 33.8006 40.969L34.7651 47.08C32.3591 46.6105 31.0181 45.3565 30.9146 44.1775ZM44.5001 37.036C39.1151 37.033 35.2946 35.035 35.2946 34.288C35.2916 33.547 39.1151 31.603 44.5001 31.606C49.8851 31.603 53.7086 33.547 53.7056 34.288C53.7056 35.035 49.8851 37.033 44.5001 37.036Z" fill="#093D77"/>
</svg>
