<svg width="85" height="85" viewBox="0 0 85 85" fill="none" xmlns="http://www.w3.org/2000/svg">
<rect width="85" height="85" rx="29" fill="#EDFCFF"/>
<path d="M36.3098 27.3789C34.7259 27.3805 33.1903 28.2655 32.5766 29.8619L26.8569 52.1585C25.9906 58.621 32.3968 58.2248 36.2876 56.6289C41.8536 54.346 48.7101 54.6319 54.2828 56.0643L54.7237 54.8873C54.2192 54.7069 53.6755 54.4779 53.2026 54.3377C53.2349 54.0394 53.2679 53.7416 53.3008 53.444L54.8757 53.7255L55.0968 52.4882C54.5448 52.3897 53.993 52.291 53.441 52.1923C53.4831 51.823 53.5256 51.4541 53.5688 51.0857L55.0819 51.3097L55.266 50.0666C54.75 49.99 54.2339 49.9136 53.7179 49.8372C53.749 49.5798 53.7801 49.3225 53.8119 49.0654C54.3324 49.1401 54.853 49.2147 55.3737 49.2892L55.5519 48.045L53.9684 47.8184C53.9999 47.5727 54.0566 47.1356 54.0887 46.8902L55.646 47.0646L55.7858 45.8635C55.2754 45.8065 54.7649 45.7493 54.2544 45.692C54.308 45.2978 54.3855 44.9276 54.4409 44.5338C54.9652 44.6104 55.4896 44.6872 56.014 44.7641L56.1719 43.5925C55.6467 43.5154 55.1215 43.4386 54.5962 43.3618C54.6504 42.9916 54.6818 42.6694 54.7378 42.2994C55.2214 42.3858 55.705 42.4722 56.1886 42.5584L56.4095 41.3211L54.9293 41.0569C54.9796 40.7372 55.03 40.4177 55.0817 40.0981C55.5587 40.2124 56.0357 40.3269 56.5126 40.4414L56.806 39.2192C56.3001 39.0977 55.7941 38.9763 55.2882 38.8549C55.3361 38.5705 55.3847 38.2862 55.4339 38.002C55.911 38.1102 56.3883 38.2183 56.8655 38.3264L57.1433 37.1007C56.6463 36.9879 56.1491 36.8753 55.652 36.7626C55.7046 36.4709 55.758 36.1792 55.8121 35.8873L57.23 36.2394L57.5329 35.0196L56.0461 34.6502C56.0967 34.3872 56.1482 34.1241 56.2001 33.8607L57.5865 34.2035L57.8881 32.9834L56.4487 32.6274C56.5065 32.3453 56.5651 32.0633 56.6244 31.7815C57.1977 31.9463 57.522 31.9431 58.088 32.1226L58.2227 31.0473C52.4936 29.2169 45.9693 28.7764 41.5299 30.6062C39.8662 38.4016 38.9797 45.7409 36.8793 53.7554C36.6464 54.644 35.8901 55.2518 35.0102 55.6738C33.1645 56.4673 30.6329 56.6157 29.2249 55.3382C28.4749 54.6313 28.1193 53.49 28.3727 52.0857C28.5301 51.2133 29.1166 50.5827 29.7969 50.2825C31.1469 49.7989 32.77 49.992 33.8228 50.826C34.6747 51.4618 34.6648 53.443 33.5574 53.0012C32.8985 52.5794 33.4231 52.191 32.9685 51.8132C32.1755 51.3054 31.1624 51.07 30.3044 51.4325C29.924 51.6003 29.6969 51.8246 29.6094 52.309C29.4085 53.4225 29.6563 54.0177 30.0869 54.4235C31.3402 55.3457 33.1822 55.1409 34.4666 54.5405C35.1532 54.2111 35.5793 53.7588 35.6636 53.4368C37.7512 45.4717 38.6334 38.1158 40.3321 30.197C39.5257 28.2594 37.8937 27.3774 36.3098 27.3789Z" fill="#093D77"/>
</svg>
