<svg width="30" height="30" viewBox="0 0 30 30" fill="none" xmlns="http://www.w3.org/2000/svg">
<g clip-path="url(#clip0_6094_1104)">
<path d="M4.03154 13.6914H0V15.5664H4.03154V13.6914Z" fill="white"/>
<path d="M26.7773 0.383789H22.1741H7.8259H2.98828H0V12.9224H4.03154C5.29313 10.4977 6.82711 4.52197 7.49174 1.79004H22.5083C23.1729 4.52197 24.7069 10.4977 25.9685 12.9224H30V0.383789H26.7773Z" fill="white"/>
<path d="M22.4094 25.228H7.59064L3.79436 16.3428H0V29.1094C0 29.1094 1.42277 30.2492 4.03154 29.1094C6.64031 27.9695 6.64031 30.0212 9.24908 29.1094L8.1917 26.6342H21.8083L20.7509 29.1094C23.3597 30.0212 23.3597 27.9695 25.9685 29.1094C28.5772 30.2492 30 29.1094 30 29.1094V16.3428H26.2056L22.4094 25.228Z" fill="white"/>
<path d="M30.0003 13.6914H25.9688V15.5664H30.0003V13.6914Z" fill="white"/>
<path d="M10.6287 17.7781L11.043 18.1924L20.7378 8.4975L20.3236 8.08323L10.6287 17.7781Z" fill="white"/>
<path d="M21.1926 14.801L20.7783 14.3867L14.0664 21.0986L14.4807 21.5129L21.1926 14.801Z" fill="white"/>
</g>
<defs>
<clipPath id="clip0_6094_1104">
<rect width="30" height="30" fill="white"/>
</clipPath>
</defs>
</svg>
