<svg width="30" height="30" viewBox="0 0 30 30" fill="none" xmlns="http://www.w3.org/2000/svg">
<g clip-path="url(#clip0_6094_1070)">
<path d="M11.8516 29.9999H19.9279L29.9999 19.9279V11.8516L11.8516 29.9999Z" fill="white"/>
<path d="M4.40678 5.66504L0 10.0718V18.1482L8.445 9.70326L4.40678 5.66504Z" fill="white"/>
<path d="M15.0004 16.2588L1.25879 30.0004H9.33518L19.0386 20.297L15.0004 16.2588Z" fill="white"/>
<path d="M25.5928 26.8516L22.4443 29.9999H28.7411L25.5928 26.8516Z" fill="white"/>
<path d="M26.8516 25.5928L29.9999 28.7411V22.4443L26.8516 25.5928Z" fill="white"/>
<path d="M10.0718 0L5.66504 4.40678L9.70326 8.445L18.1482 0H10.0718Z" fill="white"/>
<path d="M0 22.4443V28.7411L3.14836 25.5928L0 22.4443Z" fill="white"/>
<path d="M16.2588 15.0004L20.297 19.0386L30.0004 9.33518V1.25879L16.2588 15.0004Z" fill="white"/>
<path d="M0 0V7.5552L7.5552 0H0Z" fill="white"/>
<path d="M22.4443 0L25.5928 3.14836L28.7411 0H22.4443Z" fill="white"/>
<path d="M20.2959 0.36815L0.368164 20.2959L4.4063 24.334L24.334 4.40628L20.2959 0.36815Z" fill="white"/>
</g>
<defs>
<clipPath id="clip0_6094_1070">
<rect width="30" height="30" fill="white"/>
</clipPath>
</defs>
</svg>
