<svg width="30" height="30" viewBox="0 0 30 30" fill="none" xmlns="http://www.w3.org/2000/svg">
<g clip-path="url(#clip0_6094_1059)">
<path fill-rule="evenodd" clip-rule="evenodd" d="M2.50977 24.2724C3.74512 24.2724 4.74609 25.205 4.74609 26.3549C4.74609 27.5048 3.74512 28.4374 2.50977 28.4374C1.27441 28.4374 0.270996 27.5048 0.270996 26.3549C0.270996 25.205 1.27441 24.2724 2.50977 24.2724ZM22.7271 24.0819L22.7295 24.0893L23.0664 23.9818C24.0405 26.6064 24.5923 27.7172 27.439 28.0102H29.9976V29.8412H21.8237V28.0102H22.1021L21.1523 24.5971L21.416 24.5116L17.9248 15.5224L17.9199 15.5077L15.3394 8.40079C14.9756 7.60001 14.7412 6.77725 14.5093 5.96915C14.0137 4.23087 13.5376 2.56339 11.8872 1.95304C11.582 1.84073 11.2378 1.7504 10.8594 1.68448C10.4614 1.61368 10.0366 1.56974 9.58252 1.54776C8.30811 1.48673 7.05322 1.81876 6.01807 2.56583C5.07568 3.24454 4.31152 4.27726 3.87939 5.67618C3.45215 7.06046 3.24219 8.21036 3.43506 9.21378C3.62061 10.1781 4.19678 11.0595 5.34424 11.9604C5.38086 11.9897 5.43213 12.0336 5.48584 12.0775C5.55664 12.1361 5.62988 12.1996 5.68604 12.2314C6.40137 12.6464 7.146 13.0053 7.87109 13.3568C7.99561 13.4179 8.12012 13.4765 8.24463 13.5375C8.41309 13.6181 8.58887 13.7011 8.75732 13.7816C10.6104 14.6606 11.7505 15.2001 12.0728 17.6806C12.1362 18.1591 12.1313 18.623 12.0703 19.0697C16.5723 20.6933 19.6313 23.6449 20.8667 28.5131H5.51514C6.31836 27.434 6.57471 26.0815 6.07422 24.8827C5.26367 22.9418 2.77588 22.1313 0.517578 23.0761C0.336914 23.1444 0.166016 23.2275 0 23.3202V17.4096C0.45166 17.412 0.900879 17.4193 1.34277 17.4316V15.7909C1.34277 15.6322 1.47217 15.5028 1.63086 15.5028H4.09668C4.25537 15.5028 4.38477 15.6322 4.38477 15.7909V17.5634C6.70654 17.7441 8.82812 18.0883 10.73 18.6352C10.7471 18.3837 10.7397 18.1249 10.7056 17.8588C10.481 16.1254 9.59961 15.7079 8.16895 15.0292C8.00537 14.9511 7.83691 14.8705 7.64648 14.7802C7.52197 14.7191 7.39746 14.6606 7.27295 14.5995C6.52344 14.2382 5.75439 13.8671 4.99512 13.4252C4.8291 13.33 4.70947 13.2275 4.59473 13.1298C4.56543 13.1054 4.53613 13.081 4.49219 13.0468C3.05908 11.9213 2.32666 10.7738 2.08008 9.47257C1.83838 8.21036 2.07275 6.85782 2.56348 5.26847C3.09082 3.56192 4.04053 2.29239 5.21729 1.44278C6.51123 0.507724 8.07617 0.0902431 9.65088 0.165927C10.1782 0.190341 10.6616 0.24161 11.1011 0.319735C11.5601 0.400302 11.98 0.512606 12.3657 0.654208C14.6777 1.51114 15.249 3.50577 15.8423 5.58829C16.062 6.35977 16.2866 7.14347 16.5991 7.83194C16.6113 7.85636 16.6235 7.88077 16.6333 7.90763L19.2188 15.0365L22.7271 24.0819Z" fill="white"/>
</g>
<defs>
<clipPath id="clip0_6094_1059">
<rect width="30" height="30" fill="white"/>
</clipPath>
</defs>
</svg>
