<svg width="30" height="30" viewBox="0 0 30 30" fill="none" xmlns="http://www.w3.org/2000/svg">
<g clip-path="url(#clip0_6094_1056)">
<path d="M27.3409 0L17.098 10.2429C16.362 9.8199 15.4067 9.92205 14.7777 10.551C14.2516 11.0771 14.0943 11.8317 14.3044 12.4951C12.8591 11.7563 11.1972 11.6319 9.52433 12.3453C6.38643 13.9024 4.22145 17.1422 0 17.5186C0.322225 18.182 0.739475 18.9217 1.25122 19.7367C3.02635 20.0162 4.77435 19.4518 6.1402 18.0583C5.60967 19.7094 4.31335 20.9417 2.5602 21.5837C3.01507 22.1903 3.53538 22.827 4.12293 23.4904C6.1442 22.8147 6.86698 21.8899 4.9758 24.3977C5.7734 25.2262 6.62768 26.1047 7.6774 26.844C8.14375 25.122 9.40058 23.7997 11.2012 23.1193C9.82153 24.4125 9.269 26.2855 9.60955 28.2926C10.652 28.9939 11.6095 29.5641 12.4814 30C13.224 26.8142 15.3911 23.5097 17.6548 20.4758C18.3851 18.9383 18.2668 17.277 17.4896 15.6906C18.1568 15.908 18.9188 15.7526 19.449 15.2224C20.078 14.5934 20.1801 13.6382 19.7571 12.9022L30 2.65925L27.341 0.0002L27.3409 0Z" fill="white"/>
</g>
<defs>
<clipPath id="clip0_6094_1056">
<rect width="30" height="30" fill="white"/>
</clipPath>
</defs>
</svg>
