<svg width="85" height="85" viewBox="0 0 85 85" fill="none" xmlns="http://www.w3.org/2000/svg">
<rect width="85" height="85" rx="29" fill="#EDFCFF"/>
<g clip-path="url(#clip0_6094_17836)">
<path d="M37.6457 30.9181V28.1793H34.9547V25H31.2887V28.1793H28.5977V30.9181H29.8028C28.6359 32.5584 26.3652 36.0483 26.3652 38.3518V60.0001H39.6731V38.3518C39.6731 35.8534 37.5533 32.4868 36.4601 30.918L37.6457 30.9181ZM38.108 58.4351H27.9302V38.3518C27.9302 36.5442 30.0829 33.1967 31.2887 31.5317V33.7867H34.9547V31.4953C36.0846 33.0653 38.1088 36.3015 38.1088 38.3518V58.4351H38.108Z" fill="#093D77"/>
<path d="M55.9313 40.1606L53.6151 40.1286L53.5937 37.9633H54.3433V35.3007H51.775V32.377H48.3454V35.3007H45.7779V37.9633H46.4381V40.1286H43.8324L43.6994 40.1778C43.584 40.221 40.8789 41.2649 40.8789 43.8011V59.9997H58.6341V43.8011C58.634 41.548 56.8658 40.4346 55.9313 40.1606ZM57.069 58.4347H42.4438V43.8026C42.4438 42.5723 43.7376 41.878 44.1341 41.6943H48.0031V37.964H52.0279L52.0638 41.6943H55.579C55.9121 41.8242 57.0691 42.3759 57.0691 43.8026L57.069 58.4347Z" fill="#093D77"/>
<path d="M31.0176 42.3227C29.7212 41.7458 28.6953 42.8992 28.6953 42.8992V57.7667H37.2543V42.166C37.2543 42.166 36.5203 41.9704 35.2002 42.166C33.8802 42.3617 32.3144 42.8992 31.0176 42.3227ZM30.3425 56.8864C29.9512 56.8864 29.6352 56.5693 29.6352 56.1789C29.6352 55.7892 29.952 55.4713 30.3425 55.4713C30.7329 55.4713 31.0497 55.7892 31.0497 56.1789C31.0497 56.5694 30.733 56.8864 30.3425 56.8864ZM32.1914 53.3338C31.6924 53.3338 31.2885 52.9296 31.2885 52.4314C31.2885 51.9324 31.6932 51.5281 32.1914 51.5281C32.69 51.5281 33.0946 51.9324 33.0946 52.4314C33.0946 52.9296 32.69 53.3338 32.1914 53.3338ZM31.8621 48.5639C31.0226 48.5639 30.3417 47.8831 30.3417 47.0433C30.3417 46.2035 31.0226 45.5233 31.8621 45.5233C32.7019 45.5233 33.3816 46.205 33.3816 47.0433C33.3823 47.8839 32.7019 48.5639 31.8621 48.5639ZM36.5123 54.8538C36.5123 55.3536 36.1081 55.7571 35.6095 55.7571C35.1101 55.7571 34.7066 55.3528 34.7066 54.8538C34.7066 54.3556 35.1109 53.9513 35.6095 53.9513C36.1088 53.9513 36.5123 54.3556 36.5123 54.8538ZM36.1222 48.9148C36.1222 49.306 35.8051 49.6216 35.4146 49.6216C35.0241 49.6216 34.7074 49.3045 34.7074 48.9148C34.7074 48.5235 35.0241 48.2071 35.4146 48.2071C35.8051 48.2071 36.1222 48.5235 36.1222 48.9148Z" fill="#093D77"/>
<path d="M51.7257 50.4499C49.9284 49.5802 47.3441 51.3637 45.8096 50.4499C44.2767 49.5343 43.1045 50.4499 43.1045 50.4499V57.8614H56.4086V50.4499C56.4086 50.4499 53.5223 51.3179 51.7257 50.4499ZM45.6858 55.4719C44.8468 55.4719 44.1659 54.7902 44.1659 53.9512C44.1659 53.1114 44.8467 52.432 45.6858 52.432C46.5264 52.432 47.2057 53.1122 47.2057 53.9512C47.2057 54.7918 46.5264 55.4719 45.6858 55.4719ZM49.7573 53.3345C49.2575 53.3345 48.854 52.9303 48.854 52.432C48.854 51.933 49.2583 51.5288 49.7573 51.5288C50.2555 51.5288 50.6598 51.933 50.6598 52.432C50.6598 52.9303 50.2555 53.3345 49.7573 53.3345ZM51.3719 55.8692C51.096 55.8692 50.8744 55.6469 50.8744 55.371C50.8744 55.0967 51.096 54.8743 51.3719 54.8743C51.6462 54.8743 51.8686 55.0966 51.8686 55.371C51.8686 55.6469 51.6462 55.8692 51.3719 55.8692ZM54.2841 57.3081C53.6055 57.3081 53.0569 56.7588 53.0569 56.0809C53.0569 55.4032 53.6055 54.8545 54.2841 54.8545C54.9612 54.8545 55.5098 55.4047 55.5098 56.0809C55.5099 56.7588 54.9604 57.3081 54.2841 57.3081ZM54.991 51.7229C55.3822 51.7229 55.6978 52.0407 55.6978 52.4305C55.6978 52.8218 55.3815 53.1381 54.991 53.1381C54.6005 53.1381 54.2841 52.8217 54.2841 52.4305C54.2841 52.0408 54.5998 51.7229 54.991 51.7229Z" fill="#093D77"/>
</g>
<defs>
<clipPath id="clip0_6094_17836">
<rect width="35" height="35" fill="white" transform="translate(25 25)"/>
</clipPath>
</defs>
</svg>
