<svg width="85" height="85" viewBox="0 0 85 85" fill="none" xmlns="http://www.w3.org/2000/svg">
<rect width="85" height="85" rx="29" fill="#EDFCFF"/>
<g clip-path="url(#clip0_6823_868)">
<path d="M48.9817 34.001L47.6797 35.3016C44.4339 33.4133 40.2041 33.8588 37.4229 36.6388L49.4167 48.6325C52.1966 45.8519 52.6428 41.6222 50.7538 38.3764L52.0558 37.0751L48.9817 34.001Z" fill="#093D77"/>
<path d="M23 46.433C23 46.433 23.7488 47.8589 25.2648 49.9723C26.426 49.2692 29.2524 47.4986 32.297 45.1416L32.791 45.6363C32.791 45.6363 29.4551 48.7541 26.35 51.4221C26.7991 52.0006 27.2945 52.6101 27.8364 53.2407C29.5115 51.7916 31.3695 50.1328 32.7151 48.7865L33.3991 49.1666C33.3991 49.1666 31.0795 51.6424 28.6402 54.15C29.1526 54.7187 29.7015 55.2985 30.287 55.8841C31.7678 57.3648 33.2163 58.5944 34.5181 59.5909C35.8131 58.0969 38.0286 55.5259 38.7127 54.6314L39.4714 55.5427C39.4714 55.5427 37.4361 58.6224 36.3072 60.8866C38.3595 62.2877 39.7374 62.9437 39.7374 62.9437C42.1852 58.6738 48.698 49.7013 48.698 49.7013L36.5154 37.5176C36.5154 37.5176 30.6853 42.3912 23 46.433Z" fill="#093D77"/>
<path d="M60.8359 23.0567L50.2314 33.6611L52.3949 35.8246L62.9994 25.2201L60.8359 23.0567Z" fill="#093D77"/>
</g>
<defs>
<clipPath id="clip0_6823_868">
<rect width="40" height="40" fill="white" transform="translate(23 23)"/>
</clipPath>
</defs>
</svg>
