<svg width="85" height="85" viewBox="0 0 85 85" fill="none" xmlns="http://www.w3.org/2000/svg">
<rect width="85" height="85" rx="29" fill="#EDFCFF"/>
<path d="M41.4449 39.6842C41.3078 40.324 40.9879 42.0959 40.9176 42.7392C40.8262 43.5549 40.8403 44.6517 40.9317 45.5342C41.002 46.2232 41.466 49.1869 41.6629 50.4349C41.7156 50.7689 41.5328 51.0924 41.2199 51.2154C40.211 51.6232 37.8133 52.5021 34.4945 53.1385C31.4676 53.7185 29.5551 53.9541 28.641 54.0455C28.2754 54.0806 27.9414 53.8416 27.8641 53.4795C27.4281 51.4721 25.9692 44.9892 24.2395 40.2361C24.018 39.6279 21.5781 32.3717 21.5781 32.3717C21.1844 31.2889 21.4586 30.2377 22.4887 29.8158C23.5469 29.3799 24.3274 29.8756 24.7246 30.8142L26.3453 35.1701C26.4227 35.3529 26.5914 35.6799 26.7813 35.6271C26.9852 35.5674 27.0379 35.3881 26.9852 35.1877C26.6371 33.8201 25.2098 29.3271 25.041 28.4658C24.809 27.274 25.1676 26.2721 26.261 25.9873C27.3543 25.7025 28.3 26.483 28.5426 27.3724C28.7852 28.2619 30.5184 34.2877 30.5184 34.2877C30.666 34.6955 31.0703 34.4107 31.0317 34.1963L29.5621 26.1525C29.2738 24.4685 30.1598 23.449 31.2707 23.4033C32.1637 23.3682 33.134 23.8041 33.4223 25.2666L34.8356 33.6654C34.934 34.0346 35.268 34.0064 35.2363 33.5705L34.7582 26.3213C34.6598 24.6057 35.377 24.0607 36.2805 24.0045C37.634 23.9201 38.1895 24.7041 38.3055 26.2123C38.3652 26.9963 38.9488 32.9412 38.9488 32.9412C38.9559 33.0361 38.9664 33.1943 38.9664 33.1943C39.3567 32.7197 39.8664 32.2416 40.675 32.231C41.4098 32.2205 42.0039 32.3822 42.359 33.7463C42.6649 34.9381 41.807 38.0037 41.4449 39.6842Z" fill="#093D77"/>
<path d="M36.7941 39.6133C36.6465 37.423 36.875 33.366 38.8894 32.4062L38.9597 33.1902C37.7328 34.8812 37.3742 39.8383 37.3496 40.5238C37.325 41.2129 36.882 40.9105 36.7941 39.6133Z" fill="#093D77"/>
<path d="M30.1422 53.8555C30.1422 53.8555 29.5973 53.7887 29.316 53.0329C29.0348 52.277 28.3528 48.8493 28.3246 48.5575C28.2649 47.9457 28.4231 47.9422 28.525 47.9457C28.6586 47.9528 28.8168 48.1567 28.975 48.8071C29.2563 49.9602 30.1422 53.8555 30.1422 53.8555Z" fill="#093D77"/>
<path d="M32.8704 53.4274C32.8704 53.4274 32.3254 53.3606 32.0442 52.6048C31.7629 51.8489 31.0985 48.502 31.0669 48.2138C31.0001 47.588 31.1161 47.5598 31.1899 47.5282C31.3305 47.4684 31.5204 47.6231 31.7032 48.379C31.9809 49.5321 32.8704 53.4274 32.8704 53.4274Z" fill="#093D77"/>
<path d="M35.3415 52.931C35.3415 52.931 34.7965 52.8642 34.5153 52.1083C34.2973 51.5247 33.7313 49.106 33.5415 47.9107C33.4676 47.4431 33.5309 47.0739 33.7348 47.0704C33.8262 47.0669 33.9704 46.965 34.1778 47.8825C34.4344 49.0392 35.3415 52.931 35.3415 52.931Z" fill="#093D77"/>
<path d="M39.8242 51.7324C39.8242 51.7324 40.2847 51.4371 40.2144 50.6355C40.1581 50.0168 39.6413 47.5805 39.3074 46.4168C39.2511 46.2234 39.0753 45.7945 38.8433 45.8543C38.6113 45.9141 38.6218 46.1602 38.7308 46.6699C38.9734 47.8266 39.8242 51.7324 39.8242 51.7324Z" fill="#093D77"/>
<path d="M37.2468 52.4639C37.2468 52.4639 37.7074 52.1686 37.6371 51.367C37.5843 50.7694 37.1027 48.4948 36.7687 47.2889C36.6527 46.8705 36.5894 46.5084 36.2941 46.5049C36.041 46.5014 36.0445 46.9057 36.1535 47.4014C36.2554 47.8971 37.2468 52.4639 37.2468 52.4639Z" fill="#093D77"/>
<path d="M43.4883 48.1356C43.6219 48.7755 43.9243 50.5508 43.9946 51.1942C44.079 52.0098 44.0543 53.1067 43.9559 53.9891C43.8821 54.636 43.4497 57.2868 43.2282 58.6368C43.1884 58.8694 43.2299 59.1086 43.3458 59.3141C43.4617 59.5196 43.6449 59.679 43.8645 59.7653C44.9825 60.2118 47.2606 61.0309 50.3368 61.6426C53.2442 62.2227 55.2833 62.3141 56.3485 62.3071C56.5883 62.3055 56.8202 62.2209 57.0048 62.0678C57.1893 61.9146 57.3152 61.7023 57.361 61.4669C57.7688 59.3364 58.9887 53.3985 60.6973 48.8247C60.9223 48.22 63.4219 40.9813 63.4219 40.9813C63.8227 39.902 63.559 38.8473 62.5325 38.4184C61.4778 37.9755 60.6938 38.4641 60.286 39.3993L58.4157 43.9555C58.3383 44.1383 58.1977 44.1946 58.0958 44.1559C57.9938 44.1173 57.9868 44.0118 58.043 43.8079C58.4016 42.4438 59.8043 37.6274 59.9801 36.7696C60.1876 35.7606 59.8114 34.8219 58.7215 34.5266C57.6317 34.2348 56.7247 34.843 56.4751 35.7325C56.2254 36.6219 54.4606 43.0731 54.4606 43.0731C54.4043 43.2911 53.9825 43.2208 54.0704 42.8516L55.8001 34.6391C56.0637 33.0114 55.4274 32.1606 54.2813 31.9426C53.1387 31.7247 52.2036 32.245 51.9188 33.8727C51.9188 33.8727 50.4317 42.1485 50.379 42.3735C50.3122 42.6442 49.9008 42.6055 49.9676 42.2575L50.6215 34.5864C50.6532 33.0255 49.8305 32.4876 48.8215 32.4735C47.4118 32.4559 46.8493 33.4614 46.7297 34.8395C46.6629 35.6235 46.0336 41.6633 46.0336 41.6633C46.0336 41.6633 45.334 40.7633 44.4059 40.788C43.9629 40.7985 42.8836 41.0235 42.8098 42.493C42.7501 43.5337 43.1403 46.4551 43.4883 48.1356Z" fill="#093D77"/>
<path d="M44.9583 47.9629C44.6454 45.7516 45.0462 40.9141 45.0462 40.9141C45.5419 41.0125 46.0271 41.6629 46.0271 41.6629L45.5243 48.9121C45.5243 48.9121 45.1622 49.4043 44.9583 47.9629Z" fill="#093D77"/>
<path d="M45.2599 60.2612C45.2599 60.2612 44.7888 59.9835 44.8275 59.1784C44.8591 58.5315 45.3513 55.9053 45.6255 54.7909C45.7837 54.144 45.9771 54.1686 46.0614 54.1792C46.2091 54.1932 46.311 54.4182 46.1845 55.16C45.9841 56.3342 45.2599 60.2612 45.2599 60.2612Z" fill="#093D77"/>
<path d="M47.963 61.1083C47.963 61.1083 47.4919 60.8306 47.5306 60.0255C47.5622 59.3786 48.0439 56.7595 48.3286 55.645C48.4939 55.0017 48.6872 55.0157 48.7716 55.0263C48.9157 55.0474 49.0071 55.2091 48.8876 56.0071C48.7048 57.1814 47.963 61.1083 47.963 61.1083Z" fill="#093D77"/>
<path d="M50.3927 61.6538C50.3927 61.6538 49.9216 61.3761 49.9603 60.571C49.9919 59.9241 50.6423 56.7003 50.7583 56.187C50.8743 55.6737 50.9868 55.4804 51.1696 55.5085C51.3525 55.5366 51.465 55.6808 51.3173 56.5527C51.1169 57.7269 50.3927 61.6538 50.3927 61.6538Z" fill="#093D77"/>
<path d="M54.9775 62.2403C54.9775 62.2403 55.5189 62.1489 55.7686 61.386C55.9725 60.7637 56.4963 58.1094 56.6193 56.9844C56.6475 56.7207 56.6264 56.2532 56.4576 56.211C56.317 56.1758 56.1447 56.2215 55.9654 57.1532C55.7475 58.3203 54.9775 62.2403 54.9775 62.2403Z" fill="#093D77"/>
<path d="M52.3721 61.9769C52.3721 61.9769 52.9135 61.8855 53.1631 61.1226C53.4127 60.3597 53.9787 56.7562 53.9998 56.4644C54.0279 56.0355 53.9014 55.9195 53.7396 55.9581C53.5744 55.9933 53.4584 56.4152 53.3635 56.8933C53.0305 58.5873 52.7 60.2819 52.3721 61.9769Z" fill="#093D77"/>
</svg>
