<svg width="85" height="85" viewBox="0 0 85 85" fill="none" xmlns="http://www.w3.org/2000/svg">
<rect width="85" height="85" rx="29" fill="#EDFCFF"/>
<g clip-path="url(#clip0_6088_1022)">
<path d="M44.0379 58.3997C40.4053 58.3997 36.074 58.2859 31.1624 58.0599C31.0469 58.0718 30.7021 58.0803 30.3992 57.7316C30.3375 57.6597 30.2843 57.5747 30.235 57.483C29.9587 57.6834 29.7679 57.9965 29.7453 58.3629C29.7068 59.0134 30.2016 59.5728 30.8521 59.6118C31.3079 59.6379 37.49 60.0008 43.7384 60.0008C48.723 60.0008 53.7524 59.7698 55.9429 58.9551C56.5538 58.7286 56.8646 58.0486 56.6387 57.4377C56.5329 57.1558 56.329 56.9412 56.0833 56.8115C56.0912 56.9287 56.0992 57.0465 56.1009 57.1722L56.1026 57.3301L55.9729 57.4185C55.8274 57.5181 54.2495 58.3997 44.0379 58.3997Z" fill="#093D77"/>
<path d="M30.9442 45.7844C31.5817 50.264 31.3496 51.355 30.9991 53.0071C30.8887 53.5252 30.7641 54.1129 30.6543 54.8834C30.4409 56.3787 30.6215 57.0032 30.7868 57.2631C30.8066 57.2948 30.8264 57.3225 30.8451 57.3452C30.9431 57.4579 31.0393 57.4743 31.0874 57.4743L31.1333 57.4624L31.1627 57.4709C36.076 57.6957 40.4084 57.8106 44.0382 57.8106C52.5739 57.8106 54.9569 57.1901 55.5067 56.9891C55.5016 56.8804 55.4925 56.7784 55.4812 56.6765C55.2831 54.7402 54.0516 54.071 52.2574 53.1006C51.7218 52.8095 51.1143 52.4823 50.4904 52.0928C47.6776 50.3365 42.6544 48.2705 42.6041 48.2507L42.3402 48.142L42.4393 47.8742C43.3939 45.2964 43.4777 27.5014 43.4845 25.03C42.9908 25.0091 42.5293 25 42.0979 25C36.4282 25 36.1932 26.5366 36.191 26.5525L35.9158 29.0465L35.6044 26.5711C35.4997 25.7349 33.6709 25.2548 30.5864 25.2548C29.5893 25.2548 28.7163 25.3069 28.2871 25.3374C28.7089 33.949 29.4302 37.6178 30.1283 41.1655C30.4222 42.6529 30.6979 44.0581 30.9442 45.7844Z" fill="#093D77"/>
</g>
<defs>
<clipPath id="clip0_6088_1022">
<rect width="35" height="35" fill="white" transform="translate(25 25)"/>
</clipPath>
</defs>
</svg>
