<svg width="85" height="85" viewBox="0 0 85 85" fill="none" xmlns="http://www.w3.org/2000/svg">
<rect width="85" height="85" rx="29" fill="#EDFCFF"/>
<g clip-path="url(#clip0_6045_7654)">
<path d="M33.4268 45.5751C33.3616 45.3252 33.4342 45.0592 33.618 44.8766L53.3032 25.2132C53.5884 24.9286 54.0499 24.9291 54.334 25.2138L58.9749 29.8541C58.9974 29.8771 59.0187 29.9006 59.038 29.9251L59.1298 30.0095C59.2719 30.1398 59.3562 30.3219 59.3649 30.5152L59.4546 32.5756C59.4716 32.9783 59.1598 33.3185 58.7581 33.3361L57.4251 33.3938L57.4827 34.7257C57.5009 35.1284 57.189 35.4686 56.7864 35.4862L55.4544 35.5439L55.5121 36.8764C55.5206 37.0692 55.4512 37.2577 55.321 37.4003C55.1907 37.5429 55.008 37.6278 54.8147 37.6364L53.4827 37.6941L53.5404 39.026C53.549 39.2194 53.4806 39.4079 53.3503 39.5504C53.2189 39.693 53.0374 39.7779 52.844 39.7865L51.5122 39.8442L51.5699 41.1761C51.5784 41.3694 51.509 41.558 51.3787 41.7006C51.2484 41.8432 51.0657 41.9281 50.8734 41.9366L49.5405 41.9943L49.5982 43.3262C49.6067 43.5195 49.5384 43.7092 49.4081 43.8512C49.2767 43.9933 49.0951 44.0787 48.9018 44.0873L47.5699 44.145L47.6276 45.4769C47.6361 45.6702 47.5666 45.8582 47.4363 46.0014C47.3061 46.1434 47.1234 46.2289 46.9301 46.2374L45.5981 46.2951L45.6555 47.6271C45.6737 48.0296 45.3619 48.3693 44.9592 48.3875L43.6273 48.4451L43.685 49.7771C43.7021 50.1798 43.3902 50.5194 42.9875 50.5376L41.6555 50.5953L41.7132 51.9271C41.7314 52.3298 41.4185 52.6694 41.0168 52.6876L38.9564 52.7763C38.9479 52.7774 38.9404 52.7774 38.9329 52.7774L33.4268 45.5751Z" fill="#093D77"/>
<path d="M39.6546 51.1284C39.613 50.4148 39.3032 49.7868 38.7574 49.3126C37.5334 48.2487 37.8709 46.5815 38.1967 44.9697C38.4562 43.6858 38.7008 42.4735 38.0642 41.6126L37.56 40.9316L25.5449 52.9729L25.8418 53.4621C26.4186 54.4106 27.2325 54.6595 27.8862 54.8592C28.605 55.0782 29.0793 55.2235 29.4531 56.1623C30.8341 59.6262 32.149 60 32.65 60L32.9671 59.9883L37.9072 55.0483L37.9307 55.0226C38.1187 54.8165 39.7625 52.9516 39.6546 51.1284ZM36.1363 53.7131C36.1352 53.7142 36.1342 53.7152 36.1331 53.7163L36.1245 53.7259C36.1234 53.7259 36.1234 53.7259 36.1224 53.727L34.5875 55.2619L34.5864 55.263C34.5319 55.3164 34.47 55.3624 34.3973 55.3987C34.2937 55.451 34.1816 55.4756 34.0726 55.4756C33.8045 55.4756 33.5471 55.3282 33.4189 55.0729L31.3564 50.9468C31.2144 50.6616 31.2774 50.3262 31.4888 50.1105C31.491 50.1094 33.0397 48.5595 33.0397 48.5595C33.0397 48.5595 33.0408 48.5584 33.0419 48.5584C33.0953 48.505 33.1573 48.4591 33.2288 48.4228C33.5888 48.2433 34.0267 48.3886 34.2071 48.7496L36.2697 52.8746C36.4129 53.1609 36.3499 53.4963 36.1363 53.7131Z" fill="#093D77"/>
<path d="M38.7573 49.3115C38.7061 49.2677 38.658 49.2207 38.6121 49.1748C38.6089 49.178 38.6046 49.1812 38.6014 49.1844L37.9253 49.8616C37.6401 50.1457 37.6401 50.6072 37.9253 50.8924C38.2094 51.1776 38.6708 51.1776 38.956 50.8924L39.4933 50.3551C39.3437 49.9599 39.0959 49.6064 38.7573 49.3115Z" fill="#093D77"/>
<path d="M38.4467 43.4689C38.2555 43.4651 38.0622 43.5357 37.9169 43.682L36.8947 44.7031C36.6106 44.9884 36.6106 45.4498 36.8947 45.735C37.1799 46.0202 37.6413 46.0202 37.9265 45.735L38.075 45.5865C38.1134 45.3803 38.1551 45.1742 38.1967 44.9691C38.3015 44.451 38.404 43.9448 38.4467 43.4689Z" fill="#093D77"/>
</g>
<defs>
<clipPath id="clip0_6045_7654">
<rect width="35" height="35" fill="white" transform="translate(25 25)"/>
</clipPath>
</defs>
</svg>
