<svg width="85" height="85" viewBox="0 0 85 85" fill="none" xmlns="http://www.w3.org/2000/svg">
<rect width="85" height="85" rx="29" fill="#EDFCFF"/>
<g clip-path="url(#clip0_6045_7674)">
<path d="M42.5 60C52.165 60 60 52.165 60 42.5C60 32.835 52.165 25 42.5 25C32.835 25 25 32.835 25 42.5C25 52.165 32.835 60 42.5 60Z" fill="#093D77" fill-opacity="0.76"/>
<path d="M42.4998 55.7837C35.1691 55.7837 29.2163 49.831 29.2163 42.5003C29.2163 35.1696 35.1691 29.2168 42.4998 29.2168C49.8305 29.2168 55.7832 35.1696 55.7832 42.5003C55.7832 49.831 49.8305 55.7837 42.4998 55.7837Z" fill="black"/>
<path d="M53.0275 43.1067C53.0275 42.9138 53.0551 42.6933 53.0551 42.5004C53.0551 36.6855 48.3425 31.9453 42.4999 31.9453C36.685 31.9453 31.9448 36.6579 31.9448 42.5004C31.9448 42.6933 31.9448 42.9138 31.9724 43.1067H53.0275Z" fill="white"/>
<path d="M39.11 36.4647C39.0549 36.382 38.9722 36.3544 38.8895 36.4095C38.8069 36.4371 38.7517 36.5473 38.8069 36.63L41.7006 43.6024C41.7281 43.63 41.7281 43.6851 41.7557 43.7127C41.9761 44.071 42.4446 44.1812 42.8029 43.9607C43.1612 43.7402 43.2714 43.2717 43.0509 42.9135L39.11 36.4647Z" fill="#FF0000"/>
<path d="M42.5002 45.0082C43.5504 45.0082 44.4018 44.1569 44.4018 43.1067C44.4018 42.0564 43.5504 41.2051 42.5002 41.2051C41.45 41.2051 40.5986 42.0564 40.5986 43.1067C40.5986 44.1569 41.45 45.0082 42.5002 45.0082Z" fill="#FF0000"/>
<path d="M42.5004 34.3698C42.3074 34.3698 42.1421 34.2045 42.1421 34.0115V33.2674C42.1421 33.0745 42.3074 32.9092 42.5004 32.9092C42.6933 32.9092 42.8586 33.0745 42.8586 33.2674V34.0115C42.8586 34.2045 42.6933 34.3698 42.5004 34.3698Z" fill="#FF0000"/>
<path d="M48.2601 36.7402C48.1223 36.6024 48.1223 36.382 48.2601 36.2442L48.7837 35.7205C48.9215 35.5827 49.142 35.5827 49.2798 35.7205C49.4176 35.8583 49.4176 36.0788 49.2798 36.2166L48.7561 36.7402C48.5908 36.878 48.3703 36.878 48.2601 36.7402Z" fill="#FF0000"/>
<path d="M35.7484 35.7479C35.8862 35.6101 36.1066 35.6101 36.2444 35.7479L36.7681 36.2715C36.9058 36.4093 36.9058 36.6298 36.7681 36.7676C36.6303 36.9054 36.4098 36.9054 36.272 36.7676L35.7484 36.2439C35.6106 36.1061 35.6106 35.8857 35.7484 35.7479Z" fill="#FF0000"/>
<path d="M39.3862 34.9759C39.2208 35.0585 39.0003 34.9759 38.9452 34.7829L38.6696 34.094C38.5869 33.9286 38.6696 33.7081 38.8625 33.653C39.0279 33.5703 39.2484 33.653 39.3035 33.8459L39.5791 34.5349C39.6617 34.7003 39.5791 34.9207 39.3862 34.9759Z" fill="#FF0000"/>
<path d="M50.0236 39.3852C49.9409 39.2198 50.0236 38.9994 50.2165 38.9442L50.9055 38.6686C51.0709 38.586 51.2913 38.6686 51.3465 38.8616C51.4291 39.0269 51.3465 39.2474 51.1535 39.3025L50.4646 39.5781C50.2992 39.6608 50.0787 39.5781 50.0236 39.3852Z" fill="#FF0000"/>
<path d="M45.6142 34.9766C45.4489 34.8939 45.3662 34.701 45.4213 34.5356L45.6969 33.8466C45.7796 33.6813 45.9725 33.5986 46.1378 33.6537C46.3032 33.7364 46.3859 33.9293 46.3308 34.0947L46.0552 34.7836C46 34.9766 45.7796 35.0592 45.6142 34.9766Z" fill="#FF0000"/>
<path d="M33.6537 38.8339C33.7364 38.6686 33.9293 38.5859 34.0947 38.641L34.7836 38.9166C34.949 38.9993 35.0317 39.1922 34.9766 39.3576C34.8939 39.5229 34.701 39.6056 34.5356 39.5505L33.8466 39.2749C33.6813 39.2198 33.5986 39.0269 33.6537 38.8339Z" fill="#FF0000"/>
<path d="M42.5 31.3662C42.8805 31.3662 43.189 31.0578 43.189 30.6773C43.189 30.2967 42.8805 29.9883 42.5 29.9883C42.1195 29.9883 41.811 30.2967 41.811 30.6773C41.811 31.0578 42.1195 31.3662 42.5 31.3662Z" fill="#093D77"/>
<path d="M42.5 55.0117C42.8805 55.0117 43.189 54.7033 43.189 54.3228C43.189 53.9423 42.8805 53.6338 42.5 53.6338C42.1195 53.6338 41.811 53.9423 41.811 54.3228C41.811 54.7033 42.1195 55.0117 42.5 55.0117Z" fill="#093D77"/>
<path d="M54.3228 43.1895C54.7033 43.1895 55.0117 42.881 55.0117 42.5005C55.0117 42.12 54.7033 41.8115 54.3228 41.8115C53.9423 41.8115 53.6338 42.12 53.6338 42.5005C53.6338 42.881 53.9423 43.1895 54.3228 43.1895Z" fill="#093D77"/>
<path d="M30.6773 43.1895C31.0578 43.1895 31.3662 42.881 31.3662 42.5005C31.3662 42.12 31.0578 41.8115 30.6773 41.8115C30.2967 41.8115 29.9883 42.12 29.9883 42.5005C29.9883 42.881 30.2967 43.1895 30.6773 43.1895Z" fill="#093D77"/>
</g>
<defs>
<clipPath id="clip0_6045_7674">
<rect width="35" height="35" fill="white" transform="translate(25 25)"/>
</clipPath>
</defs>
</svg>
