<svg width="30" height="30" viewBox="0 0 30 30" fill="none" xmlns="http://www.w3.org/2000/svg">
<path d="M8.75 26.25H15C16.3261 26.25 17.5979 25.7232 18.5355 24.7855C19.4732 23.8478 20 22.5761 20 21.25V13.75H26.25V8.75H20C18.6739 8.75 17.4021 9.27678 16.4645 10.2145C15.5268 11.1521 15 12.4239 15 13.75V21.25H8.75V5H3.75V21.25C3.75 22.5761 4.27678 23.8478 5.21447 24.7855C6.15215 25.7232 7.42392 26.25 8.75 26.25Z" fill="white"/>
<path d="M25 13.75V8.75C25 8.41848 25.1317 8.10054 25.3661 7.86612C25.6005 7.6317 25.9185 7.5 26.25 7.5C26.5815 7.5 26.8995 7.6317 27.1339 7.86612C27.3683 8.10054 27.5 8.41848 27.5 8.75V13.75C27.5 14.0815 27.3683 14.3995 27.1339 14.6339C26.8995 14.8683 26.5815 15 26.25 15C25.9185 15 25.6005 14.8683 25.3661 14.6339C25.1317 14.3995 25 14.0815 25 13.75ZM2.5 5C2.5 4.66848 2.6317 4.35054 2.86612 4.11612C3.10054 3.8817 3.41848 3.75 3.75 3.75H8.75C9.08152 3.75 9.39946 3.8817 9.63388 4.11612C9.8683 4.35054 10 4.66848 10 5C10 5.33152 9.8683 5.64946 9.63388 5.88388C9.39946 6.1183 9.08152 6.25 8.75 6.25H3.75C3.41848 6.25 3.10054 6.1183 2.86612 5.88388C2.6317 5.64946 2.5 5.33152 2.5 5Z" fill="white"/>
</svg>
