<svg width="85" height="85" viewBox="0 0 85 85" fill="none" xmlns="http://www.w3.org/2000/svg">
<rect width="85" height="85" rx="29" fill="#EDFCFF"/>
<g clip-path="url(#clip0_6045_7692)">
<path d="M46.0405 60.0005H38.9596C38.5819 60.0005 38.2759 59.6945 38.2759 59.3167V55.1729H46.7241V59.3167C46.7242 59.6945 46.4182 60.0005 46.0405 60.0005Z" fill="#093D77"/>
<path d="M46.7241 29.8276H38.2759V25.6837C38.2759 25.306 38.5818 25 38.9596 25H46.0405C46.4182 25 46.7242 25.306 46.7242 25.6837V29.8276H46.7241Z" fill="#093D77"/>
<path d="M48.4545 33.4479H36.546C36.1683 33.4479 35.8623 33.1419 35.8623 32.7641V30.5109C35.8623 30.1331 36.1683 29.8271 36.546 29.8271H48.4545C48.8323 29.8271 49.1382 30.1331 49.1382 30.5109V32.7641C49.1382 33.142 48.8323 33.4479 48.4545 33.4479Z" fill="#093D77" fill-opacity="0.88"/>
<path d="M48.4545 55.1725H36.546C36.1683 55.1725 35.8623 54.8665 35.8623 54.4888V52.2355C35.8623 51.8577 36.1683 51.5518 36.546 51.5518H48.4545C48.8323 51.5518 49.1382 51.8577 49.1382 52.2355V54.4888C49.1382 54.8666 48.8323 55.1725 48.4545 55.1725Z" fill="#093D77" fill-opacity="0.88"/>
<path d="M25 46.041V38.9601C25 38.5823 25.306 38.2764 25.6837 38.2764H29.8276V46.7246H25.6837C25.306 46.7247 25 46.4181 25 46.041Z" fill="#093D77"/>
<path d="M51.5517 38.2758H46.7241V33.4482H38.2758V38.2758H33.4482V46.7241H38.2758V51.5517H46.7241V46.7241H51.5517V38.2758Z" fill="#093D77"/>
<path d="M55.1724 46.7237V38.2754H59.3162C59.694 38.2754 60 38.5814 60 38.9591V46.04C60 46.4177 59.694 46.7237 59.3162 46.7237H55.1724V46.7237Z" fill="#093D77"/>
<path d="M51.5518 48.4545V36.546C51.5518 36.1683 51.8577 35.8623 52.2355 35.8623H54.4887C54.8665 35.8623 55.1725 36.1683 55.1725 36.546V48.4545C55.1725 48.8317 54.8665 49.1382 54.4887 49.1382H52.2355C51.8577 49.1382 51.5518 48.8317 51.5518 48.4545Z" fill="#093D77" fill-opacity="0.88"/>
<path d="M29.8276 48.4545V36.546C29.8276 36.1683 30.1336 35.8623 30.5114 35.8623H32.7646C33.1424 35.8623 33.4484 36.1683 33.4484 36.546V48.4545C33.4484 48.8317 33.1424 49.1382 32.7646 49.1382H30.5113C30.1335 49.1382 29.8276 48.8317 29.8276 48.4545Z" fill="#093D77" fill-opacity="0.88"/>
<path d="M46.7239 37.6729C46.3902 37.6729 46.1204 37.9432 46.1204 38.2763V39.4832H45.517C45.1832 39.4832 44.9135 39.7536 44.9135 40.0867V40.6902H44.31C43.9763 40.6902 43.7065 40.9605 43.7065 41.2936C43.7065 41.6268 43.9763 41.8971 44.31 41.8971H45.5169C45.8506 41.8971 46.1204 41.6268 46.1204 41.2936V40.6902H46.7239C47.0576 40.6902 47.3273 40.4198 47.3273 40.0867V38.2763H46.7239V37.6729H46.7239Z" fill="white"/>
<path d="M38.2758 47.3278C38.6095 47.3278 38.8792 47.0574 38.8792 46.7243V45.5174H39.4827C39.8165 45.5174 40.0862 45.2471 40.0862 44.9139V44.3105H40.6897C41.0234 44.3105 41.2932 44.0401 41.2932 43.707C41.2932 43.3739 41.0234 43.1035 40.6897 43.1035H39.4828C39.1491 43.1035 38.8793 43.3739 38.8793 43.707V44.3105H38.2758C37.9421 44.3105 37.6724 44.5808 37.6724 44.9139V46.7243H38.2758L38.2758 47.3278Z" fill="white"/>
</g>
<defs>
<clipPath id="clip0_6045_7692">
<rect width="35" height="35" fill="white" transform="translate(25 25)"/>
</clipPath>
</defs>
</svg>
