<svg width="85" height="85" viewBox="0 0 85 85" fill="none" xmlns="http://www.w3.org/2000/svg">
<rect width="85" height="85" rx="29" fill="#EDFCFF"/>
<g clip-path="url(#clip0_6046_7697)">
<path d="M55.2517 31.2957L53.7051 29.749C53.421 29.4639 52.9586 29.4639 52.6745 29.749L35.2293 47.1931C35.0925 47.3298 35.0156 47.5156 35.0156 47.709C35.0156 47.9023 35.0925 48.0882 35.2293 48.2249L36.7758 49.7715C36.919 49.9135 37.1048 49.9851 37.2918 49.9851C37.4787 49.9851 37.6645 49.9135 37.8076 49.7715L55.2517 32.3263C55.3884 32.1896 55.4653 32.0048 55.4653 31.8105C55.4653 31.6172 55.3884 31.4324 55.2517 31.2957Z" fill="#093D77"/>
<path d="M38.5809 49.5133L35.4866 46.4201C35.2025 46.136 34.741 46.136 34.4558 46.4201L25.8545 55.0214C25.3044 55.5725 25 56.3042 25 57.0839C25 57.8626 25.3044 58.5953 25.8545 59.1464C26.4056 59.6965 27.1384 59.9998 27.917 59.9998C28.6967 59.9998 29.4283 59.6964 29.9795 59.1464L38.5809 50.5451C38.7176 50.4084 38.7945 50.2225 38.7945 50.0292C38.7945 49.8358 38.7176 49.65 38.5809 49.5133ZM28.4329 57.5987C28.1478 57.8839 27.6864 57.8839 27.4012 57.5987C27.1171 57.3146 27.1171 56.8532 27.4012 56.568C27.6864 56.2829 28.1478 56.2829 28.4329 56.568C28.717 56.8532 28.717 57.3146 28.4329 57.5987Z" fill="#093D77"/>
<path d="M59.4588 33.0625L55.7514 32.0713L59.4599 31.0748C59.8487 30.9701 60.0794 30.5706 59.9747 30.1807C59.87 29.7919 59.4705 29.5613 59.0818 29.6659L55.368 30.6646L58.0874 27.9442C58.3726 27.659 58.3726 27.1976 58.0874 26.9134C57.8033 26.6283 57.3419 26.6283 57.0567 26.9134L54.3447 29.6253L55.3349 25.918C55.4385 25.5291 55.2078 25.1298 54.8189 25.0262C54.4291 24.9215 54.0297 25.1532 53.9261 25.542L52.9338 29.2536L51.9373 25.541C51.8327 25.1522 51.4332 24.9215 51.0444 25.0262C50.6556 25.1309 50.4249 25.5303 50.5296 25.9191L51.5251 29.6319L48.8067 26.9135C48.5227 26.6284 48.0612 26.6284 47.776 26.9135C47.4908 27.1976 47.4908 27.6601 47.776 27.9443L51.901 32.0692L51.3851 32.5851L47.2601 28.4602C46.976 28.175 46.5135 28.175 46.2294 28.4602C45.9442 28.7443 45.9442 29.2067 46.2294 29.4908L50.3544 33.6158L49.8385 34.1317L45.7135 30.0067C45.4283 29.7215 44.9669 29.7215 44.6828 30.0067C44.3976 30.2919 44.3976 30.7533 44.6828 31.0374L48.8067 35.1624L48.2919 35.6783L44.1669 31.5533C43.8818 31.2682 43.4204 31.2682 43.1352 31.5533C42.8511 31.8385 42.8511 32.2999 43.1352 32.5851L47.2601 36.709L46.7442 37.2248L42.6203 33.0999C42.3351 32.8158 41.8737 32.8158 41.5886 33.0999C41.3045 33.3851 41.3045 33.8464 41.5886 34.1316L46.2294 38.7714L50.8692 43.4123C51.0123 43.5543 51.1982 43.6259 51.3851 43.6259C51.5721 43.6259 51.7579 43.5543 51.901 43.4123C52.1851 43.1271 52.1851 42.6656 51.901 42.3805L47.776 38.2555L48.2919 37.7407L52.4159 41.8646C52.559 42.0077 52.7448 42.0782 52.9318 42.0782C53.1186 42.0782 53.3056 42.0077 53.4476 41.8646C53.7317 41.5805 53.7317 41.119 53.4476 40.8338L49.3226 36.7089L49.8385 36.1941L53.9635 40.318C54.1056 40.4611 54.2924 40.5316 54.4782 40.5316C54.6651 40.5316 54.8521 40.4611 54.9941 40.318C55.2793 40.0339 55.2793 39.5714 54.9941 39.2873L50.8692 35.1623L51.3851 34.6464L55.5101 38.7713C55.6521 38.9134 55.839 38.985 56.0249 38.985C56.2118 38.985 56.3988 38.9134 56.5408 38.7713C56.826 38.4872 56.826 38.0248 56.5408 37.7407L52.4159 33.6157L52.9318 33.0998L57.0567 37.2248C57.1988 37.3668 57.3857 37.4384 57.5726 37.4384C57.7584 37.4384 57.9453 37.3668 58.0874 37.2248C58.3726 36.9396 58.3726 36.4782 58.0874 36.1941L55.3744 33.48L59.0817 34.4712C59.1447 34.4883 59.2088 34.4968 59.2708 34.4968C59.5934 34.4968 59.8881 34.2811 59.9747 33.9553C60.0794 33.5666 59.8476 33.1672 59.4588 33.0625Z" fill="#093D77"/>
</g>
<defs>
<clipPath id="clip0_6046_7697">
<rect width="35" height="35" fill="white" transform="translate(25 25)"/>
</clipPath>
</defs>
</svg>
