<svg width="30" height="30" viewBox="0 0 30 30" fill="none" xmlns="http://www.w3.org/2000/svg">
<path d="M15.2756 10.3125C15.0544 10.3125 14.8969 10.1775 14.8622 10.0013C14.5472 8.40281 11.7619 8.47031 10.6594 8.40844C10.4119 8.39437 10.3125 8.22937 10.3125 8.02781V6.85406C10.3125 6.64406 10.3434 6.5625 10.6041 6.5625H19.1925C19.4091 6.5625 19.5975 6.63937 19.65 6.81L20.5734 8.85937C20.6447 9.09 20.4375 9.32531 20.1441 9.3375C19.0359 9.38438 18.2241 9.96563 17.9316 10.2084C17.8472 10.2769 17.7459 10.3125 17.6363 10.3125H15.2756ZM10.3369 20.625C10.3838 22.7822 10.6041 25.0097 10.695 25.8525C10.7175 26.055 10.92 26.25 11.1628 26.25H18.9825C19.23 26.25 19.4353 26.0803 19.4513 25.8731C19.5141 25.0491 19.6566 22.9716 19.6697 20.625H10.3369Z" fill="white"/>
<path d="M15.2756 10.3125C15.0544 10.3125 14.8969 10.1775 14.8622 10.0013C14.5472 8.40281 11.7619 8.47031 10.6594 8.40844C10.4119 8.39437 10.3125 8.22937 10.3125 8.02781V6.85406C10.3125 6.64406 10.3434 6.5625 10.6041 6.5625H19.1925C19.4091 6.5625 19.5975 6.63937 19.65 6.81L20.5734 8.85937C20.6447 9.09 20.4375 9.32531 20.1441 9.3375C19.0359 9.38438 18.2241 9.96563 17.9316 10.2084C17.8472 10.2769 17.7459 10.3125 17.6363 10.3125H15.2756ZM10.3369 20.625C10.3838 22.7822 10.6041 25.0097 10.695 25.8525C10.7175 26.055 10.92 26.25 11.1628 26.25H18.9825C19.23 26.25 19.4353 26.0803 19.4513 25.8731C19.5141 25.0491 19.6566 22.9716 19.6697 20.625H10.3369Z" fill="white"/>
<path d="M19.668 19.6875C19.6314 16.2731 19.2733 12.5663 17.9796 11.3653C17.8942 11.2856 17.7771 11.25 17.6599 11.25H15.4324C15.2196 11.25 15.0283 11.3428 14.9796 11.5163C14.0852 14.6953 11.4283 14.5837 10.7355 16.2769C10.4411 16.9969 10.3361 18.2794 10.3286 19.6875H19.668Z" fill="white"/>
</svg>
