<svg width="30" height="30" viewBox="0 0 30 30" fill="none" xmlns="http://www.w3.org/2000/svg">
<g clip-path="url(#clip0_6045_7610)">
<path d="M18 8.57517C18.1 8.57517 18.2 8.52519 18.3 8.47515L20.7 6.57515H29.5C29.8 6.57515 30 6.37518 30 6.07518V4.07517C30 3.77517 29.8 3.5752 29.5 3.5752H19.5C19.3999 3.5752 19.3 3.62517 19.2 3.67521L16.85 5.57521H16.5V5.07523C16.5 4.22523 15.85 3.57525 15 3.57525C14.15 3.57525 13.5001 4.22523 13.5001 5.07523V5.57521H13.0001C12.7001 5.57521 12.5001 5.77518 12.5001 6.07518V8.07519V9.57517H11.5001C10.8501 9.57517 10.3001 9.97519 10.1001 10.5752H1.49998C0.649971 10.5752 0 11.2251 0 12.0752V17.0751C0 17.9251 0.649971 18.5751 1.49998 18.5751H2.49998V16.0751C2.49998 15.7751 2.69996 15.5751 2.99996 15.5751H4.49994V14.0752C4.49994 13.7752 4.69991 13.5752 4.99991 13.5752H6.99992C7.29992 13.5752 7.4999 13.7752 7.4999 14.0752C7.4999 14.3752 7.29992 14.5751 6.99992 14.5751H5.49994V16.0751C5.49994 16.3751 5.29997 16.5751 4.99997 16.5751H3.49999V18.5751H10.1C10.2999 19.1751 10.8499 19.5751 11.5 19.5751H18.5C19.1499 19.5751 19.6999 19.1751 19.9 18.5751H28.5C29.35 18.5751 29.9999 17.9251 29.9999 17.0751V13.5751H28.5C28.2 13.5751 28 13.3752 28 13.0752C28 12.7752 28.2 12.5752 28.5 12.5752H29.9999V12.0752C29.9999 11.2252 29.35 10.5752 28.5 10.5752H19.9C19.7 9.97524 19.15 9.57523 18.5 9.57523H17.5V8.57523H18V8.57517ZM26.4999 12.5751C26.7999 12.5751 26.9999 12.7751 26.9999 13.0751C26.9999 13.3751 26.7999 13.5751 26.4999 13.5751C26.2 13.5751 26 13.3751 26 13.0751C26 12.8251 26.25 12.5751 26.4999 12.5751ZM20 12.5751H24.5C24.8 12.5751 25 12.7751 25 13.0751C25 13.3751 24.8 13.5751 24.5 13.5751H20V12.5751ZM14.5 5.07511C14.5 4.77512 14.7 4.57514 15 4.57514C15.3 4.57514 15.4999 4.77512 15.4999 5.07511V5.57509H14.5V5.07511ZM13.5 8.57517H16.5V9.57517H13.5V8.57517ZM18.5 10.5751C18.8 10.5751 18.9999 10.7751 18.9999 11.0751V13.0751V18.0751C18.9999 18.3751 18.8 18.575 18.5 18.575H11.5C11.2 18.575 11 18.3751 11 18.0751V11.0752C11 10.7752 11.2 10.5752 11.5 10.5752H13H17H18.5V10.5751Z" fill="white"/>
<path d="M4.84978 21.8254L3.39978 19.7754C3.1998 19.5254 2.74981 19.5254 2.59975 19.7754L1.14975 21.8254C0.199725 23.1254 0.199725 24.6754 1.19973 25.6754C1.6997 26.1754 2.34974 26.4254 2.99971 26.4254C3.69972 26.4254 4.34969 26.1754 4.79968 25.6754C5.49981 24.9754 6.04982 23.7754 4.84978 21.8254Z" fill="white"/>
</g>
<defs>
<clipPath id="clip0_6045_7610">
<rect width="30" height="30" fill="white"/>
</clipPath>
</defs>
</svg>
