<svg width="85" height="85" viewBox="0 0 85 85" fill="none" xmlns="http://www.w3.org/2000/svg">
<rect width="85" height="85" rx="29" fill="#EDFCFF"/>
<path d="M41.4454 39.6842C41.3083 40.324 40.9884 42.0959 40.9181 42.7392C40.8267 43.5549 40.8407 44.6517 40.9321 45.5342C41.0025 46.2232 41.4665 49.1869 41.6634 50.4349C41.7161 50.7689 41.5333 51.0924 41.2204 51.2154C40.2114 51.6232 37.8138 52.5021 34.495 53.1385C31.4681 53.7185 29.5556 53.9541 28.6415 54.0455C28.2759 54.0806 27.9419 53.8416 27.8646 53.4795C27.4286 51.4721 25.9696 44.9892 24.24 40.2361C24.0185 39.6279 21.5786 32.3717 21.5786 32.3717C21.1849 31.2889 21.4591 30.2377 22.4892 29.8158C23.5474 29.3799 24.3278 29.8756 24.7251 30.8142L26.3458 35.1701C26.4232 35.3529 26.5919 35.6799 26.7818 35.6271C26.9857 35.5674 27.0384 35.3881 26.9857 35.1877C26.6376 33.8201 25.2103 29.3271 25.0415 28.4658C24.8095 27.274 25.1681 26.2721 26.2614 25.9873C27.3548 25.7025 28.3005 26.483 28.5431 27.3724C28.7857 28.2619 30.5189 34.2877 30.5189 34.2877C30.6665 34.6955 31.0708 34.4107 31.0321 34.1963L29.5626 26.1525C29.2743 24.4685 30.1603 23.449 31.2712 23.4033C32.1642 23.3682 33.1345 23.8041 33.4228 25.2666L34.8361 33.6654C34.9345 34.0346 35.2685 34.0064 35.2368 33.5705L34.7587 26.3213C34.6603 24.6057 35.3775 24.0607 36.281 24.0045C37.6345 23.9201 38.19 24.7041 38.306 26.2123C38.3657 26.9963 38.9493 32.9412 38.9493 32.9412C38.9564 33.0361 38.9669 33.1943 38.9669 33.1943C39.3571 32.7197 39.8669 32.2416 40.6755 32.231C41.4103 32.2205 42.0044 32.3822 42.3595 33.7463C42.6653 34.9381 41.8075 38.0037 41.4454 39.6842Z" fill="#093D77"/>
<path d="M36.7941 39.6133C36.6465 37.423 36.875 33.366 38.8894 32.4062L38.9597 33.1902C37.7328 34.8812 37.3742 39.8383 37.3496 40.5238C37.325 41.2129 36.882 40.9105 36.7941 39.6133Z" fill="#093D77"/>
<path d="M30.1427 53.8555C30.1427 53.8555 29.5978 53.7887 29.3165 53.0329C29.0353 52.277 28.3532 48.8493 28.3251 48.5575C28.2654 47.9457 28.4236 47.9422 28.5255 47.9457C28.6591 47.9528 28.8173 48.1567 28.9755 48.8071C29.2568 49.9602 30.1427 53.8555 30.1427 53.8555Z" fill="#093D77"/>
<path d="M32.8709 53.4274C32.8709 53.4274 32.3259 53.3606 32.0447 52.6048C31.7634 51.8489 31.099 48.502 31.0673 48.2138C31.0005 47.588 31.1166 47.5598 31.1904 47.5282C31.331 47.4684 31.5209 47.6231 31.7037 48.379C31.9814 49.5321 32.8709 53.4274 32.8709 53.4274Z" fill="#093D77"/>
<path d="M35.3424 52.931C35.3424 52.931 34.7975 52.8642 34.5163 52.1083C34.2983 51.5247 33.7323 49.106 33.5424 47.9107C33.4686 47.4431 33.5319 47.0739 33.7358 47.0704C33.8272 47.0669 33.9713 46.965 34.1788 47.8825C34.4354 49.0392 35.3424 52.931 35.3424 52.931Z" fill="#093D77"/>
<path d="M39.8246 51.7324C39.8246 51.7324 40.2852 51.4371 40.2149 50.6355C40.1586 50.0168 39.6418 47.5805 39.3079 46.4168C39.2516 46.2234 39.0758 45.7945 38.8438 45.8543C38.6118 45.9141 38.6223 46.1602 38.7313 46.6699C38.9739 47.8266 39.8246 51.7324 39.8246 51.7324Z" fill="#093D77"/>
<path d="M37.2478 52.4639C37.2478 52.4639 37.7084 52.1686 37.6381 51.367C37.5853 50.7694 37.1037 48.4948 36.7697 47.2889C36.6537 46.8705 36.5904 46.5084 36.2951 46.5049C36.042 46.5014 36.0455 46.9057 36.1545 47.4014C36.2564 47.8971 37.2478 52.4639 37.2478 52.4639Z" fill="#093D77"/>
<path d="M43.4878 48.1356C43.6214 48.7755 43.9238 50.5508 43.9941 51.1942C44.0785 52.0098 44.0539 53.1067 43.9554 53.9891C43.8816 54.636 43.4492 57.2868 43.2277 58.6368C43.1879 58.8694 43.2294 59.1086 43.3453 59.3141C43.4612 59.5196 43.6444 59.679 43.864 59.7653C44.982 60.2118 47.2601 61.0309 50.3363 61.6426C53.2437 62.2227 55.2828 62.3141 56.348 62.3071C56.5878 62.3055 56.8197 62.2209 57.0043 62.0678C57.1889 61.9146 57.3147 61.7023 57.3605 61.4669C57.7683 59.3364 58.9882 53.3985 60.6968 48.8247C60.9218 48.22 63.4214 40.9813 63.4214 40.9813C63.8222 39.902 63.5585 38.8473 62.532 38.4184C61.4773 37.9755 60.6933 38.4641 60.2855 39.3993L58.4152 43.9555C58.3378 44.1383 58.1972 44.1946 58.0953 44.1559C57.9933 44.1173 57.9863 44.0118 58.0425 43.8079C58.4011 42.4438 59.8039 37.6274 59.9796 36.7696C60.1871 35.7606 59.8109 34.8219 58.721 34.5266C57.6312 34.2348 56.7242 34.843 56.4746 35.7325C56.225 36.6219 54.4601 43.0731 54.4601 43.0731C54.4039 43.2911 53.982 43.2208 54.0699 42.8516L55.7996 34.6391C56.0632 33.0114 55.4269 32.1606 54.2808 31.9426C53.1382 31.7247 52.2031 32.245 51.9183 33.8727C51.9183 33.8727 50.4312 42.1485 50.3785 42.3735C50.3117 42.6442 49.9003 42.6055 49.9671 42.2575L50.621 34.5864C50.6527 33.0255 49.83 32.4876 48.821 32.4735C47.4113 32.4559 46.8488 33.4614 46.7293 34.8395C46.6625 35.6235 46.0332 41.6633 46.0332 41.6633C46.0332 41.6633 45.3335 40.7633 44.4054 40.788C43.9625 40.7985 42.8832 41.0235 42.8093 42.493C42.7496 43.5337 43.1398 46.4551 43.4878 48.1356Z" fill="#093D77"/>
<path d="M44.9573 47.9629C44.6444 45.7516 45.0452 40.9141 45.0452 40.9141C45.5409 41.0125 46.0261 41.6629 46.0261 41.6629L45.5233 48.9121C45.5233 48.9121 45.1612 49.4043 44.9573 47.9629Z" fill="#093D77"/>
<path d="M45.2599 60.2612C45.2599 60.2612 44.7888 59.9835 44.8275 59.1784C44.8591 58.5315 45.3513 55.9053 45.6255 54.7909C45.7837 54.144 45.9771 54.1686 46.0614 54.1792C46.2091 54.1932 46.311 54.4182 46.1845 55.16C45.9841 56.3342 45.2599 60.2612 45.2599 60.2612Z" fill="#093D77"/>
<path d="M47.9635 61.1083C47.9635 61.1083 47.4924 60.8306 47.5311 60.0255C47.5627 59.3786 48.0443 56.7595 48.3291 55.645C48.4943 55.0017 48.6877 55.0157 48.7721 55.0263C48.9162 55.0474 49.0076 55.2091 48.8881 56.0071C48.7053 57.1814 47.9635 61.1083 47.9635 61.1083Z" fill="#093D77"/>
<path d="M50.3927 61.6538C50.3927 61.6538 49.9216 61.3761 49.9603 60.571C49.9919 59.9241 50.6423 56.7003 50.7583 56.187C50.8743 55.6737 50.9868 55.4804 51.1696 55.5085C51.3525 55.5366 51.465 55.6808 51.3173 56.5527C51.1169 57.7269 50.3927 61.6538 50.3927 61.6538Z" fill="#093D77"/>
<path d="M54.9771 62.2403C54.9771 62.2403 55.5185 62.1489 55.7681 61.386C55.972 60.7637 56.4958 58.1094 56.6188 56.9844C56.647 56.7207 56.6259 56.2532 56.4571 56.211C56.3165 56.1758 56.1442 56.2215 55.9649 57.1532C55.747 58.3203 54.9771 62.2403 54.9771 62.2403Z" fill="#093D77"/>
<path d="M52.3721 61.9769C52.3721 61.9769 52.9135 61.8855 53.1631 61.1226C53.4127 60.3597 53.9787 56.7562 53.9998 56.4644C54.0279 56.0355 53.9014 55.9195 53.7396 55.9581C53.5744 55.9933 53.4584 56.4152 53.3635 56.8933C53.0305 58.5873 52.7 60.2819 52.3721 61.9769Z" fill="#093D77"/>
</svg>
