<svg width="85" height="85" viewBox="0 0 85 85" fill="none" xmlns="http://www.w3.org/2000/svg">
<rect width="85" height="85" rx="29" fill="#EDFCFF"/>
<path d="M57.2609 56.1094L49.3703 34.4062L50.5625 31.125H51.75C52.2473 31.125 52.7242 30.9275 53.0758 30.5758C53.4274 30.2242 53.625 29.7473 53.625 29.25C53.625 28.7527 53.4274 28.2758 53.0758 27.9242C52.7242 27.5725 52.2473 27.375 51.75 27.375H36.75C36.2701 27.3784 35.8097 27.5657 35.4638 27.8984C35.1178 28.231 34.9126 28.6837 34.8904 29.1631C34.8681 29.6425 35.0306 30.1122 35.3443 30.4755C35.658 30.8387 36.099 31.0678 36.5766 31.1156L27.4891 56.1156C27.3195 56.5827 27.3422 57.0979 27.5523 57.5482C27.7623 57.9985 28.1425 58.347 28.6094 58.5172C28.8149 58.5907 29.0318 58.6272 29.25 58.625C29.635 58.6251 30.0106 58.5066 30.3259 58.2858C30.6413 58.065 30.881 57.7524 31.0125 57.3906L32.375 53.625H38.3906L37.4875 56.1094C37.318 56.5766 37.3409 57.0921 37.5513 57.5424C37.7617 57.9927 38.1422 58.3411 38.6094 58.5109C38.8144 58.5867 39.0314 58.6253 39.25 58.625C39.635 58.6251 40.0106 58.5066 40.3259 58.2858C40.6413 58.065 40.881 57.7524 41.0125 57.3906L43.7453 49.875H51.0047L53.7375 57.3906C53.869 57.7524 54.1087 58.065 54.424 58.2858C54.7394 58.5066 55.115 58.6251 55.5 58.625C55.7186 58.6252 55.9355 58.5865 56.1406 58.5109C56.6075 58.3408 56.9877 57.9923 57.1977 57.542C57.4078 57.0917 57.4305 56.5764 57.2609 56.1094ZM42.4828 42.375H36.4719L37.8437 38.625H43.8531L42.4828 42.375ZM45.2094 34.875H39.2L40.5641 31.125H46.5734L45.2094 34.875ZM33.7453 49.875L35.1094 46.125H41.125L39.7609 49.875H33.7453ZM45.1094 46.125L47.375 39.8922L49.6406 46.125H45.1094Z" fill="#093D77"/>
</svg>
