<?xml version="1.0" encoding="UTF-8"?>
<svg id="Layer_1" data-name="Layer 1" xmlns="http://www.w3.org/2000/svg" version="1.1" viewBox="0 0 32 32">
  <defs>
    <style>
      .cls-1 {
        fill: #fff;
        stroke-width: 0px;
      }
    </style>
  </defs>
  <path class="cls-1" d="M16,1c8.3,0,15,6.7,15,15s-6.7,15-15,15S1,24.3,1,16,7.7,1,16,1M16,0C7.2,0,0,7.2,0,16s7.2,16,16,16,16-7.2,16-16S24.8,0,16,0h0Z"/>
  <path class="cls-1" d="M19.7,17.6s-.1,0,0,0c-.3-.1-1.3-.6-1.5-.6-.2-.1-.3-.1-.4.1,0,.1-.2.2-.3.4-.1.1-.2.3-.3.4-.1.1-.2.1-.4.1,0,0-.1,0-.1-.1-.3-.1-.8-.4-1.5-.9-.6-.5-1-1.2-1.1-1.4s0-.3.1-.4l.3-.3h.1c0-.1.1-.2.1-.3.1-.1,0-.1,0-.2h0c0-.2-.4-1.2-.6-1.6-.1-.3-.3-.3-.4-.3h-.4c-.1,0-.3,0-.5.2s-.7.7-.7,1.7.5,1.6.7,1.9c0,.1.1.1.1.2h.1c.3.6,1.6,2.3,3.3,3,1.4.6,1.9.5,2.2.5h.2c.4,0,1.2-.5,1.3-.9.2-.5.2-.9.1-.9-.1-.5-.2-.5-.4-.6Z"/>
  <path class="cls-1" d="M16,8c-4.4,0-8,3.6-8,8s.4,2.8,1.1,4l-1.1,4,4.2-1.1c1.2.6,2.5,1,3.8,1,4.4,0,8-3.6,8-8s-.9-4.1-2.4-5.6-3.5-2.3-5.6-2.3ZM16,22.5c-1.2,0-2.4-.3-3.4-.9h-.2c0-.1-2.5.6-2.5.6l.7-2.4-.2-.3c-.7-1.1-1-2.3-1-3.5,0-3.6,3-6.6,6.6-6.6s3.4.7,4.7,1.9c1.3,1.3,1.9,2.9,1.9,4.7,0,3.5-2.9,6.5-6.6,6.5Z"/>
</svg>