<?xml version="1.0" encoding="utf-8"?>
<!-- Generator: Adobe Illustrator 27.9.3, SVG Export Plug-In . SVG Version: 9.03 Build 53313)  -->
<svg version="1.1" id="Layer_1" xmlns="http://www.w3.org/2000/svg" xmlns:xlink="http://www.w3.org/1999/xlink" x="0px" y="0px"
	 viewBox="0 0 32 32" style="enable-background:new 0 0 32 32;" xml:space="preserve">
<style type="text/css">
	.st0{fill:#333333;}
</style>
<g>
	<g>
		<path class="st0" d="M16,1c8.3,0,15,6.7,15,15s-6.7,15-15,15S1,24.3,1,16S7.7,1,16,1 M16,0C7.2,0,0,7.2,0,16s7.2,16,16,16
			s16-7.2,16-16S24.8,0,16,0L16,0z"/>
	</g>
</g>
<g>
	<circle class="st0" cx="20.4" cy="11.6" r="1"/>
</g>
<g>
	<path class="st0" d="M16,11.7c-2.4,0-4.3,1.9-4.3,4.3s1.9,4.3,4.3,4.3s4.3-1.9,4.3-4.3S18.4,11.7,16,11.7z M16,18.8
		c-1.5,0-2.8-1.2-2.8-2.8c0-1.5,1.2-2.8,2.8-2.8c1.5,0,2.8,1.2,2.8,2.8C18.8,17.5,17.5,18.8,16,18.8z"/>
</g>
<g>
	<path class="st0" d="M22.9,9.1c-0.5-0.5-0.9-0.7-1.5-1c-0.5-0.2-1.1-0.3-2-0.4h-6.8c-0.9,0-1.5,0.2-2,0.4c-0.5,0.2-1,0.5-1.5,1
		s-0.7,0.9-1,1.5c-0.2,0.5-0.3,1.1-0.4,2v6.8c0,0.9,0.2,1.5,0.4,2c0.2,0.5,0.5,1,1,1.5s0.9,0.7,1.5,1c0.5,0.2,1.1,0.3,2,0.4h6.8
		c0.9,0,1.5-0.2,2-0.4c0.5-0.2,1-0.5,1.5-1s0.7-0.9,1-1.5c0.2-0.5,0.3-1.1,0.4-2v-6.8c0-0.9-0.2-1.5-0.4-2
		C23.7,10.1,23.4,9.6,22.9,9.1z M22.8,19.4c0,0.7-0.1,1.1-0.2,1.3c0,0,0,0.1,0,0.2c0,0.1-0.1,0.2-0.1,0.2c-0.1,0.3-0.2,0.5-0.5,0.8
		c-0.3,0.3-0.6,0.5-1,0.6c-0.3,0.1-0.7,0.2-1.5,0.3h-6.8c-0.7,0-1.1-0.1-1.3-0.2c0,0-0.1,0-0.2,0c-0.1,0-0.2-0.1-0.2-0.1
		c-0.3-0.1-0.5-0.2-0.8-0.5c-0.3-0.3-0.5-0.6-0.6-1c-0.1-0.3-0.2-0.7-0.3-1.5v-6.8c0-0.7,0.1-1.1,0.2-1.3c0,0,0-0.1,0-0.2
		c0-0.1,0.1-0.2,0.1-0.2c0.1-0.3,0.2-0.5,0.5-0.8c0.3-0.3,0.6-0.5,1-0.6c0.3-0.1,0.7-0.2,1.5-0.3h6.8c0.7,0,1.1,0.1,1.3,0.2
		c0,0,0.1,0,0.2,0c0.1,0,0.2,0.1,0.2,0.1c0.3,0.1,0.5,0.2,0.8,0.5c0.3,0.3,0.5,0.6,0.6,1c0.1,0.3,0.2,0.7,0.3,1.5V19.4z"/>
</g>
</svg>
