<?xml version="1.0" encoding="utf-8"?>
<!-- Generator: Adobe Illustrator 27.9.3, SVG Export Plug-In . SVG Version: 9.03 Build 53313)  -->
<svg version="1.1" id="Layer_1" xmlns="http://www.w3.org/2000/svg" xmlns:xlink="http://www.w3.org/1999/xlink" x="0px" y="0px"
	 viewBox="0 0 32 32" style="enable-background:new 0 0 32 32;" xml:space="preserve">
<style type="text/css">
	.st0{fill:#333333;}
</style>
<g>
	<g>
		<path class="st0" d="M16,1c8.3,0,15,6.7,15,15s-6.7,15-15,15S1,24.3,1,16S7.7,1,16,1 M16,0C7.2,0,0,7.2,0,16s7.2,16,16,16
			s16-7.2,16-16S24.8,0,16,0L16,0z"/>
	</g>
</g>
<path class="st0" d="M19.7,17.6C19.7,17.6,19.6,17.6,19.7,17.6c-0.3-0.1-1.3-0.6-1.5-0.6c-0.2-0.1-0.3-0.1-0.4,0.1
	c0,0.1-0.2,0.2-0.3,0.4c-0.1,0.1-0.2,0.3-0.3,0.4C17.1,18,17,18,16.8,18c0,0-0.1,0-0.1-0.1c-0.3-0.1-0.8-0.4-1.5-0.9
	c-0.6-0.5-1-1.2-1.1-1.4c-0.1-0.2,0-0.3,0.1-0.4l0.3-0.3c0,0,0.1-0.1,0.1-0.1c0,0,0.1-0.1,0.1-0.2c0.1-0.1,0-0.1,0-0.2
	c0,0,0-0.1,0-0.1c0-0.1-0.4-1.1-0.6-1.5c-0.1-0.3-0.3-0.3-0.4-0.3h-0.4c-0.1,0-0.3,0-0.5,0.2c-0.2,0.2-0.7,0.7-0.7,1.7
	c0,0.8,0.5,1.6,0.7,1.9c0,0.1,0.1,0.1,0.1,0.2c0,0,0,0,0.1,0.1c0.3,0.5,1.6,2.2,3.3,2.9c1.4,0.6,1.9,0.5,2.2,0.5c0.1,0,0.1,0,0.2,0
	c0.4,0,1.2-0.5,1.3-0.9c0.2-0.5,0.2-0.9,0.1-0.9C20,17.7,19.9,17.7,19.7,17.6z"/>
<path class="st0" d="M16,8c-4.4,0-8,3.6-8,8c0,1.4,0.4,2.8,1.1,4L8,24l4.2-1.1c1.2,0.6,2.5,1,3.8,1c4.4,0,8-3.6,8-8
	c0-2.1-0.9-4.1-2.4-5.6S18.1,8,16,8z M16,22.5c-1.2,0-2.4-0.3-3.4-0.9l-0.2-0.1l-2.5,0.7l0.7-2.4l-0.2-0.3c-0.7-1.1-1-2.3-1-3.5
	c0-3.6,3-6.6,6.6-6.6c1.8,0,3.4,0.7,4.7,1.9c1.3,1.3,1.9,2.9,1.9,4.7C22.6,19.5,19.7,22.5,16,22.5z"/>
</svg>
