<?xml version="1.0" encoding="utf-8"?>
<!-- Generator: Adobe Illustrator 27.9.3, SVG Export Plug-In . SVG Version: 9.03 Build 53313)  -->
<svg version="1.1" id="Layer_1" xmlns="http://www.w3.org/2000/svg" xmlns:xlink="http://www.w3.org/1999/xlink" x="0px" y="0px"
	 viewBox="0 0 32 32" style="enable-background:new 0 0 32 32;" xml:space="preserve">
<style type="text/css">
	.st0{fill:#333333;}
</style>
<g>
	<g>
		<path class="st0" d="M16,1c8.3,0,15,6.7,15,15s-6.7,15-15,15S1,24.3,1,16S7.7,1,16,1 M16,0C7.2,0,0,7.2,0,16s7.2,16,16,16
			s16-7.2,16-16S24.8,0,16,0L16,0z"/>
	</g>
	<path class="st0" d="M13,21C13,21,13,21,13,21C13,21,13,21,13,21L13,21z"/>
</g>
<g>
	<path class="st0" d="M19.2,8.7c0-0.2-0.1-0.5-0.1-0.7h-2.8v11c0,1.2-1.1,2.2-2.3,2.2c-0.4,0-0.8-0.1-1.1-0.3c0,0,0,0,0,0l0,0
		c0,0,0,0,0-0.1c-0.7-0.4-1.2-1.2-1.2-2c0-1.3,1-2.3,2.3-2.3c0.2,0,0.5,0,0.7,0.1v-2.1v-0.7c-0.2,0-0.5,0-0.7,0
		c-2.8,0-5.1,2.3-5.1,5.1c0,1.7,0.8,3.2,2.2,4.1C12,23.7,13,24,14.1,24c2.8,0,5.1-2.3,5.1-5.1v-5.6c1.1,0.8,2.4,1.2,3.8,1.2v-2.1
		v-0.6c-0.8,0-1.5-0.2-2.1-0.6C20,10.7,19.4,9.8,19.2,8.7z"/>
</g>
</svg>
