<?xml version="1.0" encoding="UTF-8"?>
<svg id="Layer_1" data-name="Layer 1" xmlns="http://www.w3.org/2000/svg" version="1.1" viewBox="0 0 32 32">
  <defs>
    <style>
      .cls-1 {
        fill: #fff;
        fill-rule: evenodd;
        stroke-width: 0px;
      }
    </style>
  </defs>
  <path class="cls-1" d="M16,0C7.2,0,0,7.2,0,16s7.2,16,16,16,16-7.2,16-16S24.8,0,16,0ZM19.1,8c0,.2,0,.5,0,.7.2,1.1.8,1.9,1.7,2.5.6.4,1.3.6,2.1.6v2.8c-1.4,0-2.8-.5-3.8-1.2v5.6c0,2.8-2.3,5.1-5.1,5.1s-2.1-.3-2.9-.9c-1.3-.9-2.2-2.4-2.2-4.1,0-2.8,2.3-5.1,5.1-5.1s.5,0,.7,0v.6h0,0v2.2c-.2,0-.4-.1-.7-.1-1.3,0-2.3,1-2.3,2.3s.5,1.7,1.2,2c0,0,0,0,0,0h0s0,0,0,0c.3.2.7.3,1.1.3,1.2,0,2.3-1,2.3-2.2v-11h2.8Z"/>
</svg>