<?xml version="1.0" encoding="UTF-8"?>
<svg id="Layer_1" data-name="Layer 1" xmlns="http://www.w3.org/2000/svg" version="1.1" viewBox="0 0 32 32">
  <defs>
    <style>
      .cls-1 {
        fill: #fff;
        fill-rule: evenodd;
        stroke-width: 0px;
      }
    </style>
  </defs>
  <path class="cls-1" d="M12.6,21.6c1,.6,2.2.9,3.4.9,3.7,0,6.6-3,6.6-6.5s-.6-3.4-1.9-4.7c-1.3-1.2-2.9-1.9-4.7-1.9-3.6,0-6.6,3-6.6,6.6s.3,2.4,1,3.5l.2.3-.7,2.4,2.5-.7h.2ZM18.2,17c.2,0,1.2.5,1.4.6,0,0,0,0,0,0,.2,0,.3.1.4.6.1,0,.1.4-.1.9-.1.4-.9.9-1.3.9s-.1,0-.2,0c-.3,0-.8,0-2.2-.5-1.8-.7-3-2.4-3.3-2.9,0,0,0-.1,0-.1,0,0,0,0-.1-.2-.2-.4-.7-1.1-.7-1.9s.5-1.5.7-1.7.4-.2.5-.2h.4c.1,0,.3,0,.4.3.2.4.6,1.4.6,1.5s0,0,0,.1c0,0,0,.1,0,.2,0,0,0,.1-.1.1,0,0,0,.1-.1.1l-.3.3c-.1.1-.2.2-.1.4.1.2.5.9,1.1,1.4.7.6,1.2.8,1.5.9,0,0,0,0,.1,0,.2,0,.3,0,.4-.1,0-.1.2-.2.3-.4.1-.1.2-.3.3-.4.1-.2.2-.2.4,0Z"/>
  <path class="cls-1" d="M0,16C0,7.2,7.2,0,16,0s16,7.2,16,16-7.2,16-16,16S0,24.8,0,16ZM16,8c2.1,0,4.1.8,5.6,2.3s2.4,3.5,2.4,5.6c0,4.4-3.6,8-8,8s-2.6-.4-3.8-1l-4.2,1.1,1.1-4c-.7-1.2-1.1-2.6-1.1-4,0-4.4,3.6-8,8-8Z"/>
</svg>