<?xml version="1.0" encoding="UTF-8"?>
<svg id="Layer_1" data-name="Layer 1" xmlns="http://www.w3.org/2000/svg" version="1.1" viewBox="0 0 32 32">
  <defs>
    <style>
      .cls-1 {
        fill: #fff;
        fill-rule: evenodd;
        stroke-width: 0px;
      }
    </style>
  </defs>
  <path class="cls-1" d="M0,16C0,7.2,7.2,0,16,0s16,7.2,16,16-7.2,16-16,16S0,24.8,0,16ZM16,8c4.4,0,8,3.6,8,8s-2.9,7.4-6.9,8v-5.7h1.9l.4-2.3h-2.2v-1.5c0-.6.3-1.2,1.3-1.2h1v-2s-.9-.2-1.8-.2c-1.8,0-3,1.1-3,3.1v1.8h-2v2.3h2v5.6c-3.8-.6-6.7-3.9-6.7-7.9s3.6-8,8-8Z"/>
</svg>