<?xml version="1.0" encoding="UTF-8"?>
<svg id="Layer_1" data-name="Layer 1" xmlns="http://www.w3.org/2000/svg" version="1.1" viewBox="0 0 32 32">
  <defs>
    <style>
      .cls-1 {
        fill: #fff;
        stroke-width: 0px;
      }
    </style>
  </defs>
  <path class="cls-1" d="M16,1c8.3,0,15,6.7,15,15s-6.7,15-15,15S1,24.3,1,16,7.7,1,16,1M16,0C7.2,0,0,7.2,0,16s7.2,16,16,16,16-7.2,16-16S24.8,0,16,0h0Z"/>
  <path class="cls-1" d="M16,8c-4.4,0-8,3.6-8,8s2.9,7.3,6.7,7.9v-5.6h-2v-2.3h2v-1.8c0-2,1.2-3.1,3-3.1s1.8.2,1.8.2v2h-1c-1,0-1.3.6-1.3,1.2v1.5h2.2l-.4,2.3h-1.9v5.7c4-.6,6.9-4,6.9-8s-3.6-8-8-8Z"/>
</svg>