<?xml version="1.0" encoding="UTF-8"?>
<svg id="Layer_1" data-name="Layer 1" xmlns="http://www.w3.org/2000/svg" version="1.1" viewBox="0 0 32 32">
  <defs>
    <style>
      .cls-1 {
        fill-rule: evenodd;
      }

      .cls-1, .cls-2 {
        fill: #fff;
        stroke-width: 0px;
      }
    </style>
  </defs>
  <path class="cls-2" d="M16,18.8c-1.5,0-2.8-1.2-2.8-2.8s1.2-2.8,2.8-2.8,2.8,1.2,2.8,2.8-1.3,2.8-2.8,2.8Z"/>
  <path class="cls-1" d="M19.4,9.2h-6.8c-.8.1-1.2.2-1.5.3-.4.1-.7.3-1,.6s-.4.5-.5.8c0,0,0,.1-.1.2,0,0,0,.1,0,.1-.1.3-.2.7-.2,1.4v6.8c.1.8.2,1.2.3,1.5.1.4.3.7.6,1,.2.2.5.4.8.5,0,0,.1,0,.2.1,0,0,.1,0,.1,0,.3.1.7.2,1.4.2h6.8c.8-.1,1.2-.2,1.5-.3.4-.1.7-.3,1-.6.2-.2.4-.5.5-.8,0,0,0-.1.1-.2,0,0,0-.1,0-.1.1-.3.2-.7.2-1.4v-6.8c-.1-.8-.2-1.2-.3-1.5-.1-.4-.3-.7-.6-1-.2-.2-.5-.4-.8-.5,0,0-.2,0-.2-.1,0,0-.1,0-.1,0-.3-.1-.7-.3-1.4-.3ZM16,11.7c-2.4,0-4.3,1.9-4.3,4.3s1.9,4.3,4.3,4.3,4.3-1.9,4.3-4.3-1.9-4.3-4.3-4.3ZM21.4,11.6c0,.6-.5,1-1,1s-1-.4-1-1,.5-1,1-1,1,.4,1,1Z"/>
  <path class="cls-1" d="M0,16C0,7.2,7.2,0,16,0s16,7.2,16,16-7.2,16-16,16S0,24.8,0,16ZM12.6,7.7h6.8c.9,0,1.5.2,2,.4.6.3,1,.5,1.5,1s.8,1,1,1.5.4,1.1.4,2v6.8c-.1.9-.2,1.5-.4,2-.3.6-.5,1-1,1.5s-1,.8-1.5,1-1.1.4-2,.4h-6.8c-.9-.1-1.5-.2-2-.4-.6-.3-1-.5-1.5-1s-.8-1-1-1.5-.4-1.1-.4-2v-6.8c0-.9.2-1.5.4-2,.3-.6.5-1,1-1.5s1-.8,1.5-1c.5-.2,1.1-.4,2-.4Z"/>
</svg>