<?xml version="1.0" encoding="UTF-8"?>
<svg id="Layer_1" data-name="Layer 1" xmlns="http://www.w3.org/2000/svg" version="1.1" viewBox="0 0 32 32">
  <defs>
    <style>
      .cls-1 {
        fill: #fff;
        stroke-width: 0px;
      }
    </style>
  </defs>
  <path class="cls-1" d="M16,1c8.3,0,15,6.7,15,15s-6.7,15-15,15S1,24.3,1,16,7.7,1,16,1M16,0C7.2,0,0,7.2,0,16s7.2,16,16,16,16-7.2,16-16S24.8,0,16,0h0Z"/>
  <circle class="cls-1" cx="20.4" cy="11.6" r="1"/>
  <path class="cls-1" d="M16,11.7c-2.4,0-4.3,1.9-4.3,4.3s1.9,4.3,4.3,4.3,4.3-1.9,4.3-4.3-1.9-4.3-4.3-4.3ZM16,18.8c-1.5,0-2.8-1.2-2.8-2.8s1.2-2.8,2.8-2.8,2.8,1.2,2.8,2.8-1.3,2.8-2.8,2.8Z"/>
  <path class="cls-1" d="M22.9,9.1c-.5-.5-.9-.7-1.5-1-.5-.2-1.1-.3-2-.4h-6.8c-.9,0-1.5.2-2,.4-.5.2-1,.5-1.5,1s-.7.9-1,1.5c-.2.5-.3,1.1-.4,2v6.8c0,.9.2,1.5.4,2,.2.5.5,1,1,1.5s.9.7,1.5,1c.5.2,1.1.3,2,.4h6.8c.9,0,1.5-.2,2-.4.5-.2,1-.5,1.5-1s.7-.9,1-1.5c.2-.5.3-1.1.4-2v-6.8c0-.9-.2-1.5-.4-2-.2-.5-.5-1-1-1.5ZM22.8,19.4c0,.7-.1,1.1-.2,1.3v.2c0,.1-.1.2-.1.2-.1.3-.2.5-.5.8s-.6.5-1,.6c-.3.1-.7.2-1.5.3h-6.8c-.7,0-1.1-.1-1.3-.2h-.2c-.1,0-.2-.1-.2-.1-.3-.1-.5-.2-.8-.5s-.5-.6-.6-1c-.1-.3-.2-.7-.3-1.5v-6.8c0-.7.1-1.1.2-1.3v-.2c0-.1.1-.2.1-.2.1-.3.2-.5.5-.8s.6-.5,1-.6c.3-.1.7-.2,1.5-.3h6.8c.7,0,1.1.1,1.3.2h.2c.1,0,.2.1.2.1.3.1.5.2.8.5s.5.6.6,1c.1.3.2.7.3,1.5,0,0,0,6.8,0,6.8Z"/>
</svg>