<svg width="20" height="20" viewBox="0 0 20 20" fill="none" xmlns="http://www.w3.org/2000/svg">
<circle cx="10" cy="10" r="10" fill="white" fill-opacity="0.17"/>
<path d="M9.7473 5.35715C9.85058 5.14788 10.149 5.14788 10.2523 5.35715L11.5893 8.06621C11.6303 8.14931 11.7096 8.20691 11.8013 8.22024L14.7909 8.65466C15.0219 8.68822 15.1141 8.97203 14.947 9.13492L12.7836 11.2436C12.7173 11.3083 12.687 11.4015 12.7027 11.4929L13.2134 14.4704C13.2528 14.7004 13.0114 14.8758 12.8048 14.7672L10.1308 13.3614C10.0488 13.3183 9.9508 13.3183 9.86877 13.3614L7.19476 14.7672C6.9882 14.8758 6.74678 14.7004 6.78623 14.4704L7.29692 11.4929C7.31258 11.4015 7.2823 11.3083 7.21594 11.2436L5.05262 9.13492C4.88551 8.97203 4.97772 8.68822 5.20867 8.65466L8.1983 8.22024C8.29001 8.20691 8.36929 8.14931 8.4103 8.06621L9.7473 5.35715Z" fill="#F7BE2C"/>
</svg>
