<svg width="20" height="20" viewBox="0 0 20 20" fill="none" xmlns="http://www.w3.org/2000/svg">
<circle cx="10" cy="10" r="10" fill="white" fill-opacity="0.17"/>
<path d="M11.7998 8.05C11.7998 9.04411 10.9939 9.85 9.99979 9.85C9.00568 9.85 8.19979 9.04411 8.19979 8.05C8.19979 7.05589 9.00568 6.25 9.99979 6.25C10.9939 6.25 11.7998 7.05589 11.7998 8.05Z" fill="white"/>
<path d="M5.61865 13.75C6.28136 12.6446 7.73379 11.8881 9.99979 11.8881C12.2658 11.8881 13.7182 12.6446 14.3809 13.75M11.7998 8.05C11.7998 9.04411 10.9939 9.85 9.99979 9.85C9.00568 9.85 8.19979 9.04411 8.19979 8.05C8.19979 7.05589 9.00568 6.25 9.99979 6.25C10.9939 6.25 11.7998 7.05589 11.7998 8.05Z" stroke="white" stroke-linecap="round"/>
</svg>
